<?xml version="1.0" standalone="no"?>
<!DOCTYPE svg PUBLIC "-//W3C//DTD SVG 1.1//EN" "http://www.w3.org/Graphics/SVG/1.1/DTD/svg11.dtd" >
<svg xmlns="http://www.w3.org/2000/svg" xmlns:xlink="http://www.w3.org/1999/xlink" version="1.1">
<metadata>
Created by FontForge 20170731 at Wed May 28 20:45:05 2014
 By Aleksey,,,
Copyright (c) 2014 by Andriy Konstantynov. All rights reserved.
</metadata>
<defs>
<font id="ProbaPro-Light" horiz-adv-x="216" >
  <font-face 
    font-family="Proba Pro Lt"
    font-weight="300"
    font-stretch="normal"
    units-per-em="1000"
    panose-1="2 13 0 3 3 2 0 0 0 0"
    ascent="747"
    descent="-253"
    x-height="450"
    cap-height="700"
    bbox="-27 -257 1178 992"
    underline-thickness="50"
    underline-position="-250"
    unicode-range="U+0020-FB03"
  />
<missing-glyph horiz-adv-x="230" 
 />
    <glyph glyph-name="ff" unicode="ff" horiz-adv-x="566" 
d="M403 0h-57v404h-191v-404h-56v404h-66v46h66v164q0 65 38 104t102 39q27 0 54 -10v-50q-20 11 -46 11q-41 0 -66.5 -26t-25.5 -68v-164h191v164q0 65 38.5 104t102.5 39q27 0 54 -10v-50q-20 11 -46 11q-41 0 -66.5 -26t-25.5 -68v-164h138v-46h-138v-404z" />
    <glyph glyph-name="fi" unicode="fi" horiz-adv-x="482" 
d="M402 0h-56v404h-191v-404h-56v404h-66v46h66v164q0 65 38 104t102 39q27 0 54 -10v-50q-20 11 -46 11q-41 0 -66.5 -26t-25.5 -68v-164h247v-450zM345 556q-12 12 -12 29t12 29t29 12t29 -12t12 -29t-12 -29t-29 -12t-29 12z" />
    <glyph glyph-name="ffi" unicode="ffi" horiz-adv-x="730" 
d="M649 0h-55v404h-191v-404h-57v404h-191v-404h-56v404h-66v46h66v164q0 65 38 104t102 39q27 0 54 -10v-50q-20 11 -46 11q-41 0 -66.5 -26t-25.5 -68v-164h191v164q0 65 38.5 104t102.5 39q27 0 54 -10v-50q-20 11 -46 11q-41 0 -66.5 -26t-25.5 -68v-164h246v-450z
M593 556q-12 12 -12 29t12 29t29 12t29 -12t12 -29t-12 -29t-29 -12t-29 12z" />
    <glyph glyph-name="f_j" unicode="fj" horiz-adv-x="482" 
d="M287 -250v37q59 0 59 57v560h-191v-404h-56v404h-66v46h66v164q0 65 38 104t102 39q27 0 54 -10v-50q-20 11 -46 11q-41 0 -66.5 -26t-25.5 -68v-164h247v-607q0 -45 -24 -71t-63 -26q-21 0 -28 4zM345 556q-12 12 -12 29t12 29t29 12t29 -12t12 -29t-12 -29t-29 -12
t-29 12z" />
    <glyph glyph-name="afii10104_afii10104" unicode="&#x457;&#x457;" horiz-adv-x="433" 
d="M136 0h-55v450h55v-450zM75 558q0 -16 -11.5 -27.5t-27.5 -11.5q-27 0 -37 24t9 43t43 9t24 -37zM352 0h-55v450h55v-450zM357 558q-1 24 19.5 34.5t41 0t18.5 -34.5q0 -16 -11 -27.5t-28 -11.5t-28.5 11.5t-11.5 27.5zM177 558q0 26 24 37t43 -9q20 -19 9 -43t-37 -24
q-16 0 -27.5 11.5t-11.5 27.5z" />
    <glyph glyph-name="afii10103_afii10104" unicode="&#x456;&#x457;" horiz-adv-x="433" 
d="M136 0h-55v450h55v-450zM79 556q-12 12 -12 29t12 29t29 12t29 -12t12 -29t-12 -29t-29 -12t-29 12zM352 0h-55v450h55v-450zM219 558q-1 25 19 35t40 0t19 -35q1 -24 -19 -33.5t-40 0t-19 33.5zM357 558q-1 24 19.5 34.5t41 0t18.5 -34.5q0 -16 -11 -27.5t-28 -11.5
t-28.5 11.5t-11.5 27.5z" />
    <glyph glyph-name="quoteright_afii10104" unicode="&#x2019;&#x457;" horiz-adv-x="292" 
d="M48 508l-21 21q39 42 43 69q-16 2 -26 13t-10 27q0 24 20.5 35.5t41 0t20.5 -43.5q0 -56 -68 -122zM212 0h-55v450h55v-450zM217 558q0 26 24 37t43 -9q20 -19 9 -43t-37 -24q-16 0 -27.5 11.5t-11.5 27.5z" />
    <glyph glyph-name="afii10056_afii10056" unicode="&#x407;&#x407;" horiz-adv-x="436" 
d="M137 0h-56v700h56v-700zM73 797q0 -17 -11.5 -28.5t-28.5 -11.5q-25 0 -35.5 25t7.5 43t43 7.5t25 -35.5zM355 0h-56v700h56v-700zM363 797q0 25 25 35.5t43 -7.5t7.5 -43t-35.5 -25q-17 0 -28.5 11.5t-11.5 28.5zM217 757q-16 0 -27.5 11.5t-11.5 28.5t11 28t28 11
q24 2 34.5 -18.5t0 -41t-34.5 -19.5z" />
    <glyph glyph-name="f_f_j" unicode="ffj" horiz-adv-x="730" 
d="M535 -250v37q59 0 59 57v560h-191v-404h-57v404h-191v-404h-56v404h-66v46h66v164q0 65 38 104t102 39q27 0 54 -10v-50q-20 11 -46 11q-41 0 -66.5 -26t-25.5 -68v-164h191v164q0 65 38.5 104t102.5 39q27 0 54 -10v-50q-20 11 -46 11q-41 0 -66.5 -26t-25.5 -68v-164
h246v-607q0 -45 -23.5 -71t-62.5 -26q-21 0 -28 4zM593 556q-12 12 -12 29t12 29t29 12t29 -12t12 -29t-12 -29t-29 -12t-29 12z" />
    <glyph glyph-name=".notdef" horiz-adv-x="230" 
 />
    <glyph glyph-name=".null" horiz-adv-x="0" 
 />
    <glyph glyph-name="nonmarkingreturn" horiz-adv-x="333" 
 />
    <glyph glyph-name="space" unicode=" " horiz-adv-x="230" 
 />
    <glyph glyph-name="exclam" unicode="!" 
d="M79 5q-12 12 -12 29t12 29t29 12t29 -12t12 -29t-12 -29t-29 -12t-29 12zM136 186h-55v514h55v-514z" />
    <glyph glyph-name="quotedbl" unicode="&#x22;" horiz-adv-x="360" 
d="M129 450h-48v250h48v-250zM279 450h-49v250h49v-250z" />
    <glyph glyph-name="numbersign" unicode="#" horiz-adv-x="597" 
d="M389 0h-56l30 184h-183l-30 -184h-56l30 184h-80v46h87l39 240h-88v46h95l30 184h56l-31 -184h185l30 184h56l-31 -184h82v-46h-88l-40 -240h90v-46h-97zM410 470h-184l-40 -240h185z" />
    <glyph glyph-name="dollar" unicode="$" horiz-adv-x="521" 
d="M275 -100h-36v93q-119 6 -195 88l36 36q58 -67 159 -72v287q-33 13 -67 29q-28 15 -55 35q-59 46 -59 128q0 74 45 127q47 53 136 56v93h36v-95q102 -11 167 -77l-37 -37q-48 51 -130 62v-274l55 -23q16 -6 49 -26q30 -16 46 -35q39 -45 39 -106q0 -76 -49 -132
q-48 -57 -140 -63v-94zM275 318v-272q66 8 97 51q33 44 33 91q0 46 -31 75t-99 55zM239 394v260q-58 -4 -90 -41t-32 -88q0 -46 29.5 -75.5t92.5 -55.5z" />
    <glyph glyph-name="percent" unicode="%" horiz-adv-x="836" 
d="M265 0h-58l365 700h57zM206 707q73 0 118 -45.5t45 -119.5t-45 -119.5t-118 -45.5q-72 0 -117 46t-45 119t45 119t117 46zM206 421q50 0 81.5 34t31.5 87t-31.5 87t-81.5 34q-49 0 -80.5 -34t-31.5 -87t31.5 -87t80.5 -34zM629 323q73 0 118 -45.5t45 -119.5t-45 -119.5
t-118 -45.5q-72 0 -117 46t-45 119t45 119t117 46zM629 37q50 0 81.5 34t31.5 87t-31.5 87t-81.5 34q-49 0 -80.5 -34t-31.5 -87t31.5 -87t80.5 -34z" />
    <glyph glyph-name="ampersand" unicode="&#x26;" horiz-adv-x="609" 
d="M424 358h-84v48h225v-48h-84v-158q0 -92 -60 -150q-59 -57 -154 -57q-96 0 -156 57q-59 59 -59 150q0 66 33.5 114.5t91.5 68.5q-43 19 -67 57.5t-24 90.5q0 78 50 127t131 49t130 -49q51 -49 51 -127h-57q0 55 -35 90t-89 35q-55 0 -90 -35t-35 -90t35 -90t90 -35h29
v-48h-29q-70 0 -114 -44t-44 -114q0 -69 44 -112.5t114 -43.5t113.5 43.5t43.5 112.5v158z" />
    <glyph glyph-name="quotesingle" unicode="'" horiz-adv-x="210" 
d="M129 450h-48v250h48v-250z" />
    <glyph glyph-name="parenleft" unicode="(" horiz-adv-x="300" 
d="M243 757v-44q-49 0 -84 -131q-35 -132 -35 -332t35 -332q35 -131 84 -131v-44q-75 0 -126 142q-50 144 -50 365t50 365q51 142 126 142z" />
    <glyph glyph-name="parenright" unicode=")" horiz-adv-x="300" 
d="M57 713v44q76 0 125 -142q51 -143 51 -365t-51 -365q-49 -142 -125 -142v44q49 0 84 131q35 132 35 332t-35 332q-35 131 -84 131z" />
    <glyph glyph-name="asterisk" unicode="*" horiz-adv-x="443" 
d="M305 375l-83 115l-84 -116l-35 26l83 116l-136 44l14 41l136 -44v143h43v-143l137 45l13 -41l-137 -45l85 -116z" />
    <glyph glyph-name="plus" unicode="+" horiz-adv-x="440" 
d="M197 274h-130v46h130v130h46v-130h130v-46h-130v-130h-46v130z" />
    <glyph glyph-name="comma" unicode="," 
d="M82 -96l-22 21q38 40 43 69q-15 2 -25.5 13.5t-10.5 26.5q0 17 12 29t30 12t29 -12.5t11 -36.5q0 -58 -67 -122z" />
    <glyph glyph-name="hyphen" unicode="-" horiz-adv-x="340" 
d="M273 240h-206v46h206v-46z" />
    <glyph glyph-name="period" unicode="." 
d="M79 5q-12 12 -12 29t12 29t29 12t29 -12t12 -29t-12 -29t-29 -12t-29 12z" />
    <glyph glyph-name="slash" unicode="/" horiz-adv-x="543" 
d="M117 -50h-56l365 800h56z" />
    <glyph glyph-name="zero" unicode="0" horiz-adv-x="567" 
d="M283 707q103 0 166 -99q64 -98 64 -258t-64 -258q-63 -99 -166 -99q-102 0 -166 99q-63 99 -63 258t63 258q64 99 166 99zM158 571q-48 -86 -48 -221q0 -136 48 -221t125 -85t125 84q48 86 48 222q0 137 -48 221q-48 85 -125 85t-125 -85z" />
    <glyph glyph-name="one" unicode="1" horiz-adv-x="306" 
d="M143 650l-110 -22v45l166 31v-704h-56v650z" />
    <glyph glyph-name="two" unicode="2" horiz-adv-x="515" 
d="M55 0v53l307 306q44 44 44 129q0 74 -42 121t-109 47t-109 -47t-42 -121h-57q0 98 57 158q58 61 151 61t150 -61q58 -59 58 -158q0 -105 -62 -167l-273 -272h335v-49h-408z" />
    <glyph glyph-name="three" unicode="3" horiz-adv-x="530" 
d="M263 358h-46v48h46q55 0 89.5 35t34.5 90q0 56 -34.5 90.5t-89.5 34.5t-89.5 -35t-34.5 -90h-57q0 77 50 127q50 49 131 49t131 -49t50 -127q0 -51 -24.5 -90t-67.5 -58q59 -20 92.5 -68t33.5 -115q0 -92 -60 -150q-58 -57 -155 -57t-155 57q-59 59 -59 150h56
q0 -69 44 -112.5t114 -43.5t114 43.5t44 112.5q0 70 -44 114t-114 44z" />
    <glyph glyph-name="four" unicode="4" horiz-adv-x="541" 
d="M421 0h-55v140h-322v32l318 528h57v-511h65v-49h-63v-140zM367 615l-255 -426h255v426z" />
    <glyph glyph-name="five" unicode="5" horiz-adv-x="520" 
d="M463 212q0 -98 -58 -159q-57 -60 -150 -60q-92 0 -151 56q-57 57 -57 147h55q0 -68 42.5 -110t110.5 -42q67 0 109 47t42 121q0 82 -47 132q-46 51 -122 51q-79 0 -126 -46l-40 19l45 332h296v-49h-247l-34 -234q43 28 108 28q100 0 162 -65t62 -168z" />
    <glyph glyph-name="six" unicode="6" horiz-adv-x="530" 
d="M241 621l55 86l47 -28q-103 -155 -171 -276q38 25 94 25q96 0 155 -60q60 -58 60 -157q0 -97 -60 -158q-59 -60 -156 -60t-157 60q-59 62 -59 162q0 28 6 66q4 19 10 35q21 51 34 74l24 43l33 54q18 30 38 60zM105 212q0 -75 44.5 -121.5t115.5 -46.5t115.5 46.5
t44.5 121.5q0 74 -44.5 120.5t-115.5 46.5t-115.5 -46.5t-44.5 -120.5z" />
    <glyph glyph-name="seven" unicode="7" horiz-adv-x="518" 
d="M394 651h-340v49h410v-25l-260 -675h-59z" />
    <glyph glyph-name="eight" unicode="8" horiz-adv-x="533" 
d="M86 531q0 78 50 127t131 49t130 -49q51 -49 51 -127q0 -51 -24.5 -90t-67.5 -58q58 -20 91.5 -68.5t33.5 -114.5q0 -92 -60 -150q-59 -57 -154 -57q-96 0 -156 57q-59 59 -59 150q0 66 33.5 114.5t91.5 68.5q-91 40 -91 148zM109 200q0 -69 44 -112.5t114 -43.5
t113.5 43.5t43.5 112.5q0 70 -43.5 113.5t-113.5 43.5t-114 -43.5t-44 -113.5zM177 621q-35 -35 -35 -90t35 -90q34 -34 90 -34q55 0 89 34q35 35 35 90t-35 90t-89 35q-55 0 -90 -35z" />
    <glyph glyph-name="nine" unicode="9" horiz-adv-x="530" 
d="M288 78l-54 -85l-47 28q103 155 171 276q-38 -25 -94 -25q-95 0 -156 59q-59 61 -59 158q0 96 59 157q60 61 157 61q98 0 156 -61q60 -60 60 -161q0 -32 -7 -67q-1 -11 -10 -34q-13 -39 -33 -75q-3 -6 -12 -21.5t-13 -21.5l-7.5 -12.5t-11.5 -19t-13 -21.5l-38 -61z
M425 488q0 75 -44.5 121.5t-115.5 46.5t-115.5 -46.5t-44.5 -121.5q0 -74 44.5 -120.5t115.5 -46.5t115.5 46.5t44.5 120.5z" />
    <glyph glyph-name="colon" unicode=":" 
d="M79 5q-12 12 -12 29t12 29t29 12t29 -12t12 -29t-12 -29t-29 -12t-29 12zM79 387q-12 12 -12 29t12 29t29 12t29 -12t12 -29t-12 -29t-29 -12t-29 12z" />
    <glyph glyph-name="semicolon" unicode=";" 
d="M82 -96l-22 21q38 40 43 69q-15 2 -25.5 13.5t-10.5 26.5q0 17 12 29t30 12t29 -12.5t11 -36.5q0 -58 -67 -122zM79 387q-12 12 -12 29t12 29t29 12t29 -12t12 -29t-12 -29t-29 -12t-29 12z" />
    <glyph glyph-name="less" unicode="&#x3c;" horiz-adv-x="410" 
d="M349 144l-33 -33l-276 189l276 189l33 -33l-229 -156z" />
    <glyph glyph-name="equal" unicode="=" horiz-adv-x="484" 
d="M417 334h-350v46h350v-46zM417 161h-350v45h350v-45z" />
    <glyph glyph-name="greater" unicode="&#x3e;" horiz-adv-x="410" 
d="M87 489l276 -189l-276 -189l-33 33l229 156l-229 156z" />
    <glyph glyph-name="question" unicode="?" horiz-adv-x="468" 
d="M79 597l-37 37q74 73 188 73q92 0 140 -53q49 -52 49 -125q0 -77 -56 -121q-3 -3 -19 -15.5t-21 -17.5l-17.5 -17.5t-18 -22.5t-12.5 -24.5t-10 -31.5t-3 -36v-57h-56v57q0 52 16 89.5t39 58.5t46.5 38.5t39.5 42t16 56.5q0 54 -35 91t-99 37q-42 0 -83 -16t-67 -43z
M205 5q-12 12 -12 29t12 29t29 12t29 -12t12 -29t-12 -29t-29 -12t-29 12z" />
    <glyph glyph-name="at" unicode="@" horiz-adv-x="1040" 
d="M844 -82l35 -35q-62 -67 -155 -103.5t-200 -36.5q-213 0 -344 134t-131 348t131 348t342 134q107 0 196 -35t148 -95t92 -141t33 -172q0 -146 -74 -213q-65 -58 -145 -58q-86 0 -111 51q-61 -51 -142 -51q-98 0 -159 64t-61 168q0 103 63 168q64 64 167 64q118 0 181 -68
v-295q0 -24 19 -37t52 -13q61 0 107 52q47 53 47 163q0 168 -113 283q-112 114 -299 114q-185 0 -302 -120q-116 -119 -116 -311t116 -311q117 -120 304 -120q96 0 180 32.5t139 91.5zM531 44q76 0 123 46v278q-49 38 -126 38t-125 -50q-47 -50 -47 -131t48.5 -131
t126.5 -50z" />
    <glyph glyph-name="A" unicode="A" horiz-adv-x="744" 
d="M710 0h-65l-96 218h-355l-95 -218h-65l310 700h55zM527 270l-155 359l-156 -359h311z" />
    <glyph glyph-name="B" unicode="B" horiz-adv-x="541" 
d="M292 0h-208v700h181q82 0 132 -49t50 -130q0 -109 -87 -153q58 -17 91.5 -64.5t33.5 -113.5q0 -85 -53 -138q-52 -52 -140 -52zM429 194q0 64 -38.5 103t-100.5 39h-148v-286h148q62 0 100.5 39.5t38.5 104.5zM262 650h-120v-264h120q58 0 93 36.5t35 95.5t-35 95.5
t-93 36.5z" />
    <glyph glyph-name="C" unicode="C" horiz-adv-x="702" 
d="M406 45q132 0 215 86l38 -36q-97 -102 -256 -102q-155 0 -253 99q-96 99 -96 258t96 258q97 99 253 99q157 0 256 -102l-38 -37q-83 87 -215 87q-131 0 -213 -85q-81 -84 -81 -220q0 -135 81 -221q83 -84 213 -84z" />
    <glyph glyph-name="D" unicode="D" horiz-adv-x="690" 
d="M286 0h-202v700h202q157 0 253 -96q97 -96 97 -254t-97 -254q-96 -96 -253 -96zM286 650h-144v-600h144q132 0 211 82q80 83 80 218q0 134 -80 217t-211 83z" />
    <glyph glyph-name="E" unicode="E" horiz-adv-x="506" 
d="M449 651h-308v-273h274v-49h-274v-280h313v-49h-370v700h365v-49z" />
    <glyph glyph-name="F" unicode="F" horiz-adv-x="477" 
d="M432 651h-291v-273h254v-49h-254v-329h-57v700h348v-49z" />
    <glyph glyph-name="G" unicode="G" horiz-adv-x="743" 
d="M602 314h-199v49h256v-269q-98 -101 -256 -101q-155 0 -253 99q-96 99 -96 258t96 258q97 99 253 99q157 0 256 -102l-38 -37q-83 87 -215 87q-131 0 -213 -85q-81 -84 -81 -220q0 -135 81 -221q83 -84 213 -84q117 0 196 70v199z" />
    <glyph glyph-name="H" unicode="H" horiz-adv-x="694" 
d="M84 700h57v-322h412v322h57v-700h-57v329h-412v-329h-57v700z" />
    <glyph glyph-name="I" unicode="I" horiz-adv-x="218" 
d="M137 0h-56v700h56v-700z" />
    <glyph glyph-name="J" unicode="J" horiz-adv-x="454" 
d="M316 186v514h57v-514q0 -85 -53 -140q-53 -53 -138 -53q-86 0 -138 55l37 38q38 -41 99 -41t98.5 39.5t37.5 101.5z" />
    <glyph glyph-name="K" unicode="K" horiz-adv-x="585" 
d="M137 0h-56v700h56v-700zM548 0h-72l-321 359l300 341h72l-301 -341z" />
    <glyph glyph-name="L" unicode="L" horiz-adv-x="467" 
d="M84 700h57v-651h282v-49h-339v700z" />
    <glyph glyph-name="M" unicode="M" horiz-adv-x="814" 
d="M730 0h-56v582l-252 -415h-30l-251 415v-582h-57v700h44l279 -456l279 456h44v-700z" />
    <glyph glyph-name="N" unicode="N" horiz-adv-x="715" 
d="M84 0v700h41l449 -594v594h57v-700h-41l-449 594v-594h-57z" />
    <glyph glyph-name="O" unicode="O" horiz-adv-x="807" 
d="M403 707q157 0 253 -99q97 -98 97 -258t-97 -258q-96 -99 -253 -99q-155 0 -253 99q-96 99 -96 258t96 258q97 99 253 99zM403 45q130 0 211 84q81 86 81 221q0 136 -81 220q-81 85 -211 85q-129 0 -210 -85q-81 -84 -81 -220q0 -135 81 -221q81 -84 210 -84z" />
    <glyph glyph-name="P" unicode="P" horiz-adv-x="514" 
d="M142 0h-58v700h181q87 0 142 -53q54 -53 54 -139t-54 -139q-53 -52 -142 -52h-123v-317zM402 508q0 64 -37.5 103t-99.5 39h-123v-282h123q62 0 99.5 38.5t37.5 101.5z" />
    <glyph glyph-name="Q" unicode="Q" horiz-adv-x="807" 
d="M767 10l-36 -37l-99 98q-94 -78 -229 -78q-155 0 -253 99q-96 99 -96 258t96 258q97 99 253 99q157 0 253 -99q97 -98 97 -258q0 -144 -84 -242zM403 45q117 0 191 64l-122 122l37 37l118 -118q67 80 67 200q0 136 -81 220q-79 85 -210 85q-130 0 -211 -85
q-80 -85 -80 -220t80 -221q81 -84 211 -84z" />
    <glyph glyph-name="R" unicode="R" horiz-adv-x="527" 
d="M493 0h-66l-176 317h-109v-317h-58v700h188q88 0 141.5 -52.5t53.5 -139.5q0 -76 -42.5 -126.5t-114.5 -61.5zM409 508q0 64 -37.5 103t-99.5 39h-130v-282h130q62 0 99.5 38.5t37.5 101.5z" />
    <glyph glyph-name="S" unicode="S" horiz-adv-x="521" 
d="M442 628l-37 -37q-25 28 -68 46t-86 18q-67 0 -101 -40q-33 -39 -33 -90q0 -36 19 -62.5t49.5 -43t67.5 -31t74.5 -31t68 -36.5t49.5 -54t19 -78q0 -79 -54 -138q-54 -58 -156 -58q-128 0 -210 88l36 36q30 -33 76 -52.5t93 -19.5q78 0 117 45t39 98q0 14 -2.5 26.5
t-10 23t-13 18.5t-19 17t-20.5 14t-26 13.5t-25.5 11.5t-29 12t-28.5 11q-48 22 -83 39q-90 47 -90 150q0 76 48 129q48 54 141 54q119 0 195 -79z" />
    <glyph glyph-name="T" unicode="T" horiz-adv-x="557" 
d="M515 651h-207v-651h-57v651h-207v49h471v-49z" />
    <glyph glyph-name="U" unicode="U" horiz-adv-x="681" 
d="M539 253v447h58v-447q0 -116 -72 -188q-70 -72 -185 -72q-116 0 -186 72q-70 71 -70 188v447h57v-447q0 -92 55 -150t143 -58q89 0 144 58q56 59 56 150z" />
    <glyph glyph-name="V" unicode="V" horiz-adv-x="744" 
d="M643 700h67l-311 -700h-55l-310 700h67l271 -627z" />
    <glyph glyph-name="W" unicode="W" horiz-adv-x="1146" 
d="M1047 700h65l-266 -700h-59l-214 604l-214 -604h-59l-266 700h65l230 -615l214 615h60l214 -615z" />
    <glyph glyph-name="X" unicode="X" horiz-adv-x="714" 
d="M677 0h-73l-247 315l-247 -315h-73l279 354l-273 346h73l241 -306l240 306h73l-273 -346z" />
    <glyph glyph-name="Y" unicode="Y" horiz-adv-x="661" 
d="M359 0h-57v309l-268 391h66l230 -335l230 335h67l-268 -392v-308z" />
    <glyph glyph-name="Z" unicode="Z" horiz-adv-x="625" 
d="M487 651h-426v49h507v-25l-433 -626h437v-49h-518v25z" />
    <glyph glyph-name="bracketleft" unicode="[" horiz-adv-x="297" 
d="M81 750h158v-46h-103v-908h103v-46h-158v1000z" />
    <glyph glyph-name="backslash" unicode="\" horiz-adv-x="543" 
d="M61 750h56l365 -800h-56z" />
    <glyph glyph-name="bracketright" unicode="]" horiz-adv-x="297" 
d="M161 704h-104v46h159v-1000h-159v46h104v908z" />
    <glyph glyph-name="asciicircum" unicode="^" horiz-adv-x="459" 
d="M40 477l190 190l189 -190l-30 -30l-159 160l-160 -160z" />
    <glyph glyph-name="underscore" unicode="_" horiz-adv-x="450" 
d="M450 -146h-450v46h450v-46z" />
    <glyph glyph-name="grave" unicode="`" horiz-adv-x="263" 
d="M57 637l30 30l119 -119l-30 -30z" />
    <glyph glyph-name="a" unicode="a" horiz-adv-x="449" 
d="M402 37v-37q-7 -4 -25 -4q-52 0 -67 48q-54 -51 -131 -51q-61 0 -94.5 34.5t-33.5 86.5q0 68 61 105q62 39 158 39q23 0 35 -3v64q0 38 -26 64t-73 26q-68 0 -102 -37l-32 31q54 54 138 54q70 0 110.5 -39.5t40.5 -98.5v-242q0 -40 41 -40zM194 41q67 0 111 47v127
q-11 3 -32 3q-75 0 -121 -27t-46 -72q0 -33 22 -55.5t66 -22.5z" />
    <glyph glyph-name="b" unicode="b" horiz-adv-x="539" 
d="M261 -7q-118 0 -180 68v689h55v-335q54 42 132 42q99 0 161 -65t62 -167q0 -104 -64 -168q-63 -64 -166 -64zM261 406q-78 0 -125 -50v-274q49 -38 126 -38t124 50q48 49 48 131q0 81 -48 131t-125 50z" />
    <glyph glyph-name="c" unicode="c" horiz-adv-x="482" 
d="M280 44q80 0 128 51l35 -35q-64 -67 -166 -67t-165 64q-63 65 -63 168t63 168q63 64 165 64q103 0 166 -68l-35 -34q-48 51 -128 51q-78 0 -126.5 -50t-48.5 -131t48.5 -131t126.5 -50z" />
    <glyph glyph-name="d" unicode="d" horiz-adv-x="541" 
d="M461 750v-750h-55v40q-59 -47 -138 -47q-98 0 -159 64q-60 65 -60 168t62 168q63 64 165 64q74 0 130 -39v332h55zM280 44q80 0 126 49v265q-48 48 -126 48q-77 0 -127 -50q-48 -50 -48 -131t48.5 -131t126.5 -50z" />
    <glyph glyph-name="e" unicode="e" horiz-adv-x="511" 
d="M464 212h-357q3 -76 50.5 -122t124.5 -46q81 0 129 51l35 -35q-64 -67 -168 -67q-102 0 -166 64q-63 65 -63 170q0 102 58 166t153 64t149.5 -65.5t54.5 -179.5zM262 407q-64 0 -106.5 -41.5t-48.5 -111.5h301q-7 72 -45.5 112.5t-100.5 40.5z" />
    <glyph glyph-name="f" unicode="f" horiz-adv-x="318" 
d="M99 404h-66v46h66v164q0 65 38 104t102 39q27 0 54 -10v-50q-20 11 -46 11q-41 0 -66.5 -26t-25.5 -68v-164h138v-46h-138v-404h-56v404z" />
    <glyph glyph-name="g" unicode="g" horiz-adv-x="501" 
d="M27 -120q0 44 28 76.5t79 48.5q-62 24 -62 75q0 54 68 77q-83 39 -83 138q0 73 47.5 117.5t124.5 44.5q71 0 117 -39q33 39 75 39q3 0 25 -2v-47q-10 3 -21 3q-27 0 -52 -24q26 -38 26 -90q0 -71 -47.5 -115.5t-124.5 -44.5q-47 0 -74 -15t-27 -40t32 -40.5t85 -15.5
q94 0 150 -36.5t56 -97.5q0 -67 -64 -107q-63 -42 -160 -42q-90 0 -144 38t-54 99zM84 -120q0 -42 37.5 -67t102.5 -25q70 0 120 29q49 28 49 74q0 41 -41 65.5t-108 24.5q-74 0 -117 -28t-43 -73zM112 297q0 -51 32.5 -82.5t84.5 -31.5t84 31.5t32 82.5q0 50 -32 82t-84 32
t-84.5 -32t-32.5 -82z" />
    <glyph glyph-name="h" unicode="h" horiz-adv-x="526" 
d="M81 0v750h55v-340q56 47 137 47q76 0 122.5 -50.5t46.5 -131.5v-275h-55v275q0 58 -34.5 94.5t-90.5 36.5q-76 0 -126 -48v-358h-55z" />
    <glyph glyph-name="i" unicode="i" 
d="M136 0h-55v450h55v-450zM79 556q-12 12 -12 29t12 29t29 12t29 -12t12 -29t-12 -29t-29 -12t-29 12z" />
    <glyph glyph-name="j" unicode="j" 
d="M79 556q-12 12 -12 29t12 29t29 12t29 -12t12 -29t-12 -29t-29 -12t-29 12zM21 -250v37q28 0 44 15t16 42v606h55v-607q0 -45 -23.5 -71t-62.5 -26q-22 0 -29 4z" />
    <glyph glyph-name="k" unicode="k" horiz-adv-x="458" 
d="M136 750v-750h-55v750h55zM421 0h-67l-218 239l195 211h67l-196 -211z" />
    <glyph glyph-name="l" unicode="l" horiz-adv-x="243" 
d="M197 37v-37q-7 -4 -30 -4q-39 0 -62.5 26t-23.5 71v657h55v-656q0 -57 61 -57z" />
    <glyph glyph-name="m" unicode="m" horiz-adv-x="762" 
d="M681 0h-55v309q0 43 -25.5 70t-65.5 27q-81 0 -132 -51q6 -29 6 -46v-309h-56v309q0 43 -25.5 70t-65.5 27q-76 0 -126 -48v-358h-55v450h55v-40q56 47 137 47q77 0 114 -63q63 63 159 63q61 0 98 -41t37 -107v-309z" />
    <glyph glyph-name="n" unicode="n" horiz-adv-x="523" 
d="M81 0v450h55v-40q56 47 137 47q76 0 122.5 -50.5t46.5 -131.5v-275h-55v275q0 58 -34.5 94.5t-90.5 36.5q-76 0 -126 -48v-358h-55z" />
    <glyph glyph-name="o" unicode="o" horiz-adv-x="557" 
d="M278 457q103 0 166 -64q64 -64 64 -168t-64 -168q-63 -64 -166 -64q-102 0 -166 64q-63 65 -63 168t63 167q65 65 166 65zM153 356q-48 -50 -48 -131t48 -131t125 -50t125 50q48 49 48 131q0 81 -48 131t-125 50t-125 -50z" />
    <glyph glyph-name="p" unicode="p" horiz-adv-x="541" 
d="M81 -250v700h55v-40q56 47 138 47q98 0 158 -65q61 -64 61 -167t-63 -168q-63 -64 -164 -64q-77 0 -130 38v-281h-55zM262 406q-76 0 -126 -48v-267q50 -47 126 -47q77 0 125 50q49 49 49 131t-49 131q-48 50 -125 50z" />
    <glyph glyph-name="q" unicode="q" horiz-adv-x="539" 
d="M278 457q118 0 181 -68v-639h-55v284q-58 -41 -133 -41q-100 0 -161 64t-61 168q0 103 63 168q63 64 166 64zM404 93v275q-50 38 -127 38t-125 -50q-47 -50 -47 -131t48 -131t125 -50t126 49z" />
    <glyph glyph-name="r" unicode="r" horiz-adv-x="343" 
d="M264 456q3 0 29 -2v-50q-17 3 -33 3q-77 0 -124 -65v-342h-55v450h55v-56q54 62 128 62z" />
    <glyph glyph-name="s" unicode="s" horiz-adv-x="383" 
d="M316 405l-35 -34q-34 37 -94 37q-36 0 -57.5 -22.5t-20.5 -52t22 -48.5q19 -16 73.5 -36t89.5 -48t35 -76q0 -52 -38 -93q-38 -39 -107 -39q-87 0 -141 57l35 35q38 -44 103 -44q44 0 68.5 24.5t24.5 58.5q0 28 -22.5 46.5t-55 30.5t-65 25.5t-55 40.5t-22.5 66
q0 53 34.5 88.5t95.5 35.5q83 0 132 -52z" />
    <glyph glyph-name="t" unicode="t" horiz-adv-x="313" 
d="M90 404h-60v46h60v100h57v-100h131v-46h-131v-273q0 -40 24 -64.5t63 -24.5q24 0 44 11v-50q-27 -10 -53 -10q-61 0 -98 38t-37 100v273z" />
    <glyph glyph-name="u" unicode="u" horiz-adv-x="535" 
d="M399 450h55v-269q0 -84 -51.5 -136t-135.5 -52q-83 0 -135 52q-51 53 -51 136v269h56v-269q0 -61 36.5 -99t94.5 -38t94.5 38t36.5 99v269z" />
    <glyph glyph-name="v" unicode="v" horiz-adv-x="529" 
d="M436 450h61l-206 -450h-53l-206 450h62l171 -383z" />
    <glyph glyph-name="w" unicode="w" horiz-adv-x="794" 
d="M699 450h63l-176 -450h-58l-131 374l-131 -374h-58l-176 450h63l142 -384l132 384h56l132 -384z" />
    <glyph glyph-name="x" unicode="x" horiz-adv-x="507" 
d="M470 0h-65l-152 193l-151 -193h-65l180 229l-174 221h65l145 -185l145 185h65l-174 -221z" />
    <glyph glyph-name="y" unicode="y" horiz-adv-x="529" 
d="M436 450h61l-323 -700h-61l125 250l-206 450h62l171 -384z" />
    <glyph glyph-name="z" unicode="z" horiz-adv-x="469" 
d="M337 404h-280v46h358v-25l-283 -379h283v-46h-361v25z" />
    <glyph glyph-name="braceleft" unicode="{" horiz-adv-x="322" 
d="M278 -213v-44q-62 0 -104 61q-41 61 -41 154v99q0 73 -26 122q-25 48 -63 48v44q37 0 63 48.5t26 122.5v100q0 93 41 154q42 61 104 61v-44q-38 0 -63 -49q-26 -49 -26 -122v-100q0 -69 -23 -120.5t-62 -72.5q39 -21 62 -72t23 -120v-99q0 -73 26 -122q25 -49 63 -49z
" />
    <glyph glyph-name="bar" unicode="|" 
d="M136 -250h-55v1000h55v-1000z" />
    <glyph glyph-name="braceright" unicode="}" horiz-adv-x="322" 
d="M44 -257v44q38 0 63 49q26 49 26 122v99q0 69 23 120t62 72q-39 21 -62 72.5t-23 120.5v100q0 73 -26 122q-25 49 -63 49v44q63 0 103 -61q42 -60 42 -154v-100q0 -74 26 -122.5t63 -48.5v-44q-38 0 -63 -48q-26 -49 -26 -122v-99q0 -94 -42 -154q-40 -61 -103 -61z" />
    <glyph glyph-name="asciitilde" unicode="~" horiz-adv-x="433" 
d="M80 252h-40q0 45 28.5 73t72.5 28q50 0 80 -34q31 -33 70 -33q27 0 44 17.5t17 45.5h40q0 -46 -28 -74t-73 -28q-8 0 -16.5 1.5t-14.5 3t-14 5.5t-12 6.5t-12.5 8.5t-11 8t-11.5 9.5t-10 8.5q-30 28 -71 12t-38 -58z" />
    <glyph glyph-name="exclamdown" unicode="&#xa1;" 
d="M79 387q-12 12 -12 29t12 29t29 12t29 -12t12 -29t-12 -29t-29 -12t-29 12zM81 -250v514h55v-514h-55z" />
    <glyph glyph-name="cent" unicode="&#xa2;" horiz-adv-x="482" 
d="M283 -100h-36v95q-90 9 -144 71.5t-54 158.5q0 95 54 157t144 73v95h36v-93q98 -3 160 -68l-35 -34q-48 49 -125 51v-362q77 0 125 51l35 -35q-61 -64 -160 -67v-93zM247 46v357q-66 -11 -104 -58.5t-38 -119.5t38.5 -120t103.5 -59z" />
    <glyph glyph-name="sterling" unicode="&#xa3;" horiz-adv-x="509" 
d="M120 327h-76v46h76v141q0 86 53 139q53 54 138 54q87 0 139 -55l-37 -38q-39 41 -100 41t-98.5 -39.5t-37.5 -101.5v-141h184v-46h-184v-219q30 -4 84 -36q55 -30 88 -30q28 0 45 17.5t17 45.5h46q0 -51 -29.5 -81.5t-77.5 -30.5q-44 0 -106 35t-94 35q-28 0 -45 -17.5
t-17 -45.5h-46q0 42 21 70.5t57 36.5v220z" />
    <glyph glyph-name="currency" unicode="&#xa4;" horiz-adv-x="520" 
d="M97 300q0 56 30 100l-83 84l32 32l84 -84q40 33 100 33q58 0 100 -33l84 84l32 -32l-84 -84q31 -41 31 -100q0 -60 -31 -101l84 -83l-33 -32l-83 84q-42 -33 -100 -33q-60 0 -100 33l-84 -84l-32 32l83 83q-30 43 -30 101zM260 179q49 0 80.5 34t31.5 87t-31.5 87
t-80.5 34q-50 0 -81 -34t-31 -87t31 -87t81 -34z" />
    <glyph glyph-name="yen" unicode="&#xa5;" horiz-adv-x="661" 
d="M302 227h-147v36h147v46l-268 391h66l230 -335l230 335h67l-268 -392v-45h147v-36h-147v-92h147v-36h-147v-99h-57v99h-147v36h147v92z" />
    <glyph glyph-name="brokenbar" unicode="&#xa6;" 
d="M136 -250h-55v450h55v-450zM81 750h55v-450h-55v450z" />
    <glyph glyph-name="section" unicode="&#xa7;" horiz-adv-x="420" 
d="M150 436l206 -207l-37 -37l-208 208q-62 62 -62 144q0 72 48 117.5t126 45.5q94 0 152 -67l-36 -36q-43 52 -116 52q-52 0 -85 -31.5t-33 -81.5q0 -67 45 -107zM271 14l-207 207l37 37l209 -208q62 -62 62 -144q0 -72 -48.5 -117.5t-126.5 -45.5q-94 0 -152 67l36 36
q43 -52 116 -52q52 0 85 31.5t33 81.5q0 60 -44 107z" />
    <glyph glyph-name="dieresis" unicode="&#xa8;" horiz-adv-x="422" 
d="M77 573q0 17 11.5 28.5t28.5 11.5q25 0 35.5 -25t-7.5 -43t-43 -7.5t-25 35.5zM273 545q-11 11 -11 28t11 28q11 12 28 12t28 -12q12 -11 12 -28t-12 -28q-11 -11 -28 -11t-28 11z" />
    <glyph glyph-name="copyright" unicode="&#xa9;" horiz-adv-x="807" 
d="M403 707q157 0 253 -99q97 -98 97 -258t-97 -258q-96 -99 -253 -99q-155 0 -253 99q-96 99 -96 258t96 258q97 99 253 99zM182 581q-84 -89 -84 -231t84 -231q86 -89 221 -89q136 0 221 88t85 232q0 143 -85 231q-86 89 -221 89t-221 -89zM514 245l24 -23
q-50 -51 -128 -51q-79 0 -128 49q-48 50 -48 130t48 129q50 50 128 50t128 -51l-24 -24q-39 41 -102 41q-62 0 -101 -40.5t-39 -104.5t39 -105q39 -40 101 -40t102 40z" />
    <glyph glyph-name="ordfeminine" unicode="&#xaa;" horiz-adv-x="259" 
d="M229 477v-25q-10 -2 -16 -2q-29 0 -40 26q-29 -28 -71 -28q-34 0 -52.5 19t-18.5 48q0 36 34 58.5t86 22.5q9 0 19 -2v31q0 20 -13.5 33.5t-37.5 13.5q-35 0 -55 -21l-21 21q30 32 79 32q40 0 62.5 -22.5t22.5 -56.5v-127q0 -21 22 -21zM113 480q36 0 57 24v64
q-3 1 -17 1q-37 0 -60.5 -13.5t-23.5 -36.5q0 -16 11 -27.5t33 -11.5z" />
    <glyph glyph-name="guillemotleft" unicode="&#xab;" horiz-adv-x="470" 
d="M240 111l-30 -30l-170 169l170 169l30 -30l-140 -139zM406 111l-30 -30l-169 169l169 169l30 -30l-139 -139z" />
    <glyph glyph-name="logicalnot" unicode="&#xac;" horiz-adv-x="500" 
d="M387 277h-320v46h366v-163h-46v117z" />
    <glyph glyph-name="uni00AD" unicode="&#xad;" horiz-adv-x="340" 
d="M273 240h-206v46h206v-46z" />
    <glyph glyph-name="registered" unicode="&#xae;" horiz-adv-x="807" 
d="M403 707q157 0 253 -99q97 -98 97 -258t-97 -258q-96 -99 -253 -99q-155 0 -253 99q-96 99 -96 258t96 258q97 99 253 99zM182 581q-84 -89 -84 -231t84 -231q86 -89 221 -89q136 0 221 88t85 232q0 143 -85 231q-86 89 -221 89t-221 -89zM522 174h-43l-84 155h-48v-155
h-39v350h98q46 0 74 -26.5t28 -71.5q0 -36 -20.5 -61.5t-54.5 -32.5zM406 491h-59v-130h59q29 0 46.5 18t17.5 47t-17.5 47t-46.5 18z" />
    <glyph glyph-name="overscore" unicode="&#xaf;" horiz-adv-x="384" 
d="M310 549h-236v37h236v-37z" />
    <glyph glyph-name="degree" unicode="&#xb0;" horiz-adv-x="292" 
d="M146 705q44 0 71 -27.5t27 -72.5t-27 -72.5t-71 -27.5q-43 0 -70 27.5t-27 72.5t27 72.5t70 27.5zM146 539q29 0 47 18t18 48t-18 48t-47 18q-28 0 -46 -18t-18 -48t18 -48t46 -18z" />
    <glyph glyph-name="plusminus" unicode="&#xb1;" horiz-adv-x="440" 
d="M197 281h-130v45h130v130h46v-130h130v-45h-130v-131h-46v131zM373 71h-306v46h306v-46z" />
    <glyph glyph-name="twosuperior" unicode="&#xb2;" horiz-adv-x="278" 
d="M35 350v32l152 152q20 20 20 59q0 35 -19 56.5t-50 21.5t-50.5 -22t-19.5 -56h-37q0 50 29.5 80.5t77.5 30.5q47 0 76.5 -31t29.5 -80q0 -51 -32 -83l-128 -129h160v-31h-209z" />
    <glyph glyph-name="threesuperior" unicode="&#xb3;" horiz-adv-x="286" 
d="M143 525h-23v31h23q37 -4 52 35.5t-11 63.5q-18 15 -41 16t-41 -15.5t-16 -41.5h-38q0 40 26.5 65t68.5 25t68 -25t26 -65q0 -52 -43 -73q58 -22 58 -89q0 -47 -30 -76.5t-79 -29.5t-79.5 29.5t-30.5 76.5h37q-4 -48 45 -67t80 14q33 32 14.5 81t-66.5 45z" />
    <glyph glyph-name="acute" unicode="&#xb4;" horiz-adv-x="263" 
d="M87 518l-30 30l119 119l30 -30z" />
    <glyph glyph-name="mu" unicode="&#xb5;" horiz-adv-x="535" 
d="M21 -200v37q28 0 44 15t16 42v556h56v-269q0 -61 36.5 -99t94.5 -38t94.5 38t36.5 99v269h55v-269q0 -84 -51.5 -136t-135.5 -52q-81 0 -131 49v-149q0 -45 -23.5 -71t-62.5 -26q-22 0 -29 4z" />
    <glyph glyph-name="paragraph" unicode="&#xb6;" horiz-adv-x="551" 
d="M249 700h89v-700h-53v324h-36q-87 0 -139 51q-53 53 -53 137q0 85 53 136q52 52 139 52zM470 0h-53v700h53v-700z" />
    <glyph glyph-name="middot" unicode="&#xb7;" 
d="M79 221q-12 12 -12 29t12 29t29 12t29 -12t12 -29t-12 -29t-29 -12t-29 12z" />
    <glyph glyph-name="cedilla" unicode="&#xb8;" horiz-adv-x="261" 
d="M103 0h29v-61q30 -5 47.5 -24.5t17.5 -49.5q0 -34 -22 -55t-57 -21q-37 0 -58 23l21 22q17 -15 37 -15q21 0 35 13t14 34q0 48 -64 48v86z" />
    <glyph glyph-name="onesuperior" unicode="&#xb9;" horiz-adv-x="178" 
d="M81 668l-55 -10v28l91 16v-352h-36v318z" />
    <glyph glyph-name="ordmasculine" unicode="&#xba;" horiz-adv-x="316" 
d="M158 704q57 0 92.5 -35.5t35.5 -92.5t-35.5 -92.5t-92.5 -35.5q-56 0 -91.5 35.5t-35.5 92.5t35.5 92.5t91.5 35.5zM69 576q0 -42 25 -68t64 -26q40 0 64.5 26t24.5 68q0 41 -24.5 67.5t-64.5 26.5q-39 0 -64 -26.5t-25 -67.5z" />
    <glyph glyph-name="guillemotright" unicode="&#xbb;" horiz-adv-x="470" 
d="M254 419l169 -169l-169 -169l-30 30l139 139l-139 139zM87 419l169 -169l-169 -169l-30 30l139 139l-139 139z" />
    <glyph glyph-name="onequarter" unicode="&#xbc;" horiz-adv-x="632" 
d="M81 668l-55 -10v28l91 16v-352h-36v318zM148 0h-44l364 700h45zM564 0h-36v68h-159v18l157 264h37v-251h31v-31h-30v-68zM530 295l-116 -196h116v196z" />
    <glyph glyph-name="onehalf" unicode="&#xbd;" horiz-adv-x="683" 
d="M81 668l-55 -10v28l91 16v-352h-36v318zM148 0h-44l364 700h45zM440 0v32l151 152q21 21 21 59q0 34 -19.5 56t-49.5 22q-31 0 -50.5 -21.5t-19.5 -56.5h-37q0 50 29.5 80.5t77.5 30.5q47 0 76.5 -31t29.5 -80q0 -50 -33 -83l-128 -129h161v-31h-209z" />
    <glyph glyph-name="threequarters" unicode="&#xbe;" horiz-adv-x="645" 
d="M143 525h-23v31h23q37 -4 52 35.5t-11 63.5q-18 15 -41 16t-41 -15.5t-16 -41.5h-38q0 40 26.5 65t68.5 25t68 -25t26 -65q0 -52 -43 -73q58 -22 58 -89q0 -47 -30 -76.5t-79 -29.5t-79.5 29.5t-30.5 76.5h37q-4 -48 45 -67t80 14q33 32 14.5 81t-66.5 45zM188 0h-44
l364 700h44zM577 0h-36v68h-159v18l157 264h37v-251h32v-31h-31v-68zM543 295l-116 -196h116v196z" />
    <glyph glyph-name="questiondown" unicode="&#xbf;" horiz-adv-x="468" 
d="M389 -147l37 -37q-74 -73 -188 -73q-91 0 -141 53q-48 52 -48 125q0 77 55 121q3 3 15 12.5t16.5 13t15 13t15 15.5t12.5 16t12 19.5t8.5 21.5t6 25.5t1.5 28.5v57h56v-57q0 -52 -16 -89.5t-39 -58.5t-46.5 -38.5t-39.5 -42t-16 -56.5q0 -54 35 -91t99 -37q42 0 83 16
t67 43zM263 445q12 -12 12 -29t-12 -29t-29 -12t-29 12t-12 29t12 29t29 12t29 -12z" />
    <glyph glyph-name="Agrave" unicode="&#xc0;" horiz-adv-x="744" 
d="M710 0h-65l-96 218h-355l-95 -218h-65l310 700h55zM527 270l-155 359l-156 -359h311zM277 860l30 30l119 -119l-30 -30z" />
    <glyph glyph-name="Aacute" unicode="&#xc1;" horiz-adv-x="744" 
d="M710 0h-65l-96 218h-355l-95 -218h-65l310 700h55zM527 270l-155 359l-156 -359h311zM347 741l-30 30l119 119l30 -30z" />
    <glyph glyph-name="Acircumflex" unicode="&#xc2;" horiz-adv-x="744" 
d="M710 0h-65l-96 218h-355l-95 -218h-65l310 700h55zM527 270l-155 359l-156 -359h311zM253 771l119 119l119 -119l-30 -30l-89 89l-89 -89z" />
    <glyph glyph-name="Atilde" unicode="&#xc3;" horiz-adv-x="744" 
d="M710 0h-65l-96 218h-355l-95 -218h-65l310 700h55zM527 270l-155 359l-156 -359h311zM274 768h-35q0 36 22 59t56 23q30 0 59 -26q28 -25 48 -25t32.5 13t12.5 34h35q0 -37 -22 -59.5t-58 -22.5q-32 0 -58 25q-28 26 -48 26t-32 -13t-12 -34z" />
    <glyph glyph-name="Adieresis" unicode="&#xc4;" horiz-adv-x="744" 
d="M710 0h-65l-96 218h-355l-95 -218h-65l310 700h55zM527 270l-155 359l-156 -359h311zM319 797q0 -17 -11.5 -28.5t-28.5 -11.5q-25 0 -35.5 25t7.5 43t43 7.5t25 -35.5zM464 836q17 0 28.5 -11.5t11.5 -27.5q0 -27 -25 -36.5t-43 7.5q-18 20 -7.5 44t35.5 24z" />
    <glyph glyph-name="Aring" unicode="&#xc5;" horiz-adv-x="744" 
d="M710 0h-65l-96 218h-355l-95 -218h-65l310 700h55zM527 270l-155 359l-156 -359h311zM372 912q39 0 62.5 -24t23.5 -64t-23.5 -64.5t-62.5 -24.5q-38 0 -62 24.5t-24 64.5t24 64t62 24zM316 823q0 -25 15.5 -41t40.5 -16t40.5 16t15.5 41q0 26 -16 42t-40 16
q-25 0 -40.5 -16t-15.5 -42z" />
    <glyph glyph-name="AE" unicode="&#xc6;" horiz-adv-x="769" 
d="M713 651h-284v-273h251v-49h-251v-280h289v-49h-346v218h-178l-95 -218h-65l310 700h369v-49zM372 628l-156 -358h156v358z" />
    <glyph glyph-name="Ccedilla" unicode="&#xc7;" horiz-adv-x="702" 
d="M406 45q132 0 215 86l38 -36q-95 -98 -242 -102v-54q30 -5 47 -24.5t17 -49.5q0 -34 -22 -55t-57 -21q-37 0 -58 23l21 22q17 -15 37 -15q21 0 35 13t14 34q0 48 -64 48v80q-149 5 -241 103t-92 253q0 159 96 258q97 99 253 99q157 0 256 -102l-38 -37q-83 87 -215 87
q-131 0 -213 -85q-81 -84 -81 -220q0 -135 81 -221q83 -84 213 -84z" />
    <glyph glyph-name="Egrave" unicode="&#xc8;" horiz-adv-x="506" 
d="M449 651h-308v-273h274v-49h-274v-280h313v-49h-370v700h365v-49zM173 860l30 30l119 -119l-30 -30z" />
    <glyph glyph-name="Eacute" unicode="&#xc9;" horiz-adv-x="506" 
d="M449 651h-308v-273h274v-49h-274v-280h313v-49h-370v700h365v-49zM243 741l-30 30l119 119l30 -30z" />
    <glyph glyph-name="Ecircumflex" unicode="&#xca;" horiz-adv-x="506" 
d="M149 771l119 119l119 -119l-30 -30l-89 89l-89 -89zM449 651h-308v-273h274v-49h-274v-280h313v-49h-370v700h365v-49z" />
    <glyph glyph-name="Edieresis" unicode="&#xcb;" horiz-adv-x="506" 
d="M449 651h-308v-273h274v-49h-274v-280h313v-49h-370v700h365v-49zM215 797q0 -17 -11.5 -28.5t-28.5 -11.5q-25 0 -35.5 25t7.5 43t43 7.5t25 -35.5zM360 836q17 0 28.5 -11.5t11.5 -27.5q0 -27 -25 -36.5t-43 7.5q-18 20 -7.5 44t35.5 24z" />
    <glyph glyph-name="Igrave" unicode="&#xcc;" horiz-adv-x="218" 
d="M15 860l30 30l119 -119l-30 -30zM137 0h-56v700h56v-700z" />
    <glyph glyph-name="Iacute" unicode="&#xcd;" horiz-adv-x="218" 
d="M85 741l-30 30l119 119l30 -30zM137 0h-56v700h56v-700z" />
    <glyph glyph-name="Icircumflex" unicode="&#xce;" horiz-adv-x="218" 
d="M-10 771l119 119l119 -119l-30 -30l-89 89l-89 -89zM137 0h-56v700h56v-700z" />
    <glyph glyph-name="Idieresis" unicode="&#xcf;" horiz-adv-x="218" 
d="M137 0h-56v700h56v-700zM73 797q0 -17 -11.5 -28.5t-28.5 -11.5q-25 0 -35.5 25t7.5 43t43 7.5t25 -35.5zM145 797q0 25 25 35.5t43 -7.5t7.5 -43t-35.5 -25q-17 0 -28.5 11.5t-11.5 28.5z" />
    <glyph glyph-name="Eth" unicode="&#xd0;" horiz-adv-x="710" 
d="M111 327h-61v46h61v327h196q157 0 253 -96q97 -96 97 -254t-97 -254q-96 -96 -253 -96h-196v327zM307 650h-138v-277h171v-46h-171v-277h138q131 0 210 82q81 83 81 218q0 134 -81 217q-80 83 -210 83z" />
    <glyph glyph-name="Ntilde" unicode="&#xd1;" horiz-adv-x="715" 
d="M84 0v700h41l449 -594v594h57v-700h-41l-449 594v-594h-57zM260 768h-35q0 37 21.5 59.5t56.5 22.5q30 0 58 -26q28 -25 49 -25q20 0 32.5 13t12.5 34h35q0 -37 -22 -59.5t-58 -22.5q-32 0 -58 25q-28 26 -48 26t-32 -13t-12 -34z" />
    <glyph glyph-name="Ograve" unicode="&#xd2;" horiz-adv-x="807" 
d="M403 707q157 0 253 -99q97 -98 97 -258t-97 -258q-96 -99 -253 -99q-155 0 -253 99q-96 99 -96 258t96 258q97 99 253 99zM403 45q130 0 211 84q81 86 81 221q0 136 -81 220q-81 85 -211 85q-129 0 -210 -85q-81 -84 -81 -220q0 -135 81 -221q81 -84 210 -84zM309 860
l30 30l119 -119l-30 -30z" />
    <glyph glyph-name="Oacute" unicode="&#xd3;" horiz-adv-x="807" 
d="M403 707q157 0 253 -99q97 -98 97 -258t-97 -258q-96 -99 -253 -99q-155 0 -253 99q-96 99 -96 258t96 258q97 99 253 99zM403 45q130 0 211 84q81 86 81 221q0 136 -81 220q-81 85 -211 85q-129 0 -210 -85q-81 -84 -81 -220q0 -135 81 -221q81 -84 210 -84zM379 741
l-30 30l119 119l30 -30z" />
    <glyph glyph-name="Ocircumflex" unicode="&#xd4;" horiz-adv-x="807" 
d="M403 707q157 0 253 -99q97 -98 97 -258t-97 -258q-96 -99 -253 -99q-155 0 -253 99q-96 99 -96 258t96 258q97 99 253 99zM403 45q130 0 211 84q81 86 81 221q0 136 -81 220q-81 85 -211 85q-129 0 -210 -85q-81 -84 -81 -220q0 -135 81 -221q81 -84 210 -84zM285 771
l118 119l119 -119l-30 -30l-89 89l-88 -89z" />
    <glyph glyph-name="Otilde" unicode="&#xd5;" horiz-adv-x="807" 
d="M403 707q157 0 253 -99q97 -98 97 -258t-97 -258q-96 -99 -253 -99q-155 0 -253 99q-96 99 -96 258t96 258q97 99 253 99zM403 45q130 0 211 84q81 86 81 221q0 136 -81 220q-81 85 -211 85q-129 0 -210 -85q-81 -84 -81 -220q0 -135 81 -221q81 -84 210 -84zM306 768
h-35q0 37 21.5 59.5t56.5 22.5q30 0 58 -26q28 -25 49 -25q20 0 32.5 13t12.5 34h35q0 -37 -22.5 -59.5t-57.5 -22.5q-32 0 -58 25q-28 26 -48 26t-32 -13t-12 -34z" />
    <glyph glyph-name="Odieresis" unicode="&#xd6;" horiz-adv-x="807" 
d="M403 707q157 0 253 -99q97 -98 97 -258t-97 -258q-96 -99 -253 -99q-155 0 -253 99q-96 99 -96 258t96 258q97 99 253 99zM403 45q130 0 211 84q81 86 81 221q0 136 -81 220q-81 85 -211 85q-129 0 -210 -85q-81 -84 -81 -220q0 -135 81 -221q81 -84 210 -84zM271 797
q0 25 25 35.5t43 -7.5t7.5 -43t-35.5 -25q-17 0 -28.5 11.5t-11.5 28.5zM456 797q0 16 11.5 27.5t28.5 11.5q25 0 35.5 -24t-8.5 -44q-17 -18 -42 -8t-25 37z" />
    <glyph glyph-name="multiply" unicode="&#xd7;" horiz-adv-x="440" 
d="M220 261l-124 -124l-32 32l124 125l-124 124l32 32l124 -124l124 124l33 -32l-125 -124l125 -125l-33 -32z" />
    <glyph glyph-name="Oslash" unicode="&#xd8;" horiz-adv-x="807" 
d="M121 -7h-60l88 100q-95 98 -95 257t96 258q97 99 253 99q129 0 220 -70l62 70h61l-88 -101q95 -98 95 -256q0 -160 -97 -258q-96 -99 -253 -99q-132 0 -221 70zM695 350q0 130 -75 213l-401 -458q77 -60 184 -60q130 0 211 84q81 86 81 221zM112 350q0 -131 74 -214
l401 459q-76 60 -184 60q-129 0 -210 -85q-81 -84 -81 -220z" />
    <glyph glyph-name="Ugrave" unicode="&#xd9;" horiz-adv-x="681" 
d="M539 253v447h58v-447q0 -116 -72 -188q-70 -72 -185 -72q-116 0 -186 72q-70 71 -70 188v447h57v-447q0 -92 55 -150t143 -58q89 0 144 58q56 59 56 150zM246 860l30 30l119 -119l-30 -30z" />
    <glyph glyph-name="Uacute" unicode="&#xda;" horiz-adv-x="681" 
d="M539 253v447h58v-447q0 -116 -72 -188q-70 -72 -185 -72q-116 0 -186 72q-70 71 -70 188v447h57v-447q0 -92 55 -150t143 -58q89 0 144 58q56 59 56 150zM316 741l-30 30l119 119l30 -30z" />
    <glyph glyph-name="Ucircumflex" unicode="&#xdb;" horiz-adv-x="681" 
d="M539 253v447h58v-447q0 -116 -72 -188q-70 -72 -185 -72q-116 0 -186 72q-70 71 -70 188v447h57v-447q0 -92 55 -150t143 -58q89 0 144 58q56 59 56 150zM222 771l118 119l119 -119l-30 -30l-89 89l-88 -89z" />
    <glyph glyph-name="Udieresis" unicode="&#xdc;" horiz-adv-x="681" 
d="M539 253v447h58v-447q0 -116 -72 -188q-70 -72 -185 -72q-116 0 -186 72q-70 71 -70 188v447h57v-447q0 -92 55 -150t143 -58q89 0 144 58q56 59 56 150zM208 797q0 16 11.5 27.5t28.5 11.5q25 0 35.5 -24t-8.5 -44q-17 -18 -42 -8t-25 37zM393 797q0 25 25 35.5t43 -7.5
t7.5 -43t-35.5 -25q-17 0 -28.5 11.5t-11.5 28.5z" />
    <glyph glyph-name="Yacute" unicode="&#xdd;" horiz-adv-x="661" 
d="M359 0h-57v309l-268 391h66l230 -335l230 335h67l-268 -392v-308zM306 741l-30 30l119 119l30 -30z" />
    <glyph glyph-name="Thorn" unicode="&#xde;" horiz-adv-x="514" 
d="M142 0h-58v700h58v-150h123q87 0 142 -53q54 -53 54 -139q0 -87 -54 -139t-142 -52h-123v-167zM402 358q0 64 -37.5 102.5t-99.5 38.5h-123v-282h123q61 0 99 39t38 102z" />
    <glyph glyph-name="germandbls" unicode="&#xdf;" horiz-adv-x="595" 
d="M137 578v-578h-56v578q0 80 51 129q53 50 135 50q83 0 136 -50q52 -49 52 -129q0 -66 -36 -111.5t-96 -57.5q0 -80 77 -118q4 -2 21 -10t22.5 -11t20.5 -11.5t21 -14.5t17.5 -16t16.5 -19.5t11 -22t8.5 -27t2.5 -31.5q0 -53 -38 -94t-106 -41q-88 0 -142 57l35 35
q38 -44 103 -44q45 0 69 25t24 60q0 26 -12 46t-31.5 32.5t-42.5 24.5t-46.5 25.5t-43 31.5t-31.5 48t-12 69v47q59 0 95 35t36 93q0 56 -36.5 92t-94.5 36t-94 -36t-36 -92z" />
    <glyph glyph-name="agrave" unicode="&#xe0;" horiz-adv-x="449" 
d="M402 37v-37q-7 -4 -25 -4q-52 0 -67 48q-54 -51 -131 -51q-61 0 -94.5 34.5t-33.5 86.5q0 68 61 105q62 39 158 39q23 0 35 -3v64q0 38 -26 64t-73 26q-68 0 -102 -37l-32 31q54 54 138 54q70 0 110.5 -39.5t40.5 -98.5v-242q0 -40 41 -40zM194 41q67 0 111 47v127
q-11 3 -32 3q-75 0 -121 -27t-46 -72q0 -33 22 -55.5t66 -22.5zM114 637l30 30l118 -119l-30 -30z" />
    <glyph glyph-name="aacute" unicode="&#xe1;" horiz-adv-x="449" 
d="M402 37v-37q-7 -4 -25 -4q-52 0 -67 48q-54 -51 -131 -51q-61 0 -94.5 34.5t-33.5 86.5q0 68 61 105q62 39 158 39q23 0 35 -3v64q0 38 -26 64t-73 26q-68 0 -102 -37l-32 31q54 54 138 54q70 0 110.5 -39.5t40.5 -98.5v-242q0 -40 41 -40zM194 41q67 0 111 47v127
q-11 3 -32 3q-75 0 -121 -27t-46 -72q0 -33 22 -55.5t66 -22.5zM185 518l-30 30l119 119l30 -30z" />
    <glyph glyph-name="acircumflex" unicode="&#xe2;" horiz-adv-x="449" 
d="M402 37v-37q-7 -4 -25 -4q-52 0 -67 48q-54 -51 -131 -51q-61 0 -94.5 34.5t-33.5 86.5q0 68 61 105q62 39 158 39q23 0 35 -3v64q0 38 -26 64t-73 26q-68 0 -102 -37l-32 31q54 54 138 54q70 0 110.5 -39.5t40.5 -98.5v-242q0 -40 41 -40zM194 41q67 0 111 47v127
q-11 3 -32 3q-75 0 -121 -27t-46 -72q0 -33 22 -55.5t66 -22.5zM92 548l119 119l119 -119l-30 -30l-89 89l-89 -89z" />
    <glyph glyph-name="atilde" unicode="&#xe3;" horiz-adv-x="449" 
d="M402 37v-37q-7 -4 -25 -4q-52 0 -67 48q-54 -51 -131 -51q-61 0 -94.5 34.5t-33.5 86.5q0 68 61 105q62 39 158 39q23 0 35 -3v64q0 38 -26 64t-73 26q-68 0 -102 -37l-32 31q54 54 138 54q70 0 110.5 -39.5t40.5 -98.5v-242q0 -40 41 -40zM194 41q67 0 111 47v127
q-11 3 -32 3q-75 0 -121 -27t-46 -72q0 -33 22 -55.5t66 -22.5zM122 545h-35q0 37 21.5 59.5t56.5 22.5q30 0 58 -26q28 -25 49 -25q20 0 32.5 13t12.5 33h35q0 -36 -22 -58.5t-58 -22.5q-32 0 -58 25t-48 25q-20 0 -32 -12.5t-12 -33.5z" />
    <glyph glyph-name="adieresis" unicode="&#xe4;" horiz-adv-x="449" 
d="M402 37v-37q-7 -4 -25 -4q-52 0 -67 48q-54 -51 -131 -51q-61 0 -94.5 34.5t-33.5 86.5q0 68 61 105q62 39 158 39q23 0 35 -3v64q0 38 -26 64t-73 26q-68 0 -102 -37l-32 31q54 54 138 54q70 0 110.5 -39.5t40.5 -98.5v-242q0 -40 41 -40zM194 41q67 0 111 47v127
q-11 3 -32 3q-75 0 -121 -27t-46 -72q0 -33 22 -55.5t66 -22.5zM308 534q-16 0 -27.5 11t-11.5 28t11 28.5t28 11.5q24 1 34.5 -19.5t0 -41t-34.5 -18.5zM84 573q0 27 25 37t42 -9q20 -19 9 -43t-36 -24q-17 0 -28.5 11.5t-11.5 27.5z" />
    <glyph glyph-name="aring" unicode="&#xe5;" horiz-adv-x="449" 
d="M402 37v-37q-7 -4 -25 -4q-52 0 -67 48q-54 -51 -131 -51q-61 0 -94.5 34.5t-33.5 86.5q0 68 61 105q62 39 158 39q23 0 35 -3v64q0 38 -26 64t-73 26q-68 0 -102 -37l-32 31q54 54 138 54q70 0 110.5 -39.5t40.5 -98.5v-242q0 -40 41 -40zM194 41q67 0 111 47v127
q-11 3 -32 3q-75 0 -121 -27t-46 -72q0 -33 22 -55.5t66 -22.5zM215 512q-39 0 -63 24t-24 64t24.5 64.5t62.5 24.5t62 -24.5t24 -64.5t-24 -64t-62 -24zM215 658q-25 0 -40.5 -16t-15.5 -42t15.5 -42t40.5 -16t40.5 16t15.5 42t-16 42t-40 16z" />
    <glyph glyph-name="ae" unicode="&#xe6;" horiz-adv-x="726" 
d="M305 255v64q0 38 -26 64t-73 26q-68 0 -102 -37l-32 31q54 54 138 54t121 -58q55 58 145 58q95 0 149 -65.5t54 -179.5h-318v-108q46 -60 136 -60q82 0 130 51l34 -35q-64 -67 -167 -67q-110 0 -172 69q-58 -69 -143 -69q-61 0 -94.5 34.5t-33.5 86.5q0 68 61 105
q62 39 158 39q23 0 35 -3zM361 319v-65h262q-6 71 -44.5 112t-100.5 41q-78 0 -121 -57q4 -17 4 -31zM305 94v121q-11 3 -32 3q-75 0 -121 -27t-46 -72q0 -33 22 -55.5t66 -22.5q66 0 111 53z" />
    <glyph glyph-name="ccedilla" unicode="&#xe7;" horiz-adv-x="482" 
d="M280 44q80 0 128 51l35 -35q-59 -63 -156 -67v-54q30 -5 47.5 -24.5t17.5 -49.5q0 -34 -22 -55t-58 -21q-35 0 -58 23l22 22q15 -15 36 -15q22 0 35.5 12.5t13.5 34.5q0 48 -64 48v80q-94 6 -151 69q-57 65 -57 162q0 103 63 168q63 64 165 64q103 0 166 -68l-35 -34
q-48 51 -128 51q-78 0 -126.5 -50t-48.5 -131t48.5 -131t126.5 -50z" />
    <glyph glyph-name="egrave" unicode="&#xe8;" horiz-adv-x="511" 
d="M464 212h-357q3 -76 50.5 -122t124.5 -46q81 0 129 51l35 -35q-64 -67 -168 -67q-102 0 -166 64q-63 65 -63 170q0 102 58 166t153 64t149.5 -65.5t54.5 -179.5zM262 407q-64 0 -106.5 -41.5t-48.5 -111.5h301q-7 72 -45.5 112.5t-100.5 40.5zM167 637l30 30l119 -119
l-30 -30z" />
    <glyph glyph-name="eacute" unicode="&#xe9;" horiz-adv-x="511" 
d="M464 212h-357q3 -76 50.5 -122t124.5 -46q81 0 129 51l35 -35q-64 -67 -168 -67q-102 0 -166 64q-63 65 -63 170q0 102 58 166t153 64t149.5 -65.5t54.5 -179.5zM262 407q-64 0 -106.5 -41.5t-48.5 -111.5h301q-7 72 -45.5 112.5t-100.5 40.5zM236 518l-30 30l119 119
l30 -30z" />
    <glyph glyph-name="ecircumflex" unicode="&#xea;" horiz-adv-x="511" 
d="M464 212h-357q3 -76 50.5 -122t124.5 -46q81 0 129 51l35 -35q-64 -67 -168 -67q-102 0 -166 64q-63 65 -63 170q0 102 58 166t153 64t149.5 -65.5t54.5 -179.5zM262 407q-64 0 -106.5 -41.5t-48.5 -111.5h301q-7 72 -45.5 112.5t-100.5 40.5zM142 548l119 119l119 -119
l-30 -30l-89 89l-89 -89z" />
    <glyph glyph-name="edieresis" unicode="&#xeb;" horiz-adv-x="511" 
d="M464 212h-357q3 -76 50.5 -122t124.5 -46q81 0 129 51l35 -35q-64 -67 -168 -67q-102 0 -166 64q-63 65 -63 170q0 102 58 166t153 64t149.5 -65.5t54.5 -179.5zM262 407q-64 0 -106.5 -41.5t-48.5 -111.5h301q-7 72 -45.5 112.5t-100.5 40.5zM129 573q0 17 11.5 28.5
t28.5 11.5q25 0 35.5 -25t-7.5 -43t-43 -7.5t-25 35.5zM314 573q0 26 25 36.5t43 -8.5t7.5 -43t-35.5 -24q-17 0 -28.5 11.5t-11.5 27.5z" />
    <glyph glyph-name="igrave" unicode="&#xec;" 
d="M14 637l30 30l119 -119l-30 -30zM136 0h-55v450h55v-450z" />
    <glyph glyph-name="iacute" unicode="&#xed;" 
d="M84 518l-30 30l119 119l30 -30zM136 0h-55v450h55v-450z" />
    <glyph glyph-name="icircumflex" unicode="&#xee;" 
d="M-11 548l119 119l119 -119l-30 -30l-89 89l-89 -89zM136 0h-55v450h55v-450z" />
    <glyph glyph-name="idieresis" unicode="&#xef;" 
d="M136 0h-55v450h55v-450zM-4 573q0 27 25 37t42 -9q20 -19 9 -43t-36 -24q-17 0 -28.5 11.5t-11.5 27.5zM180 534q-16 0 -27.5 11t-11.5 28t11 28.5t28 11.5q24 1 34.5 -19.5t0 -41t-34.5 -18.5z" />
    <glyph glyph-name="eth" unicode="&#xf0;" horiz-adv-x="557" 
d="M270 604l-102 -58l-22 39l95 55l-62 89l49 28l61 -90l100 57l23 -39l-95 -54q125 -193 148 -239q43 -85 43 -163q0 -108 -64 -172q-63 -64 -165 -64q-103 0 -167 64q-63 65 -63 169q0 101 65 166t164 65q59 0 103 -28zM403 94q48 49 48 131q0 81 -48 131t-125 50
t-125 -50t-48 -131t48 -131t125 -50t125 50z" />
    <glyph glyph-name="ntilde" unicode="&#xf1;" horiz-adv-x="523" 
d="M81 0v450h55v-40q56 47 137 47q76 0 122.5 -50.5t46.5 -131.5v-275h-55v275q0 58 -34.5 94.5t-90.5 36.5q-76 0 -126 -48v-358h-55zM159 545h-35q0 36 22 59t56 23q30 0 59 -26q28 -25 48 -25t32.5 13t12.5 33h35q0 -36 -22 -58.5t-58 -22.5q-32 0 -58 25t-48 25
q-20 0 -32 -12.5t-12 -33.5z" />
    <glyph glyph-name="ograve" unicode="&#xf2;" horiz-adv-x="557" 
d="M278 457q103 0 166 -64q64 -64 64 -168t-64 -168q-63 -64 -166 -64q-102 0 -166 64q-63 65 -63 168t63 167q65 65 166 65zM153 356q-48 -50 -48 -131t48 -131t125 -50t125 50q48 49 48 131q0 81 -48 131t-125 50t-125 -50zM184 637l30 30l119 -119l-30 -30z" />
    <glyph glyph-name="oacute" unicode="&#xf3;" horiz-adv-x="557" 
d="M278 457q103 0 166 -64q64 -64 64 -168t-64 -168q-63 -64 -166 -64q-102 0 -166 64q-63 65 -63 168t63 167q65 65 166 65zM153 356q-48 -50 -48 -131t48 -131t125 -50t125 50q48 49 48 131q0 81 -48 131t-125 50t-125 -50zM254 518l-30 30l119 119l30 -30z" />
    <glyph glyph-name="ocircumflex" unicode="&#xf4;" horiz-adv-x="557" 
d="M278 457q103 0 166 -64q64 -64 64 -168t-64 -168q-63 -64 -166 -64q-102 0 -166 64q-63 65 -63 168t63 167q65 65 166 65zM153 356q-48 -50 -48 -131t48 -131t125 -50t125 50q48 49 48 131q0 81 -48 131t-125 50t-125 -50zM160 548l118 119l119 -119l-30 -30l-89 89
l-88 -89z" />
    <glyph glyph-name="otilde" unicode="&#xf5;" horiz-adv-x="557" 
d="M278 457q103 0 166 -64q64 -64 64 -168t-64 -168q-63 -64 -166 -64q-102 0 -166 64q-63 65 -63 168t63 167q65 65 166 65zM153 356q-48 -50 -48 -131t48 -131t125 -50t125 50q48 49 48 131q0 81 -48 131t-125 50t-125 -50zM181 545h-35q0 37 21.5 59.5t56.5 22.5
q30 0 58 -26q28 -25 49 -25q20 0 32.5 13t12.5 33h35q0 -36 -22.5 -58.5t-57.5 -22.5q-32 0 -58 25t-48 25q-20 0 -32 -12.5t-12 -33.5z" />
    <glyph glyph-name="odieresis" unicode="&#xf6;" horiz-adv-x="557" 
d="M278 457q103 0 166 -64q64 -64 64 -168t-64 -168q-63 -64 -166 -64q-102 0 -166 64q-63 65 -63 168t63 167q65 65 166 65zM153 356q-48 -50 -48 -131t48 -131t125 -50t125 50q48 49 48 131q0 81 -48 131t-125 50t-125 -50zM146 573q0 27 25 37t42 -9q20 -19 9 -43
t-36 -24q-17 0 -28.5 11.5t-11.5 27.5zM331 573q-1 24 19.5 34.5t41 0t18.5 -34.5q0 -17 -11 -28t-28 -11t-28.5 11.5t-11.5 27.5z" />
    <glyph glyph-name="divide" unicode="&#xf7;" horiz-adv-x="500" 
d="M433 242h-366v46h366v-46zM250 136q16 0 27 -11t11 -27q0 -26 -23.5 -35.5t-42.5 7.5q-17 19 -7.5 42.5t35.5 23.5zM288 432q0 -17 -11 -28t-27 -11t-27.5 11.5t-11.5 27.5q-1 23 19 32.5t39.5 0t18.5 -32.5z" />
    <glyph glyph-name="oslash" unicode="&#xf8;" horiz-adv-x="557" 
d="M119 -7h-58l52 64q-64 64 -64 168q0 103 63 167q65 65 166 65q71 0 129 -35l31 38h58l-53 -66q65 -65 65 -169t-64 -168q-63 -64 -166 -64q-74 0 -130 36zM455 225q0 78 -45 129l-231 -286q42 -27 99 -27q79 0 128 51t49 133zM102 225q0 -78 43 -128l230 286
q-41 26 -97 26q-78 0 -127 -51q-49 -50 -49 -133z" />
    <glyph glyph-name="ugrave" unicode="&#xf9;" horiz-adv-x="535" 
d="M399 450h55v-269q0 -84 -51.5 -136t-135.5 -52q-83 0 -135 52q-51 53 -51 136v269h56v-269q0 -61 36.5 -99t94.5 -38t94.5 38t36.5 99v269zM173 637l30 30l119 -119l-30 -30z" />
    <glyph glyph-name="uacute" unicode="&#xfa;" horiz-adv-x="535" 
d="M399 450h55v-269q0 -84 -51.5 -136t-135.5 -52q-83 0 -135 52q-51 53 -51 136v269h56v-269q0 -61 36.5 -99t94.5 -38t94.5 38t36.5 99v269zM243 518l-30 30l119 119l30 -30z" />
    <glyph glyph-name="ucircumflex" unicode="&#xfb;" horiz-adv-x="535" 
d="M148 548l119 119l119 -119l-30 -30l-89 89l-89 -89zM399 450h55v-269q0 -84 -51.5 -136t-135.5 -52q-83 0 -135 52q-51 53 -51 136v269h56v-269q0 -61 36.5 -99t94.5 -38t94.5 38t36.5 99v269z" />
    <glyph glyph-name="udieresis" unicode="&#xfc;" horiz-adv-x="535" 
d="M399 450h55v-269q0 -84 -51.5 -136t-135.5 -52q-83 0 -135 52q-51 53 -51 136v269h56v-269q0 -61 36.5 -99t94.5 -38t94.5 38t36.5 99v269zM135 573q0 17 11.5 28.5t28.5 11.5q25 0 35.5 -25t-7.5 -43t-43 -7.5t-25 35.5zM331 545q-11 11 -11 28t11 28q11 12 28 12
t28 -12q12 -11 12 -28t-12 -28q-11 -11 -28 -11t-28 11z" />
    <glyph glyph-name="yacute" unicode="&#xfd;" horiz-adv-x="529" 
d="M436 450h61l-323 -700h-61l125 250l-206 450h62l171 -384zM240 518l-30 30l119 119l30 -30z" />
    <glyph glyph-name="thorn" unicode="&#xfe;" horiz-adv-x="541" 
d="M81 -250v1000h55v-340q56 47 138 47q98 0 158 -65q61 -64 61 -167t-63 -168q-63 -64 -164 -64q-77 0 -130 38v-281h-55zM262 406q-76 0 -126 -48v-267q50 -47 126 -47q77 0 125 50q49 49 49 131t-49 131q-48 50 -125 50z" />
    <glyph glyph-name="ydieresis" unicode="&#xff;" horiz-adv-x="529" 
d="M436 450h61l-323 -700h-61l125 250l-206 450h62l171 -384zM212 573q0 -16 -11.5 -27.5t-28.5 -11.5q-25 0 -35.5 24t7.5 43q18 18 43 8.5t25 -36.5zM397 573q0 -16 -11.5 -27.5t-28.5 -11.5t-28 11t-11 28q-2 24 18.5 34.5t41 0t19.5 -34.5z" />
    <glyph glyph-name="Amacron" unicode="&#x100;" horiz-adv-x="744" 
d="M710 0h-65l-96 218h-355l-95 -218h-65l310 700h55zM527 270l-155 359l-156 -359h311zM490 772h-236v38h236v-38z" />
    <glyph glyph-name="amacron" unicode="&#x101;" horiz-adv-x="449" 
d="M402 37v-37q-7 -4 -25 -4q-52 0 -67 48q-54 -51 -131 -51q-61 0 -94.5 34.5t-33.5 86.5q0 68 61 105q62 39 158 39q23 0 35 -3v64q0 38 -26 64t-73 26q-68 0 -102 -37l-32 31q54 54 138 54q70 0 110.5 -39.5t40.5 -98.5v-242q0 -40 41 -40zM194 41q67 0 111 47v127
q-11 3 -32 3q-75 0 -121 -27t-46 -72q0 -33 22 -55.5t66 -22.5zM329 549h-236v37h236v-37z" />
    <glyph glyph-name="Abreve" unicode="&#x102;" horiz-adv-x="744" 
d="M710 0h-65l-96 218h-355l-95 -218h-65l310 700h55zM527 270l-155 359l-156 -359h311zM372 800q60 0 104 45l31 -31q-55 -57 -135 -57t-135 58l30 30q45 -45 105 -45z" />
    <glyph glyph-name="abreve" unicode="&#x103;" horiz-adv-x="449" 
d="M402 37v-37q-7 -4 -25 -4q-52 0 -67 48q-54 -51 -131 -51q-61 0 -94.5 34.5t-33.5 86.5q0 68 61 105q62 39 158 39q23 0 35 -3v64q0 38 -26 64t-73 26q-68 0 -102 -37l-32 31q54 54 138 54q70 0 110.5 -39.5t40.5 -98.5v-242q0 -40 41 -40zM194 41q67 0 111 47v127
q-11 3 -32 3q-75 0 -121 -27t-46 -72q0 -33 22 -55.5t66 -22.5zM319 621l30 -30q-55 -57 -134 -57q-78 0 -135 57l30 31q44 -45 105 -45q62 0 104 44z" />
    <glyph glyph-name="Aogonek" unicode="&#x104;" horiz-adv-x="744" 
d="M666 -40q0 -29 15.5 -45t42.5 -16t42 16l23 -23q-24 -25 -65 -25q-40 0 -65 25t-25 67q0 24 11 41l-96 218h-355l-95 -218h-65l310 700h55l311 -700h-33q-11 -17 -11 -40zM527 270l-155 359l-156 -359h311z" />
    <glyph glyph-name="aogonek" unicode="&#x105;" horiz-adv-x="449" 
d="M376 -40q0 -29 15 -45t42 -16t42 16l24 -23q-24 -25 -66 -25q-40 0 -65 25t-25 67q0 25 10 41q-33 10 -43 44q-54 -51 -131 -51q-61 0 -94.5 34.5t-33.5 86.5q0 68 61 105q62 39 158 39q23 0 35 -3v64q0 38 -26 64t-73 26q-68 0 -102 -37l-32 31q54 54 138 54
q70 0 110.5 -39.5t40.5 -98.5v-242q0 -40 41 -40v-37q-9 -3 -19 -4q-7 -13 -7 -36zM194 41q67 0 111 47v127q-11 3 -32 3q-75 0 -121 -27t-46 -72q0 -33 22 -55.5t66 -22.5z" />
    <glyph glyph-name="Cacute" unicode="&#x106;" horiz-adv-x="702" 
d="M406 45q132 0 215 86l38 -36q-97 -102 -256 -102q-155 0 -253 99q-96 99 -96 258t96 258q97 99 253 99q157 0 256 -102l-38 -37q-83 87 -215 87q-131 0 -213 -85q-81 -84 -81 -220q0 -135 81 -221q83 -84 213 -84zM358 748l-30 30l118 119l30 -30z" />
    <glyph glyph-name="cacute" unicode="&#x107;" horiz-adv-x="482" 
d="M280 44q80 0 128 51l35 -35q-64 -67 -166 -67t-165 64q-63 65 -63 168t63 168q63 64 165 64q103 0 166 -68l-35 -34q-48 51 -128 51q-78 0 -126.5 -50t-48.5 -131t48.5 -131t126.5 -50zM247 518l-30 30l118 119l30 -30z" />
    <glyph glyph-name="Ccircumflex" unicode="&#x108;" horiz-adv-x="702" 
d="M264 771l119 119l119 -119l-30 -30l-89 89l-89 -89zM406 45q132 0 215 86l38 -36q-97 -102 -256 -102q-155 0 -253 99q-96 99 -96 258t96 258q97 99 253 99q157 0 256 -102l-38 -37q-83 87 -215 87q-131 0 -213 -85q-81 -84 -81 -220q0 -135 81 -221q83 -84 213 -84z" />
    <glyph glyph-name="ccircumflex" unicode="&#x109;" horiz-adv-x="482" 
d="M280 44q80 0 128 51l35 -35q-64 -67 -166 -67t-165 64q-63 65 -63 168t63 168q63 64 165 64q103 0 166 -68l-35 -34q-48 51 -128 51q-78 0 -126.5 -50t-48.5 -131t48.5 -131t126.5 -50zM152 548l118 119l119 -119l-30 -30l-89 89l-88 -89z" />
    <glyph glyph-name="Cdotaccent" unicode="&#x10a;" horiz-adv-x="702" 
d="M406 45q132 0 215 86l38 -36q-97 -102 -256 -102q-155 0 -253 99q-96 99 -96 258t96 258q97 99 253 99q157 0 256 -102l-38 -37q-83 87 -215 87q-131 0 -213 -85q-81 -84 -81 -220q0 -135 81 -221q83 -84 213 -84zM354 779q-12 12 -12 29t12 29t29 12t29 -12t12 -29
t-12 -29t-29 -12t-29 12z" />
    <glyph glyph-name="cdotaccent" unicode="&#x10b;" horiz-adv-x="482" 
d="M280 44q80 0 128 51l35 -35q-64 -67 -166 -67t-165 64q-63 65 -63 168t63 168q63 64 165 64q103 0 166 -68l-35 -34q-48 51 -128 51q-78 0 -126.5 -50t-48.5 -131t48.5 -131t126.5 -50zM240 556q-12 12 -12 29t12 29t29 12t29 -12t12 -29t-12 -29t-29 -12t-29 12z" />
    <glyph glyph-name="Ccaron" unicode="&#x10c;" horiz-adv-x="702" 
d="M406 45q132 0 215 86l38 -36q-97 -102 -256 -102q-155 0 -253 99q-96 99 -96 258t96 258q97 99 253 99q157 0 256 -102l-38 -37q-83 87 -215 87q-131 0 -213 -85q-81 -84 -81 -220q0 -135 81 -221q83 -84 213 -84zM500 860l-119 -119l-118 119l30 30l88 -89l89 89z" />
    <glyph glyph-name="ccaron" unicode="&#x10d;" horiz-adv-x="482" 
d="M280 44q80 0 128 51l35 -35q-64 -67 -166 -67t-165 64q-63 65 -63 168t63 168q63 64 165 64q103 0 166 -68l-35 -34q-48 51 -128 51q-78 0 -126.5 -50t-48.5 -131t48.5 -131t126.5 -50zM388 637l-119 -119l-118 119l30 30l88 -89l89 89z" />
    <glyph glyph-name="Dcaron" unicode="&#x10e;" horiz-adv-x="690" 
d="M286 0h-202v700h202q157 0 253 -96q97 -96 97 -254t-97 -254q-96 -96 -253 -96zM286 650h-144v-600h144q132 0 211 82q80 83 80 218q0 134 -80 217t-211 83zM453 860l-118 -119l-119 119l30 30l89 -89l88 89z" />
    <glyph glyph-name="dcaron" unicode="&#x10f;" horiz-adv-x="671" 
d="M461 750v-750h-55v40q-59 -47 -138 -47q-98 0 -159 64q-60 65 -60 168t62 168q63 64 165 64q74 0 130 -39v332h55zM280 44q80 0 126 49v265q-48 48 -126 48q-77 0 -127 -50q-48 -50 -48 -131t48.5 -131t126.5 -50zM580 585l-22 22q38 38 43 68q-15 2 -25.5 13.5
t-10.5 27.5q0 17 12 29t30 12q17 0 28.5 -13t11.5 -36q0 -56 -67 -123z" />
    <glyph glyph-name="Dcroat" unicode="&#x110;" horiz-adv-x="710" 
d="M111 327h-61v46h61v327h196q157 0 253 -96q97 -96 97 -254t-97 -254q-96 -96 -253 -96h-196v327zM307 650h-138v-277h171v-46h-171v-277h138q131 0 210 82q81 83 81 218q0 134 -81 217q-80 83 -210 83z" />
    <glyph glyph-name="dslash" unicode="&#x111;" horiz-adv-x="551" 
d="M461 589v-589h-55v40q-59 -47 -138 -47q-98 0 -159 64q-60 65 -60 168t62 168q63 64 165 64q74 0 130 -41v173h-139v46h139v115h55v-115h60v-46h-60zM406 92v266q-50 48 -126 48q-78 0 -126.5 -50t-48.5 -131t48 -131q50 -50 127 -50q78 0 126 48z" />
    <glyph glyph-name="Emacron" unicode="&#x112;" horiz-adv-x="506" 
d="M449 651h-308v-273h274v-49h-274v-280h313v-49h-370v700h365v-49zM386 772h-236v38h236v-38z" />
    <glyph glyph-name="emacron" unicode="&#x113;" horiz-adv-x="511" 
d="M464 212h-357q3 -76 50.5 -122t124.5 -46q81 0 129 51l35 -35q-64 -67 -168 -67q-102 0 -166 64q-63 65 -63 170q0 102 58 166t153 64t149.5 -65.5t54.5 -179.5zM262 407q-64 0 -106.5 -41.5t-48.5 -111.5h301q-7 72 -45.5 112.5t-100.5 40.5zM379 549h-236v37h236v-37z
" />
    <glyph glyph-name="Ebreve" unicode="&#x114;" horiz-adv-x="506" 
d="M449 651h-308v-273h274v-49h-274v-280h313v-49h-370v700h365v-49zM268 800q60 0 104 45l31 -31q-55 -57 -135 -57t-135 58l30 30q45 -45 105 -45z" />
    <glyph glyph-name="ebreve" unicode="&#x115;" horiz-adv-x="511" 
d="M464 212h-357q3 -76 50.5 -122t124.5 -46q81 0 129 51l35 -35q-64 -67 -168 -67q-102 0 -166 64q-63 65 -63 170q0 102 58 166t153 64t149.5 -65.5t54.5 -179.5zM262 407q-64 0 -106.5 -41.5t-48.5 -111.5h301q-7 72 -45.5 112.5t-100.5 40.5zM260 577q61 0 105 44
l30 -30q-55 -57 -135 -57q-78 0 -135 57l30 31q45 -45 105 -45z" />
    <glyph glyph-name="Edotaccent" unicode="&#x116;" horiz-adv-x="506" 
d="M449 651h-308v-273h274v-49h-274v-280h313v-49h-370v700h365v-49zM239 779q-12 12 -12 29t12 29t29 12t29 -12t12 -29t-12 -29t-29 -12t-29 12z" />
    <glyph glyph-name="edotaccent" unicode="&#x117;" horiz-adv-x="511" 
d="M464 212h-357q3 -76 50.5 -122t124.5 -46q81 0 129 51l35 -35q-64 -67 -168 -67q-102 0 -166 64q-63 65 -63 170q0 102 58 166t153 64t149.5 -65.5t54.5 -179.5zM262 407q-64 0 -106.5 -41.5t-48.5 -111.5h301q-7 72 -45.5 112.5t-100.5 40.5zM232 556q-12 12 -12 29
t12 29t29 12t29 -12t12 -29t-12 -29t-29 -12t-29 12z" />
    <glyph glyph-name="Eogonek" unicode="&#x118;" horiz-adv-x="506" 
d="M340 -40q0 -29 15.5 -45t42.5 -16t42 16l23 -23q-24 -25 -65 -25q-40 0 -65 25t-25 67q0 25 10 41h-234v700h365v-49h-308v-273h274v-49h-274v-280h313v-49h-103q-11 -17 -11 -40z" />
    <glyph glyph-name="eogonek" unicode="&#x119;" horiz-adv-x="511" 
d="M325 -40q0 -29 15.5 -45t42.5 -16t42 16l23 -23q-24 -25 -65 -25q-40 0 -65 25t-25 67q0 21 7 35q-5 -1 -22 -1q-102 0 -166 64q-63 65 -63 170q0 102 58 166t153 64t149.5 -65.5t54.5 -179.5h-357q3 -76 50.5 -122t124.5 -46q81 0 129 51l35 -35q-43 -46 -111 -61
q-10 -16 -10 -39zM262 407q-64 0 -106.5 -41.5t-48.5 -111.5h301q-7 72 -45.5 112.5t-100.5 40.5z" />
    <glyph glyph-name="Ecaron" unicode="&#x11a;" horiz-adv-x="506" 
d="M387 860l-119 -119l-119 119l30 30l89 -89l89 89zM449 651h-308v-273h274v-49h-274v-280h313v-49h-370v700h365v-49z" />
    <glyph glyph-name="ecaron" unicode="&#x11b;" horiz-adv-x="511" 
d="M464 212h-357q3 -76 50.5 -122t124.5 -46q81 0 129 51l35 -35q-64 -67 -168 -67q-102 0 -166 64q-63 65 -63 170q0 102 58 166t153 64t149.5 -65.5t54.5 -179.5zM262 407q-64 0 -106.5 -41.5t-48.5 -111.5h301q-7 72 -45.5 112.5t-100.5 40.5zM380 637l-119 -119
l-119 119l30 30l89 -89l89 89z" />
    <glyph glyph-name="Gcircumflex" unicode="&#x11c;" horiz-adv-x="743" 
d="M602 314h-199v49h256v-269q-98 -101 -256 -101q-155 0 -253 99q-96 99 -96 258t96 258q97 99 253 99q157 0 256 -102l-38 -37q-83 87 -215 87q-131 0 -213 -85q-81 -84 -81 -220q0 -135 81 -221q83 -84 213 -84q117 0 196 70v199zM284 771l118 119l119 -119l-30 -30
l-89 89l-88 -89z" />
    <glyph glyph-name="gcircumflex" unicode="&#x11d;" horiz-adv-x="501" 
d="M27 -120q0 44 28 76.5t79 48.5q-62 24 -62 75q0 54 68 77q-83 39 -83 138q0 73 47.5 117.5t124.5 44.5q71 0 117 -39q33 39 75 39q3 0 25 -2v-47q-10 3 -21 3q-27 0 -52 -24q26 -38 26 -90q0 -71 -47.5 -115.5t-124.5 -44.5q-47 0 -74 -15t-27 -40t32 -40.5t85 -15.5
q94 0 150 -36.5t56 -97.5q0 -67 -64 -107q-63 -42 -160 -42q-90 0 -144 38t-54 99zM84 -120q0 -42 37.5 -67t102.5 -25q70 0 120 29q49 28 49 74q0 41 -41 65.5t-108 24.5q-74 0 -117 -28t-43 -73zM112 297q0 -51 32.5 -82.5t84.5 -31.5t84 31.5t32 82.5q0 50 -32 82t-84 32
t-84.5 -32t-32.5 -82zM108 548l119 119l119 -119l-30 -30l-89 89l-89 -89z" />
    <glyph glyph-name="Gbreve" unicode="&#x11e;" horiz-adv-x="743" 
d="M602 314h-199v49h256v-269q-98 -101 -256 -101q-155 0 -253 99q-96 99 -96 258t96 258q97 99 253 99q157 0 256 -102l-38 -37q-83 87 -215 87q-131 0 -213 -85q-81 -84 -81 -220q0 -135 81 -221q83 -84 213 -84q117 0 196 70v199zM402 800q60 0 105 45l30 -31
q-55 -57 -135 -57t-135 58l31 30q44 -45 104 -45z" />
    <glyph glyph-name="gbreve" unicode="&#x11f;" horiz-adv-x="501" 
d="M27 -120q0 44 28 76.5t79 48.5q-62 24 -62 75q0 54 68 77q-83 39 -83 138q0 73 47.5 117.5t124.5 44.5q71 0 117 -39q33 39 75 39q3 0 25 -2v-47q-10 3 -21 3q-27 0 -52 -24q26 -38 26 -90q0 -71 -47.5 -115.5t-124.5 -44.5q-47 0 -74 -15t-27 -40t32 -40.5t85 -15.5
q94 0 150 -36.5t56 -97.5q0 -67 -64 -107q-63 -42 -160 -42q-90 0 -144 38t-54 99zM84 -120q0 -42 37.5 -67t102.5 -25q70 0 120 29q49 28 49 74q0 41 -41 65.5t-108 24.5q-74 0 -117 -28t-43 -73zM112 297q0 -51 32.5 -82.5t84.5 -31.5t84 31.5t32 82.5q0 50 -32 82t-84 32
t-84.5 -32t-32.5 -82zM333 621l30 -30q-55 -57 -134 -57q-78 0 -135 57l30 31q44 -45 105 -45q62 0 104 44z" />
    <glyph glyph-name="Gdotaccent" unicode="&#x120;" horiz-adv-x="743" 
d="M602 314h-199v49h256v-269q-98 -101 -256 -101q-155 0 -253 99q-96 99 -96 258t96 258q97 99 253 99q157 0 256 -102l-38 -37q-83 87 -215 87q-131 0 -213 -85q-81 -84 -81 -220q0 -135 81 -221q83 -84 213 -84q117 0 196 70v199zM373 779q-12 12 -12 29t12 29t29 12
t29 -12t12 -29t-12 -29t-29 -12t-29 12z" />
    <glyph glyph-name="gdotaccent" unicode="&#x121;" horiz-adv-x="501" 
d="M27 -120q0 44 28 76.5t79 48.5q-62 24 -62 75q0 54 68 77q-83 39 -83 138q0 73 47.5 117.5t124.5 44.5q71 0 117 -39q33 39 75 39q3 0 25 -2v-47q-10 3 -21 3q-27 0 -52 -24q26 -38 26 -90q0 -71 -47.5 -115.5t-124.5 -44.5q-47 0 -74 -15t-27 -40t32 -40.5t85 -15.5
q94 0 150 -36.5t56 -97.5q0 -67 -64 -107q-63 -42 -160 -42q-90 0 -144 38t-54 99zM84 -120q0 -42 37.5 -67t102.5 -25q70 0 120 29q49 28 49 74q0 41 -41 65.5t-108 24.5q-74 0 -117 -28t-43 -73zM112 297q0 -51 32.5 -82.5t84.5 -31.5t84 31.5t32 82.5q0 50 -32 82t-84 32
t-84.5 -32t-32.5 -82zM196 556q-12 12 -12 29t12 29t29 12t29 -12t12 -29t-12 -29t-29 -12t-29 12z" />
    <glyph glyph-name="Gcommaaccent" unicode="&#x122;" horiz-adv-x="743" 
d="M602 314h-199v49h256v-269q-98 -101 -256 -101q-155 0 -253 99q-96 99 -96 258t96 258q97 99 253 99q157 0 256 -102l-38 -37q-83 87 -215 87q-131 0 -213 -85q-81 -84 -81 -220q0 -135 81 -221q83 -84 213 -84q117 0 196 70v199zM374 -204l-19 19q37 37 39 63
q-32 5 -32 36q0 15 10.5 25.5t26.5 10.5q15 0 25 -12t10 -32q0 -52 -60 -110z" />
    <glyph glyph-name="gcommaaccent" unicode="&#x123;" horiz-adv-x="501" 
d="M27 -120q0 44 28 76.5t79 48.5q-62 24 -62 75q0 54 68 77q-83 39 -83 138q0 73 47.5 117.5t124.5 44.5q71 0 117 -39q33 39 75 39q3 0 25 -2v-47q-10 3 -21 3q-27 0 -52 -24q26 -38 26 -90q0 -71 -47.5 -115.5t-124.5 -44.5q-47 0 -74 -15t-27 -40t32 -40.5t85 -15.5
q94 0 150 -36.5t56 -97.5q0 -67 -64 -107q-63 -42 -160 -42q-90 0 -144 38t-54 99zM84 -120q0 -42 37.5 -67t102.5 -25q70 0 120 29q49 28 49 74q0 41 -41 65.5t-108 24.5q-74 0 -117 -28t-43 -73zM112 297q0 -51 32.5 -82.5t84.5 -31.5t84 31.5t32 82.5q0 50 -32 82t-84 32
t-84.5 -32t-32.5 -82zM254 675l20 -19q-36 -36 -40 -64q14 -2 23.5 -12t9.5 -23q0 -16 -10.5 -26t-26.5 -10t-26 11.5t-10 31.5q0 50 60 111z" />
    <glyph glyph-name="Hcircumflex" unicode="&#x124;" horiz-adv-x="694" 
d="M228 771l119 119l119 -119l-30 -30l-89 89l-89 -89zM84 700h57v-322h412v322h57v-700h-57v329h-412v-329h-57v700z" />
    <glyph glyph-name="hcircumflex" unicode="&#x125;" horiz-adv-x="526" 
d="M81 0v750h55v-340q56 47 137 47q76 0 122.5 -50.5t46.5 -131.5v-275h-55v275q0 58 -34.5 94.5t-90.5 36.5q-76 0 -126 -48v-358h-55zM151 777l118 119l119 -119l-30 -30l-89 89l-88 -89z" />
    <glyph glyph-name="Hbar" unicode="&#x126;" horiz-adv-x="700" 
d="M164 0h-57v514h-63v45h63v141h57v-141h369v141h57v-141h66v-45h-66v-514h-57v329h-369v-329zM164 514v-136h369v136h-369z" />
    <glyph glyph-name="hbar" unicode="&#x127;" horiz-adv-x="536" 
d="M90 604h-60v46h60v100h55v-100h183v-46h-183v-195q58 48 137 48q76 0 123 -51q47 -50 47 -131v-275h-55v275q0 58 -35 94.5t-91 36.5q-80 0 -126 -49v-357h-55v604z" />
    <glyph glyph-name="Itilde" unicode="&#x128;" horiz-adv-x="218" 
d="M137 0h-56v700h56v-700zM12 768h-35q0 37 22 59.5t57 22.5q29 0 58 -26q28 -25 48 -25t32.5 13t12.5 34h35q0 -37 -22 -59.5t-58 -22.5q-32 0 -58 25q-28 26 -47 26q-20 0 -32.5 -13t-12.5 -34z" />
    <glyph glyph-name="itilde" unicode="&#x129;" 
d="M11 545h-35q0 37 22 59.5t57 22.5q29 0 58 -26q28 -25 49 -25q19 0 31.5 13t12.5 33h35q0 -36 -22 -58.5t-57 -22.5q-33 0 -59 25t-47 25q-20 0 -32.5 -12.5t-12.5 -33.5zM136 0h-55v450h55v-450z" />
    <glyph glyph-name="Imacron" unicode="&#x12a;" horiz-adv-x="218" 
d="M137 0h-56v700h56v-700zM227 772h-236v38h236v-38z" />
    <glyph glyph-name="imacron" unicode="&#x12b;" 
d="M136 0h-55v450h55v-450zM226 549h-236v37h236v-37z" />
    <glyph glyph-name="Ibreve" unicode="&#x12c;" horiz-adv-x="218" 
d="M137 0h-56v700h56v-700zM109 800q60 0 105 45l30 -31q-56 -57 -135 -57q-80 0 -135 58l31 30q44 -45 104 -45z" />
    <glyph glyph-name="ibreve" unicode="&#x12d;" 
d="M213 621l30 -30q-55 -57 -135 -57q-78 0 -135 57l31 31q44 -45 104 -45q61 0 105 44zM136 0h-55v450h55v-450z" />
    <glyph glyph-name="Iogonek" unicode="&#x12e;" horiz-adv-x="218" 
d="M102 -40q0 -29 15.5 -45t42.5 -16t42 16l23 -23q-24 -25 -65 -25q-40 0 -65 25t-25 67q0 24 11 41h32q-11 -17 -11 -40zM137 0h-56v700h56v-700z" />
    <glyph glyph-name="iogonek" unicode="&#x12f;" 
d="M102 -40q0 -29 15.5 -45t42.5 -16t42 16l23 -23q-24 -25 -65 -25q-40 0 -65 25t-25 67q0 24 11 41v450h55v-450h-23q-11 -17 -11 -40zM79 556q-12 12 -12 29t12 29t29 12t29 -12t12 -29t-12 -29t-29 -12t-29 12z" />
    <glyph glyph-name="Idot" unicode="&#x130;" horiz-adv-x="218" 
d="M80 779q-12 12 -12 29t12 29t29 12t29 -12t12 -29t-12 -29t-29 -12t-29 12zM137 0h-56v700h56v-700z" />
    <glyph glyph-name="dotlessi" unicode="&#x131;" 
d="M136 0h-55v450h55v-450z" />
    <glyph glyph-name="IJ" unicode="&#x132;" horiz-adv-x="507" 
d="M141 250h-57v450h57v-450zM370 186v514h56v-514q0 -85 -53 -140q-53 -53 -137 -53q-87 0 -139 55l37 38q39 -41 100 -41q60 0 98 39.5t38 101.5z" />
    <glyph glyph-name="ij" unicode="&#x133;" horiz-adv-x="433" 
d="M136 0h-55v450h55v-450zM79 556q-12 12 -12 29t12 29t29 12t29 -12t12 -29t-12 -29t-29 -12t-29 12zM296 556q-12 12 -12 29t12 29t29 12t29 -12t12 -29t-12 -29t-29 -12t-29 12zM237 -250v37q60 0 60 57v606h55v-607q0 -45 -23.5 -71t-62.5 -26q-22 0 -29 4z" />
    <glyph glyph-name="Jcircumflex" unicode="&#x134;" horiz-adv-x="454" 
d="M316 186v514h57v-514q0 -85 -53 -140q-53 -53 -138 -53q-86 0 -138 55l37 38q38 -41 99 -41t98.5 39.5t37.5 101.5zM226 771l119 119l118 -119l-30 -30l-88 89l-89 -89z" />
    <glyph glyph-name="jcircumflex" unicode="&#x135;" 
d="M-11 548l119 119l119 -119l-30 -30l-89 89l-89 -89zM21 -250v37q28 0 44 15t16 42v606h55v-607q0 -45 -23.5 -71t-62.5 -26q-22 0 -29 4z" />
    <glyph glyph-name="Kcommaaccent" unicode="&#x136;" horiz-adv-x="585" 
d="M137 0h-56v700h56v-700zM548 0h-72l-321 359l300 341h72l-301 -341zM272 -204l-19 19q35 35 39 63q-14 2 -23.5 12t-9.5 24q0 15 10.5 25.5t26.5 10.5t26 -12t10 -32q0 -50 -60 -110z" />
    <glyph glyph-name="kcommaaccent" unicode="&#x137;" horiz-adv-x="458" 
d="M136 750v-750h-55v750h55zM421 0h-67l-218 239l195 211h67l-196 -211zM208 -204l-19 19q37 37 39 63q-32 5 -32 36q0 15 10.5 25.5t26.5 10.5q15 0 25 -12t10 -32q0 -52 -60 -110z" />
    <glyph glyph-name="Lacute" unicode="&#x139;" horiz-adv-x="467" 
d="M189 741l-30 30l119 119l30 -30zM84 700h57v-651h282v-49h-339v700z" />
    <glyph glyph-name="lacute" unicode="&#x13a;" horiz-adv-x="243" 
d="M77 774l-30 30l119 119l30 -30zM197 37v-37q-7 -4 -30 -4q-39 0 -62.5 26t-23.5 71v657h55v-656q0 -57 61 -57z" />
    <glyph glyph-name="Lcommaaccent" unicode="&#x13b;" horiz-adv-x="467" 
d="M84 700h57v-651h282v-49h-339v700zM230 -204l-19 19q35 35 39 63q-14 2 -23.5 12t-9.5 24q0 15 10.5 25.5t26.5 10.5t26 -12t10 -32q0 -50 -60 -110z" />
    <glyph glyph-name="lcommaaccent" unicode="&#x13c;" horiz-adv-x="243" 
d="M197 37v-37q-7 -4 -30 -4q-39 0 -62.5 26t-23.5 71v657h55v-656q0 -57 61 -57zM111 -204l-19 19q34 35 39 63q-14 2 -23.5 12t-9.5 24q0 15 10.5 25.5t26.5 10.5t26 -12t10 -32q0 -50 -60 -110z" />
    <glyph glyph-name="Lcaron" unicode="&#x13d;" horiz-adv-x="467" 
d="M84 700h57v-651h282v-49h-339v700zM231 860l-118 -119l-119 119l30 30l89 -89l88 89z" />
    <glyph glyph-name="lcaron" unicode="&#x13e;" horiz-adv-x="355" 
d="M197 37v-37q-7 -4 -30 -4q-39 0 -62.5 26t-23.5 71v657h55v-656q0 -57 61 -57zM266 585l-21 22q39 39 43 68q-16 2 -26 13.5t-10 27.5q0 24 20.5 35.5t41 0t20.5 -43.5q0 -55 -68 -123z" />
    <glyph glyph-name="Ldot" unicode="&#x13f;" horiz-adv-x="467" 
d="M84 700h57v-651h282v-49h-339v700zM321 296q-12 12 -12 29t12 29t29 12t29 -12t12 -29t-12 -29t-29 -12t-29 12z" />
    <glyph glyph-name="ldot" unicode="&#x140;" horiz-adv-x="366" 
d="M197 37v-37q-7 -4 -30 -4q-39 0 -62.5 26t-23.5 71v657h55v-656q0 -57 61 -57zM264 296q-12 12 -12 29t12 29t29 12t29 -12t12 -29t-12 -29t-29 -12t-29 12z" />
    <glyph glyph-name="Lslash" unicode="&#x141;" horiz-adv-x="486" 
d="M44 210l-30 30l89 89v371h57v-326l95 95l30 -30l-125 -125v-265h282v-49h-339v269z" />
    <glyph glyph-name="lslash" unicode="&#x142;" horiz-adv-x="272" 
d="M215 37v-37q-7 -4 -31 -4q-39 0 -62.5 26t-23.5 71v206l-58 -58l-30 30l88 88v391h55v-348l65 65l30 -30l-95 -95v-248q0 -27 17 -42t45 -15z" />
    <glyph glyph-name="Nacute" unicode="&#x143;" horiz-adv-x="715" 
d="M84 0v700h41l449 -594v594h57v-700h-41l-449 594v-594h-57zM333 741l-30 30l119 119l30 -30z" />
    <glyph glyph-name="nacute" unicode="&#x144;" horiz-adv-x="523" 
d="M81 0v450h55v-40q56 47 137 47q76 0 122.5 -50.5t46.5 -131.5v-275h-55v275q0 58 -34.5 94.5t-90.5 36.5q-76 0 -126 -48v-358h-55zM237 518l-30 30l118 119l30 -30z" />
    <glyph glyph-name="Ncommaaccent" unicode="&#x145;" horiz-adv-x="715" 
d="M84 0v700h41l449 -594v594h57v-700h-41l-449 594v-594h-57zM337 -204l-19 19q34 35 39 63q-32 5 -32 36q0 15 10.5 25.5t26.5 10.5q15 0 25 -12t10 -32q0 -52 -60 -110z" />
    <glyph glyph-name="ncommaaccent" unicode="&#x146;" horiz-adv-x="523" 
d="M81 0v450h55v-40q56 47 137 47q76 0 122.5 -50.5t46.5 -131.5v-275h-55v275q0 58 -34.5 94.5t-90.5 36.5q-76 0 -126 -48v-358h-55zM237 -204l-19 19q38 37 39 63q-32 5 -32 36q0 15 10.5 25.5t26.5 10.5q15 0 25 -12t10 -32q0 -52 -60 -110z" />
    <glyph glyph-name="Ncaron" unicode="&#x147;" horiz-adv-x="715" 
d="M84 0v700h41l449 -594v594h57v-700h-41l-449 594v-594h-57zM476 860l-119 -119l-118 119l30 30l88 -89l89 89z" />
    <glyph glyph-name="ncaron" unicode="&#x148;" horiz-adv-x="523" 
d="M380 637l-119 -119l-119 119l30 30l89 -89l89 89zM81 0v450h55v-40q56 47 137 47q76 0 122.5 -50.5t46.5 -131.5v-275h-55v275q0 58 -34.5 94.5t-90.5 36.5q-76 0 -126 -48v-358h-55z" />
    <glyph glyph-name="Eng" unicode="&#x14a;" horiz-adv-x="715" 
d="M515 -250v37q59 0 59 57v174l-433 576v-594h-57v700h41l449 -594v594h57v-857q0 -45 -24.5 -71t-63.5 -26q-21 0 -28 4z" />
    <glyph glyph-name="eng" unicode="&#x14b;" horiz-adv-x="523" 
d="M327 -250v37q60 0 60 57v431q0 58 -34.5 94.5t-90.5 36.5q-76 0 -126 -48v-358h-55v450h55v-40q56 47 137 47q76 0 122.5 -50.5t46.5 -131.5v-432q0 -45 -23.5 -71t-62.5 -26q-22 0 -29 4z" />
    <glyph glyph-name="Omacron" unicode="&#x14c;" horiz-adv-x="807" 
d="M403 707q157 0 253 -99q97 -98 97 -258t-97 -258q-96 -99 -253 -99q-155 0 -253 99q-96 99 -96 258t96 258q97 99 253 99zM403 45q130 0 211 84q81 86 81 221q0 136 -81 220q-81 85 -211 85q-129 0 -210 -85q-81 -84 -81 -220q0 -135 81 -221q81 -84 210 -84zM521 772
h-236v38h236v-38z" />
    <glyph glyph-name="omacron" unicode="&#x14d;" horiz-adv-x="557" 
d="M278 457q103 0 166 -64q64 -64 64 -168t-64 -168q-63 -64 -166 -64q-102 0 -166 64q-63 65 -63 168t63 167q65 65 166 65zM153 356q-48 -50 -48 -131t48 -131t125 -50t125 50q48 49 48 131q0 81 -48 131t-125 50t-125 -50zM396 549h-236v37h236v-37z" />
    <glyph glyph-name="Obreve" unicode="&#x14e;" horiz-adv-x="807" 
d="M403 707q157 0 253 -99q97 -98 97 -258t-97 -258q-96 -99 -253 -99q-155 0 -253 99q-96 99 -96 258t96 258q97 99 253 99zM403 45q130 0 211 84q81 86 81 221q0 136 -81 220q-81 85 -211 85q-129 0 -210 -85q-81 -84 -81 -220q0 -135 81 -221q81 -84 210 -84zM403 800
q60 0 105 45l30 -31q-56 -57 -135 -57t-134 58l30 30q44 -45 104 -45z" />
    <glyph glyph-name="obreve" unicode="&#x14f;" horiz-adv-x="557" 
d="M278 457q103 0 166 -64q64 -64 64 -168t-64 -168q-63 -64 -166 -64q-102 0 -166 64q-63 65 -63 168t63 167q65 65 166 65zM153 356q-48 -50 -48 -131t48 -131t125 -50t125 50q48 49 48 131q0 81 -48 131t-125 50t-125 -50zM383 621l30 -30q-55 -57 -135 -57
q-78 0 -134 57l30 31q43 -45 104 -45t105 44z" />
    <glyph glyph-name="Ohungarumlaut" unicode="&#x150;" horiz-adv-x="807" 
d="M403 707q157 0 253 -99q97 -98 97 -258t-97 -258q-96 -99 -253 -99q-155 0 -253 99q-96 99 -96 258t96 258q97 99 253 99zM403 45q130 0 211 84q81 86 81 221q0 136 -81 220q-81 85 -211 85q-129 0 -210 -85q-81 -84 -81 -220q0 -135 81 -221q81 -84 210 -84zM308 741
l-30 30l118 119l30 -30zM450 741l-30 30l119 119l30 -30z" />
    <glyph glyph-name="ohungarumlaut" unicode="&#x151;" horiz-adv-x="557" 
d="M278 457q103 0 166 -64q64 -64 64 -168t-64 -168q-63 -64 -166 -64q-102 0 -166 64q-63 65 -63 168t63 167q65 65 166 65zM153 356q-48 -50 -48 -131t48 -131t125 -50t125 50q48 49 48 131q0 81 -48 131t-125 50t-125 -50zM183 518l-30 30l118 119l30 -30zM325 518
l-30 30l119 119l30 -30z" />
    <glyph glyph-name="OE" unicode="&#x152;" horiz-adv-x="868" 
d="M813 651h-282v-273h249v-49h-249v-280h287v-49h-341q-39 -7 -74 -7q-155 0 -253 99q-96 99 -96 258t96 258q97 99 253 99q35 0 74 -7h336v-49zM403 45q37 0 71 9v592q-34 9 -71 9q-129 0 -210 -85q-81 -84 -81 -220q0 -135 81 -221q81 -84 210 -84z" />
    <glyph glyph-name="oe" unicode="&#x153;" horiz-adv-x="853" 
d="M806 212h-357q3 -76 50.5 -122t124.5 -46q80 0 130 51l34 -35q-64 -67 -168 -67q-106 0 -171 72q-65 -72 -171 -72q-102 0 -166 64q-63 65 -63 168t63 167q65 65 166 65q105 0 169 -70q58 70 155 70q95 0 149.5 -65.5t54.5 -179.5zM278 44q91 0 139 67q-26 50 -26 116
q0 68 25 114q-50 65 -138 65q-77 0 -125 -50t-48 -131t48 -131t125 -50zM604 407q-64 0 -106.5 -41.5t-48.5 -111.5h301q-7 72 -45.5 112.5t-100.5 40.5z" />
    <glyph glyph-name="Racute" unicode="&#x154;" horiz-adv-x="527" 
d="M493 0h-66l-176 317h-109v-317h-58v700h188q88 0 141.5 -52.5t53.5 -139.5q0 -76 -42.5 -126.5t-114.5 -61.5zM409 508q0 64 -37.5 103t-99.5 39h-130v-282h130q62 0 99.5 38.5t37.5 101.5zM236 741l-30 30l119 119l30 -30z" />
    <glyph glyph-name="racute" unicode="&#x155;" horiz-adv-x="343" 
d="M264 456q3 0 29 -2v-50q-17 3 -33 3q-77 0 -124 -65v-342h-55v450h55v-56q54 62 128 62zM164 518l-30 30l119 119l30 -30z" />
    <glyph glyph-name="Rcommaaccent" unicode="&#x156;" horiz-adv-x="527" 
d="M493 0h-66l-176 317h-109v-317h-58v700h188q88 0 141.5 -52.5t53.5 -139.5q0 -76 -42.5 -126.5t-114.5 -61.5zM409 508q0 64 -37.5 103t-99.5 39h-130v-282h130q62 0 99.5 38.5t37.5 101.5zM243 -204l-19 19q34 35 39 63q-32 5 -32 36q0 15 10 25.5t26 10.5t26 -12
t10 -32q0 -52 -60 -110z" />
    <glyph glyph-name="rcommaaccent" unicode="&#x157;" horiz-adv-x="343" 
d="M264 456q3 0 29 -2v-50q-17 3 -33 3q-77 0 -124 -65v-342h-55v450h55v-56q54 62 128 62zM84 -204l-19 19q37 37 39 63q-32 5 -32 36q0 15 10.5 25.5t26.5 10.5q15 0 25 -12t10 -32q0 -52 -60 -110z" />
    <glyph glyph-name="Rcaron" unicode="&#x158;" horiz-adv-x="527" 
d="M493 0h-66l-176 317h-109v-317h-58v700h188q88 0 141.5 -52.5t53.5 -139.5q0 -76 -42.5 -126.5t-114.5 -61.5zM409 508q0 64 -37.5 103t-99.5 39h-130v-282h130q62 0 99.5 38.5t37.5 101.5zM379 860l-119 -119l-119 119l30 30l89 -89l89 89z" />
    <glyph glyph-name="rcaron" unicode="&#x159;" horiz-adv-x="343" 
d="M264 456q3 0 29 -2v-50q-17 3 -33 3q-77 0 -124 -65v-342h-55v450h55v-56q54 62 128 62zM307 637l-119 -119l-118 119l30 30l88 -89l89 89z" />
    <glyph glyph-name="Sacute" unicode="&#x15a;" horiz-adv-x="521" 
d="M442 628l-37 -37q-25 28 -68 46t-86 18q-67 0 -101 -40q-33 -39 -33 -90q0 -36 19 -62.5t49.5 -43t67.5 -31t74.5 -31t68 -36.5t49.5 -54t19 -78q0 -79 -54 -138q-54 -58 -156 -58q-128 0 -210 88l36 36q30 -33 76 -52.5t93 -19.5q78 0 117 45t39 98q0 14 -2.5 26.5
t-10 23t-13 18.5t-19 17t-20.5 14t-26 13.5t-25.5 11.5t-29 12t-28.5 11q-48 22 -83 39q-90 47 -90 150q0 76 48 129q48 54 141 54q119 0 195 -79zM222 741l-30 30l119 119l30 -30z" />
    <glyph glyph-name="sacute" unicode="&#x15b;" horiz-adv-x="383" 
d="M316 405l-35 -34q-34 37 -94 37q-36 0 -57.5 -22.5t-20.5 -52t22 -48.5q19 -16 73.5 -36t89.5 -48t35 -76q0 -52 -38 -93q-38 -39 -107 -39q-87 0 -141 57l35 35q38 -44 103 -44q44 0 68.5 24.5t24.5 58.5q0 28 -22.5 46.5t-55 30.5t-65 25.5t-55 40.5t-22.5 66
q0 53 34.5 88.5t95.5 35.5q83 0 132 -52zM157 518l-30 30l118 119l30 -30z" />
    <glyph glyph-name="Scircumflex" unicode="&#x15c;" horiz-adv-x="521" 
d="M442 628l-37 -37q-25 28 -68 46t-86 18q-67 0 -101 -40q-33 -39 -33 -90q0 -36 19 -62.5t49.5 -43t67.5 -31t74.5 -31t68 -36.5t49.5 -54t19 -78q0 -79 -54 -138q-54 -58 -156 -58q-128 0 -210 88l36 36q30 -33 76 -52.5t93 -19.5q78 0 117 45t39 98q0 14 -2.5 26.5
t-10 23t-13 18.5t-19 17t-20.5 14t-26 13.5t-25.5 11.5t-29 12t-28.5 11q-48 22 -83 39q-90 47 -90 150q0 76 48 129q48 54 141 54q119 0 195 -79zM128 771l119 119l119 -119l-30 -30l-89 89l-89 -89z" />
    <glyph glyph-name="scircumflex" unicode="&#x15d;" horiz-adv-x="383" 
d="M316 405l-35 -34q-34 37 -94 37q-36 0 -57.5 -22.5t-20.5 -52t22 -48.5q19 -16 73.5 -36t89.5 -48t35 -76q0 -52 -38 -93q-38 -39 -107 -39q-87 0 -141 57l35 35q38 -44 103 -44q44 0 68.5 24.5t24.5 58.5q0 28 -22.5 46.5t-55 30.5t-65 25.5t-55 40.5t-22.5 66
q0 53 34.5 88.5t95.5 35.5q83 0 132 -52zM62 548l119 119l119 -119l-30 -30l-89 89l-89 -89z" />
    <glyph glyph-name="Scedilla" unicode="&#x15e;" horiz-adv-x="521" 
d="M442 628l-37 -37q-25 28 -68 46t-86 18q-67 0 -101 -40q-33 -39 -33 -90q0 -36 19 -62.5t49.5 -43t67.5 -31t74.5 -31t68 -36.5t49.5 -54t19 -78q0 -75 -51 -134q-50 -57 -145 -62v-54q30 -5 47.5 -24.5t17.5 -49.5q0 -34 -22 -55t-58 -21q-35 0 -58 23l22 22
q15 -15 36 -15q22 0 35.5 12.5t13.5 34.5q0 48 -64 48v80q-120 6 -194 87l36 36q30 -33 76 -52.5t93 -19.5q78 0 117 45t39 98q0 14 -2.5 26.5t-10 23t-13 18.5t-19 17t-20.5 14t-26 13.5t-25.5 11.5t-29 12t-28.5 11q-48 22 -83 39q-90 47 -90 150q0 76 48 129
q48 54 141 54q119 0 195 -79z" />
    <glyph glyph-name="scedilla" unicode="&#x15f;" horiz-adv-x="383" 
d="M316 405l-35 -34q-34 37 -94 37q-36 0 -57.5 -22.5t-20.5 -52t22 -48.5q19 -16 73.5 -36t89.5 -48t35 -76q0 -52 -35 -89.5t-96 -41.5v-55q30 -5 47.5 -24.5t17.5 -49.5q0 -34 -22 -55t-57 -21q-37 0 -58 23l21 22q15 -15 37 -15q21 0 35 13t14 34q0 48 -64 48v80
q-78 4 -126 56l35 35q38 -44 103 -44q44 0 68.5 24.5t24.5 58.5q0 28 -22.5 46.5t-55 30.5t-65 25.5t-55 40.5t-22.5 66q0 53 34.5 88.5t95.5 35.5q83 0 132 -52z" />
    <glyph glyph-name="Scaron" unicode="&#x160;" horiz-adv-x="521" 
d="M442 628l-37 -37q-25 28 -68 46t-86 18q-67 0 -101 -40q-33 -39 -33 -90q0 -36 19 -62.5t49.5 -43t67.5 -31t74.5 -31t68 -36.5t49.5 -54t19 -78q0 -79 -54 -138q-54 -58 -156 -58q-128 0 -210 88l36 36q30 -33 76 -52.5t93 -19.5q78 0 117 45t39 98q0 14 -2.5 26.5
t-10 23t-13 18.5t-19 17t-20.5 14t-26 13.5t-25.5 11.5t-29 12t-28.5 11q-48 22 -83 39q-90 47 -90 150q0 76 48 129q48 54 141 54q119 0 195 -79zM366 860l-119 -119l-119 119l30 30l89 -89l89 89z" />
    <glyph glyph-name="scaron" unicode="&#x161;" horiz-adv-x="383" 
d="M316 405l-35 -34q-34 37 -94 37q-36 0 -57.5 -22.5t-20.5 -52t22 -48.5q19 -16 73.5 -36t89.5 -48t35 -76q0 -52 -38 -93q-38 -39 -107 -39q-87 0 -141 57l35 35q38 -44 103 -44q44 0 68.5 24.5t24.5 58.5q0 28 -22.5 46.5t-55 30.5t-65 25.5t-55 40.5t-22.5 66
q0 53 34.5 88.5t95.5 35.5q83 0 132 -52zM300 637l-119 -119l-119 119l30 30l89 -89l89 89z" />
    <glyph glyph-name="Tcommaaccent" unicode="&#x162;" horiz-adv-x="557" 
d="M515 651h-207v-651h-57v651h-207v49h471v-49zM258 -204l-19 19q37 37 39 63q-32 5 -32 36q0 15 10.5 25.5t26.5 10.5q15 0 25 -12t10 -32q0 -52 -60 -110z" />
    <glyph glyph-name="tcommaaccent" unicode="&#x163;" horiz-adv-x="313" 
d="M90 404h-60v46h60v100h57v-100h131v-46h-131v-273q0 -40 24 -64.5t63 -24.5q24 0 44 11v-50q-27 -10 -53 -10q-61 0 -98 38t-37 100v273zM149 -204l-19 19q38 37 39 63q-32 5 -32 36q0 15 10.5 25.5t26.5 10.5q15 0 25 -12t10 -32q0 -52 -60 -110z" />
    <glyph glyph-name="Tcaron" unicode="&#x164;" horiz-adv-x="557" 
d="M515 651h-207v-651h-57v651h-207v49h471v-49zM397 860l-118 -119l-119 119l30 30l89 -89l88 89z" />
    <glyph glyph-name="tcaron" unicode="&#x165;" horiz-adv-x="338" 
d="M90 404h-60v46h60v100h57v-100h131v-46h-131v-273q0 -40 24 -64.5t63 -24.5q24 0 44 11v-50q-27 -10 -53 -10q-61 0 -98 38t-37 100v273zM256 551l-22 22q38 38 43 68q-15 2 -25.5 13.5t-10.5 27.5q0 17 12 29t30 12t29 -13t11 -36q0 -56 -67 -123z" />
    <glyph glyph-name="Tbar" unicode="&#x166;" horiz-adv-x="557" 
d="M251 347h-151v46h151v258h-207v49h471v-49h-207v-258h150v-46h-150v-347h-57v347z" />
    <glyph glyph-name="tbar" unicode="&#x167;" horiz-adv-x="313" 
d="M90 256h-60v44h60v104h-60v46h60v100h57v-100h131v-46h-131v-104h131v-44h-131v-125q0 -40 24 -64.5t63 -24.5q24 0 44 11v-50q-27 -10 -53 -10q-61 0 -98 38t-37 100v125z" />
    <glyph glyph-name="Utilde" unicode="&#x168;" horiz-adv-x="681" 
d="M539 253v447h58v-447q0 -116 -72 -188q-70 -72 -185 -72q-116 0 -186 72q-70 71 -70 188v447h57v-447q0 -92 55 -150t143 -58q89 0 144 58q56 59 56 150zM242 768h-35q0 37 22 59.5t57 22.5q30 0 58 -26q28 -25 49 -25q20 0 32 13t12 34h36q0 -37 -22.5 -59.5
t-57.5 -22.5q-31 0 -59 25q-28 26 -47 26q-20 0 -32.5 -13t-12.5 -34z" />
    <glyph glyph-name="utilde" unicode="&#x169;" horiz-adv-x="535" 
d="M399 450h55v-269q0 -84 -51.5 -136t-135.5 -52q-83 0 -135 52q-51 53 -51 136v269h56v-269q0 -61 36.5 -99t94.5 -38t94.5 38t36.5 99v269zM169 545h-35q0 37 22 59.5t57 22.5q30 0 58 -26q28 -25 49 -25q19 0 31.5 13t12.5 33h35q0 -36 -22 -58.5t-57 -22.5
q-31 0 -59 25q-26 25 -47 25q-20 0 -32.5 -12.5t-12.5 -33.5z" />
    <glyph glyph-name="Umacron" unicode="&#x16a;" horiz-adv-x="681" 
d="M539 253v447h58v-447q0 -116 -72 -188q-70 -72 -185 -72q-116 0 -186 72q-70 71 -70 188v447h57v-447q0 -92 55 -150t143 -58q89 0 144 58q56 59 56 150zM458 772h-236v38h236v-38z" />
    <glyph glyph-name="umacron" unicode="&#x16b;" horiz-adv-x="535" 
d="M399 450h55v-269q0 -84 -51.5 -136t-135.5 -52q-83 0 -135 52q-51 53 -51 136v269h56v-269q0 -61 36.5 -99t94.5 -38t94.5 38t36.5 99v269zM385 549h-236v37h236v-37z" />
    <glyph glyph-name="Ubreve" unicode="&#x16c;" horiz-adv-x="681" 
d="M539 253v447h58v-447q0 -116 -72 -188q-70 -72 -185 -72q-116 0 -186 72q-70 71 -70 188v447h57v-447q0 -92 55 -150t143 -58q89 0 144 58q56 59 56 150zM340 800q60 0 105 45l30 -31q-55 -57 -135 -57t-135 58l31 30q44 -45 104 -45z" />
    <glyph glyph-name="ubreve" unicode="&#x16d;" horiz-adv-x="535" 
d="M399 450h55v-269q0 -84 -51.5 -136t-135.5 -52q-83 0 -135 52q-51 53 -51 136v269h56v-269q0 -61 36.5 -99t94.5 -38t94.5 38t36.5 99v269zM372 621l30 -30q-56 -57 -135 -57q-78 0 -135 57l31 31q43 -45 104 -45t105 44z" />
    <glyph glyph-name="Uring" unicode="&#x16e;" horiz-adv-x="681" 
d="M539 253v447h58v-447q0 -116 -72 -188q-70 -72 -185 -72q-116 0 -186 72q-70 71 -70 188v447h57v-447q0 -92 55 -150t143 -58q89 0 144 58q56 59 56 150zM340 912q39 0 63 -24t24 -64t-24 -64.5t-63 -24.5q-38 0 -62 24.5t-24 64.5t24 64t62 24zM284 823q0 -25 15.5 -41
t40.5 -16t41 16t16 41q0 26 -16.5 42t-40.5 16q-25 0 -40.5 -16t-15.5 -42z" />
    <glyph glyph-name="uring" unicode="&#x16f;" horiz-adv-x="535" 
d="M267 689q39 0 62.5 -24.5t23.5 -64.5t-23.5 -64t-62.5 -24q-38 0 -62 24t-24 64t24 64.5t62 24.5zM267 658q-25 0 -40.5 -16t-15.5 -42t15.5 -42t40.5 -16t40.5 16t15.5 42t-16 42t-40 16zM399 450h55v-269q0 -84 -51.5 -136t-135.5 -52q-83 0 -135 52q-51 53 -51 136
v269h56v-269q0 -61 36.5 -99t94.5 -38t94.5 38t36.5 99v269z" />
    <glyph glyph-name="Uhungarumlaut" unicode="&#x170;" horiz-adv-x="681" 
d="M539 253v447h58v-447q0 -116 -72 -188q-70 -72 -185 -72q-116 0 -186 72q-70 71 -70 188v447h57v-447q0 -92 55 -150t143 -58q89 0 144 58q56 59 56 150zM245 741l-30 30l118 119l30 -30zM387 741l-30 30l119 119l30 -30z" />
    <glyph glyph-name="uhungarumlaut" unicode="&#x171;" horiz-adv-x="535" 
d="M399 450h55v-269q0 -84 -51.5 -136t-135.5 -52q-83 0 -135 52q-51 53 -51 136v269h56v-269q0 -61 36.5 -99t94.5 -38t94.5 38t36.5 99v269zM171 518l-30 30l119 119l30 -30zM314 518l-30 30l119 119l30 -30z" />
    <glyph glyph-name="Uogonek" unicode="&#x172;" horiz-adv-x="681" 
d="M391 -40q0 -29 15.5 -45t42.5 -16t42 16l23 -23q-24 -25 -65 -25q-40 0 -65 25t-25 67q0 22 7 35q-2 0 -12.5 -0.5t-13.5 -0.5q-116 0 -186 72q-70 71 -70 188v447h57v-447q0 -92 55 -150t143 -58q89 0 144 58q56 59 56 150v447h58v-447q0 -99 -54 -167q-53 -68 -142 -86
q-10 -16 -10 -40z" />
    <glyph glyph-name="uogonek" unicode="&#x173;" horiz-adv-x="535" 
d="M309 -40q0 -29 16 -45t41 -16q27 0 42 16l24 -23q-24 -25 -65 -25t-65.5 25t-24.5 67q0 21 6 35q-3 -1 -16 -1q-83 0 -135 52q-51 53 -51 136v269h56v-269q0 -61 36.5 -99t94.5 -38t94.5 38t36.5 99v269h55v-269q0 -69 -36.5 -118t-99.5 -64q-9 -15 -9 -39z" />
    <glyph glyph-name="Wcircumflex" unicode="&#x174;" horiz-adv-x="1146" 
d="M1047 700h65l-266 -700h-59l-214 604l-214 -604h-59l-266 700h65l230 -615l214 615h60l214 -615zM454 771l119 119l119 -119l-30 -30l-89 89l-89 -89z" />
    <glyph glyph-name="wcircumflex" unicode="&#x175;" horiz-adv-x="794" 
d="M699 450h63l-176 -450h-58l-131 374l-131 -374h-58l-176 450h63l142 -384l132 384h56l132 -384zM278 548l119 119l119 -119l-30 -30l-89 89l-89 -89z" />
    <glyph glyph-name="Ycircumflex" unicode="&#x176;" horiz-adv-x="661" 
d="M359 0h-57v309l-268 391h66l230 -335l230 335h67l-268 -392v-308zM212 771l118 119l119 -119l-30 -30l-89 89l-88 -89z" />
    <glyph glyph-name="ycircumflex" unicode="&#x177;" horiz-adv-x="529" 
d="M436 450h61l-323 -700h-61l125 250l-206 450h62l171 -384zM146 548l119 119l118 -119l-30 -30l-88 89l-89 -89z" />
    <glyph glyph-name="Ydieresis" unicode="&#x178;" horiz-adv-x="661" 
d="M359 0h-57v309l-268 391h66l230 -335l230 335h67l-268 -392v-308zM198 797q0 16 11.5 27.5t28.5 11.5q25 0 35.5 -24t-8.5 -44q-17 -18 -42 -8t-25 37zM383 797q0 25 25 35.5t43 -7.5t7.5 -43t-35.5 -25q-17 0 -28.5 11.5t-11.5 28.5z" />
    <glyph glyph-name="Zacute" unicode="&#x179;" horiz-adv-x="625" 
d="M487 651h-426v49h507v-25l-433 -626h437v-49h-518v25zM288 741l-30 30l119 119l30 -30z" />
    <glyph glyph-name="zacute" unicode="&#x17a;" horiz-adv-x="469" 
d="M337 404h-280v46h358v-25l-283 -379h283v-46h-361v25zM210 518l-30 30l118 119l30 -30z" />
    <glyph glyph-name="Zdotaccent" unicode="&#x17b;" horiz-adv-x="625" 
d="M487 651h-426v49h507v-25l-433 -626h437v-49h-518v25zM283 779q-12 12 -12 29t12 29t29 12t29 -12t12 -29t-12 -29t-29 -12t-29 12z" />
    <glyph glyph-name="zdotaccent" unicode="&#x17c;" horiz-adv-x="469" 
d="M337 404h-280v46h358v-25l-283 -379h283v-46h-361v25zM205 556q-12 12 -12 29t12 29t29 12t29 -12t12 -29t-12 -29t-29 -12t-29 12z" />
    <glyph glyph-name="Zcaron" unicode="&#x17d;" horiz-adv-x="625" 
d="M487 651h-426v49h507v-25l-433 -626h437v-49h-518v25zM431 860l-119 -119l-118 119l30 30l88 -89l89 89z" />
    <glyph glyph-name="zcaron" unicode="&#x17e;" horiz-adv-x="469" 
d="M353 637l-119 -119l-119 119l30 30l89 -89l89 89zM337 404h-280v46h358v-25l-283 -379h283v-46h-361v25z" />
    <glyph glyph-name="longs" unicode="&#x17f;" horiz-adv-x="300" 
d="M137 0h-56v614q0 65 38 104t102 39q27 0 54 -10v-50q-20 11 -46 11q-41 0 -66.5 -26t-25.5 -68v-614z" />
    <glyph glyph-name="uni018F" unicode="&#x18f;" horiz-adv-x="750" 
d="M54 350v23h583q-7 125 -88 204q-79 78 -204 78q-133 0 -216 -86l-37 36q96 102 255 102q157 0 253 -99q97 -98 97 -258q0 -159 -90 -258q-89 -99 -232 -99q-144 0 -232 99q-89 100 -89 258zM636 324h-522q6 -125 77 -202q72 -77 184 -77t183 77q72 76 78 202z" />
    <glyph glyph-name="florin" unicode="&#x192;" horiz-adv-x="318" 
d="M39 -250v37q28 0 44 15t16 42v560h-66v46h66v164q0 65 38 104t102 39q27 0 54 -10v-50q-20 11 -46 11q-41 0 -66.5 -26t-25.5 -68v-164h138v-46h-138v-561q0 -44 -24 -70.5t-63 -26.5q-22 0 -29 4z" />
    <glyph glyph-name="uni01DD" unicode="&#x1dd;" horiz-adv-x="511" 
d="M49 238h356q-3 75 -51 121.5t-123 46.5q-82 0 -130 -51l-34 35q64 67 167 67t166 -65q64 -64 64 -169q0 -101 -59 -166q-58 -64 -153 -64t-149 65.5t-54 179.5zM250 43q64 0 106.5 41.5t48.5 111.5h-301q7 -72 45.5 -112.5t100.5 -40.5z" />
    <glyph glyph-name="Aringacute" unicode="&#x1fa;" horiz-adv-x="744" 
d="M353 860l-12 13l119 119l30 -30l-102 -102q32 -5 51 -28.5t19 -58.5q0 -65 -55 -83l307 -690h-65l-96 218h-355l-95 -218h-65l305 690q-53 18 -53 83q0 35 18 58.5t49 28.5zM527 270l-155 359l-156 -359h311zM372 831q-25 0 -40.5 -16t-15.5 -42t15.5 -42t40.5 -16
t40.5 16t15.5 42t-16 42t-40 16z" />
    <glyph glyph-name="aringacute" unicode="&#x1fb;" horiz-adv-x="449" 
d="M402 37v-37q-7 -4 -25 -4q-52 0 -67 48q-54 -51 -131 -51q-61 0 -94.5 34.5t-33.5 86.5q0 68 61 105q62 39 158 39q23 0 35 -3v64q0 38 -26 64t-73 26q-68 0 -102 -37l-32 31q54 54 138 54q70 0 110.5 -39.5t40.5 -98.5v-242q0 -40 41 -40zM195 656l-13 14l118 119
l30 -30l-101 -102q32 -5 51 -28.5t19 -58.5q0 -40 -23.5 -64t-62.5 -24q-38 0 -62 24t-24 64q0 34 18.5 57.5t49.5 28.5zM194 41q67 0 111 47v127q-11 3 -32 3q-75 0 -121 -27t-46 -72q0 -33 22 -55.5t66 -22.5zM213 628q-25 0 -40.5 -16t-15.5 -42t15.5 -42t40.5 -16
t40.5 16t15.5 42t-16 42t-40 16z" />
    <glyph glyph-name="AEacute" unicode="&#x1fc;" horiz-adv-x="769" 
d="M713 651h-284v-273h251v-49h-251v-280h289v-49h-346v218h-178l-95 -218h-65l310 700h369v-49zM372 628l-156 -358h156v358zM383 741l-30 30l119 119l30 -30z" />
    <glyph glyph-name="aeacute" unicode="&#x1fd;" horiz-adv-x="726" 
d="M305 255v64q0 38 -26 64t-73 26q-68 0 -102 -37l-32 31q54 54 138 54t121 -58q55 58 145 58q95 0 149 -65.5t54 -179.5h-318v-108q46 -60 136 -60q82 0 130 51l34 -35q-64 -67 -167 -67q-110 0 -172 69q-58 -69 -143 -69q-61 0 -94.5 34.5t-33.5 86.5q0 68 61 105
q62 39 158 39q23 0 35 -3zM361 319v-65h262q-6 71 -44.5 112t-100.5 41q-78 0 -121 -57q4 -17 4 -31zM305 94v121q-11 3 -32 3q-75 0 -121 -27t-46 -72q0 -33 22 -55.5t66 -22.5q66 0 111 53zM345 518l-30 30l119 119l30 -30z" />
    <glyph glyph-name="Oslashacute" unicode="&#x1fe;" horiz-adv-x="807" 
d="M121 -7h-60l88 100q-95 98 -95 257t96 258q97 99 253 99q129 0 220 -70l62 70h61l-88 -101q95 -98 95 -256q0 -160 -97 -258q-96 -99 -253 -99q-132 0 -221 70zM695 350q0 130 -75 213l-401 -458q77 -60 184 -60q130 0 211 84q81 86 81 221zM112 350q0 -131 74 -214
l401 459q-76 60 -184 60q-129 0 -210 -85q-81 -84 -81 -220zM379 741l-30 30l119 119l30 -30z" />
    <glyph glyph-name="oslashacute" unicode="&#x1ff;" horiz-adv-x="557" 
d="M119 -7h-58l52 64q-64 64 -64 168q0 103 63 167q65 65 166 65q71 0 129 -35l31 38h58l-53 -66q65 -65 65 -169t-64 -168q-63 -64 -166 -64q-74 0 -130 36zM455 225q0 78 -45 129l-231 -286q42 -27 99 -27q79 0 128 51t49 133zM102 225q0 -78 43 -128l230 286
q-41 26 -97 26q-78 0 -127 -51q-49 -50 -49 -133zM254 518l-30 30l119 119l30 -30z" />
    <glyph glyph-name="Scommaaccent" unicode="&#x218;" horiz-adv-x="521" 
d="M442 628l-37 -37q-25 28 -68 46t-86 18q-67 0 -101 -40q-33 -39 -33 -90q0 -36 19 -62.5t49.5 -43t67.5 -31t74.5 -31t68 -36.5t49.5 -54t19 -78q0 -79 -54 -138q-54 -58 -156 -58q-128 0 -210 88l36 36q30 -33 76 -52.5t93 -19.5q78 0 117 45t39 98q0 14 -2.5 26.5
t-10 23t-13 18.5t-19 17t-20.5 14t-26 13.5t-25.5 11.5t-29 12t-28.5 11q-48 22 -83 39q-90 47 -90 150q0 76 48 129q48 54 141 54q119 0 195 -79zM234 -204l-19 19q35 35 39 63q-14 2 -23.5 12t-9.5 24q0 15 10.5 25.5t26.5 10.5t26 -12t10 -32q0 -50 -60 -110z" />
    <glyph glyph-name="scommaaccent" unicode="&#x219;" horiz-adv-x="383" 
d="M316 405l-35 -34q-34 37 -94 37q-36 0 -57.5 -22.5t-20.5 -52t22 -48.5q19 -16 73.5 -36t89.5 -48t35 -76q0 -52 -38 -93q-38 -39 -107 -39q-87 0 -141 57l35 35q38 -44 103 -44q44 0 68.5 24.5t24.5 58.5q0 28 -22.5 46.5t-55 30.5t-65 25.5t-55 40.5t-22.5 66
q0 53 34.5 88.5t95.5 35.5q83 0 132 -52zM161 -204l-19 19q38 37 39 63q-32 5 -32 36q0 15 10.5 25.5t26.5 10.5q15 0 25 -12t10 -32q0 -52 -60 -110z" />
    <glyph glyph-name="uni021A" unicode="&#x21a;" horiz-adv-x="557" 
d="M515 651h-207v-651h-57v651h-207v49h471v-49zM258 -204l-19 19q37 37 39 63q-32 5 -32 36q0 15 10.5 25.5t26.5 10.5q15 0 25 -12t10 -32q0 -52 -60 -110z" />
    <glyph glyph-name="uni021B" unicode="&#x21b;" horiz-adv-x="313" 
d="M90 404h-60v46h60v100h57v-100h131v-46h-131v-273q0 -40 24 -64.5t63 -24.5q24 0 44 11v-50q-27 -10 -53 -10q-61 0 -98 38t-37 100v273zM149 -204l-19 19q38 37 39 63q-32 5 -32 36q0 15 10.5 25.5t26.5 10.5q15 0 25 -12t10 -32q0 -52 -60 -110z" />
    <glyph glyph-name="dotlessj" unicode="&#x237;" 
d="M21 -250v37q28 0 44 15t16 42v606h55v-607q0 -45 -23.5 -71t-62.5 -26q-22 0 -29 4z" />
    <glyph glyph-name="circumflex" unicode="&#x2c6;" horiz-adv-x="352" 
d="M57 548l119 119l119 -119l-30 -30l-89 89l-89 -89z" />
    <glyph glyph-name="caron" unicode="&#x2c7;" horiz-adv-x="352" 
d="M295 637l-119 -119l-119 119l30 30l89 -89l89 89z" />
    <glyph glyph-name="breve" unicode="&#x2d8;" horiz-adv-x="353" 
d="M176 577q62 0 104 44l31 -30q-55 -57 -135 -57q-78 0 -135 57l30 31q45 -45 105 -45z" />
    <glyph glyph-name="dotaccent" unicode="&#x2d9;" 
d="M79 556q-12 12 -12 29t12 29t29 12t29 -12t12 -29t-12 -29t-29 -12t-29 12z" />
    <glyph glyph-name="ring" unicode="&#x2da;" horiz-adv-x="275" 
d="M138 689q39 0 62.5 -24.5t23.5 -64.5t-23.5 -64t-62.5 -24q-38 0 -62 24t-24 64t24 64.5t62 24.5zM138 658q-25 0 -40.5 -16t-15.5 -42t15.5 -42t40.5 -16t40.5 16t15.5 42t-16 42t-40 16z" />
    <glyph glyph-name="ogonek" unicode="&#x2db;" horiz-adv-x="256" 
d="M82 -40q0 -29 15.5 -45t42.5 -16t42 16l23 -23q-24 -25 -65 -25q-40 0 -65 25t-25 67q0 24 11 41h32q-11 -17 -11 -40z" />
    <glyph glyph-name="tilde" unicode="&#x2dc;" horiz-adv-x="332" 
d="M69 545h-35q0 37 21.5 59.5t56.5 22.5q30 0 58 -26q28 -25 49 -25q20 0 32.5 13t12.5 33h35q0 -36 -22 -58.5t-58 -22.5q-32 0 -58 25t-48 25q-20 0 -32 -12.5t-12 -33.5z" />
    <glyph glyph-name="hungarumlaut" unicode="&#x2dd;" horiz-adv-x="406" 
d="M87 518l-30 30l119 119l30 -30zM230 518l-30 30l119 119l30 -30z" />
    <glyph glyph-name="uni0400" unicode="&#x400;" horiz-adv-x="506" 
d="M449 651h-308v-273h274v-49h-274v-280h313v-49h-370v700h365v-49zM174 860l30 30l119 -119l-30 -30z" />
    <glyph glyph-name="afii10023" unicode="&#x401;" horiz-adv-x="506" 
d="M449 651h-308v-273h274v-49h-274v-280h313v-49h-370v700h365v-49zM215 797q0 -17 -11.5 -28.5t-28.5 -11.5q-25 0 -35.5 25t7.5 43t43 7.5t25 -35.5zM360 836q17 0 28.5 -11.5t11.5 -27.5q0 -27 -25 -36.5t-43 7.5q-18 20 -7.5 44t35.5 24z" />
    <glyph glyph-name="afii10051" unicode="&#x402;" horiz-adv-x="698" 
d="M499 0v37q28 0 44 15t16 42v153q0 58 -35 94.5t-91 36.5q-79 0 -125 -49v-329h-57v651h-207v49h471v-49h-207v-269q56 46 137 46q77 0 124 -50t47 -131v-154q0 -45 -24.5 -71t-63.5 -26q-22 0 -29 4z" />
    <glyph glyph-name="afii10052" unicode="&#x403;" horiz-adv-x="468" 
d="M226 741l-30 30l119 119l30 -30zM141 0h-57v700h339v-49h-282v-651z" />
    <glyph glyph-name="afii10053" unicode="&#x404;" horiz-adv-x="702" 
d="M406 655q-124 0 -204 -77q-81 -78 -88 -200h435v-49h-435q6 -128 86 -206q79 -78 206 -78q132 0 215 86l38 -36q-97 -102 -256 -102q-155 0 -253 99q-96 99 -96 258t96 258q97 99 253 99q157 0 256 -102l-38 -37q-83 87 -215 87z" />
    <glyph glyph-name="afii10054" unicode="&#x405;" horiz-adv-x="521" 
d="M442 628l-37 -37q-25 28 -68 46t-86 18q-67 0 -101 -40q-33 -39 -33 -90q0 -36 19 -62.5t49.5 -43t67.5 -31t74.5 -31t68 -36.5t49.5 -54t19 -78q0 -79 -54 -138q-54 -58 -156 -58q-128 0 -210 88l36 36q30 -33 76 -52.5t93 -19.5q78 0 117 45t39 98q0 14 -2.5 26.5
t-10 23t-13 18.5t-19 17t-20.5 14t-26 13.5t-25.5 11.5t-29 12t-28.5 11q-48 22 -83 39q-90 47 -90 150q0 76 48 129q48 54 141 54q119 0 195 -79z" />
    <glyph glyph-name="afii10055" unicode="&#x406;" horiz-adv-x="218" 
d="M137 0h-56v700h56v-700z" />
    <glyph glyph-name="afii10056" unicode="&#x407;" horiz-adv-x="218" 
d="M137 0h-56v700h56v-700zM73 797q0 -17 -11.5 -28.5t-28.5 -11.5q-25 0 -35.5 25t7.5 43t43 7.5t25 -35.5zM145 797q0 25 25 35.5t43 -7.5t7.5 -43t-35.5 -25q-17 0 -28.5 11.5t-11.5 28.5z" />
    <glyph glyph-name="afii10057" unicode="&#x408;" horiz-adv-x="454" 
d="M316 186v514h57v-514q0 -85 -53 -140q-53 -53 -138 -53q-86 0 -138 55l37 38q38 -41 99 -41t98.5 39.5t37.5 101.5z" />
    <glyph glyph-name="afii10058" unicode="&#x409;" horiz-adv-x="939" 
d="M690 0h-191v651h-280v-487q0 -77 -38 -122.5t-97 -45.5q-34 0 -43 4v37q56 0 87.5 31.5t31.5 90.5v541h398v-317h132q87 0 142 -53q54 -52 54 -138q0 -88 -54 -140q-53 -52 -142 -52zM827 192q0 63 -37.5 101.5t-99.5 38.5h-132v-282h132q62 0 99.5 39t37.5 103z" />
    <glyph glyph-name="afii10059" unicode="&#x40a;" horiz-adv-x="933" 
d="M84 700h57v-317h351v317h59v-317h132q87 0 142 -53q54 -52 54 -138q0 -88 -54 -140q-53 -52 -142 -52h-191v332h-351v-332h-57v700zM821 192q0 63 -38 101.5t-100 38.5h-132v-282h132q62 0 100 39t38 103z" />
    <glyph glyph-name="afii10060" unicode="&#x40b;" horiz-adv-x="698" 
d="M515 651h-207v-269q56 46 137 46q77 0 124 -50t47 -131v-247h-57v247q0 58 -35 94.5t-91 36.5q-79 0 -125 -49v-329h-57v651h-207v49h471v-49z" />
    <glyph glyph-name="afii10061" unicode="&#x40c;" horiz-adv-x="585" 
d="M137 0h-56v700h56v-700zM548 0h-72l-321 359l300 341h72l-301 -341zM268 741l-30 30l119 119l30 -30z" />
    <glyph glyph-name="uni040D" unicode="&#x40d;" horiz-adv-x="710" 
d="M141 106l445 594h40v-700h-56v594l-445 -594h-41v700h57v-594zM261 860l30 30l119 -119l-30 -30z" />
    <glyph glyph-name="afii10062" unicode="&#x40e;" horiz-adv-x="609" 
d="M305 800q61 0 104 45l31 -31q-56 -57 -135 -57q-80 0 -135 58l30 30q45 -45 105 -45zM516 700h61l-356 -700h-62l118 220l-245 480h62l211 -414z" />
    <glyph glyph-name="afii10145" unicode="&#x40f;" horiz-adv-x="700" 
d="M324 -150v150h-240v700h57v-651h419v651h56v-700h-239v-150h-53z" />
    <glyph glyph-name="afii10017" unicode="&#x410;" horiz-adv-x="744" 
d="M710 0h-65l-96 218h-355l-95 -218h-65l310 700h55zM527 270l-155 359l-156 -359h311z" />
    <glyph glyph-name="afii10018" unicode="&#x411;" horiz-adv-x="534" 
d="M285 0h-201v700h344v-49h-286v-268h143q87 0 142 -53q54 -52 54 -138q0 -88 -54 -140q-53 -52 -142 -52zM422 192q0 63 -37.5 101.5t-99.5 38.5h-143v-282h143q62 0 99.5 39t37.5 103z" />
    <glyph glyph-name="afii10019" unicode="&#x412;" horiz-adv-x="541" 
d="M292 0h-208v700h181q82 0 132 -49t50 -130q0 -109 -87 -153q58 -17 91.5 -64.5t33.5 -113.5q0 -85 -53 -138q-52 -52 -140 -52zM429 194q0 64 -38.5 103t-100.5 39h-148v-286h148q62 0 100.5 39.5t38.5 104.5zM262 650h-120v-264h120q58 0 93 36.5t35 95.5t-35 95.5
t-93 36.5z" />
    <glyph glyph-name="afii10020" unicode="&#x413;" horiz-adv-x="468" 
d="M141 0h-57v700h339v-49h-282v-651z" />
    <glyph glyph-name="afii10021" unicode="&#x414;" horiz-adv-x="676" 
d="M582 -150v150h-488v-150h-54v197q56 0 86.5 39t30.5 116v498h407v-651h72v-199h-54zM216 651v-449q0 -108 -59 -153h349v602h-290z" />
    <glyph glyph-name="afii10022" unicode="&#x415;" horiz-adv-x="506" 
d="M449 651h-308v-273h274v-49h-274v-280h313v-49h-370v700h365v-49z" />
    <glyph glyph-name="afii10024" unicode="&#x416;" horiz-adv-x="889" 
d="M473 0h-57v700h57v-700zM852 0h-68l-294 359l279 341h66l-278 -341zM120 700l278 -341l-294 -359h-67l295 359l-279 341h67z" />
    <glyph glyph-name="afii10025" unicode="&#x417;" horiz-adv-x="541" 
d="M290 336h-107v50h79q60 0 95.5 36.5t35.5 99.5t-34.5 98.5t-97.5 35.5q-92 0 -171 -79l-36 36q94 94 210 94q88 0 137 -49.5t49 -131.5q0 -114 -90 -158q58 -18 91.5 -65t33.5 -114q0 -90 -58.5 -143t-158.5 -53q-128 0 -224 102l37 36q81 -87 184 -87q77 0 120.5 40
t43.5 109q0 64 -38.5 103.5t-100.5 39.5z" />
    <glyph glyph-name="afii10026" unicode="&#x418;" horiz-adv-x="710" 
d="M141 106l445 594h40v-700h-56v594l-445 -594h-41v700h57v-594z" />
    <glyph glyph-name="afii10027" unicode="&#x419;" horiz-adv-x="710" 
d="M355 800q60 0 105 45l30 -31q-56 -57 -135 -57q-80 0 -135 58l31 30q43 -45 104 -45zM141 106l445 594h40v-700h-56v594l-445 -594h-41v700h57v-594z" />
    <glyph glyph-name="afii10028" unicode="&#x41a;" horiz-adv-x="585" 
d="M137 0h-56v700h56v-700zM548 0h-72l-321 359l300 341h72l-301 -341z" />
    <glyph glyph-name="afii10029" unicode="&#x41b;" horiz-adv-x="658" 
d="M41 0v37q56 0 87.5 31.5t31.5 90.5v541h414v-700h-58v651h-297v-487q0 -77 -38 -122.5t-97 -45.5q-34 0 -43 4z" />
    <glyph glyph-name="afii10030" unicode="&#x41c;" horiz-adv-x="814" 
d="M730 0h-56v582l-252 -415h-30l-251 415v-582h-57v700h44l279 -456l279 456h44v-700z" />
    <glyph glyph-name="afii10031" unicode="&#x41d;" horiz-adv-x="694" 
d="M84 700h57v-322h412v322h57v-700h-57v329h-412v-329h-57v700z" />
    <glyph glyph-name="afii10032" unicode="&#x41e;" horiz-adv-x="807" 
d="M403 707q157 0 253 -99q97 -98 97 -258t-97 -258q-96 -99 -253 -99q-155 0 -253 99q-96 99 -96 258t96 258q97 99 253 99zM403 45q130 0 211 84q81 86 81 221q0 136 -81 220q-81 85 -211 85q-129 0 -210 -85q-81 -84 -81 -220q0 -135 81 -221q81 -84 210 -84z" />
    <glyph glyph-name="afii10033" unicode="&#x41f;" horiz-adv-x="667" 
d="M84 0v700h499v-700h-57v651h-385v-651h-57z" />
    <glyph glyph-name="afii10034" unicode="&#x420;" horiz-adv-x="514" 
d="M142 0h-58v700h181q87 0 142 -53q54 -53 54 -139t-54 -139q-53 -52 -142 -52h-123v-317zM402 508q0 64 -37.5 103t-99.5 39h-123v-282h123q62 0 99.5 38.5t37.5 101.5z" />
    <glyph glyph-name="afii10035" unicode="&#x421;" horiz-adv-x="702" 
d="M406 45q132 0 215 86l38 -36q-97 -102 -256 -102q-155 0 -253 99q-96 99 -96 258t96 258q97 99 253 99q157 0 256 -102l-38 -37q-83 87 -215 87q-131 0 -213 -85q-81 -84 -81 -220q0 -135 81 -221q83 -84 213 -84z" />
    <glyph glyph-name="afii10036" unicode="&#x422;" horiz-adv-x="557" 
d="M515 651h-207v-651h-57v651h-207v49h471v-49z" />
    <glyph glyph-name="afii10037" unicode="&#x423;" horiz-adv-x="609" 
d="M516 700h61l-356 -700h-62l118 220l-245 480h62l211 -414z" />
    <glyph glyph-name="afii10038" unicode="&#x424;" horiz-adv-x="754" 
d="M405 0h-57v68q-130 0 -213 78q-81 80 -81 204q0 125 81 203q82 79 213 79v68h57v-68q133 0 213 -79q82 -78 82 -203t-82 -204q-81 -78 -213 -78v-68zM405 580v-460q107 0 171 64q66 64 66 166t-66 166q-64 64 -171 64zM348 120v460q-106 0 -171 -64q-65 -65 -65 -166
t65 -166q65 -64 171 -64z" />
    <glyph glyph-name="afii10039" unicode="&#x425;" horiz-adv-x="714" 
d="M677 0h-73l-247 315l-247 -315h-73l279 354l-273 346h73l241 -306l240 306h73l-273 -346z" />
    <glyph glyph-name="afii10040" unicode="&#x426;" horiz-adv-x="727" 
d="M633 -150v150h-549v700h57v-651h419v651h56v-651h70v-199h-53z" />
    <glyph glyph-name="afii10041" unicode="&#x427;" horiz-adv-x="579" 
d="M495 700v-700h-55v323q-66 -21 -153 -21q-98 0 -150.5 54t-52.5 156v188h55v-186q0 -165 157 -165q88 0 144 22v329h55z" />
    <glyph glyph-name="afii10042" unicode="&#x428;" horiz-adv-x="1026" 
d="M942 700v-700h-858v700h57v-651h344v651h56v-651h344v651h57z" />
    <glyph glyph-name="afii10043" unicode="&#x429;" horiz-adv-x="1052" 
d="M958 -150v150h-874v700h57v-651h344v651h56v-651h344v651h57v-651h70v-199h-54z" />
    <glyph glyph-name="afii10044" unicode="&#x42a;" horiz-adv-x="641" 
d="M200 651h-156v49h215v-317h132q87 0 142 -53q54 -52 54 -138q0 -88 -54 -140q-53 -52 -142 -52h-191v651zM529 192q0 63 -38 101.5t-100 38.5h-132v-282h132q62 0 100 39t38 103z" />
    <glyph glyph-name="afii10045" unicode="&#x42b;" horiz-adv-x="720" 
d="M275 0h-191v700h58v-317h133q87 0 142 -53q54 -52 54 -138q0 -88 -54 -140q-53 -52 -142 -52zM412 192q0 63 -37.5 101.5t-99.5 38.5h-133v-282h133q62 0 99.5 39t37.5 103zM636 0h-56v700h56v-700z" />
    <glyph glyph-name="afii10046" unicode="&#x42c;" horiz-adv-x="524" 
d="M275 0h-191v700h58v-317h133q87 0 142 -53q54 -52 54 -138q0 -88 -54 -140q-53 -52 -142 -52zM412 192q0 63 -37.5 101.5t-99.5 38.5h-133v-282h133q62 0 99.5 39t37.5 103z" />
    <glyph glyph-name="afii10047" unicode="&#x42d;" horiz-adv-x="702" 
d="M81 568l-37 37q98 102 255 102q155 0 253 -99q97 -98 97 -258t-97 -258q-98 -99 -253 -99q-159 0 -255 102l37 36q83 -86 216 -86q125 0 205 78q81 78 87 206h-368v49h368q-7 123 -89 200q-80 77 -203 77q-132 0 -216 -87z" />
    <glyph glyph-name="afii10048" unicode="&#x42e;" horiz-adv-x="1029" 
d="M84 700h57v-322h200q7 147 95 238q87 91 222 91q142 0 230 -99q88 -98 88 -258t-88 -258q-88 -99 -230 -99q-137 0 -224 92q-86 93 -93 244h-200v-329h-57v700zM471 570q-72 -84 -72 -220t72 -221q72 -84 187 -84t187 84q72 86 72 221q0 136 -72 220q-72 85 -187 85
t-187 -85z" />
    <glyph glyph-name="afii10049" unicode="&#x42f;" horiz-adv-x="541" 
d="M249 700h208v-700h-58v317h-121l-171 -317h-65l179 318q-76 9 -121.5 60.5t-45.5 129.5q0 87 53.5 139.5t141.5 52.5zM112 508q0 -63 37.5 -101.5t99.5 -38.5h150v282h-150q-62 0 -99.5 -39t-37.5 -103z" />
    <glyph glyph-name="afii10065" unicode="&#x430;" horiz-adv-x="449" 
d="M402 37v-37q-7 -4 -25 -4q-52 0 -67 48q-54 -51 -131 -51q-61 0 -94.5 34.5t-33.5 86.5q0 68 61 105q62 39 158 39q23 0 35 -3v64q0 38 -26 64t-73 26q-68 0 -102 -37l-32 31q54 54 138 54q70 0 110.5 -39.5t40.5 -98.5v-242q0 -40 41 -40zM194 41q67 0 111 47v127
q-11 3 -32 3q-75 0 -121 -27t-46 -72q0 -33 22 -55.5t66 -22.5z" />
    <glyph glyph-name="afii10066" unicode="&#x431;" horiz-adv-x="567" 
d="M439 755l32 -33q-12 -15 -28.5 -28.5t-28 -21.5t-35 -19t-30.5 -14t-35.5 -13.5t-31.5 -11.5q-37 -14 -62.5 -31t-50 -46.5t-38 -77.5t-15.5 -114h5q52 112 174 112q96 0 159 -65q64 -64 64 -169q0 -103 -64 -167q-64 -63 -173 -63q-103 0 -162.5 69.5t-59.5 242.5
q-1 227 119 312q36 26 92 46.5t101 40.5t68 51zM125 224q0 -82 42 -131t119 -49q78 0 126.5 50t48.5 132q0 80 -48 130t-125 50q-76 0 -119.5 -49t-43.5 -133z" />
    <glyph glyph-name="afii10067" unicode="&#x432;" horiz-adv-x="440" 
d="M251 0h-170v450h154q56 0 89.5 -31.5t33.5 -82.5q0 -67 -55 -98q81 -27 81 -114q0 -56 -36 -90t-97 -34zM243 214h-107v-170h107q39 0 62.5 23.5t23.5 61.5t-23.5 61.5t-62.5 23.5zM136 406v-151h92q34 0 55 21t21 55q0 33 -21 54t-55 21h-92z" />
    <glyph glyph-name="afii10068" unicode="&#x433;" horiz-adv-x="368" 
d="M325 404h-189v-404h-55v450h244v-46z" />
    <glyph glyph-name="afii10069" unicode="&#x434;" horiz-adv-x="530" 
d="M426 46h58v-166h-52v120h-339v-120h-52v166q39 0 64.5 29.5t25.5 76.5v298h295v-404zM186 404v-248q0 -70 -46 -110h231v358h-185z" />
    <glyph glyph-name="afii10070" unicode="&#x435;" horiz-adv-x="511" 
d="M464 212h-357q3 -76 50.5 -122t124.5 -46q81 0 129 51l35 -35q-64 -67 -168 -67q-102 0 -166 64q-63 65 -63 170q0 102 58 166t153 64t149.5 -65.5t54.5 -179.5zM262 407q-64 0 -106.5 -41.5t-48.5 -111.5h301q-7 72 -45.5 112.5t-100.5 40.5z" />
    <glyph glyph-name="afii10072" unicode="&#x436;" horiz-adv-x="647" 
d="M351 0h-55v450h55v-450zM609 0h-64l-191 236l175 214h64l-176 -214zM101 0h-64l192 236l-176 214h65l174 -214z" />
    <glyph glyph-name="afii10073" unicode="&#x437;" horiz-adv-x="406" 
d="M189 457q64 0 102 -32.5t38 -85.5q0 -71 -59 -103q81 -26 81 -115q0 -58 -41.5 -93t-113.5 -35q-93 0 -157 67l32 33q49 -52 120 -52q48 0 76.5 24t28.5 63q0 38 -23.5 61t-63.5 23h-69v41h52q37 0 60 22t23 56t-24.5 56t-65.5 22q-63 0 -106 -45l-32 32q58 61 142 61z
" />
    <glyph glyph-name="afii10074" unicode="&#x438;" horiz-adv-x="537" 
d="M81 450h55v-361l275 361h45v-450h-55v361l-275 -361h-45v450z" />
    <glyph glyph-name="afii10075" unicode="&#x439;" horiz-adv-x="537" 
d="M373 621l30 -30q-55 -57 -135 -57q-78 0 -135 57l31 31q44 -45 104 -45q61 0 105 44zM81 450h55v-361l275 361h45v-450h-55v361l-275 -361h-45v450z" />
    <glyph glyph-name="afii10076" unicode="&#x43a;" horiz-adv-x="456" 
d="M136 450v-450h-55v450h55zM419 0h-67l-214 236l198 214h67l-200 -214z" />
    <glyph glyph-name="afii10077" unicode="&#x43b;" horiz-adv-x="498" 
d="M41 0v37q41 0 63.5 22.5t22.5 66.5v324h291v-450h-56v404h-180v-280q0 -59 -29 -93.5t-77 -34.5q-27 0 -35 4z" />
    <glyph glyph-name="afii10078" unicode="&#x43c;" horiz-adv-x="599" 
d="M133 0h-52v450h53l166 -291l166 291h53v-450h-52v360l-150 -266h-35l-149 266v-360z" />
    <glyph glyph-name="afii10079" unicode="&#x43d;" horiz-adv-x="530" 
d="M81 450h55v-199h258v199h56v-450h-56v206h-258v-206h-55v450z" />
    <glyph glyph-name="afii10080" unicode="&#x43e;" horiz-adv-x="557" 
d="M278 457q103 0 166 -64q64 -64 64 -168t-64 -168q-63 -64 -166 -64q-102 0 -166 64q-63 65 -63 168t63 167q65 65 166 65zM153 356q-48 -50 -48 -131t48 -131t125 -50t125 50q48 49 48 131q0 81 -48 131t-125 50t-125 -50z" />
    <glyph glyph-name="afii10081" unicode="&#x43f;" horiz-adv-x="517" 
d="M436 0h-55v404h-245v-404h-55v450h355v-450z" />
    <glyph glyph-name="afii10082" unicode="&#x440;" horiz-adv-x="541" 
d="M81 -250v700h55v-40q56 47 138 47q98 0 158 -65q61 -64 61 -167t-63 -168q-63 -64 -164 -64q-77 0 -130 38v-281h-55zM262 406q-76 0 -126 -48v-267q50 -47 126 -47q77 0 125 50q49 49 49 131t-49 131q-48 50 -125 50z" />
    <glyph glyph-name="afii10083" unicode="&#x441;" horiz-adv-x="482" 
d="M280 44q80 0 128 51l35 -35q-64 -67 -166 -67t-165 64q-63 65 -63 168t63 168q63 64 165 64q103 0 166 -68l-35 -34q-48 51 -128 51q-78 0 -126.5 -50t-48.5 -131t48.5 -131t126.5 -50z" />
    <glyph glyph-name="afii10084" unicode="&#x442;" horiz-adv-x="432" 
d="M390 404h-146v-404h-55v404h-145v46h346v-46z" />
    <glyph glyph-name="afii10085" unicode="&#x443;" horiz-adv-x="529" 
d="M436 450h61l-323 -700h-61l125 250l-206 450h62l171 -384z" />
    <glyph glyph-name="afii10086" unicode="&#x444;" horiz-adv-x="666" 
d="M387 -5q-5 0 -27 2v-247h-55v247q-24 -2 -27 -2q-102 0 -166 63q-63 64 -63 167t63 166q64 64 166 64q3 0 27 -2v297h55v-297q22 2 27 2q103 0 166 -64q64 -63 64 -166t-64 -167q-63 -63 -166 -63zM387 406q-5 0 -27 -2v-359q5 -1 27 -1q77 0 125 50q48 49 48 131
q0 81 -48 131t-125 50zM278 44q21 0 27 1v359q-24 2 -27 2q-77 0 -125 -50t-48 -131t48 -131t125 -50z" />
    <glyph glyph-name="afii10087" unicode="&#x445;" horiz-adv-x="507" 
d="M470 0h-65l-152 193l-151 -193h-65l180 229l-174 221h65l145 -185l145 185h65l-174 -221z" />
    <glyph glyph-name="afii10088" unicode="&#x446;" horiz-adv-x="533" 
d="M437 0h-356v450h55v-404h245v404h55v-404h53v-166h-52v120z" />
    <glyph glyph-name="afii10089" unicode="&#x447;" horiz-adv-x="474" 
d="M394 450v-450h-56v193q-46 -18 -107 -18q-72 0 -113 42t-41 112v121h55v-120q0 -48 28.5 -77.5t81.5 -29.5q58 0 96 20v207h56z" />
    <glyph glyph-name="afii10090" unicode="&#x448;" horiz-adv-x="710" 
d="M383 46h191v404h55v-450h-548v450h55v-404h191v404h56v-404z" />
    <glyph glyph-name="afii10091" unicode="&#x449;" horiz-adv-x="726" 
d="M631 0h-550v450h55v-404h191v404h56v-404h191v404h55v-404h54v-166h-52v120z" />
    <glyph glyph-name="afii10092" unicode="&#x44a;" horiz-adv-x="508" 
d="M320 0h-155v404h-121v46h177v-197h99q63 0 100 -34.5t37 -92.5q0 -57 -37 -91.5t-100 -34.5zM319 209h-98v-165h98q37 0 60 23t23 59q0 38 -23 60.5t-60 22.5z" />
    <glyph glyph-name="afii10093" unicode="&#x44b;" horiz-adv-x="591" 
d="M236 0h-155v450h55v-197h100q63 0 99.5 -35t36.5 -92t-37 -91.5t-99 -34.5zM234 209h-98v-165h98q37 0 60 23t23 59q0 38 -22.5 60.5t-60.5 22.5zM510 0h-55v450h55v-450z" />
    <glyph glyph-name="afii10094" unicode="&#x44c;" horiz-adv-x="423" 
d="M236 0h-155v450h55v-197h100q63 0 99.5 -35t36.5 -92t-37 -91.5t-99 -34.5zM234 209h-98v-165h98q37 0 60 23t23 59q0 38 -22.5 60.5t-60.5 22.5z" />
    <glyph glyph-name="afii10095" unicode="&#x44d;" horiz-adv-x="482" 
d="M376 207h-218v43h218q-8 71 -55.5 113.5t-118.5 42.5q-80 0 -128 -51l-35 35q64 67 166 67t165 -64q63 -65 63 -168t-63 -168q-63 -64 -165 -64t-166 67l35 35q48 -51 128 -51q72 0 121 44q48 45 53 119z" />
    <glyph glyph-name="afii10096" unicode="&#x44e;" horiz-adv-x="744" 
d="M81 450h55v-199h125q7 93 67 149q58 57 150 57q97 0 157 -64q61 -64 61 -168t-61 -168q-60 -64 -157 -64q-94 0 -153 58q-59 59 -65 155h-124v-206h-55v450zM361 356q-44 -50 -44 -131t44 -131q45 -50 117 -50t116 50q45 50 45 131t-45 131q-44 50 -116 50t-117 -50z" />
    <glyph glyph-name="afii10097" unicode="&#x44f;" horiz-adv-x="459" 
d="M211 450h168v-450h-55v192h-92l-112 -192h-59l118 194q-51 8 -79.5 42t-28.5 85q0 58 37.5 93.5t102.5 35.5zM212 236h112v170h-112q-38 0 -62 -23.5t-24 -61.5t24 -61.5t62 -23.5z" />
    <glyph glyph-name="uni0450" unicode="&#x450;" horiz-adv-x="511" 
d="M464 212h-357q3 -76 50.5 -122t124.5 -46q81 0 129 51l35 -35q-64 -67 -168 -67q-102 0 -166 64q-63 65 -63 170q0 102 58 166t153 64t149.5 -65.5t54.5 -179.5zM262 407q-64 0 -106.5 -41.5t-48.5 -111.5h301q-7 72 -45.5 112.5t-100.5 40.5zM167 637l30 30l119 -119
l-30 -30z" />
    <glyph glyph-name="afii10071" unicode="&#x451;" horiz-adv-x="511" 
d="M464 212h-357q3 -76 50.5 -122t124.5 -46q81 0 129 51l35 -35q-64 -67 -168 -67q-102 0 -166 64q-63 65 -63 170q0 102 58 166t153 64t149.5 -65.5t54.5 -179.5zM262 407q-64 0 -106.5 -41.5t-48.5 -111.5h301q-7 72 -45.5 112.5t-100.5 40.5zM208 552q0 -17 -11.5 -28.5
t-27.5 -11.5q-27 0 -37 25t8 42q20 19 44 8.5t24 -35.5zM354 591q16 0 27.5 -11.5t11.5 -27.5q0 -27 -24 -37t-43 9t-9 43t37 24z" />
    <glyph glyph-name="afii10099" unicode="&#x452;" horiz-adv-x="536" 
d="M337 -250v37q28 0 44 15t16 42v431q0 58 -35 94.5t-91 36.5q-80 0 -126 -49v-357h-55v604h-60v46h60v100h55v-100h183v-46h-183v-195q58 48 137 48q76 0 123 -51q47 -50 47 -131v-432q0 -45 -23.5 -71t-62.5 -26q-22 0 -29 4z" />
    <glyph glyph-name="afii10100" unicode="&#x453;" horiz-adv-x="368" 
d="M176 518l-30 30l119 119l30 -30zM325 404h-189v-404h-55v450h244v-46z" />
    <glyph glyph-name="afii10101" unicode="&#x454;" horiz-adv-x="482" 
d="M280 406q-72 0 -119 -42.5t-55 -113.5h254v-43h-255q6 -74 54 -118.5t121 -44.5q80 0 128 51l35 -35q-64 -67 -166 -67t-165 64q-63 65 -63 168t63 168q63 64 165 64q103 0 166 -68l-35 -34q-48 51 -128 51z" />
    <glyph glyph-name="afii10102" unicode="&#x455;" horiz-adv-x="383" 
d="M316 405l-35 -34q-34 37 -94 37q-36 0 -57.5 -22.5t-20.5 -52t22 -48.5q19 -16 73.5 -36t89.5 -48t35 -76q0 -52 -38 -93q-38 -39 -107 -39q-87 0 -141 57l35 35q38 -44 103 -44q44 0 68.5 24.5t24.5 58.5q0 28 -22.5 46.5t-55 30.5t-65 25.5t-55 40.5t-22.5 66
q0 53 34.5 88.5t95.5 35.5q83 0 132 -52z" />
    <glyph glyph-name="afii10103" unicode="&#x456;" 
d="M136 0h-55v450h55v-450zM79 556q-12 12 -12 29t12 29t29 12t29 -12t12 -29t-12 -29t-29 -12t-29 12z" />
    <glyph glyph-name="afii10104" unicode="&#x457;" 
d="M136 0h-55v450h55v-450zM75 558q0 -16 -11.5 -27.5t-27.5 -11.5q-27 0 -37 24t9 43t43 9t24 -37zM141 558q0 26 24 37t43 -9q20 -19 9 -43t-37 -24q-16 0 -27.5 11.5t-11.5 27.5z" />
    <glyph glyph-name="afii10105" unicode="&#x458;" 
d="M79 556q-12 12 -12 29t12 29t29 12t29 -12t12 -29t-12 -29t-29 -12t-29 12zM21 -250v37q28 0 44 15t16 42v606h55v-607q0 -45 -23.5 -71t-62.5 -26q-22 0 -29 4z" />
    <glyph glyph-name="afii10106" unicode="&#x459;" horiz-adv-x="698" 
d="M517 0h-155v404h-180v-280q0 -59 -29 -93.5t-77 -34.5q-27 0 -35 4v37q41 0 63.5 22.5t22.5 66.5v324h291v-197h99q63 0 100 -34.5t37 -92.5q0 -57 -37 -91.5t-100 -34.5zM516 209h-98v-165h98q37 0 60 23t23 59q0 38 -22.5 60.5t-60.5 22.5z" />
    <glyph glyph-name="afii10107" unicode="&#x45a;" horiz-adv-x="726" 
d="M81 450h55v-199h252v199h55v-199h106q61 0 96.5 -34.5t35.5 -91.5t-36 -91t-96 -34h-161v206h-252v-206h-55v450zM547 206h-104v-162h104q35 0 57 22.5t22 58.5t-22 58.5t-57 22.5z" />
    <glyph glyph-name="afii10108" unicode="&#x45b;" horiz-adv-x="536" 
d="M90 604h-60v46h60v100h55v-100h183v-46h-183v-195q58 48 137 48q76 0 123 -51q47 -50 47 -131v-275h-55v275q0 58 -35 94.5t-91 36.5q-80 0 -126 -49v-357h-55v604z" />
    <glyph glyph-name="afii10109" unicode="&#x45c;" horiz-adv-x="456" 
d="M204 518l-30 30l118 119l30 -30zM136 450v-450h-55v450h55zM419 0h-67l-214 236l198 214h67l-200 -214z" />
    <glyph glyph-name="uni045D" unicode="&#x45d;" horiz-adv-x="537" 
d="M81 450h55v-361l275 361h45v-450h-55v361l-275 -361h-45v450zM174 637l30 30l119 -119l-30 -30z" />
    <glyph glyph-name="afii10110" unicode="&#x45e;" horiz-adv-x="529" 
d="M436 450h61l-323 -700h-61l125 250l-206 450h62l171 -384zM265 577q62 0 104 44l31 -30q-56 -57 -135 -57q-78 0 -135 57l30 31q45 -45 105 -45z" />
    <glyph glyph-name="afii10193" unicode="&#x45f;" horiz-adv-x="517" 
d="M284 -120h-52v120h-151v450h55v-404h245v404h55v-450h-152v-120z" />
    <glyph glyph-name="afii10050" unicode="&#x490;" horiz-adv-x="467" 
d="M410 651h-269v-651h-57v700h280v125h46v-174z" />
    <glyph glyph-name="afii10098" unicode="&#x491;" horiz-adv-x="365" 
d="M315 404h-179v-404h-55v450h188v100h46v-146z" />
    <glyph glyph-name="uni04D8" unicode="&#x4d8;" horiz-adv-x="750" 
d="M54 350v23h583q-7 125 -88 204q-79 78 -204 78q-133 0 -216 -86l-37 36q96 102 255 102q157 0 253 -99q97 -98 97 -258q0 -159 -90 -258q-89 -99 -232 -99q-144 0 -232 99q-89 100 -89 258zM636 324h-522q6 -125 77 -202q72 -77 184 -77t183 77q72 76 78 202z" />
    <glyph glyph-name="afii10846" unicode="&#x4d9;" horiz-adv-x="511" 
d="M49 238h356q-3 75 -51 121.5t-123 46.5q-82 0 -130 -51l-34 35q64 67 167 67t166 -65q64 -64 64 -169q0 -101 -59 -166q-58 -64 -153 -64t-149 65.5t-54 179.5zM250 43q64 0 106.5 41.5t48.5 111.5h-301q7 -72 45.5 -112.5t100.5 -40.5z" />
    <glyph glyph-name="Wgrave" unicode="&#x1e80;" horiz-adv-x="1146" 
d="M1047 700h65l-266 -700h-59l-214 604l-214 -604h-59l-266 700h65l230 -615l214 615h60l214 -615zM478 860l30 30l119 -119l-30 -30z" />
    <glyph glyph-name="wgrave" unicode="&#x1e81;" horiz-adv-x="794" 
d="M699 450h63l-176 -450h-58l-131 374l-131 -374h-58l-176 450h63l142 -384l132 384h56l132 -384zM303 637l30 30l118 -119l-30 -30z" />
    <glyph glyph-name="Wacute" unicode="&#x1e82;" horiz-adv-x="1146" 
d="M1047 700h65l-266 -700h-59l-214 604l-214 -604h-59l-266 700h65l230 -615l214 615h60l214 -615zM548 741l-30 30l119 119l30 -30z" />
    <glyph glyph-name="wacute" unicode="&#x1e83;" horiz-adv-x="794" 
d="M699 450h63l-176 -450h-58l-131 374l-131 -374h-58l-176 450h63l142 -384l132 384h56l132 -384zM373 518l-30 30l118 119l30 -30z" />
    <glyph glyph-name="Wdieresis" unicode="&#x1e84;" horiz-adv-x="1146" 
d="M1047 700h65l-266 -700h-59l-214 604l-214 -604h-59l-266 700h65l230 -615l214 615h60l214 -615zM480 836q17 0 28.5 -11.5t11.5 -27.5q0 -27 -25 -36.5t-43 7.5q-18 20 -7.5 44t35.5 24zM705 797q0 -17 -11.5 -28.5t-28.5 -11.5q-25 0 -35.5 25t7.5 43t43 7.5t25 -35.5z
" />
    <glyph glyph-name="wdieresis" unicode="&#x1e85;" horiz-adv-x="794" 
d="M699 450h63l-176 -450h-58l-131 374l-131 -374h-58l-176 450h63l142 -384l132 384h56l132 -384zM265 573q0 17 11.5 28.5t28.5 11.5q25 0 35.5 -25t-7.5 -43t-43 -7.5t-25 35.5zM461 545q-11 11 -11 28t11 28q11 12 28 12t28 -12q12 -11 12 -28t-12 -28q-11 -11 -28 -11
t-28 11z" />
    <glyph glyph-name="Ygrave" unicode="&#x1ef2;" horiz-adv-x="661" 
d="M359 0h-57v309l-268 391h66l230 -335l230 335h67l-268 -392v-308zM236 860l30 30l119 -119l-30 -30z" />
    <glyph glyph-name="ygrave" unicode="&#x1ef3;" horiz-adv-x="529" 
d="M436 450h61l-323 -700h-61l125 250l-206 450h62l171 -384zM170 637l30 30l119 -119l-30 -30z" />
    <glyph glyph-name="figuredash" unicode="&#x2012;" horiz-adv-x="500" 
d="M433 327h-366v46h366v-46z" />
    <glyph glyph-name="endash" unicode="&#x2013;" horiz-adv-x="500" 
d="M433 240h-366v46h366v-46z" />
    <glyph glyph-name="emdash" unicode="&#x2014;" horiz-adv-x="700" 
d="M633 240h-566v46h566v-46z" />
    <glyph glyph-name="quoteleft" unicode="&#x2018;" 
d="M135 707l22 -22q-38 -38 -43 -69q15 -2 25.5 -13.5t10.5 -26.5q0 -17 -12 -29t-30 -12t-29 13t-11 36q0 56 67 123z" />
    <glyph glyph-name="quoteright" unicode="&#x2019;" 
d="M82 535l-22 22q38 38 43 68q-15 2 -25.5 13.5t-10.5 27.5q0 17 12 29t30 12t29 -13t11 -36q0 -56 -67 -123z" />
    <glyph glyph-name="quotesinglbase" unicode="&#x201a;" 
d="M82 -96l-22 21q38 40 43 69q-15 2 -25.5 13.5t-10.5 26.5q0 17 12 29t30 12t29 -12.5t11 -36.5q0 -58 -67 -122z" />
    <glyph glyph-name="quotedblleft" unicode="&#x201c;" horiz-adv-x="339" 
d="M257 723l22 -22q-39 -39 -43 -69q15 -2 25.5 -13.5t10.5 -26.5q0 -24 -20.5 -35.5t-41 0t-20.5 43.5q0 56 67 123zM135 723l22 -22q-38 -38 -43 -69q15 -2 25.5 -13.5t10.5 -26.5q0 -17 -12 -29t-30 -12t-29 13t-11 36q0 56 67 123z" />
    <glyph glyph-name="quotedblright" unicode="&#x201d;" horiz-adv-x="339" 
d="M82 551l-22 22q38 38 43 68q-15 2 -25.5 13.5t-10.5 27.5q0 17 12 29t30 12t29 -13t11 -36q0 -56 -67 -123zM204 551l-21 22q39 39 43 68q-16 2 -26 13.5t-10 27.5q0 24 20.5 35.5t41 0t20.5 -43.5q0 -55 -68 -123z" />
    <glyph glyph-name="quotedblbase" unicode="&#x201e;" horiz-adv-x="339" 
d="M82 -96l-22 21q38 40 43 69q-15 2 -25.5 13.5t-10.5 26.5q0 17 12 29t30 12t29 -12.5t11 -36.5q0 -58 -67 -122zM204 -96l-21 21q39 42 43 69q-16 2 -26 13t-10 27q0 24 20.5 35.5t41 0t20.5 -43.5q0 -56 -68 -122z" />
    <glyph glyph-name="dagger" unicode="&#x2020;" horiz-adv-x="500" 
d="M222 404h-155v46h155v300h56v-300h155v-46h-155v-654h-56v654z" />
    <glyph glyph-name="daggerdbl" unicode="&#x2021;" horiz-adv-x="500" 
d="M222 70h-155v46h155v288h-155v46h155v300h56v-300h155v-46h-155v-288h155v-46h-155v-320h-56v320z" />
    <glyph glyph-name="bullet" unicode="&#x2022;" horiz-adv-x="259" 
d="M84 229q-18 19 -18 46t18 45q19 19 46 19t45 -19q19 -18 19 -45t-19 -46q-18 -18 -45 -18t-46 18z" />
    <glyph glyph-name="ellipsis" unicode="&#x2026;" horiz-adv-x="649" 
d="M79 5q-12 12 -12 29t12 29t29 12t29 -12t12 -29t-12 -29t-29 -12t-29 12zM296 5q-12 12 -12 29t12 29t29 12t29 -12t12 -29t-12 -29t-29 -12t-29 12zM512 5q-12 12 -12 29t12 29t29 12t29 -12t12 -29t-12 -29t-29 -12t-29 12z" />
    <glyph glyph-name="perthousand" unicode="&#x2030;" horiz-adv-x="1222" 
d="M265 0h-58l365 700h57zM206 707q73 0 118 -45.5t45 -119.5t-45 -119.5t-118 -45.5q-72 0 -117 46t-45 119t45 119t117 46zM206 421q50 0 81.5 34t31.5 87t-31.5 87t-81.5 34q-49 0 -80.5 -34t-31.5 -87t31.5 -87t80.5 -34zM629 323q73 0 118 -45.5t45 -119.5t-45 -119.5
t-118 -45.5q-72 0 -117 46t-45 119t45 119t117 46zM629 37q50 0 81.5 34t31.5 87t-31.5 87t-81.5 34q-49 0 -80.5 -34t-31.5 -87t31.5 -87t80.5 -34zM1016 323q72 0 117 -46t45 -119t-45 -119t-117 -46q-73 0 -118 45.5t-45 119.5t45 119.5t118 45.5zM1016 37q49 0 80.5 34
t31.5 87t-31.5 87t-80.5 34q-50 0 -81.5 -34t-31.5 -87t31.5 -87t81.5 -34z" />
    <glyph glyph-name="guilsinglleft" unicode="&#x2039;" horiz-adv-x="304" 
d="M240 111l-30 -30l-170 169l170 169l30 -30l-140 -139z" />
    <glyph glyph-name="guilsinglright" unicode="&#x203a;" horiz-adv-x="304" 
d="M87 419l169 -169l-169 -169l-30 30l139 139l-139 139z" />
    <glyph glyph-name="fraction" unicode="&#x2044;" horiz-adv-x="530" 
d="M105 0h-44l364 700h44z" />
    <glyph glyph-name="Euro" unicode="&#x20ac;" horiz-adv-x="751" 
d="M105 400h-61v36h66q25 124 116 197q92 74 226 74q156 0 255 -102l-37 -37q-84 87 -216 87q-107 0 -184 -59q-76 -58 -100 -160h285v-36h-292q-6 -50 0 -100h292v-36h-285q24 -102 100 -160q77 -59 184 -59q133 0 216 86l37 -36q-97 -102 -255 -102q-135 0 -226 73
q-90 73 -116 198h-66v36h61q-6 50 0 100z" />
    <glyph glyph-name="uni20B4" unicode="&#x20b4;" horiz-adv-x="423" 
d="M220 394h-173v36h209l15 15q26 26 36.5 47t10.5 52q0 49 -33 80.5t-85 31.5q-73 0 -116 -52l-36 36q58 67 152 67q78 0 126 -45t48 -116q0 -64 -48 -116h50v-36h-85l-86 -86h171v-36h-207l-17 -17q-26 -26 -36.5 -47t-10.5 -52q0 -49 33 -80.5t85 -31.5q73 0 116 52
l36 -36q-58 -67 -152 -67q-78 0 -126 45t-48 116q0 65 49 118h-51v36h87z" />
    <glyph glyph-name="afii61352" unicode="&#x2116;" horiz-adv-x="992" 
d="M84 0v700h41l449 -594v594h57v-700h-41l-449 594v-594h-57zM834 704q57 0 92.5 -35.5t35.5 -92.5t-35.5 -92.5t-92.5 -35.5q-56 0 -91.5 35.5t-35.5 92.5t35.5 92.5t91.5 35.5zM746 576q0 -42 24.5 -68t63.5 -26q40 0 64.5 26t24.5 68q0 41 -24.5 67.5t-64.5 26.5
q-39 0 -63.5 -26.5t-24.5 -67.5z" />
    <glyph glyph-name="trademark" unicode="&#x2122;" horiz-adv-x="686" 
d="M263 669h-100v-319h-38v319h-100v31h238v-31zM643 350h-38v274l-118 -194h-17l-118 194v-274h-37v350h28l135 -217l136 217h29v-350z" />
    <glyph glyph-name="arrowleft" unicode="&#x2190;" horiz-adv-x="1016" 
d="M449 33l-37 -37l-354 354l354 354l36 -37l-291 -291h774v-52h-774z" />
    <glyph glyph-name="arrowup" unicode="&#x2191;" horiz-adv-x="823" 
d="M438 -169h-52v774l-291 -292l-37 37l354 354l354 -354l-38 -36l-290 291v-774z" />
    <glyph glyph-name="arrowright" unicode="&#x2192;" horiz-adv-x="1016" 
d="M859 324h-774v52h774l-292 291l37 37l354 -354l-354 -354l-37 37z" />
    <glyph glyph-name="arrowdown" unicode="&#x2193;" horiz-adv-x="823" 
d="M766 181l-354 -354l-354 354l37 37l291 -292v774h52v-774l290 291z" />
    <glyph glyph-name="uni2196" unicode="&#x2196;" horiz-adv-x="779" 
d="M137 132h-52v500h500v-52h-412l548 -548l-37 -37l-547 548v-411z" />
    <glyph glyph-name="uni2197" unicode="&#x2197;" horiz-adv-x="779" 
d="M606 580h-412v52h500v-500h-52v411l-547 -548l-37 37z" />
    <glyph glyph-name="uni2198" unicode="&#x2198;" horiz-adv-x="779" 
d="M694 0h-500v52h412l-548 548l37 36l547 -548v412h52v-500z" />
    <glyph glyph-name="uni2199" unicode="&#x2199;" horiz-adv-x="779" 
d="M585 0h-500v500h52v-412l547 548l37 -36l-548 -548h412v-52z" />
    <glyph glyph-name="minus" unicode="&#x2212;" horiz-adv-x="440" 
d="M373 281h-306v45h306v-45z" />
    <glyph glyph-name="commaaccent" unicode="&#xf6c3;" 
d="M84 -204l-19 19q37 37 39 63q-32 5 -32 36q0 15 10.5 25.5t26.5 10.5q15 0 25 -12t10 -32q0 -52 -60 -110z" />
    <glyph glyph-name="NULL" horiz-adv-x="0" 
 />
    <glyph glyph-name="CR" horiz-adv-x="333" 
 />
    <glyph glyph-name="adieresis.alt" horiz-adv-x="539" 
d="M278 457q118 0 181 -68v-389h-55v38q-57 -45 -136 -45q-98 0 -159 64q-60 65 -60 168t63 168q63 64 166 64zM280 44q77 0 124 47v277q-50 38 -127 38t-125 -50q-47 -50 -47 -131t48.5 -131t126.5 -50zM330 573q-2 24 19 34.5t42 0t19 -34.5q2 -24 -19 -33.5t-42 0
t-19 33.5zM157 545q-11 11 -11 28t11 28q12 12 28 12t27 -12q12 -11 12 -28t-11 -28t-28 -11t-28 11z" />
    <glyph glyph-name="agrave.alt" horiz-adv-x="539" 
d="M278 457q118 0 181 -68v-389h-55v38q-57 -45 -136 -45q-98 0 -159 64q-60 65 -60 168t63 168q63 64 166 64zM280 44q77 0 124 47v277q-50 38 -127 38t-125 -50q-47 -50 -47 -131t48.5 -131t126.5 -50zM183 637l30 30l119 -119l-30 -30z" />
    <glyph glyph-name="amacron.alt" horiz-adv-x="539" 
d="M278 457q118 0 181 -68v-389h-55v38q-57 -45 -136 -45q-98 0 -159 64q-60 65 -60 168t63 168q63 64 166 64zM280 44q77 0 124 47v277q-50 38 -127 38t-125 -50q-47 -50 -47 -131t48.5 -131t126.5 -50zM396 549h-236v37h236v-37z" />
    <glyph glyph-name="aogonek.alt" horiz-adv-x="539" 
d="M425 -40q0 -29 15.5 -45t42.5 -16t42 16l23 -23q-24 -25 -65 -25q-40 0 -65 25t-25 67q0 24 11 41v38q-57 -45 -136 -45q-98 0 -159 64q-60 65 -60 168t63 168q63 64 166 64q118 0 181 -68v-389h-23q-11 -17 -11 -40zM280 44q77 0 124 47v277q-50 38 -127 38t-125 -50
q-47 -50 -47 -131t48.5 -131t126.5 -50z" />
    <glyph glyph-name="aring.alt" horiz-adv-x="539" 
d="M278 457q118 0 181 -68v-389h-55v38q-57 -45 -136 -45q-98 0 -159 64q-60 65 -60 168t63 168q63 64 166 64zM280 44q77 0 124 47v277q-50 38 -127 38t-125 -50q-47 -50 -47 -131t48.5 -131t126.5 -50zM279 689q39 0 62.5 -24.5t23.5 -64.5t-23.5 -64t-62.5 -24
q-38 0 -62 24t-24 64t24 64.5t62 24.5zM279 658q-25 0 -40.5 -16t-15.5 -42t15.5 -42t40.5 -16t40.5 16t15.5 42t-16 42t-40 16z" />
    <glyph glyph-name="atilde.alt" horiz-adv-x="539" 
d="M278 457q118 0 181 -68v-389h-55v38q-57 -45 -136 -45q-98 0 -159 64q-60 65 -60 168t63 168q63 64 166 64zM280 44q77 0 124 47v277q-50 38 -127 38t-125 -50q-47 -50 -47 -131t48.5 -131t126.5 -50zM181 545h-35q0 37 22 59.5t57 22.5q30 0 58 -26q28 -25 49 -25
q19 0 31.5 13t12.5 33h35q0 -36 -22 -58.5t-57 -22.5q-33 0 -59 25t-47 25q-20 0 -32.5 -12.5t-12.5 -33.5z" />
    <glyph glyph-name="g.alt" horiz-adv-x="539" 
d="M404 -39v73q-58 -41 -133 -41q-100 0 -161 64t-61 168q0 103 63 168q63 64 166 64q118 0 181 -68v-428q0 -99 -59 -158q-59 -60 -157 -60q-103 0 -168 68l35 34q49 -51 130 -51q75 0 119.5 45.5t44.5 121.5zM404 93v275q-50 38 -127 38t-125 -50q-47 -50 -47 -131
t48 -131t125 -50t126 49z" />
    <glyph glyph-name="gbreve.alt" horiz-adv-x="539" 
d="M404 -39v73q-58 -41 -133 -41q-100 0 -161 64t-61 168q0 103 63 168q63 64 166 64q118 0 181 -68v-428q0 -99 -59 -158q-59 -60 -157 -60q-103 0 -168 68l35 34q49 -51 130 -51q75 0 119.5 45.5t44.5 121.5zM404 93v275q-50 38 -127 38t-125 -50q-47 -50 -47 -131
t48 -131t125 -50t126 49zM277 577q62 0 104 44l31 -30q-56 -57 -135 -57q-78 0 -135 57l30 31q45 -45 105 -45z" />
    <glyph glyph-name="gcircumflex.alt" horiz-adv-x="539" 
d="M404 -39v73q-58 -41 -133 -41q-100 0 -161 64t-61 168q0 103 63 168q63 64 166 64q118 0 181 -68v-428q0 -99 -59 -158q-59 -60 -157 -60q-103 0 -168 68l35 34q49 -51 130 -51q75 0 119.5 45.5t44.5 121.5zM404 93v275q-50 38 -127 38t-125 -50q-47 -50 -47 -131
t48 -131t125 -50t126 49zM158 548l119 119l119 -119l-30 -30l-89 89l-89 -89z" />
    <glyph glyph-name="gcommaaccent.alt" horiz-adv-x="539" 
d="M404 -39v73q-58 -41 -133 -41q-100 0 -161 64t-61 168q0 103 63 168q63 64 166 64q118 0 181 -68v-428q0 -99 -59 -158q-59 -60 -157 -60q-103 0 -168 68l35 34q49 -51 130 -51q75 0 119.5 45.5t44.5 121.5zM404 93v275q-50 38 -127 38t-125 -50q-47 -50 -47 -131
t48 -131t125 -50t126 49zM299 675l19 -19q-38 -39 -39 -64q14 -2 23 -12t9 -23q0 -16 -10.5 -26t-26.5 -10q-35 0 -35 43q0 51 60 111z" />
    <glyph glyph-name="gdotaccent.alt" horiz-adv-x="539" 
d="M404 -39v73q-58 -41 -133 -41q-100 0 -161 64t-61 168q0 103 63 168q63 64 166 64q118 0 181 -68v-428q0 -99 -59 -158q-59 -60 -157 -60q-103 0 -168 68l35 34q49 -51 130 -51q75 0 119.5 45.5t44.5 121.5zM404 93v275q-50 38 -127 38t-125 -50q-47 -50 -47 -131
t48 -131t125 -50t126 49zM247 556q-12 12 -12 29t12 29t29 12t29 -12t12 -29t-12 -29t-29 -12t-29 12z" />
    <glyph glyph-name="afii10021.alt" horiz-adv-x="825" 
d="M731 -150v150h-637v-150h-54v199h60l285 651h55l285 -651h59v-199h-53zM660 49l-248 580l-247 -580h495z" />
    <glyph glyph-name="afii10029.alt" horiz-adv-x="744" 
d="M101 0h-67l310 700h55l311 -700h-67l-271 627z" />
    <glyph glyph-name="afii10058.alt" horiz-adv-x="992" 
d="M101 0h-67l310 700h55l141 -317h203q87 0 142 -53q54 -52 54 -138q0 -88 -54 -140q-53 -52 -142 -52h-100l-271 627zM743 332h-181l125 -282h56q62 0 99.5 39t37.5 103q0 63 -37.5 101.5t-99.5 38.5z" />
    <glyph glyph-name="afii10065.alt" horiz-adv-x="539" 
d="M278 457q118 0 181 -68v-389h-55v38q-57 -45 -136 -45q-98 0 -159 64q-60 65 -60 168t63 168q63 64 166 64zM280 44q77 0 124 47v277q-50 38 -127 38t-125 -50q-47 -50 -47 -131t48.5 -131t126.5 -50z" />
    <glyph glyph-name="afii10069.alt" horiz-adv-x="601" 
d="M509 46h51v-166h-52v120h-415v-120h-52v166h51l182 404h53zM449 46l-148 341l-149 -341h297z" />
    <glyph glyph-name="afii10077.alt" horiz-adv-x="529" 
d="M94 0h-62l206 450h53l206 -450h-61l-171 385z" />
    <glyph glyph-name="afii10106.alt" horiz-adv-x="703" 
d="M94 0h-62l206 450h53l90 -197h141q63 0 100 -34.5t37 -92.5q0 -57 -37 -91.5t-100 -34.5h-86l-171 385zM521 209h-120l76 -165h44q37 0 60 23t23 59q0 38 -23 60.5t-60 22.5z" />
    <glyph glyph-name="acircumflex.alt" horiz-adv-x="539" 
d="M159 548l119 119l119 -119l-30 -30l-89 89l-89 -89zM278 457q118 0 181 -68v-389h-55v38q-57 -45 -136 -45q-98 0 -159 64q-60 65 -60 168t63 168q63 64 166 64zM280 44q77 0 124 47v277q-50 38 -127 38t-125 -50q-47 -50 -47 -131t48.5 -131t126.5 -50z" />
    <glyph glyph-name="abreve.alt" horiz-adv-x="539" 
d="M278 457q118 0 181 -68v-389h-55v38q-57 -45 -136 -45q-98 0 -159 64q-60 65 -60 168t63 168q63 64 166 64zM280 44q77 0 124 47v277q-50 38 -127 38t-125 -50q-47 -50 -47 -131t48.5 -131t126.5 -50zM278 577q62 0 104 44l31 -30q-55 -57 -135 -57q-78 0 -135 57l30 31
q45 -45 105 -45z" />
    <glyph glyph-name="aacute.alt" horiz-adv-x="539" 
d="M278 457q118 0 181 -68v-389h-55v38q-57 -45 -136 -45q-98 0 -159 64q-60 65 -60 168t63 168q63 64 166 64zM280 44q77 0 124 47v277q-50 38 -127 38t-125 -50q-47 -50 -47 -131t48.5 -131t126.5 -50zM253 518l-30 30l119 119l30 -30z" />
    <glyph glyph-name="a.alt" horiz-adv-x="539" 
d="M278 457q118 0 181 -68v-389h-55v38q-57 -45 -136 -45q-98 0 -159 64q-60 65 -60 168t63 168q63 64 166 64zM280 44q77 0 124 47v277q-50 38 -127 38t-125 -50q-47 -50 -47 -131t48.5 -131t126.5 -50z" />
    <glyph glyph-name="zero.fitted" horiz-adv-x="530" 
d="M102 92q-62 100 -62 258t62 258q63 99 163 99q101 0 162 -99q63 -99 63 -258t-63 -258q-61 -99 -162 -99q-100 0 -163 99zM143 571q-46 -83 -46 -221q0 -137 46 -222q47 -84 122 -84t121 84q47 86 47 222t-47 221q-46 85 -121 85q-76 0 -122 -85z" />
    <glyph glyph-name="one.fitted" horiz-adv-x="530" 
d="M411 0h-291v46h118v604l-125 -22v45l180 31v-658h118v-46z" />
    <glyph glyph-name="germandbls.case" horiz-adv-x="589" 
d="M137 528v-528h-56v528q0 79 50 129q52 50 133 50t133 -50q51 -49 51 -127q0 -64 -36 -108t-96 -55q0 -38 23 -64t55 -40.5t64 -30t54.5 -44.5t22.5 -73q0 -51 -39 -86.5t-106 -35.5q-87 0 -141 57l34 35q39 -44 104 -44q44 0 68.5 22.5t24.5 52.5q0 54 -78 88l-39 18
t-36.5 21t-35 30t-21 39t-9.5 53v45q59 0 94.5 33t35.5 88q0 56 -35 90.5t-92 34.5q-56 0 -91.5 -36t-35.5 -92z" />
    <glyph glyph-name="at.case" horiz-adv-x="795" 
d="M638 124l28 -27q-95 -104 -266 -104q-156 0 -254 99q-97 98 -97 258t97 258q98 99 253 99q158 0 253 -95t95 -233q0 -102 -50 -152q-49 -48 -113 -48q-62 0 -84 36q-42 -36 -103 -36q-73 0 -118 47.5t-45 123.5q0 77 47 124t124 47q88 0 133 -50v-218q0 -33 53 -33
q48 0 79 39t31 116q0 125 -81 208t-220 83q-136 0 -222 -87q-84 -87 -84 -229q0 -143 84 -230q86 -86 224 -86q150 0 236 90zM406 220q54 0 88 31v204q-34 25 -90 25q-58 0 -91 -35t-33 -95t34 -95t92 -35z" />
    <glyph glyph-name="parenleft.case" horiz-adv-x="300" 
d="M243 757v-44q-50 0 -84 -103q-35 -103 -35 -261q0 -157 35 -260q35 -102 84 -102v-44q-75 0 -126 114q-50 115 -50 293t50 293q51 114 126 114z" />
    <glyph glyph-name="parenright.case" horiz-adv-x="300" 
d="M57 713v44q75 0 125 -114q51 -114 51 -293t-51 -293q-50 -114 -125 -114v44q49 0 84 102q35 103 35 261t-35 261q-35 102 -84 102z" />
    <glyph glyph-name="bracketleft.case" horiz-adv-x="297" 
d="M81 750h158v-46h-103v-708h103v-46h-158v800z" />
    <glyph glyph-name="bracketright.case" horiz-adv-x="297" 
d="M161 704h-104v46h159v-800h-159v46h104v708z" />
    <glyph glyph-name="braceleft.case" horiz-adv-x="322" 
d="M278 -13v-44q-62 0 -104 48q-41 49 -41 123v77q0 59 -26 97.5t-63 38.5v44q37 0 63 38.5t26 97.5v79q0 74 41 123q42 48 104 48v-44q-37 0 -63 -38.5t-26 -96.5v-78q0 -54 -22.5 -94t-62.5 -57q40 -17 62.5 -57t22.5 -94v-77q0 -57 26 -95.5t63 -38.5z" />
    <glyph glyph-name="braceright.case" horiz-adv-x="322" 
d="M44 -57v44q37 0 63 38.5t26 95.5v77q0 54 22.5 94t62.5 57q-40 17 -62.5 57t-22.5 94v78q0 58 -26 96.5t-63 38.5v44q62 0 103 -48q42 -48 42 -123v-79q0 -59 26 -97.5t63 -38.5v-44q-37 0 -63 -38.5t-26 -97.5v-77q0 -75 -42 -123q-41 -48 -103 -48z" />
    <glyph glyph-name="questiondown.case" horiz-adv-x="468" 
d="M389 103l37 -37q-74 -73 -188 -73q-92 0 -141 52q-48 53 -48 126q0 77 55 121q3 3 15 12.5t16.5 13t15 13t15 15.5t12.5 16t12 19.5t8.5 21.5t6 25.5t1.5 28.5v57h56v-57q0 -52 -16 -89.5t-39 -58.5t-46.5 -38.5t-39.5 -42t-16 -56.5q0 -54 35 -91t99 -37q42 0 83 16
t67 43zM263 695q12 -12 12 -29t-12 -29t-29 -12t-29 12t-12 29t12 29t29 12t29 -12z" />
    <glyph glyph-name="guillemotleft.case" horiz-adv-x="470" 
d="M240 211l-30 -30l-170 169l170 169l30 -30l-140 -139zM406 211l-30 -30l-169 169l169 169l30 -30l-139 -139z" />
    <glyph glyph-name="guillemotright.case" horiz-adv-x="470" 
d="M254 519l169 -169l-169 -169l-30 30l139 139l-139 139zM87 519l169 -169l-169 -169l-30 30l139 139l-139 139z" />
    <glyph glyph-name="guilsinglleft.case" horiz-adv-x="304" 
d="M240 211l-30 -30l-170 169l170 169l30 -30l-140 -139z" />
    <glyph glyph-name="guilsinglright.case" horiz-adv-x="304" 
d="M87 519l169 -169l-169 -169l-30 30l139 139l-139 139z" />
    <glyph glyph-name="hyphen.case" horiz-adv-x="340" 
d="M273 327h-206v46h206v-46z" />
    <glyph glyph-name="endash.case" horiz-adv-x="500" 
d="M433 327h-366v46h366v-46z" />
    <glyph glyph-name="emdash.case" horiz-adv-x="700" 
d="M633 327h-566v46h566v-46z" />
    <glyph glyph-name="bar.case" 
d="M136 -50h-55v800h55v-800z" />
    <glyph glyph-name="brokenbar.case" 
d="M136 -50h-55v350h55v-350zM81 750h55v-350h-55v350z" />
    <glyph glyph-name="asciitilde.case" horiz-adv-x="433" 
d="M80 302h-40q0 45 28.5 73t72.5 28q50 0 80 -34q31 -33 70 -33q27 0 44 17.5t17 45.5h40q0 -46 -28 -74t-73 -28q-8 0 -16.5 1.5t-14.5 3t-14 5.5t-12 6.5t-12.5 8.5t-11 8t-11.5 9.5t-10 8.5q-30 28 -71 12t-38 -58z" />
    <glyph glyph-name="dagger.case" horiz-adv-x="500" 
d="M222 487h-155v46h155v217h56v-217h155v-46h-155v-537h-56v537z" />
    <glyph glyph-name="daggerdbl.case" horiz-adv-x="500" 
d="M222 187h-155v46h155v254h-155v46h155v217h56v-217h155v-46h-155v-254h155v-46h-155v-237h-56v237z" />
    <glyph glyph-name="bullet.case" horiz-adv-x="259" 
d="M84 304q-18 19 -18 46t18 45q19 19 46 19t45 -19q19 -18 19 -45t-19 -46q-18 -18 -45 -18t-46 18z" />
    <glyph glyph-name="A.smcp" horiz-adv-x="581" 
d="M549 0h-62l-67 146h-259l-67 -146h-62l233 504h51zM400 194l-110 241l-109 -241h219z" />
    <glyph glyph-name="Aacute.smcp" horiz-adv-x="581" 
d="M549 0h-62l-67 146h-259l-67 -146h-62l233 504h51zM400 194l-110 241l-109 -241h219zM273 531l-28 27l93 90l27 -28z" />
    <glyph glyph-name="Abreve.smcp" horiz-adv-x="581" 
d="M549 0h-62l-67 146h-259l-67 -146h-62l233 504h51zM400 194l-110 241l-109 -241h219zM290 581q47 0 77 30l28 -27q-43 -43 -105 -43q-60 0 -104 43l27 27q32 -30 77 -30z" />
    <glyph glyph-name="Acircumflex.smcp" horiz-adv-x="581" 
d="M549 0h-62l-67 146h-259l-67 -146h-62l233 504h51zM400 194l-110 241l-109 -241h219zM198 558l92 90l93 -90l-27 -27l-66 63l-65 -63z" />
    <glyph glyph-name="Agrave.smcp" horiz-adv-x="581" 
d="M549 0h-62l-67 146h-259l-67 -146h-62l233 504h51zM400 194l-110 241l-109 -241h219zM215 620l28 28l92 -90l-27 -27z" />
    <glyph glyph-name="Adieresis.smcp" horiz-adv-x="581" 
d="M549 0h-62l-67 146h-259l-67 -146h-62l233 504h51zM400 194l-110 241l-109 -241h219zM196 550q-14 14 -7.5 32.5t23 23t32.5 -8.5t9 -31.5t-24 -24t-33 8.5zM360 608q21 0 29.5 -17t0 -34t-29.5 -17q-21 -1 -29.5 16.5t0 35t29.5 16.5z" />
    <glyph glyph-name="Amacron.smcp" horiz-adv-x="581" 
d="M549 0h-62l-67 146h-259l-67 -146h-62l233 504h51zM400 194l-110 241l-109 -241h219zM381 553h-181v34h181v-34z" />
    <glyph glyph-name="Aogonek.smcp" horiz-adv-x="581" 
d="M508 -28q0 -19 11.5 -30t29.5 -11q20 0 30 10l21 -19q-20 -19 -51 -19t-50 19t-19 50q0 20 7 28l-67 146h-259l-67 -146h-62l233 504h51l233 -504h-34q-7 -10 -7 -28zM400 194l-110 241l-109 -241h219z" />
    <glyph glyph-name="Aring.smcp" horiz-adv-x="581" 
d="M549 0h-62l-67 146h-259l-67 -146h-62l233 504h51zM400 194l-110 241l-109 -241h219zM290 655q30 0 48 -17.5t18 -46.5t-18 -47t-48 -18q-29 0 -47 18t-18 47t18 46.5t47 17.5zM251 591q0 -18 11 -28.5t28 -10.5q18 0 29 10.5t11 28.5q0 17 -11 28t-29 11q-17 0 -28 -11
t-11 -28z" />
    <glyph glyph-name="Atilde.smcp" horiz-adv-x="581" 
d="M549 0h-62l-67 146h-259l-67 -146h-62l233 504h51zM400 194l-110 241l-109 -241h219zM218 550h-31q0 28 18 45.5t45 17.5q24 0 45 -18q22 -17 35 -17q14 0 23 9t9 23h31q0 -28 -17.5 -45.5t-45.5 -17.5q-23 0 -45 17q-19 18 -35 18q-14 0 -23 -9t-9 -23z" />
    <glyph glyph-name="AE.smcp" horiz-adv-x="599" 
d="M550 459h-206v-182h181v-46h-181v-186h210v-45h-264v146h-129l-67 -146h-62l233 504h285v-45zM290 436l-109 -242h109v242z" />
    <glyph glyph-name="AEacute.smcp" horiz-adv-x="599" 
d="M550 459h-206v-182h181v-46h-181v-186h210v-45h-264v146h-129l-67 -146h-62l233 504h285v-45zM290 436l-109 -242h109v242zM299 531l-27 27l93 90l28 -28z" />
    <glyph glyph-name="B.smcp" horiz-adv-x="428" 
d="M230 0h-162v504h142q63 0 101 -35.5t38 -94.5q0 -76 -62 -109q42 -13 66.5 -46.5t24.5 -79.5q0 -63 -41 -101t-107 -38zM228 237h-105v-190h105q44 0 70.5 26t26.5 69t-26.5 69t-70.5 26zM296 370q0 40 -24.5 63.5t-64.5 23.5h-84v-174h84q40 0 64.5 24t24.5 63z" />
    <glyph glyph-name="C.smcp" horiz-adv-x="546" 
d="M315 44q97 0 154 57l35 -34q-72 -72 -192 -72q-117 0 -191 71q-73 70 -73 186t73 186q74 71 191 71q120 0 192 -72l-35 -35q-58 58 -154 58q-95 0 -153 -58q-59 -57 -59 -150q0 -92 59 -151q58 -57 153 -57z" />
    <glyph glyph-name="Cacute.smcp" horiz-adv-x="546" 
d="M315 44q97 0 154 57l35 -34q-72 -72 -192 -72q-117 0 -191 71q-73 70 -73 186t73 186q74 71 191 71q120 0 192 -72l-35 -35q-58 58 -154 58q-95 0 -153 -58q-59 -57 -59 -150q0 -92 59 -151q58 -57 153 -57zM278 535l-27 26l93 91l27 -27z" />
    <glyph glyph-name="Ccaron.smcp" horiz-adv-x="546" 
d="M315 44q97 0 154 57l35 -34q-72 -72 -192 -72q-117 0 -191 71q-73 70 -73 186t73 186q74 71 191 71q120 0 192 -72l-35 -35q-58 58 -154 58q-95 0 -153 -58q-59 -57 -59 -150q0 -92 59 -151q58 -57 153 -57zM388 620l-93 -89l-93 89l28 28l65 -63l66 63z" />
    <glyph glyph-name="Ccedilla.smcp" horiz-adv-x="546" 
d="M315 44q97 0 154 57l35 -34q-68 -68 -181 -72v-37q49 -10 49 -55q2 -25 -17 -42t-43.5 -16t-45.5 18l18 18q13 -10 27 -10q16 0 26 9t10 24q0 33 -48 33v58q-114 5 -182 74q-69 71 -69 183q0 116 73 186q74 71 191 71q120 0 192 -72l-35 -35q-58 58 -154 58
q-95 0 -153 -58q-59 -57 -59 -150q0 -92 59 -151q58 -57 153 -57z" />
    <glyph glyph-name="Ccircumflex.smcp" horiz-adv-x="546" 
d="M315 44q97 0 154 57l35 -34q-72 -72 -192 -72q-117 0 -191 71q-73 70 -73 186t73 186q74 71 191 71q120 0 192 -72l-35 -35q-58 58 -154 58q-95 0 -153 -58q-59 -57 -59 -150q0 -92 59 -151q58 -57 153 -57zM204 558l93 90l93 -90l-28 -27l-65 63l-66 -63z" />
    <glyph glyph-name="Cdotaccent.smcp" horiz-adv-x="546" 
d="M315 44q97 0 154 57l35 -34q-72 -72 -192 -72q-117 0 -191 71q-73 70 -73 186t73 186q74 71 191 71q120 0 192 -72l-35 -35q-58 58 -154 58q-95 0 -153 -58q-59 -57 -59 -150q0 -92 59 -151q58 -57 153 -57zM261 583q-1 21 17.5 30t37 0t16.5 -30q0 -14 -10 -24.5
t-25 -10.5t-25.5 10.5t-10.5 24.5z" />
    <glyph glyph-name="D.smcp" horiz-adv-x="539" 
d="M227 0h-159v504h159q117 0 191 -69q73 -69 73 -183t-73 -183q-74 -69 -191 -69zM227 457h-104v-410h104q92 0 150 56q58 55 58 149t-58 149q-58 56 -150 56z" />
    <glyph glyph-name="Dcaron.smcp" horiz-adv-x="539" 
d="M227 0h-159v504h159q117 0 191 -69q73 -69 73 -183t-73 -183q-74 -69 -191 -69zM227 457h-104v-410h104q92 0 150 56q58 55 58 149t-58 149q-58 56 -150 56zM355 620l-93 -89l-93 89l27 28l66 -63l65 63z" />
    <glyph glyph-name="Dcroat.smcp" horiz-adv-x="552" 
d="M87 231h-42v42h42v231h152q119 0 191 -69q73 -69 73 -183t-73 -183q-72 -69 -191 -69h-152v231zM239 457h-96v-184h122v-42h-122v-184h96q92 0 150 56q58 55 58 149t-58 149q-58 56 -150 56z" />
    <glyph glyph-name="Eth.smcp" horiz-adv-x="552" 
d="M87 231h-42v42h42v231h152q119 0 191 -69q73 -69 73 -183t-73 -183q-72 -69 -191 -69h-152v231zM239 457h-96v-184h122v-42h-122v-184h96q92 0 150 56q58 55 58 149t-58 149q-58 56 -150 56z" />
    <glyph glyph-name="Thorn.smcp" horiz-adv-x="408" 
d="M123 0h-55v504h55v-105h86q68 0 109.5 -38.5t41.5 -102.5q0 -63 -41.5 -101.5t-109.5 -38.5h-86v-118zM209 352h-86v-188h86q43 0 69.5 25.5t26.5 68.5t-26.5 68.5t-69.5 25.5z" />
    <glyph glyph-name="E.smcp" horiz-adv-x="395" 
d="M345 459h-223v-182h198v-46h-198v-186h226v-45h-280v504h277v-45z" />
    <glyph glyph-name="Eacute.smcp" horiz-adv-x="395" 
d="M345 459h-223v-182h198v-46h-198v-186h226v-45h-280v504h277v-45zM189 531l-26 27l92 90l28 -28z" />
    <glyph glyph-name="Ebreve.smcp" horiz-adv-x="395" 
d="M345 459h-223v-182h198v-46h-198v-186h226v-45h-280v504h277v-45zM285 611l27 -27q-43 -43 -105 -43q-61 0 -104 43l27 27q32 -30 77 -30t78 30z" />
    <glyph glyph-name="Ecaron.smcp" horiz-adv-x="395" 
d="M345 459h-223v-182h198v-46h-198v-186h226v-45h-280v504h277v-45zM300 620l-93 -89l-93 89l28 28l65 -63l66 63z" />
    <glyph glyph-name="Ecircumflex.smcp" horiz-adv-x="395" 
d="M345 459h-223v-182h198v-46h-198v-186h226v-45h-280v504h277v-45zM114 558l93 90l93 -90l-27 -27l-66 63l-65 -63z" />
    <glyph glyph-name="Edieresis.smcp" horiz-adv-x="395" 
d="M345 459h-223v-182h198v-46h-198v-186h226v-45h-280v504h277v-45zM113 550q-15 15 -8.5 33t23.5 22.5t33 -8.5t9 -31.5t-24 -24t-33 8.5zM253 550q-14 14 -7.5 33t23 24t32.5 -9q23 -23 -1 -47t-47 -1z" />
    <glyph glyph-name="Edotaccent.smcp" horiz-adv-x="395" 
d="M345 459h-223v-182h198v-46h-198v-186h226v-45h-280v504h277v-45zM172 583q-2 21 16.5 30t37 0t17.5 -30q0 -14 -10.5 -24.5t-25.5 -10.5t-25 10.5t-10 24.5z" />
    <glyph glyph-name="Egrave.smcp" horiz-adv-x="395" 
d="M345 459h-223v-182h198v-46h-198v-186h226v-45h-280v504h277v-45zM133 620l26 28l94 -90l-28 -27z" />
    <glyph glyph-name="Emacron.smcp" horiz-adv-x="395" 
d="M345 459h-223v-182h198v-46h-198v-186h226v-45h-280v504h277v-45zM298 553h-182v34h182v-34z" />
    <glyph glyph-name="Eogonek.smcp" horiz-adv-x="395" 
d="M264 -28q0 -19 11.5 -30t30.5 -11q20 0 30 10l20 -19q-19 -19 -50 -19t-50.5 19t-19.5 50q0 14 8 28h-176v504h277v-45h-223v-182h198v-46h-198v-186h226v-45h-76q-8 -11 -8 -28z" />
    <glyph glyph-name="F.smcp" horiz-adv-x="374" 
d="M333 459h-211v-182h185v-46h-185v-231h-54v504h265v-45z" />
    <glyph glyph-name="G.smcp" horiz-adv-x="573" 
d="M450 221h-138v45h192v-199q-72 -72 -192 -72q-117 0 -191 71q-73 70 -73 186t73 186q74 71 191 71q120 0 192 -72l-35 -35q-58 58 -154 58q-95 0 -153 -58q-59 -57 -59 -150q0 -92 59 -151q58 -57 153 -57q83 0 135 42v135z" />
    <glyph glyph-name="Gbreve.smcp" horiz-adv-x="573" 
d="M450 221h-138v45h192v-199q-72 -72 -192 -72q-117 0 -191 71q-73 70 -73 186t73 186q74 71 191 71q120 0 192 -72l-35 -35q-58 58 -154 58q-95 0 -153 -58q-59 -57 -59 -150q0 -92 59 -151q58 -57 153 -57q83 0 135 42v135zM388 611l27 -27q-43 -43 -104 -43t-105 43
l28 27q32 -30 77 -30t77 30z" />
    <glyph glyph-name="Gcircumflex.smcp" horiz-adv-x="573" 
d="M450 221h-138v45h192v-199q-72 -72 -192 -72q-117 0 -191 71q-73 70 -73 186t73 186q74 71 191 71q120 0 192 -72l-35 -35q-58 58 -154 58q-95 0 -153 -58q-59 -57 -59 -150q0 -92 59 -151q58 -57 153 -57q83 0 135 42v135zM218 558l93 90l93 -90l-27 -27l-66 63l-65 -63
z" />
    <glyph glyph-name="Gcommaaccent.smcp" horiz-adv-x="573" 
d="M450 221h-138v45h192v-199q-72 -72 -192 -72q-117 0 -191 71q-73 70 -73 186t73 186q74 71 191 71q120 0 192 -72l-35 -35q-58 58 -154 58q-95 0 -153 -58q-59 -57 -59 -150q0 -92 59 -151q58 -57 153 -57q83 0 135 42v135zM288 -156l-16 16q29 29 30 47q-11 1 -18.5 9
t-7.5 19q0 13 9 21.5t22 8.5q30 0 30 -34q0 -41 -49 -87z" />
    <glyph glyph-name="Gdotaccent.smcp" horiz-adv-x="573" 
d="M450 221h-138v45h192v-199q-72 -72 -192 -72q-117 0 -191 71q-73 70 -73 186t73 186q74 71 191 71q120 0 192 -72l-35 -35q-58 58 -154 58q-95 0 -153 -58q-59 -57 -59 -150q0 -92 59 -151q58 -57 153 -57q83 0 135 42v135zM276 583q-2 21 16.5 30t37 0t17.5 -30
q0 -14 -10.5 -24.5t-25.5 -10.5t-25 10.5t-10 24.5z" />
    <glyph glyph-name="H.smcp" horiz-adv-x="539" 
d="M68 504h54v-227h294v227h54v-504h-54v231h-294v-231h-54v504z" />
    <glyph glyph-name="Hbar.smcp" horiz-adv-x="545" 
d="M140 0h-53v367h-46v42h46v95h53v-95h262v95h53v-95h49v-42h-49v-367h-53v231h-262v-231zM140 367v-90h262v90h-262z" />
    <glyph glyph-name="Hcircumflex.smcp" horiz-adv-x="539" 
d="M68 504h54v-227h294v227h54v-504h-54v231h-294v-231h-54v504zM176 558l93 90l93 -90l-27 -27l-66 63l-65 -63z" />
    <glyph glyph-name="I.smcp" horiz-adv-x="185" 
d="M119 0h-53v504h53v-504z" />
    <glyph glyph-name="Iacute.smcp" horiz-adv-x="185" 
d="M119 0h-53v504h53v-504zM75 531l-27 27l93 90l27 -28z" />
    <glyph glyph-name="Ibreve.smcp" horiz-adv-x="186" 
d="M120 0h-54v504h54v-504zM94 581q44 0 77 30l27 -27q-43 -43 -104 -43t-105 43l27 27q32 -30 78 -30z" />
    <glyph glyph-name="Icircumflex.smcp" horiz-adv-x="186" 
d="M119 0h-53v504h53v-504zM0 558l93 90l93 -90l-27 -27l-66 63l-66 -63z" />
    <glyph glyph-name="Idieresis.smcp" horiz-adv-x="186" 
d="M119 0h-53v504h53v-504zM35 607q21 1 29.5 -16t0 -34.5t-29.5 -16.5q-21 0 -29.5 17t0 33.5t29.5 16.5zM127 550q-14 14 -7.5 33t23 24t32.5 -9q23 -23 -1 -47t-47 -1z" />
    <glyph glyph-name="Idotaccent.smcp" horiz-adv-x="186" 
d="M119 0h-53v504h53v-504zM57 583q-1 21 17.5 30t37 0t16.5 -30q0 -14 -10 -24.5t-25 -10.5t-25.5 10.5t-10.5 24.5z" />
    <glyph glyph-name="Igrave.smcp" horiz-adv-x="185" 
d="M119 0h-53v504h53v-504zM18 620l27 28l93 -90l-27 -27z" />
    <glyph glyph-name="Imacron.smcp" horiz-adv-x="186" 
d="M120 0h-53v504h53v-504zM184 553h-182v34h182v-34z" />
    <glyph glyph-name="Iogonek.smcp" horiz-adv-x="186" 
d="M119 0h-53v504h53v-504zM86 -28q0 -19 11.5 -30t30.5 -11q20 0 30 10l20 -19q-19 -19 -50 -19t-50.5 19t-19.5 50q0 17 8 28h28q-8 -11 -8 -28z" />
    <glyph glyph-name="Itilde.smcp" horiz-adv-x="185" 
d="M119 0h-53v504h53v-504zM21 550h-30q0 28 17.5 45.5t44.5 17.5q23 0 44 -18q22 -17 36 -17t23 9t9 23h31q0 -28 -17.5 -45.5t-45.5 -17.5q-23 0 -45 17q-19 18 -35 18q-14 0 -23 -9t-9 -23z" />
    <glyph glyph-name="IJ.smcp" horiz-adv-x="398" 
d="M122 180h-54v324h54v-324zM278 137v367h54v-367q0 -64 -40.5 -103t-105.5 -39q-67 0 -107 40l35 35q24 -26 69 -26q43 0 69 25.5t26 67.5z" />
    <glyph glyph-name="J.smcp" horiz-adv-x="360" 
d="M240 137v367h54v-367q0 -64 -41 -103t-106 -39t-106 40l35 35q24 -26 69 -26q42 0 68.5 25.5t26.5 67.5z" />
    <glyph glyph-name="Jcircumflex.smcp" horiz-adv-x="359" 
d="M240 137v367h54v-367q0 -64 -41 -103t-106 -39t-106 40l35 35q24 -26 69 -26q42 0 68.5 25.5t26.5 67.5zM173 558l94 90l92 -90l-27 -27l-65 63l-66 -63z" />
    <glyph glyph-name="K.smcp" horiz-adv-x="465" 
d="M119 0h-53v504h53v-504zM431 0h-69l-234 259l219 245h67l-218 -245z" />
    <glyph glyph-name="Kcommaaccent.smcp" horiz-adv-x="465" 
d="M119 0h-53v504h53v-504zM431 0h-69l-234 259l219 245h67l-218 -245zM216 -156l-16 16q25 24 30 47q-11 1 -18.5 9t-7.5 19q0 13 9 21.5t22 8.5t21.5 -9t8.5 -25q0 -41 -49 -87z" />
    <glyph glyph-name="L.smcp" horiz-adv-x="369" 
d="M68 504h54v-459h207v-45h-261v504z" />
    <glyph glyph-name="Lacute.smcp" horiz-adv-x="369" 
d="M68 504h54v-459h207v-45h-261v504zM152 531l-28 27l94 90l27 -28z" />
    <glyph glyph-name="Lcaron.smcp" horiz-adv-x="369" 
d="M68 504h54v-459h207v-45h-261v504zM188 620l-93 -89l-93 89l28 28l65 -63l66 63z" />
    <glyph glyph-name="Lcommaaccent.smcp" horiz-adv-x="369" 
d="M68 504h54v-459h207v-45h-261v504zM180 -156l-16 16q25 24 30 47q-11 1 -18.5 9t-7.5 19q0 13 9 21.5t22 8.5t21.5 -9t8.5 -25q0 -41 -49 -87z" />
    <glyph glyph-name="Ldot.smcp" horiz-adv-x="370" 
d="M68 504h54v-459h207v-45h-261v504zM247 209q-10 10 -10 25t10 25q11 10 26 10t25 -10t10 -25t-10 -25t-25 -10t-26 10z" />
    <glyph glyph-name="Lslash.smcp" horiz-adv-x="389" 
d="M46 141l-28 27l70 68v268h54v-226l67 65l28 -28l-95 -91v-179h206v-45h-260v182z" />
    <glyph glyph-name="M.smcp" horiz-adv-x="627" 
d="M559 0h-53v393l-180 -277h-25l-179 277v-393h-54v504h41l205 -313l204 313h41v-504z" />
    <glyph glyph-name="N.smcp" horiz-adv-x="555" 
d="M68 0v504h37l328 -402v402h54v-504h-37l-328 402v-402h-54z" />
    <glyph glyph-name="Nacute.smcp" horiz-adv-x="555" 
d="M68 0v504h37l328 -402v402h54v-504h-37l-328 402v-402h-54zM260 531l-28 27l93 90l28 -28z" />
    <glyph glyph-name="Ncaron.smcp" horiz-adv-x="555" 
d="M68 0v504h37l328 -402v402h54v-504h-37l-328 402v-402h-54zM370 620l-93 -89l-92 89l27 28l65 -63l66 63z" />
    <glyph glyph-name="Ncommaaccent.smcp" horiz-adv-x="555" 
d="M68 0v504h37l328 -402v402h54v-504h-37l-328 402v-402h-54zM261 -156l-16 16q27 25 31 47q-12 1 -19.5 9t-7.5 19q0 13 9 21.5t22 8.5q30 0 30 -34q0 -41 -49 -87z" />
    <glyph glyph-name="Ntilde.smcp" horiz-adv-x="555" 
d="M68 0v504h37l328 -402v402h54v-504h-37l-328 402v-402h-54zM205 550h-30q0 28 17.5 45.5t43.5 17.5q24 0 45 -18q22 -17 36 -17t23 9t9 23h31q0 -28 -17.5 -45.5t-45.5 -17.5q-23 0 -45 17q-20 18 -35 18q-14 0 -23 -9t-9 -23z" />
    <glyph glyph-name="Eng.smcp" horiz-adv-x="555" 
d="M391 -180v34q19 0 30.5 10.5t11.5 28.5v127l-311 382v-402h-54v504h37l328 -402v402h54v-612q0 -35 -19.5 -55t-52.5 -20q-17 0 -24 3z" />
    <glyph glyph-name="O.smcp" horiz-adv-x="624" 
d="M121 66q-73 70 -73 186t73 186q74 71 191 71t191 -71q73 -70 73 -186t-73 -186q-74 -71 -191 -71t-191 71zM161 402q-58 -57 -58 -150t58 -151q59 -57 151 -57q93 0 150 57q58 58 58 151t-58 150q-57 58 -150 58t-151 -58z" />
    <glyph glyph-name="Oacute.smcp" horiz-adv-x="624" 
d="M121 66q-73 70 -73 186t73 186q74 71 191 71t191 -71q73 -70 73 -186t-73 -186q-74 -71 -191 -71t-191 71zM161 402q-58 -57 -58 -150t58 -151q59 -57 151 -57q93 0 150 57q58 58 58 151t-58 150q-57 58 -150 58t-151 -58zM294 531l-27 27l93 90l27 -28z" />
    <glyph glyph-name="Obreve.smcp" horiz-adv-x="624" 
d="M121 66q-73 70 -73 186t73 186q74 71 191 71t191 -71q73 -70 73 -186t-73 -186q-74 -71 -191 -71t-191 71zM161 402q-58 -57 -58 -150t58 -151q59 -57 151 -57q93 0 150 57q58 58 58 151t-58 150q-57 58 -150 58t-151 -58zM389 611l28 -27q-43 -43 -105 -43
q-61 0 -104 43l27 27q32 -30 77 -30t77 30z" />
    <glyph glyph-name="Ocircumflex.smcp" horiz-adv-x="624" 
d="M121 66q-73 70 -73 186t73 186q74 71 191 71t191 -71q73 -70 73 -186t-73 -186q-74 -71 -191 -71t-191 71zM161 402q-58 -57 -58 -150t58 -151q59 -57 151 -57q93 0 150 57q58 58 58 151t-58 150q-57 58 -150 58t-151 -58zM219 558l93 90l93 -90l-27 -27l-66 63l-65 -63z
" />
    <glyph glyph-name="Odieresis.smcp" horiz-adv-x="624" 
d="M121 66q-73 70 -73 186t73 186q74 71 191 71t191 -71q73 -70 73 -186t-73 -186q-74 -71 -191 -71t-191 71zM161 402q-58 -57 -58 -150t58 -151q59 -57 151 -57q93 0 150 57q58 58 58 151t-58 150q-57 58 -150 58t-151 -58zM218 550q-15 15 -8.5 33t23.5 22.5t33 -8.5
t9 -31.5t-24 -24t-33 8.5zM358 550q-23 23 1 47t47 1t-1 -47t-47 -1z" />
    <glyph glyph-name="Ograve.smcp" horiz-adv-x="624" 
d="M121 66q-73 70 -73 186t73 186q74 71 191 71t191 -71q73 -70 73 -186t-73 -186q-74 -71 -191 -71t-191 71zM161 402q-58 -57 -58 -150t58 -151q59 -57 151 -57q93 0 150 57q58 58 58 151t-58 150q-57 58 -150 58t-151 -58zM237 620l27 28l93 -90l-27 -27z" />
    <glyph glyph-name="Ohungarumlaut.smcp" horiz-adv-x="624" 
d="M121 66q-73 70 -73 186t73 186q74 71 191 71t191 -71q73 -70 73 -186t-73 -186q-74 -71 -191 -71t-191 71zM161 402q-58 -57 -58 -150t58 -151q59 -57 151 -57q93 0 150 57q58 58 58 151t-58 150q-57 58 -150 58t-151 -58zM239 531l-27 27l92 90l28 -28zM350 531l-28 27
l93 90l28 -28z" />
    <glyph glyph-name="Omacron.smcp" horiz-adv-x="624" 
d="M121 66q-73 70 -73 186t73 186q74 71 191 71t191 -71q73 -70 73 -186t-73 -186q-74 -71 -191 -71t-191 71zM161 402q-58 -57 -58 -150t58 -151q59 -57 151 -57q93 0 150 57q58 58 58 151t-58 150q-57 58 -150 58t-151 -58zM403 553h-182v34h182v-34z" />
    <glyph glyph-name="Oslash.smcp" horiz-adv-x="624" 
d="M108 -5h-57l67 74q-70 70 -70 183q0 116 73 186q74 71 191 71q94 0 162 -48l43 48h56l-67 -74q70 -71 70 -183q0 -116 -73 -186q-74 -71 -191 -71q-94 0 -162 47zM103 252q0 -86 51 -143l285 313q-55 38 -127 38q-93 0 -151 -58q-58 -57 -58 -150zM520 252q0 87 -50 143
l-284 -314q52 -37 126 -37q93 0 150 57q58 58 58 151z" />
    <glyph glyph-name="Oslashacute.smcp" horiz-adv-x="624" 
d="M108 -5h-57l67 74q-70 70 -70 183q0 116 73 186q74 71 191 71q94 0 162 -48l43 48h56l-67 -74q70 -71 70 -183q0 -116 -73 -186q-74 -71 -191 -71q-94 0 -162 47zM103 252q0 -86 51 -143l285 313q-55 38 -127 38q-93 0 -151 -58q-58 -57 -58 -150zM520 252q0 87 -50 143
l-284 -314q52 -37 126 -37q93 0 150 57q58 58 58 151zM294 531l-27 27l93 90l27 -28z" />
    <glyph glyph-name="Otilde.smcp" horiz-adv-x="624" 
d="M121 66q-73 70 -73 186t73 186q74 71 191 71t191 -71q73 -70 73 -186t-73 -186q-74 -71 -191 -71t-191 71zM161 402q-58 -57 -58 -150t58 -151q59 -57 151 -57q93 0 150 57q58 58 58 151t-58 150q-57 58 -150 58t-151 -58zM240 550h-31q0 28 17.5 45.5t44.5 17.5
q23 0 44 -18q23 -17 37 -17t23 9t9 23h31q0 -28 -17.5 -45.5t-45.5 -17.5q-23 0 -45 17q-19 18 -35 18q-14 0 -23 -9t-9 -23z" />
    <glyph glyph-name="OE.smcp" horiz-adv-x="675" 
d="M627 459h-205v-182h180v-46h-180v-186h208v-45h-259q-35 -5 -59 -5q-117 0 -191 71q-73 70 -73 186t73 186q74 71 191 71q23 0 58 -5h257v-45zM312 44q34 0 56 7v402q-22 7 -56 7q-93 0 -151 -58q-58 -57 -58 -150t58 -151q59 -57 151 -57z" />
    <glyph glyph-name="P.smcp" horiz-adv-x="408" 
d="M123 0h-55v504h141q68 0 109.5 -38.5t41.5 -102.5t-41.5 -102.5t-109.5 -38.5h-86v-222zM209 457h-86v-187h86q43 0 69.5 25.5t26.5 67.5t-26.5 68t-69.5 26z" />
    <glyph glyph-name="Q.smcp" horiz-adv-x="624" 
d="M585 16l-34 -34l-70 66q-70 -53 -169 -53q-117 0 -191 71q-73 70 -73 186t73 186q74 71 191 71t191 -71q73 -70 73 -186q0 -100 -60 -170zM312 44q85 0 133 39l-87 83l35 35l83 -79q44 53 44 130q0 93 -58 150q-58 58 -150 58q-93 0 -151 -58q-58 -57 -58 -150t58 -151
q59 -57 151 -57z" />
    <glyph glyph-name="R.smcp" horiz-adv-x="419" 
d="M386 0h-61l-125 222h-77v-222h-55v504h146q69 0 110.5 -38.5t41.5 -102.5q0 -53 -30 -90t-82 -48zM214 457h-91v-187h91q43 0 69.5 25.5t26.5 67.5t-26.5 68t-69.5 26z" />
    <glyph glyph-name="Racute.smcp" horiz-adv-x="419" 
d="M386 0h-61l-125 222h-77v-222h-55v504h146q69 0 110.5 -38.5t41.5 -102.5q0 -53 -30 -90t-82 -48zM214 457h-91v-187h91q43 0 69.5 25.5t26.5 67.5t-26.5 68t-69.5 26zM188 531l-27 27l93 90l28 -28z" />
    <glyph glyph-name="Rcaron.smcp" horiz-adv-x="419" 
d="M386 0h-61l-125 222h-77v-222h-55v504h146q69 0 110.5 -38.5t41.5 -102.5q0 -53 -30 -90t-82 -48zM214 457h-91v-187h91q43 0 69.5 25.5t26.5 67.5t-26.5 68t-69.5 26zM299 620l-93 -89l-93 89l28 28l65 -63l66 63z" />
    <glyph glyph-name="Rcommaaccent.smcp" horiz-adv-x="419" 
d="M386 0h-61l-125 222h-77v-222h-55v504h146q69 0 110.5 -38.5t41.5 -102.5q0 -53 -30 -90t-82 -48zM214 457h-91v-187h91q43 0 69.5 25.5t26.5 67.5t-26.5 68t-69.5 26zM193 -156l-16 16q27 25 31 47q-12 1 -19.5 9t-7.5 19q0 13 9 21.5t22 8.5q30 0 30 -34q0 -42 -49 -87
z" />
    <glyph glyph-name="S.smcp" horiz-adv-x="416" 
d="M349 450l-34 -34q-44 44 -112 44q-45 0 -69.5 -25t-24.5 -60q0 -32 26.5 -53.5t63.5 -35t74.5 -29t64 -45t26.5 -73.5q0 -58 -41 -102q-41 -42 -119 -42q-98 0 -163 66l34 34q48 -51 124 -51q52 0 81 27.5t29 66.5q0 55 -91 85q-33 12 -46 16.5t-41.5 19t-41.5 28
t-24.5 36.5t-11.5 51q0 59 38 97t107 38q92 0 151 -59z" />
    <glyph glyph-name="Sacute.smcp" horiz-adv-x="416" 
d="M349 450l-34 -34q-44 44 -112 44q-45 0 -69.5 -25t-24.5 -60q0 -32 26.5 -53.5t63.5 -35t74.5 -29t64 -45t26.5 -73.5q0 -58 -41 -102q-41 -42 -119 -42q-98 0 -163 66l34 34q48 -51 124 -51q52 0 81 27.5t29 66.5q0 55 -91 85q-33 12 -46 16.5t-41.5 19t-41.5 28
t-24.5 36.5t-11.5 51q0 59 38 97t107 38q92 0 151 -59zM181 531l-28 27l93 90l27 -28z" />
    <glyph glyph-name="Scaron.smcp" horiz-adv-x="416" 
d="M349 450l-34 -34q-44 44 -112 44q-45 0 -69.5 -25t-24.5 -60q0 -32 26.5 -53.5t63.5 -35t74.5 -29t64 -45t26.5 -73.5q0 -58 -41 -102q-41 -42 -119 -42q-98 0 -163 66l34 34q48 -51 124 -51q52 0 81 27.5t29 66.5q0 55 -91 85q-33 12 -46 16.5t-41.5 19t-41.5 28
t-24.5 36.5t-11.5 51q0 59 38 97t107 38q92 0 151 -59zM292 620l-94 -89l-93 89l28 28l65 -63l66 63z" />
    <glyph glyph-name="Scedilla.smcp" horiz-adv-x="416" 
d="M349 450l-34 -34q-44 44 -112 44q-45 0 -69.5 -25t-24.5 -60q0 -32 26.5 -53.5t63.5 -35t74.5 -29t64 -45t26.5 -73.5q0 -59 -39.5 -99.5t-108.5 -43.5v-38q49 -10 49 -55q0 -26 -17 -42t-45 -16q-26 0 -44 18l18 18q11 -10 26 -10q16 0 26 9t10 24q0 33 -48 33v58
q-90 5 -150 66l34 34q48 -51 124 -51q52 0 81 27.5t29 66.5q0 55 -91 85q-33 12 -46 16.5t-41.5 19t-41.5 28t-24.5 36.5t-11.5 51q0 59 38 97t107 38q92 0 151 -59z" />
    <glyph glyph-name="Scircumflex.smcp" horiz-adv-x="416" 
d="M349 450l-34 -34q-44 44 -112 44q-45 0 -69.5 -25t-24.5 -60q0 -32 26.5 -53.5t63.5 -35t74.5 -29t64 -45t26.5 -73.5q0 -58 -41 -102q-41 -42 -119 -42q-98 0 -163 66l34 34q48 -51 124 -51q52 0 81 27.5t29 66.5q0 55 -91 85q-33 12 -46 16.5t-41.5 19t-41.5 28
t-24.5 36.5t-11.5 51q0 59 38 97t107 38q92 0 151 -59zM105 558l93 90l94 -90l-28 -27l-66 63l-65 -63z" />
    <glyph glyph-name="Scommaaccent.smcp" horiz-adv-x="416" 
d="M349 450l-34 -34q-44 44 -112 44q-45 0 -69.5 -25t-24.5 -60q0 -32 26.5 -53.5t63.5 -35t74.5 -29t64 -45t26.5 -73.5q0 -58 -41 -102q-41 -42 -119 -42q-98 0 -163 66l34 34q48 -51 124 -51q52 0 81 27.5t29 66.5q0 55 -91 85q-33 12 -46 16.5t-41.5 19t-41.5 28
t-24.5 36.5t-11.5 51q0 59 38 97t107 38q92 0 151 -59zM188 -156l-16 16q25 24 30 47q-11 1 -18.5 9t-7.5 19q0 13 9 21.5t22 8.5q30 0 30 -34q0 -41 -49 -87z" />
    <glyph glyph-name="T.smcp" horiz-adv-x="438" 
d="M398 459h-152v-459h-54v459h-151v45h357v-45z" />
    <glyph glyph-name="Tbar.smcp" horiz-adv-x="438" 
d="M192 245h-109v43h109v171h-151v45h357v-45h-152v-171h110v-43h-110v-245h-54v245z" />
    <glyph glyph-name="two.fitted" horiz-adv-x="530" 
d="M62 0v53l309 306q44 44 44 129q0 74 -42.5 121t-110.5 47q-66 0 -110 -47q-42 -47 -42 -121h-57q0 97 58 158t151 61q94 0 152 -61q58 -59 58 -158q0 -103 -64 -167l-275 -272h339v-49h-410z" />
    <glyph glyph-name="three.fitted" horiz-adv-x="530" 
d="M263 358h-46v48h46q55 0 90 35t35 90t-35 90t-90 35t-89.5 -35t-34.5 -90h-57q0 77 50 127q50 49 131 49t131 -49t50 -127q0 -51 -24.5 -90t-66.5 -58q58 -20 91.5 -68.5t33.5 -114.5q0 -92 -60 -150q-58 -57 -155 -57q-95 0 -155 57q-59 59 -59 150h56q0 -69 44 -112.5
t114 -43.5t114 43.5t44 112.5q0 70 -44 114t-114 44z" />
    <glyph glyph-name="four.fitted" horiz-adv-x="530" 
d="M415 0h-55v140h-321v32l317 528h57v-511h65v-49h-63v-140zM361 615l-253 -426h253v426z" />
    <glyph glyph-name="five.fitted" horiz-adv-x="530" 
d="M472 212q0 -98 -58 -159q-58 -60 -152 -60q-92 0 -151 56q-58 57 -58 147h55q0 -67 43 -110q43 -42 111 -42t110.5 47t42.5 121q0 82 -47.5 132.5t-123.5 50.5q-80 0 -127 -46l-40 19l46 332h298v-49h-249l-35 -234q43 28 110 28q101 0 163 -65t62 -168z" />
    <glyph glyph-name="six.fitted" horiz-adv-x="530" 
d="M240 621l56 86l47 -28q-103 -154 -173 -276q41 25 96 25q97 0 157 -60q60 -58 60 -157q0 -97 -61 -158q-60 -60 -157 -60q-98 0 -158 60q-60 61 -60 162q0 28 6 66q1 12 10 35q28 64 34 74l24 43l33 54l38 60zM104 212q0 -76 45 -122t116 -46t116 46q45 47 45 122
q0 74 -45 120q-45 47 -116 47t-116 -47q-45 -46 -45 -120z" />
    <glyph glyph-name="seven.fitted" horiz-adv-x="530" 
d="M402 651h-344v49h414v-25l-262 -675h-60z" />
    <glyph glyph-name="eight.fitted" horiz-adv-x="530" 
d="M83 531q0 77 50 127q50 49 132 49t131 -49q51 -49 51 -127q0 -51 -24.5 -90t-67.5 -58q59 -20 92.5 -68t33.5 -115q0 -92 -60 -150q-60 -57 -156 -57t-156 57q-60 58 -60 150q0 68 33 115.5t93 67.5q-43 19 -67.5 58t-24.5 90zM105 200q0 -69 44.5 -112.5t115.5 -43.5
t115.5 43.5t44.5 112.5q0 70 -44.5 113.5t-115.5 43.5t-115.5 -43.5t-44.5 -113.5zM175 621q-35 -35 -35 -90t35 -90q34 -34 90 -34t90 34q35 35 35 90t-35 90t-90 35t-90 -35z" />
    <glyph glyph-name="nine.fitted" horiz-adv-x="530" 
d="M233 -7l-47 28q101 151 173 276q-40 -25 -95 -25q-96 0 -157 59q-60 60 -60 158q0 97 60 157q61 61 158 61q98 0 158 -61q60 -60 60 -161q0 -77 -33 -141q-32 -65 -158 -259q-59 -91 -59 -92zM426 488q0 75 -44.5 121.5t-116.5 46.5t-116.5 -46.5t-44.5 -121.5
q0 -74 44.5 -120.5t116.5 -46.5t116.5 46.5t44.5 120.5z" />
    <glyph glyph-name="exclamdown.case" 
d="M79 637q-12 12 -12 29t12 29t29 12t29 -12t12 -29t-12 -29t-29 -12t-29 12zM81 0v514h55v-514h-55z" />
    <glyph glyph-name="Uhungarumlaut.smcp" horiz-adv-x="526" 
d="M404 184v320h54v-320q0 -84 -54 -137q-53 -52 -141 -52t-141.5 52t-53.5 137v320h54v-320q0 -63 39 -101.5t101 -38.5q63 0 102.5 38.5t39.5 101.5zM189 531l-27 27l94 90l27 -28zM301 531l-27 27l92 90l28 -28z" />
    <glyph glyph-name="Umacron.smcp" horiz-adv-x="526" 
d="M404 184v320h54v-320q0 -84 -54 -137q-53 -52 -141 -52t-141.5 52t-53.5 137v320h54v-320q0 -63 39 -101.5t101 -38.5q63 0 102.5 38.5t39.5 101.5zM354 553h-182v34h182v-34z" />
    <glyph glyph-name="Uogonek.smcp" horiz-adv-x="526" 
d="M304 -28q0 -18 12 -29.5t30 -11.5q20 0 30 10l20 -19q-19 -19 -50 -19t-50 19t-19 50q0 16 3 24q-3 -1 -17 -1q-88 0 -141.5 52t-53.5 137v320h54v-320q0 -63 39 -101.5t101 -38.5q63 0 102.5 38.5t39.5 101.5v320h54v-320q0 -71 -39.5 -120.5t-106.5 -63.5
q-8 -11 -8 -28z" />
    <glyph glyph-name="Uring.smcp" horiz-adv-x="526" 
d="M404 184v320h54v-320q0 -84 -54 -137q-53 -52 -141 -52t-141.5 52t-53.5 137v320h54v-320q0 -63 39 -101.5t101 -38.5q63 0 102.5 38.5t39.5 101.5zM263 655q30 0 48 -17.5t18 -46.5t-18 -47t-48 -18q-29 0 -47.5 18t-18.5 47t18.5 46.5t47.5 17.5zM223 591q0 -24 20 -34
t40 0t20 34q0 17 -11.5 28t-28.5 11q-18 0 -29 -11t-11 -28z" />
    <glyph glyph-name="Utilde.smcp" horiz-adv-x="526" 
d="M404 184v320h54v-320q0 -84 -54 -137q-53 -52 -141 -52t-141.5 52t-53.5 137v320h54v-320q0 -63 39 -101.5t101 -38.5q63 0 102.5 38.5t39.5 101.5zM191 550h-31q0 28 17.5 45.5t44.5 17.5q23 0 44 -18q23 -17 37 -17t22.5 9t8.5 23h32q0 -28 -17.5 -45.5t-45.5 -17.5
q-23 0 -45 17q-21 18 -35 18t-23 -9t-9 -23z" />
    <glyph glyph-name="V.smcp" horiz-adv-x="581" 
d="M486 504h63l-233 -504h-51l-233 504h63l195 -434z" />
    <glyph glyph-name="W.smcp" horiz-adv-x="871" 
d="M777 504h63l-198 -504h-55l-152 412l-151 -412h-55l-197 504h62l162 -421l152 421h55l152 -421z" />
    <glyph glyph-name="Wacute.smcp" horiz-adv-x="871" 
d="M777 504h63l-198 -504h-55l-152 412l-151 -412h-55l-197 504h62l162 -421l152 421h55l152 -421zM417 531l-27 27l94 90l27 -28z" />
    <glyph glyph-name="Wcircumflex.smcp" horiz-adv-x="871" 
d="M777 504h63l-198 -504h-55l-152 412l-151 -412h-55l-197 504h62l162 -421l152 421h55l152 -421zM342 558l93 90l94 -90l-28 -27l-66 63l-65 -63z" />
    <glyph glyph-name="Wdieresis.smcp" horiz-adv-x="871" 
d="M777 504h63l-198 -504h-55l-152 412l-151 -412h-55l-197 504h62l162 -421l152 421h55l152 -421zM341 550q-10 10 -10 24t10 23q11 10 25 10t23 -10q15 -13 9 -31.5t-23 -24t-34 8.5zM505 608q21 0 30 -17t0 -34t-30 -17q-20 0 -28.5 17t0 34t28.5 17z" />
    <glyph glyph-name="Wgrave.smcp" horiz-adv-x="871" 
d="M777 504h63l-198 -504h-55l-152 412l-151 -412h-55l-197 504h62l162 -421l152 421h55l152 -421zM360 620l27 28l94 -90l-27 -27z" />
    <glyph glyph-name="X.smcp" horiz-adv-x="560" 
d="M526 0h-70l-176 219l-177 -219h-69l206 255l-201 249h70l171 -212l171 212h69l-202 -249z" />
    <glyph glyph-name="Y.smcp" horiz-adv-x="519" 
d="M286 0h-54v218l-200 286h63l164 -233l165 233h63l-201 -286v-218z" />
    <glyph glyph-name="Yacute.smcp" horiz-adv-x="519" 
d="M286 0h-54v218l-200 286h63l164 -233l165 233h63l-201 -286v-218zM241 531l-27 27l93 90l27 -28z" />
    <glyph glyph-name="Ycircumflex.smcp" horiz-adv-x="519" 
d="M286 0h-54v218l-200 286h63l164 -233l165 233h63l-201 -286v-218zM166 558l93 90l93 -90l-27 -27l-66 63l-65 -63z" />
    <glyph glyph-name="Ydieresis.smcp" horiz-adv-x="519" 
d="M286 0h-54v218l-200 286h63l164 -233l165 233h63l-201 -286v-218zM165 550q-15 15 -8.5 33t23.5 22.5t33 -8.5t9 -31.5t-24 -24t-33 8.5zM305 550q-23 23 1 47t47 1t-1 -47t-47 -1z" />
    <glyph glyph-name="Ygrave.smcp" horiz-adv-x="519" 
d="M286 0h-54v218l-200 286h63l164 -233l165 233h63l-201 -286v-218zM184 620l27 28l93 -90l-27 -27z" />
    <glyph glyph-name="Z.smcp" horiz-adv-x="489" 
d="M361 459h-308v45h386v-19l-313 -440h315v-45h-393v20z" />
    <glyph glyph-name="Zacute.smcp" horiz-adv-x="489" 
d="M361 459h-308v45h386v-19l-313 -440h315v-45h-393v20zM227 531l-28 27l93 90l27 -28z" />
    <glyph glyph-name="Zcaron.smcp" horiz-adv-x="489" 
d="M361 459h-308v45h386v-19l-313 -440h315v-45h-393v20zM337 620l-93 -89l-93 89l28 28l65 -63l66 63z" />
    <glyph glyph-name="Zdotaccent.smcp" horiz-adv-x="489" 
d="M361 459h-308v45h386v-19l-313 -440h315v-45h-393v20zM209 583q-2 21 16.5 30t37 0t17.5 -30q0 -14 -10.5 -24.5t-25.5 -10.5t-25 10.5t-10 24.5z" />
    <glyph glyph-name="uni018F.smcp" horiz-adv-x="580" 
d="M48 252v21h427q-7 84 -64 135.5t-145 51.5q-98 0 -156 -58l-34 35q72 72 192 72q117 0 190 -71q73 -70 73 -186t-67 -186q-66 -71 -174 -71q-107 0 -175 71q-67 70 -67 186zM474 228h-368q4 -82 55 -134q52 -50 129 -50q78 0 128 50.5t56 133.5z" />
    <glyph glyph-name="afii10017.smcp" horiz-adv-x="581" 
d="M549 0h-62l-67 146h-259l-67 -146h-62l233 504h51zM400 194l-110 241l-109 -241h219z" />
    <glyph glyph-name="afii10018.smcp" horiz-adv-x="422" 
d="M223 0h-155v504h265v-45h-210v-177h100q68 0 109.5 -38.5t41.5 -102.5t-41.5 -102.5t-109.5 -38.5zM223 234h-100v-187h100q43 0 69.5 26t26.5 68t-26.5 67.5t-69.5 25.5z" />
    <glyph glyph-name="afii10019.smcp" horiz-adv-x="428" 
d="M230 0h-162v504h142q63 0 101 -35.5t38 -94.5q0 -76 -62 -109q42 -13 66.5 -46.5t24.5 -79.5q0 -63 -41 -101t-107 -38zM228 237h-105v-190h105q44 0 70.5 26t26.5 69t-26.5 69t-70.5 26zM296 370q0 40 -24.5 63.5t-64.5 23.5h-84v-174h84q40 0 64.5 24t24.5 63z" />
    <glyph glyph-name="afii10020.smcp" horiz-adv-x="370" 
d="M122 0h-54v504h261v-45h-207v-459z" />
    <glyph glyph-name="afii10021.smcp" horiz-adv-x="529" 
d="M441 -108v108h-353v-108h-51v152q42 0 64.5 28.5t22.5 82.5v349h313v-459h55v-153h-51zM179 459v-304q0 -75 -42 -110h245v414h-203z" />
    <glyph glyph-name="afii10022.smcp" horiz-adv-x="395" 
d="M345 459h-223v-182h198v-46h-198v-186h226v-45h-280v504h277v-45z" />
    <glyph glyph-name="afii10023.smcp" horiz-adv-x="395" 
d="M345 459h-223v-182h198v-46h-198v-186h226v-45h-280v504h277v-45zM113 550q-15 15 -8.5 33t23.5 22.5t33 -8.5t9 -31.5t-24 -24t-33 8.5zM253 550q-14 14 -7.5 33t23 24t32.5 -9q23 -23 -1 -47t-47 -1z" />
    <glyph glyph-name="afii10024.smcp" horiz-adv-x="696" 
d="M375 0h-54v504h54v-504zM662 0h-64l-214 259l203 245h62l-203 -245zM109 504l203 -245l-214 -259h-64l215 259l-203 245h63z" />
    <glyph glyph-name="afii10025.smcp" horiz-adv-x="428" 
d="M228 237h-79v46h58q42 0 67 24t25 66t-24.5 65.5t-69.5 23.5q-66 0 -123 -54l-33 33q71 68 159 68q69 0 107 -36t38 -96q0 -77 -65 -112q42 -13 66 -46.5t24 -80.5q0 -66 -44.5 -104.5t-121.5 -38.5q-99 0 -171 72l34 34q59 -59 133 -59q54 0 85.5 27.5t31.5 72.5
q0 43 -26.5 69t-70.5 26z" />
    <glyph glyph-name="afii10026.smcp" horiz-adv-x="550" 
d="M122 102l323 402h37v-504h-54v402l-323 -402h-37v504h54v-402z" />
    <glyph glyph-name="afii10027.smcp" horiz-adv-x="550" 
d="M352 611l27 -27q-40 -43 -104 -43q-61 0 -104 43l27 27q32 -30 77 -30t77 30zM122 102l323 402h37v-504h-54v402l-323 -402h-37v504h54v-402z" />
    <glyph glyph-name="afii10028.smcp" horiz-adv-x="465" 
d="M119 0h-53v504h53v-504zM431 0h-69l-234 259l219 245h67l-218 -245z" />
    <glyph glyph-name="afii10029.smcp" horiz-adv-x="513" 
d="M39 0v34q40 0 64 23t24 64v383h318v-504h-56v459h-207v-335q0 -57 -30 -92t-78 -35q-24 0 -35 3z" />
    <glyph glyph-name="afii10030.smcp" horiz-adv-x="627" 
d="M559 0h-53v393l-180 -277h-25l-179 277v-393h-54v504h41l205 -313l204 313h41v-504z" />
    <glyph glyph-name="afii10031.smcp" horiz-adv-x="539" 
d="M68 504h54v-227h294v227h54v-504h-54v231h-294v-231h-54v504z" />
    <glyph glyph-name="afii10032.smcp" horiz-adv-x="624" 
d="M121 66q-73 70 -73 186t73 186q74 71 191 71t191 -71q73 -70 73 -186t-73 -186q-74 -71 -191 -71t-191 71zM161 402q-58 -57 -58 -150t58 -151q59 -57 151 -57q93 0 150 57q58 58 58 151t-58 150q-57 58 -150 58t-151 -58z" />
    <glyph glyph-name="afii10033.smcp" horiz-adv-x="517" 
d="M68 0v504h381v-504h-54v459h-273v-459h-54z" />
    <glyph glyph-name="afii10034.smcp" horiz-adv-x="408" 
d="M123 0h-55v504h141q68 0 109.5 -38.5t41.5 -102.5t-41.5 -102.5t-109.5 -38.5h-86v-222zM209 457h-86v-187h86q43 0 69.5 25.5t26.5 67.5t-26.5 68t-69.5 26z" />
    <glyph glyph-name="afii10035.smcp" horiz-adv-x="546" 
d="M315 44q97 0 154 57l35 -34q-72 -72 -192 -72q-117 0 -191 71q-73 70 -73 186t73 186q74 71 191 71q120 0 192 -72l-35 -35q-58 58 -154 58q-95 0 -153 -58q-59 -57 -59 -150q0 -92 59 -151q58 -57 153 -57z" />
    <glyph glyph-name="afii10036.smcp" horiz-adv-x="438" 
d="M398 459h-152v-459h-54v459h-151v45h357v-45z" />
    <glyph glyph-name="afii10037.smcp" horiz-adv-x="477" 
d="M389 504h58l-265 -504h-58l89 158l-183 346h58l151 -283z" />
    <glyph glyph-name="afii10038.smcp" horiz-adv-x="594" 
d="M324 0h-54v49q-99 0 -161 56q-61 55 -61 147t61 147q62 56 161 56v49h54v-49q98 0 160 -56t62 -147t-62 -147t-160 -56v-49zM324 406v-308q75 0 121 42.5t46 111.5t-46 111.5t-121 42.5zM270 98v308q-74 0 -120.5 -42.5t-46.5 -111.5t46.5 -111.5t120.5 -42.5z" />
    <glyph glyph-name="afii10039.smcp" horiz-adv-x="560" 
d="M526 0h-70l-176 219l-177 -219h-69l206 255l-201 249h70l171 -212l171 212h69l-202 -249z" />
    <glyph glyph-name="afii10040.smcp" horiz-adv-x="564" 
d="M476 -108v108h-408v504h54v-459h298v459h54v-459h53v-153h-51z" />
    <glyph glyph-name="afii10041.smcp" horiz-adv-x="454" 
d="M386 504v-504h-52v227q-56 -14 -113 -14q-74 0 -113.5 39.5t-39.5 114.5v137h52v-136q0 -112 111 -112q65 0 103 15v233h52z" />
    <glyph glyph-name="afii10042.smcp" horiz-adv-x="783" 
d="M714 504v-504h-646v504h54v-459h242v459h54v-459h242v459h54z" />
    <glyph glyph-name="afii10043.smcp" horiz-adv-x="804" 
d="M716 -108v108h-648v504h54v-459h242v459h54v-459h242v459h54v-459h53v-153h-51z" />
    <glyph glyph-name="afii10044.smcp" horiz-adv-x="505" 
d="M158 459h-117v45h172v-222h92q68 0 110 -38.5t42 -102.5t-41.5 -102.5t-110.5 -38.5h-147v459zM305 234h-92v-187h92q43 0 70 26t27 68t-26.5 67.5t-70.5 25.5z" />
    <glyph glyph-name="afii10045.smcp" horiz-adv-x="567" 
d="M217 0h-149v504h55v-222h94q68 0 109.5 -38.5t41.5 -102.5t-41.5 -102.5t-109.5 -38.5zM217 234h-94v-187h94q43 0 69 26t26 68t-26 67.5t-69 25.5zM498 0h-53v504h53v-504z" />
    <glyph glyph-name="afii10046.smcp" horiz-adv-x="416" 
d="M217 0h-149v504h55v-222h94q68 0 109.5 -38.5t41.5 -102.5t-41.5 -102.5t-109.5 -38.5zM217 234h-94v-187h94q43 0 69 26t26 68t-26 67.5t-69 25.5z" />
    <glyph glyph-name="afii10047.smcp" horiz-adv-x="546" 
d="M75 402l-34 35q73 72 192 72q117 0 191 -71q73 -70 73 -186t-73 -186q-74 -71 -191 -71q-119 0 -192 72l34 34q59 -57 156 -57q89 0 146 51t63 136h-267v46h267q-8 82 -65 132.5t-144 50.5q-97 0 -156 -58z" />
    <glyph glyph-name="afii10048.smcp" horiz-adv-x="792" 
d="M68 504h54v-227h142q8 103 72 168q65 64 167 64q106 0 174 -71q67 -70 67 -186t-67 -186q-68 -71 -174 -71q-101 0 -168 65q-65 65 -71 171h-142v-231h-54v504zM369 402q-51 -57 -51 -150q0 -92 51 -151q51 -57 134 -57t134 57q52 58 52 151q0 94 -52 150q-51 58 -134 58
t-134 -58z" />
    <glyph glyph-name="afii10049.smcp" horiz-adv-x="427" 
d="M200 504h159v-504h-55v222h-84l-121 -222h-62l130 224q-55 9 -87 46t-32 93q0 64 41.5 102.5t110.5 38.5zM200 270h104v187h-104q-43 0 -70 -26t-27 -68t26.5 -67.5t70.5 -25.5z" />
    <glyph glyph-name="afii10050.smcp" horiz-adv-x="369" 
d="M318 459h-196v-459h-54v504h208v90h42v-135z" />
    <glyph glyph-name="afii10051.smcp" horiz-adv-x="541" 
d="M379 0v34q19 0 30.5 10.5t11.5 28.5v103q0 38 -24 62t-63 24q-53 0 -88 -32v-230h-54v459h-151v45h357v-45h-152v-182q42 33 100 33t93.5 -37t35.5 -97v-104q0 -35 -19.5 -55t-52.5 -20q-18 0 -24 3z" />
    <glyph glyph-name="afii10052.smcp" horiz-adv-x="370" 
d="M179 531l-27 27l93 90l27 -28zM122 0h-54v504h261v-45h-207v-459z" />
    <glyph glyph-name="afii10053.smcp" horiz-adv-x="546" 
d="M315 460q-87 0 -144.5 -50.5t-65.5 -132.5h314v-46h-314q6 -85 63 -136q58 -51 147 -51q97 0 154 57l35 -34q-72 -72 -192 -72q-117 0 -191 71q-73 70 -73 186t73 186q74 71 191 71q120 0 192 -72l-35 -35q-58 58 -154 58z" />
    <glyph glyph-name="afii10054.smcp" horiz-adv-x="416" 
d="M349 450l-34 -34q-44 44 -112 44q-45 0 -69.5 -25t-24.5 -60q0 -32 26.5 -53.5t63.5 -35t74.5 -29t64 -45t26.5 -73.5q0 -58 -41 -102q-41 -42 -119 -42q-98 0 -163 66l34 34q48 -51 124 -51q52 0 81 27.5t29 66.5q0 55 -91 85q-33 12 -46 16.5t-41.5 19t-41.5 28
t-24.5 36.5t-11.5 51q0 59 38 97t107 38q92 0 151 -59z" />
    <glyph glyph-name="afii10055.smcp" horiz-adv-x="185" 
d="M119 0h-53v504h53v-504z" />
    <glyph glyph-name="afii10056.smcp" horiz-adv-x="186" 
d="M119 0h-53v504h53v-504zM35 607q21 1 29.5 -16t0 -34.5t-29.5 -16.5q-21 0 -29.5 17t0 33.5t29.5 16.5zM127 550q-14 14 -7.5 33t23 24t32.5 -9q23 -23 -1 -47t-47 -1z" />
    <glyph glyph-name="afii10057.smcp" horiz-adv-x="360" 
d="M240 137v367h54v-367q0 -64 -41 -103t-106 -39t-106 40l35 35q24 -26 69 -26q42 0 68.5 25.5t26.5 67.5z" />
    <glyph glyph-name="afii10058.smcp" horiz-adv-x="725" 
d="M526 0h-148v459h-196v-335q0 -57 -30 -92t-78 -35q-24 0 -35 3v34q40 0 64 23t24 64v383h306v-222h93q68 0 109.5 -38.5t41.5 -102.5t-41.5 -102.5t-109.5 -38.5zM526 234h-93v-187h93q43 0 69.5 26t26.5 68t-26.5 67.5t-69.5 25.5z" />
    <glyph glyph-name="afii10059.smcp" horiz-adv-x="722" 
d="M68 504h54v-222h252v222h56v-222h92q68 0 109.5 -38.5t41.5 -102.5t-41.5 -102.5t-109.5 -38.5h-148v234h-252v-234h-54v504zM522 234h-92v-187h92q43 0 70 26t27 68t-26.5 67.5t-70.5 25.5z" />
    <glyph glyph-name="afii10060.smcp" horiz-adv-x="541" 
d="M398 459h-152v-182q42 33 100 33t93.5 -37t35.5 -97v-176h-54v176q0 38 -24 62t-63 24q-53 0 -88 -32v-230h-54v459h-151v45h357v-45z" />
    <glyph glyph-name="afii10061.smcp" horiz-adv-x="465" 
d="M119 0h-53v504h53v-504zM431 0h-69l-234 259l219 245h67l-218 -245zM214 531l-27 27l93 90l27 -28z" />
    <glyph glyph-name="afii10062.smcp" horiz-adv-x="477" 
d="M316 611l27 -27q-43 -43 -104 -43t-105 43l28 27q32 -30 77 -30t77 30zM389 504h58l-265 -504h-58l89 158l-183 346h58l151 -283z" />
    <glyph glyph-name="afii10145.smcp" horiz-adv-x="543" 
d="M246 -108v108h-178v504h54v-459h298v459h54v-504h-177v-108h-51z" />
    <glyph glyph-name="uni040D.smcp" horiz-adv-x="550" 
d="M200 620l27 28l93 -90l-27 -27zM122 102l323 402h37v-504h-54v402l-323 -402h-37v504h54v-402z" />
    <glyph glyph-name="uni0400.smcp" horiz-adv-x="395" 
d="M345 459h-223v-182h198v-46h-198v-186h226v-45h-280v504h277v-45zM133 620l27 28l93 -90l-27 -27z" />
    <glyph glyph-name="uni04D8.smcp" horiz-adv-x="580" 
d="M48 252v21h427q-7 84 -64 135.5t-145 51.5q-98 0 -156 -58l-34 35q72 72 192 72q117 0 190 -71q73 -70 73 -186t-67 -186q-66 -71 -174 -71q-107 0 -175 71q-67 70 -67 186zM474 228h-368q4 -82 55 -134q52 -50 129 -50q78 0 128 50.5t56 133.5z" />
    <glyph glyph-name="afii10056_afii10056.smcp" horiz-adv-x="372" 
d="M119 0h-53v504h53v-504zM35 607q21 1 29.5 -16t0 -34.5t-29.5 -16.5q-21 0 -29.5 17t0 33.5t29.5 16.5zM306 0h-54v504h54v-504zM337 608q21 0 29.5 -17t0 -34t-29.5 -17q-21 -1 -29.5 16.5t0 35t29.5 16.5zM186 608q21 1 29.5 -16.5t0 -35t-29.5 -16.5q-21 0 -29.5 17
t0 34t29.5 17z" />
    <glyph glyph-name="afii10021.alt.smcp" horiz-adv-x="633" 
d="M546 -108v108h-458v-108h-51v153h43l211 459h51l211 -459h43v-153h-50zM491 45l-175 391l-173 -391h348z" />
    <glyph glyph-name="afii10029.alt.smcp" horiz-adv-x="581" 
d="M95 0h-63l233 504h51l233 -504h-63l-196 434z" />
    <glyph glyph-name="afii10058.alt.smcp" horiz-adv-x="769" 
d="M95 0h-63l233 504h51l103 -222h150q68 0 110 -38.5t42 -102.5t-41.5 -102.5t-110.5 -38.5h-83l-196 434zM569 234h-129l88 -187h41q43 0 70 26t27 68t-26.5 67.5t-70.5 25.5z" />
    <glyph glyph-name="Aringacute.smcp" horiz-adv-x="581" 
d="M273 619l-11 11l93 91l28 -27l-78 -74q51 -12 51 -64q0 -43 -37 -59l230 -497h-62l-67 146h-259l-67 -146h-62l230 497q-37 16 -37 59q0 51 48 63zM400 194l-110 241l-109 -241h219zM251 556q0 -17 11 -28t28 -11q18 0 29 11t11 28q0 18 -11 28.5t-29 10.5
q-17 0 -28 -10.5t-11 -28.5z" />
    <glyph glyph-name="germandbls.smcp" horiz-adv-x="462" 
d="M119 375v-375h-53v375q0 60 39.5 97t102.5 37q64 0 103.5 -36.5t39.5 -95.5q0 -44 -25.5 -75.5t-68.5 -42.5q0 -55 79 -79q33 -10 56 -34t23 -60q0 -38 -30 -64.5t-81 -26.5q-70 0 -110 43l33 32q28 -31 74 -31q29 0 45.5 14.5t16.5 33.5q0 41 -79 67q-33 11 -56 38
t-23 66v41q41 0 66 22q26 22 26 58t-25 60q-26 24 -64 24q-39 0 -64 -24.5t-25 -63.5z" />
    <glyph glyph-name="at.smcp" horiz-adv-x="615" 
d="M482 93l26 -25q-73 -73 -198 -73q-119 0 -193 71q-73 70 -73 186t73 186q74 71 191 71q118 0 191 -68q72 -67 72 -168q0 -75 -38 -110t-86 -35q-49 0 -65 27q-32 -27 -77 -27q-54 0 -87.5 34.5t-33.5 89.5q0 56 36 90t94 34q67 0 103 -39v-146q0 -26 38 -26q32 0 53 26
t21 77q0 88 -60 147q-58 58 -160 58q-101 0 -162 -61t-61 -160t61 -160t164 -61q111 0 171 62zM315 165q39 0 61 21v136q-26 17 -63 17q-40 0 -63.5 -23.5t-23.5 -63.5t24 -63.5t65 -23.5z" />
    <glyph glyph-name="parenleft.smcp" horiz-adv-x="244" 
d="M194 545v-39q-34 0 -60 -72q-24 -72 -24 -183q0 -110 24 -182q26 -71 60 -71v-39q-59 0 -99 82q-39 82 -39 211q0 128 39 211q40 82 99 82z" />
    <glyph glyph-name="parenright.smcp" horiz-adv-x="244" 
d="M49 506v39q59 0 98 -82q40 -80 40 -211t-40 -212q-39 -81 -98 -81v39q34 0 60 71q25 71 25 183q0 113 -25 182q-25 72 -60 72z" />
    <glyph glyph-name="bracketleft.smcp" horiz-adv-x="243" 
d="M66 540h128v-41h-76v-494h76v-41h-128v576z" />
    <glyph glyph-name="bracketright.smcp" horiz-adv-x="243" 
d="M125 499h-76v41h128v-576h-128v41h76v494z" />
    <glyph glyph-name="braceleft.smcp" horiz-adv-x="259" 
d="M218 -2v-39q-49 0 -82 35t-33 89v54q0 40 -18.5 67t-43.5 27v40q25 0 43.5 27t18.5 67v56q0 54 33 89t82 35v-39q-25 0 -43 -27t-18 -66v-54q0 -80 -64 -108q64 -28 64 -107v-54q0 -39 18 -65.5t43 -26.5z" />
    <glyph glyph-name="braceright.smcp" horiz-adv-x="259" 
d="M41 -41v39q25 0 43.5 26.5t18.5 65.5v54q0 79 64 107q-64 28 -64 108v54q0 39 -18.5 66t-43.5 27v39q49 0 82.5 -35t33.5 -89v-56q0 -41 18 -67.5t43 -26.5v-40q-25 0 -43 -26.5t-18 -67.5v-54q0 -54 -33.5 -89t-82.5 -35z" />
    <glyph glyph-name="exclamdown.smcp" horiz-adv-x="184" 
d="M56 474q0 21 18 30t36 0t18 -30q0 -14 -10.5 -24.5t-25.5 -10.5t-25.5 10.5t-10.5 24.5zM66 0v366h52v-366h-52z" />
    <glyph glyph-name="questiondown.smcp" horiz-adv-x="373" 
d="M299 82l35 -34q-59 -53 -144 -53q-68 0 -107 36.5t-39 92.5q0 65 58 100q59 35 59 100v42h52v-42q0 -36 -12 -63t-28.5 -42t-33.5 -28t-29 -29t-12 -37q0 -35 24.5 -59.5t68.5 -24.5q67 0 108 41zM223 474q0 -14 -10.5 -24.5t-25.5 -10.5q-14 0 -24.5 10.5t-10.5 24.5
q0 15 10.5 25t24.5 10q15 0 25.5 -10t10.5 -25z" />
    <glyph glyph-name="bar.smcp" horiz-adv-x="184" 
d="M118 -36h-52v576h52v-576z" />
    <glyph glyph-name="brokenbar.smcp" horiz-adv-x="184" 
d="M118 -36h-52v252h52v-252zM66 540h52v-252h-52v252z" />
    <glyph glyph-name="dagger.smcp" horiz-adv-x="395" 
d="M171 345h-115v41h115v154h52v-154h116v-41h-116v-381h-52v381z" />
    <glyph glyph-name="daggerdbl.smcp" horiz-adv-x="395" 
d="M171 129h-115v41h115v175h-115v41h115v154h52v-154h116v-41h-116v-175h116v-41h-116v-165h-52v165z" />
    <glyph glyph-name="zero.smcp" horiz-adv-x="444" 
d="M96 66q-48 70 -48 186t48 186q50 71 126 71q77 0 125 -71q49 -70 49 -186t-49 -186q-48 -71 -125 -71q-76 0 -126 71zM135 404q-33 -58 -33 -152t33 -153q34 -58 87 -58t86 58q34 58 34 153q0 94 -34 152q-33 59 -86 59q-52 0 -87 -59z" />
    <glyph glyph-name="one.smcp" horiz-adv-x="255" 
d="M117 457l-83 -15v42l134 23v-507h-51v457z" />
    <glyph glyph-name="two.smcp" horiz-adv-x="407" 
d="M48 0v46l228 219q31 28 31 85q0 50 -29.5 81t-76.5 31q-46 0 -75.5 -31t-29.5 -81h-53q0 71 43.5 115t114.5 44q72 0 116 -44t44 -115q0 -75 -48 -120l-195 -185h243v-45h-313z" />
    <glyph glyph-name="three.smcp" horiz-adv-x="418" 
d="M208 251h-34v45h34q38 0 63 23q24 23 24 60t-24 60q-24 24 -63 24t-63 -23.5t-24 -60.5h-54q0 58 39 94t102 36t102 -36t39 -94q0 -72 -66 -105q42 -14 65.5 -47.5t23.5 -80.5q0 -67 -45.5 -109t-118.5 -42t-118.5 42t-45.5 109h54q0 -48 30 -76q32 -29 80 -29t79 29
q31 28 31 76q0 47 -30.5 76t-79.5 29z" />
    <glyph glyph-name="four.smcp" horiz-adv-x="430" 
d="M333 0h-52v97h-240v27l236 380h54v-361h47v-46h-45v-97zM282 425l-176 -282h176v282z" />
    <glyph glyph-name="five.smcp" horiz-adv-x="407" 
d="M361 154q0 -71 -44 -115t-116 -44q-71 0 -114.5 41t-43.5 108h52q0 -45 29.5 -73.5t76.5 -28.5t76.5 31t29.5 81q0 54 -33 88t-86 34q-55 0 -89 -31l-37 16l33 243h227v-45h-181l-24 -152q27 15 74 15q76 0 123 -46.5t47 -121.5z" />
    <glyph glyph-name="six.smcp" horiz-adv-x="417" 
d="M230 509l44 -25q-79 -106 -127 -189q30 15 62 15q73 0 118.5 -43.5t45.5 -114.5q0 -70 -45.5 -113.5t-119.5 -43.5t-119 44t-45 118q0 66 35 128q32 59 151 224zM128 234q-30 -32 -30 -81t30 -81q31 -31 80 -31t80 31t31 81t-31 81t-80 31t-80 -31z" />
    <glyph glyph-name="seven.smcp" horiz-adv-x="412" 
d="M297 459h-249v45h316v-19l-191 -485h-56z" />
    <glyph glyph-name="eight.smcp" horiz-adv-x="421" 
d="M70 379q0 58 39 94t101 36q63 0 102 -36t39 -94q0 -72 -65 -105q42 -14 65 -47.5t23 -80.5q0 -67 -45.5 -109t-118.5 -42t-118 42t-45 109q0 47 23 80.5t64 47.5q-64 31 -64 105zM130 222q-30 -28 -30 -76t30 -76q32 -29 80 -29t80 29q31 28 31 76t-31 76q-32 29 -80 29
t-80 -29zM210 297q39 0 63 22.5t24 59.5t-24 60.5t-63 23.5q-38 0 -62.5 -23.5t-24.5 -60.5t24.5 -59.5t62.5 -22.5z" />
    <glyph glyph-name="nine.smcp" horiz-adv-x="417" 
d="M187 -5l-45 25q69 90 128 189q-30 -15 -62 -15q-73 0 -118.5 43.5t-45.5 114.5q0 70 45.5 113.5t119.5 43.5t119 -44t45 -118q0 -65 -35 -129q-34 -60 -151 -223zM288 270q31 31 31 81t-31 81t-80 31t-80 -31q-30 -32 -30 -81t30 -81q31 -31 80 -31t80 31z" />
    <glyph glyph-name="dollar.smcp" horiz-adv-x="416" 
d="M222 -72h-32v67q-89 5 -149 66l34 34q45 -48 115 -51v189q-56 21 -93 46q-44 35 -44 95q0 57 35.5 94.5t101.5 40.5v67h32v-69q76 -7 127 -57l-34 -34q-36 36 -93 43v-181q41 -16 52 -22q12 -5 43 -25q47 -30 47 -92q0 -57 -37.5 -97.5t-104.5 -45.5v-68zM309 138
q0 29 -20.5 47.5t-66.5 36.5v-177q41 6 64 33t23 60zM109 375q0 -29 20 -48.5t61 -36.5v169q-39 -4 -60 -28t-21 -56z" />
    <glyph glyph-name="Euro.smcp" horiz-adv-x="581" 
d="M86 285h-45v32h50q20 88 89 140t168 52q118 0 192 -72l-34 -35q-59 58 -155 58q-76 0 -130 -38.5t-73 -104.5h204v-32h-210q-2 -14 -2 -33t2 -33h210v-32h-204q19 -66 72.5 -104.5t130.5 -38.5q97 0 155 57l34 -34q-74 -72 -192 -72q-99 0 -168 52t-89 140h-50v32h45
q-2 26 -2 33q0 3 2 33z" />
    <glyph glyph-name="sterling.smcp" horiz-adv-x="404" 
d="M98 231h-57v42h57v94q0 64 40.5 103t105.5 39q66 0 106 -40l-34 -35q-26 26 -70 26q-42 0 -68.5 -25.5t-26.5 -67.5v-94h135v-42h-135v-147q16 -4 57 -25q40 -20 62 -20q20 0 32 12t12 31h43q0 -39 -24 -63t-62 -24q-33 0 -78 24q-43 24 -67 24q-20 0 -32 -11.5
t-12 -31.5h-43q0 65 59 83v148z" />
    <glyph glyph-name="yen.smcp" horiz-adv-x="519" 
d="M232 159h-106v32h106v27l-200 286h63l164 -233l165 233h63l-201 -286v-27h107v-32h-107v-61h107v-31h-107v-67h-54v67h-106v31h106v61z" />
    <glyph glyph-name="uni20B4.smcp" horiz-adv-x="339" 
d="M166 281h-123v32h156l10 9q33 33 33 66q0 32 -23.5 53t-59.5 21q-51 0 -82 -34l-33 33q44 48 115 48q61 0 98.5 -33t37.5 -86q0 -44 -30 -77h31v-32h-63l-59 -57h122v-31h-154l-11 -11q-34 -31 -34 -66q0 -32 23.5 -53t59.5 -21q51 0 82 34l33 -33q-42 -48 -115 -48
q-61 0 -98.5 33t-37.5 86q0 44 31 79h-32v31h63z" />
    <glyph glyph-name="numbersign.smcp" horiz-adv-x="473" 
d="M312 0h-53l22 127h-130l-22 -127h-52l21 127h-57v42h64l27 166h-64v42h71l22 127h52l-22 -127h131l21 127h52l-21 -127h58v-42h-64l-28 -166h65v-42h-72zM315 335h-130l-28 -166h131z" />
    <glyph glyph-name="zero.fitted.smcp" horiz-adv-x="417" 
d="M85 66q-47 71 -47 186t47 186q48 71 124 71t123 -71t47 -186t-47 -186t-123 -71t-124 71zM124 404q-32 -59 -32 -152q0 -94 32 -153q33 -58 85 -58q53 0 84 58q32 59 32 153q0 93 -32 152t-84 59t-85 -59z" />
    <glyph glyph-name="one.fitted.smcp" horiz-adv-x="417" 
d="M321 0h-225v41h86v416l-92 -15v42l144 23v-466h87v-41z" />
    <glyph glyph-name="two.fitted.smcp" horiz-adv-x="418" 
d="M53 0v46l230 219q31 28 31 85q0 49 -30 80.5t-77 31.5t-76.5 -31t-29.5 -81h-54q0 71 44.5 115t115.5 44t115.5 -44t44.5 -115q0 -73 -50 -120l-196 -185h246v-45h-314z" />
    <glyph glyph-name="three.fitted.smcp" horiz-adv-x="418" 
d="M208 251h-34v45h34q38 0 62.5 23t24.5 60t-24.5 60.5t-62.5 23.5q-39 0 -63 -23.5t-24 -60.5h-53q0 58 38.5 94t101.5 36t102 -36t39 -94q0 -72 -65 -105q41 -15 64.5 -48.5t23.5 -79.5q0 -67 -45.5 -109t-118.5 -42t-118.5 42t-45.5 109h54q0 -48 30 -76q32 -29 80 -29
t79 29q31 28 31 76q0 47 -30.5 76t-79.5 29z" />
    <glyph glyph-name="four.fitted.smcp" horiz-adv-x="417" 
d="M326 0h-52v97h-238v27l235 380h53v-361h47v-46h-45v-97zM276 425l-175 -282h175v282z" />
    <glyph glyph-name="five.fitted.smcp" horiz-adv-x="418" 
d="M367 154q0 -71 -44.5 -115t-115.5 -44t-115.5 41t-44.5 108h52q0 -45 30 -73.5t78 -28.5q47 0 77 31.5t30 80.5q0 54 -34 88t-87 34q-55 0 -89 -31l-38 16l33 243h229v-45h-183l-23 -152q25 15 74 15q76 0 123.5 -46.5t47.5 -121.5z" />
    <glyph glyph-name="six.fitted.smcp" horiz-adv-x="418" 
d="M231 509l44 -25q-74 -100 -128 -189q29 15 63 15q73 0 118.5 -43.5t45.5 -114.5q0 -70 -45.5 -113.5t-119.5 -43.5q-75 0 -120 44t-45 118q0 65 35 129q33 59 152 223zM128 233q-31 -31 -31 -80q0 -50 31 -81t81 -31q49 0 80 31q32 32 32 81q0 48 -32 80t-80 32
q-49 0 -81 -32z" />
    <glyph glyph-name="seven.fitted.smcp" horiz-adv-x="417" 
d="M300 459h-250v45h317v-19l-192 -485h-56z" />
    <glyph glyph-name="eight.fitted.smcp" horiz-adv-x="418" 
d="M68 379q0 58 39.5 94t101.5 36q63 0 102 -36t39 -94q0 -73 -65 -105q42 -15 65.5 -49t23.5 -79q0 -67 -46 -109t-119 -42t-119 42t-46 109q0 45 23.5 79t65.5 49q-65 32 -65 105zM129 222q-31 -28 -31 -76t31 -76q32 -29 80 -29t80 29q31 28 31 76t-31 76q-32 29 -80 29
t-80 -29zM209 297q39 0 63 22.5t24 59.5t-24 60.5t-63 23.5q-38 0 -62.5 -23.5t-24.5 -60.5t24.5 -59.5t62.5 -22.5z" />
    <glyph glyph-name="nine.fitted.smcp" horiz-adv-x="417" 
d="M187 -5l-45 25q75 98 128 189q-28 -15 -62 -15q-73 0 -118.5 43.5t-45.5 114.5q0 70 45.5 113.5t119.5 43.5q75 0 120 -44t45 -118q0 -65 -35 -129q-35 -63 -152 -223zM208 463q-49 0 -80 -31.5t-31 -80.5t31 -80.5t80 -31.5q50 0 81 31t31 81t-31 81t-81 31z" />
    <glyph glyph-name="exclam.smcp" horiz-adv-x="184" 
d="M56 30q0 14 10.5 24.5t25.5 10.5t25.5 -10.5t10.5 -24.5q0 -21 -18 -30t-36 0t-18 30zM118 138h-52v366h52v-366z" />
    <glyph glyph-name="ampersand.smcp" horiz-adv-x="473" 
d="M321 251h-59v45h171v-45h-59v-105q0 -67 -45.5 -109t-118.5 -42t-118 42t-45 109q0 47 23 80.5t65 47.5q-65 32 -65 105q0 58 39 94t101 36q63 0 102 -36t39 -94h-54q0 37 -24 60.5t-63 23.5q-38 0 -62.5 -23.5t-24.5 -60.5t24.5 -60t62.5 -23h22v-45h-22q-48 0 -80 -29
q-30 -28 -30 -76t30 -76q32 -29 80 -29q49 0 80 29t31 76v105z" />
    <glyph glyph-name="slash.smcp" horiz-adv-x="431" 
d="M104 -36h-53l276 576h53z" />
    <glyph glyph-name="backslash.smcp" horiz-adv-x="431" 
d="M51 540h53l276 -576h-53z" />
    <glyph glyph-name="question.smcp" horiz-adv-x="373" 
d="M73 422l-34 34q59 53 143 53q68 0 107.5 -36.5t39.5 -92.5q0 -65 -59 -100t-59 -100v-42h-52v42q0 36 12 63t28.5 42t33.5 28t29 29t12 37q0 35 -24 59.5t-68 24.5q-65 0 -109 -41zM149 30q0 14 10.5 24.5t25.5 10.5t25 -10.5t10 -24.5q2 -21 -16.5 -30t-37 0t-17.5 30z
" />
    <glyph glyph-name="percent.smcp" horiz-adv-x="659" 
d="M218 0h-53l276 504h53zM41 388q0 54 35 87.5t91 33.5t91 -33.5t35 -87.5q0 -55 -35 -88.5t-91 -33.5t-91 33.5t-35 88.5zM88 388q0 -37 22 -59.5t57 -22.5t57 22.5t22 59.5q0 36 -22 59t-57 23t-57 -23t-22 -59zM366 116q0 55 35 88.5t91 33.5t91 -33.5t35 -88.5
q0 -54 -35 -87.5t-91 -33.5t-91 33.5t-35 87.5zM413 116q0 -36 22 -59t57 -23t57 23t22 59q0 37 -22 59.5t-57 22.5t-57 -22.5t-22 -59.5z" />
    <glyph glyph-name="perthousand.smcp" horiz-adv-x="952" 
d="M218 0h-53l276 504h53zM41 388q0 54 35 87.5t91 33.5t91 -33.5t35 -87.5q0 -55 -35 -88.5t-91 -33.5t-91 33.5t-35 88.5zM88 388q0 -37 22 -59.5t57 -22.5t57 22.5t22 59.5q0 36 -22 59t-57 23t-57 -23t-22 -59zM366 116q0 55 35 88.5t91 33.5t91 -33.5t35 -88.5
q0 -54 -35 -87.5t-91 -33.5t-91 33.5t-35 87.5zM413 116q0 -36 22 -59t57 -23t57 23t22 59q0 37 -22 59.5t-57 22.5t-57 -22.5t-22 -59.5zM659 116q0 55 35 88.5t91 33.5t91 -33.5t35 -88.5q0 -54 -35 -87.5t-91 -33.5t-91 33.5t-35 87.5zM706 116q0 -36 22 -59t57 -23
t57 23t22 59q0 37 -22 59.5t-57 22.5t-57 -22.5t-22 -59.5z" />
    <glyph glyph-name="section.smcp" horiz-adv-x="337" 
d="M129 316l154 -147l-35 -35l-155 149q-48 45 -48 105q0 54 37.5 87.5t98.5 33.5q71 0 115 -48l-33 -33q-31 34 -82 34q-37 0 -59.5 -21t-22.5 -54q0 -41 30 -71zM208 8l-154 148l35 34l155 -149q49 -46 49 -105q0 -54 -37.5 -87.5t-98.5 -33.5q-73 0 -116 48l34 33
q31 -34 82 -34q36 0 59 21t23 54q0 43 -31 71z" />
    <glyph glyph-name="paragraph.smcp" horiz-adv-x="447" 
d="M199 504h74v-504h-51v229h-23q-67 0 -107.5 37.5t-40.5 99.5q0 63 40.5 100.5t107.5 37.5zM381 0h-50v504h50v-504z" />
    <glyph glyph-name="quoteright_afii10056.smcp" horiz-adv-x="259" 
d="M193 0h-54v504h54v-504zM200 550q-14 14 -7.5 33t23 24t32.5 -9q23 -23 -1 -47t-47 -1zM22 508l-21 21q39 42 43 69q-16 2 -26.5 13t-10.5 27q-1 29 28 38q30 10 47 -14q8 -12 7 -32q0 -58 -67 -122z" />
    <glyph glyph-name="zero.sub" horiz-adv-x="302" 
d="M67 -5q-32 50 -32 130q0 79 32 129t84 50t84 -50t32 -129t-32 -129t-84 -50q-53 0 -84 49zM94 230q-22 -40 -22 -105q0 -66 22 -106t57 -40t57 40t22 106q0 65 -22 105q-22 41 -57 41t-57 -41z" />
    <glyph glyph-name="one.sub" horiz-adv-x="178" 
d="M81 268l-55 -10v28l91 16v-352h-36v318z" />
    <glyph glyph-name="two.sub" horiz-adv-x="278" 
d="M35 -50v32l152 152q20 20 20 59q0 35 -19 56.5t-50 21.5t-50.5 -22t-19.5 -56h-37q0 50 29.5 80.5t77.5 30.5q47 0 76.5 -31t29.5 -80q0 -51 -32 -83l-128 -129h160v-31h-209z" />
    <glyph glyph-name="three.sub" horiz-adv-x="286" 
d="M143 125h-23v31h23q37 -4 52 35.5t-11 63.5q-18 15 -41 16t-41 -15.5t-16 -41.5h-38q0 40 26.5 65t68.5 25t68 -25t26 -65q0 -52 -43 -73q58 -22 58 -89q0 -47 -30 -76.5t-79 -29.5t-79.5 29.5t-30.5 76.5h37q-3 -31 20.5 -52.5t52.5 -20.5t52 21q33 31 14.5 80t-66.5 45
z" />
    <glyph glyph-name="four.sub" horiz-adv-x="293" 
d="M226 -50h-36v68h-160v18l158 264h37v-251h31v-31h-30v-68zM191 245l-116 -196h116v196z" />
    <glyph glyph-name="five.sub" horiz-adv-x="278" 
d="M244 57q0 -49 -29.5 -80t-76.5 -31q-48 0 -77.5 28.5t-29.5 75.5h36q0 -32 19.5 -51.5t51.5 -19.5q31 0 50 21.5t19 56.5q0 37 -21.5 60.5t-56.5 23.5q-39 0 -58 -21l-27 11l22 169h152v-31h-120l-15 -106q19 11 48 11q50 0 81.5 -32.5t31.5 -84.5z" />
    <glyph glyph-name="six.sub" horiz-adv-x="286" 
d="M157 304l31 -18q-58 -84 -85 -131q17 10 40 10q49 0 79.5 -30t30.5 -79t-30.5 -79.5t-79.5 -30.5q-50 0 -80 30.5t-30 82.5q0 44 23 87q19 36 101 158zM90 111q-20 -21 -20 -55t20 -56q21 -21 53 -21t52 21q20 22 20 56t-20 55q-20 22 -52 22t-53 -22z" />
    <glyph glyph-name="seven.sub" horiz-adv-x="281" 
d="M200 269h-165v31h211v-13l-126 -337h-39z" />
    <glyph glyph-name="eight.sub" horiz-adv-x="287" 
d="M49 214q0 40 26.5 65t68.5 25t68 -25t26 -65q0 -52 -43 -73q58 -22 58 -89q0 -47 -30 -76.5t-79 -29.5t-79.5 29.5t-30.5 76.5q0 67 58 89q-43 21 -43 73zM91 104q-20 -20 -20 -52t20 -52q21 -21 53 -21t52 21q20 20 20 52t-20 52t-52 20t-53 -20zM102 255
q-15 -15 -15 -41t16 -42t41 -16t41 16t16 42t-16 41q-15 16 -41 16t-42 -16z" />
    <glyph glyph-name="nine.sub" horiz-adv-x="286" 
d="M129 -54l-31 18q58 84 85 131q-19 -10 -40 -10q-50 0 -80 30t-30 79t30 79q31 31 80 31t79.5 -31t30.5 -82q0 -33 -16 -68q-14 -33 -32 -63q-7 -11 -76 -114zM195 138q20 22 20 56t-20 55q-20 22 -52 22t-53 -22q-20 -21 -20 -55t20 -56q21 -21 53 -21t52 21z" />
    <glyph glyph-name="comma.sub" horiz-adv-x="129" 
d="M51 -102l-13 13q18 18 23 36q-21 5 -21 24q0 10 7 17t18 7q24 0 24 -28q0 -31 -38 -69z" />
    <glyph glyph-name="period.sub" horiz-adv-x="129" 
d="M40 -29q0 10 7 17t18 7q23 0 23 -24.5t-23 -24.5q-25 0 -25 25z" />
    <glyph glyph-name="parenleft.sub" horiz-adv-x="168" 
d="M133 329v-28q-23 0 -40 -50q-16 -48 -16 -126q0 -76 16 -126t40 -50v-28q-40 0 -67 57q-26 58 -26 147t26 147q27 57 67 57z" />
    <glyph glyph-name="parenright.sub" horiz-adv-x="168" 
d="M35 301v28q41 0 66 -57q27 -57 27 -147t-27 -147q-25 -57 -66 -57v28q24 0 40 50t16 126t-16 126t-40 50z" />
    <glyph glyph-name="hyphen.sub" horiz-adv-x="189" 
d="M149 110h-109v30h109v-30z" />
    <glyph glyph-name="zero.sup" horiz-adv-x="302" 
d="M67 395q-32 50 -32 130q0 79 32 129t84 50t84 -50t32 -129q0 -80 -32 -130q-31 -49 -84 -49t-84 49zM94 630q-22 -40 -22 -105q0 -66 22 -106t57 -40t57 40t22 106q0 65 -22 105q-22 41 -57 41t-57 -41z" />
    <glyph glyph-name="one.sup" horiz-adv-x="178" 
d="M81 668l-55 -10v28l91 16v-352h-36v318z" />
    <glyph glyph-name="two.sup" horiz-adv-x="278" 
d="M35 350v32l152 152q20 20 20 59q0 35 -19 56.5t-50 21.5t-50.5 -22t-19.5 -56h-37q0 50 29.5 80.5t77.5 30.5q47 0 76.5 -31t29.5 -80q0 -51 -32 -83l-128 -129h160v-31h-209z" />
    <glyph glyph-name="three.sup" horiz-adv-x="286" 
d="M143 525h-23v31h23q37 -4 52 35.5t-11 63.5q-18 15 -41 16t-41 -15.5t-16 -41.5h-38q0 40 26.5 65t68.5 25t68 -25t26 -65q0 -52 -43 -73q58 -22 58 -89q0 -47 -30 -76.5t-79 -29.5t-79.5 29.5t-30.5 76.5h37q-4 -48 45 -67t80 14q33 32 14.5 81t-66.5 45z" />
    <glyph glyph-name="four.sup" horiz-adv-x="293" 
d="M226 350h-36v68h-160v18l158 264h37v-251h31v-31h-30v-68zM191 645l-116 -196h116v196z" />
    <glyph glyph-name="five.sup" horiz-adv-x="278" 
d="M244 457q0 -49 -29.5 -80t-76.5 -31q-48 0 -77.5 28.5t-29.5 75.5h36q0 -31 20 -51t51 -20t50 21.5t19 56.5q0 37 -21.5 60.5t-56.5 23.5q-39 0 -58 -21l-27 11l22 169h152v-31h-120l-15 -106q19 11 48 11q50 0 81.5 -32.5t31.5 -84.5z" />
    <glyph glyph-name="six.sup" horiz-adv-x="286" 
d="M157 704l31 -18q-58 -84 -85 -131q17 10 40 10q49 0 79.5 -30t30.5 -79t-30.5 -79.5t-79.5 -30.5q-50 0 -80 30.5t-30 82.5q0 44 23 87q19 36 101 158zM90 511q-20 -21 -20 -55t20 -56q21 -21 53 -21t52 21q20 22 20 56t-20 55q-20 22 -52 22t-53 -22z" />
    <glyph glyph-name="seven.sup" horiz-adv-x="281" 
d="M200 669h-165v31h211v-13l-126 -337h-39z" />
    <glyph glyph-name="eight.sup" horiz-adv-x="287" 
d="M49 614q0 40 26.5 65t68.5 25t68 -25t26 -65q0 -52 -43 -73q58 -22 58 -89q0 -47 -30 -76.5t-79 -29.5t-79.5 29.5t-30.5 76.5q0 67 58 89q-43 21 -43 73zM91 504q-20 -20 -20 -52t20 -53q21 -20 53 -20t52 20q20 21 20 53t-20 52t-52 20t-53 -20zM102 655
q-15 -15 -15 -41t16 -42t41 -16t41 16t16 42t-16 41q-15 16 -41 16t-42 -16z" />
    <glyph glyph-name="nine.sup" horiz-adv-x="286" 
d="M129 346l-31 18q58 84 85 131q-19 -10 -40 -10q-50 0 -80 30t-30 79t30 79q31 31 80 31t79.5 -31t30.5 -82q0 -33 -16 -68q-14 -33 -32 -63q-7 -11 -76 -114zM195 538q20 22 20 56t-20 55q-20 22 -52 22t-53 -22q-20 -21 -20 -55t20 -56q21 -21 53 -21t52 21z" />
    <glyph glyph-name="comma.sup" horiz-adv-x="129" 
d="M51 298l-13 13q18 18 23 36q-21 5 -21 24q0 10 7 17t18 7q24 0 24 -28q0 -31 -38 -69z" />
    <glyph glyph-name="period.sup" horiz-adv-x="129" 
d="M40 371q0 10 7 17t18 7q23 0 23 -24.5t-23 -24.5q-25 0 -25 25z" />
    <glyph glyph-name="parenleft.sup" horiz-adv-x="168" 
d="M133 729v-28q-23 0 -40 -50q-16 -48 -16 -126q0 -76 16 -126t40 -50v-28q-40 0 -67 57q-26 58 -26 147t26 147q27 57 67 57z" />
    <glyph glyph-name="parenright.sup" horiz-adv-x="168" 
d="M35 701v28q41 0 66 -57q27 -57 27 -147t-27 -147q-25 -57 -66 -57v28q24 0 40 50t16 126t-16 126t-40 50z" />
    <glyph glyph-name="hyphen.sup" horiz-adv-x="189" 
d="M149 510h-109v30h109v-30z" />
    <glyph glyph-name="Ugrave.smcp" horiz-adv-x="526" 
d="M404 184v320h54v-320q0 -84 -54 -137q-53 -52 -141 -52t-141.5 52t-53.5 137v320h54v-320q0 -63 39 -101.5t101 -38.5q63 0 102.5 38.5t39.5 101.5zM188 620l27 28l93 -90l-27 -27z" />
    <glyph glyph-name="Udieresis.smcp" horiz-adv-x="526" 
d="M404 184v320h54v-320q0 -84 -54 -137q-53 -52 -141 -52t-141.5 52t-53.5 137v320h54v-320q0 -63 39 -101.5t101 -38.5q63 0 102.5 38.5t39.5 101.5zM169 550q-15 15 -8.5 33t23.5 22.5t33 -8.5t9 -31.5t-24 -24t-33 8.5zM309 550q-23 23 1 47t47 1t-1 -47t-47 -1z" />
    <glyph glyph-name="Ucircumflex.smcp" horiz-adv-x="526" 
d="M404 184v320h54v-320q0 -84 -54 -137q-53 -52 -141 -52t-141.5 52t-53.5 137v320h54v-320q0 -63 39 -101.5t101 -38.5q63 0 102.5 38.5t39.5 101.5zM170 558l93 90l93 -90l-27 -27l-66 63l-65 -63z" />
    <glyph glyph-name="a.ord" horiz-adv-x="259" 
d="M229 477v-25q-10 -2 -16 -2q-29 0 -40 26q-29 -28 -71 -28q-34 0 -52.5 19t-18.5 48q0 36 34 58.5t86 22.5q9 0 19 -2v31q0 20 -13.5 33.5t-37.5 13.5q-35 0 -55 -21l-21 21q30 32 79 32q40 0 62.5 -22.5t22.5 -56.5v-127q0 -21 22 -21zM113 480q36 0 57 24v64
q-3 1 -17 1q-37 0 -60.5 -13.5t-23.5 -36.5q0 -16 11 -27.5t33 -11.5z" />
    <glyph glyph-name="b.ord" horiz-adv-x="307" 
d="M148 448q-66 0 -100 39h-1v378h37v-182q32 21 70 21q55 0 88.5 -35.5t33.5 -92.5t-35 -92.5t-93 -35.5zM238 576q0 42 -25 67q-24 27 -64 27q-39 0 -65 -27v-146q4 0 28 -8q21 -7 38 -7q39 0 63.5 26t24.5 68z" />
    <glyph glyph-name="c.ord" horiz-adv-x="274" 
d="M69 576q0 -42 25 -68t65 -26q42 0 66 26l23 -23q-31 -37 -91 -37q-57 0 -91.5 35.5t-34.5 92.5t34.5 92.5t91.5 35.5q58 0 91 -38l-23 -23q-24 27 -66 27q-40 0 -65 -26.5t-25 -67.5z" />
    <glyph glyph-name="d.ord" horiz-adv-x="308" 
d="M262 865v-413h-38v21q-29 -25 -74 -25q-53 0 -86 35.5t-33 92.5t34.5 92.5t90.5 35.5q37 0 68 -19v180h38zM69 576q0 -42 25 -68t65 -26q43 0 65 25v138q-25 25 -65 25t-65 -26.5t-25 -67.5z" />
    <glyph glyph-name="e.ord" horiz-adv-x="290" 
d="M261 566h-190q2 -38 26.5 -61t63.5 -23q41 0 67 26l23 -23q-34 -37 -93 -37q-57 0 -92 35.5t-35 93.5q0 57 32.5 92t85.5 35t82.5 -37t29.5 -101zM71 593h152q-4 36 -23 56.5t-51 20.5q-33 0 -54 -20.5t-24 -56.5z" />
    <glyph glyph-name="egrave.ord" horiz-adv-x="290" 
d="M261 566h-190q2 -38 26.5 -61t63.5 -23q41 0 67 26l23 -23q-34 -37 -93 -37q-57 0 -92 35.5t-35 93.5q0 57 32.5 92t85.5 35t82.5 -37t29.5 -101zM71 593h152q-4 36 -23 56.5t-51 20.5q-33 0 -54 -20.5t-24 -56.5zM94 803l20 19l68 -68l-20 -19z" />
    <glyph glyph-name="f.ord" horiz-adv-x="187" 
d="M58 669h-35v31h35v86q0 38 22 60.5t59 22.5q17 0 29 -6v-32q-12 5 -23 5q-22 0 -35 -13.5t-13 -36.5v-86h71v-31h-71v-217h-39v217z" />
    <glyph glyph-name="g.ord" horiz-adv-x="288" 
d="M18 387q0 50 57 68q-32 14 -32 41q0 28 35 42q-43 22 -43 75q0 41 26.5 66t69.5 25q41 0 66 -22q19 22 42 22q2 0 7.5 -0.5t6.5 -0.5v-31q-2 1 -11 1q-13 0 -26 -13q11 -20 11 -46q0 -39 -27 -63.5t-70 -24.5q-24 0 -37.5 -8t-13.5 -21q0 -12 17 -20t44 -8q52 0 83.5 -21
t31.5 -55q0 -36 -35.5 -59.5t-89.5 -23.5q-51 0 -81.5 21.5t-30.5 55.5zM57 387q0 -21 19 -33.5t53 -12.5q37 0 62 14.5t25 37.5q0 20 -21 33t-55 13q-38 0 -60.5 -14.5t-22.5 -37.5zM132 556q26 0 42.5 16t16.5 42t-16.5 42.5t-42.5 16.5q-27 0 -43 -16.5t-16 -42.5t16 -42
t43 -16z" />
    <glyph glyph-name="h.ord" horiz-adv-x="299" 
d="M47 452v413h37v-187q34 26 73 26q42 0 68 -28.5t26 -73.5v-150h-38v150q0 30 -18 49t-46 19q-41 0 -65 -27v-191h-37z" />
    <glyph glyph-name="i.ord" horiz-adv-x="131" 
d="M84 452h-37v248h37v-248zM66 800q16 0 22 -13t0 -26t-22 -13t-22.5 13t0 26t22.5 13z" />
    <glyph glyph-name="j.ord" horiz-adv-x="131" 
d="M46 755q-11 11 -6 26t18 18.5t25 -7.5q18 -18 0 -36t-37 -1zM15 315v24q31 0 31 30v331h38v-332q0 -26 -14 -41t-37 -15q-13 0 -18 3z" />
    <glyph glyph-name="k.ord" horiz-adv-x="265" 
d="M84 581v-129h-37v413h37v-279l101 114h46l-105 -116l117 -132h-45z" />
    <glyph glyph-name="l.ord" horiz-adv-x="146" 
d="M117 477v-25q-10 -2 -19 -2q-23 0 -37 15t-14 41v359h37v-358q0 -30 33 -30z" />
    <glyph glyph-name="m.ord" horiz-adv-x="430" 
d="M383 452h-38v168q0 22 -13 36t-34 14q-43 0 -68 -25q3 -12 3 -25v-168h-37v168q0 22 -13 36t-34 14q-41 0 -65 -27v-191h-37v248h37v-22q34 26 73 26q42 0 63 -34q34 34 87 34q34 0 55 -23.5t21 -60.5v-168z" />
    </font>
</defs>
</svg>
