<?xml version="1.0" standalone="no"?>
<!DOCTYPE svg PUBLIC "-//W3C//DTD SVG 1.1//EN" "http://www.w3.org/Graphics/SVG/1.1/DTD/svg11.dtd" >
<svg xmlns="http://www.w3.org/2000/svg" xmlns:xlink="http://www.w3.org/1999/xlink" version="1.1">
<metadata>
Created by FontForge 20170731 at Wed May 28 20:45:00 2014
 By Aleksey,,,
Copyright (c) 2014 by Andriy Konstantynov. All rights reserved.
</metadata>
<defs>
<font id="ProbaPro-Thin" horiz-adv-x="210" >
  <font-face 
    font-family="Proba Pro Th"
    font-weight="100"
    font-stretch="normal"
    units-per-em="1000"
    panose-1="2 13 0 3 3 2 0 0 0 0"
    ascent="748"
    descent="-252"
    x-height="450"
    cap-height="700"
    bbox="-19 -255 1127 973"
    underline-thickness="50"
    underline-position="-250"
    unicode-range="U+0020-FB03"
  />
<missing-glyph horiz-adv-x="230" 
 />
    <glyph glyph-name="ff" unicode="ff" horiz-adv-x="540" 
d="M360 0h-20v430h-215v-430h-20v430h-70v20h70v180q0 56 33.5 90.5t88.5 34.5q27 0 53 -10v-23q-22 13 -53 13q-46 0 -74 -29t-28 -76v-180h215v180q0 56 33.5 90.5t88.5 34.5q27 0 53 -10v-23q-22 13 -53 13q-46 0 -74 -29t-28 -76v-180h155v-20h-155v-430z" />
    <glyph glyph-name="fi" unicode="fi" horiz-adv-x="455" 
d="M360 0h-20v430h-215v-430h-20v430h-70v20h70v180q0 56 33.5 90.5t88.5 34.5q27 0 53 -10v-23q-22 13 -53 13q-46 0 -74 -29t-28 -76v-180h235v-450zM332 567q-11 11 -6 24.5t17 17t24 -5.5q12 -11 7 -25t-17.5 -17.5t-24.5 6.5z" />
    <glyph glyph-name="ffi" unicode="ffi" horiz-adv-x="690" 
d="M595 0h-20v430h-215v-430h-20v430h-215v-430h-20v430h-70v20h70v180q0 56 33.5 90.5t88.5 34.5q27 0 53 -10v-23q-22 13 -53 13q-46 0 -74 -29t-28 -76v-180h215v180q0 56 33.5 90.5t88.5 34.5q27 0 53 -10v-23q-22 13 -53 13q-46 0 -74 -29t-28 -76v-180h235v-450z
M567 567q-17 17 1 35t35 1t-1 -35t-35 -1z" />
    <glyph glyph-name="f_j" unicode="fj" horiz-adv-x="455" 
d="M272 -250v15q68 0 68 63v602h-215v-430h-20v430h-70v20h70v180q0 56 33.5 90.5t88.5 34.5q27 0 53 -10v-23q-22 13 -53 13q-46 0 -74 -29t-28 -76v-180h235v-622q0 -37 -20 -59t-48 -22q-16 0 -20 3zM332 567q-11 11 -6 24.5t17 17t24 -5.5q12 -11 7 -25t-17.5 -17.5
t-24.5 6.5z" />
    <glyph glyph-name="afii10104_afii10104" unicode="&#x457;&#x457;" horiz-adv-x="420" 
d="M115 0h-20v450h20v-450zM22 537q-11 11 -6 24.5t17 17t24 -5.5q12 -11 7 -25t-17.5 -17.5t-24.5 6.5zM325 0h-20v450h20v-450zM362 537q-11 11 -6 24.5t17 17t24 -5.5q12 -11 7 -25t-17.5 -17.5t-24.5 6.5zM192 537q-11 11 -6 24.5t17 17t24 -5.5q12 -11 7 -25
t-17.5 -17.5t-24.5 6.5z" />
    <glyph glyph-name="afii10103_afii10104" unicode="&#x456;&#x457;" horiz-adv-x="420" 
d="M325 0h-20v450h20v-450zM232 537q-11 11 -6 24.5t17 17t24 -5.5q12 -11 7 -25t-17.5 -17.5t-24.5 6.5zM362 537q-11 11 -6 24.5t17 17t24 -5.5q12 -11 7 -25t-17.5 -17.5t-24.5 6.5zM115 0h-20v450h20v-450zM87 567q-17 17 1 35t35 1t-1 -35t-35 -1z" />
    <glyph glyph-name="quoteright_afii10104" unicode="&#x2019;&#x457;" horiz-adv-x="270" 
d="M43 542l-13 13q36 36 36 60q-11 0 -18.5 7.5t-7.5 17.5q0 11 7.5 18t18.5 7q24 0 24 -33q0 -43 -47 -90zM175 0h-20v450h20v-450zM212 537q-11 11 -6 24.5t17 17t24 -5.5q12 -11 7 -25t-17.5 -17.5t-24.5 6.5z" />
    <glyph glyph-name="afii10056_afii10056" unicode="&#x407;&#x407;" horiz-adv-x="420" 
d="M17 777q-17 17 1 35t35 1t-1 -35t-35 -1zM367 777q-17 17 1 35t35 1t-1 -35t-35 -1zM191 777q-17 17 1 35t35 1t-1 -35t-35 -1zM115 0h-20v700h20v-700zM325 0h-20v700h20v-700z" />
    <glyph glyph-name="f_f_j" unicode="ffj" horiz-adv-x="690" 
d="M507 -250v15q68 0 68 63v602h-215v-430h-20v430h-215v-430h-20v430h-70v20h70v180q0 56 33.5 90.5t88.5 34.5q27 0 53 -10v-23q-22 13 -53 13q-46 0 -74 -29t-28 -76v-180h215v180q0 56 33.5 90.5t88.5 34.5q27 0 53 -10v-23q-22 13 -53 13q-46 0 -74 -29t-28 -76v-180
h235v-622q0 -37 -20 -59t-48 -22q-15 0 -20 3zM567 567q-17 17 1 35t35 1t-1 -35t-35 -1z" />
    <glyph glyph-name=".notdef" horiz-adv-x="230" 
 />
    <glyph glyph-name=".null" horiz-adv-x="0" 
 />
    <glyph glyph-name="nonmarkingreturn" horiz-adv-x="333" 
 />
    <glyph glyph-name="space" unicode=" " horiz-adv-x="230" 
 />
    <glyph glyph-name="exclam" unicode="!" 
d="M87 2q-11 10 -6.5 24t17.5 17.5t25 -6.5q10 -10 5.5 -24t-17 -17.5t-24.5 6.5zM115 175h-20v525h20v-525z" />
    <glyph glyph-name="quotedbl" unicode="&#x22;" horiz-adv-x="351" 
d="M115 450h-20v250h20v-250zM255 450h-20v250h20v-250z" />
    <glyph glyph-name="numbersign" unicode="#" horiz-adv-x="582" 
d="M356 0h-21l34 200h-209l-34 -200h-21l34 200h-89v20h93l44 260h-93v20h97l34 200h21l-35 -200h210l34 200h21l-35 -200h91v-20h-94l-45 -260h97v-20h-100zM417 480h-209l-45 -260h210z" />
    <glyph glyph-name="dollar" unicode="$" horiz-adv-x="502" 
d="M256 -100h-20v95q-125 5 -188 79l14 14q58 -71 174 -73v335q-71 27 -120 63q-56 42 -56 121q0 69 43 119q43 51 133 52v95h20v-96q103 -8 161 -70l-15 -15q-52 58 -146 65v-319q11 -4 24.5 -9.5t15.5 -6.5q8 -3 36 -17q23 -11 36 -20q40 -27 54 -52q20 -35 20 -77
q0 -69 -47 -127q-46 -55 -139 -60v-96zM422 183q0 66 -53 102q-26 18 -50 29q-30 15 -63 28v-327q85 4 125 56q41 53 41 112zM80 534q0 -59 37 -93.5t119 -67.5v312q-79 0 -118 -46q-38 -46 -38 -105z" />
    <glyph glyph-name="percent" unicode="%" horiz-adv-x="797" 
d="M232 0h-23l357 700h23zM91 438q-41 44 -41 112t41 112q42 43 109 43q68 0 108 -43q42 -44 42 -112t-42 -112q-40 -43 -108 -43q-67 0 -109 43zM106 647q-36 -37 -36 -97t36 -98q36 -37 94 -37t94 37q36 38 36 98t-36 97q-36 38 -94 38t-94 -38zM488 38q-41 44 -41 112
t41 112q42 43 109 43q68 0 108 -43q42 -44 42 -112t-42 -112q-40 -43 -108 -43q-67 0 -109 43zM503 247q-36 -37 -36 -97t36 -98q36 -37 94 -37t94 37t36 98q0 60 -36 97q-36 38 -94 38t-94 -38z" />
    <glyph glyph-name="ampersand" unicode="&#x26;" horiz-adv-x="620" 
d="M450 375h-100v20h220v-20h-100v-180q0 -89 -57 -145q-56 -55 -148 -55t-148 55q-57 56 -57 145q0 72 39 123t105 68q-49 17 -76.5 57.5t-27.5 96.5q0 74 46 119q46 46 119 46t119 -46q46 -45 46 -119h-20q0 64 -40 104q-41 41 -105 41t-105 -41q-40 -40 -40 -104
t40 -104.5t105 -40.5h31v-20h-31q-81 0 -134 -50q-51 -49 -51 -130t51 -130q53 -50 134 -50t133 50q52 49 52 130v180z" />
    <glyph glyph-name="quotesingle" unicode="'" 
d="M115 450h-20v250h20v-250z" />
    <glyph glyph-name="parenleft" unicode="(" horiz-adv-x="305" 
d="M235 755v-20q-57 0 -96 -137q-39 -136 -39 -348t39 -348q39 -137 96 -137v-20q-66 0 -111 142q-44 143 -44 363t44 363q45 142 111 142z" />
    <glyph glyph-name="parenright" unicode=")" horiz-adv-x="305" 
d="M70 735v20q67 0 110 -142q45 -141 45 -363t-45 -363q-43 -142 -110 -142v20q57 0 96 137q39 136 39 348t-39 348q-39 137 -96 137z" />
    <glyph glyph-name="asterisk" unicode="*" horiz-adv-x="438" 
d="M307 398l-88 121l-88 -122l-16 13l88 121l-143 46l7 19l142 -46v150h20v-150l144 47l5 -19l-143 -47l89 -122z" />
    <glyph glyph-name="plus" unicode="+" horiz-adv-x="450" 
d="M215 295h-135v20h135v135h20v-135h135v-20h-135v-135h-20v135z" />
    <glyph glyph-name="comma" unicode="," 
d="M83 -78l-13 13q36 36 36 60q-11 0 -18.5 7.5t-7.5 17.5q0 11 7.5 18t18.5 7q24 0 24 -33q0 -43 -47 -90z" />
    <glyph glyph-name="hyphen" unicode="-" horiz-adv-x="340" 
d="M260 250h-180v20h180v-20z" />
    <glyph glyph-name="period" unicode="." 
d="M87 2q-11 10 -6.5 24t17.5 17.5t25 -6.5q10 -10 5.5 -24t-17 -17.5t-24.5 6.5z" />
    <glyph glyph-name="slash" unicode="/" horiz-adv-x="530" 
d="M97 -50h-22l358 800h22z" />
    <glyph glyph-name="zero" unicode="0" horiz-adv-x="570" 
d="M122 93q-62 100 -62 257q0 158 62 256q63 99 163 99q101 0 162 -99q63 -98 63 -256t-63 -257q-62 -98 -162 -98t-163 98zM137 592q-57 -93 -57 -242t57 -242t148 -93t148 93t57 242t-57 242t-148 93t-148 -93z" />
    <glyph glyph-name="one" unicode="1" horiz-adv-x="285" 
d="M145 679l-110 -24v20l130 28v-703h-20v679z" />
    <glyph glyph-name="two" unicode="2" horiz-adv-x="510" 
d="M66 0v28l312 312q52 52 52 152q0 84 -50 139q-50 54 -128 54t-128 -54q-49 -52 -49 -139h-20q0 96 54 154q56 59 143 59q89 0 143 -59q55 -58 55 -154q0 -109 -57 -166l-306 -306h363v-20h-384z" />
    <glyph glyph-name="three" unicode="3" horiz-adv-x="525" 
d="M260 375h-46v20h46q64 0 104 40q41 41 41 105q0 63 -41 104t-104 41q-64 0 -104.5 -40.5t-40.5 -104.5h-20q0 74 45.5 119.5t119.5 45.5t119.5 -45.5t45.5 -119.5q0 -56 -27.5 -96.5t-76.5 -57.5q66 -17 105 -68t39 -123q0 -89 -57 -145q-56 -55 -148 -55t-148 55
q-57 56 -57 145h20q0 -81 51 -130q53 -50 134 -50t133 50q52 49 52 130t-52 130q-52 50 -133 50z" />
    <glyph glyph-name="four" unicode="4" horiz-adv-x="527" 
d="M398 0h-20v150h-328v20l324 530h24v-530h69v-20h-69v-150zM378 666l-304 -496h304v496z" />
    <glyph glyph-name="five" unicode="5" horiz-adv-x="510" 
d="M450 208q0 -96 -55 -154q-54 -59 -143 -59q-87 0 -143 53q-54 52 -54 139h20q0 -77 49 -125q50 -47 128 -47t128 54q50 55 50 139q0 94 -54 152t-141 58q-89 0 -145 -50l-14 14l48 318h277v-20h-259l-44 -280q56 38 137 38q97 0 155 -64q60 -63 60 -166z" />
    <glyph glyph-name="six" unicode="6" horiz-adv-x="530" 
d="M302 705l17 -10l-176 -305q53 35 122 35q93 0 152 -60q58 -58 58 -155t-58 -156q-59 -59 -152 -59t-152 59q-58 59 -58 156q0 29 5 61q4 19 31 73q13 26 31 56l43 73l61 101q24 40 76 131zM127 351q-52 -53 -52 -141t52 -141q53 -54 138 -54t137 54q53 55 53 141t-53 141
q-52 54 -137 54t-138 -54z" />
    <glyph glyph-name="seven" unicode="7" horiz-adv-x="507" 
d="M424 680h-364v20h387v-20l-275 -680h-23z" />
    <glyph glyph-name="eight" unicode="8" horiz-adv-x="530" 
d="M100 540q0 74 46 119q46 46 119 46t119 -46q46 -45 46 -119q0 -56 -27.5 -96.5t-76.5 -57.5q66 -17 105 -68t39 -123q0 -89 -57 -145q-56 -55 -148 -55t-148 55q-57 56 -57 145q0 72 39 123t105 68q-49 17 -76.5 57.5t-27.5 96.5zM131 325q-51 -49 -51 -130t51 -130
q53 -50 134 -50t133 50q52 49 52 130t-52 130q-52 50 -133 50t-134 -50zM160 644q-40 -40 -40 -104q0 -65 40 -105t105 -40t105 40t40 105q0 64 -40 104q-41 41 -105 41t-105 -41z" />
    <glyph glyph-name="nine" unicode="9" horiz-adv-x="530" 
d="M228 -5l-17 10l176 305q-53 -35 -122 -35q-93 0 -152 59q-58 59 -58 156t58 155q59 60 152 60t152 -60q58 -58 58 -155q0 -32 -6 -61q-3 -19 -30 -73q-6 -12 -32 -57l-43 -72l-60 -102q-36 -60 -76 -130zM402 349q53 55 53 141t-53 141q-52 54 -137 54t-138 -54
q-52 -53 -52 -141t52 -141q53 -54 138 -54t137 54z" />
    <glyph glyph-name="colon" unicode=":" 
d="M87 2q-11 10 -6.5 24t17.5 17.5t25 -6.5q10 -10 5.5 -24t-17 -17.5t-24.5 6.5zM87 412q-11 10 -6.5 24t17.5 17.5t25 -6.5q10 -10 5.5 -24t-17 -17.5t-24.5 6.5z" />
    <glyph glyph-name="semicolon" unicode=";" 
d="M83 -78l-13 13q36 36 36 60q-11 0 -18.5 7.5t-7.5 17.5q0 11 7.5 18t18.5 7q24 0 24 -33q0 -43 -47 -90zM87 412q-11 10 -6.5 24t17.5 17.5t25 -6.5q10 -10 5.5 -24t-17 -17.5t-24.5 6.5z" />
    <glyph glyph-name="less" unicode="&#x3c;" horiz-adv-x="410" 
d="M330 128l-14 -14l-266 186l266 186l14 -14l-247 -172z" />
    <glyph glyph-name="equal" unicode="=" horiz-adv-x="500" 
d="M420 350h-340v20h340v-20zM420 180h-340v20h340v-20z" />
    <glyph glyph-name="greater" unicode="&#x3e;" horiz-adv-x="410" 
d="M84 486l266 -186l-266 -186l-14 14l247 172l-247 172z" />
    <glyph glyph-name="question" unicode="?" horiz-adv-x="462" 
d="M65 619l-15 15q65 71 180 71q90 -1 135 -52.5t42 -120.5q0 -15 -2 -28t-4.5 -22.5t-9 -20.5t-9.5 -16.5t-13 -15.5l-13 -13t-15.5 -13.5t-14.5 -12.5q-25 -21 -39 -36t-27.5 -48t-13.5 -76v-55h-20v55q0 54 16.5 92t40 58.5t47.5 39t40.5 46t16.5 66.5q0 62 -39 107
q-37 46 -117 46q-48 0 -93.5 -18t-72.5 -48zM218 2q-11 10 -6 24t17.5 17.5t23.5 -6.5q12 -9 7 -23t-17.5 -18t-24.5 6z" />
    <glyph glyph-name="at" unicode="@" horiz-adv-x="1040" 
d="M869 -99l13 -13q-63 -68 -156 -105.5t-202 -37.5q-210 0 -340 133q-129 133 -129 347t129 347q130 133 338 133q142 0 248 -61q106 -59 160.5 -157.5t54.5 -221.5q0 -147 -72 -212q-64 -58 -139 -58q-87 0 -100 49q-58 -49 -146 -49q-102 0 -163 63q-62 65 -62 167
q0 104 61 166q61 64 161 64q106 0 167 -55v-340q0 -21 22 -33t59 -12q67 0 126 53q66 61 66 197q0 113 -51 207q-50 96 -152 154q-103 59 -238 59q-199 0 -324 -128t-125 -332t125 -332t325 -128q105 0 195 35.5t149 100.5zM528 15q88 0 144 54v321q-56 45 -147 45
q-92 0 -147 -58t-55 -152q0 -93 56 -152q57 -58 149 -58z" />
    <glyph glyph-name="A" unicode="A" horiz-adv-x="732" 
d="M687 0h-22l-110 250h-378l-110 -250h-22l310 700h22zM546 270l-180 408l-180 -408h360z" />
    <glyph glyph-name="B" unicode="B" horiz-adv-x="532" 
d="M290 0h-190v700h160q78 0 125.5 -48t47.5 -127q0 -57 -26.5 -99t-72.5 -61q63 -13 100.5 -61t37.5 -118q0 -84 -50.5 -135t-131.5 -51zM452 186q0 74 -44.5 119t-117.5 45h-170v-330h170q73 0 117.5 45.5t44.5 120.5zM260 680h-140v-310h140q69 0 111 42.5t42 112.5
t-42 112.5t-111 42.5z" />
    <glyph glyph-name="C" unicode="C" horiz-adv-x="708" 
d="M405 15q148 0 238 96l15 -14q-96 -102 -253 -102q-154 0 -250 98q-95 100 -95 257q0 158 95 256q96 99 250 99q155 0 253 -102l-15 -15q-91 97 -238 97q-145 0 -235 -93t-90 -242t90 -242t235 -93z" />
    <glyph glyph-name="D" unicode="D" horiz-adv-x="685" 
d="M280 0h-180v700h180q154 0 249 -96q96 -96 96 -254t-96 -254q-95 -96 -249 -96zM280 680h-160v-660h160q146 0 235 90q89 92 89 240t-89 239q-88 91 -235 91z" />
    <glyph glyph-name="E" unicode="E" horiz-adv-x="520" 
d="M455 680h-335v-315h300v-20h-300v-325h340v-20h-360v700h355v-20z" />
    <glyph glyph-name="F" unicode="F" horiz-adv-x="487" 
d="M435 680h-315v-315h275v-20h-275v-345h-20v700h335v-20z" />
    <glyph glyph-name="G" unicode="G" horiz-adv-x="758" 
d="M638 330h-233v20h253v-254q-95 -101 -253 -101q-154 0 -250 98q-95 100 -95 257q0 158 95 256q96 99 250 99q155 0 253 -102l-15 -15q-91 97 -238 97q-145 0 -235 -93t-90 -242t90 -242t235 -93q143 0 233 90v225z" />
    <glyph glyph-name="H" unicode="H" horiz-adv-x="700" 
d="M100 700h20v-335h460v335h20v-700h-20v345h-460v-345h-20v700z" />
    <glyph glyph-name="I" unicode="I" 
d="M115 0h-20v700h20v-700z" />
    <glyph glyph-name="J" unicode="J" horiz-adv-x="456" 
d="M341 180v520h20v-520q0 -82 -50 -134q-49 -51 -130 -51t-131 53l14 15q45 -48 117 -48t115 46q45 47 45 119z" />
    <glyph glyph-name="K" unicode="K" horiz-adv-x="565" 
d="M115 0h-20v700h20v-700zM515 0h-25l-343 358l323 342h25l-323 -342z" />
    <glyph glyph-name="L" unicode="L" horiz-adv-x="470" 
d="M100 700h20v-680h300v-20h-320v700z" />
    <glyph glyph-name="M" unicode="M" horiz-adv-x="826" 
d="M726 0h-20v655l-282 -475h-22l-282 475v-655h-20v700h18l295 -500l295 500h18v-700z" />
    <glyph glyph-name="N" unicode="N" horiz-adv-x="720" 
d="M100 0v700h20l480 -666v666h20v-700h-20l-480 666v-666h-20z" />
    <glyph glyph-name="O" unicode="O" horiz-adv-x="810" 
d="M155 93q-95 100 -95 257q0 158 95 256q96 99 250 99q155 0 249 -99q96 -97 96 -256q0 -158 -96 -257q-95 -98 -249 -98t-250 98zM170 592q-90 -93 -90 -242t90 -242t235 -93t235 93t90 242t-90 242t-235 93t-235 -93z" />
    <glyph glyph-name="P" unicode="P" horiz-adv-x="505" 
d="M120 0h-20v700h165q81 0 130.5 -50t49.5 -133q0 -82 -49.5 -132t-130.5 -50h-145v-335zM265 680h-145v-325h145q72 0 116 44.5t44 117.5t-44 118t-116 45z" />
    <glyph glyph-name="Q" unicode="Q" horiz-adv-x="810" 
d="M767 -16l-14 -14l-111 111q-95 -86 -237 -86q-154 0 -250 98q-95 100 -95 257q0 158 95 256q96 99 250 99q155 0 249 -99q96 -97 96 -256q0 -157 -94 -255zM404 15q136 0 223 81l-135 135l14 14l135 -135q88 92 88 240q0 149 -90 242t-235 93t-235 -93q-89 -94 -89 -242
t89 -242q90 -93 235 -93z" />
    <glyph glyph-name="R" unicode="R" horiz-adv-x="515" 
d="M470 0h-24l-196 335h-130v-335h-20v700h170q81 0 130.5 -50t49.5 -133q0 -82 -49 -131q-50 -50 -128 -51zM270 680h-150v-325h150q72 0 116 44.5t44 117.5t-44 118t-116 45z" />
    <glyph glyph-name="S" unicode="S" horiz-adv-x="502" 
d="M417 634l-15 -15q-27 30 -72.5 48t-93.5 18q-79 0 -118 -46q-38 -46 -38 -105q0 -46 27 -81q9 -11 20.5 -21t21 -16.5t26.5 -15t25.5 -12t30.5 -13t30 -12.5q47 -19 87 -39q42 -19 68 -56t26 -85q0 -72 -50 -131q-50 -57 -150 -57q-58 0 -110 21t-84 58l14 14
q29 -35 78 -54t102 -19q48 0 85 16.5t56.5 42.5t29 53.5t9.5 55.5q0 95 -128 144q-3 1 -34 12.5t-37.5 15t-33.5 15t-35.5 18t-29 20t-28 25t-18.5 27.5t-14.5 34.5t-3.5 39.5q0 70 43 120q43 51 134 51q115 0 180 -71z" />
    <glyph glyph-name="T" unicode="T" horiz-adv-x="558" 
d="M510 680h-220v-680h-20v680h-220v20h460v-20z" />
    <glyph glyph-name="U" unicode="U" horiz-adv-x="696" 
d="M575 250v450h21v-450q0 -114 -69 -185q-69 -70 -179 -70q-111 0 -180 70q-68 71 -68 185v450h20v-450q0 -106 63 -170q63 -65 164 -65q102 0 165 65q63 64 63 170z" />
    <glyph glyph-name="V" unicode="V" horiz-adv-x="732" 
d="M664 700h23l-310 -700h-22l-310 700h23l298 -677z" />
    <glyph glyph-name="W" unicode="W" horiz-adv-x="1172" 
d="M1105 700h22l-275 -700h-22l-244 671l-244 -671h-22l-275 700h22l264 -675l244 675h22l244 -675z" />
    <glyph glyph-name="X" unicode="X" horiz-adv-x="700" 
d="M650 0h-25l-275 338l-275 -338h-25l287 353l-282 347h25l270 -332l270 332h25l-283 -347z" />
    <glyph glyph-name="Y" unicode="Y" horiz-adv-x="650" 
d="M335 0h-20v322l-270 378h25l255 -357l255 357h25l-270 -378v-322z" />
    <glyph glyph-name="Z" unicode="Z" horiz-adv-x="625" 
d="M535 680h-467v20h492v-20l-475 -660h480v-20h-505v20z" />
    <glyph glyph-name="bracketleft" unicode="[" horiz-adv-x="295" 
d="M95 750h130v-20h-110v-960h110v-20h-130v1000z" />
    <glyph glyph-name="backslash" unicode="\" horiz-adv-x="530" 
d="M75 750h22l358 -800h-22z" />
    <glyph glyph-name="bracketright" unicode="]" horiz-adv-x="295" 
d="M180 730h-110v20h130v-1000h-130v20h110v960z" />
    <glyph glyph-name="asciicircum" unicode="^" horiz-adv-x="472" 
d="M50 463l186 186l186 -186l-14 -14l-172 172l-172 -172z" />
    <glyph glyph-name="underscore" unicode="_" horiz-adv-x="450" 
d="M450 -120h-450v20h450v-20z" />
    <glyph glyph-name="grave" unicode="`" horiz-adv-x="260" 
d="M70 635l14 14l106 -106l-14 -14z" />
    <glyph glyph-name="a" unicode="a" horiz-adv-x="442" 
d="M390 15v-15q-4 -3 -16 -3q-19 0 -33 12.5t-18 34.5q-58 -49 -136 -49q-62 0 -94.5 33t-32.5 82q0 65 61 102q62 38 163 38q24 0 38 -3v84q0 44 -30 74t-85 30q-72 0 -112 -40l-14 14q45 46 126 46q65 0 100 -35.5t35 -88.5v-273q0 -43 48 -43zM187 15q79 0 135 56v157
q-22 2 -37 2q-93 0 -149 -32.5t-56 -87.5q0 -40 26.5 -67.5t80.5 -27.5z" />
    <glyph glyph-name="b" unicode="b" horiz-adv-x="539" 
d="M262 -5q-106 0 -167 55v700h20v-342q59 47 144 47q102 0 163 -64q62 -64 62 -166q0 -103 -61 -167q-61 -63 -161 -63zM259 435q-89 0 -144 -54v-321q55 -45 147 -45q91 0 146 58q56 59 56 152t-57 152q-55 58 -148 58z" />
    <glyph glyph-name="c" unicode="c" horiz-adv-x="490" 
d="M280 15q93 0 150 60l14 -15q-62 -65 -164 -65q-101 0 -163 63q-62 65 -62 167t62 166q61 64 163 64t164 -66l-14 -14q-57 60 -150 60q-92 0 -149 -58q-56 -59 -56 -152t56 -152q57 -58 149 -58z" />
    <glyph glyph-name="d" unicode="d" horiz-adv-x="542" 
d="M447 750v-750h-20v44q-59 -49 -147 -49q-101 0 -163 63q-62 65 -62 167t62 166q61 64 163 64q88 0 147 -50v345h20zM280 15q91 0 147 56v307q-57 57 -147 57q-92 0 -149 -58q-56 -59 -56 -152t56 -152q57 -58 149 -58z" />
    <glyph glyph-name="e" unicode="e" horiz-adv-x="515" 
d="M460 225h-385q0 -93 56 -152q57 -58 149 -58q93 0 150 60l14 -15q-62 -65 -164 -65q-101 0 -163 63q-62 65 -62 169q0 101 57 164q58 64 149 64t145 -64q54 -63 54 -166zM262 435q-77 0 -129 -52q-52 -50 -58 -138h364q-6 87 -53.5 138.5t-123.5 51.5z" />
    <glyph glyph-name="f" unicode="f" horiz-adv-x="305" 
d="M105 430h-70v20h70v180q0 56 33.5 90.5t88.5 34.5q27 0 53 -10v-23q-22 13 -53 13q-46 0 -74 -29t-28 -76v-180h155v-20h-155v-430h-20v430z" />
    <glyph glyph-name="g" unicode="g" horiz-adv-x="490" 
d="M35 -125q0 47 30.5 81t84.5 48q-70 21 -70 75q0 27 20.5 48t57.5 31q-45 16 -69 53t-24 88q0 70 44 113t116 43q61 0 103 -33q34 33 79 33q5 0 23 -2v-20q-18 2 -21 2q-37 0 -66 -26q42 -42 42 -109q0 -69 -45 -112t-117 -43q-56 0 -89.5 -18t-33.5 -47t38 -47t102 -18
q90 0 142.5 -34.5t52.5 -92.5q0 -62 -62 -103q-61 -40 -153 -40q-84 0 -134.5 36t-50.5 94zM55 -125q0 -49 45 -79.5t120 -30.5q83 0 139 35t56 88q0 48 -48 77.5t-126 29.5q-86 0 -136 -33t-50 -87zM124 397q-39 -37 -39 -97t39 -98q38 -37 101 -37t101 37q39 38 39 98
t-39 97q-40 38 -101 38t-101 -38z" />
    <glyph glyph-name="h" unicode="h" horiz-adv-x="532" 
d="M95 0v750h20v-344q59 49 147 49q76 0 123 -48.5t47 -126.5v-280h-20v280q0 69 -41.5 112t-108.5 43q-90 0 -147 -57v-378h-20z" />
    <glyph glyph-name="i" unicode="i" 
d="M115 0h-20v450h20v-450zM87 567q-17 17 1 35t35 1t-1 -35t-35 -1z" />
    <glyph glyph-name="j" unicode="j" 
d="M87 567q-17 17 1 35t35 1t-1 -35t-35 -1zM27 -250v15q68 0 68 63v622h20v-622q0 -37 -20 -59t-48 -22q-15 0 -20 3z" />
    <glyph glyph-name="k" unicode="k" horiz-adv-x="443" 
d="M115 750v-750h-20v750h20zM393 0h-27l-237 238l212 212h27l-212 -212z" />
    <glyph glyph-name="l" unicode="l" horiz-adv-x="235" 
d="M183 15v-15q-5 -3 -20 -3q-28 0 -48 22t-20 59v672h20v-672q0 -63 68 -63z" />
    <glyph glyph-name="m" unicode="m" horiz-adv-x="764" 
d="M669 0h-20v320q0 51 -30.5 83t-79.5 32q-95 0 -155 -65q8 -26 8 -50v-320h-20v320q0 51 -30.5 83t-79.5 32q-90 0 -147 -57v-378h-20v450h20v-44q59 49 147 49q79 0 113 -64q64 64 164 64q58 0 94 -37.5t36 -97.5v-320z" />
    <glyph glyph-name="n" unicode="n" horiz-adv-x="527" 
d="M95 0v450h20v-44q59 49 147 49q76 0 123 -48.5t47 -126.5v-280h-20v280q0 69 -41.5 112t-108.5 43q-90 0 -147 -57v-378h-20z" />
    <glyph glyph-name="o" unicode="o" horiz-adv-x="560" 
d="M117 58q-62 65 -62 167t62 166q61 64 163 64t163 -64q62 -64 62 -166t-62 -167q-61 -63 -163 -63q-101 0 -163 63zM131 377q-56 -59 -56 -152t56 -152q57 -58 149 -58q93 0 148 58q57 59 57 152t-57 152q-55 58 -148 58q-92 0 -149 -58z" />
    <glyph glyph-name="p" unicode="p" horiz-adv-x="542" 
d="M95 -250v700h20v-44q59 49 147 49q102 0 163 -64q62 -64 62 -166t-62 -167q-61 -63 -163 -63q-89 0 -147 49v-294h-20zM262 435q-90 0 -147 -57v-307q56 -56 147 -56q93 0 148 58q57 59 57 152t-57 152q-55 58 -148 58z" />
    <glyph glyph-name="q" unicode="q" horiz-adv-x="539" 
d="M277 455q106 0 167 -55v-650h-20v292q-59 -47 -144 -47q-101 0 -163 63q-62 65 -62 167q0 104 61 166q61 64 161 64zM280 15q88 0 144 54v321q-56 45 -147 45q-92 0 -147 -58t-55 -152q0 -93 56 -152q57 -58 149 -58z" />
    <glyph glyph-name="r" unicode="r" horiz-adv-x="340" 
d="M255 455q4 0 30 -2v-20q-26 2 -30 2q-86 0 -140 -70v-365h-20v450h20v-54q57 59 140 59z" />
    <glyph glyph-name="s" unicode="s" horiz-adv-x="380" 
d="M299 409l-14 -14q-40 40 -108 40q-48 0 -73.5 -27t-25.5 -67q0 -34 24.5 -57t59.5 -36t69.5 -26.5t59 -39t24.5 -63.5q0 -49 -34 -86q-35 -38 -101 -38q-83 0 -130 51l14 14q39 -45 116 -45q56 0 85.5 30.5t29.5 73.5q0 33 -24.5 55t-59 35t-69.5 26.5t-59.5 40
t-24.5 65.5q0 49 30.5 81.5t88.5 32.5q77 0 122 -46z" />
    <glyph glyph-name="t" unicode="t" horiz-adv-x="300" 
d="M95 430h-65v20h65v100h20v-100h150v-20h-150v-315q0 -44 27.5 -72t71.5 -28q29 0 51 13v-23q-26 -10 -51 -10q-53 0 -86 33.5t-33 86.5v315z" />
    <glyph glyph-name="u" unicode="u" horiz-adv-x="542" 
d="M427 450h20v-275q0 -81 -49 -130q-48 -50 -127 -50q-78 0 -128 50q-48 49 -48 130v275h20v-275q0 -71 43 -115.5t113 -44.5t113 44.5t43 115.5v275z" />
    <glyph glyph-name="v" unicode="v" horiz-adv-x="530" 
d="M463 450h22l-209 -450h-22l-209 450h22l198 -428z" />
    <glyph glyph-name="w" unicode="w" horiz-adv-x="798" 
d="M731 450h22l-179 -450h-22l-153 425l-153 -425h-22l-179 450h22l168 -428l153 428h22l153 -428z" />
    <glyph glyph-name="x" unicode="x" horiz-adv-x="496" 
d="M446 0h-25l-173 213l-173 -213h-25l185 228l-180 222h25l168 -207l168 207h25l-181 -222z" />
    <glyph glyph-name="y" unicode="y" horiz-adv-x="530" 
d="M463 450h22l-327 -700h-22l118 250l-209 450h22l198 -428z" />
    <glyph glyph-name="z" unicode="z" horiz-adv-x="465" 
d="M382 430h-319v20h342v-20l-322 -410h322v-20h-345v20z" />
    <glyph glyph-name="braceleft" unicode="{" horiz-adv-x="330" 
d="M280 -235v-20q-53 0 -89 58q-36 59 -36 147v105q0 81 -31 133q-30 52 -74 52v20q44 0 74 52q31 52 31 133v105q0 88 36 147q36 58 89 58v-20q-44 0 -75 -52q-30 -53 -30 -133v-105q0 -71 -23.5 -124t-62.5 -71q39 -19 62.5 -72t23.5 -123v-105q0 -80 30 -133
q31 -52 75 -52z" />
    <glyph glyph-name="bar" unicode="|" 
d="M115 -250h-20v1000h20v-1000z" />
    <glyph glyph-name="braceright" unicode="}" horiz-adv-x="330" 
d="M50 -255v20q44 0 74 52q31 52 31 133v105q0 70 23.5 123t62.5 72q-39 18 -62.5 71t-23.5 124v105q0 81 -31 133q-30 52 -74 52v20q53 0 89 -58q36 -59 36 -147v-105q0 -81 30 -133q31 -52 75 -52v-20q-44 0 -75 -52q-30 -52 -30 -133v-105q0 -88 -36 -147
q-36 -58 -89 -58z" />
    <glyph glyph-name="asciitilde" unicode="~" horiz-adv-x="433" 
d="M70 257h-20q0 40 24.5 65t63.5 25q55 0 80 -37q29 -37 76 -37q31 0 50 19.5t19 50.5h20q0 -41 -24.5 -65.5t-64.5 -24.5q-56 0 -81 37t-74 37q-31 0 -50 -19.5t-19 -50.5z" />
    <glyph glyph-name="exclamdown" unicode="&#xa1;" 
d="M87 412q-11 10 -6.5 24t17.5 17.5t25 -6.5q10 -10 5.5 -24t-17 -17.5t-24.5 6.5zM95 -250v525h20v-525h-20z" />
    <glyph glyph-name="cent" unicode="&#xa2;" horiz-adv-x="490" 
d="M275 -100h-20v96q-89 7 -146 70q-54 63 -54 159q0 97 54 158q56 64 146 71v96h20v-95h5q102 0 164 -66l-14 -14q-57 60 -150 60h-5v-420h5q93 0 150 60l14 -15q-62 -65 -164 -65h-5v-95zM255 16v417q-82 -8 -131 -64.5t-49 -143.5t49 -144t131 -65z" />
    <glyph glyph-name="sterling" unicode="&#xa3;" horiz-adv-x="503" 
d="M128 340h-78v20h78v160q0 84 49 134q50 51 131 51t131 -53l-14 -15q-45 48 -117 48q-71 0 -116 -46q-44 -47 -44 -119v-160h197v-20h-197v-251q38 -2 103 -38t103 -36q31 0 50 19.5t19 50.5h20q0 -41 -24.5 -65.5t-64.5 -24.5q-44 0 -111 37q-68 38 -104 38
q-31 0 -50 -19.5t-19 -50.5h-20q0 37 21.5 61.5t56.5 27.5v251z" />
    <glyph glyph-name="currency" unicode="&#xa4;" horiz-adv-x="500" 
d="M133 402l-83 84l14 14l83 -83q41 38 103 38t103 -38l83 83l14 -14l-84 -84q34 -40 34 -102t-34 -103l84 -83l-14 -14l-83 83q-41 -38 -103 -38t-103 38l-83 -83l-14 14l83 83q-33 42 -33 103q0 62 33 102zM156 397q-36 -37 -36 -97t36 -98q36 -37 94 -37t94 37
q36 38 36 98t-36 97q-36 38 -94 38t-94 -38z" />
    <glyph glyph-name="yen" unicode="&#xa5;" horiz-adv-x="650" 
d="M315 240h-160v20h160v62l-270 378h25l255 -357l255 357h25l-270 -378v-62h160v-20h-160v-110h160v-20h-160v-110h-20v110h-160v20h160v110z" />
    <glyph glyph-name="brokenbar" unicode="&#xa6;" 
d="M115 -250h-20v450h20v-450zM95 750h20v-450h-20v450z" />
    <glyph glyph-name="section" unicode="&#xa7;" horiz-adv-x="415" 
d="M127 430l211 -211l-14 -14l-212 211q-57 57 -57 139q0 67 44 108.5t114 41.5q91 0 147 -65l-14 -15q-51 60 -133 60q-61 0 -99.5 -36.5t-38.5 -94.5q0 -78 52 -124zM288 20l-211 211l14 14l212 -211q57 -57 57 -139q0 -67 -44 -108.5t-114 -41.5q-91 0 -147 65l14 15
q51 -60 133 -60q61 0 99.5 36.5t38.5 94.5q0 72 -52 124z" />
    <glyph glyph-name="dieresis" unicode="&#xa8;" horiz-adv-x="410" 
d="M97 557q-17 17 1 35t35 1t-1 -35t-35 -1zM277 557q-17 17 1 35t35 1t-1 -35t-35 -1z" />
    <glyph glyph-name="copyright" unicode="&#xa9;" horiz-adv-x="810" 
d="M155 93q-95 100 -95 257q0 158 95 256q96 99 250 99q155 0 249 -99q96 -97 96 -256q0 -158 -96 -257q-95 -98 -249 -98t-250 98zM170 592q-90 -93 -90 -242t90 -242t235 -93t235 93t90 242t-90 242t-235 93t-235 -93zM523 236l14 -13q-49 -51 -127 -51t-126 49t-48 129
t48 129t126 49t127 -51l-14 -14q-43 46 -112 46t-111.5 -44t-42.5 -115q0 -72 42 -115q44 -44 112 -44q69 0 112 45z" />
    <glyph glyph-name="ordfeminine" unicode="&#xaa;" horiz-adv-x="255" 
d="M223 466v-14q-6 -2 -11 -2q-26 0 -33 25q-32 -26 -73 -26q-34 0 -52 18.5t-18 45.5q0 36 33.5 57.5t88.5 21.5q10 0 20 -2v41q0 22 -15.5 38t-43.5 16q-40 0 -59 -22l-12 12q25 28 72 28q37 0 57.5 -20.5t20.5 -51.5v-142q0 -23 25 -23zM110 467q39 0 68 29v78
q-3 1 -19 1q-46 0 -74.5 -16.5t-28.5 -43.5q0 -20 13.5 -34t40.5 -14z" />
    <glyph glyph-name="guillemotleft" unicode="&#xab;" horiz-adv-x="470" 
d="M230 98l-14 -14l-166 166l166 166l14 -14l-152 -152zM390 98l-14 -14l-166 166l166 166l14 -14l-152 -152z" />
    <glyph glyph-name="logicalnot" unicode="&#xac;" horiz-adv-x="500" 
d="M400 290h-320v20h340v-140h-20v120z" />
    <glyph glyph-name="uni00AD" unicode="&#xad;" horiz-adv-x="340" 
d="M260 250h-180v20h180v-20z" />
    <glyph glyph-name="registered" unicode="&#xae;" horiz-adv-x="810" 
d="M155 93q-95 100 -95 257q0 158 95 256q96 99 250 99q155 0 249 -99q96 -97 96 -256q0 -158 -96 -257q-95 -98 -249 -98t-250 98zM170 592q-90 -93 -90 -242t90 -242t235 -93t235 93t90 242t-90 242t-235 93t-235 -93zM516 174h-24l-93 163h-58v-163h-21v350h90
q42 0 68 -25.5t26 -68.5q0 -39 -22.5 -64t-60.5 -29zM410 505h-69v-150h69q33 0 53.5 20.5t20.5 54.5t-20.5 54.5t-53.5 20.5z" />
    <glyph glyph-name="overscore" unicode="&#xaf;" horiz-adv-x="400" 
d="M310 560h-220v20h220v-20z" />
    <glyph glyph-name="degree" unicode="&#xb0;" horiz-adv-x="295" 
d="M148 705q42 0 67.5 -26t25.5 -69t-25.5 -69t-67.5 -26q-41 0 -67 26t-26 69t26 69t67 26zM221 610q0 33 -20.5 54t-52.5 21t-52.5 -20.5t-20.5 -54.5t20.5 -54.5t52.5 -20.5t52.5 20.5t20.5 54.5z" />
    <glyph glyph-name="plusminus" unicode="&#xb1;" horiz-adv-x="450" 
d="M215 295h-135v20h135v135h20v-135h135v-20h-135v-135h-20v135zM370 105h-290v20h290v-20z" />
    <glyph glyph-name="twosuperior" unicode="&#xb2;" horiz-adv-x="276" 
d="M40 350v21l154 154q24 24 24 70q0 40 -22.5 64.5t-58.5 24.5q-37 0 -59.5 -24.5t-22.5 -64.5h-20q0 48 28 78t74 30q45 0 73 -30t28 -78q0 -53 -30 -83l-143 -144h173v-18h-198z" />
    <glyph glyph-name="threesuperior" unicode="&#xb3;" horiz-adv-x="284" 
d="M141 533h-23v18h23q30 0 48.5 18.5t18.5 48.5q0 29 -18.5 47.5t-48.5 18.5q-29 0 -47.5 -18.5t-18.5 -47.5h-21q0 37 24.5 61t62.5 24q39 0 63 -23.5t24 -61.5q0 -56 -48 -76q30 -9 48 -33.5t18 -59.5q0 -46 -29 -74t-76 -28t-76 28t-29 74h20q0 -37 23.5 -60t61.5 -23
t61.5 23t23.5 60q0 38 -23.5 61t-61.5 23z" />
    <glyph glyph-name="acute" unicode="&#xb4;" horiz-adv-x="260" 
d="M84 529l-14 14l106 106l14 -14z" />
    <glyph glyph-name="mu" unicode="&#xb5;" horiz-adv-x="542" 
d="M27 -200v15q68 0 68 63v572h20v-275q0 -71 43 -115.5t113 -44.5t113 44.5t43 115.5v275h20v-275q0 -81 -49 -130q-48 -50 -127 -50q-53 0 -94 24t-62 66v-207q0 -37 -20 -59t-48 -22q-15 0 -20 3z" />
    <glyph glyph-name="paragraph" unicode="&#xb6;" horiz-adv-x="505" 
d="M245 700h65v-700h-20v335h-45q-81 0 -130.5 50t-49.5 132q0 83 49.5 133t130.5 50zM410 0h-20v700h20v-700z" />
    <glyph glyph-name="middot" unicode="&#xb7;" 
d="M87 232q-11 10 -6.5 24t17.5 17.5t25 -6.5q10 -10 5.5 -24t-17 -17.5t-24.5 6.5z" />
    <glyph glyph-name="cedilla" unicode="&#xb8;" horiz-adv-x="254" 
d="M98 0h20v-65q29 -4 46 -22.5t17 -47.5q0 -31 -20.5 -50.5t-52.5 -19.5q-34 0 -53 22l14 14q24 -25 59.5 -12t32.5 47q0 51 -63 51v83z" />
    <glyph glyph-name="onesuperior" unicode="&#xb9;" horiz-adv-x="168" 
d="M82 681l-55 -11v17l75 15v-352h-20v331z" />
    <glyph glyph-name="ordmasculine" unicode="&#xba;" horiz-adv-x="318" 
d="M34 576q0 56 35 91.5t90 35.5t90 -35.5t35 -91.5q0 -57 -34.5 -92t-90.5 -35t-90.5 35t-34.5 92zM54 576q0 -49 29 -78.5t76 -29.5t76 29.5t29 78.5q0 48 -29 78t-76 30t-76 -30t-29 -78z" />
    <glyph glyph-name="guillemotright" unicode="&#xbb;" horiz-adv-x="470" 
d="M244 416l166 -166l-166 -166l-14 14l152 152l-152 152zM84 416l166 -166l-166 -166l-14 14l152 152l-152 152z" />
    <glyph glyph-name="onequarter" unicode="&#xbc;" horiz-adv-x="627" 
d="M555 0h-20v72h-162v13l160 265h22v-260h33v-18h-33v-72zM536 318l-138 -228h138v228zM82 681l-55 -11v17l75 15v-352h-20v331zM138 0h-23l357 700h23z" />
    <glyph glyph-name="onehalf" unicode="&#xbd;" horiz-adv-x="676" 
d="M440 0v21l154 154q24 24 24 70q0 40 -22.5 64.5t-58.5 24.5q-37 0 -59.5 -24.5t-22.5 -64.5h-20q0 48 28 78t74 30q45 0 73 -30t28 -78q0 -53 -30 -83l-143 -144h173v-18h-198zM82 681l-55 -11v17l75 15v-352h-20v331zM138 0h-23l357 700h23z" />
    <glyph glyph-name="threequarters" unicode="&#xbe;" horiz-adv-x="632" 
d="M141 533h-23v18h23q30 0 48.5 18.5t18.5 48.5q0 29 -18.5 47.5t-48.5 18.5q-29 0 -47.5 -18.5t-18.5 -47.5h-21q0 37 24.5 61t62.5 24q39 0 63 -23.5t24 -61.5q0 -56 -48 -76q30 -9 48 -33.5t18 -59.5q0 -46 -29 -74t-76 -28t-76 28t-29 74h20q0 -37 23.5 -60t61.5 -23
t61.5 23t23.5 60q0 38 -23.5 61t-61.5 23zM560 0h-20v72h-162v13l160 265h22v-260h33v-18h-33v-72zM541 318l-138 -228h138v228zM173 0h-23l357 700h23z" />
    <glyph glyph-name="questiondown" unicode="&#xbf;" horiz-adv-x="462" 
d="M397 -169l15 -15q-65 -71 -180 -71q-90 1 -135 52.5t-42 120.5q0 35 12 62t24 39.5t37 33.5q5 4 7 6q27 23 40.5 37.5t27 47.5t13.5 76v55h20v-55q0 -54 -16.5 -92t-40 -58.5t-47.5 -39t-40.5 -46t-16.5 -66.5q0 -61 38 -107q39 -46 118 -46q48 0 93.5 18t72.5 48z
M243 447q12 -9 7 -23t-17.5 -18t-24.5 6q-11 10 -6 24t17.5 17.5t23.5 -6.5z" />
    <glyph glyph-name="Agrave" unicode="&#xc0;" horiz-adv-x="732" 
d="M687 0h-22l-110 250h-378l-110 -250h-22l310 700h22zM546 270l-180 408l-180 -408h360zM286 855l14 14l106 -106l-14 -14z" />
    <glyph glyph-name="Aacute" unicode="&#xc1;" horiz-adv-x="732" 
d="M687 0h-22l-110 250h-378l-110 -250h-22l310 700h22zM546 270l-180 408l-180 -408h360zM340 749l-14 14l106 106l14 -14z" />
    <glyph glyph-name="Acircumflex" unicode="&#xc2;" horiz-adv-x="732" 
d="M687 0h-22l-110 250h-378l-110 -250h-22l310 700h22zM546 270l-180 408l-180 -408h360zM260 763l106 106l106 -106l-14 -14l-92 92l-92 -92z" />
    <glyph glyph-name="Atilde" unicode="&#xc3;" horiz-adv-x="732" 
d="M687 0h-22l-110 250h-378l-110 -250h-22l310 700h22zM546 270l-180 408l-180 -408h360zM264 777h-20q0 31 19 50.5t49 19.5q29 0 56 -27t50 -27q22 0 35.5 14t13.5 36h20q0 -32 -19 -51t-50 -19q-30 0 -57 27q-25 27 -48 27q-22 0 -35.5 -14t-13.5 -36z" />
    <glyph glyph-name="Adieresis" unicode="&#xc4;" horiz-adv-x="732" 
d="M687 0h-22l-110 250h-378l-110 -250h-22l310 700h22zM546 270l-180 408l-180 -408h360zM258 777q-11 11 -6 24.5t17 17t24 -5.5q12 -11 7 -25t-17.5 -17.5t-24.5 6.5zM438 777q-11 11 -6 24.5t17 17t24 -5.5q12 -11 7 -25t-17.5 -17.5t-24.5 6.5z" />
    <glyph glyph-name="Aring" unicode="&#xc5;" horiz-adv-x="732" 
d="M687 0h-22l-110 250h-378l-110 -250h-22l310 700h22zM546 270l-180 408l-180 -408h360zM306 768q-23 25 -23 62q0 38 23 61q22 24 60 24t60 -24q23 -23 23 -61q0 -37 -23 -62q-23 -23 -60 -23t-60 23zM366 895q-28 0 -45.5 -18t-17.5 -47t17.5 -47t45.5 -18t45.5 18
t17.5 47t-18 47t-45 18z" />
    <glyph glyph-name="AE" unicode="&#xc6;" horiz-adv-x="762" 
d="M697 680h-311v-315h276v-20h-276v-325h316v-20h-336v250h-189l-110 -250h-22l310 700h342v-20zM366 675l-180 -405h180v405z" />
    <glyph glyph-name="Ccedilla" unicode="&#xc7;" horiz-adv-x="708" 
d="M405 15q148 0 238 96l15 -14q-93 -99 -245 -102v-60q29 -4 46 -22.5t17 -47.5q0 -31 -20.5 -50.5t-52.5 -19.5q-34 0 -53 22l14 14q24 -25 59.5 -12t32.5 47q0 51 -63 51v79q-151 5 -242 101q-91 97 -91 253q0 158 95 256q96 99 250 99q155 0 253 -102l-15 -15
q-91 97 -238 97q-145 0 -235 -93t-90 -242t90 -242t235 -93z" />
    <glyph glyph-name="Egrave" unicode="&#xc8;" horiz-adv-x="520" 
d="M455 680h-335v-315h300v-20h-300v-325h340v-20h-360v700h355v-20zM200 855l14 14l106 -106l-14 -14z" />
    <glyph glyph-name="Eacute" unicode="&#xc9;" horiz-adv-x="520" 
d="M455 680h-335v-315h300v-20h-300v-325h340v-20h-360v700h355v-20zM254 749l-14 14l106 106l14 -14z" />
    <glyph glyph-name="Ecircumflex" unicode="&#xca;" horiz-adv-x="520" 
d="M174 763l106 106l106 -106l-14 -14l-92 92l-92 -92zM455 680h-335v-315h300v-20h-300v-325h340v-20h-360v700h355v-20z" />
    <glyph glyph-name="Edieresis" unicode="&#xcb;" horiz-adv-x="520" 
d="M455 680h-335v-315h300v-20h-300v-325h340v-20h-360v700h355v-20zM172 777q-11 11 -6 24.5t17 17t24 -5.5q12 -11 7 -25t-17.5 -17.5t-24.5 6.5zM352 777q-11 11 -6 24.5t17 17t24 -5.5q12 -11 7 -25t-17.5 -17.5t-24.5 6.5z" />
    <glyph glyph-name="Igrave" unicode="&#xcc;" 
d="M25 855l14 14l106 -106l-14 -14zM115 0h-20v700h20v-700z" />
    <glyph glyph-name="Iacute" unicode="&#xcd;" 
d="M79 749l-14 14l106 106l14 -14zM115 0h-20v700h20v-700z" />
    <glyph glyph-name="Icircumflex" unicode="&#xce;" 
d="M-1 763l106 106l106 -106l-14 -14l-92 92l-92 -92zM115 0h-20v700h20v-700z" />
    <glyph glyph-name="Idieresis" unicode="&#xcf;" 
d="M115 0h-20v700h20v-700zM17 777q-17 17 1 35t35 1t-1 -35t-35 -1zM157 777q-17 17 1 35t35 1t-1 -35t-35 -1z" />
    <glyph glyph-name="Eth" unicode="&#xd0;" horiz-adv-x="715" 
d="M130 340h-70v20h70v340h180q154 0 249 -96q96 -96 96 -254t-96 -254q-95 -96 -249 -96h-180v340zM310 680h-160v-320h190v-20h-190v-320h160q146 0 235 90q89 92 89 240t-89 239q-88 91 -235 91z" />
    <glyph glyph-name="Ntilde" unicode="&#xd1;" horiz-adv-x="720" 
d="M258 777h-20q0 31 19 50.5t49 19.5q29 0 56 -27t50 -27q22 0 35.5 14t13.5 36h20q0 -32 -19 -51t-50 -19q-30 0 -57 27q-25 27 -48 27q-22 0 -35.5 -14t-13.5 -36zM100 0v700h20l480 -666v666h20v-700h-20l-480 666v-666h-20z" />
    <glyph glyph-name="Ograve" unicode="&#xd2;" horiz-adv-x="810" 
d="M155 93q-95 100 -95 257q0 158 95 256q96 99 250 99q155 0 249 -99q96 -97 96 -256q0 -158 -96 -257q-95 -98 -249 -98t-250 98zM170 592q-90 -93 -90 -242t90 -242t235 -93t235 93t90 242t-90 242t-235 93t-235 -93zM325 855l14 14l106 -106l-14 -14z" />
    <glyph glyph-name="Oacute" unicode="&#xd3;" horiz-adv-x="810" 
d="M155 93q-95 100 -95 257q0 158 95 256q96 99 250 99q155 0 249 -99q96 -97 96 -256q0 -158 -96 -257q-95 -98 -249 -98t-250 98zM170 592q-90 -93 -90 -242t90 -242t235 -93t235 93t90 242t-90 242t-235 93t-235 -93zM379 749l-14 14l106 106l14 -14z" />
    <glyph glyph-name="Ocircumflex" unicode="&#xd4;" horiz-adv-x="810" 
d="M299 763l106 106l106 -106l-14 -14l-92 92l-92 -92zM155 93q-95 100 -95 257q0 158 95 256q96 99 250 99q155 0 249 -99q96 -97 96 -256q0 -158 -96 -257q-95 -98 -249 -98t-250 98zM170 592q-90 -93 -90 -242t90 -242t235 -93t235 93t90 242t-90 242t-235 93t-235 -93z
" />
    <glyph glyph-name="Otilde" unicode="&#xd5;" horiz-adv-x="810" 
d="M155 93q-95 100 -95 257q0 158 95 256q96 99 250 99q155 0 249 -99q96 -97 96 -256q0 -158 -96 -257q-95 -98 -249 -98t-250 98zM170 592q-90 -93 -90 -242t90 -242t235 -93t235 93t90 242t-90 242t-235 93t-235 -93zM303 777h-20q0 31 19 50.5t49 19.5q29 0 56 -27
t50 -27q22 0 35.5 14t13.5 36h20q0 -32 -19 -51t-50 -19q-30 0 -57 27q-26 27 -48 27t-35.5 -14t-13.5 -36z" />
    <glyph glyph-name="Odieresis" unicode="&#xd6;" horiz-adv-x="810" 
d="M155 93q-95 100 -95 257q0 158 95 256q96 99 250 99q155 0 249 -99q96 -97 96 -256q0 -158 -96 -257q-95 -98 -249 -98t-250 98zM170 592q-90 -93 -90 -242t90 -242t235 -93t235 93t90 242t-90 242t-235 93t-235 -93zM297 777q-17 17 1 35t35 1t-1 -35t-35 -1zM477 777
q-17 17 1 35t35 1t-1 -35t-35 -1z" />
    <glyph glyph-name="multiply" unicode="&#xd7;" horiz-adv-x="450" 
d="M225 286l-136 -136l-14 14l136 136l-136 136l14 14l136 -136l136 136l14 -14l-136 -136l136 -136l-14 -14z" />
    <glyph glyph-name="Oslash" unicode="&#xd8;" horiz-adv-x="810" 
d="M101 -5h-26l84 94q-99 99 -99 261q0 158 95 256q96 99 250 99q139 0 231 -82l73 82h26l-85 -95q100 -97 100 -260q0 -158 -96 -257q-95 -98 -249 -98q-141 0 -232 81zM730 350q0 152 -93 245l-450 -504q88 -76 218 -76q145 0 235 93t90 242zM80 350q0 -152 93 -245
l450 503q-89 77 -218 77q-145 0 -235 -93t-90 -242z" />
    <glyph glyph-name="Ugrave" unicode="&#xd9;" horiz-adv-x="696" 
d="M575 250v450h21v-450q0 -114 -69 -185q-69 -70 -179 -70q-111 0 -180 70q-68 71 -68 185v450h20v-450q0 -106 63 -170q63 -65 164 -65q102 0 165 65q63 64 63 170zM268 855l14 14l106 -106l-14 -14z" />
    <glyph glyph-name="Uacute" unicode="&#xda;" horiz-adv-x="696" 
d="M575 250v450h21v-450q0 -114 -69 -185q-69 -70 -179 -70q-111 0 -180 70q-68 71 -68 185v450h20v-450q0 -106 63 -170q63 -65 164 -65q102 0 165 65q63 64 63 170zM322 749l-14 14l106 106l14 -14z" />
    <glyph glyph-name="Ucircumflex" unicode="&#xdb;" horiz-adv-x="696" 
d="M242 763l106 106l106 -106l-14 -14l-92 92l-92 -92zM575 250v450h21v-450q0 -114 -69 -185q-69 -70 -179 -70q-111 0 -180 70q-68 71 -68 185v450h20v-450q0 -106 63 -170q63 -65 164 -65q102 0 165 65q63 64 63 170z" />
    <glyph glyph-name="Udieresis" unicode="&#xdc;" horiz-adv-x="696" 
d="M575 250v450h21v-450q0 -114 -69 -185q-69 -70 -179 -70q-111 0 -180 70q-68 71 -68 185v450h20v-450q0 -106 63 -170q63 -65 164 -65q102 0 165 65q63 64 63 170zM240 777q-11 11 -6 24.5t17 17t24 -5.5q12 -11 7 -25t-17.5 -17.5t-24.5 6.5zM420 777q-11 11 -6 24.5
t17 17t24 -5.5q12 -11 7 -25t-17.5 -17.5t-24.5 6.5z" />
    <glyph glyph-name="Yacute" unicode="&#xdd;" horiz-adv-x="650" 
d="M335 0h-20v322l-270 378h25l255 -357l255 357h25l-270 -378v-322zM299 749l-14 14l106 106l14 -14z" />
    <glyph glyph-name="Thorn" unicode="&#xde;" horiz-adv-x="505" 
d="M120 0h-20v700h20v-160h145q81 0 130.5 -50t49.5 -133q0 -82 -49.5 -132t-130.5 -50h-145v-175zM265 520h-145v-325h145q72 0 116 44.5t44 117.5t-44 118t-116 45z" />
    <glyph glyph-name="germandbls" unicode="&#xdf;" horiz-adv-x="585" 
d="M115 592v-592h-20v592q0 72 46.5 117.5t121.5 45.5t121.5 -45.5t46.5 -117.5q0 -68 -40.5 -113t-107.5 -50q0 -95 84 -140q7 -4 29 -14.5t31.5 -16t27.5 -17t26.5 -22t19 -25.5t15 -33.5t4.5 -40.5q0 -49 -34 -87q-35 -38 -101 -38q-83 0 -130 51l14 14q39 -45 116 -45
q56 0 85.5 31t29.5 74q0 79 -84 120q-30 14 -42.5 20.5t-39 25t-38.5 35t-23 45.5t-10 63v21q66 0 107 39t41 103q0 63 -41 103t-107 40t-107 -40t-41 -103z" />
    <glyph glyph-name="agrave" unicode="&#xe0;" horiz-adv-x="442" 
d="M390 15v-15q-4 -3 -16 -3q-19 0 -33 12.5t-18 34.5q-58 -49 -136 -49q-62 0 -94.5 33t-32.5 82q0 65 61 102q62 38 163 38q24 0 38 -3v84q0 44 -30 74t-85 30q-72 0 -112 -40l-14 14q45 46 126 46q65 0 100 -35.5t35 -88.5v-273q0 -43 48 -43zM187 15q79 0 135 56v157
q-22 2 -37 2q-93 0 -149 -32.5t-56 -87.5q0 -40 26.5 -67.5t80.5 -27.5zM126 635l14 14l106 -106l-14 -14z" />
    <glyph glyph-name="aacute" unicode="&#xe1;" horiz-adv-x="442" 
d="M390 15v-15q-4 -3 -16 -3q-19 0 -33 12.5t-18 34.5q-58 -49 -136 -49q-62 0 -94.5 33t-32.5 82q0 65 61 102q62 38 163 38q24 0 38 -3v84q0 44 -30 74t-85 30q-72 0 -112 -40l-14 14q45 46 126 46q65 0 100 -35.5t35 -88.5v-273q0 -43 48 -43zM187 15q79 0 135 56v157
q-22 2 -37 2q-93 0 -149 -32.5t-56 -87.5q0 -40 26.5 -67.5t80.5 -27.5zM180 529l-14 14l106 106l14 -14z" />
    <glyph glyph-name="acircumflex" unicode="&#xe2;" horiz-adv-x="442" 
d="M390 15v-15q-4 -3 -16 -3q-19 0 -33 12.5t-18 34.5q-58 -49 -136 -49q-62 0 -94.5 33t-32.5 82q0 65 61 102q62 38 163 38q24 0 38 -3v84q0 44 -30 74t-85 30q-72 0 -112 -40l-14 14q45 46 126 46q65 0 100 -35.5t35 -88.5v-273q0 -43 48 -43zM187 15q79 0 135 56v157
q-22 2 -37 2q-93 0 -149 -32.5t-56 -87.5q0 -40 26.5 -67.5t80.5 -27.5zM100 543l106 106l106 -106l-14 -14l-92 92l-92 -92z" />
    <glyph glyph-name="atilde" unicode="&#xe3;" horiz-adv-x="442" 
d="M390 15v-15q-4 -3 -16 -3q-19 0 -33 12.5t-18 34.5q-58 -49 -136 -49q-62 0 -94.5 33t-32.5 82q0 65 61 102q62 38 163 38q24 0 38 -3v84q0 44 -30 74t-85 30q-72 0 -112 -40l-14 14q45 46 126 46q65 0 100 -35.5t35 -88.5v-273q0 -43 48 -43zM187 15q79 0 135 56v157
q-22 2 -37 2q-93 0 -149 -32.5t-56 -87.5q0 -40 26.5 -67.5t80.5 -27.5zM114 557h-20q0 31 19 50.5t49 19.5q29 0 56 -27t50 -27q22 0 35.5 14t13.5 36h20q0 -32 -19 -51t-50 -19q-30 0 -57 27q-25 27 -48 27q-22 0 -35.5 -14t-13.5 -36z" />
    <glyph glyph-name="adieresis" unicode="&#xe4;" horiz-adv-x="442" 
d="M390 15v-15q-4 -3 -16 -3q-19 0 -33 12.5t-18 34.5q-58 -49 -136 -49q-62 0 -94.5 33t-32.5 82q0 65 61 102q62 38 163 38q24 0 38 -3v84q0 44 -30 74t-85 30q-72 0 -112 -40l-14 14q45 46 126 46q65 0 100 -35.5t35 -88.5v-273q0 -43 48 -43zM187 15q79 0 135 56v157
q-22 2 -37 2q-93 0 -149 -32.5t-56 -87.5q0 -40 26.5 -67.5t80.5 -27.5zM103 557q-17 17 1 35t35 1t-1 -35t-35 -1zM283 557q-17 17 1 35t35 1t-1 -35t-35 -1z" />
    <glyph glyph-name="aring" unicode="&#xe5;" horiz-adv-x="442" 
d="M390 15v-15q-4 -3 -16 -3q-19 0 -33 12.5t-18 34.5q-58 -49 -136 -49q-62 0 -94.5 33t-32.5 82q0 65 61 102q62 38 163 38q24 0 38 -3v84q0 44 -30 74t-85 30q-72 0 -112 -40l-14 14q45 46 126 46q65 0 100 -35.5t35 -88.5v-273q0 -43 48 -43zM187 15q79 0 135 56v157
q-22 2 -37 2q-93 0 -149 -32.5t-56 -87.5q0 -40 26.5 -67.5t80.5 -27.5zM151 548q-23 25 -23 62q0 38 23 61q23 24 60 24t60 -24q23 -23 23 -61q0 -37 -23 -62q-23 -23 -60 -23t-60 23zM211 675q-28 0 -45.5 -18t-17.5 -47t17.5 -47t45.5 -18t45.5 18t17.5 47t-18 47t-45 18
z" />
    <glyph glyph-name="ae" unicode="&#xe6;" horiz-adv-x="738" 
d="M322 247v84q0 44 -30 74t-85 30q-72 0 -112 -40l-14 14q45 46 126 46q91 0 123 -69q58 69 154 69q91 0 145 -64q54 -63 54 -166h-341v-136q56 -74 161 -74q93 0 150 60l14 -15q-62 -65 -164 -65q-111 0 -169 69q-62 -69 -147 -69q-62 0 -94.5 33t-32.5 82q0 65 61 102
q62 38 163 38q24 0 38 -3zM342 331v-86h320q-6 87 -53.5 138.5t-123.5 51.5q-95 0 -147 -72q4 -17 4 -32zM322 80v148q-22 2 -37 2q-93 0 -149 -32.5t-56 -87.5q0 -40 26.5 -67.5t80.5 -27.5q79 0 135 65z" />
    <glyph glyph-name="ccedilla" unicode="&#xe7;" horiz-adv-x="490" 
d="M280 15q93 0 150 60l14 -15q-59 -63 -159 -65v-60q29 -4 46 -22.5t17 -47.5q0 -31 -20.5 -50.5t-52.5 -19.5q-34 0 -53 22l14 14q24 -25 59.5 -12t32.5 47q0 51 -63 51v78q-93 4 -152 68q-58 62 -58 162q0 102 62 166q61 64 163 64t164 -66l-14 -14q-57 60 -150 60
q-92 0 -149 -58q-56 -59 -56 -152t56 -152q57 -58 149 -58z" />
    <glyph glyph-name="egrave" unicode="&#xe8;" horiz-adv-x="515" 
d="M460 225h-385q0 -93 56 -152q57 -58 149 -58q93 0 150 60l14 -15q-62 -65 -164 -65q-101 0 -163 63q-62 65 -62 169q0 101 57 164q58 64 149 64t145 -64q54 -63 54 -166zM262 435q-77 0 -129 -52q-52 -50 -58 -138h364q-6 87 -53.5 138.5t-123.5 51.5zM182 635l14 14
l106 -106l-14 -14z" />
    <glyph glyph-name="eacute" unicode="&#xe9;" horiz-adv-x="515" 
d="M460 225h-385q0 -93 56 -152q57 -58 149 -58q93 0 150 60l14 -15q-62 -65 -164 -65q-101 0 -163 63q-62 65 -62 169q0 101 57 164q58 64 149 64t145 -64q54 -63 54 -166zM262 435q-77 0 -129 -52q-52 -50 -58 -138h364q-6 87 -53.5 138.5t-123.5 51.5zM236 529l-14 14
l106 106l14 -14z" />
    <glyph glyph-name="ecircumflex" unicode="&#xea;" horiz-adv-x="515" 
d="M460 225h-385q0 -93 56 -152q57 -58 149 -58q93 0 150 60l14 -15q-62 -65 -164 -65q-101 0 -163 63q-62 65 -62 169q0 101 57 164q58 64 149 64t145 -64q54 -63 54 -166zM262 435q-77 0 -129 -52q-52 -50 -58 -138h364q-6 87 -53.5 138.5t-123.5 51.5zM156 543l106 106
l106 -106l-14 -14l-92 92l-92 -92z" />
    <glyph glyph-name="edieresis" unicode="&#xeb;" horiz-adv-x="515" 
d="M460 225h-385q0 -93 56 -152q57 -58 149 -58q93 0 150 60l14 -15q-62 -65 -164 -65q-101 0 -163 63q-62 65 -62 169q0 101 57 164q58 64 149 64t145 -64q54 -63 54 -166zM262 435q-77 0 -129 -52q-52 -50 -58 -138h364q-6 87 -53.5 138.5t-123.5 51.5zM154 557
q-11 11 -6 24.5t17 17t24 -5.5q12 -11 7 -25t-17.5 -17.5t-24.5 6.5zM334 557q-11 11 -6 24.5t17 17t24 -5.5q12 -11 7 -25t-17.5 -17.5t-24.5 6.5z" />
    <glyph glyph-name="igrave" unicode="&#xec;" 
d="M25 635l14 14l106 -106l-14 -14zM115 0h-20v450h20v-450z" />
    <glyph glyph-name="iacute" unicode="&#xed;" 
d="M79 529l-14 14l106 106l14 -14zM115 0h-20v450h20v-450z" />
    <glyph glyph-name="icircumflex" unicode="&#xee;" 
d="M-1 543l106 106l106 -106l-14 -14l-92 92l-92 -92zM115 0h-20v450h20v-450z" />
    <glyph glyph-name="idieresis" unicode="&#xef;" 
d="M115 0h-20v450h20v-450zM22 557q-11 11 -6 24.5t17 17t24 -5.5q12 -11 7 -25t-17.5 -17.5t-24.5 6.5zM152 557q-11 11 -6 24.5t17 17t24 -5.5q12 -11 7 -25t-17.5 -17.5t-24.5 6.5z" />
    <glyph glyph-name="eth" unicode="&#xf0;" horiz-adv-x="560" 
d="M284 628l-113 -65l-10 17l112 64l-61 101l17 10l61 -101l113 65l10 -17l-113 -65q35 -57 69 -110q36 -54 55 -87q19 -30 36 -62q19 -33 28 -56q17 -47 17 -97q0 -102 -62 -167q-61 -63 -163 -63q-101 0 -163 63q-62 65 -62 167q0 101 64 165q65 65 161 65q76 0 135 -39z
M428 73q57 59 57 152t-57 152q-55 58 -148 58q-92 0 -149 -58q-56 -59 -56 -152t56 -152q57 -58 149 -58q93 0 148 58z" />
    <glyph glyph-name="ntilde" unicode="&#xf1;" horiz-adv-x="527" 
d="M157 557h-20q0 31 19 50.5t49 19.5q29 0 56 -27t50 -27q22 0 35.5 14t13.5 36h20q0 -32 -19 -51t-50 -19q-30 0 -57 27q-26 27 -48 27t-35.5 -14t-13.5 -36zM95 0v450h20v-44q59 49 147 49q76 0 123 -48.5t47 -126.5v-280h-20v280q0 69 -41.5 112t-108.5 43
q-90 0 -147 -57v-378h-20z" />
    <glyph glyph-name="ograve" unicode="&#xf2;" horiz-adv-x="560" 
d="M117 58q-62 65 -62 167t62 166q61 64 163 64t163 -64q62 -64 62 -166t-62 -167q-61 -63 -163 -63q-101 0 -163 63zM131 377q-56 -59 -56 -152t56 -152q57 -58 149 -58q93 0 148 58q57 59 57 152t-57 152q-55 58 -148 58q-92 0 -149 -58zM200 635l14 14l106 -106l-14 -14z
" />
    <glyph glyph-name="oacute" unicode="&#xf3;" horiz-adv-x="560" 
d="M117 58q-62 65 -62 167t62 166q61 64 163 64t163 -64q62 -64 62 -166t-62 -167q-61 -63 -163 -63q-101 0 -163 63zM131 377q-56 -59 -56 -152t56 -152q57 -58 149 -58q93 0 148 58q57 59 57 152t-57 152q-55 58 -148 58q-92 0 -149 -58zM254 529l-14 14l106 106l14 -14z
" />
    <glyph glyph-name="ocircumflex" unicode="&#xf4;" horiz-adv-x="560" 
d="M174 543l106 106l106 -106l-14 -14l-92 92l-92 -92zM117 58q-62 65 -62 167t62 166q61 64 163 64t163 -64q62 -64 62 -166t-62 -167q-61 -63 -163 -63q-101 0 -163 63zM131 377q-56 -59 -56 -152t56 -152q57 -58 149 -58q93 0 148 58q57 59 57 152t-57 152
q-55 58 -148 58q-92 0 -149 -58z" />
    <glyph glyph-name="otilde" unicode="&#xf5;" horiz-adv-x="560" 
d="M178 557h-20q0 31 19 50.5t49 19.5q29 0 56 -27t50 -27q22 0 35.5 14t13.5 36h20q0 -32 -19 -51t-50 -19q-30 0 -57 27q-25 27 -48 27q-22 0 -35.5 -14t-13.5 -36zM117 58q-62 65 -62 167t62 166q61 64 163 64t163 -64q62 -64 62 -166t-62 -167q-61 -63 -163 -63
q-101 0 -163 63zM131 377q-56 -59 -56 -152t56 -152q57 -58 149 -58q93 0 148 58q57 59 57 152t-57 152q-55 58 -148 58q-92 0 -149 -58z" />
    <glyph glyph-name="odieresis" unicode="&#xf6;" horiz-adv-x="560" 
d="M117 58q-62 65 -62 167t62 166q61 64 163 64t163 -64q62 -64 62 -166t-62 -167q-61 -63 -163 -63q-101 0 -163 63zM131 377q-56 -59 -56 -152t56 -152q57 -58 149 -58q93 0 148 58q57 59 57 152t-57 152q-55 58 -148 58q-92 0 -149 -58zM172 557q-11 11 -6 24.5t17 17
t24 -5.5q12 -11 7 -25t-17.5 -17.5t-24.5 6.5zM352 557q-11 11 -6 24.5t17 17t24 -5.5q12 -11 7 -25t-17.5 -17.5t-24.5 6.5z" />
    <glyph glyph-name="divide" unicode="&#xf7;" horiz-adv-x="500" 
d="M420 250h-340v20h340v-20zM232 72q-11 10 -6 24t17.5 17.5t23.5 -6.5q12 -9 7 -23t-17.5 -18t-24.5 6zM232 412q-11 10 -6 24t17.5 17.5t23.5 -6.5q12 -9 7 -23t-17.5 -18t-24.5 6z" />
    <glyph glyph-name="oslash" unicode="&#xf8;" horiz-adv-x="560" 
d="M100 -5h-25l48 57q-68 65 -68 173q0 102 62 166q61 64 163 64q84 0 142 -45l38 45h25l-49 -58q69 -65 69 -172q0 -102 -62 -167q-61 -63 -163 -63q-85 0 -142 45zM485 225q0 97 -62 156l-272 -325q53 -41 129 -41q93 0 148 58q57 59 57 152zM75 225q0 -99 61 -157
l273 326q-55 41 -129 41q-92 0 -149 -58q-56 -59 -56 -152z" />
    <glyph glyph-name="ugrave" unicode="&#xf9;" horiz-adv-x="542" 
d="M427 450h20v-275q0 -81 -49 -130q-48 -50 -127 -50q-78 0 -128 50q-48 49 -48 130v275h20v-275q0 -71 43 -115.5t113 -44.5t113 44.5t43 115.5v275zM191 635l14 14l106 -106l-14 -14z" />
    <glyph glyph-name="uacute" unicode="&#xfa;" horiz-adv-x="542" 
d="M427 450h20v-275q0 -81 -49 -130q-48 -50 -127 -50q-78 0 -128 50q-48 49 -48 130v275h20v-275q0 -71 43 -115.5t113 -44.5t113 44.5t43 115.5v275zM245 529l-14 14l106 106l14 -14z" />
    <glyph glyph-name="ucircumflex" unicode="&#xfb;" horiz-adv-x="542" 
d="M165 543l106 106l106 -106l-14 -14l-92 92l-92 -92zM427 450h20v-275q0 -81 -49 -130q-48 -50 -127 -50q-78 0 -128 50q-48 49 -48 130v275h20v-275q0 -71 43 -115.5t113 -44.5t113 44.5t43 115.5v275z" />
    <glyph glyph-name="udieresis" unicode="&#xfc;" horiz-adv-x="542" 
d="M427 450h20v-275q0 -81 -49 -130q-48 -50 -127 -50q-78 0 -128 50q-48 49 -48 130v275h20v-275q0 -71 43 -115.5t113 -44.5t113 44.5t43 115.5v275zM163 557q-17 17 1 35t35 1t-1 -35t-35 -1zM343 557q-17 17 1 35t35 1t-1 -35t-35 -1z" />
    <glyph glyph-name="yacute" unicode="&#xfd;" horiz-adv-x="530" 
d="M463 450h22l-327 -700h-22l118 250l-209 450h22l198 -428zM239 529l-14 14l106 106l14 -14z" />
    <glyph glyph-name="thorn" unicode="&#xfe;" horiz-adv-x="542" 
d="M95 -250v1000h20v-344q59 49 147 49q102 0 163 -64q62 -64 62 -166t-62 -167q-61 -63 -163 -63q-89 0 -147 49v-294h-20zM262 435q-90 0 -147 -57v-307q56 -56 147 -56q93 0 148 58q57 59 57 152t-57 152q-55 58 -148 58z" />
    <glyph glyph-name="ydieresis" unicode="&#xff;" horiz-adv-x="530" 
d="M463 450h22l-327 -700h-22l118 250l-209 450h22l198 -428zM157 557q-17 17 1 35t35 1t-1 -35t-35 -1zM337 557q-17 17 1 35t35 1t-1 -35t-35 -1z" />
    <glyph glyph-name="Amacron" unicode="&#x100;" horiz-adv-x="732" 
d="M687 0h-22l-110 250h-378l-110 -250h-22l310 700h22zM546 270l-180 408l-180 -408h360zM476 780h-220v20h220v-20z" />
    <glyph glyph-name="amacron" unicode="&#x101;" horiz-adv-x="442" 
d="M390 15v-15q-4 -3 -16 -3q-19 0 -33 12.5t-18 34.5q-58 -49 -136 -49q-62 0 -94.5 33t-32.5 82q0 65 61 102q62 38 163 38q24 0 38 -3v84q0 44 -30 74t-85 30q-72 0 -112 -40l-14 14q45 46 126 46q65 0 100 -35.5t35 -88.5v-273q0 -43 48 -43zM187 15q79 0 135 56v157
q-22 2 -37 2q-93 0 -149 -32.5t-56 -87.5q0 -40 26.5 -67.5t80.5 -27.5zM316 560h-220v20h220v-20z" />
    <glyph glyph-name="Abreve" unicode="&#x102;" horiz-adv-x="732" 
d="M687 0h-22l-110 250h-378l-110 -250h-22l310 700h22zM546 270l-180 408l-180 -408h360zM475 836l15 -15q-53 -53 -124 -53t-124 53l15 15q48 -48 109 -48t109 48z" />
    <glyph glyph-name="abreve" unicode="&#x103;" horiz-adv-x="442" 
d="M390 15v-15q-4 -3 -16 -3q-19 0 -33 12.5t-18 34.5q-58 -49 -136 -49q-62 0 -94.5 33t-32.5 82q0 65 61 102q62 38 163 38q24 0 38 -3v84q0 44 -30 74t-85 30q-72 0 -112 -40l-14 14q45 46 126 46q65 0 100 -35.5t35 -88.5v-273q0 -43 48 -43zM187 15q79 0 135 56v157
q-22 2 -37 2q-93 0 -149 -32.5t-56 -87.5q0 -40 26.5 -67.5t80.5 -27.5zM320 616l15 -15q-53 -53 -124 -53t-124 53l15 15q48 -48 109 -48t109 48z" />
    <glyph glyph-name="Aogonek" unicode="&#x104;" horiz-adv-x="732" 
d="M673 -44q0 -30 17.5 -48.5t45.5 -18.5q30 0 46 18l15 -14q-23 -24 -61 -24q-37 0 -60 23.5t-23 62.5q0 29 12 45l-110 250h-378l-110 -250h-22l310 700h22l310 -700h-2q-12 -16 -12 -44zM546 270l-180 408l-180 -408h360z" />
    <glyph glyph-name="aogonek" unicode="&#x105;" horiz-adv-x="442" 
d="M366 -44q0 -30 17.5 -48.5t45.5 -18.5q29 0 46 18l15 -14q-23 -24 -61 -24q-37 0 -60 23.5t-23 62.5q0 29 12 45q-29 9 -35 44q-58 -49 -136 -49q-62 0 -94.5 33t-32.5 82q0 65 61 102q62 38 163 38q24 0 38 -3v84q0 44 -30 74t-85 30q-72 0 -112 -40l-14 14
q45 46 126 46q65 0 100 -35.5t35 -88.5v-273q0 -43 48 -43v-15q-4 -3 -14 -3q-10 -16 -10 -41zM187 15q79 0 135 56v157q-22 2 -37 2q-93 0 -149 -32.5t-56 -87.5q0 -40 26.5 -67.5t80.5 -27.5z" />
    <glyph glyph-name="Cacute" unicode="&#x106;" horiz-adv-x="708" 
d="M405 15q148 0 238 96l15 -14q-96 -102 -253 -102q-154 0 -250 98q-95 100 -95 257q0 158 95 256q96 99 250 99q155 0 253 -102l-15 -15q-91 97 -238 97q-145 0 -235 -93t-90 -242t90 -242t235 -93zM358 759l-14 14l106 106l14 -14z" />
    <glyph glyph-name="cacute" unicode="&#x107;" horiz-adv-x="490" 
d="M280 15q93 0 150 60l14 -15q-62 -65 -164 -65q-101 0 -163 63q-62 65 -62 167t62 166q61 64 163 64t164 -66l-14 -14q-57 60 -150 60q-92 0 -149 -58q-56 -59 -56 -152t56 -152q57 -58 149 -58zM254 529l-14 14l106 106l14 -14z" />
    <glyph glyph-name="Ccircumflex" unicode="&#x108;" horiz-adv-x="708" 
d="M278 763l106 106l106 -106l-14 -14l-92 92l-92 -92zM405 15q148 0 238 96l15 -14q-96 -102 -253 -102q-154 0 -250 98q-95 100 -95 257q0 158 95 256q96 99 250 99q155 0 253 -102l-15 -15q-91 97 -238 97q-145 0 -235 -93t-90 -242t90 -242t235 -93z" />
    <glyph glyph-name="ccircumflex" unicode="&#x109;" horiz-adv-x="490" 
d="M174 543l106 106l106 -106l-14 -14l-92 92l-92 -92zM280 15q93 0 150 60l14 -15q-62 -65 -164 -65q-101 0 -163 63q-62 65 -62 167t62 166q61 64 163 64t164 -66l-14 -14q-57 60 -150 60q-92 0 -149 -58q-56 -59 -56 -152t56 -152q57 -58 149 -58z" />
    <glyph glyph-name="Cdotaccent" unicode="&#x10a;" horiz-adv-x="708" 
d="M405 15q148 0 238 96l15 -14q-96 -102 -253 -102q-154 0 -250 98q-95 100 -95 257q0 158 95 256q96 99 250 99q155 0 253 -102l-15 -15q-91 97 -238 97q-145 0 -235 -93t-90 -242t90 -242t235 -93zM366 787q-11 11 -6 24.5t17 17t24 -5.5q12 -11 7 -25t-17.5 -17.5
t-24.5 6.5z" />
    <glyph glyph-name="cdotaccent" unicode="&#x10b;" horiz-adv-x="490" 
d="M280 15q93 0 150 60l14 -15q-62 -65 -164 -65q-101 0 -163 63q-62 65 -62 167t62 166q61 64 163 64t164 -66l-14 -14q-57 60 -150 60q-92 0 -149 -58q-56 -59 -56 -152t56 -152q57 -58 149 -58zM262 567q-11 11 -6 24.5t17 17t24 -5.5q12 -11 7 -25t-17.5 -17.5
t-24.5 6.5z" />
    <glyph glyph-name="Ccaron" unicode="&#x10c;" horiz-adv-x="708" 
d="M490 855l-106 -106l-106 106l14 14l92 -92l92 92zM405 15q148 0 238 96l15 -14q-96 -102 -253 -102q-154 0 -250 98q-95 100 -95 257q0 158 95 256q96 99 250 99q155 0 253 -102l-15 -15q-91 97 -238 97q-145 0 -235 -93t-90 -242t90 -242t235 -93z" />
    <glyph glyph-name="ccaron" unicode="&#x10d;" horiz-adv-x="490" 
d="M385 635l-106 -106l-106 106l14 14l92 -92l92 92zM280 15q93 0 150 60l14 -15q-62 -65 -164 -65q-101 0 -163 63q-62 65 -62 167t62 166q61 64 163 64t164 -66l-14 -14q-57 60 -150 60q-92 0 -149 -58q-56 -59 -56 -152t56 -152q57 -58 149 -58z" />
    <glyph glyph-name="Dcaron" unicode="&#x10e;" horiz-adv-x="685" 
d="M438 855l-106 -106l-106 106l14 14l92 -92l92 92zM280 0h-180v700h180q154 0 249 -96q96 -96 96 -254t-96 -254q-95 -96 -249 -96zM280 680h-160v-660h160q146 0 235 90q89 92 89 240t-89 239q-88 91 -235 91z" />
    <glyph glyph-name="dcaron" unicode="&#x10f;" horiz-adv-x="652" 
d="M447 750v-750h-20v44q-59 -49 -147 -49q-101 0 -163 63q-62 65 -62 167t62 166q61 64 163 64q88 0 147 -50v345h20zM280 15q91 0 147 56v307q-57 57 -147 57q-92 0 -149 -58q-56 -59 -56 -152t56 -152q57 -58 149 -58zM575 632l-13 13q36 36 36 60q-11 0 -18.5 7.5
t-7.5 17.5q0 11 7.5 18t18.5 7q24 0 24 -33q0 -43 -47 -90z" />
    <glyph glyph-name="Dcroat" unicode="&#x110;" horiz-adv-x="715" 
d="M130 340h-70v20h70v340h180q154 0 249 -96q96 -96 96 -254t-96 -254q-95 -96 -249 -96h-180v340zM310 680h-160v-320h190v-20h-190v-320h160q146 0 235 90q89 92 89 240t-89 239q-88 91 -235 91z" />
    <glyph glyph-name="dslash" unicode="&#x111;" horiz-adv-x="542" 
d="M447 610v-610h-20v44q-59 -49 -147 -49q-101 0 -163 63q-62 65 -62 167t62 166q61 64 163 64q88 0 147 -50v205h-150v20h150v120h20v-120h65v-20h-65zM280 15q91 0 147 56v307q-57 57 -147 57q-92 0 -149 -58q-56 -59 -56 -152t56 -152q57 -58 149 -58z" />
    <glyph glyph-name="Emacron" unicode="&#x112;" horiz-adv-x="520" 
d="M455 680h-335v-315h300v-20h-300v-325h340v-20h-360v700h355v-20zM390 780h-220v20h220v-20z" />
    <glyph glyph-name="emacron" unicode="&#x113;" horiz-adv-x="515" 
d="M460 225h-385q0 -93 56 -152q57 -58 149 -58q93 0 150 60l14 -15q-62 -65 -164 -65q-101 0 -163 63q-62 65 -62 169q0 101 57 164q58 64 149 64t145 -64q54 -63 54 -166zM262 435q-77 0 -129 -52q-52 -50 -58 -138h364q-6 87 -53.5 138.5t-123.5 51.5zM372 560h-220v20
h220v-20z" />
    <glyph glyph-name="Ebreve" unicode="&#x114;" horiz-adv-x="520" 
d="M455 680h-335v-315h300v-20h-300v-325h340v-20h-360v700h355v-20zM389 836l15 -15q-53 -53 -124 -53t-124 53l15 15q48 -48 109 -48t109 48z" />
    <glyph glyph-name="ebreve" unicode="&#x115;" horiz-adv-x="515" 
d="M460 225h-385q0 -93 56 -152q57 -58 149 -58q93 0 150 60l14 -15q-62 -65 -164 -65q-101 0 -163 63q-62 65 -62 169q0 101 57 164q58 64 149 64t145 -64q54 -63 54 -166zM262 435q-77 0 -129 -52q-52 -50 -58 -138h364q-6 87 -53.5 138.5t-123.5 51.5zM369 616l15 -15
q-53 -53 -124 -53t-124 53l15 15q48 -48 109 -48t109 48z" />
    <glyph glyph-name="Edotaccent" unicode="&#x116;" horiz-adv-x="520" 
d="M455 680h-335v-315h300v-20h-300v-325h340v-20h-360v700h355v-20zM262 787q-11 11 -6 24.5t17 17t24 -5.5q12 -11 7 -25t-17.5 -17.5t-24.5 6.5z" />
    <glyph glyph-name="edotaccent" unicode="&#x117;" horiz-adv-x="515" 
d="M460 225h-385q0 -93 56 -152q57 -58 149 -58q93 0 150 60l14 -15q-62 -65 -164 -65q-101 0 -163 63q-62 65 -62 169q0 101 57 164q58 64 149 64t145 -64q54 -63 54 -166zM262 435q-77 0 -129 -52q-52 -50 -58 -138h364q-6 87 -53.5 138.5t-123.5 51.5zM244 567
q-11 11 -6 24.5t17 17t24 -5.5q12 -11 7 -25t-17.5 -17.5t-24.5 6.5z" />
    <glyph glyph-name="Eogonek" unicode="&#x118;" horiz-adv-x="520" 
d="M343 -44q0 -30 17.5 -48.5t45.5 -18.5q30 0 46 18l15 -14q-23 -24 -61 -24q-37 0 -60 23.5t-23 62.5q0 29 12 45h-235v700h355v-20h-335v-315h300v-20h-300v-325h340v-20h-105q-12 -16 -12 -44z" />
    <glyph glyph-name="eogonek" unicode="&#x119;" horiz-adv-x="515" 
d="M318 -44q0 -30 17.5 -48.5t45.5 -18.5q29 0 46 18l15 -14q-22 -24 -61 -24q-37 0 -60 23.5t-23 62.5q0 25 9 42q-24 -2 -27 -2q-101 0 -163 63q-62 65 -62 169q0 101 57 164q58 64 149 64t145 -64q54 -63 54 -166h-385q0 -93 56 -152q57 -58 149 -58q93 0 150 60l14 -15
q-45 -48 -114 -60q-12 -16 -12 -44zM262 435q-77 0 -129 -52q-52 -50 -58 -138h364q-6 87 -53.5 138.5t-123.5 51.5z" />
    <glyph glyph-name="Ecaron" unicode="&#x11a;" horiz-adv-x="520" 
d="M386 855l-106 -106l-106 106l14 14l92 -92l92 92zM455 680h-335v-315h300v-20h-300v-325h340v-20h-360v700h355v-20z" />
    <glyph glyph-name="ecaron" unicode="&#x11b;" horiz-adv-x="515" 
d="M460 225h-385q0 -93 56 -152q57 -58 149 -58q93 0 150 60l14 -15q-62 -65 -164 -65q-101 0 -163 63q-62 65 -62 169q0 101 57 164q58 64 149 64t145 -64q54 -63 54 -166zM262 435q-77 0 -129 -52q-52 -50 -58 -138h364q-6 87 -53.5 138.5t-123.5 51.5zM368 635l-106 -106
l-106 106l14 14l92 -92l92 92z" />
    <glyph glyph-name="Gcircumflex" unicode="&#x11c;" horiz-adv-x="758" 
d="M638 330h-233v20h253v-254q-95 -101 -253 -101q-154 0 -250 98q-95 100 -95 257q0 158 95 256q96 99 250 99q155 0 253 -102l-15 -15q-91 97 -238 97q-145 0 -235 -93t-90 -242t90 -242t235 -93q143 0 233 90v225zM298 763l106 106l106 -106l-14 -14l-92 92l-92 -92z" />
    <glyph glyph-name="gcircumflex" unicode="&#x11d;" horiz-adv-x="490" 
d="M35 -125q0 47 30.5 81t84.5 48q-70 21 -70 75q0 27 20.5 48t57.5 31q-45 16 -69 53t-24 88q0 70 44 113t116 43q61 0 103 -33q34 33 79 33q5 0 23 -2v-20q-18 2 -21 2q-37 0 -66 -26q42 -42 42 -109q0 -69 -45 -112t-117 -43q-56 0 -89.5 -18t-33.5 -47t38 -47t102 -18
q90 0 142.5 -34.5t52.5 -92.5q0 -62 -62 -103q-61 -40 -153 -40q-84 0 -134.5 36t-50.5 94zM55 -125q0 -49 45 -79.5t120 -30.5q83 0 139 35t56 88q0 48 -48 77.5t-126 29.5q-86 0 -136 -33t-50 -87zM124 397q-39 -37 -39 -97t39 -98q38 -37 101 -37t101 37q39 38 39 98
t-39 97q-40 38 -101 38t-101 -38zM118 543l106 106l106 -106l-14 -14l-92 92l-92 -92z" />
    <glyph glyph-name="Gbreve" unicode="&#x11e;" horiz-adv-x="758" 
d="M638 330h-233v20h253v-254q-95 -101 -253 -101q-154 0 -250 98q-95 100 -95 257q0 158 95 256q96 99 250 99q155 0 253 -102l-15 -15q-91 97 -238 97q-145 0 -235 -93t-90 -242t90 -242t235 -93q143 0 233 90v225zM513 836l15 -15q-53 -53 -124 -53t-124 53l15 15
q48 -48 109 -48t109 48z" />
    <glyph glyph-name="gbreve" unicode="&#x11f;" horiz-adv-x="490" 
d="M35 -125q0 47 30.5 81t84.5 48q-70 21 -70 75q0 27 20.5 48t57.5 31q-45 16 -69 53t-24 88q0 70 44 113t116 43q61 0 103 -33q34 33 79 33q5 0 23 -2v-20q-18 2 -21 2q-37 0 -66 -26q42 -42 42 -109q0 -69 -45 -112t-117 -43q-56 0 -89.5 -18t-33.5 -47t38 -47t102 -18
q90 0 142.5 -34.5t52.5 -92.5q0 -62 -62 -103q-61 -40 -153 -40q-84 0 -134.5 36t-50.5 94zM55 -125q0 -49 45 -79.5t120 -30.5q83 0 139 35t56 88q0 48 -48 77.5t-126 29.5q-86 0 -136 -33t-50 -87zM124 397q-39 -37 -39 -97t39 -98q38 -37 101 -37t101 37q39 38 39 98
t-39 97q-40 38 -101 38t-101 -38zM334 616l15 -15q-53 -53 -124 -53t-124 53l15 15q48 -48 109 -48t109 48z" />
    <glyph glyph-name="Gdotaccent" unicode="&#x120;" horiz-adv-x="758" 
d="M638 330h-233v20h253v-254q-95 -101 -253 -101q-154 0 -250 98q-95 100 -95 257q0 158 95 256q96 99 250 99q155 0 253 -102l-15 -15q-91 97 -238 97q-145 0 -235 -93t-90 -242t90 -242t235 -93q143 0 233 90v225zM386 787q-11 11 -6 24.5t17 17t24 -5.5q12 -11 7 -25
t-17.5 -17.5t-24.5 6.5z" />
    <glyph glyph-name="gdotaccent" unicode="&#x121;" horiz-adv-x="490" 
d="M35 -125q0 47 30.5 81t84.5 48q-70 21 -70 75q0 27 20.5 48t57.5 31q-45 16 -69 53t-24 88q0 70 44 113t116 43q61 0 103 -33q34 33 79 33q5 0 23 -2v-20q-18 2 -21 2q-37 0 -66 -26q42 -42 42 -109q0 -69 -45 -112t-117 -43q-56 0 -89.5 -18t-33.5 -47t38 -47t102 -18
q90 0 142.5 -34.5t52.5 -92.5q0 -62 -62 -103q-61 -40 -153 -40q-84 0 -134.5 36t-50.5 94zM55 -125q0 -49 45 -79.5t120 -30.5q83 0 139 35t56 88q0 48 -48 77.5t-126 29.5q-86 0 -136 -33t-50 -87zM124 397q-39 -37 -39 -97t39 -98q38 -37 101 -37t101 37q39 38 39 98
t-39 97q-40 38 -101 38t-101 -38zM202 567q-11 11 -6 24.5t17 17t24 -5.5q12 -11 7 -25t-17.5 -17.5t-24.5 6.5z" />
    <glyph glyph-name="Gcommaaccent" unicode="&#x122;" horiz-adv-x="758" 
d="M638 330h-233v20h253v-254q-95 -101 -253 -101q-154 0 -250 98q-95 100 -95 257q0 158 95 256q96 99 250 99q155 0 253 -102l-15 -15q-91 97 -238 97q-145 0 -235 -93t-90 -242t90 -242t235 -93q143 0 233 90v225zM382 -178l-13 13q36 36 36 60q-11 0 -18.5 7.5
t-7.5 17.5q0 11 7.5 18t18.5 7q24 0 24 -33q0 -43 -47 -90z" />
    <glyph glyph-name="gcommaaccent" unicode="&#x123;" horiz-adv-x="490" 
d="M35 -125q0 47 30.5 81t84.5 48q-70 21 -70 75q0 27 20.5 48t57.5 31q-45 16 -69 53t-24 88q0 70 44 113t116 43q61 0 103 -33q34 33 79 33q5 0 23 -2v-20q-18 2 -21 2q-37 0 -66 -26q42 -42 42 -109q0 -69 -45 -112t-117 -43q-56 0 -89.5 -18t-33.5 -47t38 -47t102 -18
q90 0 142.5 -34.5t52.5 -92.5q0 -62 -62 -103q-61 -40 -153 -40q-84 0 -134.5 36t-50.5 94zM55 -125q0 -49 45 -79.5t120 -30.5q83 0 139 35t56 88q0 48 -48 77.5t-126 29.5q-86 0 -136 -33t-50 -87zM124 397q-39 -37 -39 -97t39 -98q38 -37 101 -37t101 37q39 38 39 98
t-39 97q-40 38 -101 38t-101 -38zM249 658l13 -13q-36 -36 -36 -60q11 0 18.5 -7.5t7.5 -17.5q0 -11 -7.5 -18t-18.5 -7q-24 0 -24 33q0 43 47 90z" />
    <glyph glyph-name="Hcircumflex" unicode="&#x124;" horiz-adv-x="700" 
d="M244 763l106 106l106 -106l-14 -14l-92 92l-92 -92zM100 700h20v-335h460v335h20v-700h-20v345h-460v-345h-20v700z" />
    <glyph glyph-name="hcircumflex" unicode="&#x125;" horiz-adv-x="532" 
d="M155 763l106 106l106 -106l-14 -14l-92 92l-92 -92zM95 0v750h20v-344q59 49 147 49q76 0 123 -48.5t47 -126.5v-280h-20v280q0 69 -41.5 112t-108.5 43q-90 0 -147 -57v-378h-20z" />
    <glyph glyph-name="Hbar" unicode="&#x126;" horiz-adv-x="700" 
d="M140 0h-20v520h-70v20h70v160h20v-160h420v160h20v-160h70v-20h-70v-520h-20v345h-420v-345zM140 520v-155h420v155h-420z" />
    <glyph glyph-name="hbar" unicode="&#x127;" horiz-adv-x="532" 
d="M95 630h-65v20h65v100h20v-100h200v-20h-200v-224q59 49 147 49q76 0 123 -48.5t47 -126.5v-280h-20v280q0 69 -41.5 112t-108.5 43q-90 0 -147 -57v-378h-20v630z" />
    <glyph glyph-name="Itilde" unicode="&#x128;" 
d="M4 777h-20q0 31 19 50.5t49 19.5q29 0 56 -27t50 -27q22 0 35.5 14t13.5 36h20q0 -32 -19 -51t-50 -19q-30 0 -57 27q-25 27 -48 27q-22 0 -35.5 -14t-13.5 -36zM115 0h-20v700h20v-700z" />
    <glyph glyph-name="itilde" unicode="&#x129;" 
d="M4 557h-20q0 31 19 50.5t49 19.5q29 0 56 -27t50 -27q22 0 35.5 14t13.5 36h20q0 -32 -19 -51t-50 -19q-30 0 -57 27q-25 27 -48 27q-22 0 -35.5 -14t-13.5 -36zM115 0h-20v450h20v-450z" />
    <glyph glyph-name="Imacron" unicode="&#x12a;" 
d="M115 0h-20v700h20v-700zM215 780h-220v20h220v-20z" />
    <glyph glyph-name="imacron" unicode="&#x12b;" 
d="M115 0h-20v450h20v-450zM215 560h-220v20h220v-20z" />
    <glyph glyph-name="Ibreve" unicode="&#x12c;" 
d="M214 836l15 -15q-53 -53 -124 -53t-124 53l15 15q48 -48 109 -48t109 48zM115 0h-20v700h20v-700z" />
    <glyph glyph-name="ibreve" unicode="&#x12d;" 
d="M214 616l15 -15q-53 -53 -124 -53t-124 53l15 15q48 -48 109 -48t109 48zM115 0h-20v450h20v-450z" />
    <glyph glyph-name="Iogonek" unicode="&#x12e;" 
d="M103 -44q0 -30 17.5 -48.5t45.5 -18.5q30 0 46 18l15 -14q-23 -24 -61 -24q-37 0 -60 23.5t-23 62.5q0 29 12 45v700h20v-700q-12 -16 -12 -44z" />
    <glyph glyph-name="iogonek" unicode="&#x12f;" 
d="M103 -44q0 -30 17.5 -48.5t45.5 -18.5q30 0 46 18l15 -14q-23 -24 -61 -24q-37 0 -60 23.5t-23 62.5q0 29 12 45v450h20v-450q-12 -16 -12 -44zM87 567q-17 17 1 35t35 1t-1 -35t-35 -1z" />
    <glyph glyph-name="Idot" unicode="&#x130;" 
d="M87 787q-17 17 1 35t35 1t-1 -35t-35 -1zM115 0h-20v700h20v-700z" />
    <glyph glyph-name="dotlessi" unicode="&#x131;" 
d="M115 0h-20v450h20v-450z" />
    <glyph glyph-name="IJ" unicode="&#x132;" horiz-adv-x="515" 
d="M400 180v520h20v-520q0 -82 -50 -134q-50 -51 -130 -51q-81 0 -131 53l14 15q45 -48 117 -48t115 46q45 46 45 119zM120 250h-20v450h20v-450z" />
    <glyph glyph-name="ij" unicode="&#x133;" horiz-adv-x="420" 
d="M297 567q-17 17 1 35t35 1t-1 -35t-35 -1zM237 -250v15q68 0 68 63v622h20v-622q0 -37 -20 -59t-48 -22q-15 0 -20 3zM115 0h-20v450h20v-450zM87 567q-17 17 1 35t35 1t-1 -35t-35 -1z" />
    <glyph glyph-name="Jcircumflex" unicode="&#x134;" horiz-adv-x="456" 
d="M245 763l106 106l106 -106l-14 -14l-92 92l-92 -92zM341 180v520h20v-520q0 -82 -50 -134q-49 -51 -130 -51t-131 53l14 15q45 -48 117 -48t115 46q45 47 45 119z" />
    <glyph glyph-name="jcircumflex" unicode="&#x135;" 
d="M-1 543l106 106l106 -106l-14 -14l-92 92l-92 -92zM27 -250v15q68 0 68 63v622h20v-622q0 -37 -20 -59t-48 -22q-15 0 -20 3z" />
    <glyph glyph-name="Kcommaaccent" unicode="&#x136;" horiz-adv-x="565" 
d="M115 0h-20v700h20v-700zM515 0h-25l-343 358l323 342h25l-323 -342zM265 -178l-13 13q36 36 36 60q-11 0 -18.5 7.5t-7.5 17.5q0 11 7.5 18t18.5 7q24 0 24 -33q0 -43 -47 -90z" />
    <glyph glyph-name="kcommaaccent" unicode="&#x137;" horiz-adv-x="443" 
d="M115 750v-750h-20v750h20zM393 0h-27l-237 238l212 212h27l-212 -212zM204 -178l-13 13q36 36 36 60q-11 0 -18.5 7.5t-7.5 17.5q0 11 7.5 18t18.5 7q24 0 24 -33q0 -43 -47 -90z" />
    <glyph glyph-name="Lacute" unicode="&#x139;" horiz-adv-x="470" 
d="M189 749l-14 14l106 106l14 -14zM100 700h20v-680h300v-20h-320v700z" />
    <glyph glyph-name="lacute" unicode="&#x13a;" horiz-adv-x="235" 
d="M72 779l-14 14l106 106l14 -14zM183 15v-15q-5 -3 -20 -3q-28 0 -48 22t-20 59v672h20v-672q0 -63 68 -63z" />
    <glyph glyph-name="Lcommaaccent" unicode="&#x13b;" horiz-adv-x="470" 
d="M238 -178l-13 13q36 36 36 60q-11 0 -18.5 7.5t-7.5 17.5q0 11 7.5 18t18.5 7q24 0 24 -33q0 -43 -47 -90zM100 700h20v-680h300v-20h-320v700z" />
    <glyph glyph-name="lcommaaccent" unicode="&#x13c;" horiz-adv-x="235" 
d="M110 -178l-13 13q36 36 36 60q-11 0 -18.5 7.5t-7.5 17.5q0 11 7.5 18t18.5 7q24 0 24 -33q0 -43 -47 -90zM183 15v-15q-5 -3 -20 -3q-28 0 -48 22t-20 59v672h20v-672q0 -63 68 -63z" />
    <glyph glyph-name="Lcaron" unicode="&#x13d;" horiz-adv-x="470" 
d="M216 855l-106 -106l-106 106l14 14l92 -92l92 92zM100 700h20v-680h300v-20h-320v700z" />
    <glyph glyph-name="lcaron" unicode="&#x13e;" horiz-adv-x="325" 
d="M253 632l-13 13q36 36 36 60q-11 0 -18.5 7.5t-7.5 17.5q0 11 7.5 18t18.5 7q24 0 24 -33q0 -43 -47 -90zM183 15v-15q-5 -3 -20 -3q-28 0 -48 22t-20 59v672h20v-672q0 -63 68 -63z" />
    <glyph glyph-name="Ldot" unicode="&#x13f;" horiz-adv-x="470" 
d="M100 700h20v-680h300v-20h-320v700zM332 307q-11 11 -6 24.5t17 17t24 -5.5q12 -11 7 -25t-17.5 -17.5t-24.5 6.5z" />
    <glyph glyph-name="ldot" unicode="&#x140;" horiz-adv-x="345" 
d="M183 15v-15q-5 -3 -20 -3q-28 0 -48 22t-20 59v672h20v-672q0 -63 68 -63zM262 307q-11 11 -6 24.5t17 17t24 -5.5q12 -11 7 -25t-17.5 -17.5t-24.5 6.5z" />
    <glyph glyph-name="Lslash" unicode="&#x141;" horiz-adv-x="470" 
d="M34 239l-14 14l80 80v367h20v-351l106 106l14 -14l-120 -120v-301h300v-20h-320v305z" />
    <glyph glyph-name="lslash" unicode="&#x142;" horiz-adv-x="235" 
d="M183 15v-15q-5 -3 -20 -3q-28 0 -48 22t-20 59v251l-66 -66l-14 14l80 80v393h20v-377l71 71l14 -14l-85 -85v-267q0 -63 68 -63z" />
    <glyph glyph-name="Nacute" unicode="&#x143;" horiz-adv-x="720" 
d="M100 0v700h20l480 -666v666h20v-700h-20l-480 666v-666h-20zM334 749l-14 14l106 106l14 -14z" />
    <glyph glyph-name="nacute" unicode="&#x144;" horiz-adv-x="527" 
d="M95 0v450h20v-44q59 49 147 49q76 0 123 -48.5t47 -126.5v-280h-20v280q0 69 -41.5 112t-108.5 43q-90 0 -147 -57v-378h-20zM237 529l-14 14l106 106l14 -14z" />
    <glyph glyph-name="Ncommaaccent" unicode="&#x145;" horiz-adv-x="720" 
d="M100 0v700h20l480 -666v666h20v-700h-20l-480 666v-666h-20zM343 -178l-13 13q36 36 36 60q-11 0 -18.5 7.5t-7.5 17.5q0 11 7.5 18t18.5 7q24 0 24 -33q0 -43 -47 -90z" />
    <glyph glyph-name="ncommaaccent" unicode="&#x146;" horiz-adv-x="527" 
d="M95 0v450h20v-44q59 49 147 49q76 0 123 -48.5t47 -126.5v-280h-20v280q0 69 -41.5 112t-108.5 43q-90 0 -147 -57v-378h-20zM241 -178l-13 13q36 36 36 60q-11 0 -18.5 7.5t-7.5 17.5q0 11 7.5 18t18.5 7q24 0 24 -33q0 -43 -47 -90z" />
    <glyph glyph-name="Ncaron" unicode="&#x147;" horiz-adv-x="720" 
d="M466 855l-106 -106l-106 106l14 14l92 -92l92 92zM100 0v700h20l480 -666v666h20v-700h-20l-480 666v-666h-20z" />
    <glyph glyph-name="ncaron" unicode="&#x148;" horiz-adv-x="527" 
d="M369 635l-106 -106l-106 106l14 14l92 -92l92 92zM95 0v450h20v-44q59 49 147 49q76 0 123 -48.5t47 -126.5v-280h-20v280q0 69 -41.5 112t-108.5 43q-90 0 -147 -57v-378h-20z" />
    <glyph glyph-name="Eng" unicode="&#x14a;" horiz-adv-x="720" 
d="M532 -250v15q68 0 68 63v172l-480 666v-666h-20v700h20l480 -666v666h20v-872q0 -37 -20 -59t-48 -22q-16 0 -20 3z" />
    <glyph glyph-name="eng" unicode="&#x14b;" horiz-adv-x="527" 
d="M344 -250v15q68 0 68 63v452q0 69 -41.5 112t-108.5 43q-90 0 -147 -57v-378h-20v450h20v-44q59 49 147 49q76 0 123 -48.5t47 -126.5v-452q0 -37 -20 -59t-48 -22q-16 0 -20 3z" />
    <glyph glyph-name="Omacron" unicode="&#x14c;" horiz-adv-x="810" 
d="M155 93q-95 100 -95 257q0 158 95 256q96 99 250 99q155 0 249 -99q96 -97 96 -256q0 -158 -96 -257q-95 -98 -249 -98t-250 98zM170 592q-90 -93 -90 -242t90 -242t235 -93t235 93t90 242t-90 242t-235 93t-235 -93zM515 780h-220v20h220v-20z" />
    <glyph glyph-name="omacron" unicode="&#x14d;" horiz-adv-x="560" 
d="M117 58q-62 65 -62 167t62 166q61 64 163 64t163 -64q62 -64 62 -166t-62 -167q-61 -63 -163 -63q-101 0 -163 63zM131 377q-56 -59 -56 -152t56 -152q57 -58 149 -58q93 0 148 58q57 59 57 152t-57 152q-55 58 -148 58q-92 0 -149 -58zM390 560h-220v20h220v-20z" />
    <glyph glyph-name="Obreve" unicode="&#x14e;" horiz-adv-x="810" 
d="M155 93q-95 100 -95 257q0 158 95 256q96 99 250 99q155 0 249 -99q96 -97 96 -256q0 -158 -96 -257q-95 -98 -249 -98t-250 98zM170 592q-90 -93 -90 -242t90 -242t235 -93t235 93t90 242t-90 242t-235 93t-235 -93zM514 836l15 -15q-53 -53 -124 -53t-124 53l15 15
q48 -48 109 -48t109 48z" />
    <glyph glyph-name="obreve" unicode="&#x14f;" horiz-adv-x="560" 
d="M117 58q-62 65 -62 167t62 166q61 64 163 64t163 -64q62 -64 62 -166t-62 -167q-61 -63 -163 -63q-101 0 -163 63zM131 377q-56 -59 -56 -152t56 -152q57 -58 149 -58q93 0 148 58q57 59 57 152t-57 152q-55 58 -148 58q-92 0 -149 -58zM389 616l15 -15q-53 -53 -124 -53
t-124 53l15 15q48 -48 109 -48t109 48z" />
    <glyph glyph-name="Ohungarumlaut" unicode="&#x150;" horiz-adv-x="810" 
d="M155 93q-95 100 -95 257q0 158 95 256q96 99 250 99q155 0 249 -99q96 -97 96 -256q0 -158 -96 -257q-95 -98 -249 -98t-250 98zM170 592q-90 -93 -90 -242t90 -242t235 -93t235 93t90 242t-90 242t-235 93t-235 -93zM314 749l-14 14l106 106l14 -14zM444 749l-14 14
l106 106l14 -14z" />
    <glyph glyph-name="ohungarumlaut" unicode="&#x151;" horiz-adv-x="560" 
d="M117 58q-62 65 -62 167t62 166q61 64 163 64t163 -64q62 -64 62 -166t-62 -167q-61 -63 -163 -63q-101 0 -163 63zM131 377q-56 -59 -56 -152t56 -152q57 -58 149 -58q93 0 148 58q57 59 57 152t-57 152q-55 58 -148 58q-92 0 -149 -58zM189 529l-14 14l106 106l14 -14z
M319 529l-14 14l106 106l14 -14z" />
    <glyph glyph-name="OE" unicode="&#x152;" horiz-adv-x="855" 
d="M790 680h-305v-315h270v-20h-270v-325h310v-20h-326q-38 -5 -64 -5q-154 0 -250 98q-95 100 -95 257q0 158 95 256q96 99 250 99q26 0 64 -5h321v-20zM405 15q36 0 60 4v662q-24 4 -60 4q-145 0 -235 -93t-90 -242t90 -242t235 -93z" />
    <glyph glyph-name="oe" unicode="&#x153;" horiz-adv-x="875" 
d="M820 225h-385q0 -93 56 -152q57 -58 149 -58q93 0 150 60l14 -15q-62 -65 -164 -65q-118 0 -180 84q-63 -84 -180 -84q-101 0 -163 63q-62 65 -62 167t62 166q61 64 163 64q114 0 178 -82q58 82 163 82q91 0 145 -64q54 -63 54 -166zM280 15q110 0 168 82q-33 57 -33 130
q0 75 31 128q-59 80 -166 80q-92 0 -149 -58q-56 -59 -56 -152t56 -152q57 -58 149 -58zM622 435q-77 0 -129 -52q-52 -50 -58 -138h364q-6 87 -53.5 138.5t-123.5 51.5z" />
    <glyph glyph-name="Racute" unicode="&#x154;" horiz-adv-x="515" 
d="M470 0h-24l-196 335h-130v-335h-20v700h170q81 0 130.5 -50t49.5 -133q0 -82 -49 -131q-50 -50 -128 -51zM270 680h-150v-325h150q72 0 116 44.5t44 117.5t-44 118t-116 45zM231 749l-14 14l106 106l14 -14z" />
    <glyph glyph-name="racute" unicode="&#x155;" horiz-adv-x="340" 
d="M255 455q4 0 30 -2v-20q-26 2 -30 2q-86 0 -140 -70v-365h-20v450h20v-54q57 59 140 59zM164 529l-14 14l106 106l14 -14z" />
    <glyph glyph-name="Rcommaaccent" unicode="&#x156;" horiz-adv-x="515" 
d="M470 0h-24l-196 335h-130v-335h-20v700h170q81 0 130.5 -50t49.5 -133q0 -82 -49 -131q-50 -50 -128 -51zM270 680h-150v-325h150q72 0 116 44.5t44 117.5t-44 118t-116 45zM240 -178l-13 13q36 36 36 60q-11 0 -18.5 7.5t-7.5 17.5q0 11 7.5 18t18.5 7q24 0 24 -33
q0 -43 -47 -90z" />
    <glyph glyph-name="rcommaaccent" unicode="&#x157;" horiz-adv-x="340" 
d="M255 455q4 0 30 -2v-20q-26 2 -30 2q-86 0 -140 -70v-365h-20v450h20v-54q57 59 140 59zM83 -178l-13 13q36 36 36 60q-11 0 -18.5 7.5t-7.5 17.5q0 11 7.5 18t18.5 7q24 0 24 -33q0 -43 -47 -90z" />
    <glyph glyph-name="Rcaron" unicode="&#x158;" horiz-adv-x="515" 
d="M470 0h-24l-196 335h-130v-335h-20v700h170q81 0 130.5 -50t49.5 -133q0 -82 -49 -131q-50 -50 -128 -51zM270 680h-150v-325h150q72 0 116 44.5t44 117.5t-44 118t-116 45zM363 855l-106 -106l-106 106l14 14l92 -92l92 92z" />
    <glyph glyph-name="rcaron" unicode="&#x159;" horiz-adv-x="340" 
d="M296 635l-106 -106l-106 106l14 14l92 -92l92 92zM255 455q4 0 30 -2v-20q-26 2 -30 2q-86 0 -140 -70v-365h-20v450h20v-54q57 59 140 59z" />
    <glyph glyph-name="Sacute" unicode="&#x15a;" horiz-adv-x="502" 
d="M417 634l-15 -15q-27 30 -72.5 48t-93.5 18q-79 0 -118 -46q-38 -46 -38 -105q0 -46 27 -81q9 -11 20.5 -21t21 -16.5t26.5 -15t25.5 -12t30.5 -13t30 -12.5q47 -19 87 -39q42 -19 68 -56t26 -85q0 -72 -50 -131q-50 -57 -150 -57q-58 0 -110 21t-84 58l14 14
q29 -35 78 -54t102 -19q48 0 85 16.5t56.5 42.5t29 53.5t9.5 55.5q0 95 -128 144q-3 1 -34 12.5t-37.5 15t-33.5 15t-35.5 18t-29 20t-28 25t-18.5 27.5t-14.5 34.5t-3.5 39.5q0 70 43 120q43 51 134 51q115 0 180 -71zM210 749l-14 14l106 106l14 -14z" />
    <glyph glyph-name="sacute" unicode="&#x15b;" horiz-adv-x="380" 
d="M299 409l-14 -14q-40 40 -108 40q-48 0 -73.5 -27t-25.5 -67q0 -34 24.5 -57t59.5 -36t69.5 -26.5t59 -39t24.5 -63.5q0 -49 -34 -86q-35 -38 -101 -38q-83 0 -130 51l14 14q39 -45 116 -45q56 0 85.5 30.5t29.5 73.5q0 33 -24.5 55t-59 35t-69.5 26.5t-59.5 40
t-24.5 65.5q0 49 30.5 81.5t88.5 32.5q77 0 122 -46zM149 529l-14 14l106 106l14 -14z" />
    <glyph glyph-name="Scircumflex" unicode="&#x15c;" horiz-adv-x="502" 
d="M417 634l-15 -15q-27 30 -72.5 48t-93.5 18q-79 0 -118 -46q-38 -46 -38 -105q0 -46 27 -81q9 -11 20.5 -21t21 -16.5t26.5 -15t25.5 -12t30.5 -13t30 -12.5q47 -19 87 -39q42 -19 68 -56t26 -85q0 -72 -50 -131q-50 -57 -150 -57q-58 0 -110 21t-84 58l14 14
q29 -35 78 -54t102 -19q48 0 85 16.5t56.5 42.5t29 53.5t9.5 55.5q0 95 -128 144q-3 1 -34 12.5t-37.5 15t-33.5 15t-35.5 18t-29 20t-28 25t-18.5 27.5t-14.5 34.5t-3.5 39.5q0 70 43 120q43 51 134 51q115 0 180 -71zM130 763l106 106l106 -106l-14 -14l-92 92l-92 -92z
" />
    <glyph glyph-name="scircumflex" unicode="&#x15d;" horiz-adv-x="380" 
d="M299 409l-14 -14q-40 40 -108 40q-48 0 -73.5 -27t-25.5 -67q0 -34 24.5 -57t59.5 -36t69.5 -26.5t59 -39t24.5 -63.5q0 -49 -34 -86q-35 -38 -101 -38q-83 0 -130 51l14 14q39 -45 116 -45q56 0 85.5 30.5t29.5 73.5q0 33 -24.5 55t-59 35t-69.5 26.5t-59.5 40
t-24.5 65.5q0 49 30.5 81.5t88.5 32.5q77 0 122 -46zM69 543l106 106l106 -106l-14 -14l-92 92l-92 -92z" />
    <glyph glyph-name="Scedilla" unicode="&#x15e;" horiz-adv-x="502" 
d="M417 634l-15 -15q-27 30 -72.5 48t-93.5 18q-79 0 -118 -46q-38 -46 -38 -105q0 -46 27 -81q9 -11 20.5 -21t21 -16.5t26.5 -15t25.5 -12t30.5 -13t30 -12.5q47 -19 87 -39q42 -19 68 -56t26 -85q0 -43 -18 -84q-19 -43 -65 -72.5t-108 -31.5v-60q29 -4 46 -22.5
t17 -47.5q0 -31 -20.5 -50.5t-52.5 -19.5q-34 0 -53 22l14 14q24 -25 59.5 -12t32.5 47q0 51 -63 51v78q-55 2 -104 23t-79 56l14 14q29 -35 78 -54t102 -19q48 0 85 16.5t56.5 42.5t29 53.5t9.5 55.5q0 95 -128 144q-3 1 -34 12.5t-37.5 15t-33.5 15t-35.5 18t-29 20
t-28 25t-18.5 27.5t-14.5 34.5t-3.5 39.5q0 70 43 120q43 51 134 51q115 0 180 -71z" />
    <glyph glyph-name="scedilla" unicode="&#x15f;" horiz-adv-x="380" 
d="M299 409l-14 -14q-40 40 -108 40q-48 0 -73.5 -27t-25.5 -67q0 -34 24.5 -57t59.5 -36t69.5 -26.5t59 -39t24.5 -63.5q0 -46 -32 -84q-31 -37 -93 -40v-60q29 -4 46 -22.5t17 -47.5q0 -31 -20.5 -50.5t-52.5 -19.5q-34 0 -53 22l14 14q24 -25 59.5 -12t32.5 47
q0 51 -63 51v78q-80 5 -120 51l14 14q39 -45 116 -45q56 0 85.5 30.5t29.5 73.5q0 33 -24.5 55t-59 35t-69.5 26.5t-59.5 40t-24.5 65.5q0 49 30.5 81.5t88.5 32.5q77 0 122 -46z" />
    <glyph glyph-name="Scaron" unicode="&#x160;" horiz-adv-x="502" 
d="M417 634l-15 -15q-27 30 -72.5 48t-93.5 18q-79 0 -118 -46q-38 -46 -38 -105q0 -46 27 -81q9 -11 20.5 -21t21 -16.5t26.5 -15t25.5 -12t30.5 -13t30 -12.5q47 -19 87 -39q42 -19 68 -56t26 -85q0 -72 -50 -131q-50 -57 -150 -57q-58 0 -110 21t-84 58l14 14
q29 -35 78 -54t102 -19q48 0 85 16.5t56.5 42.5t29 53.5t9.5 55.5q0 95 -128 144q-3 1 -34 12.5t-37.5 15t-33.5 15t-35.5 18t-29 20t-28 25t-18.5 27.5t-14.5 34.5t-3.5 39.5q0 70 43 120q43 51 134 51q115 0 180 -71zM342 855l-106 -106l-106 106l14 14l92 -92l92 92z" />
    <glyph glyph-name="scaron" unicode="&#x161;" horiz-adv-x="380" 
d="M299 409l-14 -14q-40 40 -108 40q-48 0 -73.5 -27t-25.5 -67q0 -34 24.5 -57t59.5 -36t69.5 -26.5t59 -39t24.5 -63.5q0 -49 -34 -86q-35 -38 -101 -38q-83 0 -130 51l14 14q39 -45 116 -45q56 0 85.5 30.5t29.5 73.5q0 33 -24.5 55t-59 35t-69.5 26.5t-59.5 40
t-24.5 65.5q0 49 30.5 81.5t88.5 32.5q77 0 122 -46zM281 635l-106 -106l-106 106l14 14l92 -92l92 92z" />
    <glyph glyph-name="Tcommaaccent" unicode="&#x162;" horiz-adv-x="558" 
d="M510 680h-220v-680h-20v680h-220v20h460v-20zM262 -178l-13 13q36 36 36 60q-11 0 -18.5 7.5t-7.5 17.5q0 11 7.5 18t18.5 7q24 0 24 -33q0 -43 -47 -90z" />
    <glyph glyph-name="tcommaaccent" unicode="&#x163;" horiz-adv-x="300" 
d="M95 430h-65v20h65v100h20v-100h150v-20h-150v-315q0 -44 27.5 -72t71.5 -28q29 0 51 13v-23q-26 -10 -51 -10q-53 0 -86 33.5t-33 86.5v315zM143 -178l-13 13q36 36 36 60q-11 0 -18.5 7.5t-7.5 17.5q0 11 7.5 18t18.5 7q24 0 24 -33q0 -43 -47 -90z" />
    <glyph glyph-name="Tcaron" unicode="&#x164;" horiz-adv-x="558" 
d="M385 855l-106 -106l-106 106l14 14l92 -92l92 92zM510 680h-220v-680h-20v680h-220v20h460v-20z" />
    <glyph glyph-name="tcaron" unicode="&#x165;" horiz-adv-x="300" 
d="M95 430h-65v20h65v100h20v-100h150v-20h-150v-315q0 -44 27.5 -72t71.5 -28q29 0 51 13v-23q-26 -10 -51 -10q-53 0 -86 33.5t-33 86.5v315zM233 582l-13 13q36 36 36 60q-11 0 -18.5 7.5t-7.5 17.5q0 11 7.5 18t18.5 7q24 0 24 -33q0 -43 -47 -90z" />
    <glyph glyph-name="Tbar" unicode="&#x166;" horiz-adv-x="558" 
d="M270 360h-160v20h160v300h-220v20h460v-20h-220v-300h160v-20h-160v-360h-20v360z" />
    <glyph glyph-name="tbar" unicode="&#x167;" horiz-adv-x="300" 
d="M95 280h-65v20h65v130h-65v20h65v100h20v-100h150v-20h-150v-130h150v-20h-150v-165q0 -44 27.5 -72t71.5 -28q29 0 51 13v-23q-26 -10 -51 -10q-53 0 -86 33.5t-33 86.5v165z" />
    <glyph glyph-name="Utilde" unicode="&#x168;" horiz-adv-x="696" 
d="M246 777h-20q0 31 19 50.5t49 19.5q29 0 56 -27t50 -27q22 0 35.5 14t13.5 36h20q0 -32 -19 -51t-50 -19q-30 0 -57 27q-25 27 -48 27q-22 0 -35.5 -14t-13.5 -36zM575 250v450h21v-450q0 -114 -69 -185q-69 -70 -179 -70q-111 0 -180 70q-68 71 -68 185v450h20v-450
q0 -106 63 -170q63 -65 164 -65q102 0 165 65q63 64 63 170z" />
    <glyph glyph-name="utilde" unicode="&#x169;" horiz-adv-x="542" 
d="M169 557h-20q0 31 19 50.5t49 19.5q29 0 56 -27t50 -27q22 0 35.5 14t13.5 36h20q0 -32 -19 -51t-50 -19q-30 0 -57 27q-26 27 -48 27t-35.5 -14t-13.5 -36zM427 450h20v-275q0 -81 -49 -130q-48 -50 -127 -50q-78 0 -128 50q-48 49 -48 130v275h20v-275q0 -71 43 -115.5
t113 -44.5t113 44.5t43 115.5v275z" />
    <glyph glyph-name="Umacron" unicode="&#x16a;" horiz-adv-x="696" 
d="M575 250v450h21v-450q0 -114 -69 -185q-69 -70 -179 -70q-111 0 -180 70q-68 71 -68 185v450h20v-450q0 -106 63 -170q63 -65 164 -65q102 0 165 65q63 64 63 170zM458 780h-220v20h220v-20z" />
    <glyph glyph-name="umacron" unicode="&#x16b;" horiz-adv-x="542" 
d="M427 450h20v-275q0 -81 -49 -130q-48 -50 -127 -50q-78 0 -128 50q-48 49 -48 130v275h20v-275q0 -71 43 -115.5t113 -44.5t113 44.5t43 115.5v275zM381 560h-220v20h220v-20z" />
    <glyph glyph-name="Ubreve" unicode="&#x16c;" horiz-adv-x="696" 
d="M575 250v450h21v-450q0 -114 -69 -185q-69 -70 -179 -70q-111 0 -180 70q-68 71 -68 185v450h20v-450q0 -106 63 -170q63 -65 164 -65q102 0 165 65q63 64 63 170zM457 836l15 -15q-53 -53 -124 -53t-124 53l15 15q48 -48 109 -48t109 48z" />
    <glyph glyph-name="ubreve" unicode="&#x16d;" horiz-adv-x="542" 
d="M427 450h20v-275q0 -81 -49 -130q-48 -50 -127 -50q-78 0 -128 50q-48 49 -48 130v275h20v-275q0 -71 43 -115.5t113 -44.5t113 44.5t43 115.5v275zM380 616l15 -15q-53 -53 -124 -53t-124 53l15 15q48 -48 109 -48t109 48z" />
    <glyph glyph-name="Uring" unicode="&#x16e;" horiz-adv-x="696" 
d="M288 768q-23 25 -23 62q0 38 23 61q22 24 60 24t60 -24q23 -23 23 -61q0 -37 -23 -62q-23 -23 -60 -23t-60 23zM348 895q-28 0 -45.5 -18t-17.5 -47t17.5 -47t45.5 -18t45.5 18t17.5 47t-18 47t-45 18zM575 250v450h21v-450q0 -114 -69 -185q-69 -70 -179 -70
q-111 0 -180 70q-68 71 -68 185v450h20v-450q0 -106 63 -170q63 -65 164 -65q102 0 165 65q63 64 63 170z" />
    <glyph glyph-name="uring" unicode="&#x16f;" horiz-adv-x="542" 
d="M211 548q-23 25 -23 62q0 38 23 61q23 24 60 24t60 -24q23 -23 23 -61q0 -37 -23 -62q-23 -23 -60 -23t-60 23zM271 675q-28 0 -45.5 -18t-17.5 -47t17.5 -47t45.5 -18t45.5 18t17.5 47t-18 47t-45 18zM427 450h20v-275q0 -81 -49 -130q-48 -50 -127 -50q-78 0 -128 50
q-48 49 -48 130v275h20v-275q0 -71 43 -115.5t113 -44.5t113 44.5t43 115.5v275z" />
    <glyph glyph-name="Uhungarumlaut" unicode="&#x170;" horiz-adv-x="696" 
d="M575 250v450h21v-450q0 -114 -69 -185q-69 -70 -179 -70q-111 0 -180 70q-68 71 -68 185v450h20v-450q0 -106 63 -170q63 -65 164 -65q102 0 165 65q63 64 63 170zM257 749l-14 14l106 106l14 -14zM387 749l-14 14l106 106l14 -14z" />
    <glyph glyph-name="uhungarumlaut" unicode="&#x171;" horiz-adv-x="542" 
d="M427 450h20v-275q0 -81 -49 -130q-48 -50 -127 -50q-78 0 -128 50q-48 49 -48 130v275h20v-275q0 -71 43 -115.5t113 -44.5t113 44.5t43 115.5v275zM180 529l-14 14l106 106l14 -14zM310 529l-14 14l106 106l14 -14z" />
    <glyph glyph-name="Uogonek" unicode="&#x172;" horiz-adv-x="696" 
d="M389 -44q0 -30 17.5 -48.5t45.5 -18.5q30 0 46 18l15 -14q-22 -24 -61 -24q-37 0 -60 23.5t-23 62.5q0 25 9 42q-26 -2 -30 -2q-111 0 -180 70q-68 71 -68 185v450h20v-450q0 -106 63 -170q63 -65 164 -65q102 0 165 65q63 64 63 170v450h21v-450q0 -99 -53.5 -166.5
t-142.5 -83.5q-11 -17 -11 -44z" />
    <glyph glyph-name="uogonek" unicode="&#x173;" horiz-adv-x="542" 
d="M303 -44q0 -30 17.5 -48.5t45.5 -18.5q30 0 46 18l15 -14q-22 -24 -61 -24q-37 0 -60 23.5t-23 62.5q0 26 9 41q-3 0 -11 -0.5t-10 -0.5q-78 0 -128 50q-48 49 -48 130v275h20v-275q0 -71 43 -115.5t113 -44.5t113 44.5t43 115.5v275h20v-275q0 -68 -36 -115t-96 -60
q-12 -16 -12 -44z" />
    <glyph glyph-name="Wcircumflex" unicode="&#x174;" horiz-adv-x="1172" 
d="M1105 700h22l-275 -700h-22l-244 671l-244 -671h-22l-275 700h22l264 -675l244 675h22l244 -675zM480 763l106 106l106 -106l-14 -14l-92 92l-92 -92z" />
    <glyph glyph-name="wcircumflex" unicode="&#x175;" horiz-adv-x="798" 
d="M731 450h22l-179 -450h-22l-153 425l-153 -425h-22l-179 450h22l168 -428l153 428h22l153 -428zM293 543l106 106l106 -106l-14 -14l-92 92l-92 -92z" />
    <glyph glyph-name="Ycircumflex" unicode="&#x176;" horiz-adv-x="650" 
d="M335 0h-20v322l-270 378h25l255 -357l255 357h25l-270 -378v-322zM219 763l106 106l106 -106l-14 -14l-92 92l-92 -92z" />
    <glyph glyph-name="ycircumflex" unicode="&#x177;" horiz-adv-x="530" 
d="M463 450h22l-327 -700h-22l118 250l-209 450h22l198 -428zM159 543l106 106l106 -106l-14 -14l-92 92l-92 -92z" />
    <glyph glyph-name="Ydieresis" unicode="&#x178;" horiz-adv-x="650" 
d="M335 0h-20v322l-270 378h25l255 -357l255 357h25l-270 -378v-322zM217 777q-17 17 1 35t35 1t-1 -35t-35 -1zM397 777q-17 17 1 35t35 1t-1 -35t-35 -1z" />
    <glyph glyph-name="Zacute" unicode="&#x179;" horiz-adv-x="625" 
d="M535 680h-467v20h492v-20l-475 -660h480v-20h-505v20zM286 749l-14 14l106 106l14 -14z" />
    <glyph glyph-name="zacute" unicode="&#x17a;" horiz-adv-x="465" 
d="M382 430h-319v20h342v-20l-322 -410h322v-20h-345v20zM206 529l-14 14l106 106l14 -14z" />
    <glyph glyph-name="Zdotaccent" unicode="&#x17b;" horiz-adv-x="625" 
d="M535 680h-467v20h492v-20l-475 -660h480v-20h-505v20zM294 787q-11 11 -6 24.5t17 17t24 -5.5q12 -11 7 -25t-17.5 -17.5t-24.5 6.5z" />
    <glyph glyph-name="zdotaccent" unicode="&#x17c;" horiz-adv-x="465" 
d="M382 430h-319v20h342v-20l-322 -410h322v-20h-345v20zM214 567q-11 11 -6 24.5t17 17t24 -5.5q12 -11 7 -25t-17.5 -17.5t-24.5 6.5z" />
    <glyph glyph-name="Zcaron" unicode="&#x17d;" horiz-adv-x="625" 
d="M418 855l-106 -106l-106 106l14 14l92 -92l92 92zM535 680h-467v20h492v-20l-475 -660h480v-20h-505v20z" />
    <glyph glyph-name="zcaron" unicode="&#x17e;" horiz-adv-x="465" 
d="M338 635l-106 -106l-106 106l14 14l92 -92l92 92zM382 430h-319v20h342v-20l-322 -410h322v-20h-345v20z" />
    <glyph glyph-name="longs" unicode="&#x17f;" horiz-adv-x="295" 
d="M115 0h-20v630q0 56 33.5 90.5t88.5 34.5q27 0 53 -10v-23q-22 13 -53 13q-46 0 -74 -29t-28 -76v-630z" />
    <glyph glyph-name="uni018F" unicode="&#x18f;" horiz-adv-x="760" 
d="M60 350v10h620q-4 145 -94 235q-88 90 -231 90q-148 0 -238 -96l-15 14q96 102 253 102q155 0 249 -99q96 -97 96 -256q0 -157 -89 -257q-89 -98 -231 -98q-143 0 -232 98q-88 98 -88 257zM680 340h-600q3 -147 85 -236q83 -89 215 -89q131 0 214 89q83 91 86 236z" />
    <glyph glyph-name="florin" unicode="&#x192;" horiz-adv-x="305" 
d="M37 -250v15q68 0 68 63v602h-70v20h70v180q0 56 33.5 90.5t88.5 34.5q27 0 53 -10v-23q-22 13 -53 13q-46 0 -74 -29t-28 -76v-180h155v-20h-155v-602q0 -37 -20 -59t-48 -22q-15 0 -20 3z" />
    <glyph glyph-name="uni01DD" unicode="&#x1dd;" horiz-adv-x="515" 
d="M55 225h385q0 93 -57 152q-55 58 -148 58t-150 -60l-14 15q62 65 164 65t163 -64q62 -64 62 -168q0 -101 -58 -165q-57 -63 -148 -63t-145 63q-54 64 -54 167zM253 15q77 0 129 51q52 52 58 139h-364q6 -87 53.5 -138.5t123.5 -51.5z" />
    <glyph glyph-name="Aringacute" unicode="&#x1fa;" horiz-adv-x="732" 
d="M358 859l-7 8l106 106l14 -14l-99 -99q35 -2 56 -25t21 -60q0 -34 -18.5 -56.5t-49.5 -27.5l306 -691h-22l-110 250h-378l-110 -250h-22l306 691q-31 5 -49.5 27.5t-18.5 56.5q0 36 20.5 59t54.5 25zM546 270l-180 408l-180 -408h360zM366 840q-28 0 -45.5 -18t-17.5 -47
t17.5 -47t45.5 -18t45.5 18t17.5 47t-18 47t-45 18z" />
    <glyph glyph-name="aringacute" unicode="&#x1fb;" horiz-adv-x="442" 
d="M390 15v-15q-4 -3 -16 -3q-19 0 -33 12.5t-18 34.5q-58 -49 -136 -49q-62 0 -94.5 33t-32.5 82q0 65 61 102q62 38 163 38q24 0 38 -3v84q0 44 -30 74t-85 30q-72 0 -112 -40l-14 14q45 46 126 46q65 0 100 -35.5t35 -88.5v-273q0 -43 48 -43zM187 15q79 0 135 56v157
q-22 2 -37 2q-93 0 -149 -32.5t-56 -87.5q0 -40 26.5 -67.5t80.5 -27.5zM203 654l-7 8l106 106l14 -14l-99 -99q35 -2 56 -25t21 -60q0 -38 -23 -61.5t-60 -23.5t-60 23.5t-23 61.5q0 36 20.5 59t54.5 25zM211 635q-28 0 -45.5 -18t-17.5 -47t17.5 -47t45.5 -18t45.5 18
t17.5 47t-18 47t-45 18z" />
    <glyph glyph-name="AEacute" unicode="&#x1fc;" horiz-adv-x="762" 
d="M697 680h-311v-315h276v-20h-276v-325h316v-20h-336v250h-189l-110 -250h-22l310 700h342v-20zM366 675l-180 -405h180v405zM375 749l-14 14l106 106l14 -14z" />
    <glyph glyph-name="aeacute" unicode="&#x1fd;" horiz-adv-x="738" 
d="M322 247v84q0 44 -30 74t-85 30q-72 0 -112 -40l-14 14q45 46 126 46q91 0 123 -69q58 69 154 69q91 0 145 -64q54 -63 54 -166h-341v-136q56 -74 161 -74q93 0 150 60l14 -15q-62 -65 -164 -65q-111 0 -169 69q-62 -69 -147 -69q-62 0 -94.5 33t-32.5 82q0 65 61 102
q62 38 163 38q24 0 38 -3zM342 331v-86h320q-6 87 -53.5 138.5t-123.5 51.5q-95 0 -147 -72q4 -17 4 -32zM322 80v148q-22 2 -37 2q-93 0 -149 -32.5t-56 -87.5q0 -40 26.5 -67.5t80.5 -27.5q79 0 135 65zM343 529l-14 14l106 106l14 -14z" />
    <glyph glyph-name="Oslashacute" unicode="&#x1fe;" horiz-adv-x="810" 
d="M101 -5h-26l84 94q-99 99 -99 261q0 158 95 256q96 99 250 99q139 0 231 -82l73 82h26l-85 -95q100 -97 100 -260q0 -158 -96 -257q-95 -98 -249 -98q-141 0 -232 81zM730 350q0 152 -93 245l-450 -504q88 -76 218 -76q145 0 235 93t90 242zM80 350q0 -152 93 -245
l450 503q-89 77 -218 77q-145 0 -235 -93t-90 -242zM379 749l-14 14l106 106l14 -14z" />
    <glyph glyph-name="oslashacute" unicode="&#x1ff;" horiz-adv-x="560" 
d="M100 -5h-25l48 57q-68 65 -68 173q0 102 62 166q61 64 163 64q84 0 142 -45l38 45h25l-49 -58q69 -65 69 -172q0 -102 -62 -167q-61 -63 -163 -63q-85 0 -142 45zM485 225q0 97 -62 156l-272 -325q53 -41 129 -41q93 0 148 58q57 59 57 152zM75 225q0 -99 61 -157
l273 326q-55 41 -129 41q-92 0 -149 -58q-56 -59 -56 -152zM254 529l-14 14l106 106l14 -14z" />
    <glyph glyph-name="Scommaaccent" unicode="&#x218;" horiz-adv-x="502" 
d="M417 634l-15 -15q-27 30 -72.5 48t-93.5 18q-79 0 -118 -46q-38 -46 -38 -105q0 -46 27 -81q9 -11 20.5 -21t21 -16.5t26.5 -15t25.5 -12t30.5 -13t30 -12.5q47 -19 87 -39q42 -19 68 -56t26 -85q0 -72 -50 -131q-50 -57 -150 -57q-58 0 -110 21t-84 58l14 14
q29 -35 78 -54t102 -19q48 0 85 16.5t56.5 42.5t29 53.5t9.5 55.5q0 95 -128 144q-3 1 -34 12.5t-37.5 15t-33.5 15t-35.5 18t-29 20t-28 25t-18.5 27.5t-14.5 34.5t-3.5 39.5q0 70 43 120q43 51 134 51q115 0 180 -71zM225 -178l-13 13q36 36 36 60q-11 0 -18.5 7.5
t-7.5 17.5q0 11 7.5 18t18.5 7q24 0 24 -33q0 -43 -47 -90z" />
    <glyph glyph-name="scommaaccent" unicode="&#x219;" horiz-adv-x="380" 
d="M299 409l-14 -14q-40 40 -108 40q-48 0 -73.5 -27t-25.5 -67q0 -34 24.5 -57t59.5 -36t69.5 -26.5t59 -39t24.5 -63.5q0 -49 -34 -86q-35 -38 -101 -38q-83 0 -130 51l14 14q39 -45 116 -45q56 0 85.5 30.5t29.5 73.5q0 33 -24.5 55t-59 35t-69.5 26.5t-59.5 40
t-24.5 65.5q0 49 30.5 81.5t88.5 32.5q77 0 122 -46zM159 -178l-13 13q36 36 36 60q-11 0 -18.5 7.5t-7.5 17.5q0 11 7.5 18t18.5 7q24 0 24 -33q0 -43 -47 -90z" />
    <glyph glyph-name="uni021A" unicode="&#x21a;" horiz-adv-x="558" 
d="M510 680h-220v-680h-20v680h-220v20h460v-20zM262 -178l-13 13q36 36 36 60q-11 0 -18.5 7.5t-7.5 17.5q0 11 7.5 18t18.5 7q24 0 24 -33q0 -43 -47 -90z" />
    <glyph glyph-name="uni021B" unicode="&#x21b;" horiz-adv-x="300" 
d="M95 430h-65v20h65v100h20v-100h150v-20h-150v-315q0 -44 27.5 -72t71.5 -28q29 0 51 13v-23q-26 -10 -51 -10q-53 0 -86 33.5t-33 86.5v315zM143 -178l-13 13q36 36 36 60q-11 0 -18.5 7.5t-7.5 17.5q0 11 7.5 18t18.5 7q24 0 24 -33q0 -43 -47 -90z" />
    <glyph glyph-name="dotlessj" unicode="&#x237;" 
d="M27 -250v15q68 0 68 63v622h20v-622q0 -37 -20 -59t-48 -22q-15 0 -20 3z" />
    <glyph glyph-name="circumflex" unicode="&#x2c6;" horiz-adv-x="352" 
d="M70 543l106 106l106 -106l-14 -14l-92 92l-92 -92z" />
    <glyph glyph-name="caron" unicode="&#x2c7;" horiz-adv-x="352" 
d="M282 635l-106 -106l-106 106l14 14l92 -92l92 92z" />
    <glyph glyph-name="breve" unicode="&#x2d8;" horiz-adv-x="349" 
d="M283 616l15 -15q-53 -53 -124 -53t-124 53l15 15q48 -48 109 -48t109 48z" />
    <glyph glyph-name="dotaccent" unicode="&#x2d9;" 
d="M87 567q-17 17 1 35t35 1t-1 -35t-35 -1z" />
    <glyph glyph-name="ring" unicode="&#x2da;" horiz-adv-x="275" 
d="M78 548q-23 25 -23 62q0 38 23 61q22 24 60 24t60 -24q23 -23 23 -61q0 -37 -23 -62q-23 -23 -60 -23t-60 23zM138 675q-28 0 -45.5 -18t-17.5 -47t17.5 -47t45.5 -18t45.5 18t17.5 47t-18 47t-45 18z" />
    <glyph glyph-name="ogonek" unicode="&#x2db;" horiz-adv-x="254" 
d="M75 -44q0 -30 17.5 -48.5t45.5 -18.5q30 0 46 18l15 -14q-23 -24 -61 -24q-37 0 -60 23.5t-23 62.5q0 29 12 45h20q-12 -16 -12 -44z" />
    <glyph glyph-name="tilde" unicode="&#x2dc;" horiz-adv-x="323" 
d="M60 557h-20q0 31 19 50.5t49 19.5q29 0 56 -27t50 -27q22 0 35.5 14t13.5 36h20q0 -32 -19 -51t-50 -19q-30 0 -57 27q-25 27 -48 27q-22 0 -35.5 -14t-13.5 -36z" />
    <glyph glyph-name="hungarumlaut" unicode="&#x2dd;" horiz-adv-x="390" 
d="M84 529l-14 14l106 106l14 -14zM214 529l-14 14l106 106l14 -14z" />
    <glyph glyph-name="uni0400" unicode="&#x400;" horiz-adv-x="520" 
d="M455 680h-335v-315h300v-20h-300v-325h340v-20h-360v700h355v-20zM200 855l14 14l106 -106l-14 -14z" />
    <glyph glyph-name="afii10023" unicode="&#x401;" horiz-adv-x="520" 
d="M455 680h-335v-315h300v-20h-300v-325h340v-20h-360v700h355v-20zM172 777q-11 11 -6 24.5t17 17t24 -5.5q12 -11 7 -25t-17.5 -17.5t-24.5 6.5zM352 777q-11 11 -6 24.5t17 17t24 -5.5q12 -11 7 -25t-17.5 -17.5t-24.5 6.5z" />
    <glyph glyph-name="afii10051" unicode="&#x402;" horiz-adv-x="707" 
d="M519 0v15q68 0 68 63v172q0 69 -41.5 112t-108.5 43q-90 0 -147 -57v-348h-20v680h-220v20h460v-20h-220v-304q59 49 147 49q76 0 123 -48.5t47 -126.5v-172q0 -37 -20 -59t-48 -22q-15 0 -20 3z" />
    <glyph glyph-name="afii10052" unicode="&#x403;" horiz-adv-x="472" 
d="M230 749l-14 14l106 106l14 -14zM120 0h-20v700h320v-20h-300v-680z" />
    <glyph glyph-name="afii10053" unicode="&#x404;" horiz-adv-x="708" 
d="M405 685q-140 0 -231 -89q-90 -90 -94 -231h475v-20h-475q1 -148 91 -239t234 -91q148 0 238 96l15 -14q-96 -102 -253 -102q-154 0 -250 98q-95 100 -95 257q0 158 95 256q96 99 250 99q155 0 253 -102l-15 -15q-91 97 -238 97z" />
    <glyph glyph-name="afii10054" unicode="&#x405;" horiz-adv-x="502" 
d="M417 634l-15 -15q-27 30 -72.5 48t-93.5 18q-79 0 -118 -46q-38 -46 -38 -105q0 -46 27 -81q9 -11 20.5 -21t21 -16.5t26.5 -15t25.5 -12t30.5 -13t30 -12.5q47 -19 87 -39q42 -19 68 -56t26 -85q0 -72 -50 -131q-50 -57 -150 -57q-58 0 -110 21t-84 58l14 14
q29 -35 78 -54t102 -19q48 0 85 16.5t56.5 42.5t29 53.5t9.5 55.5q0 95 -128 144q-3 1 -34 12.5t-37.5 15t-33.5 15t-35.5 18t-29 20t-28 25t-18.5 27.5t-14.5 34.5t-3.5 39.5q0 70 43 120q43 51 134 51q115 0 180 -71z" />
    <glyph glyph-name="afii10055" unicode="&#x406;" 
d="M115 0h-20v700h20v-700z" />
    <glyph glyph-name="afii10056" unicode="&#x407;" 
d="M115 0h-20v700h20v-700zM17 777q-17 17 1 35t35 1t-1 -35t-35 -1zM157 777q-17 17 1 35t35 1t-1 -35t-35 -1z" />
    <glyph glyph-name="afii10057" unicode="&#x408;" horiz-adv-x="456" 
d="M341 180v520h20v-520q0 -82 -50 -134q-49 -51 -130 -51t-131 53l14 15q45 -48 117 -48t115 46q45 47 45 119z" />
    <glyph glyph-name="afii10058" unicode="&#x409;" horiz-adv-x="935" 
d="M695 0h-175v680h-330v-535q0 -69 -32 -108.5t-78 -39.5q-26 0 -33 3v15q58 0 90.5 31.5t32.5 93.5v560h370v-335h155q81 0 130.5 -50t49.5 -132q0 -83 -49.5 -133t-130.5 -50zM695 345h-155v-325h155q72 0 116 45t44 118t-44 117.5t-116 44.5z" />
    <glyph glyph-name="afii10059" unicode="&#x40a;" horiz-adv-x="925" 
d="M100 700h20v-335h390v335h20v-335h155q81 0 130.5 -50t49.5 -132q0 -83 -49.5 -133t-130.5 -50h-175v345h-390v-345h-20v700zM685 345h-155v-325h155q72 0 116 45t44 118t-44 117.5t-116 44.5z" />
    <glyph glyph-name="afii10060" unicode="&#x40b;" horiz-adv-x="707" 
d="M510 680h-220v-304q59 49 147 49q76 0 123 -48.5t47 -126.5v-250h-20v250q0 69 -41.5 112t-108.5 43q-90 0 -147 -57v-348h-20v680h-220v20h460v-20z" />
    <glyph glyph-name="afii10061" unicode="&#x40c;" horiz-adv-x="565" 
d="M115 0h-20v700h20v-700zM515 0h-25l-343 358l323 342h25l-323 -342zM256 749l-14 14l106 106l14 -14z" />
    <glyph glyph-name="uni040D" unicode="&#x40d;" horiz-adv-x="720" 
d="M120 34l480 666h20v-700h-20v666l-480 -666h-20v700h20v-666zM280 855l14 14l106 -106l-14 -14z" />
    <glyph glyph-name="afii10062" unicode="&#x40e;" horiz-adv-x="610" 
d="M543 700h22l-364 -700h-22l115 220l-249 480h22l238 -458zM414 836l15 -15q-53 -53 -124 -53t-124 53l15 15q48 -48 109 -48t109 48z" />
    <glyph glyph-name="afii10145" unicode="&#x40f;" horiz-adv-x="710" 
d="M345 -150v150h-245v700h20v-680h470v680h20v-700h-245v-150h-20z" />
    <glyph glyph-name="afii10017" unicode="&#x410;" horiz-adv-x="732" 
d="M687 0h-22l-110 250h-378l-110 -250h-22l310 700h22zM546 270l-180 408l-180 -408h360z" />
    <glyph glyph-name="afii10018" unicode="&#x411;" horiz-adv-x="530" 
d="M290 0h-190v700h320v-20h-300v-315h170q81 0 130.5 -50t49.5 -132q0 -83 -49.5 -133t-130.5 -50zM290 345h-170v-325h170q72 0 116 45t44 118t-44 117.5t-116 44.5z" />
    <glyph glyph-name="afii10019" unicode="&#x412;" horiz-adv-x="532" 
d="M290 0h-190v700h160q78 0 125.5 -48t47.5 -127q0 -57 -26.5 -99t-72.5 -61q63 -13 100.5 -61t37.5 -118q0 -84 -50.5 -135t-131.5 -51zM452 186q0 74 -44.5 119t-117.5 45h-170v-330h170q73 0 117.5 45.5t44.5 120.5zM260 680h-140v-310h140q69 0 111 42.5t42 112.5
t-42 112.5t-111 42.5z" />
    <glyph glyph-name="afii10020" unicode="&#x413;" horiz-adv-x="472" 
d="M120 0h-20v700h320v-20h-300v-680z" />
    <glyph glyph-name="afii10021" unicode="&#x414;" horiz-adv-x="670" 
d="M600 -150v150h-530v-150h-20v170q120 0 120 155v525h380v-680h70v-170h-20zM190 680v-506q0 -114 -63 -154h403v660h-340z" />
    <glyph glyph-name="afii10022" unicode="&#x415;" horiz-adv-x="520" 
d="M455 680h-335v-315h300v-20h-300v-325h340v-20h-360v700h355v-20z" />
    <glyph glyph-name="afii10024" unicode="&#x416;" horiz-adv-x="859" 
d="M439 0h-20v700h20v-700zM809 0h-25l-313 358l298 342h25l-298 -342zM89 700l298 -342l-313 -358h-25l313 358l-298 342h25z" />
    <glyph glyph-name="afii10025" unicode="&#x417;" horiz-adv-x="532" 
d="M290 350h-110v20h80q70 0 111.5 43t41.5 118q0 71 -38.5 112.5t-111.5 41.5q-101 0 -188 -87l-15 15q92 92 202 92q83 0 127 -46.5t44 -128.5q0 -123 -99 -165q64 -13 101 -61t37 -119q0 -87 -55.5 -138.5t-151.5 -51.5q-120 0 -215 102l15 14q88 -96 200 -96
q87 0 137 46t50 124q0 75 -44.5 120t-117.5 45z" />
    <glyph glyph-name="afii10026" unicode="&#x418;" horiz-adv-x="720" 
d="M120 34l480 666h20v-700h-20v666l-480 -666h-20v700h20v-666z" />
    <glyph glyph-name="afii10027" unicode="&#x419;" horiz-adv-x="720" 
d="M120 34l480 666h20v-700h-20v666l-480 -666h-20v700h20v-666zM469 836l15 -15q-53 -53 -124 -53t-124 53l15 15q48 -48 109 -48t109 48z" />
    <glyph glyph-name="afii10028" unicode="&#x41a;" horiz-adv-x="565" 
d="M115 0h-20v700h20v-700zM515 0h-25l-343 358l323 342h25l-323 -342z" />
    <glyph glyph-name="afii10029" unicode="&#x41b;" horiz-adv-x="660" 
d="M47 0v15q58 0 90.5 31.5t32.5 93.5v560h390v-700h-20v680h-350v-535q0 -69 -32 -108.5t-78 -39.5q-26 0 -33 3z" />
    <glyph glyph-name="afii10030" unicode="&#x41c;" horiz-adv-x="826" 
d="M726 0h-20v655l-282 -475h-22l-282 475v-655h-20v700h18l295 -500l295 500h18v-700z" />
    <glyph glyph-name="afii10031" unicode="&#x41d;" horiz-adv-x="700" 
d="M100 700h20v-335h460v335h20v-700h-20v345h-460v-345h-20v700z" />
    <glyph glyph-name="afii10032" unicode="&#x41e;" horiz-adv-x="810" 
d="M155 93q-95 100 -95 257q0 158 95 256q96 99 250 99q155 0 249 -99q96 -97 96 -256q0 -158 -96 -257q-95 -98 -249 -98t-250 98zM170 592q-90 -93 -90 -242t90 -242t235 -93t235 93t90 242t-90 242t-235 93t-235 -93z" />
    <glyph glyph-name="afii10033" unicode="&#x41f;" horiz-adv-x="680" 
d="M100 0v700h480v-700h-20v680h-440v-680h-20z" />
    <glyph glyph-name="afii10034" unicode="&#x420;" horiz-adv-x="505" 
d="M120 0h-20v700h165q81 0 130.5 -50t49.5 -133q0 -82 -49.5 -132t-130.5 -50h-145v-335zM265 680h-145v-325h145q72 0 116 44.5t44 117.5t-44 118t-116 45z" />
    <glyph glyph-name="afii10035" unicode="&#x421;" horiz-adv-x="708" 
d="M405 15q148 0 238 96l15 -14q-96 -102 -253 -102q-154 0 -250 98q-95 100 -95 257q0 158 95 256q96 99 250 99q155 0 253 -102l-15 -15q-91 97 -238 97q-145 0 -235 -93t-90 -242t90 -242t235 -93z" />
    <glyph glyph-name="afii10036" unicode="&#x422;" horiz-adv-x="558" 
d="M510 680h-220v-680h-20v680h-220v20h460v-20z" />
    <glyph glyph-name="afii10037" unicode="&#x423;" horiz-adv-x="610" 
d="M543 700h22l-364 -700h-22l115 220l-249 480h22l238 -458z" />
    <glyph glyph-name="afii10038" unicode="&#x424;" horiz-adv-x="724" 
d="M372 0h-20v70q-129 0 -211 77q-81 78 -81 203q0 126 81 202q81 78 211 78v70h20v-70q130 0 211 -78q81 -76 81 -202q0 -125 -81 -203q-82 -77 -211 -77v-70zM372 610v-520q122 0 197 72t75 188t-75 188t-197 72zM352 90v520q-120 0 -197 -72q-75 -72 -75 -188t75 -188
q77 -72 197 -72z" />
    <glyph glyph-name="afii10039" unicode="&#x425;" horiz-adv-x="700" 
d="M650 0h-25l-275 338l-275 -338h-25l287 353l-282 347h25l270 -332l270 332h25l-283 -347z" />
    <glyph glyph-name="afii10040" unicode="&#x426;" horiz-adv-x="730" 
d="M660 -150v150h-560v700h20v-680h470v680h20v-680h70v-170h-20z" />
    <glyph glyph-name="afii10041" unicode="&#x427;" horiz-adv-x="582" 
d="M482 700v-700h-20v338q-74 -23 -162 -23q-96 0 -148 52.5t-52 151.5v181h20v-181q0 -87 45 -135.5t135 -48.5q98 0 162 23v342h20z" />
    <glyph glyph-name="afii10042" unicode="&#x428;" horiz-adv-x="1050" 
d="M950 700v-700h-850v700h20v-680h395v680h20v-680h395v680h20z" />
    <glyph glyph-name="afii10043" unicode="&#x429;" horiz-adv-x="1070" 
d="M1000 -150v150h-900v700h20v-680h395v680h20v-680h395v680h20v-680h70v-170h-20z" />
    <glyph glyph-name="afii10044" unicode="&#x42a;" horiz-adv-x="625" 
d="M210 680h-160v20h180v-335h155q81 0 130.5 -50t49.5 -132q0 -83 -49.5 -133t-130.5 -50h-175v680zM385 345h-155v-325h155q72 0 116 45t44 118t-44 117.5t-116 44.5z" />
    <glyph glyph-name="afii10045" unicode="&#x42b;" horiz-adv-x="700" 
d="M275 0h-175v700h20v-335h155q81 0 130.5 -50t49.5 -132q0 -83 -49.5 -133t-130.5 -50zM275 345h-155v-325h155q72 0 116 45t44 118t-44 117.5t-116 44.5zM600 0h-20v700h20v-700z" />
    <glyph glyph-name="afii10046" unicode="&#x42c;" horiz-adv-x="515" 
d="M275 0h-175v700h20v-335h155q81 0 130.5 -50t49.5 -132q0 -83 -49.5 -133t-130.5 -50zM275 345h-155v-325h155q72 0 116 45t44 118t-44 117.5t-116 44.5z" />
    <glyph glyph-name="afii10047" unicode="&#x42d;" horiz-adv-x="708" 
d="M65 588l-15 15q97 102 253 102q155 0 249 -99q96 -97 96 -256q0 -158 -96 -257q-95 -98 -249 -98q-157 0 -253 102l15 14q90 -96 238 -96q144 0 234 91t91 239h-400v20h400q-4 142 -95 231q-89 89 -230 89q-147 0 -238 -97z" />
    <glyph glyph-name="afii10048" unicode="&#x42e;" horiz-adv-x="1029" 
d="M100 700h20v-335h230q4 151 89 246q85 94 220 94q139 0 224 -99q86 -98 86 -256q0 -157 -86 -257q-86 -98 -224 -98t-223 97q-85 98 -86 253h-230v-345h-20v700zM659 15q131 0 210 93q80 94 80 242t-80 242q-79 93 -210 93q-129 0 -209 -93q-80 -94 -80 -242t80 -242
q80 -93 209 -93z" />
    <glyph glyph-name="afii10049" unicode="&#x42f;" horiz-adv-x="535" 
d="M240 700h195v-700h-20v335h-146l-190 -335h-24l191 335h-6q-81 0 -130.5 50t-49.5 132q0 83 49.5 133t130.5 50zM240 355h175v325h-175q-72 0 -116 -45t-44 -118t44 -117.5t116 -44.5z" />
    <glyph glyph-name="afii10065" unicode="&#x430;" horiz-adv-x="442" 
d="M390 15v-15q-4 -3 -16 -3q-19 0 -33 12.5t-18 34.5q-58 -49 -136 -49q-62 0 -94.5 33t-32.5 82q0 65 61 102q62 38 163 38q24 0 38 -3v84q0 44 -30 74t-85 30q-72 0 -112 -40l-14 14q45 46 126 46q65 0 100 -35.5t35 -88.5v-273q0 -43 48 -43zM187 15q79 0 135 56v157
q-22 2 -37 2q-93 0 -149 -32.5t-56 -87.5q0 -40 26.5 -67.5t80.5 -27.5z" />
    <glyph glyph-name="afii10066" unicode="&#x431;" horiz-adv-x="570" 
d="M449 755l15 -15q-23 -29 -62 -51q-25 -14 -79 -33t-83 -36q-40 -21 -76 -55q-34 -32 -54.5 -96.5t-21.5 -150.5h5q24 66 75 101.5t121 35.5q102 0 163 -64q63 -63 63 -166t-63 -167q-63 -63 -167 -63q-219 0 -219 310q0 98 23 170q22 66 54 101.5t83 62.5q45 25 86 36
q102 28 137 80zM99 224q0 -96 48.5 -152.5t138.5 -56.5q93 0 151 58t58 153q0 92 -57 151q-57 58 -149 58q-90 0 -140 -56t-50 -155z" />
    <glyph glyph-name="afii10067" unicode="&#x432;" horiz-adv-x="435" 
d="M242 0h-147v450h132q52 0 83.5 -31t31.5 -81q0 -69 -58 -100q39 -11 61.5 -41.5t22.5 -73.5q0 -55 -34.5 -89t-91.5 -34zM242 225h-127v-205h127q49 0 77.5 28t28.5 75q0 46 -29 74t-77 28zM115 430v-185h112q43 0 69 25.5t26 67.5q0 41 -26 66.5t-69 25.5h-112z" />
    <glyph glyph-name="afii10068" unicode="&#x433;" horiz-adv-x="370" 
d="M320 430h-205v-430h-20v450h225v-20z" />
    <glyph glyph-name="afii10069" unicode="&#x434;" horiz-adv-x="520" 
d="M408 20h55v-140h-20v120h-373v-120h-20v140q41 0 67 33t26 87v310h265v-430zM163 430v-290q0 -74 -52 -120h277v410h-225z" />
    <glyph glyph-name="afii10070" unicode="&#x435;" horiz-adv-x="515" 
d="M460 225h-385q0 -93 56 -152q57 -58 149 -58q93 0 150 60l14 -15q-62 -65 -164 -65q-101 0 -163 63q-62 65 -62 169q0 101 57 164q58 64 149 64t145 -64q54 -63 54 -166zM262 435q-77 0 -129 -52q-52 -50 -58 -138h364q-6 87 -53.5 138.5t-123.5 51.5z" />
    <glyph glyph-name="afii10072" unicode="&#x436;" horiz-adv-x="612" 
d="M316 0h-20v450h20v-450zM562 0h-25l-207 233l192 217h25l-192 -217zM75 0h-25l207 233l-192 217h25l192 -217z" />
    <glyph glyph-name="afii10073" unicode="&#x437;" horiz-adv-x="402" 
d="M186 455q59 0 95 -31.5t36 -82.5q0 -73 -64 -103q41 -11 63 -42t22 -74q0 -57 -39.5 -92t-103.5 -35q-87 0 -150 65l14 15q59 -60 135 -60q56 0 90 29t34 77q0 47 -29.5 75.5t-79.5 28.5h-68v20h53q47 0 75 26t28 70q0 42 -30 68t-81 26q-69 0 -117 -50l-14 14
q54 56 131 56z" />
    <glyph glyph-name="afii10074" unicode="&#x438;" horiz-adv-x="545" 
d="M95 450h20v-418l315 418h20v-450h-20v418l-315 -418h-20v450z" />
    <glyph glyph-name="afii10075" unicode="&#x439;" horiz-adv-x="545" 
d="M95 450h20v-418l315 418h20v-450h-20v418l-315 -418h-20v450zM381 616l15 -15q-53 -53 -124 -53t-124 53l15 15q48 -48 109 -48t109 48z" />
    <glyph glyph-name="afii10076" unicode="&#x43a;" horiz-adv-x="438" 
d="M115 450v-450h-20v450h20zM388 0h-27l-232 233l217 217h27l-217 -217z" />
    <glyph glyph-name="afii10077" unicode="&#x43b;" horiz-adv-x="495" 
d="M47 0v15q44 0 68.5 24t24.5 71v340h260v-450h-20v430h-220v-320q0 -53 -25 -83t-62 -30q-20 0 -26 3z" />
    <glyph glyph-name="afii10078" unicode="&#x43c;" horiz-adv-x="600" 
d="M115 0h-20v450h20l185 -329l185 329h20v-450h-20v410l-174 -310h-22l-174 310v-410z" />
    <glyph glyph-name="afii10079" unicode="&#x43d;" horiz-adv-x="535" 
d="M95 450h20v-210h305v210h20v-450h-20v220h-305v-220h-20v450z" />
    <glyph glyph-name="afii10080" unicode="&#x43e;" horiz-adv-x="560" 
d="M117 58q-62 65 -62 167t62 166q61 64 163 64t163 -64q62 -64 62 -166t-62 -167q-61 -63 -163 -63q-101 0 -163 63zM131 377q-56 -59 -56 -152t56 -152q57 -58 149 -58q93 0 148 58q57 59 57 152t-57 152q-55 58 -148 58q-92 0 -149 -58z" />
    <glyph glyph-name="afii10081" unicode="&#x43f;" horiz-adv-x="520" 
d="M425 0h-20v430h-290v-430h-20v450h330v-450z" />
    <glyph glyph-name="afii10082" unicode="&#x440;" horiz-adv-x="542" 
d="M95 -250v700h20v-44q59 49 147 49q102 0 163 -64q62 -64 62 -166t-62 -167q-61 -63 -163 -63q-89 0 -147 49v-294h-20zM262 435q-90 0 -147 -57v-307q56 -56 147 -56q93 0 148 58q57 59 57 152t-57 152q-55 58 -148 58z" />
    <glyph glyph-name="afii10083" unicode="&#x441;" horiz-adv-x="490" 
d="M280 15q93 0 150 60l14 -15q-62 -65 -164 -65q-101 0 -163 63q-62 65 -62 167t62 166q61 64 163 64t164 -66l-14 -14q-57 60 -150 60q-92 0 -149 -58q-56 -59 -56 -152t56 -152q57 -58 149 -58z" />
    <glyph glyph-name="afii10084" unicode="&#x442;" horiz-adv-x="428" 
d="M380 430h-155v-430h-20v430h-155v20h330v-20z" />
    <glyph glyph-name="afii10085" unicode="&#x443;" horiz-adv-x="530" 
d="M463 450h22l-327 -700h-22l118 250l-209 450h22l198 -428z" />
    <glyph glyph-name="afii10086" unicode="&#x444;" horiz-adv-x="640" 
d="M360 -5q-6 0 -30 2v-247h-20v247q-26 -2 -30 -2q-101 0 -163 63q-62 65 -62 167t62 166q61 64 163 64q4 0 30 -2v297h20v-297q24 2 30 2q102 0 163 -64q62 -64 62 -166t-62 -167q-61 -63 -163 -63zM360 435q-6 0 -30 -2v-416q24 -2 30 -2q93 0 148 58q57 59 57 152
t-57 152q-55 58 -148 58zM280 15q4 0 30 2v416q-26 2 -30 2q-92 0 -149 -58q-56 -59 -56 -152t56 -152q57 -58 149 -58z" />
    <glyph glyph-name="afii10087" unicode="&#x445;" horiz-adv-x="496" 
d="M446 0h-25l-173 213l-173 -213h-25l185 228l-180 222h25l168 -207l168 207h25l-181 -222z" />
    <glyph glyph-name="afii10088" unicode="&#x446;" horiz-adv-x="530" 
d="M455 0h-360v450h20v-430h290v430h20v-430h50v-140h-20v120z" />
    <glyph glyph-name="afii10089" unicode="&#x447;" horiz-adv-x="472" 
d="M377 450v-450h-20v206q-51 -21 -114 -21q-72 0 -112.5 40t-40.5 109v116h20v-116q0 -57 34.5 -93t98.5 -36q66 0 114 23v222h20z" />
    <glyph glyph-name="afii10090" unicode="&#x448;" horiz-adv-x="710" 
d="M365 20h230v430h20v-450h-520v450h20v-430h230v430h20v-430z" />
    <glyph glyph-name="afii10091" unicode="&#x449;" horiz-adv-x="720" 
d="M645 0h-550v450h20v-430h230v430h20v-430h230v430h20v-430h50v-140h-20v120z" />
    <glyph glyph-name="afii10092" unicode="&#x44a;" horiz-adv-x="498" 
d="M315 0h-140v430h-125v20h145v-210h120q56 0 89.5 -33t33.5 -87t-33.5 -87t-89.5 -33zM315 220h-120v-200h120q47 0 75 27.5t28 72.5t-28 72.5t-75 27.5z" />
    <glyph glyph-name="afii10093" unicode="&#x44b;" horiz-adv-x="573" 
d="M235 0h-140v450h20v-210h120q56 0 89.5 -33t33.5 -87t-33.5 -87t-89.5 -33zM235 220h-120v-200h120q47 0 75 27.5t28 72.5t-28 72.5t-75 27.5zM478 0h-20v450h20v-450z" />
    <glyph glyph-name="afii10094" unicode="&#x44c;" horiz-adv-x="418" 
d="M235 0h-140v450h20v-210h120q56 0 89.5 -33t33.5 -87t-33.5 -87t-89.5 -33zM235 220h-120v-200h120q47 0 75 27.5t28 72.5t-28 72.5t-75 27.5z" />
    <glyph glyph-name="afii10095" unicode="&#x44d;" horiz-adv-x="490" 
d="M415 220h-249v20h248q-5 88 -61 141.5t-143 53.5q-93 0 -150 -60l-14 14q62 66 164 66t163 -64q62 -64 62 -166t-62 -167q-61 -63 -163 -63t-164 65l14 15q57 -60 150 -60q89 0 147 56q56 56 58 149z" />
    <glyph glyph-name="afii10096" unicode="&#x44e;" horiz-adv-x="740" 
d="M95 450h20v-210h150q4 96 62 155q59 60 148 60q94 0 152 -64q58 -62 58 -166q0 -103 -58 -167q-59 -63 -152 -63q-92 0 -151 62q-57 62 -59 163h-150v-220h-20v450zM337 377q-52 -58 -52 -152t52 -152t138 -58q85 0 137 58q53 59 53 152t-53 152q-52 58 -137 58
q-86 0 -138 -58z" />
    <glyph glyph-name="afii10097" unicode="&#x44f;" horiz-adv-x="453" 
d="M208 450h150v-450h-20v204h-113l-128 -204h-24l129 204q-54 1 -87 35t-33 88q0 55 34.5 89t91.5 34zM208 224h130v206h-130q-49 0 -77.5 -28t-28.5 -75t28.5 -75t77.5 -28z" />
    <glyph glyph-name="uni0450" unicode="&#x450;" horiz-adv-x="515" 
d="M460 225h-385q0 -93 56 -152q57 -58 149 -58q93 0 150 60l14 -15q-62 -65 -164 -65q-101 0 -163 63q-62 65 -62 169q0 101 57 164q58 64 149 64t145 -64q54 -63 54 -166zM262 435q-77 0 -129 -52q-52 -50 -58 -138h364q-6 87 -53.5 138.5t-123.5 51.5zM182 635l14 14
l106 -106l-14 -14z" />
    <glyph glyph-name="afii10071" unicode="&#x451;" horiz-adv-x="515" 
d="M460 225h-385q0 -93 56 -152q57 -58 149 -58q93 0 150 60l14 -15q-62 -65 -164 -65q-101 0 -163 63q-62 65 -62 169q0 101 57 164q58 64 149 64t145 -64q54 -63 54 -166zM262 435q-77 0 -129 -52q-52 -50 -58 -138h364q-6 87 -53.5 138.5t-123.5 51.5zM154 532
q-11 10 -6 24t17.5 17.5t23.5 -6.5q12 -9 7 -23t-17.5 -18t-24.5 6zM334 532q-11 10 -6 24t17.5 17.5t23.5 -6.5q12 -9 7 -23t-17.5 -18t-24.5 6z" />
    <glyph glyph-name="afii10099" unicode="&#x452;" horiz-adv-x="532" 
d="M344 -250v15q68 0 68 63v452q0 69 -41.5 112t-108.5 43q-90 0 -147 -57v-378h-20v630h-65v20h65v100h20v-100h200v-20h-200v-224q59 49 147 49q76 0 123 -48.5t47 -126.5v-452q0 -37 -20 -59t-48 -22q-16 0 -20 3z" />
    <glyph glyph-name="afii10100" unicode="&#x453;" horiz-adv-x="370" 
d="M179 529l-14 14l106 106l14 -14zM320 430h-205v-430h-20v450h225v-20z" />
    <glyph glyph-name="afii10101" unicode="&#x454;" horiz-adv-x="490" 
d="M280 435q-88 0 -144 -54q-57 -53 -61 -141h294v-20h-294q2 -92 57 -149q58 -56 148 -56q93 0 150 60l14 -15q-62 -65 -164 -65q-101 0 -163 63q-62 65 -62 167t62 166q61 64 163 64t164 -66l-14 -14q-57 60 -150 60z" />
    <glyph glyph-name="afii10102" unicode="&#x455;" horiz-adv-x="380" 
d="M299 409l-14 -14q-40 40 -108 40q-48 0 -73.5 -27t-25.5 -67q0 -34 24.5 -57t59.5 -36t69.5 -26.5t59 -39t24.5 -63.5q0 -49 -34 -86q-35 -38 -101 -38q-83 0 -130 51l14 14q39 -45 116 -45q56 0 85.5 30.5t29.5 73.5q0 33 -24.5 55t-59 35t-69.5 26.5t-59.5 40
t-24.5 65.5q0 49 30.5 81.5t88.5 32.5q77 0 122 -46z" />
    <glyph glyph-name="afii10103" unicode="&#x456;" 
d="M115 0h-20v450h20v-450zM87 567q-17 17 1 35t35 1t-1 -35t-35 -1z" />
    <glyph glyph-name="afii10104" unicode="&#x457;" 
d="M115 0h-20v450h20v-450zM22 537q-11 11 -6 24.5t17 17t24 -5.5q12 -11 7 -25t-17.5 -17.5t-24.5 6.5zM152 537q-11 11 -6 24.5t17 17t24 -5.5q12 -11 7 -25t-17.5 -17.5t-24.5 6.5z" />
    <glyph glyph-name="afii10105" unicode="&#x458;" 
d="M87 567q-17 17 1 35t35 1t-1 -35t-35 -1zM27 -250v15q68 0 68 63v622h20v-622q0 -37 -20 -59t-48 -22q-15 0 -20 3z" />
    <glyph glyph-name="afii10106" unicode="&#x459;" horiz-adv-x="693" 
d="M520 0h-140v430h-220v-320q0 -53 -25 -83t-62 -30q-20 0 -26 3v15q44 0 68.5 24t24.5 71v340h260v-210h120q56 0 89.5 -33t33.5 -87t-33.5 -87t-89.5 -33zM520 220h-120v-200h120q47 0 75 27.5t28 72.5t-28 72.5t-75 27.5z" />
    <glyph glyph-name="afii10107" unicode="&#x45a;" horiz-adv-x="723" 
d="M95 450h20v-210h295v210h20v-210h125q52 0 85 -33.5t33 -86.5t-33 -86.5t-85 -33.5h-145v220h-295v-220h-20v450zM555 220h-125v-200h125q44 0 71 27.5t27 72.5t-27 72.5t-71 27.5z" />
    <glyph glyph-name="afii10108" unicode="&#x45b;" horiz-adv-x="532" 
d="M95 630h-65v20h65v100h20v-100h200v-20h-200v-224q59 49 147 49q76 0 123 -48.5t47 -126.5v-280h-20v280q0 69 -41.5 112t-108.5 43q-90 0 -147 -57v-378h-20v630z" />
    <glyph glyph-name="afii10109" unicode="&#x45c;" horiz-adv-x="438" 
d="M115 450v-450h-20v450h20zM388 0h-27l-232 233l217 217h27l-217 -217zM193 529l-14 14l106 106l14 -14z" />
    <glyph glyph-name="uni045D" unicode="&#x45d;" horiz-adv-x="545" 
d="M95 450h20v-418l315 418h20v-450h-20v418l-315 -418h-20v450zM192 635l14 14l106 -106l-14 -14z" />
    <glyph glyph-name="afii10110" unicode="&#x45e;" horiz-adv-x="530" 
d="M463 450h22l-327 -700h-22l118 250l-209 450h22l198 -428zM374 616l15 -15q-53 -53 -124 -53t-124 53l15 15q48 -48 109 -48t109 48z" />
    <glyph glyph-name="afii10193" unicode="&#x45f;" horiz-adv-x="520" 
d="M270 -120h-20v120h-155v450h20v-430h290v430h20v-450h-155v-120z" />
    <glyph glyph-name="afii10050" unicode="&#x490;" horiz-adv-x="472" 
d="M410 680h-290v-680h-20v700h290v125h20v-145z" />
    <glyph glyph-name="afii10098" unicode="&#x491;" horiz-adv-x="365" 
d="M310 430h-195v-430h-20v450h195v100h20v-120z" />
    <glyph glyph-name="uni04D8" unicode="&#x4d8;" horiz-adv-x="760" 
d="M60 350v10h620q-4 145 -94 235q-88 90 -231 90q-148 0 -238 -96l-15 14q96 102 253 102q155 0 249 -99q96 -97 96 -256q0 -157 -89 -257q-89 -98 -231 -98q-143 0 -232 98q-88 98 -88 257zM680 340h-600q3 -147 85 -236q83 -89 215 -89q131 0 214 89q83 91 86 236z" />
    <glyph glyph-name="afii10846" unicode="&#x4d9;" horiz-adv-x="515" 
d="M55 225h385q0 93 -57 152q-55 58 -148 58t-150 -60l-14 15q62 65 164 65t163 -64q62 -64 62 -168q0 -101 -58 -165q-57 -63 -148 -63t-145 63q-54 64 -54 167zM253 15q77 0 129 51q52 52 58 139h-364q6 -87 53.5 -138.5t123.5 -51.5z" />
    <glyph glyph-name="Wgrave" unicode="&#x1e80;" horiz-adv-x="1172" 
d="M1105 700h22l-275 -700h-22l-244 671l-244 -671h-22l-275 700h22l264 -675l244 675h22l244 -675zM506 855l14 14l106 -106l-14 -14z" />
    <glyph glyph-name="wgrave" unicode="&#x1e81;" horiz-adv-x="798" 
d="M731 450h22l-179 -450h-22l-153 425l-153 -425h-22l-179 450h22l168 -428l153 428h22l153 -428zM319 635l14 14l106 -106l-14 -14z" />
    <glyph glyph-name="Wacute" unicode="&#x1e82;" horiz-adv-x="1172" 
d="M1105 700h22l-275 -700h-22l-244 671l-244 -671h-22l-275 700h22l264 -675l244 675h22l244 -675zM560 749l-14 14l106 106l14 -14z" />
    <glyph glyph-name="wacute" unicode="&#x1e83;" horiz-adv-x="798" 
d="M731 450h22l-179 -450h-22l-153 425l-153 -425h-22l-179 450h22l168 -428l153 428h22l153 -428zM373 529l-14 14l106 106l14 -14z" />
    <glyph glyph-name="Wdieresis" unicode="&#x1e84;" horiz-adv-x="1172" 
d="M1105 700h22l-275 -700h-22l-244 671l-244 -671h-22l-275 700h22l264 -675l244 675h22l244 -675zM478 777q-11 11 -6 24.5t17 17t24 -5.5q12 -11 7 -25t-17.5 -17.5t-24.5 6.5zM658 777q-11 11 -6 24.5t17 17t24 -5.5q12 -11 7 -25t-17.5 -17.5t-24.5 6.5z" />
    <glyph glyph-name="wdieresis" unicode="&#x1e85;" horiz-adv-x="798" 
d="M731 450h22l-179 -450h-22l-153 425l-153 -425h-22l-179 450h22l168 -428l153 428h22l153 -428zM291 557q-17 17 1 35t35 1t-1 -35t-35 -1zM471 557q-17 17 1 35t35 1t-1 -35t-35 -1z" />
    <glyph glyph-name="Ygrave" unicode="&#x1ef2;" horiz-adv-x="650" 
d="M335 0h-20v322l-270 378h25l255 -357l255 357h25l-270 -378v-322zM245 855l14 14l106 -106l-14 -14z" />
    <glyph glyph-name="ygrave" unicode="&#x1ef3;" horiz-adv-x="530" 
d="M463 450h22l-327 -700h-22l118 250l-209 450h22l198 -428zM185 635l14 14l106 -106l-14 -14z" />
    <glyph glyph-name="figuredash" unicode="&#x2012;" horiz-adv-x="500" 
d="M420 340h-340v20h340v-20z" />
    <glyph glyph-name="endash" unicode="&#x2013;" horiz-adv-x="500" 
d="M420 250h-340v20h340v-20z" />
    <glyph glyph-name="emdash" unicode="&#x2014;" horiz-adv-x="700" 
d="M620 250h-540v20h540v-20z" />
    <glyph glyph-name="quoteleft" unicode="&#x2018;" 
d="M128 705l13 -13q-36 -36 -36 -60q11 0 18.5 -7.5t7.5 -17.5q0 -11 -7.5 -18t-18.5 -7q-24 0 -24 33q0 43 47 90z" />
    <glyph glyph-name="quoteright" unicode="&#x2019;" 
d="M83 582l-13 13q36 36 36 60q-11 0 -18.5 7.5t-7.5 17.5q0 11 7.5 18t18.5 7q24 0 24 -33q0 -43 -47 -90z" />
    <glyph glyph-name="quotesinglbase" unicode="&#x201a;" 
d="M83 -78l-13 13q36 36 36 60q-11 0 -18.5 7.5t-7.5 17.5q0 11 7.5 18t18.5 7q24 0 24 -33q0 -43 -47 -90z" />
    <glyph glyph-name="quotedblleft" unicode="&#x201c;" horiz-adv-x="310" 
d="M228 705l13 -13q-36 -36 -36 -60q11 0 18.5 -7.5t7.5 -17.5q0 -11 -7.5 -18t-18.5 -7q-24 0 -24 33q0 43 47 90zM128 705l13 -13q-36 -36 -36 -60q11 0 18.5 -7.5t7.5 -17.5q0 -11 -7.5 -18t-18.5 -7q-24 0 -24 33q0 43 47 90z" />
    <glyph glyph-name="quotedblright" unicode="&#x201d;" horiz-adv-x="310" 
d="M83 582l-13 13q36 36 36 60q-11 0 -18.5 7.5t-7.5 17.5q0 11 7.5 18t18.5 7q24 0 24 -33q0 -43 -47 -90zM183 582l-13 13q36 36 36 60q-11 0 -18.5 7.5t-7.5 17.5q0 11 7.5 18t18.5 7q24 0 24 -33q0 -43 -47 -90z" />
    <glyph glyph-name="quotedblbase" unicode="&#x201e;" horiz-adv-x="310" 
d="M83 -78l-13 13q36 36 36 60q-11 0 -18.5 7.5t-7.5 17.5q0 11 7.5 18t18.5 7q24 0 24 -33q0 -43 -47 -90zM183 -78l-13 13q36 36 36 60q-11 0 -18.5 7.5t-7.5 17.5q0 11 7.5 18t18.5 7q24 0 24 -33q0 -43 -47 -90z" />
    <glyph glyph-name="dagger" unicode="&#x2020;" horiz-adv-x="500" 
d="M240 430h-160v20h160v300h20v-300h160v-20h-160v-680h-20v680z" />
    <glyph glyph-name="daggerdbl" unicode="&#x2021;" horiz-adv-x="500" 
d="M240 80h-160v20h160v330h-160v20h160v300h20v-300h160v-20h-160v-330h160v-20h-160v-330h-20v330z" />
    <glyph glyph-name="bullet" unicode="&#x2022;" horiz-adv-x="260" 
d="M94 239q-14 15 -14 36t14 35q15 15 36 15t35 -15q15 -14 15 -35t-15 -36q-14 -14 -35 -14t-36 14z" />
    <glyph glyph-name="ellipsis" unicode="&#x2026;" horiz-adv-x="630" 
d="M87 2q-11 10 -6.5 24t17.5 17.5t25 -6.5q10 -10 5.5 -24t-17 -17.5t-24.5 6.5zM297 2q-11 10 -6.5 24t17.5 17.5t25 -6.5q10 -10 5.5 -24t-17 -17.5t-24.5 6.5zM507 2q-11 10 -6.5 24t17.5 17.5t25 -6.5q10 -10 5.5 -24t-17 -17.5t-24.5 6.5z" />
    <glyph glyph-name="perthousand" unicode="&#x2030;" horiz-adv-x="1172" 
d="M232 0h-23l357 700h23zM91 438q-41 44 -41 112t41 112q42 43 109 43q68 0 108 -43q42 -44 42 -112t-42 -112q-40 -43 -108 -43q-67 0 -109 43zM106 647q-36 -37 -36 -97t36 -98q36 -37 94 -37t94 37q36 38 36 98t-36 97q-36 38 -94 38t-94 -38zM488 38q-41 44 -41 112
t41 112q42 43 109 43q68 0 108 -43q42 -44 42 -112t-42 -112q-40 -43 -108 -43q-67 0 -109 43zM503 247q-36 -37 -36 -97t36 -98q36 -37 94 -37t94 37t36 98q0 60 -36 97q-36 38 -94 38t-94 -38zM863 38q-41 44 -41 112t41 112q42 43 109 43q68 0 108 -43q42 -44 42 -112
t-42 -112q-40 -43 -108 -43q-67 0 -109 43zM878 247q-36 -37 -36 -97t36 -98q36 -37 94 -37t94 37t36 98q0 60 -36 97q-36 38 -94 38t-94 -38z" />
    <glyph glyph-name="guilsinglleft" unicode="&#x2039;" horiz-adv-x="310" 
d="M230 98l-14 -14l-166 166l166 166l14 -14l-152 -152z" />
    <glyph glyph-name="guilsinglright" unicode="&#x203a;" horiz-adv-x="310" 
d="M84 416l166 -166l-166 -166l-14 14l152 152l-152 152z" />
    <glyph glyph-name="fraction" unicode="&#x2044;" horiz-adv-x="530" 
d="M98 0h-23l357 700h23z" />
    <glyph glyph-name="Euro" unicode="&#x20ac;" horiz-adv-x="758" 
d="M114 410h-64v20h67q23 127 114 200q91 75 224 75q155 0 253 -102l-15 -15q-91 97 -238 97q-125 0 -210 -70q-85 -69 -108 -185h318v-20h-321q-4 -24 -4 -60q0 -37 4 -60h321v-20h-318q23 -117 108 -186t210 -69q148 0 238 96l15 -14q-96 -102 -253 -102q-132 0 -224 74
q-91 75 -114 201h-67v20h64q-4 23 -4 60q0 36 4 60z" />
    <glyph glyph-name="uni20B4" unicode="&#x20b4;" horiz-adv-x="415" 
d="M244 400h-189v20h209l19 19q20 20 29 32q28 34 28 83q0 58 -38.5 94.5t-99.5 36.5q-82 0 -133 -60l-14 15q56 65 147 65q70 0 114 -41.5t44 -108.5q0 -40 -14.5 -67.5t-47.5 -60.5l-7 -7h69v-20h-89l-100 -100h189v-20h-209l-19 -19q-16 -16 -30 -32q-27 -36 -27 -83
q0 -58 38.5 -94.5t99.5 -36.5q82 0 133 60l14 -15q-56 -65 -147 -65q-70 0 -114 41.5t-44 108.5q0 40 14.5 67.5t47.5 60.5l7 7h-69v20h89z" />
    <glyph glyph-name="afii61352" unicode="&#x2116;" horiz-adv-x="987" 
d="M704 576q0 56 35 91.5t90 35.5t90 -35.5t35 -91.5q0 -57 -34.5 -92t-90.5 -35t-90.5 35t-34.5 92zM724 576q0 -49 29 -78.5t76 -29.5t76 29.5t29 78.5q0 48 -29 78t-76 30t-76 -30t-29 -78zM100 0v700h20l480 -666v666h20v-700h-20l-480 666v-666h-20z" />
    <glyph glyph-name="trademark" unicode="&#x2122;" horiz-adv-x="689" 
d="M261 682h-106v-332h-21v332h-106v18h233v-18zM639 350h-21v307l-132 -221h-13l-133 221v-307h-20v350h16l143 -237l143 237h17v-350z" />
    <glyph glyph-name="arrowleft" unicode="&#x2190;" horiz-adv-x="1056" 
d="M438 11l-14 -15l-354 354l354 354l14 -15l-330 -329h848v-20h-848z" />
    <glyph glyph-name="arrowup" unicode="&#x2191;" horiz-adv-x="848" 
d="M434 -183h-20v848l-329 -330l-15 14l354 354l354 -354l-15 -14l-329 330v-848z" />
    <glyph glyph-name="arrowright" unicode="&#x2192;" horiz-adv-x="1056" 
d="M948 340h-848v20h848l-330 329l14 15l354 -354l-354 -354l-14 15z" />
    <glyph glyph-name="arrowdown" unicode="&#x2193;" horiz-adv-x="848" 
d="M778 168l-354 -354l-354 354l15 14l329 -330v848h20v-848l329 330z" />
    <glyph glyph-name="uni2196" unicode="&#x2196;" horiz-adv-x="804" 
d="M120 130h-20v500h500v-20h-466l600 -600l-14 -14l-600 600v-466z" />
    <glyph glyph-name="uni2197" unicode="&#x2197;" horiz-adv-x="804" 
d="M670 610h-466v20h500v-500h-20v466l-600 -600l-14 14z" />
    <glyph glyph-name="uni2198" unicode="&#x2198;" horiz-adv-x="804" 
d="M704 0h-500v20h466l-600 600l14 14l600 -600v466h20v-500z" />
    <glyph glyph-name="uni2199" unicode="&#x2199;" horiz-adv-x="804" 
d="M600 0h-500v500h20v-466l600 600l14 -14l-600 -600h466v-20z" />
    <glyph glyph-name="minus" unicode="&#x2212;" horiz-adv-x="450" 
d="M370 295h-290v20h290v-20z" />
    <glyph glyph-name="commaaccent" unicode="&#xf6c3;" 
d="M83 -178l-13 13q36 36 36 60q-11 0 -18.5 7.5t-7.5 17.5q0 11 7.5 18t18.5 7q24 0 24 -33q0 -43 -47 -90z" />
    <glyph glyph-name="NULL" horiz-adv-x="0" 
 />
    <glyph glyph-name="CR" horiz-adv-x="333" 
 />
    <glyph glyph-name="adieresis.alt" horiz-adv-x="539" 
d="M277 455q106 0 167 -55v-400h-20v42q-59 -47 -144 -47q-101 0 -163 63q-62 65 -62 167q0 104 61 166q61 64 161 64zM280 15q88 0 144 54v321q-56 45 -147 45q-92 0 -147 -58t-55 -152q0 -93 56 -152q57 -58 149 -58zM169 557q-17 17 1 35t35 1t-1 -35t-35 -1zM349 557
q-17 17 1 35t35 1t-1 -35t-35 -1z" />
    <glyph glyph-name="agrave.alt" horiz-adv-x="539" 
d="M277 455q106 0 167 -55v-400h-20v42q-59 -47 -144 -47q-101 0 -163 63q-62 65 -62 167q0 104 61 166q61 64 161 64zM280 15q88 0 144 54v321q-56 45 -147 45q-92 0 -147 -58t-55 -152q0 -93 56 -152q57 -58 149 -58zM196 635l14 14l106 -106l-14 -14z" />
    <glyph glyph-name="amacron.alt" horiz-adv-x="539" 
d="M277 455q106 0 167 -55v-400h-20v42q-59 -47 -144 -47q-101 0 -163 63q-62 65 -62 167q0 104 61 166q61 64 161 64zM280 15q88 0 144 54v321q-56 45 -147 45q-92 0 -147 -58t-55 -152q0 -93 56 -152q57 -58 149 -58zM386 560h-220v20h220v-20z" />
    <glyph glyph-name="aogonek.alt" horiz-adv-x="539" 
d="M432 -44q0 -30 17.5 -48.5t45.5 -18.5q29 0 46 18l15 -14q-22 -24 -61 -24q-37 0 -60 23.5t-23 62.5q0 29 12 45v42q-59 -47 -144 -47q-101 0 -163 63q-62 65 -62 167q0 104 61 166q61 64 161 64q106 0 167 -55v-400q-12 -16 -12 -44zM280 15q88 0 144 54v321
q-56 45 -147 45q-92 0 -147 -58t-55 -152q0 -93 56 -152q57 -58 149 -58z" />
    <glyph glyph-name="aring.alt" horiz-adv-x="539" 
d="M277 455q106 0 167 -55v-400h-20v42q-59 -47 -144 -47q-101 0 -163 63q-62 65 -62 167q0 104 61 166q61 64 161 64zM280 15q88 0 144 54v321q-56 45 -147 45q-92 0 -147 -58t-55 -152q0 -93 56 -152q57 -58 149 -58zM218 548q-23 25 -23 62q0 38 23 61q22 24 60 24
t60 -24q23 -23 23 -61q0 -37 -23 -62q-23 -23 -60 -23t-60 23zM278 675q-28 0 -45.5 -18t-17.5 -47t17.5 -47t45.5 -18t45.5 18t17.5 47t-18 47t-45 18z" />
    <glyph glyph-name="atilde.alt" horiz-adv-x="539" 
d="M277 455q106 0 167 -55v-400h-20v42q-59 -47 -144 -47q-101 0 -163 63q-62 65 -62 167q0 104 61 166q61 64 161 64zM280 15q88 0 144 54v321q-56 45 -147 45q-92 0 -147 -58t-55 -152q0 -93 56 -152q57 -58 149 -58zM176 557h-20q0 31 19 50.5t49 19.5q29 0 56 -27
t50 -27q22 0 35.5 14t13.5 36h20q0 -32 -19 -51t-50 -19q-30 0 -57 27q-25 27 -48 27q-22 0 -35.5 -14t-13.5 -36z" />
    <glyph glyph-name="g.alt" horiz-adv-x="539" 
d="M424 -50v92q-59 -47 -144 -47q-101 0 -163 63q-62 65 -62 167q0 104 61 166q61 64 161 64q106 0 167 -55v-450q0 -92 -56 -148q-56 -57 -146 -57q-100 0 -162 66l14 14q57 -60 148 -60q82 0 132 51q50 52 50 134zM280 15q88 0 144 54v321q-56 45 -147 45q-92 0 -147 -58
t-55 -152q0 -93 56 -152q57 -58 149 -58z" />
    <glyph glyph-name="gbreve.alt" horiz-adv-x="539" 
d="M424 -50v92q-59 -47 -144 -47q-101 0 -163 63q-62 65 -62 167q0 104 61 166q61 64 161 64q106 0 167 -55v-450q0 -92 -56 -148q-56 -57 -146 -57q-100 0 -162 66l14 14q57 -60 148 -60q82 0 132 51q50 52 50 134zM280 15q88 0 144 54v321q-56 45 -147 45q-92 0 -147 -58
t-55 -152q0 -93 56 -152q57 -58 149 -58zM387 616l15 -15q-53 -53 -124 -53t-124 53l15 15q48 -48 109 -48t109 48z" />
    <glyph glyph-name="gcircumflex.alt" horiz-adv-x="539" 
d="M424 -50v92q-59 -47 -144 -47q-101 0 -163 63q-62 65 -62 167q0 104 61 166q61 64 161 64q106 0 167 -55v-450q0 -92 -56 -148q-56 -57 -146 -57q-100 0 -162 66l14 14q57 -60 148 -60q82 0 132 51q50 52 50 134zM280 15q88 0 144 54v321q-56 45 -147 45q-92 0 -147 -58
t-55 -152q0 -93 56 -152q57 -58 149 -58zM172 543l106 106l106 -106l-14 -14l-92 92l-92 -92z" />
    <glyph glyph-name="gcommaaccent.alt" horiz-adv-x="539" 
d="M424 -50v92q-59 -47 -144 -47q-101 0 -163 63q-62 65 -62 167q0 104 61 166q61 64 161 64q106 0 167 -55v-450q0 -92 -56 -148q-56 -57 -146 -57q-100 0 -162 66l14 14q57 -60 148 -60q82 0 132 51q50 52 50 134zM280 15q88 0 144 54v321q-56 45 -147 45q-92 0 -147 -58
t-55 -152q0 -93 56 -152q57 -58 149 -58zM298 658l13 -13q-36 -36 -36 -60q11 0 18.5 -7.5t7.5 -17.5q0 -11 -7.5 -18t-18.5 -7q-24 0 -24 33q0 43 47 90z" />
    <glyph glyph-name="gdotaccent.alt" horiz-adv-x="539" 
d="M424 -50v92q-59 -47 -144 -47q-101 0 -163 63q-62 65 -62 167q0 104 61 166q61 64 161 64q106 0 167 -55v-450q0 -92 -56 -148q-56 -57 -146 -57q-100 0 -162 66l14 14q57 -60 148 -60q82 0 132 51q50 52 50 134zM280 15q88 0 144 54v321q-56 45 -147 45q-92 0 -147 -58
t-55 -152q0 -93 56 -152q57 -58 149 -58zM259 567q-17 17 1 35t35 1t-1 -35t-35 -1z" />
    <glyph glyph-name="afii10021.alt" horiz-adv-x="842" 
d="M772 -150v150h-702v-150h-20v170h64l296 680h22l296 -680h64v-170h-20zM705 20l-284 657l-284 -657h568z" />
    <glyph glyph-name="afii10029.alt" horiz-adv-x="732" 
d="M68 0h-23l310 700h22l310 -700h-23l-298 677z" />
    <glyph glyph-name="afii10058.alt" horiz-adv-x="975" 
d="M68 0h-23l310 700h22l148 -335h210q81 0 130.5 -50t49.5 -132q0 -83 -49.5 -133t-130.5 -50h-71l-298 677zM735 345h-201l144 -325h57q72 0 116 45t44 118t-44 117.5t-116 44.5z" />
    <glyph glyph-name="afii10065.alt" horiz-adv-x="539" 
d="M277 455q106 0 167 -55v-400h-20v42q-59 -47 -144 -47q-101 0 -163 63q-62 65 -62 167q0 104 61 166q61 64 161 64zM280 15q88 0 144 54v321q-56 45 -147 45q-92 0 -147 -58t-55 -152q0 -93 56 -152q57 -58 149 -58z" />
    <glyph glyph-name="afii10069.alt" horiz-adv-x="620" 
d="M515 20h55v-140h-20v120h-480v-120h-20v140h54l195 430h22zM493 20l-183 408l-184 -408h367z" />
    <glyph glyph-name="afii10077.alt" horiz-adv-x="530" 
d="M67 0h-22l209 450h22l209 -450h-22l-198 428z" />
    <glyph glyph-name="afii10106.alt" horiz-adv-x="693" 
d="M67 0h-22l209 450h22l97 -210h147q56 0 89.5 -33t33.5 -87t-33.5 -87t-89.5 -33h-57l-198 428zM520 220h-137l92 -200h45q47 0 75 27.5t28 72.5t-28 72.5t-75 27.5z" />
    <glyph glyph-name="acircumflex.alt" horiz-adv-x="539" 
d="M171 543l106 106l106 -106l-14 -14l-92 92l-92 -92zM277 455q106 0 167 -55v-400h-20v42q-59 -47 -144 -47q-101 0 -163 63q-62 65 -62 167q0 104 61 166q61 64 161 64zM280 15q88 0 144 54v321q-56 45 -147 45q-92 0 -147 -58t-55 -152q0 -93 56 -152q57 -58 149 -58z
" />
    <glyph glyph-name="abreve.alt" horiz-adv-x="539" 
d="M277 455q106 0 167 -55v-400h-20v42q-59 -47 -144 -47q-101 0 -163 63q-62 65 -62 167q0 104 61 166q61 64 161 64zM280 15q88 0 144 54v321q-56 45 -147 45q-92 0 -147 -58t-55 -152q0 -93 56 -152q57 -58 149 -58zM385 616l15 -15q-53 -53 -124 -53t-124 53l15 15
q48 -48 109 -48t109 48z" />
    <glyph glyph-name="aacute.alt" horiz-adv-x="539" 
d="M277 455q106 0 167 -55v-400h-20v42q-59 -47 -144 -47q-101 0 -163 63q-62 65 -62 167q0 104 61 166q61 64 161 64zM280 15q88 0 144 54v321q-56 45 -147 45q-92 0 -147 -58t-55 -152q0 -93 56 -152q57 -58 149 -58zM250 529l-14 14l106 106l14 -14z" />
    <glyph glyph-name="a.alt" horiz-adv-x="539" 
d="M277 455q106 0 167 -55v-400h-20v42q-59 -47 -144 -47q-101 0 -163 63q-62 65 -62 167q0 104 61 166q61 64 161 64zM280 15q88 0 144 54v321q-56 45 -147 45q-92 0 -147 -58t-55 -152q0 -93 56 -152q57 -58 149 -58z" />
    <glyph glyph-name="zero.fitted" horiz-adv-x="530" 
d="M106 93q-61 98 -61 257t61 256q62 99 159 99t159 -99q61 -97 61 -256t-61 -257q-62 -98 -159 -98t-159 98zM120 592q-55 -92 -55 -242t55 -242q55 -93 145 -93q89 0 144 93q56 94 56 242t-56 242q-55 93 -144 93q-90 0 -145 -93z" />
    <glyph glyph-name="one.fitted" horiz-adv-x="530" 
d="M400 0h-264v20h122v659l-128 -24v20l148 28v-683h122v-20z" />
    <glyph glyph-name="germandbls.case" horiz-adv-x="585" 
d="M115 542v-542h-20v542q0 72 46.5 117.5t121.5 45.5t121.5 -45.5t46.5 -117.5q0 -68 -40.5 -113t-107.5 -50q0 -81 84 -122q7 -3 25.5 -11.5t27 -12.5t25 -13t24.5 -15.5t19.5 -18t17 -22.5t10 -26t4.5 -32q0 -46 -36 -78.5t-99 -32.5q-83 0 -130 51l14 14q39 -45 116 -45
q55 0 85 27.5t30 64.5q0 67 -84 103q-3 1 -9 4q-26 12 -40.5 19t-37.5 22.5t-35.5 30.5t-22 39.5t-8.5 53.5v21q66 0 107 39t41 103q0 63 -41 103t-107 40t-107 -40t-41 -103z" />
    <glyph glyph-name="at.case" horiz-adv-x="798" 
d="M657 113l13 -12q-100 -106 -268 -106q-155 0 -251 98q-96 99 -96 257t96 256q96 99 249 99q157 0 250 -94q93 -95 93 -232q0 -101 -48 -151q-47 -48 -108 -48t-78 33q-43 -33 -104 -33q-74 0 -121 47q-46 46 -46 123q0 76 45.5 123t119.5 47q76 0 123 -41v-250
q0 -29 61 -29q55 0 95 42q41 43 41 137q0 130 -85 218t-236 88q-147 0 -237 -92q-90 -91 -90 -243t90 -244q90 -91 238 -91q165 0 254 98zM258 350q0 -70 39.5 -110t107.5 -40q63 0 101 35v236q-40 29 -103 29q-68 0 -106.5 -40.5t-38.5 -109.5z" />
    <glyph glyph-name="parenleft.case" horiz-adv-x="305" 
d="M235 755v-20q-57 0 -96 -109q-39 -108 -39 -277q0 -167 39 -277q39 -108 96 -108v-19q-66 0 -111 113q-44 115 -44 292t44 291q45 114 111 114z" />
    <glyph glyph-name="parenright.case" horiz-adv-x="305" 
d="M70 735v20q66 0 110 -114q45 -113 45 -291t-45 -292q-44 -113 -110 -113v20q57 0 96 108t39 277t-39 277t-96 108z" />
    <glyph glyph-name="bracketleft.case" horiz-adv-x="295" 
d="M95 750h130v-20h-110v-760h110v-20h-130v800z" />
    <glyph glyph-name="bracketright.case" horiz-adv-x="295" 
d="M180 730h-110v20h130v-800h-130v20h110v760z" />
    <glyph glyph-name="braceleft.case" horiz-adv-x="330" 
d="M280 -35v-20q-53 0 -89 46q-36 47 -36 118v83q0 65 -30 106.5t-75 41.5v20q45 0 75 41.5t30 106.5v83q0 71 36 118q36 46 89 46v-20q-44 0 -75 -42q-30 -41 -30 -105v-83q0 -56 -23.5 -98t-62.5 -57q39 -15 62.5 -57t23.5 -98v-83q0 -64 30 -106q32 -41 75 -41z" />
    <glyph glyph-name="braceright.case" horiz-adv-x="330" 
d="M50 -55v20q44 0 74 41q31 41 31 106v83q0 56 23.5 98t62.5 57q-39 15 -62.5 57t-23.5 98v83q0 65 -31 105q-30 42 -74 42v20q53 0 89 -46q36 -47 36 -118v-83q0 -65 30 -106.5t75 -41.5v-20q-45 0 -75 -41.5t-30 -106.5v-83q0 -71 -36 -118q-36 -46 -89 -46z" />
    <glyph glyph-name="questiondown.case" horiz-adv-x="462" 
d="M397 81l15 -15q-65 -71 -180 -71q-90 1 -135 52.5t-42 120.5q0 35 12 62t24 39.5t37 33.5q5 4 7 6q27 23 40.5 37.5t27 47.5t13.5 76v55h20v-55q0 -54 -16.5 -92t-40 -58.5t-47.5 -39t-40.5 -46t-16.5 -66.5q0 -61 38 -108q39 -45 118 -45q48 0 93.5 18t72.5 48zM243 697
q12 -9 7 -23t-17.5 -18t-24.5 6q-11 10 -6 24t17.5 17.5t23.5 -6.5z" />
    <glyph glyph-name="guillemotleft.case" horiz-adv-x="470" 
d="M230 198l-14 -14l-166 166l166 166l14 -14l-152 -152zM390 198l-14 -14l-166 166l166 166l14 -14l-152 -152z" />
    <glyph glyph-name="guillemotright.case" horiz-adv-x="470" 
d="M244 516l166 -166l-166 -166l-14 14l152 152l-152 152zM84 516l166 -166l-166 -166l-14 14l152 152l-152 152z" />
    <glyph glyph-name="guilsinglleft.case" horiz-adv-x="310" 
d="M230 198l-14 -14l-166 166l166 166l14 -14l-152 -152z" />
    <glyph glyph-name="guilsinglright.case" horiz-adv-x="310" 
d="M84 516l166 -166l-166 -166l-14 14l152 152l-152 152z" />
    <glyph glyph-name="hyphen.case" horiz-adv-x="340" 
d="M260 340h-180v20h180v-20z" />
    <glyph glyph-name="endash.case" horiz-adv-x="500" 
d="M420 340h-340v20h340v-20z" />
    <glyph glyph-name="emdash.case" horiz-adv-x="700" 
d="M620 340h-540v20h540v-20z" />
    <glyph glyph-name="bar.case" 
d="M115 -50h-20v800h20v-800z" />
    <glyph glyph-name="brokenbar.case" 
d="M115 -50h-20v350h20v-350zM95 750h20v-350h-20v350z" />
    <glyph glyph-name="asciitilde.case" horiz-adv-x="433" 
d="M70 307h-20q0 40 24.5 65t63.5 25q55 0 80 -37q29 -37 76 -37q31 0 50 19.5t19 50.5h20q0 -41 -24.5 -65.5t-64.5 -24.5q-56 0 -81 37t-74 37q-31 0 -50 -19.5t-19 -50.5z" />
    <glyph glyph-name="dagger.case" horiz-adv-x="500" 
d="M240 505h-160v20h160v225h20v-225h160v-20h-160v-555h-20v555z" />
    <glyph glyph-name="daggerdbl.case" horiz-adv-x="500" 
d="M240 205h-160v20h160v280h-160v20h160v225h20v-225h160v-20h-160v-280h160v-20h-160v-255h-20v255z" />
    <glyph glyph-name="bullet.case" horiz-adv-x="260" 
d="M94 314q-14 15 -14 36t14 35q15 15 36 15t35 -15q15 -14 15 -35t-15 -36q-14 -14 -35 -14t-36 14z" />
    <glyph glyph-name="A.smcp" horiz-adv-x="570" 
d="M528 0h-22l-81 175h-280l-80 -175h-23l233 504h21zM417 194l-132 286l-131 -286h263z" />
    <glyph glyph-name="Aacute.smcp" horiz-adv-x="570" 
d="M528 0h-22l-81 175h-280l-80 -175h-23l233 504h21zM417 194l-132 286l-131 -286h263zM266 538l-13 13l81 78l13 -13z" />
    <glyph glyph-name="Abreve.smcp" horiz-adv-x="570" 
d="M528 0h-22l-81 175h-280l-80 -175h-23l233 504h21zM417 194l-132 286l-131 -286h263zM366 603l14 -13q-40 -39 -95 -39q-53 0 -94 39l13 13q36 -34 81 -34t81 34z" />
    <glyph glyph-name="Acircumflex.smcp" horiz-adv-x="570" 
d="M528 0h-22l-81 175h-280l-80 -175h-23l233 504h21zM417 194l-132 286l-131 -286h263zM204 551l81 78l81 -78l-12 -13l-69 66l-68 -66z" />
    <glyph glyph-name="Agrave.smcp" horiz-adv-x="570" 
d="M528 0h-22l-81 175h-280l-80 -175h-23l233 504h21zM417 194l-132 286l-131 -286h263zM223 616l13 13l81 -78l-13 -13z" />
    <glyph glyph-name="Adieresis.smcp" horiz-adv-x="570" 
d="M528 0h-22l-81 175h-280l-80 -175h-23l233 504h21zM417 194l-132 286l-131 -286h263zM197 573q0 8 6 14t14 6q9 0 15 -6t6 -14q0 -9 -6 -15t-15 -6q-8 0 -14 6t-6 15zM332 573q0 19 21 19t21 -19q0 -20 -21 -20t-21 20z" />
    <glyph glyph-name="Amacron.smcp" horiz-adv-x="570" 
d="M528 0h-22l-81 175h-280l-80 -175h-23l233 504h21zM417 194l-132 286l-131 -286h263zM369 560h-167v18h167v-18z" />
    <glyph glyph-name="Aogonek.smcp" horiz-adv-x="571" 
d="M514 -31q0 -22 12.5 -34.5t33.5 -12.5q22 0 34 12l13 -11q-18 -18 -47 -18q-28 0 -45.5 17.5t-17.5 45.5q0 20 9 32l-81 175h-280l-80 -175h-23l233 504h21l232 -504h-6q-8 -14 -8 -31zM417 194l-132 286l-131 -286h263z" />
    <glyph glyph-name="Aring.smcp" horiz-adv-x="570" 
d="M528 0h-22l-81 175h-280l-80 -175h-23l233 504h21zM417 194l-132 286l-131 -286h263zM285 658q29 0 46 -16.5t17 -44.5t-17.5 -45t-45.5 -17t-45.5 17t-17.5 45t17.5 44.5t45.5 16.5zM239 597q0 -28 23 -40t46 0t23 40q2 28 -22 39.5t-48 0t-22 -39.5z" />
    <glyph glyph-name="Atilde.smcp" horiz-adv-x="570" 
d="M528 0h-22l-81 175h-280l-80 -175h-23l233 504h21zM417 194l-132 286l-131 -286h263zM209 558h-17q0 23 15 37.5t38 14.5t42 -19t37 -19q16 0 26 9.5t10 25.5h18q0 -23 -14.5 -37.5t-39.5 -14.5q-23 0 -42 19t-37 19q-16 0 -26 -9.5t-10 -25.5z" />
    <glyph glyph-name="AE.smcp" horiz-adv-x="593" 
d="M535 485h-230v-220h204v-19h-204v-227h234v-19h-254v175h-140l-80 -175h-23l233 504h260v-19zM285 479l-131 -285h131v285z" />
    <glyph glyph-name="AEacute.smcp" horiz-adv-x="593" 
d="M535 485h-230v-220h204v-19h-204v-227h234v-19h-254v175h-140l-80 -175h-23l233 504h260v-19zM285 479l-131 -285h131v285zM292 538l-13 13l82 78l13 -13z" />
    <glyph glyph-name="B.smcp" horiz-adv-x="420" 
d="M228 0h-145v504h123q59 0 95 -34.5t36 -92.5q0 -83 -73 -114q47 -10 74.5 -44t27.5 -84q0 -61 -38 -98t-100 -37zM228 250h-125v-231h125q53 0 85.5 32t32.5 84t-32.5 83.5t-85.5 31.5zM206 485h-103v-216h103q50 0 80.5 29.5t30.5 78.5t-30.5 78.5t-80.5 29.5z" />
    <glyph glyph-name="C.smcp" horiz-adv-x="551" 
d="M314 16q111 0 175 67l15 -14q-73 -73 -191 -73q-114 0 -187 71q-72 71 -72 185t72 185q73 71 187 71q118 0 191 -73l-15 -15q-66 68 -175 68q-106 0 -174 -66q-66 -64 -66 -170q0 -105 66 -171q68 -65 174 -65z" />
    <glyph glyph-name="Cacute.smcp" horiz-adv-x="551" 
d="M314 16q111 0 175 67l15 -14q-73 -73 -191 -73q-114 0 -187 71q-72 71 -72 185t72 185q73 71 187 71q118 0 191 -73l-15 -15q-66 68 -175 68q-106 0 -174 -66q-66 -64 -66 -170q0 -105 66 -171q68 -65 174 -65zM278 545l-12 12l81 79l13 -13z" />
    <glyph glyph-name="Ccaron.smcp" horiz-adv-x="551" 
d="M314 16q111 0 175 67l15 -14q-73 -73 -191 -73q-114 0 -187 71q-72 71 -72 185t72 185q73 71 187 71q118 0 191 -73l-15 -15q-66 68 -175 68q-106 0 -174 -66q-66 -64 -66 -170q0 -105 66 -171q68 -65 174 -65zM379 616l-81 -78l-82 78l13 13l69 -66l68 66z" />
    <glyph glyph-name="Ccedilla.smcp" horiz-adv-x="551" 
d="M314 16q111 0 175 67l15 -14q-70 -70 -184 -73v-42q48 -8 48 -51q0 -23 -15.5 -37.5t-40.5 -14.5q-27 0 -40 16l11 12q13 -12 29 -12q17 0 28 10.5t11 26.5q0 36 -47 36v56q-112 3 -181 73q-69 71 -69 183q0 114 72 185q73 71 187 71q118 0 191 -73l-15 -15
q-66 68 -175 68q-106 0 -174 -66q-66 -64 -66 -170q0 -105 66 -171q68 -65 174 -65z" />
    <glyph glyph-name="Ccircumflex.smcp" horiz-adv-x="551" 
d="M314 16q111 0 175 67l15 -14q-73 -73 -191 -73q-114 0 -187 71q-72 71 -72 185t72 185q73 71 187 71q118 0 191 -73l-15 -15q-66 68 -175 68q-106 0 -174 -66q-66 -64 -66 -170q0 -105 66 -171q68 -65 174 -65zM216 551l82 78l81 -78l-13 -13l-68 66l-69 -66z" />
    <glyph glyph-name="Cdotaccent.smcp" horiz-adv-x="551" 
d="M314 16q111 0 175 67l15 -14q-73 -73 -191 -73q-114 0 -187 71q-72 71 -72 185t72 185q73 71 187 71q118 0 191 -73l-15 -15q-66 68 -175 68q-106 0 -174 -66q-66 -64 -66 -170q0 -105 66 -171q68 -65 174 -65zM277 580q0 20 21 20t21 -20q0 -12 -10.5 -17t-21 0
t-10.5 17z" />
    <glyph glyph-name="D.smcp" horiz-adv-x="535" 
d="M221 0h-138v504h138q116 0 188 -69t72 -183t-72 -183t-188 -69zM221 485h-118v-466h118q108 0 172 64q66 65 66 169t-66 169q-64 64 -172 64z" />
    <glyph glyph-name="Dcaron.smcp" horiz-adv-x="535" 
d="M221 0h-138v504h138q116 0 188 -69t72 -183t-72 -183t-188 -69zM221 485h-118v-466h118q108 0 172 64q66 65 66 169t-66 169q-64 64 -172 64zM341 616l-81 -78l-82 78l13 13l69 -66l68 66z" />
    <glyph glyph-name="Dcroat.smcp" horiz-adv-x="556" 
d="M105 243h-51v18h51v243h137q118 0 188 -69q72 -69 72 -183t-72 -183q-70 -69 -188 -69h-137v243zM242 485h-116v-224h139v-18h-139v-224h116q108 0 173 64q66 65 66 169t-66 169q-65 64 -173 64z" />
    <glyph glyph-name="Eth.smcp" horiz-adv-x="556" 
d="M105 243h-51v18h51v243h137q118 0 188 -69q72 -69 72 -183t-72 -183q-70 -69 -188 -69h-137v243zM242 485h-116v-224h139v-18h-139v-224h116q108 0 173 64q66 65 66 169t-66 169q-65 64 -173 64z" />
    <glyph glyph-name="Thorn.smcp" horiz-adv-x="400" 
d="M103 0h-20v504h20v-114h106q62 0 99.5 -36t37.5 -97q0 -60 -37.5 -96t-99.5 -36h-106v-125zM326 257q0 52 -32 83t-85 31h-106v-227h106q53 0 85 31t32 82z" />
    <glyph glyph-name="E.smcp" horiz-adv-x="408" 
d="M351 485h-248v-220h222v-19h-222v-227h251v-19h-271v504h268v-19z" />
    <glyph glyph-name="Eacute.smcp" horiz-adv-x="408" 
d="M351 485h-248v-220h222v-19h-222v-227h251v-19h-271v504h268v-19zM199 538l-12 13l81 78l13 -13z" />
    <glyph glyph-name="Ebreve.smcp" horiz-adv-x="408" 
d="M351 485h-248v-220h222v-19h-222v-227h251v-19h-271v504h268v-19zM219 569q44 0 81 34l13 -13q-41 -39 -94 -39q-55 0 -95 39l13 13q37 -34 82 -34z" />
    <glyph glyph-name="Ecaron.smcp" horiz-adv-x="408" 
d="M351 485h-248v-220h222v-19h-222v-227h251v-19h-271v504h268v-19zM300 616l-81 -78l-82 78l13 13l69 -66l68 66z" />
    <glyph glyph-name="Ecircumflex.smcp" horiz-adv-x="408" 
d="M351 485h-248v-220h222v-19h-222v-227h251v-19h-271v504h268v-19zM137 551l82 78l81 -78l-13 -13l-68 66l-69 -66z" />
    <glyph glyph-name="Edieresis.smcp" horiz-adv-x="408" 
d="M351 485h-248v-220h222v-19h-222v-227h251v-19h-271v504h268v-19zM130 573q0 8 6 14t15 6q8 0 14 -6t6 -14q0 -9 -6 -15t-14 -6q-9 0 -15 6t-6 15zM266 573q0 8 6 14t14 6q9 0 15 -6t6 -14q0 -9 -6 -15t-15 -6q-8 0 -14 6t-6 15z" />
    <glyph glyph-name="Edotaccent.smcp" horiz-adv-x="408" 
d="M351 485h-248v-220h222v-19h-222v-227h251v-19h-271v504h268v-19zM198 580q0 9 6 15t15 6q8 0 14.5 -6t6.5 -15q0 -8 -6.5 -14t-14.5 -6q-9 0 -15 6t-6 14z" />
    <glyph glyph-name="Egrave.smcp" horiz-adv-x="408" 
d="M351 485h-248v-220h222v-19h-222v-227h251v-19h-271v504h268v-19zM157 616l12 13l82 -78l-13 -13z" />
    <glyph glyph-name="Emacron.smcp" horiz-adv-x="408" 
d="M351 485h-248v-220h222v-19h-222v-227h251v-19h-271v504h268v-19zM302 560h-167v18h167v-18z" />
    <glyph glyph-name="Eogonek.smcp" horiz-adv-x="408" 
d="M267 -31q0 -22 13 -34.5t34 -12.5q20 0 34 12l12 -11q-16 -18 -46 -18q-29 0 -46.5 17.5t-17.5 45.5q0 18 9 32h-176v504h268v-19h-248v-220h222v-19h-222v-227h251v-19h-78q-9 -12 -9 -31z" />
    <glyph glyph-name="F.smcp" horiz-adv-x="384" 
d="M336 485h-233v-220h204v-19h-204v-246h-20v504h253v-19z" />
    <glyph glyph-name="G.smcp" horiz-adv-x="587" 
d="M483 235h-170v19h191v-185q-70 -73 -191 -73q-114 0 -187 71q-72 71 -72 185t72 185q73 71 187 71q118 0 191 -73l-15 -15q-66 68 -175 68q-106 0 -174 -66q-66 -64 -66 -170q0 -105 66 -171q68 -65 174 -65q105 0 169 61v158z" />
    <glyph glyph-name="Gbreve.smcp" horiz-adv-x="587" 
d="M483 235h-170v19h191v-185q-70 -73 -191 -73q-114 0 -187 71q-72 71 -72 185t72 185q73 71 187 71q118 0 191 -73l-15 -15q-66 68 -175 68q-106 0 -174 -66q-66 -64 -66 -170q0 -105 66 -171q68 -65 174 -65q105 0 169 61v158zM313 569q44 0 81 34l13 -13
q-41 -39 -94 -39q-55 0 -95 39l14 13q35 -34 81 -34z" />
    <glyph glyph-name="Gcircumflex.smcp" horiz-adv-x="587" 
d="M483 235h-170v19h191v-185q-70 -73 -191 -73q-114 0 -187 71q-72 71 -72 185t72 185q73 71 187 71q118 0 191 -73l-15 -15q-66 68 -175 68q-106 0 -174 -66q-66 -64 -66 -170q0 -105 66 -171q68 -65 174 -65q105 0 169 61v158zM231 551l82 78l81 -78l-13 -13l-68 66
l-69 -66z" />
    <glyph glyph-name="Gcommaaccent.smcp" horiz-adv-x="587" 
d="M483 235h-170v19h191v-185q-70 -73 -191 -73q-114 0 -187 71q-72 71 -72 185t72 185q73 71 187 71q118 0 191 -73l-15 -15q-66 68 -175 68q-106 0 -174 -66q-66 -64 -66 -170q0 -105 66 -171q68 -65 174 -65q105 0 169 61v158zM295 -132l-10 10q27 27 27 44q-12 0 -17 10
t0 19.5t18 9.5q19 0 19 -25q0 -34 -37 -68z" />
    <glyph glyph-name="Gdotaccent.smcp" horiz-adv-x="587" 
d="M483 235h-170v19h191v-185q-70 -73 -191 -73q-114 0 -187 71q-72 71 -72 185t72 185q73 71 187 71q118 0 191 -73l-15 -15q-66 68 -175 68q-106 0 -174 -66q-66 -64 -66 -170q0 -105 66 -171q68 -65 174 -65q105 0 169 61v158zM292 580q0 9 6 15t15 6q8 0 14.5 -6
t6.5 -15q0 -8 -6.5 -14t-14.5 -6q-9 0 -15 6t-6 14z" />
    <glyph glyph-name="H.smcp" horiz-adv-x="545" 
d="M83 504h20v-239h338v239h21v-504h-21v246h-338v-246h-20v504z" />
    <glyph glyph-name="Hbar.smcp" horiz-adv-x="546" 
d="M119 0h-20v373h-52v19h52v112h20v-112h308v112h20v-112h52v-19h-52v-373h-20v246h-308v-246zM119 373v-108h308v108h-308z" />
    <glyph glyph-name="Hcircumflex.smcp" horiz-adv-x="545" 
d="M83 504h20v-239h338v239h21v-504h-21v246h-338v-246h-20v504zM191 551l81 78l82 -78l-13 -13l-69 66l-68 -66z" />
    <glyph glyph-name="I.smcp" horiz-adv-x="178" 
d="M99 0h-20v504h20v-504z" />
    <glyph glyph-name="Iacute.smcp" horiz-adv-x="178" 
d="M99 0h-20v504h20v-504zM70 538l-13 13l81 78l13 -13z" />
    <glyph glyph-name="Ibreve.smcp" horiz-adv-x="179" 
d="M100 0h-21v504h21v-504zM90 569q44 0 81 34l13 -13q-41 -39 -94 -39q-54 0 -95 39l13 13q37 -34 82 -34z" />
    <glyph glyph-name="Icircumflex.smcp" horiz-adv-x="179" 
d="M99 0h-20v504h20v-504zM8 551l81 78l82 -78l-13 -13l-69 66l-68 -66z" />
    <glyph glyph-name="Idieresis.smcp" horiz-adv-x="178" 
d="M99 0h-20v504h20v-504zM15 573q0 8 6 14t15 6q8 0 14.5 -6t6.5 -14q0 -9 -6.5 -15t-14.5 -6q-9 0 -15 6t-6 15zM122 573q0 8 6 14t14 6q9 0 15 -6t6 -14q0 -9 -6 -15t-15 -6q-8 0 -14 6t-6 15z" />
    <glyph glyph-name="Idotaccent.smcp" horiz-adv-x="178" 
d="M99 0h-20v504h20v-504zM68 580q0 20 21 20t21 -20q0 -12 -10.5 -17t-21 0t-10.5 17z" />
    <glyph glyph-name="Igrave.smcp" horiz-adv-x="178" 
d="M99 0h-20v504h20v-504zM27 616l13 13l81 -78l-13 -13z" />
    <glyph glyph-name="Imacron.smcp" horiz-adv-x="179" 
d="M100 0h-20v504h20v-504zM173 560h-167v18h167v-18z" />
    <glyph glyph-name="Iogonek.smcp" horiz-adv-x="179" 
d="M99 0h-20v504h20v-504zM87 -31q0 -22 12.5 -34.5t33.5 -12.5q22 0 34 12l13 -11q-18 -18 -47 -18q-28 0 -45.5 17.5t-17.5 45.5q0 20 9 32h17q-9 -12 -9 -31z" />
    <glyph glyph-name="Itilde.smcp" horiz-adv-x="178" 
d="M99 0h-20v504h20v-504zM14 558h-17q0 23 15 37.5t38 14.5t42 -19t37 -19q16 0 26 9.5t10 25.5h17q0 -23 -14.5 -37.5t-38.5 -14.5t-43 19t-36 19q-16 0 -26 -9.5t-10 -25.5z" />
    <glyph glyph-name="IJ.smcp" horiz-adv-x="405" 
d="M103 180h-20v324h20v-324zM306 131v373h20v-373q0 -60 -38 -98q-37 -37 -98 -37t-100 39l14 14q32 -33 85 -33t85 31.5t32 83.5z" />
    <glyph glyph-name="J.smcp" horiz-adv-x="362" 
d="M263 131v373h20v-373q0 -60 -38 -97.5t-99 -37.5q-60 0 -99 39l14 14q31 -33 85 -33q52 0 84.5 31.5t32.5 83.5z" />
    <glyph glyph-name="Jcircumflex.smcp" horiz-adv-x="362" 
d="M263 131v373h20v-373q0 -60 -38 -97.5t-99 -37.5q-60 0 -99 39l14 14q31 -33 85 -33q52 0 84.5 31.5t32.5 83.5zM191 551l82 78l81 -78l-13 -13l-68 66l-69 -66z" />
    <glyph glyph-name="K.smcp" horiz-adv-x="447" 
d="M99 0h-20v504h20v-504zM401 0h-26l-254 258l239 246h26l-239 -246z" />
    <glyph glyph-name="Kcommaaccent.smcp" horiz-adv-x="447" 
d="M99 0h-20v504h20v-504zM401 0h-26l-254 258l239 246h26l-239 -246zM210 -132l-11 10q27 25 27 44q-12 0 -17 10t0 19.5t18 9.5q20 0 20 -25q0 -34 -37 -68z" />
    <glyph glyph-name="L.smcp" horiz-adv-x="373" 
d="M83 504h20v-485h223v-19h-243v504z" />
    <glyph glyph-name="Lacute.smcp" horiz-adv-x="373" 
d="M83 504h20v-485h223v-19h-243v504zM152 538l-13 13l82 78l12 -13z" />
    <glyph glyph-name="Lcaron.smcp" horiz-adv-x="373" 
d="M83 504h20v-485h223v-19h-243v504zM175 616l-82 -78l-81 78l13 13l68 -66l69 66z" />
    <glyph glyph-name="Lcommaaccent.smcp" horiz-adv-x="373" 
d="M83 504h20v-485h223v-19h-243v504zM188 -132l-11 10q27 25 27 44q-12 0 -17 10t0 19.5t18 9.5q20 0 20 -25q0 -34 -37 -68z" />
    <glyph glyph-name="Ldot.smcp" horiz-adv-x="373" 
d="M83 504h20v-485h223v-19h-243v504zM258 219q-14 14 1 29t29 1t-1 -29t-29 -1z" />
    <glyph glyph-name="Lslash.smcp" horiz-adv-x="375" 
d="M37 167l-13 13l61 59v265h21v-249l77 75l13 -13l-90 -87v-211h222v-19h-243v214z" />
    <glyph glyph-name="M.smcp" horiz-adv-x="638" 
d="M555 0h-20v460l-207 -332h-18l-207 332v-460h-20v504h17l219 -353l219 353h17v-504z" />
    <glyph glyph-name="N.smcp" horiz-adv-x="560" 
d="M83 0v504h18l356 -468v468h20v-504h-18l-356 468v-468h-20z" />
    <glyph glyph-name="Nacute.smcp" horiz-adv-x="560" 
d="M83 0v504h18l356 -468v468h20v-504h-18l-356 468v-468h-20zM261 538l-13 13l81 78l13 -13z" />
    <glyph glyph-name="Ncaron.smcp" horiz-adv-x="560" 
d="M83 0v504h18l356 -468v468h20v-504h-18l-356 468v-468h-20zM361 616l-81 -78l-81 78l12 13l69 -66l68 66z" />
    <glyph glyph-name="Ncommaaccent.smcp" horiz-adv-x="560" 
d="M83 0v504h18l356 -468v468h20v-504h-18l-356 468v-468h-20zM267 -132l-11 10q27 25 28 44q-13 0 -18 10t0 19.5t18 9.5q20 0 20 -25q0 -34 -37 -68z" />
    <glyph glyph-name="Ntilde.smcp" horiz-adv-x="560" 
d="M83 0v504h18l356 -468v468h20v-504h-18l-356 468v-468h-20zM204 558h-17q0 23 14.5 37.5t37.5 14.5t42 -19q20 -19 38 -19q16 0 26 9.5t10 25.5h17q0 -23 -14.5 -37.5t-38.5 -14.5t-43 19t-36 19q-16 0 -26 -9.5t-10 -25.5z" />
    <glyph glyph-name="Eng.smcp" horiz-adv-x="560" 
d="M407 -180v14q50 0 50 45v124l-354 465v-468h-20v504h18l356 -468v468h20v-625q0 -29 -15.5 -45t-38.5 -16q-14 0 -16 2z" />
    <glyph glyph-name="O.smcp" horiz-adv-x="627" 
d="M313 508q115 0 188 -71q72 -70 72 -185q0 -114 -72 -185q-73 -71 -188 -71q-114 0 -187 71q-72 71 -72 185t72 185q73 71 187 71zM313 16q106 0 173 65q66 66 66 171q0 106 -66 170q-66 66 -173 66q-105 0 -173 -66q-66 -64 -66 -170q0 -105 66 -171q68 -65 173 -65z" />
    <glyph glyph-name="Oacute.smcp" horiz-adv-x="627" 
d="M313 508q115 0 188 -71q72 -70 72 -185q0 -114 -72 -185q-73 -71 -188 -71q-114 0 -187 71q-72 71 -72 185t72 185q73 71 187 71zM313 16q106 0 173 65q66 66 66 171q0 106 -66 170q-66 66 -173 66q-105 0 -173 -66q-66 -64 -66 -170q0 -105 66 -171q68 -65 173 -65z
M294 538l-13 13l82 78l12 -13z" />
    <glyph glyph-name="Obreve.smcp" horiz-adv-x="627" 
d="M313 508q115 0 188 -71q72 -70 72 -185q0 -114 -72 -185q-73 -71 -188 -71q-114 0 -187 71q-72 71 -72 185t72 185q73 71 187 71zM313 16q106 0 173 65q66 66 66 171q0 106 -66 170q-66 66 -173 66q-105 0 -173 -66q-66 -64 -66 -170q0 -105 66 -171q68 -65 173 -65z
M313 569q45 0 82 34l13 -13q-40 -39 -95 -39q-53 0 -94 39l13 13q37 -34 81 -34z" />
    <glyph glyph-name="Ocircumflex.smcp" horiz-adv-x="627" 
d="M313 508q115 0 188 -71q72 -70 72 -185q0 -114 -72 -185q-73 -71 -188 -71q-114 0 -187 71q-72 71 -72 185t72 185q73 71 187 71zM313 16q106 0 173 65q66 66 66 171q0 106 -66 170q-66 66 -173 66q-105 0 -173 -66q-66 -64 -66 -170q0 -105 66 -171q68 -65 173 -65z
M232 551l81 78l82 -78l-13 -13l-69 66l-68 -66z" />
    <glyph glyph-name="Odieresis.smcp" horiz-adv-x="627" 
d="M313 508q115 0 188 -71q72 -70 72 -185q0 -114 -72 -185q-73 -71 -188 -71q-114 0 -187 71q-72 71 -72 185t72 185q73 71 187 71zM313 16q106 0 173 65q66 66 66 171q0 106 -66 170q-66 66 -173 66q-105 0 -173 -66q-66 -64 -66 -170q0 -105 66 -171q68 -65 173 -65z
M225 573q0 8 6 14t15 6q8 0 14 -6t6 -14q0 -9 -6 -15t-14 -6q-9 0 -15 6t-6 15zM360 573q0 8 6.5 14t14.5 6q9 0 15 -6t6 -14q0 -9 -6 -15t-15 -6q-8 0 -14.5 6t-6.5 15z" />
    <glyph glyph-name="Ograve.smcp" horiz-adv-x="627" 
d="M313 508q115 0 188 -71q72 -70 72 -185q0 -114 -72 -185q-73 -71 -188 -71q-114 0 -187 71q-72 71 -72 185t72 185q73 71 187 71zM313 16q106 0 173 65q66 66 66 171q0 106 -66 170q-66 66 -173 66q-105 0 -173 -66q-66 -64 -66 -170q0 -105 66 -171q68 -65 173 -65z
M251 616l13 13l81 -78l-12 -13z" />
    <glyph glyph-name="Ohungarumlaut.smcp" horiz-adv-x="627" 
d="M313 508q115 0 188 -71q72 -70 72 -185q0 -114 -72 -185q-73 -71 -188 -71q-114 0 -187 71q-72 71 -72 185t72 185q73 71 187 71zM313 16q106 0 173 65q66 66 66 171q0 106 -66 170q-66 66 -173 66q-105 0 -173 -66q-66 -64 -66 -170q0 -105 66 -171q68 -65 173 -65z
M245 538l-13 13l81 78l13 -13zM344 538l-13 13l81 78l13 -13z" />
    <glyph glyph-name="Omacron.smcp" horiz-adv-x="627" 
d="M313 508q115 0 188 -71q72 -70 72 -185q0 -114 -72 -185q-73 -71 -188 -71q-114 0 -187 71q-72 71 -72 185t72 185q73 71 187 71zM313 16q106 0 173 65q66 66 66 171q0 106 -66 170q-66 66 -173 66q-105 0 -173 -66q-66 -64 -66 -170q0 -105 66 -171q68 -65 173 -65z
M397 560h-167v18h167v-18z" />
    <glyph glyph-name="Oslash.smcp" horiz-adv-x="627" 
d="M89 -4h-25l64 69q-74 71 -74 187q0 114 72 185q73 71 187 71q101 0 172 -57l53 57h25l-64 -69q74 -71 74 -187q0 -114 -72 -185q-73 -71 -188 -71q-105 0 -172 57zM74 252q0 -107 68 -172l329 356q-62 52 -158 52q-105 0 -173 -66q-66 -64 -66 -170zM552 252
q0 107 -67 171l-330 -355q62 -52 158 -52q106 0 173 65q66 66 66 171z" />
    <glyph glyph-name="Oslashacute.smcp" horiz-adv-x="627" 
d="M89 -4h-25l64 69q-74 71 -74 187q0 114 72 185q73 71 187 71q101 0 172 -57l53 57h25l-64 -69q74 -71 74 -187q0 -114 -72 -185q-73 -71 -188 -71q-105 0 -172 57zM74 252q0 -107 68 -172l329 356q-62 52 -158 52q-105 0 -173 -66q-66 -64 -66 -170zM552 252
q0 107 -67 171l-330 -355q62 -52 158 -52q106 0 173 65q66 66 66 171zM294 538l-13 13l82 78l12 -13z" />
    <glyph glyph-name="Otilde.smcp" horiz-adv-x="627" 
d="M313 508q115 0 188 -71q72 -70 72 -185q0 -114 -72 -185q-73 -71 -188 -71q-114 0 -187 71q-72 71 -72 185t72 185q73 71 187 71zM313 16q106 0 173 65q66 66 66 171q0 106 -66 170q-66 66 -173 66q-105 0 -173 -66q-66 -64 -66 -170q0 -105 66 -171q68 -65 173 -65z
M238 558h-18q0 23 15 37.5t38 14.5t42 -19q20 -19 38 -19q16 0 26 9.5t10 25.5h17q0 -23 -14.5 -37.5t-38.5 -14.5t-43 19t-36 19q-16 0 -26 -9.5t-10 -25.5z" />
    <glyph glyph-name="OE.smcp" horiz-adv-x="663" 
d="M606 485h-226v-220h200v-19h-200v-227h229v-19h-246q-28 -4 -50 -4q-114 0 -187 71q-72 71 -72 185t72 185q73 71 187 71q22 0 50 -4h243v-19zM313 16q25 0 47 3v466q-22 3 -47 3q-105 0 -173 -66q-66 -64 -66 -170q0 -105 66 -171q68 -65 173 -65z" />
    <glyph glyph-name="P.smcp" horiz-adv-x="400" 
d="M103 0h-20v504h126q62 0 99.5 -36t37.5 -97q0 -60 -37.5 -96.5t-99.5 -36.5h-106v-238zM209 485h-106v-227h106q53 0 85 31t32 82t-32.5 82.5t-84.5 31.5z" />
    <glyph glyph-name="Q.smcp" horiz-adv-x="627" 
d="M585 -7l-14 -14l-81 78q-70 -61 -177 -61q-114 0 -187 71q-72 71 -72 185t72 185q73 71 187 71q115 0 188 -71q72 -70 72 -185q0 -110 -69 -182zM313 16q101 0 162 55l-99 95l14 14l99 -94q63 64 63 166q0 106 -67 170q-66 66 -172 66q-105 0 -173 -66q-66 -64 -66 -170
q0 -105 66 -171q68 -65 173 -65z" />
    <glyph glyph-name="R.smcp" horiz-adv-x="408" 
d="M366 0h-24l-143 238h-96v-238h-20v504h130q62 0 99.5 -36t37.5 -97q0 -58 -35.5 -94.5t-93.5 -38.5zM213 485h-110v-227h110q53 0 85 31t32 82t-32.5 82.5t-84.5 31.5z" />
    <glyph glyph-name="Racute.smcp" horiz-adv-x="408" 
d="M366 0h-24l-143 238h-96v-238h-20v504h130q62 0 99.5 -36t37.5 -97q0 -58 -35.5 -94.5t-93.5 -38.5zM213 485h-110v-227h110q53 0 85 31t32 82t-32.5 82.5t-84.5 31.5zM184 538l-13 13l82 78l13 -13z" />
    <glyph glyph-name="Rcaron.smcp" horiz-adv-x="408" 
d="M366 0h-24l-143 238h-96v-238h-20v504h130q62 0 99.5 -36t37.5 -97q0 -58 -35.5 -94.5t-93.5 -38.5zM213 485h-110v-227h110q53 0 85 31t32 82t-32.5 82.5t-84.5 31.5zM285 616l-82 -78l-81 78l13 13l68 -66l69 66z" />
    <glyph glyph-name="Rcommaaccent.smcp" horiz-adv-x="408" 
d="M366 0h-24l-143 238h-96v-238h-20v504h130q62 0 99.5 -36t37.5 -97q0 -58 -35.5 -94.5t-93.5 -38.5zM213 485h-110v-227h110q53 0 85 31t32 82t-32.5 82.5t-84.5 31.5zM191 -132l-11 10q27 25 28 44q-13 0 -18 10t0 19.5t18 9.5q20 0 20 -25q0 -34 -37 -68z" />
    <glyph glyph-name="S.smcp" horiz-adv-x="399" 
d="M326 456l-14 -15q-44 47 -123 47q-55 0 -84.5 -30.5t-29.5 -74.5q0 -69 94 -105q6 -2 29.5 -10.5t31.5 -11.5t28 -12t28.5 -15.5t22 -17.5t19.5 -21.5t11 -25t5 -31.5q0 -53 -38 -96q-38 -41 -113 -41q-96 0 -148 58l14 14q45 -52 133 -52q68 0 99 36q33 38 33 81
q0 67 -96 101q-94 33 -127 58q-48 36 -47 91q0 54 35 89.5t100 35.5q86 0 137 -52z" />
    <glyph glyph-name="Sacute.smcp" horiz-adv-x="399" 
d="M326 456l-14 -15q-44 47 -123 47q-55 0 -84.5 -30.5t-29.5 -74.5q0 -69 94 -105q6 -2 29.5 -10.5t31.5 -11.5t28 -12t28.5 -15.5t22 -17.5t19.5 -21.5t11 -25t5 -31.5q0 -53 -38 -96q-38 -41 -113 -41q-96 0 -148 58l14 14q45 -52 133 -52q68 0 99 36q33 38 33 81
q0 67 -96 101q-94 33 -127 58q-48 36 -47 91q0 54 35 89.5t100 35.5q86 0 137 -52zM169 538l-13 13l81 78l13 -13z" />
    <glyph glyph-name="Scaron.smcp" horiz-adv-x="399" 
d="M326 456l-14 -15q-44 47 -123 47q-55 0 -84.5 -30.5t-29.5 -74.5q0 -69 94 -105q6 -2 29.5 -10.5t31.5 -11.5t28 -12t28.5 -15.5t22 -17.5t19.5 -21.5t11 -25t5 -31.5q0 -53 -38 -96q-38 -41 -113 -41q-96 0 -148 58l14 14q45 -52 133 -52q68 0 99 36q33 38 33 81
q0 67 -96 101q-94 33 -127 58q-48 36 -47 91q0 54 35 89.5t100 35.5q86 0 137 -52zM270 616l-82 -78l-81 78l13 13l68 -66l69 66z" />
    <glyph glyph-name="Scedilla.smcp" horiz-adv-x="399" 
d="M326 456l-14 -15q-44 47 -123 47q-55 0 -84.5 -30.5t-29.5 -74.5q0 -69 94 -105q6 -2 29.5 -10.5t31.5 -11.5t28 -12t28.5 -15.5t22 -17.5t19.5 -21.5t11 -25t5 -31.5q0 -53 -36 -94q-37 -42 -108 -43v-42q48 -8 48 -51q0 -23 -15.5 -37.5t-40.5 -14.5q-24 0 -40 16
l11 12q13 -12 29 -12q17 0 28 10.5t11 26.5q0 36 -47 36v56q-90 3 -139 58l14 14q45 -52 133 -52q68 0 99 36q33 38 33 81q0 67 -96 101q-94 33 -127 58q-48 36 -47 91q0 54 35 89.5t100 35.5q86 0 137 -52z" />
    <glyph glyph-name="Scircumflex.smcp" horiz-adv-x="399" 
d="M326 456l-14 -15q-44 47 -123 47q-55 0 -84.5 -30.5t-29.5 -74.5q0 -69 94 -105q6 -2 29.5 -10.5t31.5 -11.5t28 -12t28.5 -15.5t22 -17.5t19.5 -21.5t11 -25t5 -31.5q0 -53 -38 -96q-38 -41 -113 -41q-96 0 -148 58l14 14q45 -52 133 -52q68 0 99 36q33 38 33 81
q0 67 -96 101q-94 33 -127 58q-48 36 -47 91q0 54 35 89.5t100 35.5q86 0 137 -52zM107 551l81 78l82 -78l-13 -13l-69 66l-68 -66z" />
    <glyph glyph-name="Scommaaccent.smcp" horiz-adv-x="399" 
d="M326 456l-14 -15q-44 47 -123 47q-55 0 -84.5 -30.5t-29.5 -74.5q0 -69 94 -105q6 -2 29.5 -10.5t31.5 -11.5t28 -12t28.5 -15.5t22 -17.5t19.5 -21.5t11 -25t5 -31.5q0 -53 -38 -96q-38 -41 -113 -41q-96 0 -148 58l14 14q45 -52 133 -52q68 0 99 36q33 38 33 81
q0 67 -96 101q-94 33 -127 58q-48 36 -47 91q0 54 35 89.5t100 35.5q86 0 137 -52zM180 -132l-11 10q27 25 27 44q-12 0 -17 10t0 19.5t18 9.5q20 0 20 -25q0 -34 -37 -68z" />
    <glyph glyph-name="T.smcp" horiz-adv-x="439" 
d="M394 485h-164v-485h-20v485h-163v19h347v-19z" />
    <glyph glyph-name="Tbar.smcp" horiz-adv-x="439" 
d="M210 257h-118v19h118v209h-163v19h347v-19h-164v-209h119v-19h-119v-257h-20v257z" />
    <glyph glyph-name="two.fitted" horiz-adv-x="530" 
d="M74 0v28l316 312q52 52 52 152q0 84 -50 139q-50 54 -130 54t-129 -54q-50 -53 -50 -139h-20q0 96 55 154q56 59 144 59t144 -59t56 -154q0 -109 -57 -166l-310 -306h367v-20h-388z" />
    <glyph glyph-name="three.fitted" horiz-adv-x="530" 
d="M262 375h-46v20h46q65 0 105.5 40t40.5 105t-40.5 105t-105.5 40q-64 0 -104.5 -40.5t-40.5 -104.5h-20q0 74 45.5 119.5t119.5 45.5t120 -45.5t46 -119.5q0 -56 -27.5 -96.5t-76.5 -57.5q66 -17 105 -68t39 -123q0 -89 -57 -145q-56 -55 -149 -55q-92 0 -148 55
q-57 56 -57 145h20q0 -81 51 -130q53 -50 134 -50q82 0 134 50q52 49 52 130t-52 130q-52 50 -134 50z" />
    <glyph glyph-name="four.fitted" horiz-adv-x="530" 
d="M400 0h-20v150h-329v20l325 530h24v-530h69v-20h-69v-150zM380 666l-305 -496h305v496z" />
    <glyph glyph-name="five.fitted" horiz-adv-x="530" 
d="M462 208q0 -95 -56 -154t-144 -59t-144 53q-55 54 -55 139h20q0 -76 49 -124q50 -48 130 -48t130 54q50 55 50 139q0 94 -55 152q-54 58 -142 58q-91 0 -147 -50l-14 14l49 318h280v-20h-262l-45 -280q56 38 139 38q97 0 157 -64q60 -63 60 -166z" />
    <glyph glyph-name="six.fitted" horiz-adv-x="530" 
d="M302 705l17 -10l-178 -305q55 35 124 35q95 0 153 -60q59 -59 59 -155q0 -95 -59 -156q-59 -59 -153 -59q-95 0 -154 59q-58 59 -58 156q0 29 5 61q3 16 32 73q13 26 31 56l43 73l61 102q12 19 37.5 63.5t39.5 66.5zM126 351q-53 -55 -53 -141t53 -141q52 -54 139 -54
t139 54q53 55 53 141t-53 141q-52 54 -139 54t-139 -54z" />
    <glyph glyph-name="seven.fitted" horiz-adv-x="530" 
d="M438 680h-369v20h392v-20l-279 -680h-23z" />
    <glyph glyph-name="eight.fitted" horiz-adv-x="530" 
d="M98 540q0 73 46 119t121 46q74 0 120 -46q47 -47 47 -119q0 -56 -28 -96.5t-77 -57.5q67 -17 106.5 -68t39.5 -123q0 -90 -58 -145q-56 -55 -150 -55q-93 0 -151 55q-57 56 -57 145q0 72 39.5 123t106.5 68q-49 17 -77 57.5t-28 96.5zM129 325q-52 -49 -52 -130t52 -130
q53 -50 136 -50t136 50q52 49 52 130t-52 130q-53 50 -136 50t-136 -50zM159 644q-41 -41 -41 -104q0 -64 41 -105q40 -40 106 -40t106 40q41 41 41 105q0 63 -41 104t-106 41t-106 -41z" />
    <glyph glyph-name="nine.fitted" horiz-adv-x="530" 
d="M305 125l-78 -130l-17 10l179 305q-55 -35 -124 -35q-95 0 -154 59q-59 61 -59 156q0 96 59 155q58 60 154 60q95 0 154 -60q59 -59 59 -155q0 -32 -6 -61q-3 -16 -31 -73q-6 -12 -32 -57q-40 -66 -43 -72t-61 -102zM404 349q54 54 54 141t-54 141q-53 54 -139 54
t-140 -54q-53 -55 -53 -141t53 -141q54 -54 140 -54q87 0 139 54z" />
    <glyph glyph-name="exclamdown.case" 
d="M87 662q-11 10 -6.5 24t17.5 17.5t25 -6.5q10 -10 5.5 -24t-17 -17.5t-24.5 6.5zM95 0v525h20v-525h-20z" />
    <glyph glyph-name="Uhungarumlaut.smcp" horiz-adv-x="540" 
d="M436 181v323h21v-323q0 -82 -52 -134q-53 -51 -135 -51q-84 0 -136 51q-51 51 -51 134v323h20v-323q0 -74 46 -119.5t120 -45.5q75 0 121 45.5t46 119.5zM201 538l-13 13l82 78l13 -13zM301 538l-13 13l81 78l13 -13z" />
    <glyph glyph-name="Umacron.smcp" horiz-adv-x="540" 
d="M436 181v323h21v-323q0 -82 -52 -134q-53 -51 -135 -51q-84 0 -136 51q-51 51 -51 134v323h20v-323q0 -74 46 -119.5t120 -45.5q75 0 121 45.5t46 119.5zM354 560h-167v18h167v-18z" />
    <glyph glyph-name="Uogonek.smcp" horiz-adv-x="540" 
d="M302 -31q0 -22 13 -34.5t34 -12.5q22 0 34 12l12 -11q-17 -18 -46 -18q-28 0 -45.5 17.5t-17.5 45.5q0 18 6 29q-2 0 -11 -0.5t-11 -0.5q-84 0 -136 51q-51 51 -51 134v323h20v-323q0 -74 46 -119.5t120 -45.5q75 0 121 45.5t46 119.5v323h21v-323q0 -72 -40 -121
t-107 -60q-8 -14 -8 -31z" />
    <glyph glyph-name="Uring.smcp" horiz-adv-x="540" 
d="M436 181v323h21v-323q0 -82 -52 -134q-53 -51 -135 -51q-84 0 -136 51q-51 51 -51 134v323h20v-323q0 -74 46 -119.5t120 -45.5q75 0 121 45.5t46 119.5zM270 658q29 0 46 -16.5t17 -44.5t-17.5 -45t-45.5 -17t-45.5 17t-17.5 45t17.5 44.5t45.5 16.5zM224 597
q0 -28 23 -40t46 0t23 40q2 28 -22 39.5t-48 0t-22 -39.5z" />
    <glyph glyph-name="Utilde.smcp" horiz-adv-x="540" 
d="M436 181v323h21v-323q0 -82 -52 -134q-53 -51 -135 -51q-84 0 -136 51q-51 51 -51 134v323h20v-323q0 -74 46 -119.5t120 -45.5q75 0 121 45.5t46 119.5zM194 558h-17q0 23 15 37.5t38 14.5t42 -19t37 -19q16 0 26 9.5t10 25.5h18q0 -23 -14.5 -37.5t-39.5 -14.5
q-24 0 -43 19t-36 19q-16 0 -26 -9.5t-10 -25.5z" />
    <glyph glyph-name="V.smcp" horiz-adv-x="570" 
d="M505 504h23l-232 -504h-21l-233 504h23l220 -479z" />
    <glyph glyph-name="W.smcp" horiz-adv-x="895" 
d="M830 504h23l-205 -504h-22l-179 473l-178 -473h-22l-205 504h23l193 -476l179 476h21l179 -476z" />
    <glyph glyph-name="Wacute.smcp" horiz-adv-x="895" 
d="M830 504h23l-205 -504h-22l-179 473l-178 -473h-22l-205 504h23l193 -476l179 476h21l179 -476zM428 538l-13 13l82 78l13 -13z" />
    <glyph glyph-name="Wcircumflex.smcp" horiz-adv-x="895" 
d="M830 504h23l-205 -504h-22l-179 473l-178 -473h-22l-205 504h23l193 -476l179 476h21l179 -476zM366 551l81 78l82 -78l-13 -13l-69 66l-68 -66z" />
    <glyph glyph-name="Wdieresis.smcp" horiz-adv-x="895" 
d="M830 504h23l-205 -504h-22l-179 473l-178 -473h-22l-205 504h23l193 -476l179 476h21l179 -476zM359 573q0 8 6 14t15 6q8 0 14 -6t6 -14q0 -9 -6 -15t-14 -6q-9 0 -15 6t-6 15zM495 573q0 8 6 14t14 6q9 0 15 -6t6 -14q0 -9 -6 -15t-15 -6q-8 0 -14 6t-6 15z" />
    <glyph glyph-name="Wgrave.smcp" horiz-adv-x="895" 
d="M830 504h23l-205 -504h-22l-179 473l-178 -473h-22l-205 504h23l193 -476l179 476h21l179 -476zM385 616l13 13l82 -78l-13 -13z" />
    <glyph glyph-name="X.smcp" horiz-adv-x="548" 
d="M502 0h-26l-202 240l-202 -240h-26l214 254l-210 250h26l198 -235l198 235h26l-211 -250z" />
    <glyph glyph-name="Y.smcp" horiz-adv-x="509" 
d="M264 0h-20v230l-202 274h25l187 -253l188 253h25l-203 -274v-230z" />
    <glyph glyph-name="Yacute.smcp" horiz-adv-x="509" 
d="M264 0h-20v230l-202 274h25l187 -253l188 253h25l-203 -274v-230zM235 538l-13 13l82 78l12 -13z" />
    <glyph glyph-name="Ycircumflex.smcp" horiz-adv-x="509" 
d="M264 0h-20v230l-202 274h25l187 -253l188 253h25l-203 -274v-230zM173 551l81 78l82 -78l-13 -13l-69 66l-68 -66z" />
    <glyph glyph-name="Ydieresis.smcp" horiz-adv-x="509" 
d="M264 0h-20v230l-202 274h25l187 -253l188 253h25l-203 -274v-230zM166 573q0 8 6 14t15 6q8 0 14 -6t6 -14q0 -9 -6 -15t-14 -6q-9 0 -15 6t-6 15zM301 573q0 8 6.5 14t14.5 6q9 0 15 -6t6 -14q0 -9 -6 -15t-15 -6q-8 0 -14.5 6t-6.5 15z" />
    <glyph glyph-name="Ygrave.smcp" horiz-adv-x="509" 
d="M264 0h-20v230l-202 274h25l187 -253l188 253h25l-203 -274v-230zM192 616l13 13l81 -78l-12 -13z" />
    <glyph glyph-name="Z.smcp" horiz-adv-x="489" 
d="M404 485h-344v19h371v-15l-350 -470h354v-19h-381v15z" />
    <glyph glyph-name="Zacute.smcp" horiz-adv-x="489" 
d="M404 485h-344v19h371v-15l-350 -470h354v-19h-381v15zM225 538l-13 13l81 78l13 -13z" />
    <glyph glyph-name="Zcaron.smcp" horiz-adv-x="489" 
d="M404 485h-344v19h371v-15l-350 -470h354v-19h-381v15zM325 616l-81 -78l-81 78l12 13l69 -66l69 66z" />
    <glyph glyph-name="Zdotaccent.smcp" horiz-adv-x="489" 
d="M404 485h-344v19h371v-15l-350 -470h354v-19h-381v15zM223 580q0 20 21 20t21 -20q0 -12 -10.5 -17t-21 0t-10.5 17z" />
    <glyph glyph-name="uni018F.smcp" horiz-adv-x="588" 
d="M54 252v9h460q-5 103 -70 164q-64 63 -169 63q-112 0 -176 -67l-14 14q73 73 190 73q116 0 187 -71q72 -70 72 -185t-67 -185q-66 -71 -173 -71q-106 0 -174 71q-66 71 -66 185zM514 242h-439q1 -100 62 -164q62 -62 157 -62q96 0 156 62q61 62 64 164z" />
    <glyph glyph-name="afii10017.smcp" horiz-adv-x="570" 
d="M528 0h-22l-81 175h-280l-80 -175h-23l233 504h21zM417 194l-132 286l-131 -286h263z" />
    <glyph glyph-name="afii10018.smcp" horiz-adv-x="418" 
d="M227 0h-144v504h243v-19h-223v-219h124q62 0 99.5 -36.5t37.5 -96.5q0 -61 -37.5 -97t-99.5 -36zM227 246h-124v-227h124q52 0 84.5 31.5t32.5 82.5t-32 82t-85 31z" />
    <glyph glyph-name="afii10019.smcp" horiz-adv-x="420" 
d="M228 0h-145v504h123q59 0 95 -34.5t36 -92.5q0 -83 -73 -114q47 -10 74.5 -44t27.5 -84q0 -61 -38 -98t-100 -37zM228 250h-125v-231h125q53 0 85.5 32t32.5 84t-32.5 83.5t-85.5 31.5zM206 485h-103v-216h103q50 0 80.5 29.5t30.5 78.5t-30.5 78.5t-80.5 29.5z" />
    <glyph glyph-name="afii10020.smcp" horiz-adv-x="374" 
d="M103 0h-20v504h243v-19h-223v-485z" />
    <glyph glyph-name="afii10021.smcp" horiz-adv-x="523" 
d="M457 -108v108h-391v-108h-20v127q90 0 90 111v374h288v-485h53v-127h-20zM156 485v-355q0 -81 -47 -111h295v466h-248z" />
    <glyph glyph-name="afii10022.smcp" horiz-adv-x="408" 
d="M351 485h-248v-220h222v-19h-222v-227h251v-19h-271v504h268v-19z" />
    <glyph glyph-name="afii10023.smcp" horiz-adv-x="408" 
d="M351 485h-248v-220h222v-19h-222v-227h251v-19h-271v504h268v-19zM130 573q0 8 6 14t15 6q8 0 14 -6t6 -14q0 -9 -6 -15t-14 -6q-9 0 -15 6t-6 15zM266 573q0 8 6 14t14 6q9 0 15 -6t6 -14q0 -9 -6 -15t-15 -6q-8 0 -14 6t-6 15z" />
    <glyph glyph-name="afii10024.smcp" horiz-adv-x="669" 
d="M344 0h-20v504h20v-504zM623 0h-25l-232 258l221 246h24l-220 -246zM81 504l221 -246l-232 -258h-25l232 258l-221 246h25z" />
    <glyph glyph-name="afii10025.smcp" horiz-adv-x="420" 
d="M228 250h-82v19h60q51 0 81 29.5t30 82.5q0 50 -28.5 79t-81.5 29q-73 0 -138 -62l-14 14q68 67 152 67q63 0 97 -34t34 -93q0 -87 -73 -118q46 -10 73.5 -44.5t27.5 -84.5q0 -63 -42 -100.5t-114 -37.5q-93 0 -163 73l14 14q65 -68 148 -68q63 0 100 32.5t37 87.5
q0 52 -32.5 83.5t-85.5 31.5z" />
    <glyph glyph-name="afii10026.smcp" horiz-adv-x="559" 
d="M103 36l355 468h18v-504h-20v468l-355 -468h-18v504h20v-468z" />
    <glyph glyph-name="afii10027.smcp" horiz-adv-x="559" 
d="M280 569q44 0 81 34l13 -13q-40 -39 -94 -39t-95 39l13 13q37 -34 82 -34zM103 36l355 468h18v-504h-20v468l-355 -468h-18v504h20v-468z" />
    <glyph glyph-name="afii10028.smcp" horiz-adv-x="447" 
d="M99 0h-20v504h20v-504zM401 0h-26l-254 258l239 246h26l-239 -246z" />
    <glyph glyph-name="afii10029.smcp" horiz-adv-x="515" 
d="M44 0v14q43 0 67.5 23t24.5 67v400h296v-504h-21v485h-255v-378q0 -50 -24.5 -79.5t-61.5 -29.5q-20 0 -26 2z" />
    <glyph glyph-name="afii10030.smcp" horiz-adv-x="638" 
d="M555 0h-20v460l-207 -332h-18l-207 332v-460h-20v504h17l219 -353l219 353h17v-504z" />
    <glyph glyph-name="afii10031.smcp" horiz-adv-x="545" 
d="M83 504h20v-239h338v239h21v-504h-21v246h-338v-246h-20v504z" />
    <glyph glyph-name="afii10032.smcp" horiz-adv-x="627" 
d="M313 508q115 0 188 -71q72 -70 72 -185q0 -114 -72 -185q-73 -71 -188 -71q-114 0 -187 71q-72 71 -72 185t72 185q73 71 187 71zM313 16q106 0 173 65q66 66 66 171q0 106 -66 170q-66 66 -173 66q-105 0 -173 -66q-66 -64 -66 -170q0 -105 66 -171q68 -65 173 -65z" />
    <glyph glyph-name="afii10033.smcp" horiz-adv-x="529" 
d="M83 0v504h363v-504h-20v485h-323v-485h-20z" />
    <glyph glyph-name="afii10034.smcp" horiz-adv-x="400" 
d="M103 0h-20v504h126q62 0 99.5 -36t37.5 -97q0 -60 -37.5 -96.5t-99.5 -36.5h-106v-238zM209 485h-106v-227h106q53 0 85 31t32 82t-32.5 82.5t-84.5 31.5z" />
    <glyph glyph-name="afii10035.smcp" horiz-adv-x="551" 
d="M314 16q111 0 175 67l15 -14q-73 -73 -191 -73q-114 0 -187 71q-72 71 -72 185t72 185q73 71 187 71q118 0 191 -73l-15 -15q-66 68 -175 68q-106 0 -174 -66q-66 -64 -66 -170q0 -105 66 -171q68 -65 174 -65z" />
    <glyph glyph-name="afii10036.smcp" horiz-adv-x="439" 
d="M394 485h-164v-485h-20v485h-163v19h347v-19z" />
    <glyph glyph-name="afii10037.smcp" horiz-adv-x="478" 
d="M413 504h23l-272 -504h-22l86 158l-186 346h22l175 -323z" />
    <glyph glyph-name="afii10038.smcp" horiz-adv-x="567" 
d="M294 0h-21v50q-97 0 -159 56q-60 55 -60 146q0 90 60 146q62 56 159 56v50h21v-50q97 0 158 -56q61 -55 61 -146t-61 -146q-61 -56 -158 -56v-50zM294 434v-364q88 0 144 50q55 51 55 132q0 82 -55 131q-56 51 -144 51zM273 70v364q-89 0 -144 -51q-55 -49 -55 -131
q0 -81 55 -132q56 -50 144 -50z" />
    <glyph glyph-name="afii10039.smcp" horiz-adv-x="548" 
d="M502 0h-26l-202 240l-202 -240h-26l214 254l-210 250h26l198 -235l198 235h26l-211 -250z" />
    <glyph glyph-name="afii10040.smcp" horiz-adv-x="567" 
d="M501 -108v108h-418v504h20v-485h345v485h21v-485h52v-127h-20z" />
    <glyph glyph-name="afii10041.smcp" horiz-adv-x="457" 
d="M374 504v-504h-20v241q-49 -16 -121 -16t-111 38t-39 110v131h20v-131q0 -62 33 -96t99 -34q71 0 119 17v244h20z" />
    <glyph glyph-name="afii10042.smcp" horiz-adv-x="805" 
d="M722 504v-504h-639v504h20v-485h289v485h20v-485h289v485h21z" />
    <glyph glyph-name="afii10043.smcp" horiz-adv-x="820" 
d="M754 -108v108h-671v504h20v-485h289v485h20v-485h289v485h21v-485h52v-127h-20z" />
    <glyph glyph-name="afii10044.smcp" horiz-adv-x="491" 
d="M167 485h-120v19h140v-238h113q62 0 99.5 -36.5t37.5 -96.5q0 -61 -37.5 -97t-99.5 -36h-133v485zM300 246h-113v-227h113q52 0 84.5 31.5t32.5 82.5t-32 82t-85 31z" />
    <glyph glyph-name="afii10045.smcp" horiz-adv-x="548" 
d="M217 0h-134v504h20v-238h114q61 0 99 -36.5t38 -96.5t-38 -96.5t-99 -36.5zM217 246h-114v-227h114q52 0 84 31.5t32 82.5t-32 82t-84 31zM465 0h-20v504h20v-504z" />
    <glyph glyph-name="afii10046.smcp" horiz-adv-x="408" 
d="M217 0h-134v504h20v-238h114q61 0 99 -36.5t38 -96.5t-38 -96.5t-99 -36.5zM217 246h-114v-227h114q52 0 84 31.5t32 82.5t-32 82t-84 31z" />
    <glyph glyph-name="afii10047.smcp" horiz-adv-x="551" 
d="M61 420l-14 15q73 73 190 73q115 0 188 -71q72 -70 72 -185q0 -114 -72 -185q-73 -71 -188 -71q-117 0 -190 73l14 14q64 -67 176 -67q105 0 171 63q67 65 68 167h-296v19h296q-4 100 -70 161q-67 62 -169 62q-110 0 -176 -68z" />
    <glyph glyph-name="afii10048.smcp" horiz-adv-x="792" 
d="M83 504h20v-239h169q5 108 67 175q65 68 165 68q104 0 169 -71t65 -185t-65 -185t-169 -71q-102 0 -167 69q-64 70 -65 181h-169v-246h-20v504zM504 16q95 0 154 65q60 66 60 171q0 106 -60 170q-58 66 -154 66q-94 0 -153 -66q-59 -65 -59 -170q0 -104 59 -171
q59 -65 153 -65z" />
    <glyph glyph-name="afii10049.smcp" horiz-adv-x="422" 
d="M191 504h148v-504h-20v238h-107l-139 -238h-24l141 238q-61 0 -98.5 36.5t-37.5 96.5q0 61 37.5 97t99.5 36zM191 258h128v227h-128q-52 0 -84.5 -31.5t-32.5 -82.5t32 -82t85 -31z" />
    <glyph glyph-name="afii10050.smcp" horiz-adv-x="374" 
d="M318 485h-215v-485h-20v504h216v90h19v-109z" />
    <glyph glyph-name="afii10051.smcp" horiz-adv-x="549" 
d="M397 0v14q50 0 50 45v120q0 48 -30.5 78t-78.5 30q-67 0 -108 -40v-247h-20v485h-163v19h347v-19h-164v-214q46 36 109 36q57 0 92.5 -35.5t35.5 -92.5v-120q0 -29 -15.5 -45t-38.5 -16q-14 0 -16 2z" />
    <glyph glyph-name="afii10052.smcp" horiz-adv-x="374" 
d="M182 538l-12 13l81 78l13 -13zM103 0h-20v504h243v-19h-223v-485z" />
    <glyph glyph-name="afii10053.smcp" horiz-adv-x="551" 
d="M314 488q-102 0 -169 -62q-66 -61 -70 -161h350v-19h-350q1 -103 67 -167q66 -63 172 -63q111 0 175 67l15 -14q-73 -73 -191 -73q-114 0 -187 71q-72 71 -72 185t72 185q73 71 187 71q118 0 191 -73l-15 -15q-66 68 -175 68z" />
    <glyph glyph-name="afii10054.smcp" horiz-adv-x="399" 
d="M326 456l-14 -15q-44 47 -123 47q-55 0 -84.5 -30.5t-29.5 -74.5q0 -69 94 -105q6 -2 29.5 -10.5t31.5 -11.5t28 -12t28.5 -15.5t22 -17.5t19.5 -21.5t11 -25t5 -31.5q0 -53 -38 -96q-38 -41 -113 -41q-96 0 -148 58l14 14q45 -52 133 -52q68 0 99 36q33 38 33 81
q0 67 -96 101q-94 33 -127 58q-48 36 -47 91q0 54 35 89.5t100 35.5q86 0 137 -52z" />
    <glyph glyph-name="afii10055.smcp" horiz-adv-x="178" 
d="M99 0h-20v504h20v-504z" />
    <glyph glyph-name="afii10056.smcp" horiz-adv-x="178" 
d="M99 0h-20v504h20v-504zM15 573q0 8 6 14t15 6q8 0 14.5 -6t6.5 -14q0 -9 -6.5 -15t-14.5 -6q-9 0 -15 6t-6 15zM122 573q0 8 6 14t14 6q9 0 15 -6t6 -14q0 -9 -6 -15t-15 -6q-8 0 -14 6t-6 15z" />
    <glyph glyph-name="afii10057.smcp" horiz-adv-x="362" 
d="M263 131v373h20v-373q0 -60 -38 -97.5t-99 -37.5q-60 0 -99 39l14 14q31 -33 85 -33q52 0 84.5 31.5t32.5 83.5z" />
    <glyph glyph-name="afii10058.smcp" horiz-adv-x="721" 
d="M530 0h-133v485h-241v-378q0 -50 -24.5 -79.5t-61.5 -29.5q-20 0 -26 2v14q43 0 67.5 23t24.5 67v400h281v-238h113q62 0 99.5 -36.5t37.5 -96.5q0 -61 -37.5 -97t-99.5 -36zM530 246h-113v-227h113q52 0 84.5 31.5t32.5 82.5t-32 82t-85 31z" />
    <glyph glyph-name="afii10059.smcp" horiz-adv-x="715" 
d="M83 504h20v-238h287v238h21v-238h113q61 0 99 -36.5t38 -96.5t-38 -96.5t-99 -36.5h-134v246h-287v-246h-20v504zM524 246h-113v-227h113q52 0 84.5 31.5t32.5 82.5t-32 82t-85 31z" />
    <glyph glyph-name="afii10060.smcp" horiz-adv-x="549" 
d="M394 485h-164v-214q46 36 109 36q57 0 92.5 -35.5t35.5 -92.5v-179h-20v179q0 48 -30.5 78t-78.5 30q-67 0 -108 -40v-247h-20v485h-163v19h347v-19z" />
    <glyph glyph-name="afii10061.smcp" horiz-adv-x="447" 
d="M99 0h-20v504h20v-504zM401 0h-26l-254 258l239 246h26l-239 -246zM203 538l-12 13l81 78l13 -13z" />
    <glyph glyph-name="afii10062.smcp" horiz-adv-x="478" 
d="M320 603l13 -13q-41 -39 -94 -39q-55 0 -95 39l14 13q36 -34 81 -34t81 34zM413 504h23l-272 -504h-22l86 158l-186 346h22l175 -323z" />
    <glyph glyph-name="afii10145.smcp" horiz-adv-x="552" 
d="M266 -108v108h-183v504h20v-485h345v485h21v-504h-183v-108h-20z" />
    <glyph glyph-name="uni040D.smcp" horiz-adv-x="559" 
d="M218 616l12 13l82 -78l-13 -13zM103 36l355 468h18v-504h-20v468l-355 -468h-18v504h20v-468z" />
    <glyph glyph-name="uni0400.smcp" horiz-adv-x="408" 
d="M351 485h-248v-220h222v-19h-222v-227h251v-19h-271v504h268v-19zM157 616l12 13l82 -78l-13 -13z" />
    <glyph glyph-name="uni04D8.smcp" horiz-adv-x="588" 
d="M54 252v9h460q-5 103 -70 164q-64 63 -169 63q-112 0 -176 -67l-14 14q73 73 190 73q116 0 187 -71q72 -70 72 -185t-67 -185q-66 -71 -173 -71q-106 0 -174 71q-66 71 -66 185zM514 242h-439q1 -100 62 -164q62 -62 157 -62q96 0 156 62q61 62 64 164z" />
    <glyph glyph-name="afii10056_afii10056.smcp" horiz-adv-x="357" 
d="M99 0h-20v504h20v-504zM15 573q0 8 6 14t15 6q8 0 14.5 -6t6.5 -14q0 -9 -6.5 -15t-14.5 -6q-9 0 -15 6t-6 15zM278 0h-20v504h20v-504zM300 573q0 19 21 19t21 -19q0 -20 -21 -20t-21 20zM157 573q0 8 6 14t15 6q8 0 14.5 -6t6.5 -14q0 -9 -6.5 -15t-14.5 -6q-9 0 -15 6
t-6 15z" />
    <glyph glyph-name="afii10021.alt.smcp" horiz-adv-x="649" 
d="M583 -108v108h-517v-108h-20v127h47l221 485h21l220 -485h48v-127h-20zM532 19l-208 461l-207 -461h415z" />
    <glyph glyph-name="afii10029.alt.smcp" horiz-adv-x="570" 
d="M65 0h-23l233 504h21l232 -504h-23l-220 479z" />
    <glyph glyph-name="afii10058.alt.smcp" horiz-adv-x="753" 
d="M65 0h-23l233 504h21l110 -238h156q62 0 99.5 -36.5t37.5 -96.5q0 -61 -37.5 -97t-99.5 -36h-57l-220 479zM562 246h-148l106 -227h42q52 0 84.5 31.5t32.5 82.5t-32 82t-85 31z" />
    <glyph glyph-name="Aringacute.smcp" horiz-adv-x="570" 
d="M278 619l-6 6l81 79l13 -13l-76 -72q26 -2 42 -18.5t16 -42.5q0 -24 -13.5 -40.5t-35.5 -20.5l229 -497h-22l-81 175h-280l-80 -175h-23l229 497q-49 8 -49 61q0 26 15.5 42.5t40.5 18.5zM417 194l-132 286l-131 -286h263zM239 558q0 -28 23 -40t46 0t23 40
q2 28 -22 39.5t-48 0t-22 -39.5z" />
    <glyph glyph-name="germandbls.smcp" horiz-adv-x="459" 
d="M99 388v-388h-20v388q0 53 35.5 86.5t92.5 33.5q58 0 93.5 -33.5t35.5 -86.5q0 -48 -30 -80t-79 -37q0 -11 2 -20.5t7 -18t8.5 -14.5t13.5 -13t14 -10.5t17 -9.5t16.5 -7.5t18 -7.5t16.5 -7q62 -27 62 -85q0 -34 -27 -58t-76 -24q-64 0 -99 38l14 13q29 -32 85 -32
q40 0 61.5 19t21.5 45t-18 43.5t-44 28.5t-51.5 23.5t-43.5 37t-18 59.5v19q48 0 78 27t30 72q0 44 -30 72t-78 28t-78 -28.5t-30 -72.5z" />
    <glyph glyph-name="at.smcp" horiz-adv-x="617" 
d="M500 83l12 -11q-73 -76 -201 -76q-116 0 -189 71q-72 71 -72 185t72 185q73 71 187 71q117 0 188 -68q70 -67 70 -167q0 -70 -34 -107t-83 -37q-48 0 -60 25q-31 -25 -78 -25q-55 0 -89.5 34t-34.5 89t34 89t90 34q59 0 94 -31v-175q0 -22 45 -22q42 0 70 31.5t28 93.5
q0 94 -64 155q-63 63 -174 63q-109 0 -176 -66q-66 -64 -66 -172q0 -107 66 -173q68 -65 177 -65q120 0 188 69zM206 252q0 -49 29 -77t79 -28q44 0 73 24v166q-32 20 -75 20q-49 0 -77.5 -28.5t-28.5 -76.5z" />
    <glyph glyph-name="parenleft.smcp" horiz-adv-x="248" 
d="M187 544v-18q-41 0 -70 -78t-29 -197q0 -118 29 -196q29 -77 70 -77v-18q-51 0 -85 82q-34 81 -34 210t34 210q34 82 85 82z" />
    <glyph glyph-name="parenright.smcp" horiz-adv-x="248" 
d="M61 526v18q50 0 84 -82q35 -84 35 -210t-35 -210q-34 -82 -84 -82v18q41 0 70 77q29 78 29 197t-29 197q-29 77 -70 77z" />
    <glyph glyph-name="bracketleft.smcp" horiz-adv-x="242" 
d="M79 540h102v-18h-82v-540h82v-18h-102v576z" />
    <glyph glyph-name="bracketright.smcp" horiz-adv-x="242" 
d="M143 522h-82v18h102v-576h-102v18h82v540z" />
    <glyph glyph-name="braceleft.smcp" horiz-adv-x="267" 
d="M220 -22v-18q-40 0 -68.5 34t-28.5 85v59q0 45 -22 75t-54 30v18q32 0 54 30t22 75v59q0 51 28.5 85t68.5 34v-18q-32 0 -54 -29.5t-22 -74.5v-59q0 -41 -17.5 -70.5t-47.5 -40.5q30 -12 47.5 -42t17.5 -69v-59q0 -45 22 -74.5t54 -29.5z" />
    <glyph glyph-name="braceright.smcp" horiz-adv-x="267" 
d="M47 -40v18q32 0 54 29.5t22 74.5v59q0 39 17.5 69t47.5 42q-30 11 -47.5 40.5t-17.5 70.5v59q0 45 -22 74.5t-54 29.5v18q41 0 69 -34t28 -85v-59q0 -45 22 -75t54 -30v-18q-32 0 -54 -30t-22 -75v-59q0 -51 -28 -85t-69 -34z" />
    <glyph glyph-name="exclamdown.smcp" horiz-adv-x="178" 
d="M68 487q0 20 21 20t21 -20q0 -19 -21 -19t-21 19zM79 0v376h20v-376h-20z" />
    <glyph glyph-name="questiondown.smcp" horiz-adv-x="367" 
d="M306 62l15 -14q-51 -52 -136 -52q-66 0 -100.5 35.5t-34.5 89.5q0 31 12.5 53t30 35.5t35 28t30 39t12.5 59.5v40h20v-40q0 -44 -17.5 -76t-42.5 -46q-60 -35 -60 -92q0 -46 29.5 -76.5t84.5 -30.5q78 0 122 47zM201 487q0 -8 -6 -14t-15 -6q-8 0 -14.5 6t-6.5 14
q0 9 6.5 15t14.5 6q9 0 15 -6t6 -15z" />
    <glyph glyph-name="bar.smcp" horiz-adv-x="178" 
d="M99 -36h-20v576h20v-576z" />
    <glyph glyph-name="brokenbar.smcp" horiz-adv-x="178" 
d="M99 -36h-20v252h20v-252zM79 540h20v-252h-20v252z" />
    <glyph glyph-name="dagger.smcp" horiz-adv-x="395" 
d="M187 361h-119v18h119v161h20v-161h120v-18h-120v-397h-20v397z" />
    <glyph glyph-name="daggerdbl.smcp" horiz-adv-x="395" 
d="M187 145h-119v18h119v198h-119v18h119v161h20v-161h120v-18h-120v-198h120v-18h-120v-181h-20v181z" />
    <glyph glyph-name="zero.smcp" horiz-adv-x="447" 
d="M223 508q76 0 123 -71t47 -185t-47 -185t-123 -71q-75 0 -122 71t-47 185t47 185t122 71zM223 15q67 0 108 65q42 66 42 172t-42 171q-41 66 -108 66q-66 0 -108 -66q-41 -65 -41 -171q0 -105 41 -172q42 -65 108 -65z" />
    <glyph glyph-name="one.smcp" horiz-adv-x="236" 
d="M118 484l-82 -17v19l102 20v-506h-20v484z" />
    <glyph glyph-name="two.smcp" horiz-adv-x="403" 
d="M58 0v24l233 224q38 36 38 106q0 59 -36 97t-94 38q-57 0 -93 -38t-36 -97h-20q0 69 41.5 111.5t107.5 42.5q67 0 108.5 -42.5t41.5 -111.5q0 -80 -43 -120l-225 -215h268v-19h-291z" />
    <glyph glyph-name="three.smcp" horiz-adv-x="414" 
d="M205 267h-34v19h34q48 0 76 28q30 28 30 73t-30 73q-29 29 -76 29t-76.5 -28.5t-29.5 -73.5h-20q0 54 35 87.5t91 33.5t91 -33.5t35 -87.5q0 -39 -20.5 -68t-55.5 -42q48 -12 76.5 -48.5t28.5 -87.5q0 -65 -43 -105t-112 -40t-112 40t-43 105h20q0 -57 37 -91
q38 -35 98 -35q59 0 97 35t38 91t-37.5 91t-97.5 35z" />
    <glyph glyph-name="four.smcp" horiz-adv-x="418" 
d="M312 0h-20v106h-245v17l242 381h23v-379h51v-19h-51v-106zM292 471l-221 -346h221v346z" />
    <glyph glyph-name="five.smcp" horiz-adv-x="403" 
d="M349 150q0 -69 -41.5 -111.5t-108.5 -42.5q-66 0 -107.5 39t-41.5 101h20q0 -53 36 -87t93 -34q58 0 94 38t36 97q0 66 -39.5 106.5t-103.5 40.5q-65 0 -106 -35l-14 11l36 231h210v-19h-192l-32 -194q37 25 99 25q73 0 117.5 -46t44.5 -120z" />
    <glyph glyph-name="six.smcp" horiz-adv-x="417" 
d="M179 418l56 90l17 -10l-131 -215q37 24 88 24q71 0 114.5 -43t43.5 -113q0 -69 -44 -112t-115 -43t-114.5 43t-43.5 113q0 25 5 47q3 17 24 56l24 41l31 51zM70 151q0 -60 38.5 -98t99.5 -38q62 0 100.5 38t38.5 98q0 61 -38.5 99t-100.5 38q-61 0 -99.5 -38t-38.5 -99z
" />
    <glyph glyph-name="seven.smcp" horiz-adv-x="402" 
d="M324 485h-270v19h294v-15l-204 -489h-23z" />
    <glyph glyph-name="eight.smcp" horiz-adv-x="418" 
d="M83 387q0 54 35 87.5t91 33.5t91 -33.5t35 -87.5q0 -39 -20.5 -68t-55.5 -42q48 -12 76.5 -48.5t28.5 -87.5q0 -65 -43 -105t-112 -40t-112 40t-43 105q0 51 28.5 87.5t76.5 48.5q-36 13 -56 42t-20 68zM111 232q-37 -34 -37 -91t37 -91q38 -35 98 -35q59 0 97 35t38 91
t-38 91t-97 35q-60 0 -98 -35zM132 460q-29 -29 -29 -73t29 -73q29 -28 77 -28t76 28q30 28 30 73t-30 73q-29 29 -76 29q-46 0 -77 -29z" />
    <glyph glyph-name="nine.smcp" horiz-adv-x="417" 
d="M238 86l-56 -90l-18 10l132 215q-38 -24 -88 -24q-71 0 -114.5 43t-43.5 113q0 69 44 112t114 43q71 0 115 -43t44 -113q0 -23 -5 -48q-4 -17 -24 -55q-15 -29 -56 -92zM347 353q0 60 -38.5 98t-100.5 38q-61 0 -99.5 -38t-38.5 -98q0 -61 38.5 -99t99.5 -38
q62 0 100.5 38t38.5 99z" />
    <glyph glyph-name="dollar.smcp" horiz-adv-x="399" 
d="M204 -72h-17v68q-93 3 -142 58l14 14q44 -51 128 -52v233q-59 23 -91 45q-42 32 -42 89q0 54 34 89t99 36v68h17v-69q75 -4 122 -51l-14 -15q-40 42 -108 46v-222q48 -17 78 -35q31 -17 45.5 -39t16.5 -58q0 -52 -35 -93t-105 -44v-68zM324 133q0 46 -38 70
q-24 17 -82 40v-227q57 4 88.5 38t31.5 79zM75 383q0 -40 26.5 -64t85.5 -47v216q-54 -1 -83 -31t-29 -74z" />
    <glyph glyph-name="Euro.smcp" horiz-adv-x="588" 
d="M94 294h-47v17h51q16 90 85 143q67 54 168 54q117 0 190 -73l-14 -15q-66 68 -175 68q-90 0 -153 -48t-81 -129h234v-17h-237q-3 -21 -3 -42q0 -22 3 -42h237v-17h-234q18 -82 80.5 -129.5t153.5 -47.5q111 0 175 67l14 -14q-73 -73 -190 -73q-100 0 -168 53
q-69 55 -85 144h-51v17h47q-2 18 -2 42t2 42z" />
    <glyph glyph-name="sterling.smcp" horiz-adv-x="398" 
d="M105 243h-59v18h59v112q0 60 37.5 97.5t98.5 37.5t99 -39l-13 -14q-33 33 -86 33q-52 0 -84 -31.5t-32 -83.5v-112h146v-18h-146v-176q28 -2 74 -27t75 -25q23 0 37 13.5t14 35.5h19q0 -31 -19 -49.5t-50 -18.5q-33 0 -83 26q-50 27 -77 27q-23 0 -36.5 -13.5
t-13.5 -35.5h-19q0 28 16 46t43 21v176z" />
    <glyph glyph-name="yen.smcp" horiz-adv-x="509" 
d="M244 171h-118v17h118v42l-202 274h25l187 -253l188 253h25l-203 -274v-42h119v-17h-119v-77h119v-17h-119v-77h-20v77h-118v17h118v77z" />
    <glyph glyph-name="uni20B4.smcp" horiz-adv-x="332" 
d="M189 287h-139v17h156l14 13q22 19 30.5 35t11.5 45q0 40 -28.5 66t-72.5 26q-59 0 -97 -42l-14 14q42 47 111 47q54 0 87.5 -30.5t33.5 -79.5q0 -50 -47 -93l-1 -1h48v-17h-66l-73 -70h139v-17h-157l-13 -13q-22 -20 -31 -35.5t-11 -44.5q0 -40 28.5 -66t72.5 -26
q59 0 97 42l14 -14q-41 -47 -111 -47q-54 0 -87.5 30.5t-33.5 79.5q0 28 10.5 47.5t37.5 45.5l1 1h-49v17h66z" />
    <glyph glyph-name="numbersign.smcp" horiz-adv-x="460" 
d="M282 0h-21l25 141h-153l-25 -141h-20l24 141h-65v19h69l32 184h-69v19h73l25 141h20l-25 -141h154l25 141h20l-25 -141h67v-19h-70l-33 -184h72v-19h-75zM322 344h-153l-33 -184h154z" />
    <glyph glyph-name="zero.fitted.smcp" horiz-adv-x="417" 
d="M209 508q72 0 119 -71q46 -70 46 -185t-46 -185q-47 -71 -119 -71q-73 0 -120 71q-46 70 -46 185t46 185q47 71 120 71zM103 423q-40 -64 -40 -171t40 -172q41 -65 106 -65q64 0 105 65q40 65 40 172t-40 171q-40 66 -105 66t-106 -66z" />
    <glyph glyph-name="one.fitted.smcp" horiz-adv-x="417" 
d="M311 0h-201v18h91v466l-96 -17v19l116 20v-488h90v-18z" />
    <glyph glyph-name="two.fitted.smcp" horiz-adv-x="418" 
d="M64 0v24l236 224q38 36 38 106q0 59 -36.5 97t-94.5 38t-94.5 -38t-36.5 -97h-20q0 69 41.5 111.5t109.5 42.5t109.5 -42.5t41.5 -111.5q0 -78 -44 -120l-227 -215h271v-19h-294z" />
    <glyph glyph-name="three.fitted.smcp" horiz-adv-x="418" 
d="M207 267h-34v19h34q48 0 77 28q30 28 30 73t-30 73q-31 29 -77 29q-47 0 -76.5 -28.5t-29.5 -73.5h-20q0 54 35 87.5t91 33.5q57 0 92 -33.5t35 -87.5q0 -39 -20.5 -68t-55.5 -42q48 -12 76.5 -48.5t28.5 -87.5q0 -65 -43 -105t-113 -40q-69 0 -112 40t-43 105h20
q0 -56 37.5 -91t97.5 -35q61 0 98.5 35t37.5 91t-37.5 91t-98.5 35z" />
    <glyph glyph-name="four.fitted.smcp" horiz-adv-x="417" 
d="M313 0h-20v106h-246v17l243 381h22v-379h51v-19h-50v-106zM293 471l-222 -346h222v346z" />
    <glyph glyph-name="five.fitted.smcp" horiz-adv-x="418" 
d="M358 150q0 -69 -41.5 -111.5t-109.5 -42.5q-67 0 -109 39t-42 101h20q0 -53 36.5 -87t94.5 -34t94.5 38t36.5 97q0 66 -40 106.5t-104 40.5q-67 0 -108 -35l-14 11l36 231h213v-19h-195l-32 -194q37 25 100 25q73 0 118 -46q46 -46 46 -120z" />
    <glyph glyph-name="six.fitted.smcp" horiz-adv-x="418" 
d="M236 508l17 -10l-133 -215q38 24 89 24q71 0 115.5 -43t44.5 -113q0 -69 -44.5 -112t-115.5 -43t-115.5 43t-44.5 113q0 25 5 47q2 9 24 56l24 41l32 51l45 71q31 48 57 90zM69 151q0 -60 39 -98t101 -38t101 38t39 98q0 61 -39 99t-101 38t-101 -38t-39 -99z" />
    <glyph glyph-name="seven.fitted.smcp" horiz-adv-x="417" 
d="M333 485h-273v19h297v-15l-207 -489h-22z" />
    <glyph glyph-name="eight.fitted.smcp" horiz-adv-x="418" 
d="M82 387q0 54 35.5 87.5t91.5 33.5q57 0 92.5 -33.5t35.5 -87.5q0 -39 -20.5 -68t-56.5 -42q49 -12 77.5 -48.5t28.5 -87.5q0 -65 -43.5 -105t-113.5 -40t-113.5 40.5t-43.5 104.5q0 51 29 87.5t78 48.5q-36 13 -56.5 42t-20.5 68zM110 232q-38 -35 -38 -91t38 -91t99 -35
t99 35t38 91t-38 91t-99 35t-99 -35zM209 286q48 0 77.5 28t29.5 73t-29.5 73.5t-77.5 28.5q-47 0 -77 -28.5t-30 -73.5t30 -73t77 -28z" />
    <glyph glyph-name="nine.fitted.smcp" horiz-adv-x="417" 
d="M237 86l-56 -90l-17 10l133 215q-37 -24 -89 -24q-71 0 -115.5 43t-44.5 113q0 69 44.5 112t116.5 43q71 0 115.5 -43t44.5 -113q0 -23 -5 -48q-3 -14 -25 -55q-5 -10 -24 -41l-33 -51q-17 -28 -45 -71zM349 353q0 60 -39 98t-102 38q-62 0 -101 -38t-39 -98
q0 -61 39 -99t101 -38q63 0 102 38t39 99z" />
    <glyph glyph-name="exclam.smcp" horiz-adv-x="178" 
d="M68 17q0 19 21 19t21 -19q0 -20 -21 -20t-21 20zM99 128h-20v376h20v-376z" />
    <glyph glyph-name="ampersand.smcp" horiz-adv-x="484" 
d="M344 267h-73v19h166v-19h-73v-126q0 -65 -43 -105t-112 -40t-112 40t-43 105q0 51 28.5 87.5t76.5 48.5q-35 13 -55.5 42t-20.5 68q0 54 35 87.5t91 33.5t91 -33.5t35 -87.5h-20q0 45 -30 73q-29 29 -76 29q-46 0 -77 -29q-29 -29 -29 -73q0 -45 29.5 -73t76.5 -28h23
v-19h-23q-60 0 -98 -35q-37 -34 -37 -91t37 -91q38 -35 98 -35t97.5 35t37.5 91v126z" />
    <glyph glyph-name="slash.smcp" horiz-adv-x="419" 
d="M85 -36h-21l270 576h21z" />
    <glyph glyph-name="backslash.smcp" horiz-adv-x="419" 
d="M64 540h21l270 -576h-21z" />
    <glyph glyph-name="question.smcp" horiz-adv-x="367" 
d="M60 442l-14 14q51 52 136 52q65 0 100 -35.5t35 -89.5q0 -31 -12.5 -53t-30.5 -35.5t-35.5 -28t-30 -39t-12.5 -59.5v-40h-20v40q0 44 17.5 76t42.5 46q60 35 60 92q0 46 -29.5 76.5t-83.5 30.5q-79 0 -123 -47zM165 17q0 8 6.5 14t14.5 6q9 0 15 -6t6 -14q0 -9 -6 -15
t-15 -6q-8 0 -14.5 6t-6.5 15z" />
    <glyph glyph-name="percent.smcp" horiz-adv-x="624" 
d="M189 0h-22l269 504h22zM78 313q-31 31 -31 82q0 50 31 81q32 32 83 32t83 -32t32 -81q0 -50 -32 -82q-31 -31 -83 -31t-83 31zM161 300q43 0 69 26.5t26 68.5t-26 68.5t-69 26.5q-42 0 -68.5 -26.5t-26.5 -68.5t26.5 -68.5t68.5 -26.5zM380 27q-32 32 -32 82q0 49 32 81
t83 32q50 0 82 -32t32 -81q0 -50 -32 -82q-31 -31 -82 -31q-52 0 -83 31zM394 177q-26 -26 -26 -68q0 -41 26 -69q28 -26 69 -26q42 0 68 26q27 27 27 69q0 43 -27 68q-25 27 -68 27q-42 0 -69 -27z" />
    <glyph glyph-name="perthousand.smcp" horiz-adv-x="907" 
d="M189 0h-22l269 504h22zM78 313q-31 31 -31 82q0 50 31 81q32 32 83 32t83 -32t32 -81q0 -50 -32 -82q-31 -31 -83 -31t-83 31zM161 300q43 0 69 26.5t26 68.5t-26 68.5t-69 26.5q-42 0 -68.5 -26.5t-26.5 -68.5t26.5 -68.5t68.5 -26.5zM380 27q-32 32 -32 82q0 49 32 81
t83 32q50 0 82 -32t32 -81q0 -50 -32 -82q-31 -31 -82 -31q-52 0 -83 31zM394 177q-26 -26 -26 -68q0 -41 26 -69q28 -26 69 -26q42 0 68 26q27 27 27 69q0 43 -27 68q-25 27 -68 27q-42 0 -69 -27zM746 222q50 0 82 -31.5t32 -81.5t-32 -81.5t-82 -31.5q-51 0 -83 31.5
t-32 81.5t32 81.5t83 31.5zM746 14q42 0 68.5 26.5t26.5 68.5t-26.5 68.5t-68.5 26.5q-43 0 -69 -26.5t-26 -68.5t26 -68.5t69 -26.5z" />
    <glyph glyph-name="section.smcp" horiz-adv-x="332" 
d="M108 310l159 -150l-15 -14l-158 151q-44 41 -44 101q0 49 33.5 79.5t87.5 30.5q70 0 111 -47l-13 -14q-39 42 -98 42q-44 0 -72 -25.5t-28 -66.5q0 -53 37 -87zM224 13l-158 152l14 13l158 -151q44 -41 44 -101q0 -49 -33.5 -79.5t-87.5 -30.5q-70 0 -111 47l14 14
q38 -42 97 -42q44 0 72.5 26t28.5 66q0 50 -38 86z" />
    <glyph glyph-name="paragraph.smcp" horiz-adv-x="405" 
d="M195 504h52v-504h-20v239h-32q-61 0 -99 36.5t-38 95.5q0 61 37.5 97t99.5 36zM326 0h-19v504h19v-504z" />
    <glyph glyph-name="quoteright_afii10056.smcp" horiz-adv-x="229" 
d="M150 0h-20v504h20v-504zM173 573q0 8 6 14t14 6q9 0 15 -6t6 -14q0 -9 -6 -15t-15 -6q-8 0 -14 6t-6 15zM14 542l-13 13q36 36 36 60q-11 0 -18.5 7.5t-7.5 17.5q0 11 7.5 18t18.5 7q24 0 24 -33q0 -43 -47 -90z" />
    <glyph glyph-name="zero.sub" horiz-adv-x="304" 
d="M69 -4q-31 49 -31 129t31 129t83 49q51 0 82 -49q32 -50 32 -129t-32 -129q-31 -49 -82 -49q-52 0 -83 49zM152 -34q41 0 67 44t26 115t-26 115t-67 44q-42 0 -68 -44t-26 -115t26 -115t68 -44z" />
    <glyph glyph-name="one.sub" horiz-adv-x="168" 
d="M82 281l-55 -11v17l75 15v-352h-20v331z" />
    <glyph glyph-name="two.sub" horiz-adv-x="276" 
d="M40 -50v21l154 154q24 24 24 70q0 40 -22.5 64.5t-58.5 24.5q-37 0 -59.5 -24.5t-22.5 -64.5h-20q0 48 28 78t74 30q45 0 73 -30t28 -78q0 -53 -30 -83l-143 -144h173v-18h-198z" />
    <glyph glyph-name="three.sub" horiz-adv-x="284" 
d="M141 133h-23v18h23q30 0 48.5 18.5t18.5 48.5q0 29 -18.5 47.5t-48.5 18.5q-29 0 -47.5 -18.5t-18.5 -47.5h-21q0 37 24.5 61t62.5 24q39 0 63 -23.5t24 -61.5q0 -56 -48 -76q30 -9 48 -33.5t18 -59.5q0 -46 -29 -74t-76 -28t-76 28t-29 74h20q0 -37 23.5 -60t61.5 -23
t61.5 23t23.5 60q0 38 -23.5 61t-61.5 23z" />
    <glyph glyph-name="four.sub" horiz-adv-x="287" 
d="M215 -50h-20v72h-162v13l160 265h22v-260h33v-18h-33v-72zM196 268l-138 -228h138v228z" />
    <glyph glyph-name="five.sub" horiz-adv-x="276" 
d="M238 55q0 -48 -28 -78t-73 -30q-46 0 -74 27.5t-28 71.5h20q0 -36 22.5 -58t59.5 -22q36 0 58.5 24.5t22.5 64.5q0 43 -25 70t-65 27q-41 0 -67 -23l-15 8l24 163h143v-18h-126l-19 -127q22 16 61 16q49 0 79 -32t30 -84z" />
    <glyph glyph-name="six.sub" horiz-adv-x="286" 
d="M101 208l59 95l17 -10l-87 -144q23 14 53 14q47 0 77 -29.5t30 -78.5q0 -48 -29.5 -78t-77.5 -30t-77.5 30t-29.5 79q0 35 16 69q11 20 28 49zM80 120q-24 -26 -24 -65q0 -40 24 -64q25 -25 63 -25t62 25q24 24 24 64q0 39 -24 65q-24 25 -62 25t-63 -25z" />
    <glyph glyph-name="seven.sub" horiz-adv-x="276" 
d="M213 282h-175v18h200v-11l-133 -339h-22z" />
    <glyph glyph-name="eight.sub" horiz-adv-x="286" 
d="M56 218q0 37 24.5 61t62.5 24q39 0 63 -23.5t24 -61.5q0 -56 -48 -76q30 -9 48 -33.5t18 -59.5q0 -46 -29 -74t-76 -28t-76 28t-29 74q0 35 18 59.5t49 33.5q-49 19 -49 76zM81 109q-23 -23 -23 -60t23 -60q25 -23 62 -23q38 0 61 23q24 23 24 60t-24 60q-23 23 -61 23
q-37 0 -62 -23zM77 218q0 -30 18.5 -48.5t47.5 -18.5q30 0 48.5 18.5t18.5 48.5q0 29 -18.5 47.5t-48.5 18.5q-29 0 -47.5 -18.5t-18.5 -47.5z" />
    <glyph glyph-name="nine.sub" horiz-adv-x="286" 
d="M126 -53l-17 10l87 144q-23 -14 -53 -14q-48 0 -77.5 29.5t-29.5 78.5q0 48 29.5 78t77.5 30t77.5 -30t29.5 -79q0 -36 -22 -79q-26 -44 -38 -63l-29 -47q-6 -9 -17.5 -29t-17.5 -29zM205 130q24 26 24 65q0 40 -24 64q-24 25 -62 25t-63 -25q-24 -24 -24 -64
q0 -39 24 -65q25 -25 63 -25t62 25z" />
    <glyph glyph-name="comma.sub" horiz-adv-x="126" 
d="M51 -94l-9 9q18 18 20 32q-16 1 -16 17q0 17 18 17q16 0 16 -21q0 -25 -29 -54z" />
    <glyph glyph-name="period.sub" horiz-adv-x="126" 
d="M63 -19q17 0 17 -17q0 -11 -10.5 -15.5t-18.5 3.5t-3.5 18.5t15.5 10.5z" />
    <glyph glyph-name="parenleft.sub" horiz-adv-x="170" 
d="M129 328v-17q-27 0 -45 -53t-18 -133q0 -81 18 -134q20 -53 45 -53v-16q-35 0 -59 57t-24 146t24 146t59 57z" />
    <glyph glyph-name="parenright.sub" horiz-adv-x="170" 
d="M41 311v17q36 0 59.5 -56.5t23.5 -146.5t-23.5 -146.5t-59.5 -56.5v17q27 0 45 53t18 133t-18 133t-45 53z" />
    <glyph glyph-name="hyphen.sub" horiz-adv-x="189" 
d="M143 116h-97v18h97v-18z" />
    <glyph glyph-name="zero.sup" horiz-adv-x="304" 
d="M69 396q-31 49 -31 129t31 129t83 49q51 0 82 -49q32 -50 32 -129t-32 -129q-31 -49 -82 -49q-52 0 -83 49zM152 366q41 0 67 44t26 115t-26 115t-67 44q-42 0 -68 -44t-26 -115t26 -115t68 -44z" />
    <glyph glyph-name="one.sup" horiz-adv-x="168" 
d="M82 681l-55 -11v17l75 15v-352h-20v331z" />
    <glyph glyph-name="two.sup" horiz-adv-x="276" 
d="M40 350v21l154 154q24 24 24 70q0 40 -22.5 64.5t-58.5 24.5q-37 0 -59.5 -24.5t-22.5 -64.5h-20q0 48 28 78t74 30q45 0 73 -30t28 -78q0 -53 -30 -83l-143 -144h173v-18h-198z" />
    <glyph glyph-name="three.sup" horiz-adv-x="284" 
d="M141 533h-23v18h23q30 0 48.5 18.5t18.5 48.5q0 29 -18.5 47.5t-48.5 18.5q-29 0 -47.5 -18.5t-18.5 -47.5h-21q0 37 24.5 61t62.5 24q39 0 63 -23.5t24 -61.5q0 -56 -48 -76q30 -9 48 -33.5t18 -59.5q0 -46 -29 -74t-76 -28t-76 28t-29 74h20q0 -37 23.5 -60t61.5 -23
t61.5 23t23.5 60q0 38 -23.5 61t-61.5 23z" />
    <glyph glyph-name="four.sup" horiz-adv-x="287" 
d="M215 350h-20v72h-162v13l160 265h22v-260h33v-18h-33v-72zM196 668l-138 -228h138v228z" />
    <glyph glyph-name="five.sup" horiz-adv-x="276" 
d="M238 455q0 -48 -28 -78t-73 -30q-46 0 -74 27.5t-28 71.5h20q0 -35 22.5 -57.5t59.5 -22.5q36 0 58.5 24.5t22.5 64.5q0 43 -25 70t-65 27q-41 0 -67 -23l-15 8l24 163h143v-18h-126l-19 -127q22 16 61 16q49 0 79 -32t30 -84z" />
    <glyph glyph-name="six.sup" horiz-adv-x="286" 
d="M101 608l59 95l17 -10l-87 -144q23 14 53 14q47 0 77 -29.5t30 -78.5q0 -48 -29.5 -78t-77.5 -30t-77.5 30t-29.5 79q0 35 16 69q11 20 28 49zM80 520q-24 -26 -24 -65t24 -65q26 -24 63 -24q38 0 62 24q24 26 24 65t-24 65q-24 25 -62 25t-63 -25z" />
    <glyph glyph-name="seven.sup" horiz-adv-x="276" 
d="M213 682h-175v18h200v-11l-133 -339h-22z" />
    <glyph glyph-name="eight.sup" horiz-adv-x="286" 
d="M56 618q0 37 24.5 61t62.5 24q39 0 63 -23.5t24 -61.5q0 -56 -48 -76q30 -9 48 -33.5t18 -59.5q0 -46 -29 -74t-76 -28t-76 28t-29 74q0 35 18 59.5t49 33.5q-49 19 -49 76zM81 509q-23 -23 -23 -60t23 -60q25 -23 62 -23q38 0 61 23q24 23 24 60t-24 60q-23 23 -61 23
q-37 0 -62 -23zM77 618q0 -30 18.5 -48.5t47.5 -18.5q30 0 48.5 18.5t18.5 48.5q0 29 -18.5 47.5t-48.5 18.5q-29 0 -47.5 -18.5t-18.5 -47.5z" />
    <glyph glyph-name="nine.sup" horiz-adv-x="286" 
d="M126 347l-17 10l87 144q-23 -14 -53 -14q-48 0 -77.5 29.5t-29.5 78.5q0 48 29.5 78t77.5 30t77.5 -30t29.5 -79q0 -36 -22 -79q-26 -44 -38 -63l-29 -47q-6 -9 -17.5 -29t-17.5 -29zM205 530q24 25 24 65t-24 64q-24 25 -62 25t-63 -25q-24 -24 -24 -64t24 -65
q25 -25 63 -25t62 25z" />
    <glyph glyph-name="comma.sup" horiz-adv-x="126" 
d="M51 306l-9 9q18 19 20 32q-16 1 -16 17q0 17 18 17q16 0 16 -21q0 -25 -29 -54z" />
    <glyph glyph-name="period.sup" horiz-adv-x="126" 
d="M63 381q17 0 17 -17q0 -11 -10.5 -15.5t-18.5 3.5t-3.5 18.5t15.5 10.5z" />
    <glyph glyph-name="parenleft.sup" horiz-adv-x="170" 
d="M129 728v-17q-27 0 -45 -53t-18 -133q0 -83 18 -135q19 -52 45 -52v-16q-35 0 -59 57t-24 146t24 146t59 57z" />
    <glyph glyph-name="parenright.sup" horiz-adv-x="170" 
d="M41 711v17q36 0 59.5 -56.5t23.5 -146.5t-23.5 -146.5t-59.5 -56.5v17q27 0 45 53t18 133t-18 133t-45 53z" />
    <glyph glyph-name="hyphen.sup" horiz-adv-x="189" 
d="M143 516h-97v18h97v-18z" />
    <glyph glyph-name="Ugrave.smcp" horiz-adv-x="540" 
d="M436 181v323h21v-323q0 -82 -52 -134q-53 -51 -135 -51q-84 0 -136 51q-51 51 -51 134v323h20v-323q0 -74 46 -119.5t120 -45.5q75 0 121 45.5t46 119.5zM208 616l13 13l81 -78l-13 -13z" />
    <glyph glyph-name="Udieresis.smcp" horiz-adv-x="540" 
d="M436 181v323h21v-323q0 -82 -52 -134q-53 -51 -135 -51q-84 0 -136 51q-51 51 -51 134v323h20v-323q0 -74 46 -119.5t120 -45.5q75 0 121 45.5t46 119.5zM182 573q0 8 6 14t14 6q9 0 15 -6t6 -14q0 -9 -6 -15t-15 -6q-8 0 -14 6t-6 15zM317 573q0 19 21 19t21 -19
q0 -20 -21 -20t-21 20z" />
    <glyph glyph-name="Ucircumflex.smcp" horiz-adv-x="540" 
d="M436 181v323h21v-323q0 -82 -52 -134q-53 -51 -135 -51q-84 0 -136 51q-51 51 -51 134v323h20v-323q0 -74 46 -119.5t120 -45.5q75 0 121 45.5t46 119.5zM189 551l81 78l82 -78l-13 -13l-69 66l-68 -66z" />
    <glyph glyph-name="a.ord" horiz-adv-x="255" 
d="M223 466v-14q-6 -2 -11 -2q-26 0 -33 25q-32 -26 -73 -26q-34 0 -52 18.5t-18 45.5q0 36 33.5 57.5t88.5 21.5q10 0 20 -2v41q0 22 -15.5 38t-43.5 16q-40 0 -59 -22l-12 12q25 28 72 28q37 0 57.5 -20.5t20.5 -51.5v-142q0 -23 25 -23zM110 467q39 0 68 29v78
q-3 1 -19 1q-46 0 -74.5 -16.5t-28.5 -43.5q0 -20 13.5 -34t40.5 -14z" />
    <glyph glyph-name="b.ord" horiz-adv-x="307" 
d="M149 449q-61 0 -94 33h-1v383h20v-187q31 25 76 25q55 0 89 -35.5t34 -91.5q0 -57 -34 -92t-90 -35zM253 576q0 48 -29 78t-76 30q-45 0 -74 -29v-170q8 0 33 -9q27 -8 43 -8q46 0 74.5 29.5t28.5 78.5z" />
    <glyph glyph-name="c.ord" horiz-adv-x="278" 
d="M54 576q0 -49 29 -78.5t76 -29.5q49 0 77 30l13 -13q-33 -36 -90 -36q-56 0 -90.5 35t-34.5 92t34 91q35 36 91 36t90 -37l-13 -13q-28 31 -77 31q-47 0 -76 -30t-29 -78z" />
    <glyph glyph-name="d.ord" horiz-adv-x="309" 
d="M255 865v-413h-20v23q-32 -26 -79 -26q-55 0 -88.5 35t-33.5 92q0 56 34.5 91.5t89.5 35.5q45 0 77 -25v187h20zM54 576q0 -49 29 -78.5t76 -29.5q49 0 76 29v157q-29 30 -76 30t-76 -30t-29 -78z" />
    <glyph glyph-name="e.ord" horiz-adv-x="292" 
d="M259 572h-204q1 -47 30 -75.5t75 -28.5q48 0 77 30l13 -13q-34 -36 -91 -36q-56 0 -90.5 35t-34.5 93q0 56 32 91t83 35t80.5 -35.5t29.5 -95.5zM55 589h184q-4 44 -27.5 69.5t-62.5 25.5t-65 -25.5t-29 -69.5z" />
    <glyph glyph-name="egrave.ord" horiz-adv-x="292" 
d="M259 572h-204q1 -47 30 -75.5t75 -28.5q48 0 77 30l13 -13q-34 -36 -91 -36q-56 0 -90.5 35t-34.5 93q0 56 32 91t83 35t80.5 -35.5t29.5 -95.5zM55 589h184q-4 44 -27.5 69.5t-62.5 25.5t-65 -25.5t-29 -69.5zM102 802l11 11l62 -61l-12 -12z" />
    <glyph glyph-name="f.ord" horiz-adv-x="181" 
d="M61 682h-37v18h37v94q0 33 20 53.5t52 20.5q17 0 29 -6v-19q-10 6 -27 6q-24 0 -38.5 -15t-14.5 -40v-94h80v-18h-80v-230h-21v230z" />
    <glyph glyph-name="g.ord" horiz-adv-x="282" 
d="M22 384q0 24 16.5 43t44.5 27q-36 14 -36 42q0 31 40 43q-48 19 -48 76q0 40 24.5 64t65.5 24q38 0 61 -20q20 20 42 20q2 0 7 -0.5t6 -0.5v-18q-2 1 -11 1q-16 0 -33 -14q19 -22 19 -55q0 -38 -25.5 -62t-66.5 -24q-28 0 -45 -9.5t-17 -24.5q0 -14 19.5 -23.5t52.5 -9.5
q50 0 80 -19.5t30 -52.5q0 -35 -34.5 -57.5t-86.5 -22.5q-48 0 -76.5 20t-28.5 53zM42 384q0 -25 23 -40t62 -15q42 0 71 17.5t29 44.5q0 25 -24.5 40t-64.5 15q-44 0 -70 -17t-26 -45zM78 666q-19 -19 -19 -50t19 -50t52 -19q32 0 51 19q20 19 20 50t-20 50q-19 19 -51 19
q-33 0 -52 -19z" />
    <glyph glyph-name="h.ord" horiz-adv-x="302" 
d="M54 452v413h20v-189q32 27 78 27q42 0 68 -27t26 -71v-153h-20v153q0 35 -21.5 57t-55.5 22q-47 0 -75 -30v-202h-20z" />
    <glyph glyph-name="i.ord" horiz-adv-x="128" 
d="M74 452h-20v248h20v-248zM51 761q-13 13 0 26t26 0t0 -26t-26 0z" />
    <glyph glyph-name="j.ord" horiz-adv-x="127" 
d="M50 761q-8 8 -4.5 17.5t12.5 12t17 -3.5q9 -8 5.5 -18t-12.5 -12.5t-18 4.5zM18 315v13q35 0 35 33v339h20v-339q0 -23 -11.5 -35.5t-30.5 -12.5q-11 0 -13 2z" />
    </font>
</defs>
</svg>
