<?xml version="1.0" standalone="no"?>
<!DOCTYPE svg PUBLIC "-//W3C//DTD SVG 1.1//EN" "http://www.w3.org/Graphics/SVG/1.1/DTD/svg11.dtd" >
<svg xmlns="http://www.w3.org/2000/svg" xmlns:xlink="http://www.w3.org/1999/xlink" version="1.1">
<metadata>
Created by FontForge 20170731 at Wed May 28 20:45:10 2014
 By Aleksey,,,
Copyright (c) 2014 by Andriy Konstantynov. All rights reserved.
</metadata>
<defs>
<font id="ProbaPro-MediumItalic" horiz-adv-x="540" >
  <font-face 
    font-family="Proba Pro Md"
    font-weight="500"
    font-style="italic"
    font-stretch="normal"
    units-per-em="1000"
    panose-1="2 13 0 3 3 2 0 0 0 0"
    ascent="746"
    descent="-254"
    x-height="450"
    cap-height="700"
    bbox="-30 -258 1281.6 1011"
    underline-thickness="50"
    underline-position="-250"
    slope="-10"
    unicode-range="U+0020-FB03"
  />
<missing-glyph horiz-adv-x="230" 
 />
    <glyph glyph-name="ff" unicode="ff" horiz-adv-x="592" 
d="M403 -250h-95l111 628h-166l-111 -628h-95l111 628h-60l13 72h60l26 147q13 74 64 117.5t124 43.5q34 0 53 -10l-14 -77q-15 9 -37 9q-37 0 -63 -23t-32 -60l-26 -147h166l26 147q13 74 64 117.5t124 43.5q34 0 53 -10l-14 -77q-15 9 -37 9q-37 0 -63 -23t-32 -60
l-26 -147h119l-13 -72h-119z" />
    <glyph glyph-name="fi" unicode="fi" horiz-adv-x="510" 
d="M444 0h-91l66 378h-166l-111 -628h-95l111 628h-60l13 72h60l26 147q13 74 64 117.5t124 43.5q34 0 53 -10l-14 -77q-15 9 -37 9q-37 0 -63 -23t-32 -60l-26 -147h257zM444 585q4 24 23.5 40.5t44.5 16.5q24 0 37.5 -16.5t9.5 -40.5q-5 -24 -24.5 -41t-43.5 -17t-38 17
t-9 41z" />
    <glyph glyph-name="ffi" unicode="ffi" horiz-adv-x="771" 
d="M705 0h-91l66 378h-166l-111 -628h-95l111 628h-166l-111 -628h-95l111 628h-60l13 72h60l26 147q13 74 64 117.5t124 43.5q34 0 53 -10l-14 -77q-15 9 -37 9q-37 0 -63 -23t-32 -60l-26 -147h166l26 147q13 74 64 117.5t124 43.5q34 0 53 -10l-14 -77q-15 9 -37 9
q-37 0 -63 -23t-32 -60l-26 -147h257zM705 585q4 24 23.5 40.5t44.5 16.5q24 0 37.5 -16.5t9.5 -40.5q-5 -24 -24.5 -41t-43.5 -17t-38 17t-9 41z" />
    <glyph glyph-name="f_j" unicode="fj" horiz-adv-x="510" 
d="M257 -250l11 60q24 0 40 13t20 37l91 518h-166l-111 -628h-95l111 628h-60l13 72h60l26 147q13 74 64 117.5t124 43.5q34 0 53 -10l-14 -77q-15 9 -37 9q-37 0 -63 -23t-32 -60l-26 -147h257l-104 -592q-9 -52 -42.5 -82.5t-82.5 -30.5q-22 0 -37 5zM444 585
q4 24 23.5 40.5t44.5 16.5q24 0 37.5 -16.5t9.5 -40.5q-5 -24 -24.5 -41t-43.5 -17t-38 17t-9 41z" />
    <glyph glyph-name="afii10104_afii10104" unicode="&#x457;&#x457;" horiz-adv-x="446" 
d="M157 0h-91l79 450h91zM85 522q-13 16 -9 39t22 39t41 16t36 -16t9 -39t-22 -39q-18 -15 -41 -15t-36 15zM380 0h-91l79 450h91zM503 507q-22 0 -35.5 15.5t-9.5 38.5t22.5 39t41.5 16t36 -16t9 -39t-22.5 -38.5t-41.5 -15.5zM312 507q-22 0 -35.5 15.5t-9.5 38.5t22.5 39
t41.5 16t36 -16t9 -39t-22.5 -38.5t-41.5 -15.5z" />
    <glyph glyph-name="afii10103_afii10104" unicode="&#x456;&#x457;" horiz-adv-x="446" 
d="M157 0h-91l79 450h91zM157 585q4 24 23.5 40.5t43.5 16.5q25 0 38.5 -16.5t9.5 -40.5q-5 -24 -24.5 -41t-43.5 -17q-25 0 -38.5 17t-8.5 41zM380 0h-91l79 450h91zM319 522q-13 16 -9 39t22 39q19 16 42 16t36 -16t9 -39t-23 -39q-18 -15 -41 -15t-36 15zM503 507
q-22 0 -35.5 15.5t-9.5 38.5t22.5 39t41.5 16t36 -16t9 -39t-22.5 -38.5t-41.5 -15.5z" />
    <glyph glyph-name="quoteright_afii10104" unicode="&#x2019;&#x457;" horiz-adv-x="315" 
d="M137 472l-26 31q47 40 65 78q-20 4 -30.5 19t-7.5 37q5 24 24.5 40.5t44.5 16.5t38 -16.5t7 -48.5q-11 -68 -115 -157zM250 0h-92l79 450h92zM436 561q-4 -23 -22.5 -38.5t-41.5 -15.5q-22 -2 -35 14.5t-10 40t23 38.5q30 26 62 11.5t24 -50.5z" />
    <glyph glyph-name="afii10056_afii10056" unicode="&#x407;&#x407;" horiz-adv-x="452" 
d="M160 0h-94l123 700h94zM182 852q22 0 35 -15.5t10 -38.5q-4 -22 -23 -38t-42 -16q-22 0 -35 15.5t-9 38.5t22.5 38.5t41.5 15.5zM387 0h-95l123 700h95zM616 798q-4 -22 -23 -38t-42 -16q-22 -2 -34.5 14.5t-9.5 40t22 38.5q31 25 62 11t25 -50zM312 798q5 24 23 39.5
t41 15.5t36 -16t9 -39q-4 -22 -23 -38t-42 -16q-22 0 -35 15.5t-9 38.5z" />
    <glyph glyph-name="f_f_j" unicode="ffj" horiz-adv-x="771" 
d="M518 -250l11 60q24 0 40 13t20 37l91 518h-166l-111 -628h-95l111 628h-166l-111 -628h-95l111 628h-60l13 72h60l26 147q13 74 64 117.5t124 43.5q34 0 53 -10l-14 -77q-15 9 -37 9q-37 0 -63 -23t-32 -60l-26 -147h166l26 147q13 74 64 117.5t124 43.5q34 0 53 -10
l-14 -77q-15 9 -37 9q-37 0 -63 -23t-32 -60l-26 -147h257l-104 -592q-9 -52 -42.5 -82.5t-82.5 -30.5q-22 0 -37 5zM705 585q4 24 23.5 40.5t44.5 16.5q24 0 37.5 -16.5t9.5 -40.5q-5 -24 -24.5 -41t-43.5 -17t-38 17t-9 41z" />
    <glyph glyph-name=".notdef" horiz-adv-x="230" 
 />
    <glyph glyph-name=".null" horiz-adv-x="0" 
 />
    <glyph glyph-name="nonmarkingreturn" horiz-adv-x="333" 
 />
    <glyph glyph-name="space" unicode=" " horiz-adv-x="230" 
 />
    <glyph glyph-name="exclam" unicode="!" horiz-adv-x="223" 
d="M134 107q24 0 37.5 -17t9.5 -41t-23.5 -40.5t-43.5 -16.5t-38 16.5t-10 40.5t23.5 41t44.5 17zM196 198h-92l89 502h91z" />
    <glyph glyph-name="quotedbl" unicode="&#x22;" horiz-adv-x="370" 
d="M223 450h-78l44 250h78zM383 450h-79l44 250h79z" />
    <glyph glyph-name="numbersign" unicode="#" horiz-adv-x="613" 
d="M424 0h-92l54 167h-157l-55 -167h-92l55 167h-71l13 72h82l72 221h-82l13 72h92l56 168h92l-56 -168h158l56 168h92l-57 -168h72l-12 -72h-82l-73 -221h83l-13 -72h-94zM483 460h-158l-73 -221h158z" />
    <glyph glyph-name="dollar" unicode="$" 
d="M276 -100h-52l16 93q-118 9 -186 96l69 59q46 -63 132 -71l42 237q-17 7 -28 12t-27 12.5t-26 14.5t-23 17.5t-19.5 20t-15.5 23.5t-10 28t-4 33t3 39q13 77 71 133q59 56 149 60l16 93h52l-17 -94q102 -14 159 -84l-70 -60q-39 48 -104 58l-40 -226q89 -38 117 -65
q55 -49 40 -133q-14 -80 -75 -138t-153 -65zM422 194q6 34 -13 56.5t-64 43.5l-37 -213q45 9 76 42t38 71zM245 516q-6 -34 11.5 -57t58.5 -44l36 206q-42 -8 -70.5 -37.5t-35.5 -67.5z" />
    <glyph glyph-name="percent" unicode="%" horiz-adv-x="876" 
d="M311 0h-92l495 700h92zM143 534q14 77 71 125q58 49 137 49q78 0 118 -48.5t26 -125.5q-14 -78 -71 -127q-57 -48 -136 -48q-78 0 -118 48.5t-27 126.5zM225 534q-8 -47 13 -76.5t63 -29.5q41 0 73 29.5t40 76.5t-13 76t-63 29q-41 0 -73 -29.5t-40 -75.5zM528 166
q13 78 71 126q58 49 136 49q79 0 119 -48.5t26 -126.5q-13 -76 -71 -126q-55 -48 -135 -48q-79 0 -119.5 48.5t-26.5 125.5zM685 60q42 0 74 30t39 76q9 47 -12 76q-21 30 -63 30q-43 0 -74 -30q-31 -28 -39 -76q-8 -47 13 -76.5t62 -29.5z" />
    <glyph glyph-name="ampersand" unicode="&#x26;" horiz-adv-x="597" 
d="M474 340h-67l13 77h230l-13 -77h-68l-23 -134q-17 -95 -90 -155q-73 -59 -172 -59t-152 59q-52 59 -35 155q10 60 46 105t91 69q-73 43 -55 142q14 83 78 134q64 52 153 52q88 0 133 -51.5t31 -134.5h-94q7 46 -16.5 75t-68.5 29q-46 0 -79.5 -29t-41.5 -75t15 -75.5
t69 -29.5h27l-13 -77h-27q-58 0 -100.5 -37.5t-53.5 -96.5q-10 -59 19.5 -96t87.5 -37q57 0 99.5 37t53.5 96z" />
    <glyph glyph-name="quotesingle" unicode="'" horiz-adv-x="210" 
d="M223 450h-78l44 250h78z" />
    <glyph glyph-name="parenleft" unicode="(" horiz-adv-x="295" 
d="M416 758l-13 -69q-41 0 -94 -125q-52 -123 -85 -314q-23 -128 -27 -229q-6 -211 51 -211l-11 -68q-85 0 -116 141q-31 140 8 367q39 225 121 366q82 142 166 142z" />
    <glyph glyph-name="parenright" unicode=")" horiz-adv-x="295" 
d="M165 689l13 69q84 0 115 -141q31 -140 -8 -367q-39 -225 -121 -366q-81 -142 -165 -142l11 68q41 0 94 125q51 120 86 315q22 124 26 227t-10 159t-41 53z" />
    <glyph glyph-name="asterisk" unicode="*" horiz-adv-x="448" 
d="M365 351l-60 109l-99 -110l-47 40l98 110l-121 42l32 64l121 -41l24 135h68l-24 -135l137 42l9 -64l-137 -43l62 -110z" />
    <glyph glyph-name="plus" unicode="+" horiz-adv-x="430" 
d="M223 253h-125l13 72h125l22 125h72l-22 -125h125l-12 -72h-126l-22 -126h-72z" />
    <glyph glyph-name="comma" unicode="," horiz-adv-x="223" 
d="M61 -115l-26 30q49 43 64 78q-19 4 -29.5 19.5t-7.5 36.5q4 24 23.5 41t44.5 17t38.5 -17t7.5 -49q-14 -71 -115 -156z" />
    <glyph glyph-name="hyphen" unicode="-" horiz-adv-x="340" 
d="M326 230h-232l13 72h232z" />
    <glyph glyph-name="period" unicode="." horiz-adv-x="223" 
d="M134 107q24 0 37.5 -17t9.5 -41t-23.5 -40.5t-43.5 -16.5t-38 16.5t-10 40.5t23.5 41t44.5 17z" />
    <glyph glyph-name="slash" unicode="/" horiz-adv-x="556" 
d="M129 -50h-92l513 800h92z" />
    <glyph glyph-name="zero" unicode="0" horiz-adv-x="563" 
d="M434 708q106 0 152 -99q48 -98 19 -259t-110 -259q-83 -99 -187 -99q-105 0 -153 99q-47 100 -19 259q28 160 111 259t187 99zM305 549q-51 -75 -74 -199q-23 -123 3 -200t88 -77q61 0 114 77q52 76 75 200q22 121 -4 199q-26 77 -88 77q-61 0 -114 -77z" />
    <glyph glyph-name="one" unicode="1" horiz-adv-x="327" 
d="M250 619l-113 -19l13 72l207 32l-124 -704h-91z" />
    <glyph glyph-name="two" unicode="2" horiz-adv-x="520" 
d="M45 0l13 78l353 300q42 36 55 106q11 63 -16.5 102.5t-82.5 39.5t-96.5 -39.5t-52.5 -102.5h-95q18 100 89 162q73 62 170 62t147 -62q49 -60 32 -162q-16 -100 -97 -168l-280 -238h305l-13 -78h-431z" />
    <glyph glyph-name="three" unicode="3" horiz-adv-x="535" 
d="M343 340h-46l13 77h46q46 0 80 29.5t42 75.5q8 47 -15.5 75.5t-69.5 28.5t-79.5 -29t-41.5 -75h-94q13 81 78 134q64 52 152 52t133.5 -51.5t31.5 -134.5q-18 -99 -105 -142q97 -48 76 -174q-17 -95 -90 -155q-73 -59 -172 -59t-152 59q-52 59 -35 155h95q-10 -58 18 -96
q30 -37 88 -37q59 0 100 37q43 38 53 96q11 59 -18.5 96.5t-87.5 37.5z" />
    <glyph glyph-name="four" unicode="4" horiz-adv-x="555" 
d="M445 0h-92l23 130h-316l7 43l405 527h93l-87 -491h60l-13 -79h-57zM455 562l-268 -353h206z" />
    <glyph glyph-name="five" unicode="5" horiz-adv-x="529" 
d="M529 216q-16 -99 -88 -162q-71 -62 -169 -62t-148 59q-50 60 -34 154h91q-10 -58 19 -94.5t86 -36.5q55 0 96.5 39.5t52.5 102.5q12 68 -20 112q-31 43 -96 43q-63 0 -113 -41l-62 24l103 346h315l-14 -79h-234l-57 -186q37 17 83 17q103 0 156 -65q52 -65 33 -171z" />
    <glyph glyph-name="six" unicode="6" horiz-adv-x="530" 
d="M433 708l71 -45q-130 -137 -210 -246q31 14 67 14q98 0 149 -60t34 -158q-16 -98 -90 -160q-71 -61 -172 -61q-100 0 -151 61q-51 62 -32 167q16 98 89 200q70 98 245 288zM449 213q11 62 -17.5 101t-85.5 39t-99.5 -39t-53.5 -101t17.5 -101t85.5 -39t100 39t53 101z
" />
    <glyph glyph-name="seven" unicode="7" horiz-adv-x="529" 
d="M473 621h-317l14 79h435l-5 -30l-362 -670h-98z" />
    <glyph glyph-name="eight" unicode="8" horiz-adv-x="536" 
d="M179 522q14 83 78 134q64 52 153 52q88 0 133 -51.5t31 -134.5q-18 -98 -104 -142q97 -49 76 -174q-17 -95 -90 -155q-73 -59 -172 -59t-152 59q-52 59 -35 155q20 124 135 174q-71 44 -53 142zM191 206q-10 -59 19.5 -96t87.5 -37t99 37q43 38 54 96q11 59 -19 96
q-28 37 -87 37q-58 0 -100.5 -37t-53.5 -96zM480 522q7 46 -16.5 75t-68.5 29t-80 -29q-34 -29 -41 -75q-8 -46 15 -75t69 -29t80 29t42 75z" />
    <glyph glyph-name="nine" unicode="9" horiz-adv-x="530" 
d="M256 -8l-72 45q127 133 211 246q-33 -15 -68 -15q-98 0 -149 60q-51 61 -34 159q18 98 90 160q73 61 173 61t150 -62q51 -62 32 -166q-18 -106 -102 -218q-41 -56 -95 -118q-36 -42 -136 -152zM496 487q10 62 -18.5 100.5t-85.5 38.5t-100 -38.5t-53 -100.5
q-11 -62 18 -101t86 -39t99.5 39t53.5 101z" />
    <glyph glyph-name="colon" unicode=":" horiz-adv-x="223" 
d="M134 107q24 0 37.5 -17t9.5 -41t-23.5 -40.5t-43.5 -16.5t-38 16.5t-10 40.5t23.5 41t44.5 17zM175 343q-24 0 -37.5 17t-9.5 41t24 40.5t44 16.5t37.5 -16.5t9.5 -40.5t-23.5 -41t-44.5 -17z" />
    <glyph glyph-name="semicolon" unicode=";" horiz-adv-x="223" 
d="M171 343q-24 0 -37.5 17t-9.5 41t24 40.5t44 16.5t37.5 -16.5t9.5 -40.5t-23.5 -41t-44.5 -17zM61 -115l-26 30q49 43 64 78q-19 4 -29.5 19.5t-7.5 36.5q4 24 23.5 41t44.5 17t38.5 -17t7.5 -49q-14 -71 -115 -156z" />
    <glyph glyph-name="less" unicode="&#x3c;" horiz-adv-x="410" 
d="M397 160l-62 -53l-253 193l320 192l44 -53l-235 -139z" />
    <glyph glyph-name="equal" unicode="=" horiz-adv-x="467" 
d="M469 317h-360l13 72h360zM438 141h-360l13 72h359z" />
    <glyph glyph-name="greater" unicode="&#x3e;" horiz-adv-x="410" 
d="M177 492l251 -192l-319 -193l-44 53l234 140l-184 139z" />
    <glyph glyph-name="question" unicode="?" horiz-adv-x="474" 
d="M193 574l-48 59q96 75 210 75q94 0 138 -53q46 -53 32 -130q-13 -74 -76 -119q-3 -2 -21.5 -14.5t-23.5 -17t-20.5 -16.5t-22 -20.5t-16 -22t-15 -28t-8.5 -31.5l-10 -58h-91l10 58q18 96 79 145q10 8 47.5 35.5t52.5 45.5t19 42q9 41 -15.5 71.5t-76.5 30.5
q-80 0 -144 -52zM230 -8q-24 0 -37.5 16.5t-9.5 40.5t23.5 41t43.5 17t38 -17t10 -41t-23.5 -40.5t-44.5 -16.5z" />
    <glyph glyph-name="at" unicode="@" horiz-adv-x="1040" 
d="M845 -65l48 -57q-74 -66 -172.5 -101t-204.5 -35q-216 0 -326 134q-109 133 -71 349t195 349q158 134 371 134q209 2 321.5 -128.5t75.5 -315.5q-26 -149 -115 -214q-77 -58 -161 -58q-89 0 -112 53q-68 -53 -149 -53q-95 0 -143 64q-49 65 -29 169q18 103 95 168t184 65
q129 0 180 -80l-44 -250q-5 -25 10 -40t42 -15q48 0 89 47t56 133q28 163 -57 268q-86 105 -258 105t-298 -111t-158 -290q-32 -180 56 -290q88 -112 262 -112q88 0 171 29.5t142 82.5zM693 113l41 231q-32 32 -99 32q-63 0 -109 -41.5t-58 -109.5q-12 -67 20 -110
q32 -42 96 -42q65 0 109 40z" />
    <glyph glyph-name="A" unicode="A" horiz-adv-x="755" 
d="M733 0h-110l-48 185h-331l-112 -185h-110l434 700h89zM555 270l-76 308l-186 -308h262z" />
    <glyph glyph-name="B" unicode="B" horiz-adv-x="550" 
d="M294 0h-227l123 700h203q87 0 130.5 -49.5t28.5 -132.5q-16 -98 -101 -148q49 -20 71 -66.5t11 -108.5q-17 -90 -82 -142q-65 -53 -157 -53zM440 202q10 53 -16.5 86t-77.5 33h-125l-41 -239h124q51 0 88.5 33t47.5 87zM456 510q9 49 -14 78.5t-70 29.5h-98l-38 -216h98
q46 0 80 30t42 78z" />
    <glyph glyph-name="C" unicode="C" horiz-adv-x="696" 
d="M234 350q-22 -120 37 -197q60 -76 176 -76q121 0 206 75l50 -60q-116 -100 -275 -100q-158 0 -239 99t-53 259t144 259t274 99q159 0 240 -100l-71 -61q-60 76 -179 76q-117 0 -203 -76q-86 -77 -107 -197z" />
    <glyph glyph-name="D" unicode="D" horiz-adv-x="695" 
d="M293 0h-226l123 700h226q159 0 240 -96q81 -95 53 -254q-29 -160 -143 -255q-115 -95 -273 -95zM610 350q22 121 -36 194q-59 74 -172 74h-128l-94 -536h127q116 0 198 73q84 73 105 195z" />
    <glyph glyph-name="E" unicode="E" horiz-adv-x="491" 
d="M551 621h-280l-40 -230h248l-14 -79h-248l-41 -234h284l-13 -78h-380l123 700h375z" />
    <glyph glyph-name="F" unicode="F" horiz-adv-x="466" 
d="M538 621h-267l-40 -230h233l-14 -79h-233l-55 -312h-95l123 700h361z" />
    <glyph glyph-name="G" unicode="G" horiz-adv-x="727" 
d="M645 297h-163l13 79h258l-50 -284q-115 -100 -275 -100q-158 0 -239 99t-53 259t144 259t274 99q159 0 240 -100l-71 -61q-60 76 -179 76q-117 0 -203 -76q-86 -77 -107 -197q-22 -120 37 -197q60 -76 176 -76q94 0 167 49z" />
    <glyph glyph-name="H" unicode="H" horiz-adv-x="687" 
d="M190 700h95l-54 -309h362l55 309h94l-123 -700h-94l55 312h-363l-55 -312h-95z" />
    <glyph glyph-name="I" unicode="I" horiz-adv-x="226" 
d="M160 0h-94l123 700h94z" />
    <glyph glyph-name="J" unicode="J" horiz-adv-x="451" 
d="M325 193l89 507h95l-90 -507q-17 -91 -82 -146q-64 -55 -155 -55q-90 0 -137 56l72 61q24 -32 76 -32q49 0 85.5 32t46.5 84z" />
    <glyph glyph-name="K" unicode="K" horiz-adv-x="607" 
d="M160 0h-94l123 700h94zM583 0h-122l-235 360l337 340h119l-337 -340z" />
    <glyph glyph-name="L" unicode="L" horiz-adv-x="463" 
d="M190 700h95l-109 -622h264l-14 -78h-359z" />
    <glyph glyph-name="M" unicode="M" horiz-adv-x="803" 
d="M735 0h-95l89 506l-282 -352h-38l-158 352l-89 -506h-95l123 700h72l190 -410l335 410h71z" />
    <glyph glyph-name="N" unicode="N" horiz-adv-x="710" 
d="M67 0l123 700h63l326 -519l92 519h95l-123 -700h-63l-327 519l-91 -519h-95z" />
    <glyph glyph-name="O" unicode="O" horiz-adv-x="803" 
d="M136 350q28 160 144 259t274 99q160 0 239 -99q81 -98 52 -259t-143 -259q-116 -99 -274 -99t-239 99t-53 259zM234 350q-22 -121 36 -197t173 -76t198 76q85 76 106 197q23 122 -36 197q-57 76 -172 76q-114 0 -199 -76t-106 -197z" />
    <glyph glyph-name="P" unicode="P" horiz-adv-x="524" 
d="M165 0h-98l123 700h198q95 0 144 -55t33 -146t-85 -146q-68 -54 -163 -54h-99zM467 499q9 54 -16.5 86.5t-76.5 32.5h-100l-42 -237h100q51 0 88 32.5t47 85.5z" />
    <glyph glyph-name="Q" unicode="Q" horiz-adv-x="803" 
d="M802 36l-71 -60l-70 85q-103 -69 -233 -69q-158 0 -239 99t-53 259t144 259t274 99q160 0 239 -99q81 -98 52 -259q-24 -137 -114 -229zM234 350q-22 -121 36 -197t172 -76q100 0 167 46l-89 109l71 59l82 -100q59 68 74 159q22 121 -36 197t-172 76t-199 -76t-106 -197z
" />
    <glyph glyph-name="R" unicode="R" 
d="M516 0h-108l-105 299h-85l-53 -299h-98l123 700h206q96 0 144.5 -55t32.5 -146q-13 -72 -59.5 -122.5t-115.5 -68.5zM475 499q9 54 -16.5 86.5t-76.5 32.5h-108l-42 -237h108q51 0 88 32.5t47 85.5z" />
    <glyph glyph-name="S" unicode="S" 
d="M577 622l-70 -60q-21 27 -57 44t-74 17q-54 0 -89 -33q-34 -33 -42 -74q-6 -35 14.5 -60.5t54.5 -39.5t74 -32.5t73 -38.5t50.5 -58.5t8.5 -90.5q-15 -86 -83 -145t-173 -59q-134 0 -210 97l69 59q25 -33 64.5 -52t82.5 -19q63 0 104 36q40 37 48 81q7 39 -22.5 65.5
t-75 44t-90 39t-71.5 64.5t-16 107q13 81 76 138q62 56 159 56q126 0 195 -86z" />
    <glyph glyph-name="T" unicode="T" horiz-adv-x="557" 
d="M629 621h-194l-109 -621h-95l109 621h-194l14 79h483z" />
    <glyph glyph-name="U" unicode="U" horiz-adv-x="665" 
d="M568 256l79 444h95l-78 -444q-21 -117 -108 -191q-85 -73 -205 -73q-118 0 -179 73q-60 73 -39 191l78 444h95l-78 -444q-14 -80 24 -129q39 -50 113 -50q77 0 133 50q56 49 70 129z" />
    <glyph glyph-name="V" unicode="V" horiz-adv-x="755" 
d="M744 700h112l-434 -700h-89l-188 700h112l142 -576z" />
    <glyph glyph-name="W" unicode="W" horiz-adv-x="1119" 
d="M1110 700h110l-381 -700h-95l-91 536l-277 -536h-96l-135 700h111l97 -552l281 552h98l85 -552z" />
    <glyph glyph-name="X" unicode="X" horiz-adv-x="728" 
d="M704 0h-122l-168 291l-268 -291h-122l332 355l-201 345h122l160 -280l259 280h123l-324 -345z" />
    <glyph glyph-name="Y" unicode="Y" horiz-adv-x="673" 
d="M383 0h-95l52 295l-195 405h110l149 -312l259 312h110l-338 -406z" />
    <glyph glyph-name="Z" unicode="Z" horiz-adv-x="626" 
d="M547 621h-385l14 79h524l-5 -30l-496 -592h393l-13 -78h-532l5 30z" />
    <glyph glyph-name="bracketleft" unicode="[" horiz-adv-x="298" 
d="M198 750h188l-13 -72h-97l-151 -856h97l-13 -72h-188z" />
    <glyph glyph-name="backslash" unicode="\" horiz-adv-x="556" 
d="M178 750h92l231 -800h-92z" />
    <glyph glyph-name="bracketright" unicode="]" horiz-adv-x="298" 
d="M260 678h-97l13 72h188l-177 -1000h-187l12 72h97z" />
    <glyph glyph-name="asciicircum" unicode="^" horiz-adv-x="446" 
d="M117 492l226 193l159 -193l-55 -46l-120 146l-172 -146z" />
    <glyph glyph-name="underscore" unicode="_" horiz-adv-x="450" 
d="M419 -172h-449l13 72h449z" />
    <glyph glyph-name="grave" unicode="`" horiz-adv-x="266" 
d="M156 638l55 47l108 -132l-54 -47z" />
    <glyph glyph-name="a" unicode="a" 
d="M379 458q129 0 180 -80l-66 -378h-92l6 34q-60 -42 -134 -42q-96 0 -144 64q-49 65 -29 169q20 103 96 168q77 65 183 65zM421 113l40 232q-34 31 -99 31q-63 0 -109 -41.5t-58 -109.5q-12 -67 20 -110q31 -42 96 -42q64 0 110 40z" />
    <glyph glyph-name="b" unicode="b" 
d="M258 -8q-130 0 -180 80l120 678h91l-58 -326q56 34 127 34q97 0 147 -65t32 -168q-19 -104 -96 -169q-76 -64 -183 -64zM442 225q12 67 -20 109t-94 42q-66 0 -113 -45l-40 -226q35 -32 99 -32q63 0 109.5 42t58.5 110z" />
    <glyph glyph-name="c" unicode="c" horiz-adv-x="474" 
d="M195 225q-12 -68 20 -110t96 -42q67 0 113 43l46 -57q-74 -67 -179 -67t-157 64q-53 66 -34 169q20 104 94 168q77 65 180 65q101 0 154 -68l-66 -57q-30 43 -98 43q-63 0 -110 -42t-59 -109z" />
    <glyph glyph-name="d" unicode="d" horiz-adv-x="541" 
d="M626 750l-132 -750h-92l6 34q-62 -42 -135 -42q-96 0 -144 64q-49 65 -29 169q20 103 93 168q76 65 178 65q62 0 106 -28l57 320h92zM195 225q-12 -68 20 -110t96 -42t111 41l39 225q-31 37 -97 37q-63 0 -110 -42t-59 -109z" />
    <glyph glyph-name="e" unicode="e" horiz-adv-x="506" 
d="M521 199h-328q-4 -58 29 -92t93 -34q69 0 116 43l45 -57q-76 -67 -182 -67q-107 0 -159 64q-53 66 -34 172q18 101 89 166q71 64 169 64t140.5 -68.5t21.5 -190.5zM347 378q-49 0 -87.5 -31t-54.5 -84h236q2 54 -22 84.5t-72 30.5z" />
    <glyph glyph-name="f" unicode="f" horiz-adv-x="331" 
d="M158 378h-60l13 72h60l26 147q13 74 64 117.5t124 43.5q34 0 53 -10l-14 -77q-15 9 -37 9q-37 0 -63 -23t-32 -60l-26 -147h119l-13 -72h-119l-111 -628h-95z" />
    <glyph glyph-name="g" unicode="g" horiz-adv-x="513" 
d="M9 -115q15 83 120 121q-49 25 -41 74q9 51 72 76q-66 41 -50 135q13 75 73 121q58 46 141 46q75 0 118 -40q41 40 86 40q15 0 25 -2l-13 -73q-9 3 -20 3q-23 0 -46 -22q9 -32 3 -71q-13 -71 -73 -119q-58 -45 -140 -45q-78 0 -87 -46q-3 -20 20 -32.5t66 -12.5
q99 0 152 -39t42 -103q-13 -68 -87 -111q-73 -43 -175 -43q-96 0 -146.5 39.5t-39.5 103.5zM103 -115q-5 -33 22.5 -53t81.5 -20q59 0 103 23q44 22 52 59q5 33 -25 52.5t-85 19.5q-60 0 -101 -22.5t-48 -58.5zM203 293q-8 -40 13.5 -66t62.5 -26q40 0 70.5 25.5t38.5 66.5
q7 41 -14.5 67t-62.5 26t-71 -26t-37 -67z" />
    <glyph glyph-name="h" unicode="h" horiz-adv-x="520" 
d="M66 0l132 750h91l-59 -335q59 43 135 43q77 0 113.5 -51.5t21.5 -136.5l-47 -270h-92l47 270q9 47 -13.5 76.5t-67.5 29.5q-65 0 -111 -40l-59 -336h-91z" />
    <glyph glyph-name="i" unicode="i" horiz-adv-x="223" 
d="M157 0h-91l79 450h91zM157 585q4 24 23.5 40.5t43.5 16.5q25 0 38.5 -16.5t9.5 -40.5q-5 -24 -24.5 -41t-43.5 -17q-25 0 -38.5 17t-8.5 41z" />
    <glyph glyph-name="j" unicode="j" horiz-adv-x="223" 
d="M157 585q4 24 23.5 40.5t43.5 16.5q25 0 38.5 -16.5t9.5 -40.5q-5 -24 -24.5 -41t-43.5 -17q-25 0 -38.5 17t-8.5 41zM-29 -250l10 60q24 0 40 13t20 37l104 590h91l-105 -592q-9 -52 -42 -82.5t-82 -30.5q-21 0 -36 5z" />
    <glyph glyph-name="k" unicode="k" horiz-adv-x="474" 
d="M196 223l-39 -223h-91l132 750h91l-87 -494l197 194h109l-217 -210l159 -240h-109z" />
    <glyph glyph-name="l" unicode="l" horiz-adv-x="251" 
d="M230 60l-9 -60q-18 -5 -43 -5q-49 0 -71.5 30.5t-13.5 82.5l114 642h91l-113 -640q-4 -24 8 -37t37 -13z" />
    <glyph glyph-name="m" unicode="m" horiz-adv-x="760" 
d="M694 0h-91l52 297q6 35 -10.5 57t-49.5 22q-65 0 -114 -36q1 -13 -3 -43l-52 -297h-92l52 297q6 35 -10.5 57t-48.5 22q-65 0 -111 -40l-59 -336h-91l79 450h91l-6 -35q59 43 135 43t104 -61q71 61 164 61q65 0 95.5 -44t17.5 -117z" />
    <glyph glyph-name="n" unicode="n" horiz-adv-x="519" 
d="M66 0l79 450h91l-6 -35q59 43 135 43q77 0 113.5 -51.5t21.5 -136.5l-47 -270h-92l47 270q9 47 -13.5 76.5t-67.5 29.5q-65 0 -111 -40l-59 -336h-91z" />
    <glyph glyph-name="o" unicode="o" horiz-adv-x="553" 
d="M376 458q105 0 158 -65q54 -65 35 -168q-18 -105 -94 -169t-181 -64t-159 64q-55 65 -35 169q20 105 95 168q77 65 181 65zM475 225q12 67 -20 109t-94 42t-108 -41.5t-58 -109.5t19.5 -110t93.5 -42t108.5 42t58.5 110z" />
    <glyph glyph-name="p" unicode="p" horiz-adv-x="541" 
d="M21 -250l124 700h91l-6 -35q59 43 136 43q97 0 143 -64q47 -65 29 -169q-20 -105 -93 -169t-176 -64q-65 0 -109 28l-48 -270h-91zM327 376q-65 0 -112 -41l-39 -224q32 -38 98 -38q63 0 110 42.5t59 109.5t-20.5 109t-95.5 42z" />
    <glyph glyph-name="q" unicode="q" 
d="M379 458q129 0 180 -80l-111 -628h-92l48 274q-56 -32 -124 -32q-98 0 -149 64q-50 66 -31 169q20 103 96 168q77 65 183 65zM308 73q66 0 113 45l40 227q-34 31 -99 31q-63 0 -109 -41.5t-58 -109.5t19.5 -110t93.5 -42z" />
    <glyph glyph-name="r" unicode="r" horiz-adv-x="346" 
d="M353 457q13 0 28 -3l-14 -80q-13 4 -35 4q-68 0 -119 -59l-56 -319h-91l79 450h91l-9 -51q61 58 126 58z" />
    <glyph glyph-name="s" unicode="s" horiz-adv-x="386" 
d="M404 402l-66 -56q-29 35 -73 35q-26 0 -44.5 -16t-22.5 -38q-4 -23 14.5 -39t46.5 -27t55 -24.5t43 -40t9 -65.5q-10 -60 -59 -99.5t-120 -39.5q-95 0 -142 63l66 56q13 -19 36 -31t47 -12q32 0 54 18.5t26 43.5q4 22 -14 37t-46 26t-55.5 24.5t-43.5 41t-9 66.5
q12 58 56 95.5t109 37.5q88 0 133 -56z" />
    <glyph glyph-name="t" unicode="t" horiz-adv-x="326" 
d="M151 378h-55l13 72h55l17 100h95l-17 -100h111l-13 -72h-111l-40 -231q-7 -34 9.5 -55.5t49.5 -21.5q21 0 39 9l-13 -77q-21 -10 -56 -10q-70 0 -103.5 42t-20.5 113z" />
    <glyph glyph-name="u" unicode="u" horiz-adv-x="527" 
d="M466 450h90l-46 -262q-17 -89 -80 -142q-64 -54 -152 -54t-135 54q-45 54 -29 142l47 262h94l-46 -262q-8 -51 15.5 -83t69.5 -32q47 0 82 32t44 83z" />
    <glyph glyph-name="v" unicode="v" horiz-adv-x="529" 
d="M487 450h102l-282 -450h-86l-123 450h102l84 -336z" />
    <glyph glyph-name="w" unicode="w" horiz-adv-x="790" 
d="M745 450h105l-251 -450h-96l-52 321l-164 -321h-96l-93 450h105l55 -338l170 338h92l51 -338z" />
    <glyph glyph-name="x" unicode="x" horiz-adv-x="519" 
d="M495 0h-106l-100 172l-159 -172h-106l215 230l-128 220h106l92 -162l150 162h106l-207 -220z" />
    <glyph glyph-name="y" unicode="y" horiz-adv-x="529" 
d="M487 450h102l-444 -700h-101l177 250l-123 450h102l84 -340z" />
    <glyph glyph-name="z" unicode="z" horiz-adv-x="472" 
d="M356 378h-239l13 72h374l-5 -30l-305 -348h243l-12 -72h-378l5 30z" />
    <glyph glyph-name="braceleft" unicode="{" horiz-adv-x="314" 
d="M243 -190l-12 -68q-71 0 -108 63q-37 62 -20 161l16 92q12 67 -1.5 111.5t-43.5 44.5l13 69q29 0 58 44q29 45 41 111l17 96q18 97 77 161q58 63 130 63l-12 -69q-30 0 -59 -44.5t-41 -110.5l-17 -96q-12 -65 -43 -115t-74 -75q74 -53 50 -190l-16 -92q-12 -66 1.5 -111
t43.5 -45z" />
    <glyph glyph-name="bar" unicode="|" horiz-adv-x="223" 
d="M112 -250h-91l177 1000h91z" />
    <glyph glyph-name="braceright" unicode="}" horiz-adv-x="314" 
d="M-8 -258l11 68q29 0 58 44q30 43 42 112l16 92q12 65 43.5 115t74.5 75q-36 25 -49.5 75t-1.5 115l17 96q12 66 -1.5 110.5t-43.5 44.5l13 69q71 0 108 -63q37 -62 19 -161l-17 -96q-12 -66 1.5 -110.5t43.5 -44.5l-12 -69q-29 0 -59 -44q-29 -44 -41 -112l-16 -92
q-16 -97 -76 -161q-59 -63 -130 -63z" />
    <glyph glyph-name="asciitilde" unicode="~" horiz-adv-x="432" 
d="M134 246h-60q8 50 45.5 81.5t86.5 31.5q20 0 39.5 -8.5t27.5 -14.5t27 -22q28 -24 62.5 -10.5t40.5 51.5h61q-9 -50 -47 -82t-87 -32q-37 0 -75 30.5t-58 30.5q-23 0 -41 -15.5t-22 -40.5z" />
    <glyph glyph-name="exclamdown" unicode="&#xa1;" horiz-adv-x="223" 
d="M171 343q-24 0 -37.5 17t-9.5 41t24 40.5t44 16.5t37.5 -16.5t9.5 -40.5t-23.5 -41t-44.5 -17zM21 -250l89 502h91l-89 -502h-91z" />
    <glyph glyph-name="cent" unicode="&#xa2;" horiz-adv-x="474" 
d="M290 -100h-52l16 94q-88 11 -130.5 73.5t-25.5 157.5q16 95 81 156q65 64 156 74l17 95h52l-16 -93q89 -5 138 -67l-66 -57q-28 39 -87 42l-53 -302q59 3 102 43l46 -57q-68 -61 -162 -66zM193 225q-10 -56 10.5 -95.5t65.5 -51.5l51 293q-49 -13 -83 -52t-44 -94z" />
    <glyph glyph-name="sterling" unicode="&#xa3;" horiz-adv-x="515" 
d="M166 314h-75l14 72h74l22 121q16 89 81 145q67 56 156 56q91 0 136 -56l-71 -61q-26 32 -76 32q-49 0 -86 -32.5t-45 -83.5l-22 -121h171l-13 -72h-171l-33 -188q18 -6 60 -32q40 -25 67 -25q25 0 42.5 15.5t21.5 40.5h74q-10 -59 -52 -96t-97 -37q-43 0 -95 32t-78 32
q-24 0 -42 -15.5t-22 -40.5h-73q7 44 33 77t66 47z" />
    <glyph glyph-name="currency" unicode="&#xa4;" 
d="M146 300q10 57 44 97l-69 84l60 51l70 -84q50 26 102 26q54 0 92 -26l100 84l42 -51l-99 -84q20 -42 10 -97q-9 -54 -45 -98l70 -83l-61 -52l-69 85q-48 -27 -101 -27q-56 0 -93 27l-99 -85l-42 52l97 83q-18 41 -9 98zM228 300q-8 -46 13.5 -76t62.5 -30q42 0 73 29.5
t39 76.5q9 46 -12.5 76t-62.5 30q-42 0 -73 -29.5t-40 -76.5z" />
    <glyph glyph-name="yen" unicode="&#xa5;" horiz-adv-x="673" 
d="M326 214h-134l9 52h134l5 29l-195 405h110l149 -312l259 312h110l-338 -406l-5 -28h133l-8 -52h-134l-13 -74h133l-9 -53h-134l-15 -87h-95l15 87h-134l9 53h135z" />
    <glyph glyph-name="brokenbar" unicode="&#xa6;" horiz-adv-x="223" 
d="M112 -250h-91l80 450h91zM198 750h91l-80 -450h-91z" />
    <glyph glyph-name="section" unicode="&#xa7;" horiz-adv-x="426" 
d="M251 442l166 -202l-71 -61l-169 204q-56 66 -42 149q13 79 75 127q61 49 148 49q97 0 145 -67l-68 -59q-30 44 -92 44q-42 0 -73.5 -26t-39.5 -68q-10 -56 21 -90zM254 8l-166 202l71 61l168 -205q58 -66 42 -148q-13 -78 -76 -127q-61 -49 -146 -49q-99 0 -145 67l68 59
q29 -44 91 -44q43 0 74.5 26.5t38.5 67.5q9 52 -20 90z" />
    <glyph glyph-name="dieresis" unicode="&#xa8;" horiz-adv-x="433" 
d="M168 572q5 23 23.5 38.5t40.5 15.5t35.5 -16t9.5 -38q-4 -23 -22.5 -39t-41.5 -16t-36 16t-9 39zM367 533q-13 16 -9 39t22 39q19 16 42 16t36 -16t9 -39t-23 -39q-18 -16 -41 -16t-36 16z" />
    <glyph glyph-name="copyright" unicode="&#xa9;" horiz-adv-x="803" 
d="M136 350q28 160 144 259t274 99q160 0 239 -99q81 -98 52 -259t-143 -259q-116 -99 -274 -99t-239 99t-53 259zM205 350q-23 -136 41 -220t191 -84q126 0 221 84q94 85 118 220q24 136 -40 219q-64 85 -191 85q-128 0 -222 -85q-94 -83 -118 -219zM377 350
q-11 -57 18 -94t84 -37q58 0 97 36l29 -34q-59 -50 -138 -50t-120 49.5t-27 129.5t72 129q59 50 139 50q79 0 120 -50l-41 -34q-28 36 -85 36q-55 0 -96.5 -36.5t-51.5 -94.5z" />
    <glyph glyph-name="ordfeminine" unicode="&#xaa;" horiz-adv-x="307" 
d="M293 704q75 0 100 -46l-36 -206h-56l3 17q-32 -22 -72 -22q-52 0 -78 35.5t-16 93.5q11 57 53.5 92.5t101.5 35.5zM196 576q-6 -35 10.5 -57t49.5 -22t56 19l21 123q-17 16 -50 16t-56.5 -22t-30.5 -57z" />
    <glyph glyph-name="guillemotleft" unicode="&#xab;" horiz-adv-x="470" 
d="M271 124l-55 -47l-142 173l203 172l38 -46l-148 -126zM444 124l-55 -47l-142 173l203 172l38 -46l-148 -126z" />
    <glyph glyph-name="logicalnot" unicode="&#xac;" horiz-adv-x="500" 
d="M420 264h-320l13 72h392l-33 -186h-72z" />
    <glyph glyph-name="uni00AD" unicode="&#xad;" horiz-adv-x="340" 
d="M326 230h-232l13 72h232z" />
    <glyph glyph-name="registered" unicode="&#xae;" horiz-adv-x="803" 
d="M136 350q28 160 144 259t274 99q160 0 239 -99q81 -98 52 -259t-143 -259q-116 -99 -274 -99t-239 99t-53 259zM205 350q-23 -136 41 -220t191 -84q126 0 221 84q94 85 118 220q24 136 -40 219q-64 85 -191 85q-128 0 -222 -85q-94 -83 -118 -219zM586 174h-62l-49 147
h-38l-26 -147h-56l62 350h106q49 0 74 -28t16 -74q-6 -36 -28.5 -61t-55.5 -35zM515 477h-51l-19 -110h50q23 0 40.5 15t21.5 40t-7.5 40t-34.5 15z" />
    <glyph glyph-name="overscore" unicode="&#xaf;" horiz-adv-x="367" 
d="M404 537h-252l9 56h253z" />
    <glyph glyph-name="degree" unicode="&#xb0;" horiz-adv-x="288" 
d="M239 495q-45 0 -68.5 29t-15.5 76t42 76t80 29t69 -29t15 -76t-41.5 -76t-80.5 -29zM225 641q-18 -16 -22.5 -41t7.5 -41q13 -16 38 -16t43 16q19 16 23 41t-9 41t-37 16t-43 -16z" />
    <glyph glyph-name="plusminus" unicode="&#xb1;" horiz-adv-x="430" 
d="M226 266h-125l12 72h125l22 125h72l-22 -125h125l-12 -72h-125l-23 -126h-72zM383 37h-323l13 72h322z" />
    <glyph glyph-name="twosuperior" unicode="&#xb2;" horiz-adv-x="281" 
d="M91 350l8 44l175 149q21 17 25 48q6 29 -6.5 47.5t-37.5 18.5t-44.5 -18.5t-24.5 -47.5h-55q10 51 46 82t86 31q49 0 74.5 -31.5t16.5 -81.5q-7 -47 -49 -84l-132 -112h147l-9 -45h-220z" />
    <glyph glyph-name="threesuperior" unicode="&#xb3;" horiz-adv-x="289" 
d="M244 517h-23l8 44h23q21 0 36 13.5t19 35.5q10 34 -23 44q-31 9 -56 -13q-13 -13 -15 -31h-55q8 41 41 67.5t78 26.5t69 -26.5t16 -67.5q-8 -49 -50 -71q46 -26 35 -85q-9 -48 -45.5 -78t-87.5 -30t-77.5 30t-17.5 78h54q-5 -27 9 -44t40 -17t46 17t25 44q5 28 -9 45.5
t-40 17.5z" />
    <glyph glyph-name="acute" unicode="&#xb4;" horiz-adv-x="266" 
d="M180 506l-39 47l155 132l38 -47z" />
    <glyph glyph-name="mu" unicode="&#xb5;" horiz-adv-x="527" 
d="M-20 -200l10 60q24 0 40 13t20 37l44 254l4 24l47 262h94l-46 -262q-8 -51 15.5 -83t69.5 -32q47 0 82 32t44 83l46 262h90l-46 -262q-17 -89 -80 -142q-64 -54 -152 -54q-62 0 -103 26l-19 -110q-9 -52 -42 -82.5t-82 -30.5q-21 0 -36 5z" />
    <glyph glyph-name="paragraph" unicode="&#xb6;" horiz-adv-x="599" 
d="M393 700h114l-123 -700h-88l54 312h-25q-93 0 -140 53t-31 141q15 88 80 141q67 53 159 53zM549 0h-88l123 700h88z" />
    <glyph glyph-name="middot" unicode="&#xb7;" horiz-adv-x="223" 
d="M103 250q4 24 23.5 40.5t43.5 16.5q25 0 38.5 -16.5t9.5 -40.5q-5 -24 -24.5 -41t-43.5 -17q-25 0 -38.5 17t-8.5 41z" />
    <glyph glyph-name="cedilla" unicode="&#xb8;" horiz-adv-x="268" 
d="M108 0h39l-10 -57q30 -6 44 -26.5t8 -52.5q-7 -37 -34.5 -59.5t-65.5 -22.5q-40 0 -59 25l34 29q13 -13 32 -13q20 0 34.5 12t18.5 31q3 21 -11.5 33t-46.5 12z" />
    <glyph glyph-name="onesuperior" unicode="&#xb9;" horiz-adv-x="187" 
d="M195 654l-56 -9l7 41l110 17l-62 -353h-52z" />
    <glyph glyph-name="ordmasculine" unicode="&#xba;" horiz-adv-x="315" 
d="M138 576q11 57 53 92.5t100 35.5t87.5 -35.5t19.5 -92.5q-10 -58 -52 -93.5t-101 -35.5q-57 0 -87 35.5t-20 93.5zM196 576q-6 -35 10 -57t48 -22t56 22t31 57q6 35 -10.5 57t-48.5 22t-55.5 -22t-30.5 -57z" />
    <glyph glyph-name="guillemotright" unicode="&#xbb;" horiz-adv-x="470" 
d="M338 422l142 -172l-203 -173l-38 47l148 126l-105 126zM165 422l142 -172l-203 -173l-38 47l148 126l-105 126z" />
    <glyph glyph-name="onequarter" unicode="&#xbc;" horiz-adv-x="637" 
d="M195 654l-56 -9l7 41l110 17l-62 -353h-52zM159 0h-67l495 700h67zM573 0h-52l10 64h-156l4 23l201 263h52l-43 -242h30l-7 -44h-28zM571 271l-123 -163h93z" />
    <glyph glyph-name="onehalf" unicode="&#xbd;" horiz-adv-x="690" 
d="M195 654l-56 -9l7 41l110 17l-62 -353h-52zM159 0h-67l495 700h67zM439 0l7 44l175 149q18 14 26 48q5 29 -7.5 47.5t-37.5 18.5q-26 0 -45 -18.5t-23 -47.5h-55q9 50 45.5 81.5t86.5 31.5q49 0 74 -31.5t17 -81.5q-11 -51 -50 -84l-132 -112h147l-8 -45h-220z" />
    <glyph glyph-name="threequarters" unicode="&#xbe;" horiz-adv-x="659" 
d="M244 517h-23l8 44h23q21 0 36 13.5t19 35.5q10 34 -23 44q-31 9 -56 -13q-13 -13 -15 -31h-55q8 41 41 67.5t78 26.5t69 -26.5t16 -67.5q-8 -49 -50 -71q46 -26 35 -85q-9 -48 -45.5 -78t-87.5 -30t-77.5 30t-17.5 78h54q-5 -27 9 -44t40 -17t46 17t25 44q5 28 -9 45.5
t-40 17.5zM213 0h-67l495 700h66zM604 0h-52l10 64h-157l4 23l202 263h52l-43 -242h30l-7 -44h-28zM601 271l-122 -163h93z" />
    <glyph glyph-name="questiondown" unicode="&#xbf;" horiz-adv-x="474" 
d="M372 -124l49 -59q-96 -75 -209 -75q-94 0 -139 53t-32 129q13 74 75 119q6 4 25.5 18t27 20t23 20.5t23.5 26t16 29.5t12 37l11 58h91l-11 -58q-18 -95 -79 -146q-9 -8 -46.5 -35t-52.5 -45t-20 -42q-7 -42 17 -72.5t75 -30.5q76 0 144 53zM383 401q-5 -24 -24.5 -41
t-43.5 -17t-38 17t-9 41q4 24 24 40.5t44 16.5t37.5 -16.5t9.5 -40.5z" />
    <glyph glyph-name="Agrave" unicode="&#xc0;" horiz-adv-x="755" 
d="M733 0h-110l-48 185h-331l-112 -185h-110l434 700h89zM555 270l-76 308l-186 -308h262zM420 865l55 46l109 -132l-55 -46z" />
    <glyph glyph-name="Aacute" unicode="&#xc1;" horiz-adv-x="755" 
d="M733 0h-110l-48 185h-331l-112 -185h-110l434 700h89zM555 270l-76 308l-186 -308h262zM484 733l-39 46l156 132l38 -46z" />
    <glyph glyph-name="Acircumflex" unicode="&#xc2;" horiz-adv-x="755" 
d="M733 0h-110l-48 185h-331l-112 -185h-110l434 700h89zM555 270l-76 308l-186 -308h262zM382 779l156 132l108 -132l-54 -46l-70 85l-101 -85z" />
    <glyph glyph-name="Atilde" unicode="&#xc3;" horiz-adv-x="755" 
d="M733 0h-110l-48 185h-331l-112 -185h-110l434 700h89zM555 270l-76 308l-186 -308h262zM418 759h-51q7 42 37 68t69 26q32 0 56 -24q26 -23 44 -23q17 0 30.5 11.5t16.5 30.5h51q-8 -41 -37.5 -67t-69.5 -26q-32 0 -57 23q-24 24 -43 24q-17 0 -30 -12t-16 -31z" />
    <glyph glyph-name="Adieresis" unicode="&#xc4;" horiz-adv-x="755" 
d="M733 0h-110l-48 185h-331l-112 -185h-110l434 700h89zM555 270l-76 308l-186 -308h262zM369 798q3 22 21.5 38t41.5 16t36 -15.5t9 -38.5q-4 -22 -22.5 -38t-41.5 -16t-35.5 16t-8.5 38zM559 798q4 23 22 39t41 16t36.5 -16t9.5 -39q-5 -23 -23.5 -38.5t-41.5 -15.5
t-36 15.5t-8 38.5z" />
    <glyph glyph-name="Aring" unicode="&#xc5;" horiz-adv-x="755" 
d="M733 0h-110l-48 185h-331l-112 -185h-110l434 700h89zM555 270l-76 308l-186 -308h262zM611 817q-8 -41 -37 -66.5t-69 -25.5q-39 0 -60 25q-20 27 -13 67q8 41 36 66t69 25q40 0 60.5 -25t13.5 -66zM472 816q-4 -22 7.5 -36t32.5 -14q32 -4 50.5 30t-0.5 57
q-18 24 -51 10.5t-39 -47.5z" />
    <glyph glyph-name="AE" unicode="&#xc6;" horiz-adv-x="776" 
d="M839 621h-257l-41 -230h226l-14 -79h-226l-41 -234h263l-14 -78h-357l32 185h-166l-112 -185h-110l434 700h397zM480 579l-187 -309h132z" />
    <glyph glyph-name="Ccedilla" unicode="&#xc7;" horiz-adv-x="696" 
d="M234 350q-22 -120 37 -197q60 -76 176 -76q121 0 206 75l50 -60q-110 -93 -257 -99l-9 -50q65 -13 53 -79q-7 -37 -35 -59q-29 -23 -66 -23q-39 0 -58 25l34 29q13 -13 32 -13q20 0 34.5 12t18.5 31q3 21 -11.5 33t-46.5 12l15 82q-149 6 -224 104q-75 99 -47 253
q28 160 144 259t274 99q159 0 240 -100l-71 -61q-60 76 -179 76q-117 0 -203 -76q-86 -77 -107 -197z" />
    <glyph glyph-name="Egrave" unicode="&#xc8;" horiz-adv-x="491" 
d="M551 621h-280l-40 -230h248l-14 -79h-248l-41 -234h284l-13 -78h-380l123 700h375zM298 865l55 46l108 -132l-54 -46z" />
    <glyph glyph-name="Eacute" unicode="&#xc9;" horiz-adv-x="491" 
d="M551 621h-280l-40 -230h248l-14 -79h-248l-41 -234h284l-13 -78h-380l123 700h375zM361 733l-38 46l155 132l38 -46z" />
    <glyph glyph-name="Ecircumflex" unicode="&#xca;" horiz-adv-x="491" 
d="M551 621h-280l-40 -230h248l-14 -79h-248l-41 -234h284l-13 -78h-380l123 700h375zM260 779l155 132l109 -132l-54 -46l-71 85l-100 -85z" />
    <glyph glyph-name="Edieresis" unicode="&#xcb;" horiz-adv-x="491" 
d="M551 621h-280l-40 -230h248l-14 -79h-248l-41 -234h284l-13 -78h-380l123 700h375zM246 798q4 22 22.5 38t41.5 16q22 0 35.5 -16t9.5 -38q-5 -23 -23.5 -38.5t-40.5 -15.5q-23 0 -36 15.5t-9 38.5zM545 798q-4 -22 -23 -38t-42 -16q-22 -2 -34.5 14.5t-9.5 40t22 38.5
q31 25 62 11t25 -50z" />
    <glyph glyph-name="Igrave" unicode="&#xcc;" horiz-adv-x="226" 
d="M160 0h-94l123 700h94zM156 865l55 46l108 -132l-54 -46z" />
    <glyph glyph-name="Iacute" unicode="&#xcd;" horiz-adv-x="226" 
d="M160 0h-94l123 700h94zM219 733l-38 46l155 132l39 -46z" />
    <glyph glyph-name="Icircumflex" unicode="&#xce;" horiz-adv-x="226" 
d="M160 0h-94l123 700h94zM118 779l156 132l108 -132l-54 -46l-70 85l-101 -85z" />
    <glyph glyph-name="Idieresis" unicode="&#xcf;" horiz-adv-x="226" 
d="M160 0h-94l123 700h94zM182 852q22 0 35 -15.5t10 -38.5q-4 -22 -23 -38t-42 -16q-22 0 -35 15.5t-9 38.5t22.5 38.5t41.5 15.5zM281 798q4 23 22 39t41 16t36.5 -16t9.5 -39q-5 -23 -23.5 -38.5t-41.5 -15.5t-35.5 16t-8.5 38z" />
    <glyph glyph-name="Eth" unicode="&#xd0;" horiz-adv-x="705" 
d="M145 314h-50l13 72h51l55 314h212q160 0 240 -96q81 -95 53 -254q-29 -159 -142 -255q-115 -95 -274 -95h-212zM621 350q21 121 -37 194q-59 74 -172 74h-114l-41 -232h151l-14 -72h-151l-40 -232h115q115 0 197 73q83 73 106 195z" />
    <glyph glyph-name="Ntilde" unicode="&#xd1;" horiz-adv-x="710" 
d="M67 0l123 700h63l326 -519l92 519h95l-123 -700h-63l-327 519l-91 -519h-95zM395 759h-51q7 42 37 68t69 26q32 0 56 -24q26 -23 44 -23q17 0 30.5 11.5t16.5 30.5h51q-7 -41 -37 -67t-70 -26q-32 0 -57 23q-24 24 -42 24t-31 -12t-16 -31z" />
    <glyph glyph-name="Ograve" unicode="&#xd2;" horiz-adv-x="803" 
d="M136 350q28 160 144 259t274 99q160 0 239 -99q81 -98 52 -259t-143 -259q-116 -99 -274 -99t-239 99t-53 259zM234 350q-22 -121 36 -197t173 -76t198 76q85 76 106 197q23 122 -36 197q-57 76 -172 76q-114 0 -199 -76t-106 -197zM472 865l55 46l109 -132l-55 -46z" />
    <glyph glyph-name="Oacute" unicode="&#xd3;" horiz-adv-x="803" 
d="M136 350q28 160 144 259t274 99q160 0 239 -99q81 -98 52 -259t-143 -259q-116 -99 -274 -99t-239 99t-53 259zM234 350q-22 -121 36 -197t173 -76t198 76q85 76 106 197q23 122 -36 197q-57 76 -172 76q-114 0 -199 -76t-106 -197zM536 733l-39 46l156 132l38 -46z" />
    <glyph glyph-name="Ocircumflex" unicode="&#xd4;" horiz-adv-x="803" 
d="M136 350q28 160 144 259t274 99q160 0 239 -99q81 -98 52 -259t-143 -259q-116 -99 -274 -99t-239 99t-53 259zM234 350q-22 -121 36 -197t173 -76t198 76q85 76 106 197q23 122 -36 197q-57 76 -172 76q-114 0 -199 -76t-106 -197zM434 779l156 132l108 -132l-54 -46
l-70 85l-101 -85z" />
    <glyph glyph-name="Otilde" unicode="&#xd5;" horiz-adv-x="803" 
d="M136 350q28 160 144 259t274 99q160 0 239 -99q81 -98 52 -259t-143 -259q-116 -99 -274 -99t-239 99t-53 259zM234 350q-22 -121 36 -197t173 -76t198 76q85 76 106 197q23 122 -36 197q-57 76 -172 76q-114 0 -199 -76t-106 -197zM470 759h-51q7 42 37 68t69 26
q32 0 56 -24q26 -23 44 -23q17 0 30.5 11.5t16.5 30.5h51q-7 -41 -37 -67t-70 -26q-32 0 -57 23q-24 24 -42 24t-31 -12t-16 -31z" />
    <glyph glyph-name="Odieresis" unicode="&#xd6;" horiz-adv-x="803" 
d="M136 350q28 160 144 259t274 99q160 0 239 -99q81 -98 52 -259t-143 -259q-116 -99 -274 -99t-239 99t-53 259zM234 350q-22 -121 36 -197t173 -76t198 76q85 76 106 197q23 122 -36 197q-57 76 -172 76q-114 0 -199 -76t-106 -197zM421 798q4 23 22.5 38.5t40.5 15.5
q23 0 36 -15.5t9 -38.5q-4 -22 -22.5 -38t-41.5 -16t-35.5 16t-8.5 38zM611 798q4 23 22 39t41 16t36.5 -16t9.5 -39q-5 -23 -23.5 -38.5t-41.5 -15.5t-36 15.5t-8 38.5z" />
    <glyph glyph-name="multiply" unicode="&#xd7;" horiz-adv-x="430" 
d="M256 236l-131 -112l-43 51l132 112l-92 112l60 51l92 -112l132 112l42 -51l-132 -112l92 -112l-59 -51z" />
    <glyph glyph-name="Oslash" unicode="&#xd8;" horiz-adv-x="803" 
d="M141 -8h-97l110 107q-73 97 -46 251q28 160 144 259t274 99q118 0 198 -60l62 60h96l-111 -107q73 -100 46 -251q-29 -161 -143 -259q-116 -99 -274 -99q-119 0 -198 59zM206 350q-19 -106 24 -179l422 408q-58 44 -141 44q-114 0 -199 -76t-106 -197zM719 350
q18 107 -23 178l-422 -407q56 -44 141 -44q115 0 198 76q85 76 106 197z" />
    <glyph glyph-name="Ugrave" unicode="&#xd9;" horiz-adv-x="665" 
d="M568 256l79 444h95l-78 -444q-21 -117 -108 -191q-85 -73 -205 -73q-118 0 -179 73q-60 73 -39 191l78 444h95l-78 -444q-14 -80 24 -129q39 -50 113 -50q77 0 133 50q56 49 70 129zM396 865l55 46l108 -132l-54 -46z" />
    <glyph glyph-name="Uacute" unicode="&#xda;" horiz-adv-x="665" 
d="M568 256l79 444h95l-78 -444q-21 -117 -108 -191q-85 -73 -205 -73q-118 0 -179 73q-60 73 -39 191l78 444h95l-78 -444q-14 -80 24 -129q39 -50 113 -50q77 0 133 50q56 49 70 129zM459 733l-38 46l155 132l39 -46z" />
    <glyph glyph-name="Ucircumflex" unicode="&#xdb;" horiz-adv-x="665" 
d="M568 256l79 444h95l-78 -444q-21 -117 -108 -191q-85 -73 -205 -73q-118 0 -179 73q-60 73 -39 191l78 444h95l-78 -444q-14 -80 24 -129q39 -50 113 -50q77 0 133 50q56 49 70 129zM358 779l156 132l108 -132l-54 -46l-71 85l-100 -85z" />
    <glyph glyph-name="Udieresis" unicode="&#xdc;" horiz-adv-x="665" 
d="M568 256l79 444h95l-78 -444q-21 -117 -108 -191q-85 -73 -205 -73q-118 0 -179 73q-60 73 -39 191l78 444h95l-78 -444q-14 -80 24 -129q39 -50 113 -50q77 0 133 50q56 49 70 129zM345 798q3 22 21.5 38t41.5 16t36 -16t9 -38q-5 -23 -23.5 -38.5t-40.5 -15.5
q-23 0 -36 15.5t-8 38.5zM643 798q-4 -22 -23 -38t-42 -16q-22 -2 -34.5 14.5t-9.5 40t22 38.5q31 25 62 11t25 -50z" />
    <glyph glyph-name="Yacute" unicode="&#xdd;" horiz-adv-x="673" 
d="M383 0h-95l52 295l-195 405h110l149 -312l259 312h110l-338 -406zM442 733l-39 46l156 132l38 -46z" />
    <glyph glyph-name="Thorn" unicode="&#xde;" horiz-adv-x="524" 
d="M165 0h-98l123 700h98l-24 -141h99q96 0 144 -54.5t32 -145.5q-16 -90 -84 -146q-67 -54 -163 -54h-99zM441 359q10 53 -15.5 86t-76.5 33h-100l-42 -238h100q51 0 88 33t46 86z" />
    <glyph glyph-name="germandbls" unicode="&#xdf;" horiz-adv-x="605" 
d="M259 563l-144 -813h-94l144 813q15 87 82 141t159 54q93 0 139 -54q48 -54 33 -140q-11 -63 -50.5 -110t-96.5 -66q-4 -26 3.5 -46t23 -31t35 -23t38.5 -22t34 -27.5t21 -40.5t0 -61q-10 -60 -58 -103q-48 -42 -121 -42q-97 0 -143 63l66 56q31 -43 84 -43q32 0 54 19
t26 45q9 47 -56 78q-28 15 -41 23.5t-33.5 28.5t-26.5 48t1 66l13 74q51 0 86 31q37 31 46 82q9 49 -17 81t-75 32q-50 0 -86.5 -31.5t-45.5 -81.5z" />
    <glyph glyph-name="agrave" unicode="&#xe0;" 
d="M379 458q129 0 180 -80l-66 -378h-92l6 34q-60 -42 -134 -42q-96 0 -144 64q-49 65 -29 169q20 103 96 168q77 65 183 65zM421 113l40 232q-34 31 -99 31q-63 0 -109 -41.5t-58 -109.5q-12 -67 20 -110q31 -42 96 -42q64 0 110 40zM301 638l55 47l108 -132l-54 -47z" />
    <glyph glyph-name="aacute" unicode="&#xe1;" 
d="M379 458q129 0 180 -80l-66 -378h-92l6 34q-60 -42 -134 -42q-96 0 -144 64q-49 65 -29 169q20 103 96 168q77 65 183 65zM421 113l40 232q-34 31 -99 31q-63 0 -109 -41.5t-58 -109.5q-12 -67 20 -110q31 -42 96 -42q64 0 110 40zM364 506l-39 47l156 132l37 -47z" />
    <glyph glyph-name="acircumflex" unicode="&#xe2;" 
d="M379 458q129 0 180 -80l-66 -378h-92l6 34q-60 -42 -134 -42q-96 0 -144 64q-49 65 -29 169q20 103 96 168q77 65 183 65zM421 113l40 232q-34 31 -99 31q-63 0 -109 -41.5t-58 -109.5q-12 -67 20 -110q31 -42 96 -42q64 0 110 40zM264 553l155 132l109 -132l-55 -47
l-71 86l-100 -86z" />
    <glyph glyph-name="atilde" unicode="&#xe3;" 
d="M379 458q129 0 180 -80l-66 -378h-92l6 34q-60 -42 -134 -42q-96 0 -144 64q-49 65 -29 169q20 103 96 168q77 65 183 65zM421 113l40 232q-34 31 -99 31q-63 0 -109 -41.5t-58 -109.5q-12 -67 20 -110q31 -42 96 -42q64 0 110 40zM299 533h-51q7 41 37 67t69 26
q32 0 56 -24q26 -23 44 -23q17 0 30.5 12t16.5 31h51q-7 -42 -37 -68t-70 -26q-32 0 -57 23q-22 24 -42 24q-17 0 -30.5 -11.5t-16.5 -30.5z" />
    <glyph glyph-name="adieresis" unicode="&#xe4;" 
d="M379 458q129 0 180 -80l-66 -378h-92l6 34q-60 -42 -134 -42q-96 0 -144 64q-49 65 -29 169q20 103 96 168q77 65 183 65zM421 113l40 232q-34 31 -99 31q-63 0 -109 -41.5t-58 -109.5q-12 -67 20 -110q31 -42 96 -42q64 0 110 40zM547 572q-5 -24 -23 -39.5t-41 -15.5
t-36 16t-9 39t22.5 39t41.5 16t36 -16t9 -39zM357 572q-4 -23 -22.5 -39t-41.5 -16t-36 16t-9 39t22.5 38.5t41.5 15.5t36 -16t9 -38z" />
    <glyph glyph-name="aring" unicode="&#xe5;" 
d="M379 458q129 0 180 -80l-66 -378h-92l6 34q-60 -42 -134 -42q-96 0 -144 64q-49 65 -29 169q20 103 96 168q77 65 183 65zM421 113l40 232q-34 31 -99 31q-63 0 -109 -41.5t-58 -109.5q-12 -67 20 -110q31 -42 96 -42q64 0 110 40zM492 590q-7 -41 -36.5 -66t-69.5 -25
t-60 25t-13 66t36.5 66.5t69.5 25.5t60.5 -25.5t12.5 -66.5zM452 590q4 22 -7.5 36.5t-33.5 14.5q-31 3 -49.5 -31.5t-0.5 -55.5q18 -23 52.5 -10.5t38.5 46.5z" />
    <glyph glyph-name="ae" unicode="&#xe6;" horiz-adv-x="714" 
d="M343 264l8 44q6 31 -12.5 53t-56.5 22q-57 0 -100 -35l-41 49q71 61 162 61q74 0 110 -46q62 46 144 46q98 0 140.5 -68.5t21.5 -190.5h-296l-14 -79q32 -47 104 -47q69 0 116 43l45 -57q-76 -67 -182 -67q-114 0 -163 69q-67 -69 -150 -69q-60 0 -89 36t-20 90
q12 69 81 108q68 40 161 40q13 0 31 -2zM443 308l-8 -45h204q2 55 -22 85t-72 30q-59 0 -100 -42q0 -4 -2 -28zM316 109l17 93q-12 3 -28 3q-56 0 -95 -21t-45 -56q-6 -25 8.5 -43t47.5 -18q51 0 95 42z" />
    <glyph glyph-name="ccedilla" unicode="&#xe7;" horiz-adv-x="474" 
d="M194 225q-12 -68 20 -110t96 -42q67 0 113 43l46 -57q-69 -61 -164 -66l-9 -50q65 -13 53 -79q-7 -37 -35 -59q-29 -23 -66 -23q-39 0 -58 25l34 29q18 -21 48.5 -9.5t35.5 39.5q4 21 -10.5 33t-46.5 12l14 82q-91 7 -138 71q-46 63 -28 161q20 104 94 168q77 65 180 65
q101 0 154 -68l-66 -57q-30 43 -98 43q-63 0 -110 -42t-59 -109z" />
    <glyph glyph-name="egrave" unicode="&#xe8;" horiz-adv-x="506" 
d="M521 199h-328q-4 -58 29 -92t93 -34q69 0 116 43l45 -57q-76 -67 -182 -67q-107 0 -159 64q-53 66 -34 172q18 101 89 166q71 64 169 64t140.5 -68.5t21.5 -190.5zM347 378q-49 0 -87.5 -31t-54.5 -84h236q2 54 -22 84.5t-72 30.5zM282 638l55 47l109 -132l-54 -47z" />
    <glyph glyph-name="eacute" unicode="&#xe9;" horiz-adv-x="506" 
d="M521 199h-328q-4 -58 29 -92t93 -34q69 0 116 43l45 -57q-76 -67 -182 -67q-107 0 -159 64q-53 66 -34 172q18 101 89 166q71 64 169 64t140.5 -68.5t21.5 -190.5zM347 378q-49 0 -87.5 -31t-54.5 -84h236q2 54 -22 84.5t-72 30.5zM344 506l-39 47l156 132l38 -47z" />
    <glyph glyph-name="ecircumflex" unicode="&#xea;" horiz-adv-x="506" 
d="M521 199h-328q-4 -58 29 -92t93 -34q69 0 116 43l45 -57q-76 -67 -182 -67q-107 0 -159 64q-53 66 -34 172q18 101 89 166q71 64 169 64t140.5 -68.5t21.5 -190.5zM347 378q-49 0 -87.5 -31t-54.5 -84h236q2 54 -22 84.5t-72 30.5zM244 553l156 132l108 -132l-54 -47
l-71 86l-100 -86z" />
    <glyph glyph-name="edieresis" unicode="&#xeb;" horiz-adv-x="506" 
d="M521 199h-328q-4 -58 29 -92t93 -34q69 0 116 43l45 -57q-76 -67 -182 -67q-107 0 -159 64q-53 66 -34 172q18 101 89 166q71 64 169 64t140.5 -68.5t21.5 -190.5zM347 378q-49 0 -87.5 -31t-54.5 -84h236q2 54 -22 84.5t-72 30.5zM231 572q4 22 22 38t41 16t36 -16
t9 -38q-5 -24 -23 -39.5t-41 -15.5t-35.5 16t-8.5 39zM429 533q-13 16 -9 39t22 39q19 16 42 16t36 -16t9 -39t-23 -39q-18 -16 -41 -16t-36 16z" />
    <glyph glyph-name="igrave" unicode="&#xec;" horiz-adv-x="223" 
d="M114 638l55 47l109 -132l-55 -47zM157 0h-91l79 450h91z" />
    <glyph glyph-name="iacute" unicode="&#xed;" horiz-adv-x="223" 
d="M178 506l-39 47l156 132l37 -47zM157 0h-91l79 450h91z" />
    <glyph glyph-name="icircumflex" unicode="&#xee;" horiz-adv-x="223" 
d="M157 0h-91l79 450h91zM76 553l156 132l108 -132l-54 -47l-71 86l-100 -86z" />
    <glyph glyph-name="idieresis" unicode="&#xef;" horiz-adv-x="223" 
d="M157 0h-91l79 450h91zM78 572q4 22 22 38t41 16t36 -16t9 -38q-4 -23 -22.5 -39t-41.5 -16t-35.5 16t-8.5 39zM246 533q-13 16 -9 39t22 39q19 16 42 16t36 -16t9 -39t-23 -39q-18 -16 -41 -16t-36 16z" />
    <glyph glyph-name="eth" unicode="&#xf0;" horiz-adv-x="553" 
d="M375 579l-98 -50l-24 61l86 45l-50 78l91 45l47 -77l94 49l26 -62l-84 -43q74 -146 97 -224q26 -85 11 -167q-20 -113 -95 -177q-76 -65 -181 -65q-106 0 -160 65q-53 66 -34 169q18 104 94 168t180 64q39 0 67 -15q-21 51 -67 136zM475 225q12 67 -20 109t-94 42
t-108 -41.5t-58 -109.5t19.5 -110t93.5 -42t108.5 42t58.5 110z" />
    <glyph glyph-name="ntilde" unicode="&#xf1;" horiz-adv-x="519" 
d="M66 0l79 450h91l-6 -35q59 43 135 43q77 0 113.5 -51.5t21.5 -136.5l-47 -270h-92l47 270q9 47 -13.5 76.5t-67.5 29.5q-65 0 -111 -40l-59 -336h-91zM254 533h-50q7 41 36.5 67t69.5 26q32 0 56 -24q26 -23 43 -23q18 0 31 12t17 31h50q-7 -42 -37 -68t-70 -26
q-31 0 -56 23q-22 24 -42 24q-17 0 -30.5 -11.5t-17.5 -30.5z" />
    <glyph glyph-name="ograve" unicode="&#xf2;" horiz-adv-x="553" 
d="M376 458q105 0 158 -65q54 -65 35 -168q-18 -105 -94 -169t-181 -64t-159 64q-55 65 -35 169q20 105 95 168q77 65 181 65zM475 225q12 67 -20 109t-94 42t-108 -41.5t-58 -109.5t19.5 -110t93.5 -42t108.5 42t58.5 110zM298 638l55 47l109 -132l-54 -47z" />
    <glyph glyph-name="oacute" unicode="&#xf3;" horiz-adv-x="553" 
d="M376 458q105 0 158 -65q54 -65 35 -168q-18 -105 -94 -169t-181 -64t-159 64q-55 65 -35 169q20 105 95 168q77 65 181 65zM475 225q12 67 -20 109t-94 42t-108 -41.5t-58 -109.5t19.5 -110t93.5 -42t108.5 42t58.5 110zM362 506l-39 47l156 132l38 -47z" />
    <glyph glyph-name="ocircumflex" unicode="&#xf4;" horiz-adv-x="553" 
d="M376 458q105 0 158 -65q54 -65 35 -168q-18 -105 -94 -169t-181 -64t-159 64q-55 65 -35 169q20 105 95 168q77 65 181 65zM475 225q12 67 -20 109t-94 42t-108 -41.5t-58 -109.5t19.5 -110t93.5 -42t108.5 42t58.5 110zM261 553l155 132l109 -132l-55 -47l-70 86
l-101 -86z" />
    <glyph glyph-name="otilde" unicode="&#xf5;" horiz-adv-x="553" 
d="M376 458q105 0 158 -65q54 -65 35 -168q-18 -105 -94 -169t-181 -64t-159 64q-55 65 -35 169q20 105 95 168q77 65 181 65zM475 225q12 67 -20 109t-94 42t-108 -41.5t-58 -109.5t19.5 -110t93.5 -42t108.5 42t58.5 110zM296 533h-51q7 41 36.5 67t69.5 26q32 0 56 -24
q26 -23 44 -23q17 0 30.5 12t16.5 31h50q-7 -42 -36.5 -68t-70.5 -26q-31 0 -56 23q-23 24 -42 24q-17 0 -30.5 -11.5t-16.5 -30.5z" />
    <glyph glyph-name="odieresis" unicode="&#xf6;" horiz-adv-x="553" 
d="M376 458q105 0 158 -65q54 -65 35 -168q-18 -105 -94 -169t-181 -64t-159 64q-55 65 -35 169q20 105 95 168q77 65 181 65zM475 225q12 67 -20 109t-94 42t-108 -41.5t-58 -109.5t19.5 -110t93.5 -42t108.5 42t58.5 110zM247 572q4 22 22 38t41 16t36 -16t9 -38
q-4 -23 -22.5 -39t-41.5 -16t-35.5 16t-8.5 39zM546 572q-5 -24 -23.5 -39.5t-41.5 -15.5t-36 16t-9 39t22.5 39t41.5 16t36.5 -16t9.5 -39z" />
    <glyph glyph-name="divide" unicode="&#xf7;" horiz-adv-x="500" 
d="M487 234h-392l12 72h392zM278 159q22 0 34 -15t9 -38q-5 -34 -41.5 -48.5t-55.5 10.5q-20 26 -0.5 58.5t54.5 32.5zM335 486q23 0 35 -15.5t8 -37.5t-22 -37.5t-40 -15.5t-34.5 15.5t-8.5 37.5t22 37.5t40 15.5z" />
    <glyph glyph-name="oslash" unicode="&#xf8;" horiz-adv-x="553" 
d="M137 -8h-93l67 70q-48 64 -30 163q20 105 95 168q77 65 181 65q63 0 109 -25l30 32h93l-71 -75q50 -64 32 -165q-18 -105 -94 -169t-181 -64q-66 0 -113 26zM462 225q10 55 -10 97l-229 -240q27 -15 65 -15q64 0 113 44q49 43 61 114zM169 225q-9 -53 8 -93l228 238
q-27 13 -61 13q-64 0 -114 -44q-47 -43 -61 -114z" />
    <glyph glyph-name="ugrave" unicode="&#xf9;" horiz-adv-x="527" 
d="M466 450h90l-46 -262q-17 -89 -80 -142q-64 -54 -152 -54t-135 54q-45 54 -29 142l47 262h94l-46 -262q-8 -51 15.5 -83t69.5 -32q47 0 82 32t44 83zM282 638l55 47l108 -132l-54 -47z" />
    <glyph glyph-name="uacute" unicode="&#xfa;" horiz-adv-x="527" 
d="M466 450h90l-46 -262q-17 -89 -80 -142q-64 -54 -152 -54t-135 54q-45 54 -29 142l47 262h94l-46 -262q-8 -51 15.5 -83t69.5 -32q47 0 82 32t44 83zM346 506l-39 47l155 132l38 -47z" />
    <glyph glyph-name="ucircumflex" unicode="&#xfb;" horiz-adv-x="527" 
d="M466 450h90l-46 -262q-17 -89 -80 -142q-64 -54 -152 -54t-135 54q-45 54 -29 142l47 262h94l-46 -262q-8 -51 15.5 -83t69.5 -32q47 0 82 32t44 83zM244 553l156 132l108 -132l-54 -47l-71 86l-100 -86z" />
    <glyph glyph-name="udieresis" unicode="&#xfc;" horiz-adv-x="527" 
d="M466 450h90l-46 -262q-17 -89 -80 -142q-64 -54 -152 -54t-135 54q-45 54 -29 142l47 262h94l-46 -262q-8 -51 15.5 -83t69.5 -32q47 0 82 32t44 83zM294 626q22 0 35.5 -16t9.5 -38q-6 -36 -42.5 -50.5t-57.5 11.5q-22 24 -1 59.5t56 33.5zM429 533q-13 16 -9 39t22 39
q19 16 42 16t36 -16t9 -39t-23 -39q-18 -16 -41 -16t-36 16z" />
    <glyph glyph-name="yacute" unicode="&#xfd;" horiz-adv-x="529" 
d="M487 450h102l-444 -700h-101l177 250l-123 450h102l84 -340zM331 506l-39 47l156 132l37 -47z" />
    <glyph glyph-name="thorn" unicode="&#xfe;" horiz-adv-x="541" 
d="M21 -250l177 1000h91l-60 -335q61 43 137 43q97 0 143 -64q47 -65 29 -169q-20 -105 -93 -169t-176 -64q-65 0 -109 28l-48 -270h-91zM327 376q-65 0 -112 -41l-39 -224q32 -38 98 -38q63 0 110 42.5t59 109.5t-20.5 109t-95.5 42z" />
    <glyph glyph-name="ydieresis" unicode="&#xff;" horiz-adv-x="529" 
d="M487 450h102l-444 -700h-101l177 250l-123 450h102l84 -340zM324 572q-4 -23 -22.5 -39t-41.5 -16t-36 16t-9 39t22.5 38.5t41.5 15.5t36 -16t9 -38zM414 533q-13 16 -9 39t22 39q19 16 42 16t36 -16t9 -39t-23 -39q-18 -16 -41 -16t-36 16z" />
    <glyph glyph-name="Amacron" unicode="&#x100;" horiz-adv-x="755" 
d="M733 0h-110l-48 185h-331l-112 -185h-110l434 700h89zM555 270l-76 308l-186 -308h262zM638 764h-252l10 55h252z" />
    <glyph glyph-name="amacron" unicode="&#x101;" 
d="M379 458q129 0 180 -80l-66 -378h-92l6 34q-60 -42 -134 -42q-96 0 -144 64q-49 65 -29 169q20 103 96 168q77 65 183 65zM421 113l40 232q-34 31 -99 31q-63 0 -109 -41.5t-58 -109.5q-12 -67 20 -110q31 -42 96 -42q64 0 110 40zM519 537h-253l10 56h252z" />
    <glyph glyph-name="Abreve" unicode="&#x102;" horiz-adv-x="755" 
d="M733 0h-110l-48 185h-331l-112 -185h-110l434 700h89zM555 270l-76 308l-186 -308h262zM520 813q64 0 108 41l38 -47q-68 -61 -157 -61q-85 0 -135 62l54 46q32 -41 92 -41z" />
    <glyph glyph-name="abreve" unicode="&#x103;" 
d="M379 458q129 0 180 -80l-66 -378h-92l6 34q-60 -42 -134 -42q-96 0 -144 64q-49 65 -29 169q20 103 96 168q77 65 183 65zM421 113l40 232q-34 31 -99 31q-63 0 -109 -41.5t-58 -109.5q-12 -67 20 -110q31 -42 96 -42q64 0 110 40zM509 627l38 -46q-68 -62 -157 -62
q-85 0 -135 62l54 47q32 -41 93 -41q63 0 107 40z" />
    <glyph glyph-name="Aogonek" unicode="&#x104;" horiz-adv-x="755" 
d="M653 -37q-5 -25 6.5 -40t35.5 -15q23 0 41 15l26 -31q-31 -28 -75 -28q-43 0 -65 27t-14 72q3 21 15 37l-48 185h-331l-112 -185h-110l434 700h89l188 -700h-64q-13 -13 -16 -37zM555 270l-76 308l-186 -308h262z" />
    <glyph glyph-name="aogonek" unicode="&#x105;" 
d="M431 -37q-5 -25 6.5 -40t35.5 -15q23 0 41 15l26 -31q-31 -28 -75 -28q-43 0 -65 27t-14 72q3 21 15 37l6 34q-60 -42 -134 -42q-96 0 -144 64q-49 65 -29 169q20 103 96 168q77 65 183 65q129 0 180 -80l-66 -378h-46q-13 -13 -16 -37zM421 113l40 232q-34 31 -99 31
q-63 0 -109 -41.5t-58 -109.5q-12 -67 20 -110q31 -42 96 -42q64 0 110 40z" />
    <glyph glyph-name="Cacute" unicode="&#x106;" horiz-adv-x="696" 
d="M234 350q-22 -120 37 -197q60 -76 176 -76q121 0 206 75l50 -60q-116 -100 -275 -100q-158 0 -239 99t-53 259t144 259t274 99q159 0 240 -100l-71 -61q-60 76 -179 76q-117 0 -203 -76q-86 -77 -107 -197zM514 736l-38 47l155 132l39 -47z" />
    <glyph glyph-name="cacute" unicode="&#x107;" horiz-adv-x="474" 
d="M195 225q-12 -68 20 -110t96 -42q67 0 113 43l46 -57q-74 -67 -179 -67t-157 64q-53 66 -34 169q20 104 94 168q77 65 180 65q101 0 154 -68l-66 -57q-30 43 -98 43q-63 0 -110 -42t-59 -109zM347 506l-39 47l156 132l38 -47z" />
    <glyph glyph-name="Ccircumflex" unicode="&#x108;" horiz-adv-x="696" 
d="M234 350q-22 -120 37 -197q60 -76 176 -76q121 0 206 75l50 -60q-116 -100 -275 -100q-158 0 -239 99t-53 259t144 259t274 99q159 0 240 -100l-71 -61q-60 76 -179 76q-117 0 -203 -76q-86 -77 -107 -197zM414 779l156 132l108 -132l-54 -46l-71 85l-100 -85z" />
    <glyph glyph-name="ccircumflex" unicode="&#x109;" horiz-adv-x="474" 
d="M195 225q-12 -68 20 -110t96 -42q67 0 113 43l46 -57q-74 -67 -179 -67t-157 64q-53 66 -34 169q20 104 94 168q77 65 180 65q101 0 154 -68l-66 -57q-30 43 -98 43q-63 0 -110 -42t-59 -109zM244 553l156 132l108 -132l-54 -47l-71 86l-100 -86z" />
    <glyph glyph-name="Cdotaccent" unicode="&#x10a;" horiz-adv-x="696" 
d="M234 350q-22 -120 37 -197q60 -76 176 -76q121 0 206 75l50 -60q-116 -100 -275 -100q-158 0 -239 99t-53 259t144 259t274 99q159 0 240 -100l-71 -61q-60 76 -179 76q-117 0 -203 -76q-86 -77 -107 -197zM494 811q4 24 24 41t44 17t37.5 -16.5t9.5 -41.5
q-4 -24 -23.5 -40.5t-43.5 -16.5t-38 16.5t-10 40.5z" />
    <glyph glyph-name="cdotaccent" unicode="&#x10b;" horiz-adv-x="474" 
d="M195 225q-12 -68 20 -110t96 -42q67 0 113 43l46 -57q-74 -67 -179 -67t-157 64q-53 66 -34 169q20 104 94 168q77 65 180 65q101 0 154 -68l-66 -57q-30 43 -98 43q-63 0 -110 -42t-59 -109zM323 585q4 24 23.5 40.5t43.5 16.5q25 0 38.5 -16.5t9.5 -40.5
q-5 -24 -24.5 -41t-43.5 -17q-25 0 -38.5 17t-8.5 41z" />
    <glyph glyph-name="Ccaron" unicode="&#x10c;" horiz-adv-x="696" 
d="M234 350q-22 -120 37 -197q60 -76 176 -76q121 0 206 75l50 -60q-116 -100 -275 -100q-158 0 -239 99t-53 259t144 259t274 99q159 0 240 -100l-71 -61q-60 76 -179 76q-117 0 -203 -76q-86 -77 -107 -197zM691 865l-155 -132l-109 132l54 46l71 -85l100 85z" />
    <glyph glyph-name="ccaron" unicode="&#x10d;" horiz-adv-x="474" 
d="M195 225q-12 -68 20 -110t96 -42q67 0 113 43l46 -57q-74 -67 -179 -67t-157 64q-53 66 -34 169q20 104 94 168q77 65 180 65q101 0 154 -68l-66 -57q-30 43 -98 43q-63 0 -110 -42t-59 -109zM522 638l-154 -132l-110 132l55 47l71 -86l100 86z" />
    <glyph glyph-name="Dcaron" unicode="&#x10e;" horiz-adv-x="695" 
d="M293 0h-226l123 700h226q159 0 240 -96q81 -95 53 -254q-29 -160 -143 -255q-115 -95 -273 -95zM610 350q22 121 -36 194q-59 74 -172 74h-128l-94 -536h127q116 0 198 73q84 73 105 195zM621 865l-155 -132l-109 132l55 46l71 -85l100 85z" />
    <glyph glyph-name="dcaron" unicode="&#x10f;" horiz-adv-x="690" 
d="M626 750l-132 -750h-92l6 34q-62 -42 -135 -42q-96 0 -144 64q-49 65 -29 169q20 103 93 168q76 65 178 65q62 0 106 -28l57 320h92zM195 225q-12 -68 20 -110t96 -42t111 41l39 225q-31 37 -97 37q-63 0 -110 -42t-59 -109zM698 536l-25 31q49 42 63 78
q-19 4 -29.5 19.5t-7.5 36.5q5 24 25 40.5t44 16.5q25 0 38 -16.5t7 -48.5q-11 -68 -115 -157z" />
    <glyph glyph-name="Dcroat" unicode="&#x110;" horiz-adv-x="705" 
d="M145 314h-50l13 72h51l55 314h212q160 0 240 -96q81 -95 53 -254q-29 -159 -142 -255q-115 -95 -274 -95h-212zM621 350q21 121 -37 194q-59 74 -172 74h-114l-41 -232h151l-14 -72h-151l-40 -232h115q115 0 197 73q83 73 106 195z" />
    <glyph glyph-name="dslash" unicode="&#x111;" horiz-adv-x="560" 
d="M594 568l-100 -568h-92l6 35q-61 -43 -135 -43q-96 0 -144 64q-49 65 -29 169q20 103 93 168q76 65 178 65q63 0 106 -30l25 140h-127l12 72h128l19 110h92l-20 -110h55l-12 -72h-55zM195 225q-12 -68 20 -110t96 -42t111 41l39 224q-32 38 -97 38q-63 0 -110 -42
t-59 -109z" />
    <glyph glyph-name="Emacron" unicode="&#x112;" horiz-adv-x="491" 
d="M551 621h-280l-40 -230h248l-14 -79h-248l-41 -234h284l-13 -78h-380l123 700h375zM516 764h-253l10 55h253z" />
    <glyph glyph-name="emacron" unicode="&#x113;" horiz-adv-x="506" 
d="M521 199h-328q-4 -58 29 -92t93 -34q69 0 116 43l45 -57q-76 -67 -182 -67q-107 0 -159 64q-53 66 -34 172q18 101 89 166q71 64 169 64t140.5 -68.5t21.5 -190.5zM347 378q-49 0 -87.5 -31t-54.5 -84h236q2 54 -22 84.5t-72 30.5zM499 537h-253l10 56h253z" />
    <glyph glyph-name="Ebreve" unicode="&#x114;" horiz-adv-x="491" 
d="M551 621h-280l-40 -230h248l-14 -79h-248l-41 -234h284l-13 -78h-380l123 700h375zM398 813q63 0 107 41l38 -47q-68 -61 -157 -61q-85 0 -135 62l55 46q32 -41 92 -41z" />
    <glyph glyph-name="ebreve" unicode="&#x115;" horiz-adv-x="506" 
d="M521 199h-328q-4 -58 29 -92t93 -34q69 0 116 43l45 -57q-76 -67 -182 -67q-107 0 -159 64q-53 66 -34 172q18 101 89 166q71 64 169 64t140.5 -68.5t21.5 -190.5zM347 378q-49 0 -87.5 -31t-54.5 -84h236q2 54 -22 84.5t-72 30.5zM489 627l38 -46q-68 -62 -157 -62
q-85 0 -135 62l54 47q32 -41 93 -41q63 0 107 40z" />
    <glyph glyph-name="Edotaccent" unicode="&#x116;" horiz-adv-x="491" 
d="M551 621h-280l-40 -230h248l-14 -79h-248l-41 -234h284l-13 -78h-380l123 700h375zM340 811q4 24 24 41t44 17t37.5 -16.5t9.5 -41.5q-4 -24 -23.5 -40.5t-43.5 -16.5t-38 16.5t-10 40.5z" />
    <glyph glyph-name="edotaccent" unicode="&#x117;" horiz-adv-x="506" 
d="M521 199h-328q-4 -58 29 -92t93 -34q69 0 116 43l45 -57q-76 -67 -182 -67q-107 0 -159 64q-53 66 -34 172q18 101 89 166q71 64 169 64t140.5 -68.5t21.5 -190.5zM347 378q-49 0 -87.5 -31t-54.5 -84h236q2 54 -22 84.5t-72 30.5zM325 585q4 24 23.5 40.5t44.5 16.5
q24 0 37.5 -16.5t9.5 -40.5q-5 -24 -24.5 -41t-43.5 -17t-38 17t-9 41z" />
    <glyph glyph-name="Eogonek" unicode="&#x118;" horiz-adv-x="491" 
d="M330 -37q-4 -25 7.5 -40t34.5 -15q22 0 42 15l26 -31q-31 -28 -75 -28q-43 0 -65 27t-14 72q3 24 15 37h-234l123 700h375l-14 -79h-280l-40 -230h248l-14 -79h-248l-41 -234h284l-13 -78h-100q-13 -13 -17 -37z" />
    <glyph glyph-name="eogonek" unicode="&#x119;" horiz-adv-x="506" 
d="M345 -37q-5 -25 6.5 -40t34.5 -15q24 0 42 15l26 -31q-31 -28 -75 -28q-43 0 -65 27t-14 72q2 15 10 30q-4 -1 -16 -1q-107 0 -159 64q-53 66 -34 172q18 101 89 166q71 64 169 64t140.5 -68.5t21.5 -190.5h-328q-4 -58 29 -92t93 -34q69 0 116 43l45 -57
q-51 -45 -116 -59q-12 -14 -15 -37zM347 378q-49 0 -87.5 -31t-54.5 -84h236q2 54 -22 84.5t-72 30.5z" />
    <glyph glyph-name="Ecaron" unicode="&#x11a;" horiz-adv-x="491" 
d="M551 621h-280l-40 -230h248l-14 -79h-248l-41 -234h284l-13 -78h-380l123 700h375zM539 865l-155 -132l-109 132l55 46l71 -85l100 85z" />
    <glyph glyph-name="ecaron" unicode="&#x11b;" horiz-adv-x="506" 
d="M521 199h-328q-4 -58 29 -92t93 -34q69 0 116 43l45 -57q-76 -67 -182 -67q-107 0 -159 64q-53 66 -34 172q18 101 89 166q71 64 169 64t140.5 -68.5t21.5 -190.5zM347 378q-49 0 -87.5 -31t-54.5 -84h236q2 54 -22 84.5t-72 30.5zM522 638l-155 -132l-109 132l55 47
l71 -86l100 86z" />
    <glyph glyph-name="Gcircumflex" unicode="&#x11c;" horiz-adv-x="727" 
d="M645 297h-163l13 79h258l-50 -284q-115 -100 -275 -100q-158 0 -239 99t-53 259t144 259t274 99q159 0 240 -100l-71 -61q-60 76 -179 76q-117 0 -203 -76q-86 -77 -107 -197q-22 -120 37 -197q60 -76 176 -76q94 0 167 49zM433 779l156 132l108 -132l-54 -46l-70 85
l-101 -85z" />
    <glyph glyph-name="gcircumflex" unicode="&#x11d;" horiz-adv-x="513" 
d="M9 -115q15 83 120 121q-49 25 -41 74q9 51 72 76q-66 41 -50 135q13 75 73 121q58 46 141 46q75 0 118 -40q41 40 86 40q15 0 25 -2l-13 -73q-9 3 -20 3q-23 0 -46 -22q9 -32 3 -71q-13 -71 -73 -119q-58 -45 -140 -45q-78 0 -87 -46q-3 -20 20 -32.5t66 -12.5
q99 0 152 -39t42 -103q-13 -68 -87 -111q-73 -43 -175 -43q-96 0 -146.5 39.5t-39.5 103.5zM103 -115q-5 -33 22.5 -53t81.5 -20q59 0 103 23q44 22 52 59q5 33 -25 52.5t-85 19.5q-60 0 -101 -22.5t-48 -58.5zM203 293q-8 -40 13.5 -66t62.5 -26q40 0 70.5 25.5t38.5 66.5
q7 41 -14.5 67t-62.5 26t-71 -26t-37 -67zM206 553l156 132l108 -132l-54 -47l-71 86l-100 -86z" />
    <glyph glyph-name="Gbreve" unicode="&#x11e;" horiz-adv-x="727" 
d="M645 297h-163l13 79h258l-50 -284q-115 -100 -275 -100q-158 0 -239 99t-53 259t144 259t274 99q159 0 240 -100l-71 -61q-60 76 -179 76q-117 0 -203 -76q-86 -77 -107 -197q-22 -120 37 -197q60 -76 176 -76q94 0 167 49zM571 813q63 0 107 41l38 -47q-68 -61 -157 -61
q-85 0 -135 62l54 46q33 -41 93 -41z" />
    <glyph glyph-name="gbreve" unicode="&#x11f;" horiz-adv-x="513" 
d="M9 -115q15 83 120 121q-49 25 -41 74q9 51 72 76q-66 41 -50 135q13 75 73 121q58 46 141 46q75 0 118 -40q41 40 86 40q15 0 25 -2l-13 -73q-9 3 -20 3q-23 0 -46 -22q9 -32 3 -71q-13 -71 -73 -119q-58 -45 -140 -45q-78 0 -87 -46q-3 -20 20 -32.5t66 -12.5
q99 0 152 -39t42 -103q-13 -68 -87 -111q-73 -43 -175 -43q-96 0 -146.5 39.5t-39.5 103.5zM103 -115q-5 -33 22.5 -53t81.5 -20q59 0 103 23q44 22 52 59q5 33 -25 52.5t-85 19.5q-60 0 -101 -22.5t-48 -58.5zM203 293q-8 -40 13.5 -66t62.5 -26q40 0 70.5 25.5t38.5 66.5
q7 41 -14.5 67t-62.5 26t-71 -26t-37 -67zM346 587q63 0 107 40l38 -46q-68 -62 -157 -62q-85 0 -135 62l54 47q33 -41 93 -41z" />
    <glyph glyph-name="Gdotaccent" unicode="&#x120;" horiz-adv-x="727" 
d="M645 297h-163l13 79h258l-50 -284q-115 -100 -275 -100q-158 0 -239 99t-53 259t144 259t274 99q159 0 240 -100l-71 -61q-60 76 -179 76q-117 0 -203 -76q-86 -77 -107 -197q-22 -120 37 -197q60 -76 176 -76q94 0 167 49zM513 811q5 25 24 41.5t44 16.5
q24 0 37.5 -16.5t9.5 -41.5q-4 -24 -23.5 -40.5t-43.5 -16.5q-25 0 -38.5 16.5t-9.5 40.5z" />
    <glyph glyph-name="gdotaccent" unicode="&#x121;" horiz-adv-x="513" 
d="M9 -115q15 83 120 121q-49 25 -41 74q9 51 72 76q-66 41 -50 135q13 75 73 121q58 46 141 46q75 0 118 -40q41 40 86 40q15 0 25 -2l-13 -73q-9 3 -20 3q-23 0 -46 -22q9 -32 3 -71q-13 -71 -73 -119q-58 -45 -140 -45q-78 0 -87 -46q-3 -20 20 -32.5t66 -12.5
q99 0 152 -39t42 -103q-13 -68 -87 -111q-73 -43 -175 -43q-96 0 -146.5 39.5t-39.5 103.5zM103 -115q-5 -33 22.5 -53t81.5 -20q59 0 103 23q44 22 52 59q5 33 -25 52.5t-85 19.5q-60 0 -101 -22.5t-48 -58.5zM203 293q-8 -40 13.5 -66t62.5 -26q40 0 70.5 25.5t38.5 66.5
q7 41 -14.5 67t-62.5 26t-71 -26t-37 -67zM287 585q4 24 23.5 40.5t43.5 16.5t38 -16.5t10 -40.5q-5 -24 -24.5 -41t-43.5 -17q-25 0 -38.5 17t-8.5 41z" />
    <glyph glyph-name="Gcommaaccent" unicode="&#x122;" horiz-adv-x="727" 
d="M645 297h-163l13 79h258l-50 -284q-115 -100 -275 -100q-158 0 -239 99t-53 259t144 259t274 99q159 0 240 -100l-71 -61q-60 76 -179 76q-117 0 -203 -76q-86 -77 -107 -197q-22 -120 37 -197q60 -76 176 -76q94 0 167 49zM353 -231l-22 25q41 33 55 67q-16 2 -25 15.5
t-6 30.5q4 20 20 34t36 14t31.5 -14.5t6.5 -40.5q-10 -57 -96 -131z" />
    <glyph glyph-name="gcommaaccent" unicode="&#x123;" horiz-adv-x="513" 
d="M9 -115q15 83 120 121q-49 25 -41 74q9 51 72 76q-66 41 -50 135q13 75 73 121q58 46 141 46q75 0 118 -40q41 40 86 40q15 0 25 -2l-13 -73q-9 3 -20 3q-23 0 -46 -22q9 -32 3 -71q-13 -71 -73 -119q-58 -45 -140 -45q-78 0 -87 -46q-3 -20 20 -32.5t66 -12.5
q99 0 152 -39t42 -103q-13 -68 -87 -111q-73 -43 -175 -43q-96 0 -146.5 39.5t-39.5 103.5zM103 -115q-5 -33 22.5 -53t81.5 -20q59 0 103 23q44 22 52 59q5 33 -25 52.5t-85 19.5q-60 0 -101 -22.5t-48 -58.5zM203 293q-8 -40 13.5 -66t62.5 -26q40 0 70.5 25.5t38.5 66.5
q7 41 -14.5 67t-62.5 26t-71 -26t-37 -67zM393 692l20 -26q-43 -38 -54 -66q17 -3 25.5 -16t5.5 -31q-4 -20 -20 -33.5t-36 -13.5t-31.5 14t-6.5 40q10 59 97 132z" />
    <glyph glyph-name="Hcircumflex" unicode="&#x124;" horiz-adv-x="687" 
d="M190 700h95l-54 -309h362l55 309h94l-123 -700h-94l55 312h-363l-55 -312h-95zM348 779l156 132l108 -132l-54 -46l-70 85l-101 -85z" />
    <glyph glyph-name="hcircumflex" unicode="&#x125;" horiz-adv-x="520" 
d="M66 0l132 750h91l-59 -335q59 43 135 43q77 0 113.5 -51.5t21.5 -136.5l-47 -270h-92l47 270q9 47 -13.5 76.5t-67.5 29.5q-65 0 -111 -40l-59 -336h-91zM285 792l156 132l108 -132l-54 -46l-71 85l-100 -85z" />
    <glyph glyph-name="Hbar" unicode="&#x126;" horiz-adv-x="700" 
d="M189 0h-95l89 507h-57l12 72h57l22 121h95l-22 -121h316l22 121h94l-21 -121h63l-12 -72h-63l-90 -507h-94l55 312h-316zM278 507l-21 -116h316l21 116h-316z" />
    <glyph glyph-name="hbar" unicode="&#x127;" 
d="M186 578h-55l13 72h55l18 100h92l-18 -100h164l-13 -72h-164l-29 -163q61 43 135 43q77 0 113.5 -51.5t21.5 -136.5l-47 -270h-91l47 270q8 47 -14.5 76.5t-67.5 29.5q-67 0 -111 -41l-58 -335h-92z" />
    <glyph glyph-name="Itilde" unicode="&#x128;" horiz-adv-x="226" 
d="M160 0h-94l123 700h94zM154 759h-51q7 42 37 68t69 26q32 0 56 -24q26 -23 44 -23q17 0 30.5 11.5t16.5 30.5h51q-7 -41 -37 -67t-70 -26q-32 0 -57 23q-24 24 -42 24t-31 -12t-16 -31z" />
    <glyph glyph-name="itilde" unicode="&#x129;" horiz-adv-x="223" 
d="M112 533h-51q7 41 36.5 67t69.5 26q32 0 56 -24q26 -23 44 -23q17 0 30.5 12t16.5 31h51q-7 -42 -37 -68t-70 -26q-32 0 -57 23q-23 24 -42 24q-17 0 -30.5 -11.5t-16.5 -30.5zM157 0h-91l79 450h91z" />
    <glyph glyph-name="Imacron" unicode="&#x12a;" horiz-adv-x="226" 
d="M160 0h-94l123 700h94zM374 764h-252l9 55h253z" />
    <glyph glyph-name="imacron" unicode="&#x12b;" horiz-adv-x="223" 
d="M332 537h-253l10 56h253zM157 0h-91l79 450h91z" />
    <glyph glyph-name="Ibreve" unicode="&#x12c;" horiz-adv-x="226" 
d="M160 0h-94l123 700h94zM256 813q61 0 108 41l38 -47q-70 -61 -157 -61q-85 0 -136 62l55 46q32 -41 92 -41z" />
    <glyph glyph-name="ibreve" unicode="&#x12d;" horiz-adv-x="223" 
d="M215 587q62 0 106 40l38 -46q-68 -62 -157 -62q-84 0 -135 62l55 47q32 -41 93 -41zM157 0h-91l79 450h91z" />
    <glyph glyph-name="Iogonek" unicode="&#x12e;" horiz-adv-x="226" 
d="M102 -37q-5 -25 6.5 -40t35.5 -15q23 0 41 15l26 -31q-31 -28 -74 -28q-44 0 -65.5 27t-14.5 72q3 21 16 37l123 700h94l-123 -700h-49q-13 -13 -16 -37z" />
    <glyph glyph-name="iogonek" unicode="&#x12f;" horiz-adv-x="223" 
d="M164 0h-91l79 450h91zM164 585q4 24 23.5 40.5t43.5 16.5q25 0 38.5 -16.5t9.5 -40.5q-5 -24 -24.5 -41t-43.5 -17q-25 0 -38.5 17t-8.5 41zM102 -37q-5 -25 6.5 -40t35.5 -15q23 0 41 15l26 -31q-31 -28 -74 -28q-44 0 -65.5 27t-14.5 72q3 21 16 37h45q-13 -13 -16 -37
z" />
    <glyph glyph-name="Idot" unicode="&#x130;" horiz-adv-x="226" 
d="M160 0h-94l123 700h94zM198 811q4 25 23.5 41.5t43.5 16.5t38 -16.5t10 -41.5q-4 -24 -24 -40.5t-44 -16.5t-37.5 16.5t-9.5 40.5z" />
    <glyph glyph-name="dotlessi" unicode="&#x131;" horiz-adv-x="223" 
d="M157 0h-91l79 450h91z" />
    <glyph glyph-name="IJ" unicode="&#x132;" horiz-adv-x="499" 
d="M206 250h-95l79 450h95zM372 193l89 507h95l-89 -507q-17 -91 -82 -146t-156 -55q-90 0 -137 56l72 61q24 -32 76 -32q49 0 85.5 32t46.5 84z" />
    <glyph glyph-name="ij" unicode="&#x133;" horiz-adv-x="446" 
d="M157 0h-91l79 450h91zM157 585q4 24 23.5 40.5t43.5 16.5q25 0 38.5 -16.5t9.5 -40.5q-5 -24 -24.5 -41t-43.5 -17q-25 0 -38.5 17t-8.5 41zM380 585q4 24 23.5 40.5t43.5 16.5q25 0 38.5 -16.5t9.5 -40.5q-5 -24 -24.5 -41t-43.5 -17q-25 0 -38.5 17t-8.5 41zM193 -250
l10 60q53 0 61 50l104 590h91l-105 -592q-9 -52 -42 -82.5t-82 -30.5q-22 0 -37 5z" />
    <glyph glyph-name="Jcircumflex" unicode="&#x134;" horiz-adv-x="451" 
d="M325 193l89 507h95l-90 -507q-17 -91 -82 -146q-64 -55 -155 -55q-90 0 -137 56l72 61q24 -32 76 -32q49 0 85.5 32t46.5 84zM343 779l155 132l109 -132l-55 -46l-70 85l-101 -85z" />
    <glyph glyph-name="jcircumflex" unicode="&#x135;" horiz-adv-x="223" 
d="M-29 -250l10 60q24 0 40 13t20 37l104 590h91l-105 -592q-9 -52 -42 -82.5t-82 -30.5q-21 0 -36 5zM76 553l156 132l108 -132l-54 -47l-71 86l-100 -86z" />
    <glyph glyph-name="Kcommaaccent" unicode="&#x136;" horiz-adv-x="607" 
d="M160 0h-94l123 700h94zM583 0h-122l-235 360l337 340h119l-337 -340zM238 -231l-22 25q41 33 55 67q-16 2 -25 15.5t-6 30.5q4 20 20 34t36 14t31.5 -14.5t6.5 -40.5q-10 -57 -96 -131z" />
    <glyph glyph-name="kcommaaccent" unicode="&#x137;" horiz-adv-x="474" 
d="M196 223l-39 -223h-91l132 750h91l-87 -493l197 193h109l-217 -210l159 -240h-109zM171 -231l-21 25q41 33 55 67q-16 2 -25 15.5t-6 30.5q4 20 20 34t36 14t31.5 -14.5t6.5 -40.5q-11 -60 -97 -131z" />
    <glyph glyph-name="Lacute" unicode="&#x139;" horiz-adv-x="463" 
d="M190 700h95l-109 -622h264l-14 -78h-359zM318 733l-39 46l156 132l38 -46z" />
    <glyph glyph-name="lacute" unicode="&#x13a;" horiz-adv-x="251" 
d="M230 60l-9 -60q-18 -5 -43 -5q-49 0 -71.5 30.5t-13.5 82.5l114 642h91l-113 -640q-4 -24 8 -37t37 -13zM227 769l-39 47l156 132l39 -47z" />
    <glyph glyph-name="Lcommaaccent" unicode="&#x13b;" horiz-adv-x="463" 
d="M190 700h95l-109 -622h264l-14 -78h-359zM180 -231l-21 25q43 37 54 67q-16 2 -25 15.5t-6 30.5q4 20 20 34t37 14q20 0 31.5 -14.5t6.5 -40.5q-11 -60 -97 -131z" />
    <glyph glyph-name="lcommaaccent" unicode="&#x13c;" horiz-adv-x="251" 
d="M221 60l-9 -60q-18 -5 -43 -5q-49 0 -71.5 30.5t-13.5 82.5l114 642h91l-113 -640q-4 -24 8 -37t37 -13zM70 -231l-21 25q43 37 55 67q-16 2 -25 15.5t-7 30.5q4 20 20 34t37 14q20 0 31.5 -14.5t6.5 -40.5q-11 -60 -97 -131z" />
    <glyph glyph-name="Lcaron" unicode="&#x13d;" horiz-adv-x="463" 
d="M190 700h95l-109 -622h264l-14 -78h-359zM399 865l-155 -132l-109 132l55 46l71 -85l100 85z" />
    <glyph glyph-name="lcaron" unicode="&#x13e;" horiz-adv-x="387" 
d="M230 60l-9 -60q-18 -5 -43 -5q-49 0 -71.5 30.5t-13.5 82.5l114 642h91l-113 -640q-4 -24 8 -37t37 -13zM383 536l-25 31q47 40 64 78q-20 4 -30.5 19.5t-6.5 36.5q5 24 24.5 40.5t44.5 16.5q24 0 37 -16.5t8 -48.5q-14 -73 -116 -157z" />
    <glyph glyph-name="Ldot" unicode="&#x13f;" horiz-adv-x="463" 
d="M190 700h95l-109 -622h264l-14 -78h-359zM464 325q-5 -24 -24 -41t-43 -17t-38 17t-10 41t24 40.5t44 16.5t37.5 -16.5t9.5 -40.5z" />
    <glyph glyph-name="ldot" unicode="&#x140;" horiz-adv-x="388" 
d="M230 60l-9 -60q-18 -5 -43 -5q-49 0 -71.5 30.5t-13.5 82.5l114 642h91l-113 -640q-4 -24 8 -37t37 -13zM429 325q-5 -24 -24 -41t-43 -17t-38 17t-10 41t24 40.5t44 16.5t37.5 -16.5t9.5 -40.5z" />
    <glyph glyph-name="Lslash" unicode="&#x141;" horiz-adv-x="502" 
d="M85 180l-39 47l117 99l66 374h95l-53 -300l98 84l38 -47l-153 -130l-40 -229h264l-13 -78h-359l40 233z" />
    <glyph glyph-name="lslash" unicode="&#x142;" horiz-adv-x="310" 
d="M257 60l-10 -60q-17 -5 -42 -5q-49 0 -71.5 30.5t-13.5 82.5l28 161l-58 -50l-39 46l114 97l68 388h92l-57 -318l69 58l38 -46l-123 -105l-40 -229q-4 -24 8 -37t37 -13z" />
    <glyph glyph-name="Nacute" unicode="&#x143;" horiz-adv-x="710" 
d="M67 0l123 700h63l326 -519l92 519h95l-123 -700h-63l-327 519l-91 -519h-95zM461 733l-39 46l156 132l38 -46z" />
    <glyph glyph-name="nacute" unicode="&#x144;" horiz-adv-x="519" 
d="M66 0l79 450h91l-6 -35q59 43 135 43q77 0 113.5 -51.5t21.5 -136.5l-47 -270h-92l47 270q9 47 -13.5 76.5t-67.5 29.5q-65 0 -111 -40l-59 -336h-91zM325 506l-38 47l155 132l38 -47z" />
    <glyph glyph-name="Ncommaaccent" unicode="&#x145;" horiz-adv-x="710" 
d="M67 0l123 700h63l326 -519l92 519h95l-123 -700h-63l-327 519l-91 -519h-95zM290 -231l-22 25q41 33 55 67q-16 2 -25 15.5t-6 30.5q4 20 20 34t36 14t31.5 -14.5t6.5 -40.5q-10 -57 -96 -131z" />
    <glyph glyph-name="ncommaaccent" unicode="&#x146;" horiz-adv-x="519" 
d="M66 0l79 450h91l-6 -35q59 43 135 43q77 0 113.5 -51.5t21.5 -136.5l-47 -270h-92l47 270q9 47 -13.5 76.5t-67.5 29.5q-65 0 -111 -40l-59 -336h-91zM192 -231l-21 25q43 37 54 67q-16 2 -25 15.5t-6 30.5q4 20 20 34t37 14q20 0 31.5 -14.5t6.5 -40.5q-11 -60 -97 -131
z" />
    <glyph glyph-name="Ncaron" unicode="&#x147;" horiz-adv-x="710" 
d="M67 0l123 700h63l326 -519l92 519h95l-123 -700h-63l-327 519l-91 -519h-95zM639 865l-155 -132l-109 132l54 46l71 -85l100 85z" />
    <glyph glyph-name="ncaron" unicode="&#x148;" horiz-adv-x="519" 
d="M66 0l79 450h91l-6 -35q59 43 135 43q77 0 113.5 -51.5t21.5 -136.5l-47 -270h-92l47 270q9 47 -13.5 76.5t-67.5 29.5q-65 0 -111 -40l-59 -336h-91zM503 638l-155 -132l-109 132l55 47l70 -86l101 86z" />
    <glyph glyph-name="Eng" unicode="&#x14a;" horiz-adv-x="710" 
d="M452 -250l11 60q24 0 40 13t20 37l31 177l-301 482l-91 -519h-95l123 700h63l326 -519l92 519h95l-149 -842q-9 -51 -44 -82t-84 -31q-22 0 -37 5z" />
    <glyph glyph-name="eng" unicode="&#x14b;" horiz-adv-x="519" 
d="M265 -250l11 60q24 0 40 13t20 37l72 410q9 47 -13.5 76.5t-67.5 29.5q-65 0 -111 -40l-59 -336h-91l79 450h91l-6 -35q59 43 135 43q77 0 113.5 -51.5t21.5 -136.5l-73 -412q-9 -52 -42.5 -82.5t-82.5 -30.5q-22 0 -37 5z" />
    <glyph glyph-name="Omacron" unicode="&#x14c;" horiz-adv-x="803" 
d="M136 350q28 160 144 259t274 99q160 0 239 -99q81 -98 52 -259t-143 -259q-116 -99 -274 -99t-239 99t-53 259zM234 350q-22 -121 36 -197t173 -76t198 76q85 76 106 197q23 122 -36 197q-57 76 -172 76q-114 0 -199 -76t-106 -197zM690 764h-252l10 55h252z" />
    <glyph glyph-name="omacron" unicode="&#x14d;" horiz-adv-x="553" 
d="M376 458q105 0 158 -65q54 -65 35 -168q-18 -105 -94 -169t-181 -64t-159 64q-55 65 -35 169q20 105 95 168q77 65 181 65zM475 225q12 67 -20 109t-94 42t-108 -41.5t-58 -109.5t19.5 -110t93.5 -42t108.5 42t58.5 110zM516 537h-252l9 56h253z" />
    <glyph glyph-name="Obreve" unicode="&#x14e;" horiz-adv-x="803" 
d="M136 350q28 160 144 259t274 99q160 0 239 -99q81 -98 52 -259t-143 -259q-116 -99 -274 -99t-239 99t-53 259zM234 350q-22 -121 36 -197t173 -76t198 76q85 76 106 197q23 122 -36 197q-57 76 -172 76q-114 0 -199 -76t-106 -197zM572 813q64 0 108 41l38 -47
q-68 -61 -157 -61q-85 0 -135 62l54 46q33 -41 92 -41z" />
    <glyph glyph-name="obreve" unicode="&#x14f;" horiz-adv-x="553" 
d="M376 458q105 0 158 -65q54 -65 35 -168q-18 -105 -94 -169t-181 -64t-159 64q-55 65 -35 169q20 105 95 168q77 65 181 65zM475 225q12 67 -20 109t-94 42t-108 -41.5t-58 -109.5t19.5 -110t93.5 -42t108.5 42t58.5 110zM399 587q61 0 107 40l38 -46q-71 -62 -157 -62
q-85 0 -136 62l55 47q32 -41 93 -41z" />
    <glyph glyph-name="Ohungarumlaut" unicode="&#x150;" horiz-adv-x="803" 
d="M136 350q28 160 144 259t274 99q160 0 239 -99q81 -98 52 -259t-143 -259q-116 -99 -274 -99t-239 99t-53 259zM234 350q-22 -121 36 -197t173 -76t198 76q85 76 106 197q23 122 -36 197q-57 76 -172 76q-114 0 -199 -76t-106 -197zM458 733l-39 46l156 132l38 -46z
M614 733l-39 46l156 132l38 -46z" />
    <glyph glyph-name="ohungarumlaut" unicode="&#x151;" horiz-adv-x="553" 
d="M376 458q105 0 158 -65q54 -65 35 -168q-18 -105 -94 -169t-181 -64t-159 64q-55 65 -35 169q20 105 95 168q77 65 181 65zM475 225q12 67 -20 109t-94 42t-108 -41.5t-58 -109.5t19.5 -110t93.5 -42t108.5 42t58.5 110zM284 506l-39 47l156 132l38 -47zM440 506l-39 47
l156 132l38 -47z" />
    <glyph glyph-name="OE" unicode="&#x152;" horiz-adv-x="882" 
d="M974 621h-259l-41 -230h228l-14 -79h-227l-42 -234h264l-13 -78h-356q-50 -8 -86 -8q-158 0 -239 99t-53 259t144 259t274 99q37 0 82 -8h352zM443 77q45 0 84 14l91 518q-39 14 -79 14q-114 0 -199 -76t-106 -197q-22 -121 36 -197t173 -76z" />
    <glyph glyph-name="oe" unicode="&#x153;" horiz-adv-x="829" 
d="M844 199h-328q-4 -58 29 -92t93 -34q70 0 117 43l45 -57q-76 -67 -182 -67q-101 0 -152 59q-74 -59 -172 -59q-105 0 -159 64q-55 65 -35 169q20 105 95 168q77 65 181 65q96 0 148 -57q68 57 159 57q98 0 140.5 -69t20.5 -190zM308 73q69 0 118 52q-12 42 -1 103
q9 54 35 98q-30 50 -99 50q-62 0 -108 -41.5t-58 -109.5t19.5 -110t93.5 -42zM528 263h236q3 55 -21 85t-72 30q-49 0 -87.5 -31t-55.5 -84z" />
    <glyph glyph-name="Racute" unicode="&#x154;" 
d="M516 0h-108l-105 299h-85l-53 -299h-98l123 700h206q96 0 144.5 -55t32.5 -146q-13 -72 -59.5 -122.5t-115.5 -68.5zM475 499q9 54 -16.5 86.5t-76.5 32.5h-108l-42 -237h108q51 0 88 32.5t47 85.5zM369 733l-38 46l155 132l39 -46z" />
    <glyph glyph-name="racute" unicode="&#x155;" horiz-adv-x="346" 
d="M353 457q13 0 28 -3l-14 -80q-13 4 -35 4q-68 0 -119 -59l-56 -319h-91l79 450h91l-9 -51q61 58 126 58zM253 506l-39 47l156 132l38 -47z" />
    <glyph glyph-name="Rcommaaccent" unicode="&#x156;" 
d="M516 0h-108l-105 299h-85l-53 -299h-98l123 700h206q96 0 144.5 -55t32.5 -146q-13 -72 -59.5 -122.5t-115.5 -68.5zM475 499q9 54 -16.5 86.5t-76.5 32.5h-108l-42 -237h108q51 0 88 32.5t47 85.5zM205 -231l-22 25q41 33 55 67q-16 2 -25 15.5t-6 30.5q4 20 20 34
t36 14t32 -14.5t7 -40.5q-10 -56 -97 -131z" />
    <glyph glyph-name="rcommaaccent" unicode="&#x157;" horiz-adv-x="346" 
d="M353 457q13 0 28 -3l-14 -80q-13 4 -35 4q-68 0 -119 -59l-56 -319h-91l79 450h91l-9 -51q61 58 126 58zM44 -231l-21 25q41 33 55 67q-16 2 -25 15.5t-6 30.5q4 20 20 34t36 14t31.5 -14.5t6.5 -40.5q-11 -60 -97 -131z" />
    <glyph glyph-name="Rcaron" unicode="&#x158;" 
d="M516 0h-108l-105 299h-85l-53 -299h-98l123 700h206q96 0 144.5 -55t32.5 -146q-13 -72 -59.5 -122.5t-115.5 -68.5zM475 499q9 54 -16.5 86.5t-76.5 32.5h-108l-42 -237h108q51 0 88 32.5t47 85.5zM547 865l-155 -132l-109 132l55 46l71 -85l100 85z" />
    <glyph glyph-name="rcaron" unicode="&#x159;" horiz-adv-x="346" 
d="M353 457q13 0 28 -3l-14 -80q-13 4 -35 4q-68 0 -119 -59l-56 -319h-91l79 450h91l-9 -51q61 58 126 58zM430 638l-154 -132l-110 132l56 47l70 -86l101 86z" />
    <glyph glyph-name="Sacute" unicode="&#x15a;" 
d="M577 622l-70 -60q-21 27 -57 44t-74 17q-54 0 -89 -33q-34 -33 -42 -74q-6 -35 14.5 -60.5t54.5 -39.5t74 -32.5t73 -38.5t50.5 -58.5t8.5 -90.5q-15 -86 -83 -145t-173 -59q-134 0 -210 97l69 59q25 -33 64.5 -52t82.5 -19q63 0 104 36q40 37 48 81q7 39 -22.5 65.5
t-75 44t-90 39t-71.5 64.5t-16 107q13 81 76 138q62 56 159 56q126 0 195 -86zM364 733l-39 46l156 132l38 -46z" />
    <glyph glyph-name="sacute" unicode="&#x15b;" horiz-adv-x="386" 
d="M404 402l-66 -56q-29 35 -73 35q-26 0 -44.5 -16t-22.5 -38q-4 -23 14.5 -39t46.5 -27t55 -24.5t43 -40t9 -65.5q-10 -60 -59 -99.5t-120 -39.5q-95 0 -142 63l66 56q13 -19 36 -31t47 -12q32 0 54 18.5t26 43.5q4 22 -14 37t-46 26t-55.5 24.5t-43.5 41t-9 66.5
q12 58 56 95.5t109 37.5q88 0 133 -56zM254 506l-39 47l156 132l37 -47z" />
    <glyph glyph-name="Scircumflex" unicode="&#x15c;" 
d="M577 622l-70 -60q-21 27 -57 44t-74 17q-54 0 -89 -33q-34 -33 -42 -74q-6 -35 14.5 -60.5t54.5 -39.5t74 -32.5t73 -38.5t50.5 -58.5t8.5 -90.5q-15 -86 -83 -145t-173 -59q-134 0 -210 97l69 59q25 -33 64.5 -52t82.5 -19q63 0 104 36q40 37 48 81q7 39 -22.5 65.5
t-75 44t-90 39t-71.5 64.5t-16 107q13 81 76 138q62 56 159 56q126 0 195 -86zM263 779l155 132l109 -132l-55 -46l-70 85l-101 -85z" />
    <glyph glyph-name="scircumflex" unicode="&#x15d;" horiz-adv-x="386" 
d="M404 402l-66 -56q-29 35 -73 35q-26 0 -44.5 -16t-22.5 -38q-4 -23 14.5 -39t46.5 -27t55 -24.5t43 -40t9 -65.5q-10 -60 -59 -99.5t-120 -39.5q-95 0 -142 63l66 56q13 -19 36 -31t47 -12q32 0 54 18.5t26 43.5q4 22 -14 37t-46 26t-55.5 24.5t-43.5 41t-9 66.5
q12 58 56 95.5t109 37.5q88 0 133 -56zM152 553l156 132l108 -132l-54 -47l-71 86l-100 -86z" />
    <glyph glyph-name="Scedilla" unicode="&#x15e;" 
d="M577 622l-70 -60q-21 27 -57 44t-74 17q-54 0 -89 -33q-34 -33 -42 -74q-6 -35 14.5 -60.5t54.5 -39.5t74 -32.5t73 -38.5t50.5 -58.5t8.5 -90.5q-13 -81 -77 -140q-63 -59 -160 -63l-8 -50q63 -14 53 -79q-7 -36 -36 -59q-28 -23 -65 -23q-39 0 -58 25l34 29
q19 -22 48.5 -10t35.5 40q3 21 -11 33t-46 12l14 82q-121 7 -190 96l69 59q25 -33 64.5 -52t82.5 -19q63 0 104 36q40 37 48 81q7 39 -22.5 65.5t-75 44t-90 39t-71.5 64.5t-16 107q13 81 76 138q62 56 159 56q126 0 195 -86z" />
    <glyph glyph-name="scedilla" unicode="&#x15f;" horiz-adv-x="386" 
d="M404 402l-66 -56q-29 35 -73 35q-26 0 -44.5 -16t-22.5 -38q-4 -23 14.5 -39t46.5 -27t55 -24.5t43 -40t9 -65.5q-10 -56 -53.5 -94.5t-107.5 -43.5l-9 -50q65 -13 53 -79q-7 -37 -35 -59q-29 -23 -66 -23q-39 0 -58 25l34 29q18 -21 48.5 -9.5t35.5 39.5q4 21 -10.5 33
t-46.5 12l14 82q-79 7 -120 62l66 56q13 -19 36 -31t47 -12q32 0 54 18.5t26 43.5q4 22 -14 37t-46 26t-55.5 24.5t-43.5 41t-9 66.5q12 58 56 95.5t109 37.5q88 0 133 -56z" />
    <glyph glyph-name="Scaron" unicode="&#x160;" 
d="M577 622l-70 -60q-21 27 -57 44t-74 17q-54 0 -89 -33q-34 -33 -42 -74q-6 -35 14.5 -60.5t54.5 -39.5t74 -32.5t73 -38.5t50.5 -58.5t8.5 -90.5q-15 -86 -83 -145t-173 -59q-134 0 -210 97l69 59q25 -33 64.5 -52t82.5 -19q63 0 104 36q40 37 48 81q7 39 -22.5 65.5
t-75 44t-90 39t-71.5 64.5t-16 107q13 81 76 138q62 56 159 56q126 0 195 -86zM542 865l-155 -132l-109 132l55 46l71 -85l100 85z" />
    <glyph glyph-name="scaron" unicode="&#x161;" horiz-adv-x="386" 
d="M404 402l-66 -56q-29 35 -73 35q-26 0 -44.5 -16t-22.5 -38q-4 -23 14.5 -39t46.5 -27t55 -24.5t43 -40t9 -65.5q-10 -60 -59 -99.5t-120 -39.5q-95 0 -142 63l66 56q13 -19 36 -31t47 -12q32 0 54 18.5t26 43.5q4 22 -14 37t-46 26t-55.5 24.5t-43.5 41t-9 66.5
q12 58 56 95.5t109 37.5q88 0 133 -56zM431 638l-155 -132l-109 132l55 47l70 -86l101 86z" />
    <glyph glyph-name="Tcommaaccent" unicode="&#x162;" horiz-adv-x="557" 
d="M629 621h-194l-109 -621h-95l109 621h-194l14 79h483zM213 -231l-21 25q43 37 54 67q-16 2 -25 15.5t-6 30.5q4 20 20 34t37 14q20 0 31.5 -14.5t6.5 -40.5q-11 -60 -97 -131z" />
    <glyph glyph-name="tcommaaccent" unicode="&#x163;" horiz-adv-x="326" 
d="M151 378h-55l13 72h55l17 100h95l-17 -100h111l-13 -72h-111l-40 -231q-7 -34 9.5 -55.5t49.5 -21.5q21 0 39 9l-13 -77q-21 -10 -56 -10q-70 0 -103.5 42t-20.5 113zM114 -231l-21 25q43 37 55 67q-16 2 -25 15.5t-6 30.5q3 20 19.5 34t36.5 14t31.5 -14.5t6.5 -40.5
q-11 -60 -97 -131z" />
    <glyph glyph-name="Tcaron" unicode="&#x164;" horiz-adv-x="557" 
d="M629 621h-194l-109 -621h-95l109 621h-194l14 79h483zM562 865l-155 -132l-109 132l55 46l71 -85l100 85z" />
    <glyph glyph-name="tcaron" unicode="&#x165;" horiz-adv-x="378" 
d="M151 378h-55l13 72h55l17 100h95l-17 -100h111l-13 -72h-111l-40 -231q-7 -34 9.5 -55.5t49.5 -21.5q21 0 39 9l-13 -77q-21 -10 -56 -10q-70 0 -103.5 42t-20.5 113zM371 519l-26 30q51 45 64 78q-19 4 -29.5 19.5t-7.5 36.5q5 24 25 41t44 17q25 0 38 -17t7 -49
q-12 -71 -115 -156z" />
    <glyph glyph-name="Tbar" unicode="&#x166;" horiz-adv-x="557" 
d="M289 334h-140l13 72h141l37 215h-194l14 79h483l-14 -79h-194l-38 -215h141l-13 -72h-141l-58 -334h-95z" />
    <glyph glyph-name="tbar" unicode="&#x167;" horiz-adv-x="326" 
d="M126 231h-55l11 69h55l14 78h-55l13 72h55l17 100h95l-17 -100h111l-13 -72h-111l-14 -78h111l-11 -69h-111l-15 -84q-7 -34 9.5 -55.5t49.5 -21.5q21 0 39 9l-13 -77q-21 -10 -56 -10q-70 0 -103.5 42t-20.5 113z" />
    <glyph glyph-name="Utilde" unicode="&#x168;" horiz-adv-x="665" 
d="M568 256l79 444h95l-78 -444q-21 -117 -108 -191q-85 -73 -205 -73q-118 0 -179 73q-60 73 -39 191l78 444h95l-78 -444q-14 -80 24 -129q39 -50 113 -50q77 0 133 50q56 49 70 129zM394 759h-51q7 42 36.5 68t68.5 26q32 0 57 -24q26 -23 43 -23q18 0 31.5 12t16.5 30
h50q-7 -41 -37 -67t-70 -26q-31 0 -56 23q-24 24 -43 24q-17 0 -30 -12t-16 -31z" />
    <glyph glyph-name="utilde" unicode="&#x169;" horiz-adv-x="527" 
d="M466 450h90l-46 -262q-17 -89 -80 -142q-64 -54 -152 -54t-135 54q-45 54 -29 142l47 262h94l-46 -262q-8 -51 15.5 -83t69.5 -32q47 0 82 32t44 83zM279 533h-50q7 41 36.5 67t69.5 26q32 0 56 -24q26 -23 43 -23t30.5 12t16.5 31h51q-7 -42 -37 -68t-70 -26
q-32 0 -57 23q-22 24 -41 24q-18 0 -31.5 -12t-16.5 -30z" />
    <glyph glyph-name="Umacron" unicode="&#x16a;" horiz-adv-x="665" 
d="M568 256l79 444h95l-78 -444q-21 -117 -108 -191q-85 -73 -205 -73q-118 0 -179 73q-60 73 -39 191l78 444h95l-78 -444q-14 -80 24 -129q39 -50 113 -50q77 0 133 50q56 49 70 129zM614 764h-252l9 55h253z" />
    <glyph glyph-name="umacron" unicode="&#x16b;" horiz-adv-x="527" 
d="M466 450h90l-46 -262q-17 -89 -80 -142q-64 -54 -152 -54t-135 54q-45 54 -29 142l47 262h94l-46 -262q-8 -51 15.5 -83t69.5 -32q47 0 82 32t44 83zM500 537h-253l10 56h252z" />
    <glyph glyph-name="Ubreve" unicode="&#x16c;" horiz-adv-x="665" 
d="M568 256l79 444h95l-78 -444q-21 -117 -108 -191q-85 -73 -205 -73q-118 0 -179 73q-60 73 -39 191l78 444h95l-78 -444q-14 -80 24 -129q39 -50 113 -50q77 0 133 50q56 49 70 129zM496 813q61 0 108 41l38 -47q-70 -61 -158 -61q-84 0 -135 62l55 46q32 -41 92 -41z
" />
    <glyph glyph-name="ubreve" unicode="&#x16d;" horiz-adv-x="527" 
d="M466 450h90l-46 -262q-17 -89 -80 -142q-64 -54 -152 -54t-135 54q-45 54 -29 142l47 262h94l-46 -262q-8 -51 15.5 -83t69.5 -32q47 0 82 32t44 83zM382 587q63 0 107 40l38 -46q-68 -62 -157 -62q-85 0 -135 62l54 47q33 -41 93 -41z" />
    <glyph glyph-name="Uring" unicode="&#x16e;" horiz-adv-x="665" 
d="M568 256l79 444h95l-78 -444q-21 -117 -108 -191q-85 -73 -205 -73q-118 0 -179 73q-60 73 -39 191l78 444h95l-78 -444q-14 -80 24 -129q39 -50 113 -50q77 0 133 50q56 49 70 129zM513 908q41 0 60.5 -24.5t12.5 -66.5q-7 -41 -36 -66.5t-69 -25.5t-60.5 25.5
t-13.5 66.5t36.5 66t69.5 25zM448 816q-4 -22 7 -36t33 -14t38 14t20 36q4 23 -7.5 37t-32.5 14q-22 0 -38 -14t-20 -37z" />
    <glyph glyph-name="uring" unicode="&#x16f;" horiz-adv-x="527" 
d="M466 450h90l-46 -262q-17 -89 -80 -142q-64 -54 -152 -54t-135 54q-45 54 -29 142l47 262h94l-46 -262q-8 -51 15.5 -83t69.5 -32q47 0 82 32t44 83zM472 590q-7 -41 -36 -66t-69 -25t-60.5 25t-13.5 66t36.5 66.5t69.5 25.5t60.5 -25.5t12.5 -66.5zM334 590
q-9 -34 21.5 -46.5t56.5 10.5q17 14 20.5 35.5t-8 37.5t-32.5 14q-22 0 -38 -14.5t-20 -36.5z" />
    <glyph glyph-name="Uhungarumlaut" unicode="&#x170;" horiz-adv-x="665" 
d="M568 256l79 444h95l-78 -444q-21 -117 -108 -191q-85 -73 -205 -73q-118 0 -179 73q-60 73 -39 191l78 444h95l-78 -444q-14 -80 24 -129q39 -50 113 -50q77 0 133 50q56 49 70 129zM381 733l-38 46l155 132l39 -46zM537 733l-38 46l155 132l39 -46z" />
    <glyph glyph-name="uhungarumlaut" unicode="&#x171;" horiz-adv-x="527" 
d="M466 450h90l-46 -262q-17 -89 -80 -142q-64 -54 -152 -54t-135 54q-45 54 -29 142l47 262h94l-46 -262q-8 -51 15.5 -83t69.5 -32q47 0 82 32t44 83zM268 506l-39 47l155 132l38 -47zM424 506l-39 47l155 132l38 -47z" />
    <glyph glyph-name="Uogonek" unicode="&#x172;" horiz-adv-x="665" 
d="M408 -37q-5 -25 6.5 -40t35.5 -15q23 0 41 15l26 -31q-31 -28 -75 -28q-43 0 -65 27t-14 72q1 14 10 30q-3 0 -11 -0.5t-11 -0.5q-118 0 -179 73q-60 73 -39 191l78 444h95l-78 -444q-14 -80 24 -129q39 -50 113 -50q77 0 133 50q56 49 70 129l79 444h95l-78 -444
q-18 -99 -82.5 -167.5t-157.5 -88.5q-13 -13 -16 -37z" />
    <glyph glyph-name="uogonek" unicode="&#x173;" horiz-adv-x="527" 
d="M324 -37q-5 -25 6.5 -40t35.5 -15q23 0 41 15l26 -31q-31 -28 -74 -28q-44 0 -65.5 27t-14.5 72q1 13 10 29h-11q-88 0 -135 54q-45 54 -29 142l47 262h94l-46 -262q-8 -51 15.5 -83t69.5 -32q47 0 82 32t44 83l46 262h90l-46 -262q-13 -71 -58.5 -121t-112.5 -67
q-12 -14 -15 -37z" />
    <glyph glyph-name="Wcircumflex" unicode="&#x174;" horiz-adv-x="1119" 
d="M1110 700h110l-381 -700h-95l-91 536l-277 -536h-96l-135 700h111l97 -552l281 552h98l85 -552zM564 779l155 132l109 -132l-54 -46l-71 85l-100 -85z" />
    <glyph glyph-name="wcircumflex" unicode="&#x175;" horiz-adv-x="790" 
d="M745 450h105l-251 -450h-96l-52 321l-164 -321h-96l-93 450h105l55 -338l170 338h92l51 -338zM360 553l156 132l108 -132l-54 -47l-71 86l-100 -86z" />
    <glyph glyph-name="Ycircumflex" unicode="&#x176;" horiz-adv-x="673" 
d="M383 0h-95l52 295l-195 405h110l149 -312l259 312h110l-338 -406zM341 779l155 132l109 -132l-55 -46l-70 85l-101 -85z" />
    <glyph glyph-name="ycircumflex" unicode="&#x177;" horiz-adv-x="529" 
d="M487 450h102l-444 -700h-101l177 250l-123 450h102l84 -340zM229 553l156 132l108 -132l-54 -47l-71 86l-100 -86z" />
    <glyph glyph-name="Ydieresis" unicode="&#x178;" horiz-adv-x="673" 
d="M383 0h-95l52 295l-195 405h110l149 -312l259 312h110l-338 -406zM391 852q22 0 35 -15.5t10 -38.5q-5 -23 -23.5 -38.5t-41.5 -15.5q-22 0 -35 15.5t-9 38.5t22.5 38.5t41.5 15.5zM517 798q4 23 22 39t41 16t36.5 -16t9.5 -39q-4 -22 -23 -38t-42 -16t-35.5 16t-8.5 38z
" />
    <glyph glyph-name="Zacute" unicode="&#x179;" horiz-adv-x="626" 
d="M547 621h-385l14 79h524l-5 -30l-496 -592h393l-13 -78h-532l5 30zM419 733l-39 46l156 132l38 -46z" />
    <glyph glyph-name="zacute" unicode="&#x17a;" horiz-adv-x="472" 
d="M356 378h-239l13 72h374l-5 -30l-305 -348h243l-12 -72h-378l5 30zM302 506l-38 47l155 132l38 -47z" />
    <glyph glyph-name="Zdotaccent" unicode="&#x17b;" horiz-adv-x="626" 
d="M547 621h-385l14 79h524l-5 -30l-496 -592h393l-13 -78h-532l5 30zM397 811q5 25 24.5 41.5t43.5 16.5t38 -17t9 -41q-4 -24 -23.5 -40.5t-43.5 -16.5t-38 16.5t-10 40.5z" />
    <glyph glyph-name="zdotaccent" unicode="&#x17c;" horiz-adv-x="472" 
d="M356 378h-239l13 72h374l-5 -30l-305 -348h243l-12 -72h-378l5 30zM281 585q4 24 24 40.5t44 16.5t37.5 -16.5t9.5 -40.5q-5 -24 -24.5 -41t-43.5 -17t-38 17t-9 41z" />
    <glyph glyph-name="Zcaron" unicode="&#x17d;" horiz-adv-x="626" 
d="M547 621h-385l14 79h524l-5 -30l-496 -592h393l-13 -78h-532l5 30zM597 865l-156 -132l-108 132l54 46l71 -85l100 85z" />
    <glyph glyph-name="zcaron" unicode="&#x17e;" horiz-adv-x="472" 
d="M480 638l-155 -132l-109 132l55 47l70 -86l101 86zM356 378h-239l13 72h374l-5 -30l-305 -348h243l-12 -72h-378l5 30z" />
    <glyph glyph-name="longs" unicode="&#x17f;" horiz-adv-x="305" 
d="M115 -250h-94l150 847q13 74 63.5 117.5t123.5 43.5q34 0 53 -10l-13 -77q-15 9 -37 9q-37 0 -63 -23t-32 -60z" />
    <glyph glyph-name="uni018F" unicode="&#x18f;" horiz-adv-x="740" 
d="M782 350q-28 -160 -135 -259t-250 -99q-145 0 -217 99t-44 259l7 36h545q8 107 -51 172t-165 65q-121 0 -206 -76l-50 61q115 100 275 100q159 0 239 -99q81 -98 52 -259zM673 307h-442q-9 -105 40 -167q49 -63 140 -63t162 63q72 64 100 167z" />
    <glyph glyph-name="florin" unicode="&#x192;" horiz-adv-x="331" 
d="M-3 -250l10 60q24 0 40 13t20 37l91 518h-60l13 72h60l26 147q13 74 64 117.5t124 43.5q34 0 53 -10l-14 -77q-15 9 -37 9q-37 0 -63 -23t-32 -60l-26 -147h119l-13 -72h-119l-92 -520q-9 -51 -44 -82t-84 -31q-23 0 -36 5z" />
    <glyph glyph-name="uni01DD" unicode="&#x1dd;" horiz-adv-x="506" 
d="M107 251h327q4 58 -28 91.5t-94 33.5q-70 0 -115 -42l-46 57q76 67 183 67q105 0 158 -65q54 -65 35 -171q-19 -101 -90 -166q-70 -64 -168 -64t-140.5 68.5t-21.5 190.5zM280 72q49 0 88 31t56 84h-236q-3 -55 20.5 -85t71.5 -30z" />
    <glyph glyph-name="Aringacute" unicode="&#x1fa;" horiz-adv-x="755" 
d="M501 859l-16 20l155 132l38 -46l-123 -105q59 -18 48 -88q-11 -56 -56 -80l186 -692h-110l-48 185h-331l-112 -185h-110l429 692q-37 25 -27 80q5 33 26 56t51 31zM555 270l-76 308l-186 -308h262zM464 771q-4 -22 7.5 -36t33.5 -14t37.5 14t19.5 36q4 23 -7 37t-33 14
q-21 0 -37.5 -14t-20.5 -37z" />
    <glyph glyph-name="aringacute" unicode="&#x1fb;" 
d="M379 458q129 0 180 -80l-66 -378h-92l6 34q-60 -42 -134 -42q-96 0 -144 64q-49 65 -29 169q20 103 96 168q77 65 183 65zM421 113l40 232q-34 31 -99 31q-63 0 -109 -41.5t-58 -109.5q-12 -67 20 -110q31 -42 96 -42q64 0 110 40zM382 658l-17 21l156 132l37 -47
l-124 -106q29 -7 42 -30.5t7 -57.5q-7 -41 -36 -66.5t-69 -25.5t-60.5 25.5t-13.5 66.5q6 33 27 56.5t51 31.5zM345 569q-4 -22 7 -36t33 -14t38 14t20 36q8 37 -25 48q-31 10 -56 -13q-15 -14 -17 -35z" />
    <glyph glyph-name="AEacute" unicode="&#x1fc;" horiz-adv-x="776" 
d="M839 621h-257l-41 -230h226l-14 -79h-226l-41 -234h263l-14 -78h-357l32 185h-166l-112 -185h-110l434 700h397zM480 579l-187 -309h132zM520 733l-39 46l156 132l38 -46z" />
    <glyph glyph-name="aeacute" unicode="&#x1fd;" horiz-adv-x="714" 
d="M343 264l8 44q6 31 -12.5 53t-56.5 22q-57 0 -100 -35l-41 49q71 61 162 61q74 0 110 -46q62 46 144 46q98 0 140.5 -68.5t21.5 -190.5h-296l-14 -79q32 -47 104 -47q69 0 116 43l45 -57q-76 -67 -182 -67q-114 0 -163 69q-67 -69 -150 -69q-60 0 -89 36t-20 90
q12 69 81 108q68 40 161 40q13 0 31 -2zM443 308l-8 -45h204q2 55 -22 85t-72 30q-59 0 -100 -42q0 -4 -2 -28zM316 109l17 93q-12 3 -28 3q-56 0 -95 -21t-45 -56q-6 -25 8.5 -43t47.5 -18q51 0 95 42zM445 506l-39 47l156 132l38 -47z" />
    <glyph glyph-name="Oslashacute" unicode="&#x1fe;" horiz-adv-x="803" 
d="M141 -8h-97l110 107q-73 97 -46 251q28 160 144 259t274 99q118 0 198 -60l62 60h96l-111 -107q73 -100 46 -251q-29 -161 -143 -259q-116 -99 -274 -99q-119 0 -198 59zM206 350q-19 -106 24 -179l422 408q-58 44 -141 44q-114 0 -199 -76t-106 -197zM719 350
q18 107 -23 178l-422 -407q56 -44 141 -44q115 0 198 76q85 76 106 197zM508 733l-39 46l156 132l38 -46z" />
    <glyph glyph-name="oslashacute" unicode="&#x1ff;" horiz-adv-x="553" 
d="M137 -8h-93l67 70q-48 64 -30 163q20 105 95 168q77 65 181 65q63 0 109 -25l30 32h93l-71 -75q50 -64 32 -165q-18 -105 -94 -169t-181 -64q-66 0 -113 26zM462 225q10 55 -10 97l-229 -240q27 -15 65 -15q64 0 113 44q49 43 61 114zM169 225q-9 -53 8 -93l228 238
q-27 13 -61 13q-64 0 -114 -44q-47 -43 -61 -114zM343 506l-39 47l156 132l38 -47z" />
    <glyph glyph-name="Scommaaccent" unicode="&#x218;" 
d="M577 622l-70 -60q-21 27 -57 44t-74 17q-54 0 -89 -33q-34 -33 -42 -74q-6 -35 14.5 -60.5t54.5 -39.5t74 -32.5t73 -38.5t50.5 -58.5t8.5 -90.5q-15 -86 -83 -145t-173 -59q-134 0 -210 97l69 59q25 -33 64.5 -52t82.5 -19q63 0 104 36q40 37 48 81q7 39 -22.5 65.5
t-75 44t-90 39t-71.5 64.5t-16 107q13 81 76 138q62 56 159 56q126 0 195 -86zM201 -231l-21 25q41 33 55 67q-16 2 -25 15.5t-6 30.5q4 20 20 34t36 14t31.5 -14.5t6.5 -40.5q-11 -60 -97 -131z" />
    <glyph glyph-name="scommaaccent" unicode="&#x219;" horiz-adv-x="386" 
d="M404 402l-66 -56q-29 35 -73 35q-26 0 -44.5 -16t-22.5 -38q-4 -23 14.5 -39t46.5 -27t55 -24.5t43 -40t9 -65.5q-10 -60 -59 -99.5t-120 -39.5q-95 0 -142 63l66 56q13 -19 36 -31t47 -12q32 0 54 18.5t26 43.5q4 22 -14 37t-46 26t-55.5 24.5t-43.5 41t-9 66.5
q12 58 56 95.5t109 37.5q88 0 133 -56zM122 -231l-21 25q41 33 55 67q-16 2 -25 15.5t-6 30.5q4 20 20 34t36 14t31.5 -14.5t6.5 -40.5q-11 -60 -97 -131z" />
    <glyph glyph-name="uni021A" unicode="&#x21a;" horiz-adv-x="557" 
d="M629 621h-194l-109 -621h-95l109 621h-194l14 79h483zM213 -231l-21 25q43 37 54 67q-16 2 -25 15.5t-6 30.5q4 20 20 34t37 14q20 0 31.5 -14.5t6.5 -40.5q-11 -60 -97 -131z" />
    <glyph glyph-name="uni021B" unicode="&#x21b;" horiz-adv-x="326" 
d="M151 378h-55l13 72h55l17 100h95l-17 -100h111l-13 -72h-111l-40 -231q-7 -34 9.5 -55.5t49.5 -21.5q21 0 39 9l-13 -77q-21 -10 -56 -10q-70 0 -103.5 42t-20.5 113zM114 -231l-21 25q43 37 55 67q-16 2 -25 15.5t-6 30.5q3 20 19.5 34t36.5 14t31.5 -14.5t6.5 -40.5
q-11 -60 -97 -131z" />
    <glyph glyph-name="dotlessj" unicode="&#x237;" horiz-adv-x="223" 
d="M-29 -250l10 60q24 0 40 13t20 37l104 590h91l-105 -592q-9 -52 -42 -82.5t-82 -30.5q-21 0 -36 5z" />
    <glyph glyph-name="circumflex" unicode="&#x2c6;" horiz-adv-x="352" 
d="M141 553l155 132l109 -132l-54 -47l-71 86l-100 -86z" />
    <glyph glyph-name="caron" unicode="&#x2c7;" horiz-adv-x="352" 
d="M420 638l-155 -132l-109 132l55 47l70 -86l101 86z" />
    <glyph glyph-name="breve" unicode="&#x2d8;" horiz-adv-x="356" 
d="M388 627l38 -46q-68 -62 -157 -62q-85 0 -135 62l54 47q32 -41 93 -41q63 0 107 40z" />
    <glyph glyph-name="dotaccent" unicode="&#x2d9;" horiz-adv-x="223" 
d="M162 585q4 24 23.5 40.5t43.5 16.5q25 0 38.5 -16.5t9.5 -40.5q-5 -24 -24.5 -41t-43.5 -17q-25 0 -38.5 17t-8.5 41z" />
    <glyph glyph-name="ring" unicode="&#x2da;" horiz-adv-x="275" 
d="M159 590q7 41 36.5 66.5t69.5 25.5t60.5 -25.5t12.5 -66.5q-7 -41 -36.5 -66t-69.5 -25q-39 0 -59.5 25.5t-13.5 65.5zM298 590q4 22 -7.5 36.5t-33.5 14.5q-31 3 -49.5 -31.5t-0.5 -55.5q18 -23 52.5 -10.5t38.5 46.5z" />
    <glyph glyph-name="ogonek" unicode="&#x2db;" horiz-adv-x="257" 
d="M91 -37q-10 -37 22.5 -51t60.5 11l26 -31q-31 -28 -74 -28q-44 0 -65.5 27t-13.5 72q3 24 15 37h45q-12 -14 -16 -37z" />
    <glyph glyph-name="tilde" unicode="&#x2dc;" horiz-adv-x="342" 
d="M171 533h-51q7 41 37 67t69 26q32 0 57 -24q26 -23 43 -23t30.5 12t16.5 31h51q-7 -42 -37 -68t-70 -26q-32 0 -57 23q-23 24 -41 24t-31.5 -11.5t-16.5 -30.5z" />
    <glyph glyph-name="hungarumlaut" unicode="&#x2dd;" horiz-adv-x="422" 
d="M180 506l-39 47l155 132l38 -47zM336 506l-39 47l155 132l38 -47z" />
    <glyph glyph-name="uni0400" unicode="&#x400;" horiz-adv-x="491" 
d="M551 621h-280l-40 -230h248l-14 -79h-248l-41 -234h284l-13 -78h-380l123 700h375zM299 865l54 46l109 -132l-55 -46z" />
    <glyph glyph-name="afii10023" unicode="&#x401;" horiz-adv-x="491" 
d="M551 621h-280l-40 -230h248l-14 -79h-248l-41 -234h284l-13 -78h-380l123 700h375zM246 798q4 22 22.5 38t41.5 16q22 0 35.5 -16t9.5 -38q-5 -23 -23.5 -38.5t-40.5 -15.5q-23 0 -36 15.5t-9 38.5zM545 798q-4 -22 -23 -38t-42 -16q-22 -2 -34.5 14.5t-9.5 40t22 38.5
q31 25 62 11t25 -50z" />
    <glyph glyph-name="afii10051" unicode="&#x402;" horiz-adv-x="689" 
d="M479 0l9 60q53 0 61 50l23 133q8 48 -14 77.5t-67 29.5q-62 0 -111 -41l-54 -309h-95l109 621h-194l14 79h483l-14 -79h-194l-41 -233q61 43 135 43q78 0 115.5 -52t22.5 -136l-24 -135q-9 -52 -43.5 -82.5t-84.5 -30.5q-23 0 -36 5z" />
    <glyph glyph-name="afii10052" unicode="&#x403;" horiz-adv-x="464" 
d="M352 733l-39 46l155 132l39 -46zM162 0h-95l123 700h359l-13 -79h-265z" />
    <glyph glyph-name="afii10053" unicode="&#x404;" horiz-adv-x="696" 
d="M544 623q-105 0 -187 -64q-82 -63 -112 -168h394l-14 -79h-394q-7 -106 51 -171q58 -64 165 -64q121 0 206 75l50 -60q-116 -100 -275 -100q-158 0 -239 99t-53 259t144 259t274 99q159 0 240 -100l-71 -61q-60 76 -179 76z" />
    <glyph glyph-name="afii10054" unicode="&#x405;" 
d="M577 622l-70 -60q-21 27 -57 44t-74 17q-54 0 -89 -33q-34 -33 -42 -74q-6 -35 14.5 -60.5t54.5 -39.5t74 -32.5t73 -38.5t50.5 -58.5t8.5 -90.5q-15 -86 -83 -145t-173 -59q-134 0 -210 97l69 59q25 -33 64.5 -52t82.5 -19q63 0 104 36q40 37 48 81q7 39 -22.5 65.5
t-75 44t-90 39t-71.5 64.5t-16 107q13 81 76 138q62 56 159 56q126 0 195 -86z" />
    <glyph glyph-name="afii10055" unicode="&#x406;" horiz-adv-x="226" 
d="M160 0h-94l123 700h94z" />
    <glyph glyph-name="afii10056" unicode="&#x407;" horiz-adv-x="226" 
d="M160 0h-94l123 700h94zM182 852q22 0 35 -15.5t10 -38.5q-4 -22 -23 -38t-42 -16q-22 0 -35 15.5t-9 38.5t22.5 38.5t41.5 15.5zM281 798q4 23 22 39t41 16t36.5 -16t9.5 -39q-5 -23 -23.5 -38.5t-41.5 -15.5t-35.5 16t-8.5 38z" />
    <glyph glyph-name="afii10057" unicode="&#x408;" horiz-adv-x="451" 
d="M325 193l89 507h95l-90 -507q-17 -91 -82 -146q-64 -55 -155 -55q-90 0 -137 56l72 61q24 -32 76 -32q49 0 85.5 32t46.5 84z" />
    <glyph glyph-name="afii10058" unicode="&#x409;" horiz-adv-x="944" 
d="M685 0h-207l109 621h-229l-78 -438q-15 -86 -68 -137t-125 -51q-32 0 -52 5l9 60q54 0 91 31.5t47 87.5l91 521h426l-53 -299h110q95 0 143.5 -55t32.5 -145q-16 -91 -84 -147q-67 -54 -163 -54zM834 201q10 53 -16 85.5t-77 32.5h-110l-41 -237h109q51 0 88 32.5
t47 86.5z" />
    <glyph glyph-name="afii10059" unicode="&#x40a;" horiz-adv-x="941" 
d="M190 700h95l-52 -299h312l52 299h98l-52 -299h109q95 0 144 -55q49 -54 33 -145q-17 -91 -84 -147q-67 -54 -163 -54h-208l56 319h-312l-56 -319h-95zM831 201q9 53 -17 85.5t-77 32.5h-109l-42 -237h110q51 0 87.5 32.5t47.5 86.5z" />
    <glyph glyph-name="afii10060" unicode="&#x40b;" horiz-adv-x="689" 
d="M629 621h-194l-41 -233q61 43 135 43q78 0 115.5 -52t22.5 -136l-42 -243h-95l42 243q8 48 -14 77.5t-67 29.5q-62 0 -111 -41l-54 -309h-95l109 621h-194l14 79h483z" />
    <glyph glyph-name="afii10061" unicode="&#x40c;" horiz-adv-x="607" 
d="M160 0h-94l123 700h94zM583 0h-122l-235 360l337 340h119l-337 -340zM409 733l-39 46l156 132l38 -46z" />
    <glyph glyph-name="uni040D" unicode="&#x40d;" horiz-adv-x="700" 
d="M393 865l55 46l108 -132l-54 -46zM193 181l501 519h62l-123 -700h-95l91 519l-499 -519h-63l123 700h95z" />
    <glyph glyph-name="afii10062" unicode="&#x40e;" horiz-adv-x="609" 
d="M447 813q63 0 107 41l38 -47q-68 -61 -157 -61q-84 0 -135 62l55 46q32 -41 92 -41zM611 700h102l-472 -700h-102l159 220l-156 480h102l119 -370z" />
    <glyph glyph-name="afii10145" unicode="&#x40f;" horiz-adv-x="690" 
d="M274 -150l27 150h-234l123 700h95l-109 -622h366l109 622h95l-123 -700h-233l-27 -150h-89z" />
    <glyph glyph-name="afii10017" unicode="&#x410;" horiz-adv-x="755" 
d="M733 0h-110l-48 185h-331l-112 -185h-110l434 700h89zM555 270l-76 308l-186 -308h262z" />
    <glyph glyph-name="afii10018" unicode="&#x411;" horiz-adv-x="539" 
d="M280 0h-213l123 700h369l-14 -79h-270l-39 -220h115q95 0 143.5 -55t32.5 -145q-17 -91 -84 -147q-67 -54 -163 -54zM429 201q10 53 -16 85.5t-77 32.5h-115l-41 -237h114q51 0 88 32.5t47 86.5z" />
    <glyph glyph-name="afii10019" unicode="&#x412;" horiz-adv-x="550" 
d="M294 0h-227l123 700h203q87 0 130.5 -49.5t28.5 -132.5q-16 -98 -101 -148q49 -20 71 -66.5t11 -108.5q-17 -90 -82 -142q-65 -53 -157 -53zM440 202q10 53 -16.5 86t-77.5 33h-125l-41 -239h124q51 0 88.5 33t47.5 87zM456 510q9 49 -14 78.5t-70 29.5h-98l-38 -216h98
q46 0 80 30t42 78z" />
    <glyph glyph-name="afii10020" unicode="&#x413;" horiz-adv-x="464" 
d="M162 0h-95l123 700h359l-13 -79h-265z" />
    <glyph glyph-name="afii10021" unicode="&#x414;" horiz-adv-x="683" 
d="M537 -150l27 150h-445l-27 -150h-88l39 225q54 0 91 40.5t50 114.5l83 470h435l-109 -622h73l-41 -228h-88zM351 621l-69 -391q-18 -99 -80 -152h293l95 543h-239z" />
    <glyph glyph-name="afii10022" unicode="&#x415;" horiz-adv-x="491" 
d="M551 621h-280l-40 -230h248l-14 -79h-248l-41 -234h284l-13 -78h-380l123 700h375z" />
    <glyph glyph-name="afii10024" unicode="&#x416;" horiz-adv-x="920" 
d="M507 0h-95l123 700h95zM896 0h-112l-211 360l318 340h110l-319 -340zM274 700l199 -340l-337 -360h-112l339 360l-198 340h109z" />
    <glyph glyph-name="afii10025" unicode="&#x417;" horiz-adv-x="550" 
d="M346 321h-104l15 81h77q50 0 85 29.5t44 81.5t-16.5 82t-78.5 30q-84 0 -166 -70l-47 57q114 96 235 96q95 0 139.5 -51t29.5 -136q-18 -103 -108 -151q49 -21 71 -67.5t11 -108.5q-16 -91 -89 -147q-70 -55 -175 -55q-138 0 -216 100l70 60q60 -77 154 -77
q64 0 108 34.5t55 92.5q10 53 -16.5 86t-77.5 33z" />
    <glyph glyph-name="afii10026" unicode="&#x418;" horiz-adv-x="700" 
d="M193 181l501 519h62l-123 -700h-95l91 519l-499 -519h-63l123 700h95z" />
    <glyph glyph-name="afii10027" unicode="&#x419;" horiz-adv-x="700" 
d="M493 813q63 0 107 41l38 -47q-68 -61 -157 -61q-85 0 -135 62l55 46q32 -41 92 -41zM193 181l501 519h62l-123 -700h-95l91 519l-499 -519h-63l123 700h95z" />
    <glyph glyph-name="afii10028" unicode="&#x41a;" horiz-adv-x="607" 
d="M160 0h-94l123 700h94zM583 0h-122l-235 360l337 340h119l-337 -340z" />
    <glyph glyph-name="afii10029" unicode="&#x41b;" horiz-adv-x="657" 
d="M35 0l9 60q54 0 91 31.5t47 87.5l91 521h439l-123 -700h-98l109 621h-242l-78 -438q-15 -86 -68 -137t-125 -51q-32 0 -52 5z" />
    <glyph glyph-name="afii10030" unicode="&#x41c;" horiz-adv-x="803" 
d="M735 0h-95l89 506l-282 -352h-38l-158 352l-89 -506h-95l123 700h72l190 -410l335 410h71z" />
    <glyph glyph-name="afii10031" unicode="&#x41d;" horiz-adv-x="687" 
d="M190 700h95l-54 -309h362l55 309h94l-123 -700h-94l55 312h-363l-55 -312h-95z" />
    <glyph glyph-name="afii10032" unicode="&#x41e;" horiz-adv-x="803" 
d="M136 350q28 160 144 259t274 99q160 0 239 -99q81 -98 52 -259t-143 -259q-116 -99 -274 -99t-239 99t-53 259zM234 350q-22 -121 36 -197t173 -76t198 76q85 76 106 197q23 122 -36 197q-57 76 -172 76q-114 0 -199 -76t-106 -197z" />
    <glyph glyph-name="afii10033" unicode="&#x41f;" horiz-adv-x="654" 
d="M67 0l123 700h519l-123 -700h-94l109 621h-330l-109 -621h-95z" />
    <glyph glyph-name="afii10034" unicode="&#x420;" horiz-adv-x="524" 
d="M165 0h-98l123 700h198q95 0 144 -55t33 -146t-85 -146q-68 -54 -163 -54h-99zM467 499q9 54 -16.5 86.5t-76.5 32.5h-100l-42 -237h100q51 0 88 32.5t47 85.5z" />
    <glyph glyph-name="afii10035" unicode="&#x421;" horiz-adv-x="696" 
d="M234 350q-22 -120 37 -197q60 -76 176 -76q121 0 206 75l50 -60q-116 -100 -275 -100q-158 0 -239 99t-53 259t144 259t274 99q159 0 240 -100l-71 -61q-60 76 -179 76q-117 0 -203 -76q-86 -77 -107 -197z" />
    <glyph glyph-name="afii10036" unicode="&#x422;" horiz-adv-x="557" 
d="M629 621h-194l-109 -621h-95l109 621h-194l14 79h483z" />
    <glyph glyph-name="afii10037" unicode="&#x423;" horiz-adv-x="609" 
d="M611 700h102l-472 -700h-102l159 220l-156 480h102l119 -370z" />
    <glyph glyph-name="afii10038" unicode="&#x424;" horiz-adv-x="784" 
d="M462 0h-95l11 67q-133 0 -202 78q-68 80 -46 205q22 126 119 204q95 79 229 79l12 67h95l-12 -67q134 0 201 -79q69 -78 46 -204q-22 -126 -118 -205q-96 -78 -229 -78zM558 548l-70 -396q90 0 154 55q65 56 80 143q17 89 -30 143q-45 55 -134 55zM393 152l70 396
q-90 0 -155 -55q-65 -56 -80 -143q-16 -88 30 -143t135 -55z" />
    <glyph glyph-name="afii10039" unicode="&#x425;" horiz-adv-x="728" 
d="M704 0h-122l-168 291l-268 -291h-122l332 355l-201 345h122l160 -280l259 280h123l-324 -345z" />
    <glyph glyph-name="afii10040" unicode="&#x426;" horiz-adv-x="723" 
d="M578 -150l27 150h-538l123 700h95l-109 -622h366l109 622h95l-110 -622h70l-40 -228h-88z" />
    <glyph glyph-name="afii10041" unicode="&#x427;" horiz-adv-x="577" 
d="M650 700l-123 -700h-91l54 307q-68 -18 -149 -18q-100 0 -142.5 55.5t-24.5 160.5l34 195h92l-34 -191q-25 -145 108 -145q80 0 129 18l56 318h91z" />
    <glyph glyph-name="afii10042" unicode="&#x428;" horiz-adv-x="1001" 
d="M1057 700l-123 -700h-867l123 700h95l-109 -622h291l109 622h95l-110 -622h291l110 622h95z" />
    <glyph glyph-name="afii10043" unicode="&#x429;" horiz-adv-x="1034" 
d="M888 -150l27 150h-848l123 700h95l-109 -622h291l109 622h95l-110 -622h291l110 622h95l-110 -622h70l-40 -228h-89z" />
    <glyph glyph-name="afii10044" unicode="&#x42a;" horiz-adv-x="657" 
d="M300 621h-154l14 79h251l-52 -299h109q95 0 144 -55q49 -54 33 -145q-17 -91 -84 -147q-67 -54 -163 -54h-208zM547 201q10 53 -16.5 85.5t-77.5 32.5h-109l-41 -237h109q51 0 88 32.5t47 86.5z" />
    <glyph glyph-name="afii10045" unicode="&#x42b;" horiz-adv-x="742" 
d="M275 0h-208l123 700h98l-52 -299h109q95 0 144 -55q49 -54 33 -145t-84 -147q-68 -54 -163 -54zM424 201q10 53 -16.5 85.5t-77.5 32.5h-109l-41 -237h109q51 0 88 32.5t47 86.5zM674 0h-95l123 700h95z" />
    <glyph glyph-name="afii10046" unicode="&#x42c;" horiz-adv-x="534" 
d="M275 0h-208l123 700h98l-52 -299h109q95 0 144 -55q49 -54 33 -145t-84 -147q-68 -54 -163 -54zM424 201q10 53 -16.5 85.5t-77.5 32.5h-109l-41 -237h109q51 0 88 32.5t47 86.5z" />
    <glyph glyph-name="afii10047" unicode="&#x42d;" horiz-adv-x="696" 
d="M193 547l-49 61q115 100 275 100q159 0 238 -99q81 -99 53 -259t-144 -259t-273 -99q-159 0 -240 100l71 60q58 -75 179 -75q107 0 189 64q82 65 111 171h-335l14 79h335q6 104 -53 168q-58 64 -164 64q-121 0 -207 -76z" />
    <glyph glyph-name="afii10048" unicode="&#x42e;" horiz-adv-x="1030" 
d="M190 700h95l-54 -309h170q38 143 141 230q104 87 239 87q144 0 218 -99q73 -99 45 -259q-28 -159 -137 -259q-107 -99 -252 -99q-136 0 -209 88q-73 87 -59 232h-170l-55 -312h-95zM489 350q-21 -121 29 -198q50 -75 151 -75t178 75q77 76 99 198q21 121 -29 197
q-49 76 -151 76t-178 -76q-77 -77 -99 -197z" />
    <glyph glyph-name="afii10049" unicode="&#x42f;" horiz-adv-x="547" 
d="M382 700h221l-123 -700h-98l52 299h-92l-205 -299h-108l221 306q-67 17 -97.5 68t-17.5 125q16 91 83 146t164 55zM233 499q-10 -53 15.5 -85.5t76.5 -32.5h123l42 237h-123q-51 0 -88 -32.5t-46 -86.5z" />
    <glyph glyph-name="afii10065" unicode="&#x430;" 
d="M379 458q129 0 180 -80l-66 -378h-92l6 34q-60 -42 -134 -42q-96 0 -144 64q-49 65 -29 169q20 103 96 168q77 65 183 65zM421 113l40 232q-34 31 -99 31q-63 0 -109 -41.5t-58 -109.5q-12 -67 20 -110q31 -42 96 -42q64 0 110 40z" />
    <glyph glyph-name="afii10066" unicode="&#x431;" horiz-adv-x="563" 
d="M564 755l41 -51q-42 -39 -86 -63q-35 -20 -86.5 -38t-67.5 -26q-36 -17 -63 -36q-60 -45 -89 -169h6q69 86 166 86q91 0 143 -66q53 -65 35 -170q-18 -104 -95 -167q-76 -63 -190 -63q-51 0 -86.5 13.5t-62.5 49t-30.5 96t9.5 153.5q39 225 168 311q50 34 153 68
q93 31 135 72zM194 225q-12 -68 16.5 -110t90.5 -42q63 0 109 42q47 44 59 110q12 67 -20 109q-31 42 -94 42q-62 0 -105.5 -41t-55.5 -110z" />
    <glyph glyph-name="afii10067" unicode="&#x432;" horiz-adv-x="445" 
d="M260 0h-194l79 450h177q60 0 89.5 -31.5t20.5 -83.5q-11 -66 -69 -97q73 -28 59 -114q-10 -57 -53.5 -90.5t-108.5 -33.5zM279 202h-87l-23 -133h86q28 0 50 18.5t28 47.5q5 29 -10.5 48t-43.5 19zM224 381l-21 -117h72q25 0 43.5 16.5t23.5 42.5q4 25 -9 41.5t-38 16.5
h-71z" />
    <glyph glyph-name="afii10068" unicode="&#x433;" horiz-adv-x="367" 
d="M396 378h-173l-66 -378h-91l79 450h264z" />
    <glyph glyph-name="afii10069" unicode="&#x434;" horiz-adv-x="539" 
d="M457 72h62l-34 -192h-85l22 120h-305l-22 -120h-85l34 192q37 0 66.5 26.5t36.5 66.5l50 285h327zM276 378l-36 -205q-11 -61 -57 -101h183l53 306h-143z" />
    <glyph glyph-name="afii10070" unicode="&#x435;" horiz-adv-x="506" 
d="M521 199h-328q-4 -58 29 -92t93 -34q69 0 116 43l45 -57q-76 -67 -182 -67q-107 0 -159 64q-53 66 -34 172q18 101 89 166q71 64 169 64t140.5 -68.5t21.5 -190.5zM347 378q-49 0 -87.5 -31t-54.5 -84h236q2 54 -22 84.5t-72 30.5z" />
    <glyph glyph-name="afii10072" unicode="&#x436;" horiz-adv-x="682" 
d="M658 0h-104l-127 227l-40 -227h-92l40 228l-207 -228h-104l219 238l-123 212h105l113 -202l36 202h92l-36 -202l185 202h105l-197 -212z" />
    <glyph glyph-name="afii10073" unicode="&#x437;" horiz-adv-x="410" 
d="M272 458q69 0 103.5 -33.5t24.5 -88.5q-11 -68 -72 -101q73 -28 58 -116q-10 -58 -60.5 -92.5t-130.5 -34.5q-99 0 -153 67l60 52q33 -44 97 -44q41 0 67 19t31 50q5 29 -9.5 46t-44.5 17h-69l11 62h51q26 0 46.5 17.5t25.5 42.5q3 26 -11.5 44t-46.5 18q-56 0 -100 -41
l-43 51q76 65 165 65z" />
    <glyph glyph-name="afii10074" unicode="&#x438;" horiz-adv-x="529" 
d="M145 450h91l-53 -302l287 302h72l-79 -450h-92l53 302l-286 -302h-72z" />
    <glyph glyph-name="afii10075" unicode="&#x439;" horiz-adv-x="529" 
d="M367 587q63 0 107 40l38 -46q-68 -62 -157 -62q-85 0 -135 62l54 47q33 -41 93 -41zM145 450h91l-53 -302l287 302h72l-79 -450h-92l53 302l-286 -302h-72z" />
    <glyph glyph-name="afii10076" unicode="&#x43a;" horiz-adv-x="475" 
d="M196 225l-39 -225h-91l79 450h91l-35 -199l203 199h109l-219 -212l157 -238h-108z" />
    <glyph glyph-name="afii10077" unicode="&#x43b;" horiz-adv-x="501" 
d="M35 0l9 60q37 0 62.5 21.5t32.5 60.5l54 308h322l-79 -450h-92l66 378h-139l-41 -239q-12 -67 -52.5 -105.5t-99.5 -38.5q-28 0 -43 5z" />
    <glyph glyph-name="afii10078" unicode="&#x43c;" horiz-adv-x="599" 
d="M151 0h-85l79 450h87l102 -251l191 251h87l-79 -450h-85l54 308l-163 -221h-49l-85 221z" />
    <glyph glyph-name="afii10079" unicode="&#x43d;" horiz-adv-x="525" 
d="M145 450h91l-33 -187h211l33 187h91l-79 -450h-91l33 191h-211l-33 -191h-91z" />
    <glyph glyph-name="afii10080" unicode="&#x43e;" horiz-adv-x="553" 
d="M376 458q105 0 158 -65q54 -65 35 -168q-18 -105 -94 -169t-181 -64t-159 64q-55 65 -35 169q20 105 95 168q77 65 181 65zM475 225q12 67 -20 109t-94 42t-108 -41.5t-58 -109.5t19.5 -110t93.5 -42t108.5 42t58.5 110z" />
    <glyph glyph-name="afii10081" unicode="&#x43f;" horiz-adv-x="513" 
d="M448 0h-92l66 378h-199l-66 -378h-91l79 450h382z" />
    <glyph glyph-name="afii10082" unicode="&#x440;" horiz-adv-x="541" 
d="M21 -250l124 700h91l-6 -35q59 43 136 43q97 0 143 -64q47 -65 29 -169q-20 -105 -93 -169t-176 -64q-65 0 -109 28l-48 -270h-91zM327 376q-65 0 -112 -41l-39 -224q32 -38 98 -38q63 0 110 42.5t59 109.5t-20.5 109t-95.5 42z" />
    <glyph glyph-name="afii10083" unicode="&#x441;" horiz-adv-x="474" 
d="M195 225q-12 -68 20 -110t96 -42q67 0 113 43l46 -57q-74 -67 -179 -67t-157 64q-53 66 -34 169q20 104 94 168q77 65 180 65q101 0 154 -68l-66 -57q-30 43 -98 43q-63 0 -110 -42t-59 -109z" />
    <glyph glyph-name="afii10084" unicode="&#x442;" horiz-adv-x="436" 
d="M465 378h-135l-66 -378h-92l66 378h-135l13 72h362z" />
    <glyph glyph-name="afii10085" unicode="&#x443;" horiz-adv-x="529" 
d="M487 450h102l-444 -700h-101l177 250l-123 450h102l84 -340z" />
    <glyph glyph-name="afii10086" unicode="&#x444;" horiz-adv-x="692" 
d="M433 -5q-18 0 -23 1l-44 -246h-92l44 246q-5 -1 -23 -1q-106 0 -160 63q-54 64 -35 167q20 105 95 167q77 63 181 63q18 0 23 -1l52 296h92l-53 -296q5 1 24 1q105 0 159 -63q54 -64 35 -167q-20 -105 -95 -167q-75 -63 -180 -63zM500 376q-6 0 -24 -2l-53 -299
q18 -2 24 -2q61 0 108 42q48 45 58 110q12 67 -19.5 109t-93.5 42zM308 73q2 0 24 2l53 299q-22 2 -24 2q-62 0 -108 -41.5t-58 -109.5t19.5 -110t93.5 -42z" />
    <glyph glyph-name="afii10087" unicode="&#x445;" horiz-adv-x="519" 
d="M495 0h-106l-100 172l-159 -172h-106l215 230l-128 220h106l92 -162l150 162h106l-207 -220z" />
    <glyph glyph-name="afii10088" unicode="&#x446;" horiz-adv-x="536" 
d="M419 0h-353l79 450h91l-67 -378h199l67 378h92l-67 -378h56l-34 -192h-85z" />
    <glyph glyph-name="afii10089" unicode="&#x447;" horiz-adv-x="477" 
d="M503 450l-79 -450h-92l32 182q-51 -17 -103 -17q-74 0 -107 42.5t-20 116.5l22 126h91l-22 -123q-6 -40 11.5 -63t60.5 -23q50 0 80 18l34 191h92z" />
    <glyph glyph-name="afii10090" unicode="&#x448;" horiz-adv-x="710" 
d="M413 72h152l67 378h91l-79 -450h-578l79 450h91l-67 -378h152l67 378h92z" />
    <glyph glyph-name="afii10091" unicode="&#x449;" horiz-adv-x="733" 
d="M616 0h-550l79 450h91l-67 -378h152l67 378h92l-67 -378h152l67 378h91l-67 -378h57l-34 -192h-85z" />
    <glyph glyph-name="afii10092" unicode="&#x44a;" horiz-adv-x="517" 
d="M326 0h-171l66 378h-118l13 72h210l-32 -183h79q71 0 104.5 -36.5t22.5 -97.5t-57.5 -97t-116.5 -36zM357 198h-76l-23 -129h76q28 0 48.5 18t25.5 46t-9.5 46.5t-41.5 18.5z" />
    <glyph glyph-name="afii10093" unicode="&#x44b;" horiz-adv-x="609" 
d="M236 0h-170l79 450h91l-32 -183h79q71 0 104.5 -36.5t22.5 -97.5q-10 -61 -56.5 -97t-117.5 -36zM267 198h-76l-22 -129h75q28 0 49 18t26 46q4 28 -10.5 46.5t-41.5 18.5zM543 0h-92l79 450h92z" />
    <glyph glyph-name="afii10094" unicode="&#x44c;" horiz-adv-x="428" 
d="M236 0h-170l79 450h91l-32 -183h79q71 0 104.5 -36.5t22.5 -97.5q-10 -61 -56.5 -97t-117.5 -36zM267 198h-76l-22 -129h75q28 0 49 18t26 46q4 28 -10.5 46.5t-41.5 18.5z" />
    <glyph glyph-name="afii10095" unicode="&#x44d;" horiz-adv-x="474" 
d="M368 194h-185l11 65h185q-1 54 -33 85.5t-86 31.5q-68 0 -113 -42l-47 56q77 68 180 68t156 -65t35 -168q-20 -106 -95 -169q-74 -64 -178 -64q-102 0 -156 68l67 57q32 -44 98 -44q55 0 98.5 33t62.5 88z" />
    <glyph glyph-name="afii10096" unicode="&#x44e;" horiz-adv-x="749" 
d="M145 450h91l-33 -187h100q28 90 97 142q71 53 162 53q101 0 152 -65t33 -168q-20 -105 -93 -169t-174 -64q-93 0 -144 54.5t-46 144.5h-100l-33 -191h-91zM494 73q58 0 102 42t56 110q12 67 -17 109t-88 42t-103 -42q-43 -42 -55 -109t17 -109.5t88 -42.5z" />
    <glyph glyph-name="afii10097" unicode="&#x44f;" horiz-adv-x="466" 
d="M292 450h187l-79 -450h-91l31 179h-70l-126 -179h-96l141 186q-45 13 -64 46.5t-11 81.5q11 62 59 99t119 37zM259 247h93l23 134h-92q-28 0 -50 -18.5t-27 -47.5q-5 -30 10 -49t43 -19z" />
    <glyph glyph-name="uni0450" unicode="&#x450;" horiz-adv-x="506" 
d="M521 199h-328q-4 -58 29 -92t93 -34q69 0 116 43l45 -57q-76 -67 -182 -67q-107 0 -159 64q-53 66 -34 172q18 101 89 166q71 64 169 64t140.5 -68.5t21.5 -190.5zM347 378q-49 0 -87.5 -31t-54.5 -84h236q2 54 -22 84.5t-72 30.5zM282 638l55 47l109 -132l-54 -47z" />
    <glyph glyph-name="afii10071" unicode="&#x451;" horiz-adv-x="506" 
d="M521 199h-328q-4 -58 29 -92t93 -34q69 0 116 43l45 -57q-76 -67 -182 -67q-107 0 -159 64q-53 66 -34 172q18 101 89 166q71 64 169 64t140.5 -68.5t21.5 -190.5zM347 378q-49 0 -87.5 -31t-54.5 -84h236q2 54 -22 84.5t-72 30.5zM227 553q4 22 22.5 38t41.5 16
t36 -15.5t8 -38.5q-4 -22 -22 -38t-41 -16t-36 15.5t-9 38.5zM417 553q4 23 22.5 39t41.5 16t36 -16t9 -39t-22.5 -38.5t-41.5 -15.5q-24 0 -37 15.5t-8 38.5z" />
    <glyph glyph-name="afii10099" unicode="&#x452;" 
d="M285 -250l10 60q53 0 61 50l72 410q8 47 -14.5 76.5t-67.5 29.5q-67 0 -111 -41l-58 -335h-92l101 578h-55l13 72h55l18 100h92l-18 -100h164l-13 -72h-164l-29 -163q61 43 135 43q77 0 113.5 -51.5t21.5 -136.5l-73 -412q-8 -51 -41.5 -82t-82.5 -31q-22 0 -37 5z" />
    <glyph glyph-name="afii10100" unicode="&#x453;" horiz-adv-x="367" 
d="M263 506l-39 47l156 132l37 -47zM396 378h-173l-66 -378h-91l79 450h264z" />
    <glyph glyph-name="afii10101" unicode="&#x454;" horiz-adv-x="474" 
d="M364 376q-55 0 -98 -32t-62 -85h210l-11 -65h-211q-1 -55 31 -88t88 -33q67 0 113 43l46 -57q-74 -67 -179 -67t-157 64q-53 66 -34 169q20 104 94 168q77 65 180 65q101 0 154 -68l-66 -57q-30 43 -98 43z" />
    <glyph glyph-name="afii10102" unicode="&#x455;" horiz-adv-x="386" 
d="M404 402l-66 -56q-29 35 -73 35q-26 0 -44.5 -16t-22.5 -38q-4 -23 14.5 -39t46.5 -27t55 -24.5t43 -40t9 -65.5q-10 -60 -59 -99.5t-120 -39.5q-95 0 -142 63l66 56q13 -19 36 -31t47 -12q32 0 54 18.5t26 43.5q4 22 -14 37t-46 26t-55.5 24.5t-43.5 41t-9 66.5
q12 58 56 95.5t109 37.5q88 0 133 -56z" />
    <glyph glyph-name="afii10103" unicode="&#x456;" horiz-adv-x="223" 
d="M157 0h-91l79 450h91zM157 585q4 24 23.5 40.5t43.5 16.5q25 0 38.5 -16.5t9.5 -40.5q-5 -24 -24.5 -41t-43.5 -17q-25 0 -38.5 17t-8.5 41z" />
    <glyph glyph-name="afii10104" unicode="&#x457;" horiz-adv-x="223" 
d="M157 0h-91l79 450h91zM85 522q-13 16 -9 39t22 39t41 16t36 -16t9 -39t-22 -39q-18 -15 -41 -15t-36 15zM280 507q-22 0 -35.5 15.5t-9.5 38.5t22.5 39t41.5 16t36 -16t9 -39t-22.5 -38.5t-41.5 -15.5z" />
    <glyph glyph-name="afii10105" unicode="&#x458;" horiz-adv-x="223" 
d="M157 585q4 24 23.5 40.5t43.5 16.5q25 0 38.5 -16.5t9.5 -40.5q-5 -24 -24.5 -41t-43.5 -17q-25 0 -38.5 17t-8.5 41zM-29 -250l10 60q24 0 40 13t20 37l104 590h91l-105 -592q-9 -52 -42 -82.5t-82 -30.5q-21 0 -36 5z" />
    <glyph glyph-name="afii10106" unicode="&#x459;" horiz-adv-x="703" 
d="M515 0h-171l66 378h-139l-41 -239q-12 -67 -52.5 -105.5t-99.5 -38.5q-28 0 -43 5l9 60q37 0 62.5 21.5t32.5 60.5l54 308h322l-33 -183h79q71 0 105 -36.5t23 -97.5t-57.5 -97t-116.5 -36zM546 198h-76l-23 -129h76q27 0 48.5 18.5t25.5 45.5q5 28 -9.5 46.5t-41.5 18.5
z" />
    <glyph glyph-name="afii10107" unicode="&#x45a;" horiz-adv-x="729" 
d="M145 450h91l-33 -187h207l33 187h92l-33 -187h86q69 0 101.5 -35.5t22.5 -96.5q-11 -60 -56 -95.5t-114 -35.5h-178l33 191h-207l-33 -191h-91zM572 191h-83l-22 -122h83q27 0 46.5 17t23.5 44q5 28 -8.5 44.5t-39.5 16.5z" />
    <glyph glyph-name="afii10108" unicode="&#x45b;" 
d="M186 578h-55l13 72h55l18 100h92l-18 -100h164l-13 -72h-164l-29 -163q61 43 135 43q77 0 113.5 -51.5t21.5 -136.5l-47 -270h-91l47 270q8 47 -14.5 76.5t-67.5 29.5q-67 0 -111 -41l-58 -335h-92z" />
    <glyph glyph-name="afii10109" unicode="&#x45c;" horiz-adv-x="475" 
d="M196 225l-39 -225h-91l79 450h91l-35 -199l203 199h109l-219 -212l157 -238h-108zM304 506l-39 47l155 132l38 -47z" />
    <glyph glyph-name="uni045D" unicode="&#x45d;" horiz-adv-x="529" 
d="M145 450h91l-53 -302l287 302h72l-79 -450h-92l53 302l-286 -302h-72zM267 638l55 47l108 -132l-54 -47z" />
    <glyph glyph-name="afii10110" unicode="&#x45e;" horiz-adv-x="529" 
d="M487 450h102l-444 -700h-101l177 250l-123 450h102l84 -340zM474 627l38 -46q-68 -62 -157 -62q-84 0 -135 62l54 47q33 -41 94 -41q62 0 106 40z" />
    <glyph glyph-name="afii10193" unicode="&#x45f;" horiz-adv-x="513" 
d="M277 -120h-85l22 120h-148l79 450h91l-67 -378h199l67 378h92l-79 -450h-149z" />
    <glyph glyph-name="afii10050" unicode="&#x490;" horiz-adv-x="461" 
d="M519 621h-248l-109 -621h-95l123 700h271l22 125h72z" />
    <glyph glyph-name="afii10098" unicode="&#x491;" horiz-adv-x="365" 
d="M386 378h-163l-66 -378h-91l79 450h182l17 100h72z" />
    <glyph glyph-name="uni04D8" unicode="&#x4d8;" horiz-adv-x="740" 
d="M782 350q-28 -160 -135 -259t-250 -99q-145 0 -217 99t-44 259l7 36h545q8 107 -51 172t-165 65q-121 0 -206 -76l-50 61q115 100 275 100q159 0 239 -99q81 -98 52 -259zM673 307h-442q-9 -105 40 -167q49 -63 140 -63t162 63q72 64 100 167z" />
    <glyph glyph-name="afii10846" unicode="&#x4d9;" horiz-adv-x="506" 
d="M107 251h327q4 58 -28 91.5t-94 33.5q-70 0 -115 -42l-46 57q76 67 183 67q105 0 158 -65q54 -65 35 -171q-19 -101 -90 -166q-70 -64 -168 -64t-140.5 68.5t-21.5 190.5zM280 72q49 0 88 31t56 84h-236q-3 -55 20.5 -85t71.5 -30z" />
    <glyph glyph-name="Wgrave" unicode="&#x1e80;" horiz-adv-x="1119" 
d="M1110 700h110l-381 -700h-95l-91 536l-277 -536h-96l-135 700h111l97 -552l281 552h98l85 -552zM602 865l55 46l108 -132l-54 -46z" />
    <glyph glyph-name="wgrave" unicode="&#x1e81;" horiz-adv-x="790" 
d="M745 450h105l-251 -450h-96l-52 321l-164 -321h-96l-93 450h105l55 -338l170 338h92l51 -338zM397 638l56 47l108 -132l-54 -47z" />
    <glyph glyph-name="Wacute" unicode="&#x1e82;" horiz-adv-x="1119" 
d="M1110 700h110l-381 -700h-95l-91 536l-277 -536h-96l-135 700h111l97 -552l281 552h98l85 -552zM665 733l-38 46l155 132l39 -46z" />
    <glyph glyph-name="wacute" unicode="&#x1e83;" horiz-adv-x="790" 
d="M745 450h105l-251 -450h-96l-52 321l-164 -321h-96l-93 450h105l55 -338l170 338h92l51 -338zM461 506l-38 47l155 132l38 -47z" />
    <glyph glyph-name="Wdieresis" unicode="&#x1e84;" horiz-adv-x="1119" 
d="M1110 700h110l-381 -700h-95l-91 536l-277 -536h-96l-135 700h111l97 -552l281 552h98l85 -552zM551 798q3 22 21.5 38t41.5 16q22 0 35.5 -16t9.5 -38q-5 -23 -23.5 -38.5t-40.5 -15.5q-23 0 -36 15.5t-8 38.5zM740 798q5 24 23 39.5t41 15.5t36 -16t9 -39
q-4 -22 -23 -38t-42 -16q-22 0 -35 15.5t-9 38.5z" />
    <glyph glyph-name="wdieresis" unicode="&#x1e85;" horiz-adv-x="790" 
d="M745 450h105l-251 -450h-96l-52 321l-164 -321h-96l-93 450h105l55 -338l170 338h92l51 -338zM346 572q4 22 22 38t41 16t36 -16t9 -38q-4 -23 -22 -39t-41 -16t-36 16t-9 39zM645 572q-5 -24 -23.5 -39.5t-41.5 -15.5t-35.5 16t-8.5 39t22.5 39t41.5 16t36 -16t9 -39z
" />
    <glyph glyph-name="Ygrave" unicode="&#x1ef2;" horiz-adv-x="673" 
d="M383 0h-95l52 295l-195 405h110l149 -312l259 312h110l-338 -406zM379 865l54 46l109 -132l-54 -46z" />
    <glyph glyph-name="ygrave" unicode="&#x1ef3;" horiz-adv-x="529" 
d="M487 450h102l-444 -700h-101l177 250l-123 450h102l84 -340zM267 638l55 47l109 -132l-55 -47z" />
    <glyph glyph-name="figuredash" unicode="&#x2012;" horiz-adv-x="500" 
d="M500 314h-392l14 72h392z" />
    <glyph glyph-name="endash" unicode="&#x2013;" horiz-adv-x="500" 
d="M486 230h-392l13 72h392z" />
    <glyph glyph-name="emdash" unicode="&#x2014;" horiz-adv-x="700" 
d="M686 230h-592l13 72h592z" />
    <glyph glyph-name="quoteleft" unicode="&#x2018;" horiz-adv-x="223" 
d="M273 708l25 -30q-49 -43 -64 -78q20 -4 30.5 -19.5t6.5 -36.5q-5 -24 -24.5 -41t-43.5 -17q-25 0 -38.5 17t-7.5 49q14 73 116 156z" />
    <glyph glyph-name="quoteright" unicode="&#x2019;" horiz-adv-x="223" 
d="M166 486l-25 31q47 40 64 78q-20 4 -30.5 19.5t-6.5 36.5q4 24 24 40.5t44 16.5q25 0 38.5 -16.5t7.5 -48.5q-14 -73 -116 -157z" />
    <glyph glyph-name="quotesinglbase" unicode="&#x201a;" horiz-adv-x="223" 
d="M61 -115l-26 30q49 43 64 78q-19 4 -29.5 19.5t-7.5 36.5q4 24 23.5 41t44.5 17t38.5 -17t7.5 -49q-14 -71 -115 -156z" />
    <glyph glyph-name="quotedblleft" unicode="&#x201c;" horiz-adv-x="368" 
d="M424 741l25 -31q-47 -39 -64 -77q20 -5 30.5 -20.5t6.5 -36.5q-4 -24 -24 -40.5t-44 -16.5q-25 0 -38 16.5t-7 48.5q11 68 115 157zM279 741l24 -31q-48 -42 -63 -77q20 -5 30 -20.5t6 -36.5q-4 -24 -23.5 -40.5t-44.5 -16.5q-24 0 -37.5 17t-7.5 48q14 73 116 157z" />
    <glyph glyph-name="quotedblright" unicode="&#x201d;" horiz-adv-x="368" 
d="M172 519l-25 30q49 43 64 78q-20 4 -30.5 19.5t-6.5 36.5q5 24 24.5 41t43.5 17q25 0 38.5 -17t7.5 -49q-14 -71 -116 -156zM317 519l-25 30q47 40 64 78q-19 4 -29.5 19.5t-7.5 36.5q5 24 25 41t44 17q25 0 38 -17t7 -49q-12 -70 -116 -156z" />
    <glyph glyph-name="quotedblbase" unicode="&#x201e;" horiz-adv-x="368" 
d="M61 -115l-26 30q49 43 64 78q-19 4 -29.5 19.5t-7.5 36.5q4 24 23.5 41t44.5 17t38.5 -17t7.5 -49q-14 -71 -115 -156zM206 -115l-25 30q49 43 64 78q-20 4 -30.5 19.5t-6.5 36.5q4 24 23.5 41t43.5 17q25 0 38.5 -17t8.5 -49q-13 -70 -116 -156z" />
    <glyph glyph-name="dagger" unicode="&#x2020;" horiz-adv-x="500" 
d="M270 378h-150l13 72h150l53 300h92l-53 -300h150l-13 -72h-150l-111 -628h-92z" />
    <glyph glyph-name="daggerdbl" unicode="&#x2021;" horiz-adv-x="500" 
d="M214 60h-150l13 72h150l43 246h-150l13 72h150l53 300h92l-53 -300h150l-13 -72h-150l-43 -246h150l-13 -72h-150l-55 -310h-92z" />
    <glyph glyph-name="bullet" unicode="&#x2022;" horiz-adv-x="259" 
d="M105 275q5 33 32 56t61 23q33 2 51.5 -22.5t13 -57.5t-33.5 -55q-29 -23 -60 -23t-51.5 23t-12.5 56z" />
    <glyph glyph-name="ellipsis" unicode="&#x2026;" horiz-adv-x="669" 
d="M134 107q24 0 37.5 -17t9.5 -41t-23.5 -40.5t-43.5 -16.5t-38 16.5t-10 40.5t23.5 41t44.5 17zM357 107q24 0 37.5 -17t9.5 -41t-23.5 -40.5t-43.5 -16.5t-38 16.5t-10 40.5t23.5 41t44.5 17zM580 107q24 0 37.5 -17t9.5 -41t-23.5 -40.5t-43.5 -16.5t-38 16.5t-10 40.5
t23.5 41t44.5 17z" />
    <glyph glyph-name="perthousand" unicode="&#x2030;" horiz-adv-x="1273" 
d="M311 0h-92l495 700h92zM143 534q14 77 71 125q58 49 137 49q78 0 118 -48.5t26 -125.5q-14 -78 -71 -127q-57 -48 -136 -48q-78 0 -118 48.5t-27 126.5zM225 534q-8 -47 13 -76.5t63 -29.5q41 0 73 29.5t40 76.5t-13 76t-63 29q-41 0 -73 -29.5t-40 -75.5zM528 166
q13 78 71 126q58 49 136 49q79 0 119 -48.5t26 -126.5q-13 -76 -71 -126q-55 -48 -135 -48q-79 0 -119.5 48.5t-26.5 125.5zM685 60q42 0 74 30t39 76q9 47 -12 76q-21 30 -63 30q-43 0 -74 -30q-31 -28 -39 -76q-8 -47 13 -76.5t62 -29.5zM926 166q13 78 71 126
q56 49 136 49q78 0 118.5 -48.5t26.5 -126.5q-13 -76 -71 -126q-57 -48 -135 -48q-79 0 -119.5 48.5t-26.5 125.5zM1083 60q42 0 73.5 29.5t39.5 76.5q9 47 -12 76q-21 30 -63 30q-43 0 -74 -30q-31 -28 -39 -76q-8 -47 13 -76.5t62 -29.5z" />
    <glyph glyph-name="guilsinglleft" unicode="&#x2039;" horiz-adv-x="297" 
d="M271 124l-55 -47l-142 173l203 172l38 -46l-148 -126z" />
    <glyph glyph-name="guilsinglright" unicode="&#x203a;" horiz-adv-x="297" 
d="M165 422l142 -172l-203 -173l-38 47l148 126l-105 126z" />
    <glyph glyph-name="fraction" unicode="&#x2044;" horiz-adv-x="530" 
d="M112 0h-66l495 700h66z" />
    <glyph glyph-name="Euro" unicode="&#x20ac;" horiz-adv-x="743" 
d="M164 390h-58l9 53h66q49 123 153 193q106 72 239 72q158 0 240 -100l-72 -61q-58 76 -178 76q-92 0 -167 -48t-114 -132h251l-9 -53h-262q-6 -18 -9 -40q-4 -17 -5 -41h261l-9 -52h-251q11 -84 69 -132t148 -48q120 0 206 75l50 -60q-116 -100 -275 -100q-133 0 -213 71
q-80 72 -86 194h-66l9 52h58q2 20 6 41q3 22 9 40z" />
    <glyph glyph-name="uni20B4" unicode="&#x20b4;" horiz-adv-x="431" 
d="M275 387h-155l9 52h207l14 12q44 40 53 82q7 40 -16.5 66.5t-66.5 26.5q-62 0 -106 -44l-48 59q71 67 169 67q85 0 130 -47.5t31 -124.5q-9 -53 -49 -97h36l-9 -52h-82l-83 -71h152l-10 -52h-204l-17 -15q-45 -38 -53 -82q-7 -41 16 -67t66 -26q64 0 106 44l49 -59
q-71 -67 -169 -67q-86 0 -130.5 48t-31.5 124q9 54 52 100h-38l10 52h85z" />
    <glyph glyph-name="afii61352" unicode="&#x2116;" horiz-adv-x="997" 
d="M67 0l123 700h63l326 -519l92 519h95l-123 -700h-63l-327 519l-91 -519h-95zM811 576q11 57 53 92.5t100 35.5t87.5 -35.5t19.5 -92.5q-10 -58 -52 -93.5t-101 -35.5q-57 0 -87 35.5t-20 93.5zM869 576q-6 -35 10 -57t48 -22t56 22t31 57q6 35 -10.5 57t-48.5 22
t-55.5 -22t-30.5 -57z" />
    <glyph glyph-name="trademark" unicode="&#x2122;" horiz-adv-x="682" 
d="M381 655h-94l-55 -305h-55l55 305h-94l7 45h244zM708 350h-55l42 239l-133 -165h-20l-75 165l-43 -239h-54l62 350h41l93 -196l163 196h41z" />
    <glyph glyph-name="arrowleft" unicode="&#x2190;" horiz-adv-x="974" 
d="M459 56l-60 -59l-354 354l354 353l60 -60l-252 -251h698v-85h-698z" />
    <glyph glyph-name="arrowup" unicode="&#x2191;" horiz-adv-x="798" 
d="M442 -155h-85v698l-252 -252l-60 60l354 354l354 -354l-60 -60l-251 252v-698z" />
    <glyph glyph-name="arrowright" unicode="&#x2192;" horiz-adv-x="974" 
d="M767 308h-698v85h698l-252 251l60 60l354 -353l-354 -354l-60 59z" />
    <glyph glyph-name="arrowdown" unicode="&#x2193;" horiz-adv-x="798" 
d="M753 194l-354 -354l-354 354l60 60l252 -252v698h85v-698l251 251z" />
    <glyph glyph-name="uni2196" unicode="&#x2196;" horiz-adv-x="753" 
d="M154 133h-85v500h500v-85h-356l494 -493l-60 -60l-493 494v-356z" />
    <glyph glyph-name="uni2197" unicode="&#x2197;" horiz-adv-x="753" 
d="M539 548h-355v85h500v-500h-85v356l-494 -494l-60 60z" />
    <glyph glyph-name="uni2198" unicode="&#x2198;" horiz-adv-x="753" 
d="M684 0h-500v85h355l-494 493l60 61l494 -495v356h85v-500z" />
    <glyph glyph-name="uni2199" unicode="&#x2199;" horiz-adv-x="753" 
d="M569 0h-500v500h85v-356l493 495l60 -61l-494 -493h356v-85z" />
    <glyph glyph-name="minus" unicode="&#x2212;" horiz-adv-x="430" 
d="M423 266h-322l12 72h322z" />
    <glyph glyph-name="commaaccent" unicode="&#xf6c3;" horiz-adv-x="223" 
d="M44 -231l-21 25q41 33 55 67q-16 2 -25 15.5t-6 30.5q4 20 20 34t36 14t31.5 -14.5t6.5 -40.5q-11 -60 -97 -131z" />
    <glyph glyph-name="NULL" horiz-adv-x="0" 
 />
    <glyph glyph-name="CR" horiz-adv-x="333" 
 />
    <glyph glyph-name="gdotaccent.alt" 
d="M377 -27l9 52q-56 -33 -125 -33q-98 0 -149 64q-50 66 -31 169t96 168t183 65q129 0 180 -80l-71 -405q-19 -107 -93 -168q-74 -63 -177 -63q-109 0 -163 68l67 57q35 -44 104 -44q66 0 112 40.5t58 109.5zM289 73q67 0 113 45l40 227q-34 31 -99 31q-63 0 -109 -41.5
t-58 -109.5t19.5 -110t93.5 -42zM321 585q4 24 23.5 40.5t43.5 16.5t38 -16.5t10 -40.5q-5 -24 -25 -41t-44 -17t-37.5 17t-8.5 41z" />
    <glyph glyph-name="afii10021.alt" horiz-adv-x="807" 
d="M661 -150l27 150h-569l-27 -150h-88l40 228h54l384 622h89l165 -622h54l-41 -228h-88zM626 78l-121 501l-297 -501h418z" />
    <glyph glyph-name="afii10029.alt" horiz-adv-x="755" 
d="M134 0h-112l434 700h89l188 -700h-112l-143 576z" />
    <glyph glyph-name="afii10058.alt" horiz-adv-x="1010" 
d="M134 0h-112l434 700h89l80 -299h197q95 0 143.5 -55t32.5 -145q-16 -91 -84 -147q-68 -54 -163 -54h-130l-143 576zM807 319h-160l64 -237h54q51 0 88 32.5t47 86.5q10 53 -16 85.5t-77 32.5z" />
    <glyph glyph-name="afii10069.alt" horiz-adv-x="582" 
d="M515 72h48l-35 -192h-85l22 120h-348l-22 -120h-85l34 192h47l236 378h86zM415 72l-63 273l-161 -273h224z" />
    <glyph glyph-name="afii10077.alt" horiz-adv-x="529" 
d="M121 0h-102l281 450h86l124 -450h-102l-84 340z" />
    <glyph glyph-name="afii10106.alt" horiz-adv-x="712" 
d="M121 0h-102l281 450h86l50 -183h135q71 0 104.5 -36.5t22.5 -97.5q-10 -61 -56 -97t-117 -36h-117l-84 340zM555 198h-101l36 -129h43q27 0 48 18t26 46t-9.5 46.5t-42.5 18.5z" />
    <glyph glyph-name="gcommaaccent.alt" 
d="M377 -27l9 52q-56 -33 -125 -33q-98 0 -149 64q-50 66 -31 169t96 168t183 65q129 0 180 -80l-71 -405q-19 -107 -93 -168q-74 -63 -177 -63q-109 0 -163 68l67 57q35 -44 104 -44q66 0 112 40.5t58 109.5zM289 73q67 0 113 45l40 227q-34 31 -99 31q-63 0 -109 -41.5
t-58 -109.5t19.5 -110t93.5 -42zM422 692l20 -26q-44 -38 -54 -66q17 -3 25.5 -16t4.5 -31q-3 -20 -19 -33.5t-37 -13.5q-20 0 -31 14t-6 40q10 59 97 132z" />
    <glyph glyph-name="gcircumflex.alt" 
d="M377 -27l9 52q-56 -33 -125 -33q-98 0 -149 64q-50 66 -31 169t96 168t183 65q129 0 180 -80l-71 -405q-19 -107 -93 -168q-74 -63 -177 -63q-109 0 -163 68l67 57q35 -44 104 -44q66 0 112 40.5t58 109.5zM289 73q67 0 113 45l40 227q-34 31 -99 31q-63 0 -109 -41.5
t-58 -109.5t19.5 -110t93.5 -42zM241 553l156 132l108 -132l-54 -47l-71 86l-100 -86z" />
    <glyph glyph-name="gbreve.alt" 
d="M377 -27l9 52q-56 -33 -125 -33q-98 0 -149 64q-50 66 -31 169t96 168t183 65q129 0 180 -80l-71 -405q-19 -107 -93 -168q-74 -63 -177 -63q-109 0 -163 68l67 57q35 -44 104 -44q66 0 112 40.5t58 109.5zM289 73q67 0 113 45l40 227q-34 31 -99 31q-63 0 -109 -41.5
t-58 -109.5t19.5 -110t93.5 -42zM485 627l38 -46q-68 -62 -157 -62q-84 0 -135 62l54 47q33 -41 94 -41q62 0 106 40z" />
    <glyph glyph-name="g.alt" 
d="M377 -27l9 52q-56 -33 -125 -33q-98 0 -149 64q-50 66 -31 169t96 168t183 65q129 0 180 -80l-71 -405q-19 -107 -93 -168q-74 -63 -177 -63q-109 0 -163 68l67 57q35 -44 104 -44q66 0 112 40.5t58 109.5zM289 73q67 0 113 45l40 227q-34 31 -99 31q-63 0 -109 -41.5
t-58 -109.5t19.5 -110t93.5 -42z" />
    <glyph glyph-name="zero.fitted" horiz-adv-x="530" 
d="M584 350q-29 -161 -109 -259q-81 -99 -184 -99t-149 99t-18 259q29 161 109 259q83 99 185 99t149 -99q46 -97 17 -259zM218 350q-21 -123 3 -200t84 -77q61 0 112 77q50 75 73 200q22 123 -3 199q-24 77 -84 77q-61 0 -112 -77q-50 -76 -73 -199z" />
    <glyph glyph-name="germandbls.case" horiz-adv-x="592" 
d="M250 513l-90 -513h-94l90 513q15 87 80 141q64 54 154 54q89 0 136 -53q46 -52 31 -138q-11 -60 -49.5 -103t-95.5 -60q-9 -58 55 -88l16.5 -7.5l16.5 -7.5t16.5 -8.5t15 -10t14.5 -12t11.5 -13.5t9 -16.5t5 -18.5t2 -22t-2.5 -25q-9 -57 -57.5 -95t-119.5 -38
q-96 0 -143 63l66 56q31 -43 84 -43q32 0 53.5 17.5t25.5 40.5q4 24 -13.5 41t-44.5 29.5t-53.5 28.5t-41.5 48t-7 77l12 70q51 0 87 27.5t43 72.5q9 47 -15.5 76.5t-71.5 29.5t-81.5 -31.5t-43.5 -81.5z" />
    <glyph glyph-name="at.case" horiz-adv-x="793" 
d="M671 136l36 -43q-113 -101 -281 -101q-160 0 -242 99q-81 98 -52 259q28 160 144 259t275 99t239 -95q81 -95 56 -235q-10 -54 -32.5 -95t-52 -63t-59.5 -32.5t-60 -10.5q-66 0 -85 39q-47 -39 -109 -39q-71 0 -106 47.5t-22 125.5q14 78 71 125q57 48 136 48
q95 0 133 -60l-33 -185q-3 -17 8.5 -27.5t31.5 -10.5q36 0 65 33.5t40 97.5q21 121 -42 198q-62 77 -189 77q-129 0 -221 -82q-94 -82 -116 -214q-23 -134 41 -215q65 -81 194 -81q140 0 232 82zM392 350q-8 -50 15 -80t70 -30t79 27l30 170q-23 23 -71 23q-47 0 -80.5 -30
t-42.5 -80z" />
    <glyph glyph-name="parenleft.case" horiz-adv-x="295" 
d="M417 758l-13 -69q-42 0 -89 -96q-48 -99 -73 -243q-26 -155 -13 -246q13 -94 56 -94l-12 -68q-85 0 -122 114q-36 113 -4 294q31 178 109 294q76 114 161 114z" />
    <glyph glyph-name="parenright.case" horiz-adv-x="295" 
d="M165 689l13 69q84 0 120 -114q36 -113 4 -294q-32 -180 -108 -294t-161 -114l12 68q43 0 89 96q48 99 73 244q26 155 13 245q-13 94 -55 94z" />
    <glyph glyph-name="bracketleft.case" horiz-adv-x="298" 
d="M198 750h188l-13 -72h-97l-116 -656h97l-12 -72h-188z" />
    <glyph glyph-name="bracketright.case" horiz-adv-x="298" 
d="M260 678h-97l13 72h188l-141 -800h-188l12 72h97z" />
    <glyph glyph-name="braceleft.case" horiz-adv-x="314" 
d="M278 10l-12 -68q-72 0 -111 50q-39 49 -25 127l12 72q10 53 -5 88t-46 35l13 69q30 0 57 35t37 88l14 75q13 78 70 127q58 50 128 50l-12 -69q-30 0 -57 -34t-37 -87l-13 -73q-9 -50 -38.5 -89t-71.5 -58q76 -40 59 -147l-14 -70q-9 -52 6.5 -86.5t45.5 -34.5z" />
    <glyph glyph-name="braceright.case" horiz-adv-x="314" 
d="M26 -58l12 68q30 0 57 34t37 87l13 70q8 51 37.5 89.5t72.5 57.5q-36 19 -52 58t-6 89l12 73q10 52 -5 86.5t-46 34.5l13 69q71 0 110 -50q39 -49 25 -127l-13 -75q-10 -53 5 -88t46 -35l-13 -69q-30 0 -57 -35t-37 -88l-12 -72q-13 -77 -71 -127q-56 -50 -128 -50z" />
    <glyph glyph-name="exclamdown.case" horiz-adv-x="223" 
d="M215 593q-24 0 -37.5 17t-9.5 41t24 40.5t44 16.5t37.5 -16.5t9.5 -40.5t-23.5 -41t-44.5 -17zM66 0l88 502h91l-88 -502h-91z" />
    <glyph glyph-name="questiondown.case" horiz-adv-x="474" 
d="M416 126l49 -59q-96 -75 -209 -75q-94 0 -139 53t-32 129q13 74 76 119q4 3 25.5 18t27.5 20t22.5 20t23.5 26t15 29t12 38l11 58h91l-11 -58q-16 -95 -78 -146q-12 -9 -38 -28t-39 -29.5t-26 -28.5t-17 -36q-7 -42 17 -72.5t75 -30.5q79 0 144 53zM427 651
q-5 -24 -24.5 -41t-43.5 -17t-38 17t-9 41q4 24 24 40.5t44 16.5t37.5 -16.5t9.5 -40.5z" />
    <glyph glyph-name="guillemotleft.case" horiz-adv-x="470" 
d="M288 224l-54 -47l-143 173l203 172l39 -46l-149 -126zM461 224l-54 -47l-143 173l203 172l39 -46l-149 -126z" />
    <glyph glyph-name="guillemotright.case" horiz-adv-x="470" 
d="M355 522l142 -172l-203 -173l-38 47l148 126l-104 126zM182 522l142 -172l-203 -173l-38 47l148 126l-104 126z" />
    <glyph glyph-name="one.fitted" horiz-adv-x="530" 
d="M422 0h-318l12 72h113l97 547l-125 -19l13 72l218 32l-111 -632h113z" />
    <glyph glyph-name="guilsinglright.case" horiz-adv-x="297" 
d="M182 522l142 -172l-203 -173l-38 47l148 126l-104 126z" />
    <glyph glyph-name="hyphen.case" horiz-adv-x="340" 
d="M340 314h-232l14 72h232z" />
    <glyph glyph-name="endash.case" horiz-adv-x="500" 
d="M500 314h-392l14 72h392z" />
    <glyph glyph-name="emdash.case" horiz-adv-x="700" 
d="M700 314h-592l14 72h592z" />
    <glyph glyph-name="bar.case" horiz-adv-x="223" 
d="M148 -50h-91l141 800h91z" />
    <glyph glyph-name="brokenbar.case" horiz-adv-x="223" 
d="M148 -50h-91l61 350h91zM198 750h91l-62 -350h-91z" />
    <glyph glyph-name="asciitilde.case" horiz-adv-x="432" 
d="M143 296h-60q8 50 45.5 81.5t86.5 31.5q36 0 75 -30t59 -30q23 0 41 15.5t22 40.5h61q-9 -50 -47 -82t-87 -32q-37 0 -75 30.5t-58 30.5q-23 0 -41 -15.5t-22 -40.5z" />
    <glyph glyph-name="dagger.case" horiz-adv-x="500" 
d="M287 469h-151l13 72h150l37 209h92l-38 -209h151l-13 -72h-150l-91 -519h-92z" />
    <glyph glyph-name="daggerdbl.case" horiz-adv-x="500" 
d="M234 169h-151l13 72h150l41 228h-151l13 72h150l37 209h92l-38 -209h151l-13 -72h-150l-40 -228h150l-13 -72h-150l-38 -219h-92z" />
    <glyph glyph-name="bullet.case" horiz-adv-x="259" 
d="M211 429q33 0 51.5 -23t12.5 -56t-32.5 -56t-59.5 -23t-52 23t-13 56t32.5 56t60.5 23z" />
    <glyph glyph-name="A.smcp" horiz-adv-x="591" 
d="M570 0h-102l-34 116h-238l-73 -116h-102l321 504h83zM417 194l-54 195l-120 -195h174z" />
    <glyph glyph-name="Aacute.smcp" horiz-adv-x="591" 
d="M570 0h-102l-34 116h-238l-73 -116h-102l321 504h83zM417 194l-54 195l-120 -195h174zM371 523l-35 42l123 102l35 -42z" />
    <glyph glyph-name="Abreve.smcp" horiz-adv-x="591" 
d="M570 0h-102l-34 116h-238l-73 -116h-102l321 504h83zM417 194l-54 195l-120 -195h174zM399 592q48 0 78 27l35 -41q-53 -47 -124 -47q-67 0 -105 47l48 42q22 -28 68 -28z" />
    <glyph glyph-name="Acircumflex.smcp" horiz-adv-x="591" 
d="M570 0h-102l-34 116h-238l-73 -116h-102l321 504h83zM417 194l-54 195l-120 -195h174zM291 565l122 102l87 -102l-50 -42l-53 60l-72 -60z" />
    <glyph glyph-name="Agrave.smcp" horiz-adv-x="591" 
d="M570 0h-102l-34 116h-238l-73 -116h-102l321 504h83zM417 194l-54 195l-120 -195h174zM317 625l50 42l87 -102l-51 -42z" />
    <glyph glyph-name="Adieresis.smcp" horiz-adv-x="591" 
d="M570 0h-102l-34 116h-238l-73 -116h-102l321 504h83zM417 194l-54 195l-120 -195h174zM277 576q3 19 19 32.5t36 13.5t31.5 -13.5t7.5 -32.5q-3 -20 -19.5 -33.5t-36.5 -13.5t-31 13.5t-7 33.5zM517 576q-4 -20 -20.5 -33.5t-36.5 -13.5t-31.5 13.5t-7.5 33.5t20 33.5
t36 13.5t31.5 -13.5t8.5 -33.5z" />
    <glyph glyph-name="Amacron.smcp" horiz-adv-x="591" 
d="M570 0h-102l-34 116h-238l-73 -116h-102l321 504h83zM417 194l-54 195l-120 -195h174zM490 546h-197l9 50h197z" />
    <glyph glyph-name="Aogonek.smcp" horiz-adv-x="592" 
d="M526 -60q17 0 29 9l24 -27q-25 -21 -59 -21t-51.5 20.5t-11.5 53.5q3 17 11 25l-34 116h-238l-73 -116h-102l321 504h83l145 -504h-62q-16 -14 -11.5 -38.5t29.5 -21.5zM417 194l-54 195l-120 -195h174z" />
    <glyph glyph-name="Aring.smcp" horiz-adv-x="591" 
d="M570 0h-102l-34 116h-238l-73 -116h-102l321 504h83zM417 194l-54 195l-120 -195h174zM330 585q5 30 27.5 48.5t52.5 18.5q31 0 46.5 -18t10.5 -49t-27.5 -49.5t-53.5 -18.5q-30 0 -45.5 18.5t-10.5 49.5zM365 584q-2 -14 5.5 -23t21.5 -9q16 0 27 9t13 23q5 26 -20 32
q-26 5 -41 -16q-5 -7 -6 -16z" />
    <glyph glyph-name="Atilde.smcp" horiz-adv-x="591" 
d="M570 0h-102l-34 116h-238l-73 -116h-102l321 504h83zM417 194l-54 195l-120 -195h174zM323 542h-45q5 33 29 53t55 20q25 0 44 -16q20 -15 32 -15q27 0 34 28h45q-6 -33 -30 -53t-57 -20q-24 0 -44 15q-17 16 -31 16q-12 0 -21.5 -8t-10.5 -20z" />
    <glyph glyph-name="AE.smcp" horiz-adv-x="605" 
d="M641 432h-181l-26 -144h159l-13 -72h-159l-25 -144h185l-12 -72h-274l20 116h-119l-73 -116h-102l321 504h311zM364 392l-121 -198h86z" />
    <glyph glyph-name="AEacute.smcp" horiz-adv-x="605" 
d="M641 432h-181l-26 -144h159l-13 -72h-159l-25 -144h185l-12 -72h-274l20 116h-119l-73 -116h-102l321 504h311zM364 392l-121 -198h86zM398 523l-34 42l123 102l35 -42z" />
    <glyph glyph-name="B.smcp" horiz-adv-x="436" 
d="M231 0h-178l88 504h161q67 0 101.5 -36.5t23.5 -97.5q-11 -66 -69 -102q74 -36 57 -125q-11 -65 -61.5 -104t-122.5 -39zM328 149q6 34 -11 54t-51 20h-83l-26 -147h83q34 0 58.5 20t29.5 53zM338 363q5 30 -10 47.5t-44 17.5h-64l-23 -130h64q30 0 51.5 18t25.5 47z" />
    <glyph glyph-name="C.smcp" 
d="M347 72q85 0 142 48l47 -55q-88 -72 -207 -72t-181 72q-61 72 -42 187q19 114 107 187q89 72 207 72q120 0 181 -72l-65 -56q-40 49 -125 49q-81 0 -140 -50t-73 -130t27 -130t122 -50z" />
    <glyph glyph-name="Cacute.smcp" 
d="M347 72q85 0 142 48l47 -55q-88 -72 -207 -72t-181 72q-61 72 -42 187q19 114 107 187q89 72 207 72q120 0 181 -72l-65 -56q-40 49 -125 49q-81 0 -140 -50t-73 -130t27 -130t122 -50zM390 524l-35 42l123 102l34 -42z" />
    <glyph glyph-name="Ccaron.smcp" 
d="M347 72q85 0 142 48l47 -55q-88 -72 -207 -72t-181 72q-61 72 -42 187q19 114 107 187q89 72 207 72q120 0 181 -72l-65 -56q-40 49 -125 49q-81 0 -140 -50t-73 -130t27 -130t122 -50zM528 625l-124 -102l-86 102l49 42l53 -60l73 60z" />
    <glyph glyph-name="Ccedilla.smcp" 
d="M346 72q85 0 142 48l47 -55q-84 -67 -192 -72l-5 -31q49 -10 40 -60q-5 -28 -26.5 -45.5t-51.5 -17.5q-29 0 -46 20l29 25q11 -10 23 -10q14 0 25 8.5t13 21.5q2 15 -9 23t-35 8l11 59q-112 4 -169 75q-56 72 -37 183q19 114 107 187q88 72 207 72t181 -72l-65 -56
q-40 49 -125 49q-81 0 -140 -50t-73 -130t27 -130t122 -50z" />
    <glyph glyph-name="Ccircumflex.smcp" 
d="M347 72q85 0 142 48l47 -55q-88 -72 -207 -72t-181 72q-61 72 -42 187q19 114 107 187q89 72 207 72q120 0 181 -72l-65 -56q-40 49 -125 49q-81 0 -140 -50t-73 -130t27 -130t122 -50zM310 565l123 102l87 -102l-50 -42l-53 60l-73 -60z" />
    <glyph glyph-name="Cdotaccent.smcp" 
d="M347 72q85 0 142 48l47 -55q-88 -72 -207 -72t-181 72q-61 72 -42 187q19 114 107 187q89 72 207 72q120 0 181 -72l-65 -56q-40 49 -125 49q-81 0 -140 -50t-73 -130t27 -130t122 -50zM409 536q-21 0 -33 14.5t-8 35.5t21 35.5t38 14.5t33.5 -14.5t8.5 -35.5t-21 -35.5
t-39 -14.5z" />
    <glyph glyph-name="D.smcp" horiz-adv-x="543" 
d="M233 0h-180l88 504h180q121 0 182 -69q61 -67 42 -183q-19 -114 -106 -184q-86 -68 -206 -68zM454 252q14 80 -26.5 128t-119.5 48h-88l-63 -352h88q79 0 136 48q58 47 73 128z" />
    <glyph glyph-name="Dcaron.smcp" horiz-adv-x="543" 
d="M233 0h-180l88 504h180q121 0 182 -69q61 -67 42 -183q-19 -114 -106 -184q-86 -68 -206 -68zM454 252q14 80 -26.5 128t-119.5 48h-88l-63 -352h88q79 0 136 48q58 47 73 128zM479 625l-124 -102l-86 102l50 42l52 -60l73 60z" />
    <glyph glyph-name="Dcroat.smcp" horiz-adv-x="547" 
d="M107 219h-33l12 66h33l38 219h167q122 0 183 -69q61 -67 42 -183q-19 -114 -106 -184q-86 -68 -207 -68h-167zM311 428h-75l-26 -143h105l-12 -66h-104l-26 -143h76q79 0 136 48q58 48 72 128t-26.5 128t-119.5 48z" />
    <glyph glyph-name="Eth.smcp" horiz-adv-x="547" 
d="M107 219h-33l12 66h33l38 219h167q122 0 183 -69q61 -67 42 -183q-19 -114 -106 -184q-86 -68 -207 -68h-167zM311 428h-75l-26 -143h105l-12 -66h-104l-26 -143h76q79 0 136 48q58 48 72 128t-26.5 128t-119.5 48z" />
    <glyph glyph-name="Thorn.smcp" horiz-adv-x="417" 
d="M145 0h-92l88 504h92l-17 -96h64q75 0 113.5 -40.5t26.5 -108.5t-65 -108.5t-128 -40.5h-64zM267 333h-64l-26 -147h63q34 0 58.5 20t30.5 53t-11.5 53.5t-50.5 20.5z" />
    <glyph glyph-name="E.smcp" horiz-adv-x="381" 
d="M415 432h-198l-25 -144h174l-13 -72h-174l-26 -144h201l-12 -72h-289l88 504h286z" />
    <glyph glyph-name="Eacute.smcp" horiz-adv-x="381" 
d="M415 432h-198l-25 -144h174l-13 -72h-174l-26 -144h201l-12 -72h-289l88 504h286zM271 523l-34 42l122 102l35 -42z" />
    <glyph glyph-name="Ebreve.smcp" horiz-adv-x="381" 
d="M415 432h-198l-25 -144h174l-13 -72h-174l-26 -144h201l-12 -72h-289l88 504h286zM299 592q48 0 78 27l35 -41q-53 -47 -123 -47q-68 0 -107 47l49 42q22 -28 68 -28z" />
    <glyph glyph-name="Ecaron.smcp" horiz-adv-x="381" 
d="M415 432h-198l-25 -144h174l-13 -72h-174l-26 -144h201l-12 -72h-289l88 504h286zM411 625l-124 -102l-86 102l49 42l52 -60l74 60z" />
    <glyph glyph-name="Ecircumflex.smcp" horiz-adv-x="381" 
d="M415 432h-198l-25 -144h174l-13 -72h-174l-26 -144h201l-12 -72h-289l88 504h286zM190 565l123 102l87 -102l-50 -42l-52 60l-74 -60z" />
    <glyph glyph-name="Edieresis.smcp" horiz-adv-x="381" 
d="M415 432h-198l-25 -144h174l-13 -72h-174l-26 -144h201l-12 -72h-289l88 504h286zM177 576q3 19 19 32.5t36 13.5t31.5 -13.5t7.5 -32.5q-4 -20 -20 -33.5t-36 -13.5t-31 13.5t-7 33.5zM321 576q4 20 20 33.5t36 13.5t31.5 -13.5t7.5 -33.5t-20 -33.5t-36 -13.5t-31 13.5
t-8 33.5z" />
    <glyph glyph-name="Edotaccent.smcp" horiz-adv-x="381" 
d="M415 432h-198l-25 -144h174l-13 -72h-174l-26 -144h201l-12 -72h-289l88 504h286zM307 636q22 0 34 -14.5t8 -35.5q-3 -21 -20.5 -35.5t-38.5 -14.5q-22 0 -34 14.5t-8 35.5t21 35.5t38 14.5z" />
    <glyph glyph-name="Egrave.smcp" horiz-adv-x="381" 
d="M415 432h-198l-25 -144h174l-13 -72h-174l-26 -144h201l-12 -72h-289l88 504h286zM218 625l49 42l87 -102l-51 -42z" />
    <glyph glyph-name="Emacron.smcp" horiz-adv-x="381" 
d="M415 432h-198l-25 -144h174l-13 -72h-174l-26 -144h201l-12 -72h-289l88 504h286zM390 546h-197l9 50h196z" />
    <glyph glyph-name="Eogonek.smcp" horiz-adv-x="381" 
d="M287 -60q16 0 28 9l24 -27q-24 -21 -58 -21t-52 20.5t-12 53.5q3 15 11 25h-175l88 504h286l-12 -72h-198l-25 -144h174l-13 -72h-174l-26 -144h201l-12 -72h-74q-17 -14 -11.5 -38.5t30.5 -21.5z" />
    <glyph glyph-name="F.smcp" horiz-adv-x="364" 
d="M405 432h-188l-25 -144h165l-13 -72h-165l-38 -216h-88l88 504h276z" />
    <glyph glyph-name="G.smcp" horiz-adv-x="558" 
d="M472 206h-106l13 71h194l-37 -212q-86 -72 -207 -72q-119 0 -181 72q-61 72 -42 187q19 114 107 187q89 72 207 72q120 0 181 -72l-65 -56q-40 49 -125 49q-81 0 -140 -50t-73 -130t27 -130t122 -50q59 0 106 24z" />
    <glyph glyph-name="Gbreve.smcp" horiz-adv-x="558" 
d="M472 206h-106l13 71h194l-37 -212q-86 -72 -207 -72q-119 0 -181 72q-61 72 -42 187q19 114 107 187q89 72 207 72q120 0 181 -72l-65 -56q-40 49 -125 49q-81 0 -140 -50t-73 -130t27 -130t122 -50q59 0 106 24zM433 592q47 0 78 27l34 -41q-53 -47 -123 -47
q-68 0 -106 47l49 42q22 -28 68 -28z" />
    <glyph glyph-name="Gcircumflex.smcp" horiz-adv-x="558" 
d="M472 206h-106l13 71h194l-37 -212q-86 -72 -207 -72q-119 0 -181 72q-61 72 -42 187q19 114 107 187q89 72 207 72q120 0 181 -72l-65 -56q-40 49 -125 49q-81 0 -140 -50t-73 -130t27 -130t122 -50q59 0 106 24zM325 565l122 102l87 -102l-50 -42l-52 60l-73 -60z" />
    <glyph glyph-name="Gcommaaccent.smcp" horiz-adv-x="558" 
d="M472 206h-106l13 71h194l-37 -212q-86 -72 -207 -72q-119 0 -181 72q-61 72 -42 187q19 114 107 187q89 72 207 72q120 0 181 -72l-65 -56q-40 49 -125 49q-81 0 -140 -50t-73 -130t27 -130t122 -50q59 0 106 24zM268 -181l-18 22q31 27 42 50q-13 2 -20 13t-5 25
q3 17 17 29t32 12q39 0 32 -45q-8 -47 -80 -106z" />
    <glyph glyph-name="Gdotaccent.smcp" horiz-adv-x="558" 
d="M472 206h-106l13 71h194l-37 -212q-86 -72 -207 -72q-119 0 -181 72q-61 72 -42 187q19 114 107 187q89 72 207 72q120 0 181 -72l-65 -56q-40 49 -125 49q-81 0 -140 -50t-73 -130t27 -130t122 -50q59 0 106 24zM381 586q5 21 22 35.5t38 14.5t33.5 -14.5t8.5 -35.5
t-21 -35.5t-39 -14.5q-21 0 -33 14.5t-9 35.5z" />
    <glyph glyph-name="H.smcp" horiz-adv-x="532" 
d="M141 504h88l-37 -216h249l38 216h88l-88 -504h-88l38 216h-250l-38 -216h-88z" />
    <glyph glyph-name="Hbar.smcp" horiz-adv-x="545" 
d="M163 0h-89l63 361h-39l11 66h40l13 77h89l-14 -77h213l14 77h88l-13 -77h46l-12 -66h-46l-63 -361h-88l37 216h-213zM226 361l-13 -73h213l13 73h-213z" />
    <glyph glyph-name="Hcircumflex.smcp" horiz-adv-x="532" 
d="M141 504h88l-37 -216h249l38 216h88l-88 -504h-88l38 216h-250l-38 -216h-88zM261 565l122 102l87 -102l-50 -42l-52 60l-73 -60z" />
    <glyph glyph-name="I.smcp" horiz-adv-x="193" 
d="M141 0h-89l88 504h89z" />
    <glyph glyph-name="Iacute.smcp" horiz-adv-x="193" 
d="M141 0h-89l88 504h89zM172 523l-34 42l122 102l35 -42z" />
    <glyph glyph-name="Ibreve.smcp" horiz-adv-x="194" 
d="M141 0h-88l88 504h88zM201 592q47 0 78 27l34 -41q-53 -47 -123 -47q-68 0 -106 47l49 42q22 -28 68 -28z" />
    <glyph glyph-name="Icircumflex.smcp" horiz-adv-x="193" 
d="M141 0h-89l88 504h89zM91 565l123 102l87 -102l-50 -42l-52 60l-74 -60z" />
    <glyph glyph-name="Idieresis.smcp" horiz-adv-x="194" 
d="M141 0h-88l88 504h88zM87 576q3 19 19.5 32.5t36.5 13.5t31 -13.5t7 -32.5q-4 -20 -19.5 -33.5t-35.5 -13.5t-31.5 13.5t-7.5 33.5zM214 576q3 19 19 33t36 14t32 -14t8 -33q-3 -20 -19.5 -33.5t-36.5 -13.5t-31.5 13.5t-7.5 33.5z" />
    <glyph glyph-name="Idotaccent.smcp" horiz-adv-x="194" 
d="M141 0h-88l88 504h88zM190 536q-21 0 -33 14.5t-8 35.5t20.5 35.5t38.5 14.5t34 -14.5t8 -35.5t-21 -35.5t-39 -14.5z" />
    <glyph glyph-name="Igrave.smcp" horiz-adv-x="193" 
d="M141 0h-89l88 504h89zM118 625l50 42l87 -102l-50 -42z" />
    <glyph glyph-name="Imacron.smcp" horiz-adv-x="194" 
d="M141 0h-88l88 504h88zM291 546h-197l9 50h197z" />
    <glyph glyph-name="Iogonek.smcp" horiz-adv-x="193" 
d="M87 -25q-3 -16 5.5 -25.5t24.5 -9.5q17 0 28 9l24 -27q-24 -21 -58 -21t-51.5 20.5t-11.5 53.5q1 13 10 25l88 504h89l-88 -504h-49q-9 -11 -11 -25z" />
    <glyph glyph-name="Itilde.smcp" horiz-adv-x="193" 
d="M141 0h-89l88 504h89zM124 542h-45q5 33 29 53t56 20q24 0 43 -16q19 -15 33 -15q26 0 33 28h45q-6 -33 -30 -53t-56 -20q-25 0 -44 15q-17 16 -31 16q-29 0 -33 -28z" />
    <glyph glyph-name="IJ.smcp" horiz-adv-x="390" 
d="M172 180h-88l57 324h88zM274 143l63 361h89l-63 -361q-13 -67 -64 -109q-52 -41 -120 -41q-70 0 -106 42l66 56q16 -19 50 -19q33 0 56.5 19.5t28.5 51.5z" />
    <glyph glyph-name="J.smcp" horiz-adv-x="357" 
d="M242 143l63 361h88l-63 -361q-12 -67 -64 -109q-52 -41 -120 -41q-69 0 -105 42l66 56q16 -19 49 -19q32 0 56 19.5t30 51.5z" />
    <glyph glyph-name="Jcircumflex.smcp" horiz-adv-x="357" 
d="M242 143l63 361h88l-63 -361q-12 -67 -64 -109q-52 -41 -120 -41q-69 0 -105 42l66 56q16 -19 49 -19q32 0 56 19.5t30 51.5zM255 565l123 102l87 -102l-51 -42l-51 60l-74 -60z" />
    <glyph glyph-name="K.smcp" horiz-adv-x="484" 
d="M462 0h-114l-163 254l-44 -254h-89l88 504h89l-42 -239l234 239h111l-239 -244z" />
    <glyph glyph-name="Kcommaaccent.smcp" horiz-adv-x="484" 
d="M462 0h-114l-163 254l-44 -254h-89l88 504h89l-42 -239l234 239h111l-239 -244zM190 -181l-18 22q33 29 41 50q-13 2 -20 13t-5 25q3 17 17 29t32 12q17 0 27 -11.5t5 -33.5q-8 -45 -79 -106z" />
    <glyph glyph-name="L.smcp" horiz-adv-x="366" 
d="M141 504h88l-76 -432h190l-12 -72h-278z" />
    <glyph glyph-name="Lacute.smcp" horiz-adv-x="366" 
d="M141 504h88l-76 -432h190l-12 -72h-278zM243 523l-34 42l123 102l34 -42z" />
    <glyph glyph-name="Lcaron.smcp" horiz-adv-x="366" 
d="M141 504h88l-76 -432h190l-12 -72h-278zM312 625l-123 -102l-87 102l50 42l52 -60l73 60z" />
    <glyph glyph-name="Lcommaaccent.smcp" horiz-adv-x="366" 
d="M141 504h88l-76 -432h190l-12 -72h-278zM139 -181l-17 22q31 28 41 50q-13 2 -20 13t-5 25q3 17 17 29t31 12q18 0 28 -11.5t5 -33.5q-8 -47 -80 -106z" />
    <glyph glyph-name="Ldot.smcp" horiz-adv-x="366" 
d="M141 504h88l-76 -432h190l-12 -72h-278zM322 284q21 0 33.5 -14.5t8.5 -35.5t-21.5 -35.5t-38.5 -14.5t-33 14.5t-8 35.5t20.5 35.5t38.5 14.5z" />
    <glyph glyph-name="Lslash.smcp" horiz-adv-x="404" 
d="M74 114l-35 43l93 75l47 272h88l-36 -203l68 55l35 -42l-117 -97l-26 -145h190l-12 -72h-278l25 148z" />
    <glyph glyph-name="M.smcp" horiz-adv-x="617" 
d="M563 0h-88l57 325l-190 -221h-31l-113 221l-57 -325h-88l88 504h66l141 -271l238 271h65z" />
    <glyph glyph-name="N.smcp" horiz-adv-x="550" 
d="M53 0l88 504h56l241 -335l59 335h88l-88 -504h-56l-241 335l-59 -335h-88z" />
    <glyph glyph-name="Nacute.smcp" horiz-adv-x="550" 
d="M53 0l88 504h56l241 -335l59 335h88l-88 -504h-56l-241 335l-59 -335h-88zM350 523l-34 42l122 102l35 -42z" />
    <glyph glyph-name="Ncaron.smcp" horiz-adv-x="550" 
d="M53 0l88 504h56l241 -335l59 335h88l-88 -504h-56l-241 335l-59 -335h-88zM490 625l-124 -102l-86 102l49 42l53 -60l73 60z" />
    <glyph glyph-name="Ncommaaccent.smcp" horiz-adv-x="550" 
d="M53 0l88 504h56l241 -335l59 335h88l-88 -504h-56l-241 335l-59 -335h-88zM223 -181l-18 22q33 28 42 50q-13 2 -20.5 13t-5.5 25q3 17 17 29t32 12q17 0 27 -11.5t5 -33.5q-8 -45 -79 -106z" />
    <glyph glyph-name="Ntilde.smcp" horiz-adv-x="550" 
d="M53 0l88 504h56l241 -335l59 335h88l-88 -504h-56l-241 335l-59 -335h-88zM302 542h-45q5 33 29 53t55 20q25 0 44 -16q19 -15 33 -15q11 0 20.5 8t11.5 20h45q-6 -33 -30 -53t-56 -20q-23 0 -43 15q-17 16 -32 16q-28 0 -32 -28z" />
    <glyph glyph-name="Eng.smcp" horiz-adv-x="550" 
d="M342 -180l10 56q34 0 40 32l23 129l-215 298l-59 -335h-88l88 504h56l241 -335l59 335h88l-105 -598q-7 -40 -35.5 -65t-70.5 -25q-24 0 -32 4z" />
    <glyph glyph-name="O.smcp" horiz-adv-x="621" 
d="M420 511q120 0 181 -72q62 -71 42 -187t-107 -188q-88 -71 -207 -71t-181 72q-61 72 -42 187q19 114 107 187q89 72 207 72zM342 72q78 0 137 50q58 49 73 130q14 80 -27 130t-119 50t-137 -50q-57 -50 -71 -130t26 -130t118 -50z" />
    <glyph glyph-name="Oacute.smcp" horiz-adv-x="621" 
d="M420 511q120 0 181 -72q62 -71 42 -187t-107 -188q-88 -71 -207 -71t-181 72q-61 72 -42 187q19 114 107 187q89 72 207 72zM342 72q78 0 137 50q58 49 73 130q14 80 -27 130t-119 50t-137 -50q-57 -50 -71 -130t26 -130t118 -50zM405 523l-34 42l123 102l35 -42z" />
    <glyph glyph-name="Obreve.smcp" horiz-adv-x="621" 
d="M420 511q120 0 181 -72q62 -71 42 -187t-107 -188q-88 -71 -207 -71t-181 72q-61 72 -42 187q19 114 107 187q89 72 207 72zM342 72q78 0 137 50q58 49 73 130q14 80 -27 130t-119 50t-137 -50q-57 -50 -71 -130t26 -130t118 -50zM434 592q46 0 78 27l35 -41
q-53 -47 -124 -47q-67 0 -105 47l48 42q25 -28 68 -28z" />
    <glyph glyph-name="Ocircumflex.smcp" horiz-adv-x="621" 
d="M420 511q120 0 181 -72q62 -71 42 -187t-107 -188q-88 -71 -207 -71t-181 72q-61 72 -42 187q19 114 107 187q89 72 207 72zM342 72q78 0 137 50q58 49 73 130q14 80 -27 130t-119 50t-137 -50q-57 -50 -71 -130t26 -130t118 -50zM325 565l123 102l87 -102l-50 -42
l-53 60l-72 -60z" />
    <glyph glyph-name="Odieresis.smcp" horiz-adv-x="621" 
d="M420 511q120 0 181 -72q62 -71 42 -187t-107 -188q-88 -71 -207 -71t-181 72q-61 72 -42 187q19 114 107 187q89 72 207 72zM342 72q78 0 137 50q58 49 73 130q14 80 -27 130t-119 50t-137 -50q-57 -50 -71 -130t26 -130t118 -50zM312 576q3 19 19 32.5t36 13.5
t31.5 -13.5t7.5 -32.5q-3 -20 -19 -33.5t-36 -13.5t-31.5 13.5t-7.5 33.5zM456 576q4 19 20 33t35 14q21 0 32.5 -13.5t8.5 -33.5q-4 -20 -20.5 -33.5t-36.5 -13.5t-31.5 13.5t-7.5 33.5z" />
    <glyph glyph-name="Ograve.smcp" horiz-adv-x="621" 
d="M420 511q120 0 181 -72q62 -71 42 -187t-107 -188q-88 -71 -207 -71t-181 72q-61 72 -42 187q19 114 107 187q89 72 207 72zM342 72q78 0 137 50q58 49 73 130q14 80 -27 130t-119 50t-137 -50q-57 -50 -71 -130t26 -130t118 -50zM352 625l49 42l88 -102l-50 -42z" />
    <glyph glyph-name="Ohungarumlaut.smcp" horiz-adv-x="621" 
d="M420 511q120 0 181 -72q62 -71 42 -187t-107 -188q-88 -71 -207 -71t-181 72q-61 72 -42 187q19 114 107 187q89 72 207 72zM342 72q78 0 137 50q58 49 73 130q14 80 -27 130t-119 50t-137 -50q-57 -50 -71 -130t26 -130t118 -50zM345 523l-35 42l123 102l35 -42z
M467 523l-34 42l123 102l35 -42z" />
    <glyph glyph-name="Omacron.smcp" horiz-adv-x="621" 
d="M420 511q120 0 181 -72q62 -71 42 -187t-107 -188q-88 -71 -207 -71t-181 72q-61 72 -42 187q19 114 107 187q89 72 207 72zM342 72q78 0 137 50q58 49 73 130q14 80 -27 130t-119 50t-137 -50q-57 -50 -71 -130t26 -130t118 -50zM524 546h-196l9 50h196z" />
    <glyph glyph-name="Oslash.smcp" horiz-adv-x="620" 
d="M125 -7h-89l85 80q-54 71 -35 179q19 114 107 187q89 72 207 72q84 0 143 -38l41 38h89l-85 -80q53 -71 35 -179q-20 -116 -107 -188q-88 -71 -207 -71q-85 0 -144 38zM177 252q-12 -64 14 -113l284 269q-37 24 -89 24q-78 0 -137 -50q-58 -49 -72 -130zM531 252
q12 63 -14 112l-284 -269q38 -23 89 -23q78 0 137 50q58 49 72 130z" />
    <glyph glyph-name="Oslashacute.smcp" horiz-adv-x="620" 
d="M125 -7h-89l85 80q-54 71 -35 179q19 114 107 187q89 72 207 72q84 0 143 -38l41 38h89l-85 -80q53 -71 35 -179q-20 -116 -107 -188q-88 -71 -207 -71q-85 0 -144 38zM177 252q-12 -64 14 -113l284 269q-37 24 -89 24q-78 0 -137 -50q-58 -49 -72 -130zM531 252
q12 63 -14 112l-284 -269q38 -23 89 -23q78 0 137 50q58 49 72 130zM385 523l-34 42l123 102l35 -42z" />
    <glyph glyph-name="Otilde.smcp" horiz-adv-x="621" 
d="M420 511q120 0 181 -72q62 -71 42 -187t-107 -188q-88 -71 -207 -71t-181 72q-61 72 -42 187q19 114 107 187q89 72 207 72zM342 72q78 0 137 50q58 49 73 130q14 80 -27 130t-119 50t-137 -50q-57 -50 -71 -130t26 -130t118 -50zM358 542h-45q5 33 28.5 53t55.5 20
q25 0 44 -16q19 -15 33 -15q11 0 20.5 8t11.5 20h45q-6 -33 -30 -53t-56 -20q-25 0 -43 15q-17 16 -32 16q-28 0 -32 -28z" />
    <glyph glyph-name="OE.smcp" horiz-adv-x="688" 
d="M744 432h-184l-25 -144h161l-13 -72h-161l-25 -144h187l-12 -72h-273q-38 -7 -70 -7q-119 0 -181 72q-61 72 -42 187q19 114 107 187q89 72 207 72q33 0 65 -7h271zM342 72q38 0 69 12l59 336q-29 12 -64 12q-78 0 -137 -50q-57 -50 -71 -130t26 -130t118 -50z" />
    <glyph glyph-name="P.smcp" horiz-adv-x="417" 
d="M145 0h-92l88 504h155q75 0 114 -40.5t27 -108.5t-65 -109t-128 -41h-64zM284 428h-64l-27 -147h64q34 0 58.5 20.5t30.5 53.5t-11.5 53t-50.5 20z" />
    <glyph glyph-name="Q.smcp" horiz-adv-x="621" 
d="M612 40l-65 -56l-48 55q-77 -46 -170 -46q-119 0 -181 72q-61 72 -42 187q19 114 107 187q89 72 207 72q120 0 181 -72q62 -71 42 -187q-17 -93 -79 -158zM342 72q67 0 109 24l-62 71l65 55l56 -63q32 39 42 93q14 80 -26.5 130t-119.5 50q-77 0 -136 -50
q-58 -49 -72 -130q-14 -80 26 -130t118 -50z" />
    <glyph glyph-name="R.smcp" horiz-adv-x="431" 
d="M408 0h-101l-73 205h-54l-35 -205h-92l88 504h163q75 0 113.5 -40.5t26.5 -108.5q-9 -50 -41 -86.5t-81 -52.5zM353 355q5 33 -12 53t-50 20h-71l-27 -147h71q34 0 58.5 20.5t30.5 53.5z" />
    <glyph glyph-name="Racute.smcp" horiz-adv-x="431" 
d="M408 0h-101l-73 205h-54l-35 -205h-92l88 504h163q75 0 113.5 -40.5t26.5 -108.5q-9 -50 -41 -86.5t-81 -52.5zM353 355q5 33 -12 53t-50 20h-71l-27 -147h71q34 0 58.5 20.5t30.5 53.5zM284 523l-34 42l123 102l35 -42z" />
    <glyph glyph-name="Rcaron.smcp" horiz-adv-x="431" 
d="M408 0h-101l-73 205h-54l-35 -205h-92l88 504h163q75 0 113.5 -40.5t26.5 -108.5q-9 -50 -41 -86.5t-81 -52.5zM353 355q5 33 -12 53t-50 20h-71l-27 -147h71q34 0 58.5 20.5t30.5 53.5zM424 625l-124 -102l-86 102l50 42l52 -60l72 60z" />
    <glyph glyph-name="Rcommaaccent.smcp" horiz-adv-x="431" 
d="M408 0h-101l-73 205h-54l-35 -205h-92l88 504h163q75 0 113.5 -40.5t26.5 -108.5q-9 -50 -41 -86.5t-81 -52.5zM353 355q5 33 -12 53t-50 20h-71l-27 -147h71q34 0 58.5 20.5t30.5 53.5zM163 -181l-18 22q31 27 42 50q-13 2 -20.5 13t-4.5 25q3 17 17 29t31 12
q18 0 28 -11.5t5 -33.5q-8 -47 -80 -106z" />
    <glyph glyph-name="S.smcp" horiz-adv-x="433" 
d="M451 444l-65 -54q-15 18 -41 30t-52 12q-35 0 -58.5 -19.5t-26.5 -45.5q-8 -42 72 -73q33 -12 51.5 -20.5t43 -26t33 -43t2.5 -59.5q-11 -65 -64 -109q-52 -43 -133 -43q-103 0 -164 75l63 55q44 -51 106 -51q40 0 68 21.5t32 49.5q5 23 -15 39.5t-58 30.5
q-31 10 -51 19.5t-43.5 26.5t-32.5 44t-2 62q12 65 60 105.5t121 40.5q97 0 154 -67z" />
    <glyph glyph-name="Sacute.smcp" horiz-adv-x="433" 
d="M451 444l-65 -54q-15 18 -41 30t-52 12q-35 0 -58.5 -19.5t-26.5 -45.5q-8 -42 72 -73q33 -12 51.5 -20.5t43 -26t33 -43t2.5 -59.5q-11 -65 -64 -109q-52 -43 -133 -43q-103 0 -164 75l63 55q44 -51 106 -51q40 0 68 21.5t32 49.5q5 23 -15 39.5t-58 30.5
q-31 10 -51 19.5t-43.5 26.5t-32.5 44t-2 62q12 65 60 105.5t121 40.5q97 0 154 -67zM284 523l-34 42l122 102l35 -42z" />
    <glyph glyph-name="Scaron.smcp" horiz-adv-x="433" 
d="M451 444l-65 -54q-15 18 -41 30t-52 12q-35 0 -58.5 -19.5t-26.5 -45.5q-8 -42 72 -73q33 -12 51.5 -20.5t43 -26t33 -43t2.5 -59.5q-11 -65 -64 -109q-52 -43 -133 -43q-103 0 -164 75l63 55q44 -51 106 -51q40 0 68 21.5t32 49.5q5 23 -15 39.5t-58 30.5
q-31 10 -51 19.5t-43.5 26.5t-32.5 44t-2 62q12 65 60 105.5t121 40.5q97 0 154 -67zM424 625l-124 -102l-86 102l49 42l53 -60l72 60z" />
    <glyph glyph-name="Scedilla.smcp" horiz-adv-x="433" 
d="M451 444l-65 -54q-15 18 -41 30t-52 12q-35 0 -58.5 -19.5t-26.5 -45.5q-8 -42 72 -73q33 -12 51.5 -20.5t43 -26t33 -43t2.5 -59.5q-10 -63 -58.5 -105t-120.5 -46l-6 -32q48 -12 39 -60q-5 -28 -26.5 -45.5t-51.5 -17.5q-29 0 -46 20l30 25q13 -15 35 -7.5t25 27.5
q2 16 -8.5 23.5t-34.5 7.5l10 59q-92 6 -148 74l63 55q44 -51 106 -51q40 0 68 21.5t32 49.5q5 23 -15 39.5t-58 30.5q-31 10 -51 19.5t-43.5 26.5t-32.5 44t-2 62q12 65 60 105.5t121 40.5q97 0 154 -67z" />
    <glyph glyph-name="Scircumflex.smcp" horiz-adv-x="433" 
d="M451 444l-65 -54q-15 18 -41 30t-52 12q-35 0 -58.5 -19.5t-26.5 -45.5q-8 -42 72 -73q33 -12 51.5 -20.5t43 -26t33 -43t2.5 -59.5q-11 -65 -64 -109q-52 -43 -133 -43q-103 0 -164 75l63 55q44 -51 106 -51q40 0 68 21.5t32 49.5q5 23 -15 39.5t-58 30.5
q-31 10 -51 19.5t-43.5 26.5t-32.5 44t-2 62q12 65 60 105.5t121 40.5q97 0 154 -67zM203 565l123 102l88 -102l-51 -42l-52 60l-74 -60z" />
    <glyph glyph-name="Scommaaccent.smcp" horiz-adv-x="433" 
d="M451 444l-65 -54q-15 18 -41 30t-52 12q-35 0 -58.5 -19.5t-26.5 -45.5q-8 -42 72 -73q33 -12 51.5 -20.5t43 -26t33 -43t2.5 -59.5q-11 -65 -64 -109q-52 -43 -133 -43q-103 0 -164 75l63 55q44 -51 106 -51q40 0 68 21.5t32 49.5q5 23 -15 39.5t-58 30.5
q-31 10 -51 19.5t-43.5 26.5t-32.5 44t-2 62q12 65 60 105.5t121 40.5q97 0 154 -67zM164 -181l-18 22q33 28 42 50q-13 2 -20.5 13t-5.5 25q3 17 17.5 29t31.5 12t27 -11.5t5 -33.5q-8 -45 -79 -106z" />
    <glyph glyph-name="T.smcp" horiz-adv-x="437" 
d="M478 432h-140l-76 -432h-88l76 432h-139l12 72h367z" />
    <glyph glyph-name="Tbar.smcp" horiz-adv-x="437" 
d="M215 234h-101l12 65h101l23 133h-139l12 72h367l-12 -72h-140l-23 -133h101l-12 -65h-101l-41 -234h-88z" />
    <glyph glyph-name="Tcaron.smcp" horiz-adv-x="437" 
d="M478 432h-140l-76 -432h-88l76 432h-139l12 72h367zM434 625l-124 -102l-87 102l50 42l52 -60l73 60z" />
    <glyph glyph-name="Tcommaaccent.smcp" horiz-adv-x="437" 
d="M478 432h-140l-76 -432h-88l76 432h-139l12 72h367zM166 -181l-17 22q33 29 41 50q-13 2 -20 13t-5 25q3 17 17 29t32 12q39 0 32 -45q-8 -47 -80 -106z" />
    <glyph glyph-name="uni021A.smcp" horiz-adv-x="437" 
d="M478 432h-140l-76 -432h-88l76 432h-139l12 72h367zM166 -181l-17 22q33 29 41 50q-13 2 -20 13t-5 25q3 17 17 29t32 12q39 0 32 -45q-8 -47 -80 -106z" />
    <glyph glyph-name="two.fitted" horiz-adv-x="530" 
d="M49 0l13 78l355 300q42 36 55 106q11 63 -16.5 102.5t-83.5 39.5q-55 0 -97 -39.5t-53 -102.5h-94q16 100 89 162t170 62t147 -62t33 -162q-16 -97 -100 -168l-282 -238h311l-14 -78h-433z" />
    <glyph glyph-name="three.fitted" horiz-adv-x="530" 
d="M340 340h-46l14 77h46q44 0 79 29q35 30 42 76q8 47 -16 75q-23 29 -68 29t-79 -29t-41 -75h-95q13 81 78 134q64 52 152 52t133 -51.5t31 -134.5q-18 -98 -104 -142q96 -48 75 -174q-17 -95 -90 -155q-73 -59 -172 -59t-152 59q-51 60 -34 155h95q-11 -59 18.5 -96
t86.5 -37q58 0 100.5 37t52.5 96q11 59 -18.5 96.5t-87.5 37.5z" />
    <glyph glyph-name="four.fitted" horiz-adv-x="530" 
d="M431 0h-92l23 130h-312l7 43l400 527h93l-87 -491h60l-13 -79h-57zM441 562l-264 -353h201z" />
    <glyph glyph-name="five.fitted" horiz-adv-x="530" 
d="M535 216q-17 -101 -89 -163q-70 -61 -170 -61q-98 0 -148 59q-50 60 -34 154h92q-10 -58 19 -94.5t85 -36.5t98 39.5t53 102.5q12 69 -20.5 112t-96.5 43t-114 -41l-62 24l103 346h317l-14 -79h-236l-57 -186q37 17 83 17q104 0 157 -65q53 -66 34 -171z" />
    <glyph glyph-name="six.fitted" horiz-adv-x="530" 
d="M433 708l71 -45q-133 -139 -211 -246q33 14 68 14q99 0 150 -60q52 -60 34 -158q-16 -98 -90 -160q-71 -61 -173 -61t-152.5 62t-31.5 166q12 69 56 145q43 75 102 145q58 70 177 198zM191 213q-10 -62 19 -101t86 -39q58 0 101 39t54 101q10 62 -19 101t-86 39t-101 -39
q-43 -39 -54 -101z" />
    <glyph glyph-name="seven.fitted" horiz-adv-x="530" 
d="M473 621h-316l14 79h434l-5 -30l-362 -670h-98z" />
    <glyph glyph-name="eight.fitted" horiz-adv-x="530" 
d="M176 522q14 83 78 134q64 52 153 52q88 0 133 -51.5t31 -134.5q-18 -98 -104 -142q97 -49 76 -174q-17 -96 -89 -155q-74 -59 -174 -59q-99 0 -152 59q-52 59 -35 155q10 60 45.5 105t90.5 69q-71 44 -53 142zM341 339q-57 0 -99.5 -37t-53.5 -96t18.5 -96t87.5 -37
t100.5 37t53.5 96t-19 96t-88 37zM271 522q-8 -46 15.5 -75t68.5 -29t79 29t43 75q7 46 -16.5 75t-68.5 29q-46 0 -80 -29t-41 -75z" />
    <glyph glyph-name="nine.fitted" horiz-adv-x="530" 
d="M256 -8l-71 45q133 139 211 246q-33 -15 -68 -15q-99 0 -150 60q-51 62 -33 159q16 98 89 160q73 61 174 61q100 0 150 -62q51 -62 32 -166q-16 -100 -89 -200q-69 -97 -245 -288zM497 487q10 62 -18.5 100.5t-85.5 38.5t-100 -38.5t-53 -100.5q-11 -62 18 -101t86 -39
t99.5 39t53.5 101z" />
    <glyph glyph-name="guilsinglleft.case" horiz-adv-x="297" 
d="M288 224l-54 -47l-143 173l203 172l39 -46l-149 -126z" />
    <glyph glyph-name="Uring.smcp" horiz-adv-x="512" 
d="M418 187l55 317h89l-56 -317q-15 -86 -81 -140t-157 -54t-137 54t-31 140l56 317h88l-55 -317q-9 -52 16.5 -83.5t75.5 -31.5q52 0 90 31.5t47 83.5zM304 585q6 31 28 49t53 18t46 -18q16 -17 11 -49q-5 -31 -27.5 -49.5t-53.5 -18.5q-30 0 -46 18.5t-11 49.5zM340 584
q-7 -25 19.5 -30.5t41.5 13.5q5 7 6 17q2 15 -6 24t-22 9q-31 0 -39 -33z" />
    <glyph glyph-name="Utilde.smcp" horiz-adv-x="512" 
d="M418 187l55 317h89l-56 -317q-15 -86 -81 -140t-157 -54t-137 54t-31 140l56 317h88l-55 -317q-9 -52 16.5 -83.5t75.5 -31.5q52 0 90 31.5t47 83.5zM298 542h-45q5 33 29 53t55 20q25 0 44 -16q19 -15 33 -15q12 0 21 8t11 20h45q-5 -33 -29 -53t-57 -20q-25 0 -43 15
q-17 16 -32 16q-28 0 -32 -28z" />
    <glyph glyph-name="V.smcp" horiz-adv-x="591" 
d="M554 504h104l-321 -504h-83l-145 504h104l103 -387z" />
    <glyph glyph-name="W.smcp" horiz-adv-x="847" 
d="M811 504h103l-278 -504h-89l-63 349l-184 -349h-89l-102 504h103l67 -365l187 365h91l59 -365z" />
    <glyph glyph-name="Wacute.smcp" horiz-adv-x="847" 
d="M811 504h103l-278 -504h-89l-63 349l-184 -349h-89l-102 504h103l67 -365l187 365h91l59 -365zM498 523l-34 42l123 102l35 -42z" />
    <glyph glyph-name="Wcircumflex.smcp" horiz-adv-x="847" 
d="M811 504h103l-278 -504h-89l-63 349l-184 -349h-89l-102 504h103l67 -365l187 365h91l59 -365zM417 565l123 102l88 -102l-51 -42l-52 60l-73 -60z" />
    <glyph glyph-name="Wdieresis.smcp" horiz-adv-x="847" 
d="M811 504h103l-278 -504h-89l-63 349l-184 -349h-89l-102 504h103l67 -365l187 365h91l59 -365zM404 576q3 19 19.5 32.5t36.5 13.5t31 -13.5t8 -32.5q-4 -20 -20 -33.5t-36 -13.5t-31.5 13.5t-7.5 33.5zM549 576q3 19 19 33t36 14q21 0 32 -13.5t8 -33.5
q-4 -20 -20 -33.5t-37 -13.5q-20 0 -31 13.5t-7 33.5z" />
    <glyph glyph-name="Wgrave.smcp" horiz-adv-x="847" 
d="M811 504h103l-278 -504h-89l-63 349l-184 -349h-89l-102 504h103l67 -365l187 365h91l59 -365zM444 625l50 42l88 -102l-51 -42z" />
    <glyph glyph-name="X.smcp" horiz-adv-x="572" 
d="M550 0h-114l-116 196l-184 -196h-114l243 256l-148 248h113l111 -188l176 188h114l-236 -248z" />
    <glyph glyph-name="Y.smcp" horiz-adv-x="529" 
d="M308 0h-88l35 205l-146 299h102l105 -212l178 212h101l-251 -299z" />
    <glyph glyph-name="Yacute.smcp" horiz-adv-x="529" 
d="M308 0h-88l35 205l-146 299h102l105 -212l178 212h101l-251 -299zM339 523l-34 42l123 102l35 -42z" />
    <glyph glyph-name="Ycircumflex.smcp" horiz-adv-x="529" 
d="M308 0h-88l35 205l-146 299h102l105 -212l178 212h101l-251 -299zM259 565l123 102l87 -102l-51 -42l-52 60l-73 -60z" />
    <glyph glyph-name="Ydieresis.smcp" horiz-adv-x="529" 
d="M308 0h-88l35 205l-146 299h102l105 -212l178 212h101l-251 -299zM246 576q3 19 19 32.5t36 13.5t31 -13.5t8 -32.5q-4 -20 -20 -33.5t-36 -13.5t-31 13.5t-7 33.5zM390 576q3 19 19 33t36 14t31.5 -13.5t8.5 -33.5q-4 -20 -20 -33.5t-36 -13.5t-31.5 13.5t-7.5 33.5z
" />
    <glyph glyph-name="Ygrave.smcp" horiz-adv-x="529" 
d="M308 0h-88l35 205l-146 299h102l105 -212l178 212h101l-251 -299zM286 625l49 42l88 -102l-51 -42z" />
    <glyph glyph-name="Z.smcp" horiz-adv-x="490" 
d="M392 432h-270l12 72h401l-4 -24l-346 -408h274l-12 -72h-405l4 25z" />
    <glyph glyph-name="Zacute.smcp" horiz-adv-x="490" 
d="M392 432h-270l12 72h401l-4 -24l-346 -408h274l-12 -72h-405l4 25zM320 523l-34 42l122 102l35 -42z" />
    <glyph glyph-name="Zcaron.smcp" horiz-adv-x="490" 
d="M392 432h-270l12 72h401l-4 -24l-346 -408h274l-12 -72h-405l4 25zM460 625l-124 -102l-86 102l49 42l52 -60l73 60z" />
    <glyph glyph-name="Zdotaccent.smcp" horiz-adv-x="490" 
d="M392 432h-270l12 72h401l-4 -24l-346 -408h274l-12 -72h-405l4 25zM398 586q-3 -21 -20.5 -35.5t-38.5 -14.5q-34 0 -41.5 31t20.5 54q27 23 56.5 10.5t23.5 -45.5z" />
    <glyph glyph-name="uni018F.smcp" horiz-adv-x="571" 
d="M304 -7q-108 0 -163 72q-55 71 -35 187l6 33h393q1 67 -40.5 107t-112.5 40q-84 0 -143 -49l-46 56q89 72 207 72q120 0 181 -72q62 -71 42 -187q-19 -115 -100 -188q-80 -71 -189 -71zM490 213h-296q-2 -64 31 -102.5t92 -38.5t106 38.5t67 102.5z" />
    <glyph glyph-name="afii10017.smcp" horiz-adv-x="591" 
d="M570 0h-102l-34 116h-238l-73 -116h-102l321 504h83zM417 194l-54 195l-120 -195h174z" />
    <glyph glyph-name="afii10018.smcp" horiz-adv-x="426" 
d="M218 0h-165l88 504h288l-12 -72h-197l-24 -134h74q75 0 113.5 -40.5t26.5 -108.5t-64.5 -108.5t-127.5 -40.5zM318 149q6 33 -10.5 53.5t-50.5 20.5h-73l-27 -147h74q33 0 57.5 20t29.5 53z" />
    <glyph glyph-name="afii10019.smcp" horiz-adv-x="436" 
d="M231 0h-178l88 504h161q67 0 101.5 -36.5t23.5 -97.5q-11 -66 -69 -102q74 -36 57 -125q-11 -65 -61.5 -104t-122.5 -39zM328 149q6 34 -11 54t-51 20h-83l-26 -147h83q34 0 58.5 20t29.5 53zM338 363q5 30 -10 47.5t-44 17.5h-64l-23 -130h64q30 0 51.5 18t25.5 47z" />
    <glyph glyph-name="afii10020.smcp" horiz-adv-x="366" 
d="M141 0h-88l88 504h278l-12 -72h-190z" />
    <glyph glyph-name="afii10021.smcp" horiz-adv-x="535" 
d="M405 -108l20 108h-315l-20 -108h-81l31 177q39 0 66 29.5t37 82.5l57 323h339l-76 -432h56l-32 -180h-82zM279 432l-44 -251q-13 -68 -57 -109h194l64 360h-157z" />
    <glyph glyph-name="afii10022.smcp" horiz-adv-x="381" 
d="M415 432h-198l-25 -144h174l-13 -72h-174l-26 -144h201l-12 -72h-289l88 504h286z" />
    <glyph glyph-name="afii10023.smcp" horiz-adv-x="381" 
d="M415 432h-198l-25 -144h174l-13 -72h-174l-26 -144h201l-12 -72h-289l88 504h286zM177 576q3 19 19 32.5t36 13.5t31.5 -13.5t7.5 -32.5q-4 -20 -20 -33.5t-36 -13.5t-31 13.5t-7 33.5zM321 576q4 20 20 33.5t36 13.5t31.5 -13.5t7.5 -33.5t-20 -33.5t-36 -13.5t-31 13.5
t-8 33.5z" />
    <glyph glyph-name="afii10024.smcp" horiz-adv-x="724" 
d="M702 0h-104l-148 254l-44 -254h-88l44 254l-235 -254h-105l245 260l-143 244h102l138 -238l42 238h88l-42 -238l222 238h102l-227 -244z" />
    <glyph glyph-name="afii10025.smcp" horiz-adv-x="436" 
d="M266 223h-76l13 75h57q33 0 56 18t28 49q6 33 -11.5 51t-53.5 18q-60 0 -116 -46l-43 52q86 71 179 71q74 0 110 -38.5t25 -99.5q-10 -70 -76 -105q73 -38 57 -126q-12 -68 -67 -108.5t-135 -40.5q-105 0 -167 72l64 55q44 -50 109 -50q44 0 73.5 22t35.5 58q6 33 -11 53
t-51 20z" />
    <glyph glyph-name="afii10026.smcp" horiz-adv-x="541" 
d="M171 169l348 335h57l-88 -504h-89l59 335l-349 -335h-56l88 504h88z" />
    <glyph glyph-name="afii10027.smcp" horiz-adv-x="541" 
d="M374 592q48 0 78 27l34 -41q-53 -47 -123 -47q-68 0 -106 47l49 42q22 -28 68 -28zM171 169l348 335h57l-88 -504h-89l59 335l-349 -335h-56l88 504h88z" />
    <glyph glyph-name="afii10028.smcp" horiz-adv-x="484" 
d="M462 0h-114l-163 254l-44 -254h-89l88 504h89l-42 -239l234 239h111l-239 -244z" />
    <glyph glyph-name="afii10029.smcp" horiz-adv-x="512" 
d="M33 0l9 56q39 0 66 22t34 61l64 365h341l-88 -504h-92l76 432h-158l-51 -290q-12 -66 -54.5 -106t-102.5 -40q-33 0 -44 4z" />
    <glyph glyph-name="afii10030.smcp" horiz-adv-x="617" 
d="M563 0h-88l57 325l-190 -221h-31l-113 221l-57 -325h-88l88 504h66l141 -271l238 271h65z" />
    <glyph glyph-name="afii10031.smcp" horiz-adv-x="532" 
d="M141 504h88l-37 -216h249l38 216h88l-88 -504h-88l38 216h-250l-38 -216h-88z" />
    <glyph glyph-name="afii10032.smcp" horiz-adv-x="621" 
d="M420 511q120 0 181 -72q62 -71 42 -187t-107 -188q-88 -71 -207 -71t-181 72q-61 72 -42 187q19 114 107 187q89 72 207 72zM342 72q78 0 137 50q58 49 73 130q14 80 -27 130t-119 50t-137 -50q-57 -50 -71 -130t26 -130t118 -50z" />
    <glyph glyph-name="afii10033.smcp" horiz-adv-x="504" 
d="M53 0l88 504h398l-88 -504h-87l75 432h-222l-76 -432h-88z" />
    <glyph glyph-name="afii10034.smcp" horiz-adv-x="417" 
d="M145 0h-92l88 504h155q75 0 114 -40.5t27 -108.5t-65 -109t-128 -41h-64zM284 428h-64l-27 -147h64q34 0 58.5 20.5t30.5 53.5t-11.5 53t-50.5 20z" />
    <glyph glyph-name="afii10035.smcp" 
d="M347 72q85 0 142 48l47 -55q-88 -72 -207 -72t-181 72q-61 72 -42 187q19 114 107 187q89 72 207 72q120 0 181 -72l-65 -56q-40 49 -125 49q-81 0 -140 -50t-73 -130t27 -130t122 -50z" />
    <glyph glyph-name="afii10036.smcp" horiz-adv-x="437" 
d="M478 432h-140l-76 -432h-88l76 432h-139l12 72h367z" />
    <glyph glyph-name="afii10037.smcp" horiz-adv-x="477" 
d="M452 504h94l-346 -504h-94l118 158l-117 346h94l83 -242z" />
    <glyph glyph-name="afii10038.smcp" horiz-adv-x="622" 
d="M371 0h-88l8 47q-101 0 -153 57t-36 148t88 148q74 57 173 57l8 47h88l-8 -47q101 0 153 -57t36 -148q-16 -90 -89 -148q-71 -57 -172 -57zM437 378l-44 -252q60 0 102.5 35t52.5 91t-20.5 91t-90.5 35zM305 126l44 252q-59 0 -102 -35t-53 -91t21 -91t90 -35z" />
    <glyph glyph-name="afii10039.smcp" horiz-adv-x="572" 
d="M550 0h-114l-116 196l-184 -196h-114l243 256l-148 248h113l111 -188l176 188h114l-236 -248z" />
    <glyph glyph-name="afii10040.smcp" horiz-adv-x="561" 
d="M431 -108l20 108h-398l88 504h88l-76 -432h251l76 432h88l-76 -432h53l-32 -180h-82z" />
    <glyph glyph-name="afii10041.smcp" horiz-adv-x="451" 
d="M500 504l-88 -504h-85l37 213q-53 -12 -107 -12q-76 0 -108.5 41.5t-18.5 118.5l25 143h85l-24 -141q-9 -48 8.5 -70.5t63.5 -22.5q50 0 88 11l39 223h85z" />
    <glyph glyph-name="afii10042.smcp" horiz-adv-x="759" 
d="M794 504l-88 -504h-653l88 504h88l-76 -432h195l75 432h89l-76 -432h195l75 432h88z" />
    <glyph glyph-name="afii10043.smcp" horiz-adv-x="787" 
d="M657 -108l20 108h-624l88 504h88l-76 -432h195l75 432h89l-76 -432h195l75 432h88l-76 -432h53l-32 -180h-82z" />
    <glyph glyph-name="afii10044.smcp" horiz-adv-x="520" 
d="M224 432h-113l12 72h205l-37 -206h72q75 0 113.5 -40.5t26.5 -108.5t-64.5 -108.5t-127.5 -40.5h-163zM412 149q6 33 -11 53.5t-51 20.5h-71l-27 -147h72q33 0 58 20t30 53z" />
    <glyph glyph-name="afii10045.smcp" horiz-adv-x="586" 
d="M216 0h-163l88 504h92l-37 -206h72q75 0 113.5 -40.5t26.5 -108.5t-64.5 -108.5t-127.5 -40.5zM316 149q6 33 -10.5 53.5t-50.5 20.5h-71l-27 -147h72q34 0 58 20t29 53zM533 0h-89l88 504h89z" />
    <glyph glyph-name="afii10046.smcp" horiz-adv-x="425" 
d="M216 0h-163l88 504h92l-37 -206h72q75 0 113.5 -40.5t26.5 -108.5t-64.5 -108.5t-127.5 -40.5zM316 149q6 33 -10.5 53.5t-50.5 20.5h-71l-27 -147h72q34 0 58 20t29 53z" />
    <glyph glyph-name="afii10047.smcp" 
d="M158 383l-47 56q90 72 207 72q120 0 181 -72q62 -71 42 -187t-107 -188q-88 -71 -207 -71t-181 72l65 55q43 -48 125 -48q72 0 127 39t77 105h-236l13 72h236q1 66 -40.5 105t-112.5 39q-84 0 -142 -49z" />
    <glyph glyph-name="afii10048.smcp" horiz-adv-x="793" 
d="M141 504h88l-37 -216h114q28 98 106 161q79 62 179 62q111 0 167 -72q56 -71 36 -187t-102 -188q-82 -71 -192 -71q-103 0 -158 61q-56 63 -49 162h-114l-38 -216h-88zM389 252q-15 -80 20 -130t104 -50q70 0 123 50t67 130t-21 130t-105 50q-69 0 -122 -50
q-52 -49 -66 -130z" />
    <glyph glyph-name="afii10049.smcp" horiz-adv-x="433" 
d="M297 504h171l-88 -504h-92l36 205h-58l-140 -205h-100l157 213q-46 15 -67 52t-11 90q12 68 64.5 108.5t127.5 40.5zM196 355q-7 -33 10.5 -53.5t50.5 -20.5h80l27 147h-80q-34 0 -58.5 -20t-29.5 -53z" />
    <glyph glyph-name="afii10050.smcp" horiz-adv-x="363" 
d="M393 432h-176l-76 -432h-88l88 504h199l16 90h65z" />
    <glyph glyph-name="afii10051.smcp" horiz-adv-x="533" 
d="M360 0l9 56q33 0 41 32l14 85q5 28 -9.5 46t-42.5 18q-45 0 -73 -25l-37 -212h-88l76 432h-139l12 72h367l-12 -72h-140l-26 -150q46 31 97 31q59 0 86.5 -38.5t16.5 -101.5l-15 -87q-7 -42 -34.5 -66t-71.5 -24q-24 0 -31 4z" />
    <glyph glyph-name="afii10052.smcp" horiz-adv-x="366" 
d="M267 523l-34 42l122 102l35 -42zM141 0h-88l88 504h278l-12 -72h-190z" />
    <glyph glyph-name="afii10053.smcp" 
d="M411 432q-72 0 -127 -39t-77 -105h277l-13 -72h-276q-2 -66 39 -105t113 -39q85 0 142 48l47 -55q-88 -72 -207 -72t-181 72q-61 72 -42 187q19 114 107 187q89 72 207 72q120 0 181 -72l-65 -56q-40 49 -125 49z" />
    <glyph glyph-name="afii10054.smcp" horiz-adv-x="433" 
d="M451 444l-65 -54q-15 18 -41 30t-52 12q-35 0 -58.5 -19.5t-26.5 -45.5q-8 -42 72 -73q33 -12 51.5 -20.5t43 -26t33 -43t2.5 -59.5q-11 -65 -64 -109q-52 -43 -133 -43q-103 0 -164 75l63 55q44 -51 106 -51q40 0 68 21.5t32 49.5q5 23 -15 39.5t-58 30.5
q-31 10 -51 19.5t-43.5 26.5t-32.5 44t-2 62q12 65 60 105.5t121 40.5q97 0 154 -67z" />
    <glyph glyph-name="afii10055.smcp" horiz-adv-x="193" 
d="M141 0h-89l88 504h89z" />
    <glyph glyph-name="afii10056.smcp" horiz-adv-x="194" 
d="M141 0h-88l88 504h88zM87 576q3 19 19.5 32.5t36.5 13.5t31 -13.5t7 -32.5q-4 -20 -19.5 -33.5t-35.5 -13.5t-31.5 13.5t-7.5 33.5zM214 576q3 19 19 33t36 14t32 -14t8 -33q-3 -20 -19.5 -33.5t-36.5 -13.5t-31.5 13.5t-7.5 33.5z" />
    <glyph glyph-name="afii10057.smcp" horiz-adv-x="357" 
d="M242 143l63 361h88l-63 -361q-12 -67 -64 -109q-52 -41 -120 -41q-69 0 -105 42l66 56q16 -19 49 -19q32 0 56 19.5t30 51.5z" />
    <glyph glyph-name="afii10058.smcp" horiz-adv-x="730" 
d="M522 0h-163l76 432h-150l-51 -290q-12 -66 -54.5 -106t-102.5 -40q-33 0 -44 4l9 56q39 0 66 22t34 61l64 365h331l-36 -206h72q75 0 113.5 -40.5t26.5 -108.5t-64 -108.5t-127 -40.5zM561 223h-72l-27 -147h72q34 0 58 20t30 53t-11 53.5t-50 20.5z" />
    <glyph glyph-name="afii10059.smcp" horiz-adv-x="729" 
d="M141 504h88l-36 -206h216l36 206h92l-36 -206h72q75 0 113 -40.5t26 -108.5t-64 -108.5t-127 -40.5h-164l40 223h-217l-39 -223h-88zM621 149q6 33 -11 53.5t-50 20.5h-72l-27 -147h72q34 0 58.5 20t29.5 53z" />
    <glyph glyph-name="afii10060.smcp" horiz-adv-x="533" 
d="M478 432h-140l-26 -150q46 31 97 31q59 0 86.5 -38.5t16.5 -101.5l-29 -173h-89l30 173q5 28 -9.5 46t-42.5 18q-45 0 -73 -25l-37 -212h-88l76 432h-139l12 72h367z" />
    <glyph glyph-name="afii10061.smcp" horiz-adv-x="484" 
d="M462 0h-114l-163 254l-44 -254h-89l88 504h89l-42 -239l234 239h111l-239 -244zM316 523l-33 42l122 102l35 -42z" />
    <glyph glyph-name="afii10062.smcp" horiz-adv-x="477" 
d="M342 592q48 0 78 27l35 -41q-53 -47 -124 -47q-68 0 -106 47l49 42q22 -28 68 -28zM452 504h94l-346 -504h-94l118 158l-117 346h94l83 -242z" />
    <glyph glyph-name="afii10145.smcp" horiz-adv-x="533" 
d="M206 -108l20 108h-173l88 504h88l-76 -432h251l76 432h88l-88 -504h-172l-20 -108h-82z" />
    <glyph glyph-name="uni040D.smcp" horiz-adv-x="541" 
d="M292 625l49 42l87 -102l-50 -42zM171 169l348 335h57l-88 -504h-89l59 335l-349 -335h-56l88 504h88z" />
    <glyph glyph-name="uni0400.smcp" horiz-adv-x="381" 
d="M415 432h-198l-25 -144h174l-13 -72h-174l-26 -144h201l-12 -72h-289l88 504h286zM218 625l49 42l87 -102l-50 -42z" />
    <glyph glyph-name="uni04D8.smcp" horiz-adv-x="571" 
d="M304 -7q-108 0 -163 72q-55 71 -35 187l6 33h393q1 67 -40.5 107t-112.5 40q-84 0 -143 -49l-46 56q89 72 207 72q120 0 181 -72q62 -71 42 -187q-19 -115 -100 -188q-80 -71 -189 -71zM490 213h-296q-2 -64 31 -102.5t92 -38.5t106 38.5t67 102.5z" />
    <glyph glyph-name="afii10056_afii10056.smcp" horiz-adv-x="387" 
d="M141 0h-88l88 504h88zM87 576q3 19 19.5 32.5t36.5 13.5t31 -13.5t7 -32.5q-4 -20 -19.5 -33.5t-35.5 -13.5t-31.5 13.5t-7.5 33.5zM335 0h-89l88 504h89zM407 576q4 20 20 33.5t36 13.5t31.5 -13.5t8.5 -33.5q-4 -20 -20 -33.5t-37 -13.5q-20 0 -31 13.5t-8 33.5z
M247 576q3 20 19.5 33.5t36.5 13.5q19 0 30.5 -13.5t8.5 -33.5q-4 -20 -20 -33.5t-36 -13.5t-31.5 13.5t-7.5 33.5z" />
    <glyph glyph-name="afii10021.alt.smcp" horiz-adv-x="617" 
d="M487 -108l20 108h-397l-20 -108h-81l32 180h38l276 432h83l125 -432h38l-32 -180h-82zM460 72l-83 318l-196 -318h279z" />
    <glyph glyph-name="afii10029.alt.smcp" horiz-adv-x="591" 
d="M125 0h-104l321 504h83l145 -504h-104l-103 387z" />
    <glyph glyph-name="afii10058.alt.smcp" horiz-adv-x="785" 
d="M125 0h-104l321 504h83l59 -206h145q75 0 113.5 -40.5t26.5 -108.5t-64.5 -108.5t-127.5 -40.5h-111l-103 387zM616 223h-111l45 -147h40q33 0 57.5 20t29.5 53q6 33 -10.5 53.5t-50.5 20.5z" />
    <glyph glyph-name="Aringacute.smcp" horiz-adv-x="591" 
d="M379 618l-15 18l123 102l35 -42l-94 -78q42 -13 34 -63q-6 -36 -36 -56l144 -499h-102l-34 116h-238l-73 -116h-102l318 500q-20 20 -14 55q7 48 54 63zM417 194l-54 195l-120 -195h174zM360 554q-3 -14 5 -23t22 -9q32 0 40 32q3 15 -5.5 24t-23.5 9q-14 0 -25 -9
t-13 -24z" />
    <glyph glyph-name="germandbls.smcp" horiz-adv-x="465" 
d="M204 362l-63 -362h-89l64 362q10 67 62 108t121 41q70 0 106.5 -40.5t25.5 -105.5q-7 -39 -33.5 -70t-66.5 -47q-3 -20 9.5 -33t31.5 -21t38 -18t30 -30.5t6 -50.5q-8 -44 -46.5 -73t-92.5 -29q-72 0 -112 49l61 52q24 -30 57 -30q40 0 48 32q5 26 -62 50
q-27 10 -43 35.5t-10 62.5l11 64q34 0 58 16.5t29 44.5q5 29 -11 48t-47 19t-54 -21t-28 -53z" />
    <glyph glyph-name="at.smcp" horiz-adv-x="613" 
d="M502 104l34 -40q-86 -71 -209 -71q-121 0 -183 71q-62 72 -42 188q19 114 107 187q89 72 208 72t181 -68t44 -171q-14 -76 -59 -110q-46 -35 -96 -35q-51 0 -66 29q-35 -29 -82 -29q-52 0 -78 34.5t-16 90.5t52.5 90.5t103.5 34.5q75 0 104 -47l-20 -116q-4 -31 25 -31
q22 0 40 21.5t24 59.5q16 85 -31 138t-136 53q-91 0 -157 -57q-65 -55 -82 -146q-16 -90 30 -147q47 -56 139 -56q100 0 165 55zM310 252q-5 -32 10.5 -50.5t46.5 -18.5q29 0 52 16l19 108q-17 14 -48 14q-30 0 -52.5 -19t-27.5 -50z" />
    <glyph glyph-name="parenleft.smcp" horiz-adv-x="239" 
d="M321 547l-11 -63q-30 0 -61 -66q-30 -62 -49 -166q-18 -104 -9 -168t37 -64l-11 -63q-68 0 -98 82t-7 213q22 127 82 212q60 83 127 83z" />
    <glyph glyph-name="parenright.smcp" horiz-adv-x="239" 
d="M122 484l11 63q68 0 98 -83q30 -81 7 -212q-22 -130 -83 -213q-58 -82 -126 -82l11 63q28 0 60 65q33 66 51 167q17 104 8 168t-37 64z" />
    <glyph glyph-name="bracketleft.smcp" horiz-adv-x="244" 
d="M147 540h155l-11 -65h-70l-79 -446h69l-11 -65h-155z" />
    <glyph glyph-name="bracketright.smcp" horiz-adv-x="244" 
d="M190 475h-70l12 65h155l-102 -576h-155l11 65h70z" />
    <glyph glyph-name="braceleft.smcp" horiz-adv-x="251" 
d="M220 20l-11 -63q-58 0 -90.5 37t-22.5 94l9 49q7 35 -3 58.5t-29 23.5l11 63q19 0 36.5 23.5t24.5 58.5l9 52q10 57 55 94t103 37l-10 -63q-19 0 -37 -23t-24 -57l-9 -50q-13 -72 -82 -104q58 -31 45 -103l-8 -48q-6 -33 4 -56t29 -23z" />
    <glyph glyph-name="braceright.smcp" horiz-adv-x="251" 
d="M27 -43l11 63q19 0 36.5 22.5t24.5 56.5l8 48q12 71 81 103q-57 30 -45 104l9 50q7 34 -3.5 57t-29.5 23l11 63q58 0 90.5 -37t22.5 -94l-9 -52q-7 -35 3 -58.5t29 -23.5l-11 -63q-19 0 -37 -23.5t-25 -58.5l-8 -49q-10 -57 -55 -94t-103 -37z" />
    <glyph glyph-name="exclamdown.smcp" horiz-adv-x="190" 
d="M125 460q4 22 21 36.5t38 14.5q22 0 34 -14.5t8 -36.5q-3 -21 -20 -35.5t-39 -14.5q-21 0 -33.5 14.5t-8.5 35.5zM52 0l62 355h85l-62 -355h-85z" />
    <glyph glyph-name="questiondown.smcp" horiz-adv-x="379" 
d="M321 103l45 -55q-76 -55 -161 -55q-71 0 -107.5 38t-25.5 96q6 32 26.5 58t46.5 40q64 34 73 88l8 42h85l-8 -42q-6 -39 -28.5 -71t-48.5 -48q-61 -37 -66 -66q-4 -24 12 -42t49 -18q53 0 100 35zM337 460q-3 -21 -20.5 -35.5t-38.5 -14.5t-33 14.5t-9 35.5
q4 22 21.5 36.5t38.5 14.5t33 -14.5t8 -36.5z" />
    <glyph glyph-name="bar.smcp" horiz-adv-x="190" 
d="M130 -36h-85l102 576h85z" />
    <glyph glyph-name="brokenbar.smcp" horiz-adv-x="190" 
d="M130 -36h-85l45 252h85zM147 540h85l-45 -252h-85z" />
    <glyph glyph-name="dagger.smcp" horiz-adv-x="395" 
d="M212 328h-110l11 66h111l26 146h85l-26 -146h110l-11 -66h-111l-64 -364h-85z" />
    <glyph glyph-name="daggerdbl.smcp" horiz-adv-x="395" 
d="M174 112h-110l11 66h111l26 150h-110l11 66h111l26 146h85l-26 -146h110l-11 -66h-111l-26 -150h110l-11 -66h-111l-26 -148h-85z" />
    <glyph glyph-name="zero.smcp" horiz-adv-x="441" 
d="M122 65q-36 71 -16 187q19 113 82 187q62 72 142 72t116 -72q37 -70 17 -187q-19 -113 -82 -187q-61 -72 -142 -72q-79 0 -117 72zM195 252q-15 -81 1 -132.5t56 -51.5t74 51t49 133q14 81 -2 132.5t-56 51.5t-74 -52q-35 -51 -48 -132z" />
    <glyph glyph-name="one.smcp" horiz-adv-x="275" 
d="M191 430l-85 -13l11 66l172 24l-89 -507h-85z" />
    <glyph glyph-name="two.smcp" horiz-adv-x="411" 
d="M38 0l12 69l261 213q28 25 34 65q7 39 -11 63.5t-54 24.5t-62.5 -24.5t-33.5 -63.5h-88q13 73 67 118q55 46 130 46q76 0 114.5 -45t25.5 -119q-14 -73 -74 -121l-190 -154h215l-12 -72h-334z" />
    <glyph glyph-name="three.smcp" horiz-adv-x="423" 
d="M264 235h-34l12 71h34q30 0 52 18q23 18 28 47t-11 47q-19 17 -46 18t-51.5 -18t-26.5 -47h-88q10 62 60 101t119 39q70 0 106.5 -38.5t25.5 -101.5q-14 -66 -72 -99q65 -38 50 -121q-12 -70 -68 -114t-133 -44q-76 0 -116.5 44t-28.5 114h88q-6 -37 14 -60t57 -23
q36 0 64 23q27 22 35 60q7 37 -13 60.5t-57 23.5z" />
    <glyph glyph-name="four.smcp" horiz-adv-x="443" 
d="M354 0h-85l15 88h-235l7 38l298 378h85l-60 -343h43l-13 -73h-40zM339 377l-170 -216h131z" />
    <glyph glyph-name="five.smcp" horiz-adv-x="411" 
d="M412 157q-14 -74 -68 -119t-130 -45q-75 0 -114 44.5t-27 115.5h85q-6 -37 13 -60.5t56 -23.5q36 0 63 24.5t34 63.5q7 43 -14.5 70t-63.5 27q-44 0 -76 -26l-58 20l75 256h245l-12 -72h-170l-34 -109q21 6 48 6q80 0 120.5 -47.5t27.5 -124.5z" />
    <glyph glyph-name="six.smcp" horiz-adv-x="417" 
d="M327 511l65 -42q-92 -83 -151 -161q20 5 36 5q75 0 114.5 -43.5t26.5 -115.5q-12 -72 -67 -117q-56 -44 -132 -44q-77 0 -115 45t-25 124q29 158 248 349zM233 68q37 0 63.5 24t33.5 62t-11.5 62.5t-55.5 24.5t-63.5 -24.5t-33.5 -62.5t12 -62t55 -24z" />
    <glyph glyph-name="seven.smcp" horiz-adv-x="422" 
d="M345 432h-227l12 72h338l-4 -24l-261 -480h-90z" />
    <glyph glyph-name="eight.smcp" horiz-adv-x="424" 
d="M134 371q10 62 60 101t119 39q70 0 106.5 -39t25.5 -101q-13 -66 -72 -99q65 -39 50 -121q-13 -71 -69 -114q-56 -44 -132 -44t-116.5 44t-28.5 114q15 84 91 121q-47 35 -34 99zM165 151q-6 -37 13.5 -60t56.5 -23q38 0 65.5 23t33.5 60q7 37 -12.5 60t-56.5 23
q-38 0 -65.5 -23t-34.5 -60zM222 371q-5 -28 10.5 -46t44.5 -18q30 0 53 17q22 18 27 47t-11 47q-19 17 -46 18t-51.5 -18t-26.5 -47z" />
    <glyph glyph-name="nine.smcp" horiz-adv-x="417" 
d="M204 -7l-66 42q90 80 152 161q-20 -5 -36 -5q-76 0 -115 43.5t-26 115.5q12 73 67 116q56 45 132 45q77 0 115 -45t25 -124q-29 -158 -248 -349zM267 263q37 0 64 24.5t34 62.5t-12 62t-55 24t-63 -24t-34 -62t11.5 -62.5t54.5 -24.5z" />
    <glyph glyph-name="dollar.smcp" horiz-adv-x="433" 
d="M227 -72h-47l11 66q-87 8 -142 74l63 55q38 -45 93 -51l26 145q-56 22 -86 47q-41 34 -29 101q10 60 55 100.5t111 44.5l12 66h47l-12 -67q75 -10 122 -65l-65 -54q-26 31 -71 40l-25 -139q44 -16 73 -36q55 -33 47 -110q-10 -61 -56.5 -102.5t-115.5 -48.5zM318 143
q6 33 -44 57l-21 -123q26 8 44 26.5t21 39.5zM208 367q-6 -35 39 -58l21 120q-25 -6 -41.5 -24t-18.5 -38z" />
    <glyph glyph-name="Euro.smcp" horiz-adv-x="574" 
d="M125 276h-43l9 47h50q36 87 115 137q79 51 178 51q118 0 182 -72l-65 -56q-43 49 -126 49q-60 0 -110 -29t-78 -80h171l-9 -47h-182q-1 -3 -5 -24q-3 -12 -3 -24h182l-8 -47h-172q11 -51 50.5 -80t99.5 -29q85 0 143 48l46 -55q-88 -72 -207 -72q-100 0 -160.5 50.5
t-66.5 137.5h-50l8 47h43q0 14 3 24q4 21 5 24z" />
    <glyph glyph-name="sterling.smcp" horiz-adv-x="410" 
d="M129 219h-56l12 66h56l13 76q12 67 63 108q51 42 119 42q70 0 106 -42l-66 -56q-16 19 -50 19q-32 0 -55.5 -19.5t-29.5 -51.5l-13 -76h123l-12 -66h-123l-21 -120q7 -3 35 -19t46 -16q17 0 29.5 10t14.5 26h68q-8 -48 -42.5 -77.5t-79.5 -29.5q-35 0 -70 22t-54 22
q-38 0 -43 -37h-67q12 73 75 98z" />
    <glyph glyph-name="yen.smcp" horiz-adv-x="529" 
d="M245 147h-94l8 47h94l2 11l-146 299h102l105 -212l178 212h101l-251 -299l-2 -11h94l-8 -47h-94l-8 -44h94l-8 -46h-94l-10 -57h-88l9 57h-94l8 46h94z" />
    <glyph glyph-name="uni20B4.smcp" horiz-adv-x="346" 
d="M201 275h-107l8 47h157l6 5q30 23 34 51q4 25 -11.5 41t-43.5 16q-42 0 -71 -27l-44 54q55 49 128 49q68 0 104 -36t25 -94q-4 -28 -26 -59h18l-8 -47h-58l-54 -43h105l-8 -46h-153l-11 -9q-28 -22 -34 -51q-4 -25 12 -41t44 -16q42 0 70 27l44 -54q-55 -49 -128 -49
q-67 0 -103 36.5t-25 93.5q6 34 29 63h-22l9 46h62z" />
    <glyph glyph-name="numbersign.smcp" horiz-adv-x="487" 
d="M343 0h-85l36 112h-106l-36 -112h-85l35 112h-49l12 66h59l49 148h-59l12 66h69l37 112h85l-37 -112h106l37 112h85l-37 -112h50l-12 -66h-59l-49 -148h59l-12 -66h-69zM364 326h-106l-49 -148h107z" />
    <glyph glyph-name="zero.fitted.smcp" horiz-adv-x="417" 
d="M318 511q78 0 114 -72q36 -71 16 -187q-19 -113 -82 -187q-62 -72 -139 -72q-79 0 -115 71q-35 72 -15 188q20 117 81 187q62 72 140 72zM185 252q-14 -82 1 -133t54 -51t72 51t47 133q15 81 -0.5 132.5t-53.5 51.5q-39 0 -72 -51t-48 -133z" />
    <glyph glyph-name="one.fitted.smcp" horiz-adv-x="418" 
d="M332 0h-251l11 65h83l64 365l-92 -13l11 66l179 24l-77 -442h83z" />
    <glyph glyph-name="two.fitted.smcp" horiz-adv-x="417" 
d="M41 0l12 69l261 213q29 24 35 65q7 39 -11 63.5t-55 24.5q-36 0 -62.5 -24.5t-33.5 -63.5h-89q14 74 68 119q55 45 131 45t114.5 -45t25.5 -119q-12 -69 -78 -121l-190 -154h219l-12 -72h-335z" />
    <glyph glyph-name="three.fitted.smcp" horiz-adv-x="418" 
d="M261 235h-34l13 71h34q29 0 51.5 18.5t27.5 46.5q5 29 -10.5 47t-45.5 18q-29 0 -51.5 -18.5t-26.5 -46.5h-88q10 62 60 101t119 39q70 0 106 -39t25 -101q-10 -64 -71 -99q65 -39 49 -121q-12 -70 -68 -114t-132 -44t-116.5 44t-28.5 114h89q-7 -37 12 -60
q20 -23 57 -23q36 0 64 23q27 22 35 60q7 37 -13 60.5t-57 23.5z" />
    <glyph glyph-name="four.fitted.smcp" horiz-adv-x="418" 
d="M340 0h-85l15 88h-230l7 38l293 378h85l-60 -343h43l-13 -73h-40zM325 377l-166 -216h127z" />
    <glyph glyph-name="five.fitted.smcp" horiz-adv-x="417" 
d="M416 157q-13 -73 -67.5 -118.5t-130.5 -45.5t-115 44q-39 46 -26 116h85q-6 -37 13.5 -60.5t56.5 -23.5q36 0 62.5 24.5t34.5 63.5q7 43 -15 70t-64 27t-76 -26l-58 20l75 256h246l-12 -72h-171l-34 -109q21 6 48 6q81 0 121.5 -47.5t26.5 -124.5z" />
    <glyph glyph-name="six.fitted.smcp" horiz-adv-x="418" 
d="M329 511l65 -42q-89 -80 -152 -161q22 5 37 5q74 0 115 -44t27 -115q-14 -73 -68 -117q-56 -44 -132 -44q-78 0 -116.5 45.5t-24.5 123.5q28 157 249 349zM235 68q36 0 63.5 24t34.5 62t-12.5 62.5t-55.5 24.5q-37 0 -64 -24.5t-34 -62.5t12 -62t56 -24z" />
    <glyph glyph-name="seven.fitted.smcp" horiz-adv-x="417" 
d="M341 432h-225l12 72h336l-3 -24l-260 -480h-91z" />
    <glyph glyph-name="eight.fitted.smcp" horiz-adv-x="418" 
d="M131 371q10 62 60.5 101t119.5 39t105.5 -39t25.5 -101q-14 -65 -72 -99q65 -39 50 -121q-14 -71 -69 -114q-56 -44 -132 -44t-116.5 44t-28.5 114q17 84 91 121q-46 33 -34 99zM163 151q-7 -37 12.5 -60t57.5 -23q37 0 64.5 23t33.5 60q7 37 -12.5 60t-56.5 23
q-38 0 -65.5 -23t-33.5 -60zM219 371q-5 -28 11 -46t45 -18t51 18t27 46q5 29 -10.5 47t-45.5 18q-29 0 -51.5 -18.5t-26.5 -46.5z" />
    <glyph glyph-name="nine.fitted.smcp" horiz-adv-x="418" 
d="M205 -7l-67 42q93 83 151 161q-18 -5 -35 -5q-75 0 -115 43q-39 44 -26 116q14 74 68 116q55 45 131 45t114.5 -45.5t25.5 -123.5q-28 -156 -247 -349zM267 263q37 0 64 24.5t34 62.5t-12 62t-55 24t-63 -24t-34 -62t12 -62.5t54 -24.5z" />
    <glyph glyph-name="exclam.smcp" horiz-adv-x="190" 
d="M56 44q3 21 20 35.5t39 14.5q21 0 33.5 -14.5t8.5 -35.5q-4 -22 -21 -36.5t-39 -14.5q-21 0 -33 14.5t-8 36.5zM167 149h-85l62 355h85z" />
    <glyph glyph-name="ampersand.smcp" horiz-adv-x="463" 
d="M350 235h-43l12 71h174l-12 -71h-43l-15 -84q-13 -71 -69 -114q-56 -44 -132 -44t-116.5 44t-28.5 114q15 84 93 121q-50 34 -36 99q10 62 60 101t119 39q70 0 106.5 -39t25.5 -101h-88q5 30 -11 47q-16 18 -46 18t-52 -18q-21 -18 -26 -47t10 -47t45 -18h20l-13 -71h-19
q-37 0 -65 -23.5t-35 -60.5q-6 -37 13.5 -60t56.5 -23q38 0 65.5 23t33.5 60z" />
    <glyph glyph-name="slash.smcp" horiz-adv-x="442" 
d="M116 -36h-86l385 576h85z" />
    <glyph glyph-name="backslash.smcp" horiz-adv-x="442" 
d="M132 540h86l180 -576h-85z" />
    <glyph glyph-name="question.smcp" horiz-adv-x="379" 
d="M156 401l-44 55q76 55 160 55q71 0 108 -38.5t26 -96.5q-6 -32 -27 -57.5t-48 -39.5q-63 -34 -72 -88l-7 -42h-85l7 42q6 39 28 71t48 48q62 37 67 65q6 24 -11 42.5t-49 18.5q-51 0 -101 -35zM140 44q3 21 20.5 35.5t38.5 14.5t33 -14.5t9 -35.5q-4 -22 -21 -36.5
t-38 -14.5q-22 0 -34 14.5t-8 36.5z" />
    <glyph glyph-name="percent.smcp" horiz-adv-x="694" 
d="M259 0h-85l370 504h85zM111 380q11 59 55.5 95t105.5 36q62 0 93.5 -36.5t21.5 -94.5t-55 -94.5t-106 -36.5q-62 0 -93.5 36.5t-21.5 94.5zM187 380q-6 -30 8 -49t42 -19t48.5 19t26.5 49q5 30 -9 49t-41 19q-28 0 -49 -19t-26 -49zM691 124q-11 -59 -55.5 -95
t-105.5 -36q-63 0 -94 36q-31 37 -21 95t54 94q45 36 107 36t93.5 -36t21.5 -94zM541 56q28 0 49 19t26 49t-9 49t-42 19q-27 0 -48 -19t-26 -49t9 -49t41 -19z" />
    <glyph glyph-name="perthousand.smcp" horiz-adv-x="998" 
d="M259 0h-85l370 504h85zM111 380q11 59 55.5 95t105.5 36q62 0 93.5 -36.5t21.5 -94.5t-55 -94.5t-106 -36.5q-62 0 -93.5 36.5t-21.5 94.5zM187 380q-6 -30 8 -49t42 -19t48.5 19t26.5 49q5 30 -9 49t-41 19q-28 0 -49 -19t-26 -49zM691 124q-11 -59 -55.5 -95
t-105.5 -36q-63 0 -94 36q-31 37 -21 95t54 94q45 36 107 36t93.5 -36t21.5 -94zM541 56q28 0 49 19t26 49t-9 49t-42 19q-27 0 -48 -19t-26 -49t9 -49t41 -19zM879 254q62 0 94 -36t22 -94q-11 -59 -55.5 -95t-105.5 -36q-62 0 -93.5 36.5t-21.5 94.5t54.5 94t105.5 36z
M844 56q28 0 49 19t26 49t-9 49t-42 19t-48.5 -19t-25.5 -49t9 -49t41 -19z" />
    <glyph glyph-name="section.smcp" horiz-adv-x="342" 
d="M207 322l124 -144l-66 -55l-126 145q-45 49 -34 109q10 58 59 96q50 38 116 38q74 0 111 -49l-63 -54q-19 27 -61 27q-28 0 -48.5 -16t-25.5 -42q-7 -31 14 -55zM192 2l-124 144l66 56l126 -146q45 -50 34 -109q-10 -60 -58.5 -97t-116.5 -37q-74 0 -111 49l63 54
q19 -27 61 -27q28 0 49 16.5t25 41.5q5 32 -14 55z" />
    <glyph glyph-name="paragraph.smcp" horiz-adv-x="490" 
d="M302 504h97l-88 -504h-83l38 219h-14q-72 0 -109 38.5t-26 103.5t62 104t123 39zM449 0h-82l88 504h82z" />
    <glyph glyph-name="quoteright_afii10056.smcp" horiz-adv-x="289" 
d="M236 0h-87l88 504h87zM310 576q3 19 19 33t36 14t32 -14t8 -33q-4 -20 -20.5 -33.5t-36.5 -13.5q-19 0 -30.5 13.5t-7.5 33.5zM114 472l-26 31q47 40 65 78q-20 4 -30.5 19t-7.5 37q5 24 24.5 40.5t44.5 16.5t38 -16.5t7 -48.5q-11 -68 -115 -157z" />
    <glyph glyph-name="zero.sub" horiz-adv-x="301" 
d="M68 125q14 80 55 129q42 50 95 50t76.5 -49t10.5 -130q-14 -80 -55.5 -129.5t-94.5 -49.5t-77 49.5t-10 129.5zM123 125q-11 -59 0 -95.5t40 -36.5t53 36.5t34 95.5q10 60 -1 96t-40 36t-52.5 -36.5t-33.5 -95.5z" />
    <glyph glyph-name="one.sub" horiz-adv-x="187" 
d="M125 254l-57 -9l8 41l110 17l-62 -353h-52z" />
    <glyph glyph-name="two.sub" horiz-adv-x="281" 
d="M21 -50l8 44l175 149q21 17 25 48q5 29 -7.5 47.5t-37.5 18.5q-26 0 -45 -18.5t-23 -47.5h-55q9 50 45.5 81.5t86.5 31.5q49 0 74 -31.5t17 -81.5q-7 -49 -50 -84l-132 -112h147l-8 -45h-220z" />
    <glyph glyph-name="three.sub" horiz-adv-x="289" 
d="M173 117h-23l7 44h23q21 0 36.5 13.5t19.5 35.5q4 21 -7 34t-32 13t-36 -13t-19 -34h-55q8 42 40.5 68t77.5 26q46 0 70 -26.5t16 -67.5q-9 -48 -50 -71q44 -26 35 -85q-9 -48 -46 -78t-88 -30t-77 30t-18 78h55q-5 -27 9 -44t40 -17t45.5 17t24.5 44q5 28 -8.5 45.5
t-39.5 17.5z" />
    <glyph glyph-name="four.sub" horiz-adv-x="300" 
d="M227 -50h-52l11 64h-157l4 23l201 263h52l-42 -242h30l-8 -44h-28zM225 221l-122 -163h93z" />
    <glyph glyph-name="five.sub" horiz-adv-x="281" 
d="M269 59q-9 -50 -45 -81.5t-85 -31.5q-50 0 -76 30t-17 78h53q-5 -27 8.5 -44t39.5 -17q25 0 44 18.5t24 47.5q5 32 -10 52t-44 20q-30 0 -53 -20l-36 14l51 175h161l-7 -45h-115l-25 -84q12 6 36 6q52 0 79 -32.5t17 -85.5z" />
    <glyph glyph-name="six.sub" horiz-adv-x="286" 
d="M217 304l40 -25q-72 -73 -102 -118q13 5 27 5q51 0 76.5 -30t16.5 -80q-8 -50 -44.5 -80t-88.5 -30q-51 0 -76.5 31t-15.5 84q9 52 47.5 107t119.5 136zM104 57q-5 -28 8.5 -46t39.5 -18q24 0 44 17q20 18 25 47t-9 47q-21 30 -61 13t-47 -60z" />
    <glyph glyph-name="seven.sub" horiz-adv-x="286" 
d="M230 255h-153l7 45h222l-2 -16l-178 -334h-56z" />
    <glyph glyph-name="eight.sub" horiz-adv-x="289" 
d="M87 210q8 42 40.5 68t77.5 26q46 0 70 -26.5t16 -67.5q-9 -48 -50 -71q44 -26 35 -85q-9 -48 -46 -78t-88 -30t-77 30t-18 78q11 60 64 85q-33 22 -24 71zM102 54q-5 -27 9 -44t40 -17t46 17t24 44q5 28 -9 45t-40 17q-27 0 -46.5 -17.5t-23.5 -44.5zM142 210
q-4 -22 6.5 -35.5t31.5 -13.5q22 0 37 13.5t19 35.5q4 21 -7 34t-32 13t-36 -13t-19 -34z" />
    <glyph glyph-name="nine.sub" horiz-adv-x="286" 
d="M131 -54l-41 25q69 69 103 118q-12 -5 -27 -5q-51 0 -76.5 30t-16.5 80q8 49 44.5 79.5t87.5 30.5t76.5 -31t16.5 -84q-9 -52 -47.5 -107t-119.5 -136zM243 193q5 28 -7.5 46t-38.5 18t-45.5 -18t-24.5 -46t8 -46.5t39 -18.5t45.5 18.5t23.5 46.5z" />
    <glyph glyph-name="comma.sub" horiz-adv-x="132" 
d="M30 -111l-14 17q21 19 33 40q-22 4 -19 32q2 13 13 22t25 9q13 0 20.5 -9t4.5 -26q-7 -37 -63 -85z" />
    <glyph glyph-name="period.sub" horiz-adv-x="132" 
d="M32 -22q3 21 24.5 28.5t33.5 -6.5q13 -14 1.5 -34t-33.5 -20q-13 0 -20.5 9t-5.5 23z" />
    <glyph glyph-name="parenleft.sub" horiz-adv-x="166" 
d="M210 329l-6 -39q-21 0 -43 -47t-34 -118q-13 -74 -7.5 -120t25.5 -46l-7 -38q-44 0 -63 57t-3 147q15 90 54 147q40 57 84 57z" />
    <glyph glyph-name="parenright.sub" horiz-adv-x="166" 
d="M80 290l7 39q45 0 64 -57t3 -147q-17 -92 -56 -147q-39 -57 -83 -57l7 39q19 0 42 47.5t35 117.5q12 74 6.5 119.5t-25.5 45.5z" />
    <glyph glyph-name="hyphen.sub" horiz-adv-x="190" 
d="M173 104h-121l7 42h121z" />
    <glyph glyph-name="zero.sup" horiz-adv-x="301" 
d="M148 395q-24 49 -10 130q13 78 55 129q42 50 95 50t77 -50q24 -49 10 -129t-56 -130q-40 -49 -94 -49q-53 0 -77 49zM193 525q-11 -59 0.5 -95.5t39.5 -36.5q29 0 53 36.5t34 95.5q11 59 -0.5 95.5t-39.5 36.5q-29 0 -53 -36.5t-34 -95.5z" />
    <glyph glyph-name="one.sup" horiz-adv-x="187" 
d="M195 654l-56 -9l7 41l110 17l-62 -353h-52z" />
    <glyph glyph-name="two.sup" horiz-adv-x="281" 
d="M91 350l8 44l175 149q21 17 25 48q6 29 -6.5 47.5t-37.5 18.5t-44.5 -18.5t-24.5 -47.5h-55q10 51 46 82t86 31q49 0 74.5 -31.5t16.5 -81.5q-7 -47 -49 -84l-132 -112h147l-9 -45h-220z" />
    <glyph glyph-name="three.sup" horiz-adv-x="289" 
d="M244 517h-23l8 44h23q21 0 36 13.5t19 35.5q10 34 -23 44q-31 9 -56 -13q-13 -13 -15 -31h-55q8 41 41 67.5t78 26.5t69 -26.5t16 -67.5q-8 -49 -50 -71q46 -26 35 -85q-9 -48 -45.5 -78t-87.5 -30t-77.5 30t-17.5 78h54q-5 -27 9 -44t40 -17t46 17t25 44q5 28 -9 45.5
t-40 17.5z" />
    <glyph glyph-name="four.sup" horiz-adv-x="300" 
d="M297 350h-52l12 64h-157l4 23l201 263h52l-42 -242h29l-7 -44h-28zM295 621l-122 -163h93z" />
    <glyph glyph-name="five.sup" horiz-adv-x="281" 
d="M339 459q-9 -50 -45.5 -81.5t-85.5 -31.5q-50 0 -75.5 30t-17.5 78h53q-5 -27 8.5 -44t39.5 -17q25 0 44 18.5t25 47.5q5 32 -10 52t-44 20q-30 0 -53 -20l-36 14l51 175h161l-7 -45h-115l-25 -84q12 6 35 6q52 0 79 -32.5t18 -85.5z" />
    <glyph glyph-name="six.sup" horiz-adv-x="286" 
d="M288 704l40 -25q-62 -63 -103 -118q15 5 28 5q50 0 75.5 -30t17.5 -80q-9 -50 -45.5 -80t-87.5 -30t-76.5 31t-15.5 84q9 52 47.5 107t119.5 136zM222 393q25 0 44.5 17.5t24.5 46.5t-8 47t-39 18q-25 0 -44.5 -18t-24.5 -47t8 -46.5t39 -17.5z" />
    <glyph glyph-name="seven.sup" horiz-adv-x="286" 
d="M301 655h-153l7 45h222l-2 -16l-179 -334h-56z" />
    <glyph glyph-name="eight.sup" horiz-adv-x="289" 
d="M158 610q8 41 41 67.5t78 26.5t69 -26.5t16 -67.5q-8 -49 -50 -71q46 -26 35 -85q-9 -48 -45.5 -78t-87.5 -30t-77.5 30t-17.5 78q11 60 63 85q-31 22 -24 71zM173 454q-5 -27 9 -44t40 -17t46 17t25 44q4 28 -9.5 45t-39.5 17q-27 0 -47 -17.5t-24 -44.5zM213 610
q-10 -36 23 -46q32 -9 56 14q13 13 15 32q10 34 -23 44q-31 9 -56 -13q-13 -13 -15 -31z" />
    <glyph glyph-name="nine.sup" horiz-adv-x="286" 
d="M201 346l-41 25q65 65 104 118q-12 -5 -28 -5q-52 0 -77 30t-16 80t45 80q37 30 88 30t76.5 -31t15.5 -84q-9 -52 -47 -106t-120 -137zM314 593q5 29 -8 46.5t-39 17.5t-45.5 -18t-23.5 -46q-5 -28 8 -46.5t39 -18.5t45.5 18.5t23.5 46.5z" />
    <glyph glyph-name="comma.sup" horiz-adv-x="132" 
d="M101 289l-14 17q23 21 33 40q-23 5 -20 32q2 13 13.5 22t24.5 9q31 0 26 -35q-6 -36 -63 -85z" />
    <glyph glyph-name="period.sup" horiz-adv-x="132" 
d="M102 378q3 21 25.5 28.5t32.5 -6.5q13 -14 1.5 -34t-32.5 -20q-14 0 -21.5 9t-5.5 23z" />
    <glyph glyph-name="parenleft.sup" horiz-adv-x="166" 
d="M281 729l-7 -39q-21 0 -43 -47t-34 -118q-13 -74 -7 -120t26 -46l-7 -38q-45 0 -64 57t-3 147q17 91 55 147q41 57 84 57z" />
    <glyph glyph-name="parenright.sup" horiz-adv-x="166" 
d="M150 690l7 39q45 0 64 -57t3 -147q-17 -92 -56 -147q-39 -57 -83 -57l7 39q21 0 43 47t34 118q13 74 7 119.5t-26 45.5z" />
    <glyph glyph-name="hyphen.sup" horiz-adv-x="190" 
d="M243 504h-121l8 42h121z" />
    <glyph glyph-name="Uogonek.smcp" horiz-adv-x="512" 
d="M316 -25q-3 -15 6 -25t25 -10q17 0 28 9l23 -27q-24 -21 -58 -21q-33 0 -51 20.5t-12 53.5q1 12 5 19q-3 -1 -14 -1q-91 0 -137 54t-31 140l56 317h88l-55 -317q-9 -52 16.5 -83.5t75.5 -31.5q52 0 90 31.5t47 83.5l55 317h89l-56 -317q-13 -72 -61.5 -122t-118.5 -65
q-7 -7 -10 -25z" />
    <glyph glyph-name="Umacron.smcp" horiz-adv-x="512" 
d="M418 187l55 317h89l-56 -317q-15 -86 -81 -140t-157 -54t-137 54t-31 140l56 317h88l-55 -317q-9 -52 16.5 -83.5t75.5 -31.5q52 0 90 31.5t47 83.5zM464 546h-197l9 50h197z" />
    <glyph glyph-name="Uhungarumlaut.smcp" horiz-adv-x="512" 
d="M418 187l55 317h89l-56 -317q-15 -86 -81 -140t-157 -54t-137 54t-31 140l56 317h88l-55 -317q-9 -52 16.5 -83.5t75.5 -31.5q52 0 90 31.5t47 83.5zM284 523l-34 42l123 102l35 -42zM407 523l-34 42l122 102l36 -42z" />
    <glyph glyph-name="a.ord" horiz-adv-x="307" 
d="M293 704q75 0 100 -46l-36 -206h-56l3 17q-32 -22 -72 -22q-52 0 -78 35.5t-16 93.5q11 57 53.5 92.5t101.5 35.5zM196 576q-6 -35 10.5 -57t49.5 -22t56 19l21 123q-17 16 -50 16t-56.5 -22t-30.5 -57z" />
    <glyph glyph-name="b.ord" horiz-adv-x="307" 
d="M226 447q-75 0 -100 46h-1l66 372h56l-32 -178q32 17 68 17q53 0 80 -35.5t17 -92.5q-10 -58 -52 -93.5t-102 -35.5zM323 576q6 35 -10 57t-48 22q-34 0 -60 -25l-22 -122q3 0 24 -5.5t30 -5.5q32 0 55.5 22t30.5 57z" />
    </font>
</defs>
</svg>
