<?xml version="1.0" standalone="no"?>
<!DOCTYPE svg PUBLIC "-//W3C//DTD SVG 1.1//EN" "http://www.w3.org/Graphics/SVG/1.1/DTD/svg11.dtd" >
<svg xmlns="http://www.w3.org/2000/svg" xmlns:xlink="http://www.w3.org/1999/xlink" version="1.1">
<metadata>
Created by FontForge 20170731 at Wed May 28 20:45:08 2014
 By Aleksey,,,
Copyright (c) 2014 by Andriy Konstantynov. All rights reserved.
</metadata>
<defs>
<font id="ProbaPro-Italic" horiz-adv-x="220" >
  <font-face 
    font-family="Proba Pro"
    font-weight="400"
    font-style="italic"
    font-stretch="normal"
    units-per-em="1000"
    panose-1="2 13 0 3 3 2 0 0 0 0"
    ascent="747"
    descent="-253"
    x-height="450"
    cap-height="700"
    bbox="-28 -257 1250.31 1001"
    underline-thickness="50"
    underline-position="-250"
    slope="-10"
    unicode-range="U+0020-FB03"
  />
<missing-glyph horiz-adv-x="230" 
 />
    <glyph glyph-name="ff" unicode="ff" horiz-adv-x="578" 
d="M380 -250h-75l113 642h-179l-113 -642h-76l114 642h-63l11 58h62l28 156q12 68 60 109.5t116 41.5q32 0 53 -10l-12 -62q-16 10 -40 10q-39 0 -67 -25t-35 -64l-27 -156h179l27 156q12 68 60 109.5t116 41.5q32 0 53 -10l-11 -62q-17 10 -41 10q-38 0 -66 -24.5
t-36 -64.5l-27 -156h128l-10 -58h-129z" />
    <glyph glyph-name="fi" unicode="fi" horiz-adv-x="496" 
d="M422 0h-72l68 392h-179l-113 -642h-76l114 642h-63l11 58h62l28 156q12 68 60 109.5t116 41.5q32 0 53 -10l-12 -62q-16 10 -40 10q-39 0 -67 -25t-35 -64l-27 -156h251zM440 585q3 20 20 34.5t37 14.5q21 0 32.5 -14t8.5 -35q-4 -20 -21 -34.5t-37 -14.5
q-21 0 -32.5 14.5t-7.5 34.5z" />
    <glyph glyph-name="ffi" unicode="ffi" horiz-adv-x="750" 
d="M677 0h-73l68 392h-179l-113 -642h-75l113 642h-179l-113 -642h-76l114 642h-63l11 58h62l28 156q12 68 60 109.5t116 41.5q32 0 53 -10l-12 -62q-16 10 -40 10q-39 0 -67 -25t-35 -64l-27 -156h179l27 156q12 68 60 109.5t116 41.5q32 0 53 -10l-11 -62q-17 10 -41 10
q-38 0 -66 -24.5t-36 -64.5l-27 -156h252zM752 634q20 0 32 -14.5t8 -34.5t-21 -34.5t-37 -14.5q-21 0 -32.5 14.5t-7.5 34.5t20.5 34.5t37.5 14.5z" />
    <glyph glyph-name="f_j" unicode="fj" horiz-adv-x="496" 
d="M249 -250l9 49q54 0 65 53l95 540h-179l-113 -642h-76l114 642h-63l11 58h62l28 156q12 68 60 109.5t116 41.5q32 0 53 -10l-12 -62q-16 10 -40 10q-39 0 -67 -25t-35 -64l-27 -156h251l-106 -600q-8 -48 -39 -76t-74 -28q-25 0 -33 4zM440 585q3 20 20 34.5t37 14.5
q21 0 32.5 -14t8.5 -35q-4 -20 -21 -34.5t-37 -14.5q-21 0 -32.5 14.5t-7.5 34.5z" />
    <glyph glyph-name="afii10104_afii10104" unicode="&#x457;&#x457;" horiz-adv-x="439" 
d="M146 0h-73l79 450h73zM85 560q4 19 19.5 32.5t35.5 13.5t31 -13.5t7 -32.5q-3 -20 -19 -33.5t-35 -13.5t-30.5 13.5t-8.5 33.5zM366 0h-73l79 450h73zM456 560q4 20 20.5 33.5t35.5 13.5q20 0 31 -14t7 -33q-3 -20 -19 -33.5t-36 -13.5q-19 0 -30.5 13.5t-8.5 33.5z
M271 560q4 20 20 33.5t35 13.5q32 0 38.5 -29.5t-19.5 -51.5q-25 -21 -51.5 -9t-22.5 43z" />
    <glyph glyph-name="afii10103_afii10104" unicode="&#x456;&#x457;" horiz-adv-x="439" 
d="M146 0h-73l79 450h73zM164 585q3 20 20 34.5t37 14.5q21 0 32.5 -14t8.5 -35q-5 -21 -21.5 -35t-37.5 -14q-20 0 -31.5 14.5t-7.5 34.5zM366 0h-73l79 450h73zM313 560q4 19 19.5 32.5t35.5 13.5t31 -13.5t8 -32.5q-4 -20 -20 -33.5t-35 -13.5t-30.5 13.5t-8.5 33.5z
M456 560q4 20 20.5 33.5t35.5 13.5q20 0 31 -14t7 -33q-3 -20 -19 -33.5t-36 -13.5q-19 0 -30.5 13.5t-8.5 33.5z" />
    <glyph glyph-name="quoteright_afii10104" unicode="&#x2019;&#x457;" horiz-adv-x="304" 
d="M137 491l-22 26q46 37 60 73q-17 2 -26.5 15.5t-6.5 32.5q4 20 21 34.5t38 14.5q20 0 31.5 -14.5t6.5 -42.5q-11 -63 -102 -139zM230 0h-73l79 450h73zM321 560q4 20 20 33.5t35 13.5q20 0 31 -13.5t7 -33.5q-3 -20 -19 -33.5t-36 -13.5t-31 14t-7 33z" />
    <glyph glyph-name="afii10056_afii10056" unicode="&#x407;&#x407;" horiz-adv-x="444" 
d="M149 0h-76l123 700h76zM126 797q3 19 19 33t36 14q19 0 30.5 -13.5t8.5 -33.5q-4 -19 -20 -32.5t-36 -13.5q-19 0 -30 13t-8 33zM371 0h-76l123 700h76zM505 797q4 20 19.5 33.5t35.5 13.5t31 -13.5t8 -33.5q-4 -20 -20 -33t-36 -13t-31 13.5t-7 32.5zM315 797
q4 20 19.5 33.5t35.5 13.5t31 -13.5t8 -33.5q-4 -20 -20 -33t-36 -13t-31 13.5t-7 32.5z" />
    <glyph glyph-name="f_f_j" unicode="ffj" horiz-adv-x="750" 
d="M503 -250l9 49q56 0 65 53l95 540h-179l-113 -642h-75l113 642h-179l-113 -642h-76l114 642h-63l11 58h62l28 156q12 68 60 109.5t116 41.5q32 0 53 -10l-12 -62q-16 10 -40 10q-39 0 -67 -25t-35 -64l-27 -156h179l27 156q12 68 60 109.5t116 41.5q32 0 53 -10l-11 -62
q-17 10 -41 10q-38 0 -66 -24.5t-36 -64.5l-27 -156h252l-107 -600q-8 -48 -39 -76t-74 -28q-25 0 -33 4zM752 634q20 0 32 -14.5t8 -34.5t-21 -34.5t-37 -14.5q-21 0 -32.5 14.5t-7.5 34.5t20.5 34.5t37.5 14.5z" />
    <glyph glyph-name=".notdef" horiz-adv-x="230" 
 />
    <glyph glyph-name=".null" horiz-adv-x="0" 
 />
    <glyph glyph-name="nonmarkingreturn" horiz-adv-x="333" 
 />
    <glyph glyph-name="space" unicode=" " horiz-adv-x="230" 
 />
    <glyph glyph-name="exclam" unicode="!" 
d="M72 42q3 20 20 34.5t37 14.5t32 -14.5t9 -34.5q-4 -21 -20.5 -35t-37.5 -14q-20 0 -32 14t-8 35zM184 192h-73l89 508h73z" />
    <glyph glyph-name="quotedbl" unicode="&#x22;" horiz-adv-x="365" 
d="M216 450h-64l44 250h64zM370 450h-63l44 250h63z" />
    <glyph glyph-name="numbersign" unicode="#" horiz-adv-x="605" 
d="M406 0h-73l58 176h-171l-58 -176h-74l59 176h-76l10 58h85l77 232h-85l11 58h93l60 176h73l-60 -176h172l59 176h73l-60 -176h77l-10 -58h-85l-78 -232h87l-10 -58h-96zM488 466h-172l-77 -232h172z" />
    <glyph glyph-name="dollar" unicode="$" horiz-adv-x="530" 
d="M266 -100h-44l16 94q-119 6 -182 91l55 47q22 -31 59.5 -50t79.5 -21l47 262q-39 16 -63 29t-49.5 35.5t-34 55.5t-1.5 76q13 76 69 130q55 53 146 58l17 93h44l-17 -95q100 -10 156 -80l-56 -48q-39 50 -112 60l-44 -250q89 -37 122 -70q47 -49 34 -124
q-13 -76 -74 -135q-58 -56 -152 -64zM430 191q8 40 -15 66t-77 49l-43 -243q55 9 91.5 46t43.5 82zM227 521q-8 -40 12.5 -66t71.5 -51l41 234q-51 -6 -84.5 -39.5t-40.5 -77.5z" />
    <glyph glyph-name="percent" unicode="%" horiz-adv-x="855" 
d="M294 0h-74l491 700h74zM147 538q14 76 69 122q56 47 131 47q76 0 114 -46.5t25 -122.5q-14 -76 -69 -123q-55 -46 -130 -46q-76 0 -114.5 46.5t-25.5 122.5zM420 538q9 50 -14 81.5t-69 31.5t-80.5 -31.5t-43.5 -81.5t14.5 -81.5t69.5 -31.5t80.5 31.5t42.5 81.5z
M716 331q76 0 114.5 -46.5t25.5 -122.5q-14 -76 -69 -123q-53 -46 -130 -46q-76 0 -115 46q-38 48 -25 123q13 76 68 122q56 47 131 47zM626 243q-34 -31 -43 -81t14 -82q22 -31 69 -31q46 0 80 31q35 32 44 82q9 49 -14 81t-69 32t-81 -32z" />
    <glyph glyph-name="ampersand" unicode="&#x26;" horiz-adv-x="603" 
d="M490 349h-76l10 62h228l-11 -62h-76l-26 -146q-16 -92 -88 -152q-70 -58 -168 -58t-149 58q-50 58 -34 152q12 63 51 110t97 69q-79 43 -60 145q14 82 74 130q62 50 147 50q84 0 127.5 -50t29.5 -130h-75q8 51 -18 83t-76 32q-51 0 -88 -32t-46 -83t17 -83.5t76 -32.5h28
l-10 -62h-28q-63 0 -112 -41q-48 -42 -58 -105q-12 -64 21 -104.5t97 -40.5q65 0 111 40q49 41 59 105z" />
    <glyph glyph-name="quotesingle" unicode="'" horiz-adv-x="210" 
d="M216 450h-64l44 250h64z" />
    <glyph glyph-name="parenleft" unicode="(" horiz-adv-x="298" 
d="M384 757l-10 -56q-45 0 -101 -128q-54 -124 -89 -323q-23 -131 -27 -235q-3 -103 12.5 -159.5t45.5 -56.5l-9 -56q-80 0 -107.5 140.5t10.5 366.5q37 221 117 364t158 143z" />
    <glyph glyph-name="parenright" unicode=")" horiz-adv-x="298" 
d="M174 701l10 56q81 0 107.5 -140.5t-10.5 -366.5q-39 -223 -118 -365q-78 -142 -157 -142l9 56q44 0 100 128q57 132 91 323q22 129 25 234t-12 162.5t-45 54.5z" />
    <glyph glyph-name="asterisk" unicode="*" horiz-adv-x="446" 
d="M368 363l-62 113l-101 -114l-39 34l101 112l-125 43l27 53l124 -43l25 139h55l-24 -139l141 44l7 -53l-141 -44l64 -113z" />
    <glyph glyph-name="plus" unicode="+" horiz-adv-x="436" 
d="M235 264h-128l10 58h128l23 128h58l-23 -128h128l-10 -58h-128l-22 -128h-59z" />
    <glyph glyph-name="comma" unicode="," 
d="M63 -105l-22 26q47 41 60 73q-17 2 -26.5 15.5t-6.5 32.5q4 33 38.5 45t52.5 -12q11 -15 6 -41q-12 -62 -102 -139z" />
    <glyph glyph-name="hyphen" unicode="-" horiz-adv-x="340" 
d="M320 236h-218l10 58h219z" />
    <glyph glyph-name="period" unicode="." 
d="M72 42q3 20 20 34.5t37 14.5t32 -14.5t9 -34.5q-4 -21 -20.5 -35t-37.5 -14q-20 0 -32 14t-8 35z" />
    <glyph glyph-name="slash" unicode="/" horiz-adv-x="549" 
d="M118 -50h-74l510 800h74z" />
    <glyph glyph-name="zero" unicode="0" horiz-adv-x="565" 
d="M139 350q29 159 111 258t185 99t150 -99q47 -101 19 -258q-28 -159 -111 -258q-81 -99 -184 -99t-151 99q-47 101 -19 258zM215 350q-22 -130 6 -211q29 -81 99 -81t128 81q59 81 81 211q23 131 -7 211q-28 81 -99 81q-69 0 -128 -81q-57 -79 -80 -211z" />
    <glyph glyph-name="one" unicode="1" horiz-adv-x="316" 
d="M254 635l-114 -21l11 59l188 31l-124 -704h-72z" />
    <glyph glyph-name="two" unicode="2" horiz-adv-x="517" 
d="M50 0l11 65l357 303q47 41 61 118q12 69 -19 112t-92 43t-107 -43t-58 -112h-75q18 98 87 160q70 61 165 61t143 -61q49 -61 31 -160q-18 -103 -94 -167l-300 -256h320l-11 -63h-419z" />
    <glyph glyph-name="three" unicode="3" horiz-adv-x="532" 
d="M342 349h-46l11 62h46q49 0 87 32q38 34 47 84q9 51 -18 83q-26 32 -76 32t-87.5 -32t-45.5 -83h-76q14 81 75 130q62 50 146 50q85 0 128 -50t29 -130q-18 -101 -111 -145q51 -22 73.5 -69t11.5 -110q-16 -92 -88 -152q-70 -58 -169 -58t-148 58q-50 59 -34 152h75
q-11 -65 21.5 -105t96.5 -40q65 0 111 40q49 41 59 105q12 65 -21 105.5t-97 40.5z" />
    <glyph glyph-name="four" unicode="4" horiz-adv-x="548" 
d="M433 0h-73l23 136h-319l6 36l408 528h75l-89 -501h63l-10 -63h-61zM466 589l-301 -390h231z" />
    <glyph glyph-name="five" unicode="5" horiz-adv-x="524" 
d="M522 214q-16 -98 -87 -160q-70 -61 -165 -61q-94 0 -144 57q-50 58 -33 150h73q-11 -62 21.5 -101.5t94.5 -39.5q61 0 107 43t58 112q13 75 -22 122t-104 47q-74 0 -124 -43l-49 21l103 339h305l-11 -63h-241l-66 -211q41 23 99 23q101 0 152 -65q53 -65 33 -170z" />
    <glyph glyph-name="six" unicode="6" horiz-adv-x="530" 
d="M435 707l56 -36q-119 -132 -215 -261q38 20 83 20q97 0 147 -60q51 -60 34 -158q-16 -97 -89 -159q-71 -60 -170 -60t-148 61q-50 62 -32 164q15 88 72 169q54 77 234 287q5 7 14 16.5t14 16.5zM176 212q-13 -68 19.5 -111t97.5 -43t111 43q48 43 60 111q13 69 -19.5 112
t-97.5 43q-64 0 -111.5 -43t-59.5 -112z" />
    <glyph glyph-name="seven" unicode="7" horiz-adv-x="523" 
d="M491 637h-329l11 63h423l-5 -27l-371 -673h-78z" />
    <glyph glyph-name="eight" unicode="8" horiz-adv-x="535" 
d="M188 527q14 82 74 130q62 50 147 50q84 0 127.5 -50t29.5 -130q-19 -103 -111 -145q51 -22 73 -69t11 -110q-16 -92 -88 -152q-70 -58 -168 -58t-149 58q-50 58 -34 152q12 64 50.5 110.5t96.5 68.5q-79 43 -59 145zM176 203q-12 -64 21 -104.5t97 -40.5q65 0 111 40
q49 41 59 105q11 65 -21.5 105t-96.5 40q-65 0 -112 -40q-48 -42 -58 -105zM356 412q51 0 88.5 32t46.5 83q8 51 -18 83t-76 32q-51 0 -88 -32t-46 -83t17 -83t76 -32z" />
    <glyph glyph-name="nine" unicode="9" horiz-adv-x="530" 
d="M284 28l-30 -35l-57 36q119 132 215 261q-38 -20 -83 -20q-97 0 -148 60q-50 61 -32 158q16 97 88 158q71 61 171 61q99 0 148.5 -61.5t30.5 -163.5q-15 -89 -73 -170q-51 -74 -230 -284zM513 488q12 68 -21 111t-97 43q-65 0 -112 -43q-47 -44 -59 -111
q-12 -69 20.5 -112t97.5 -43q64 0 111.5 43t59.5 112z" />
    <glyph glyph-name="colon" unicode=":" 
d="M72 42q3 20 20 34.5t37 14.5t32 -14.5t9 -34.5q-4 -21 -20.5 -35t-37.5 -14q-20 0 -32 14t-8 35zM136 408q4 21 21 35t37 14q21 0 32.5 -14t7.5 -35q-3 -20 -20 -34.5t-37 -14.5q-21 0 -32.5 14t-8.5 35z" />
    <glyph glyph-name="semicolon" unicode=";" 
d="M132 408q4 21 21 35t37 14q21 0 32.5 -14t7.5 -35q-3 -20 -20 -34.5t-37 -14.5q-21 0 -32.5 14t-8.5 35zM63 -105l-22 26q47 41 60 73q-17 2 -26.5 15.5t-6.5 32.5q4 33 38.5 45t52.5 -12q11 -15 6 -41q-12 -62 -102 -139z" />
    <glyph glyph-name="less" unicode="&#x3c;" horiz-adv-x="410" 
d="M385 152l-50 -43l-247 191l314 191l35 -43l-246 -148z" />
    <glyph glyph-name="equal" unicode="=" horiz-adv-x="476" 
d="M472 326h-355l11 58h355zM441 151h-354l10 59h355z" />
    <glyph glyph-name="greater" unicode="&#x3e;" horiz-adv-x="410" 
d="M175 491l246 -191l-313 -191l-36 43l246 148l-193 148z" />
    <glyph glyph-name="question" unicode="?" horiz-adv-x="471" 
d="M188 586l-39 48q92 73 205 73q93 0 135 -53q43 -51 29 -127q-12 -74 -76 -120q-3 -2 -19 -13t-20.5 -14.5t-18.5 -14.5t-20 -17.5t-16.5 -19t-15.5 -23.5t-10.5 -25.5t-8.5 -30.5l-10 -57h-73l10 57q17 97 80 147q8 6 37.5 27.5t41.5 31.5t26 30t18 41q9 48 -18 82
t-84 34q-85 0 -153 -56zM191 42q3 20 20 34.5t37 14.5q32 0 40 -30.5t-19 -53.5q-26 -23 -54.5 -10t-23.5 45z" />
    <glyph glyph-name="at" unicode="@" horiz-adv-x="1040" 
d="M856 -74l39 -46q-74 -66 -172.5 -101.5t-206.5 -35.5q-213 0 -323 134q-109 132 -71 348q37 214 194 348t368 134q211 1 322 -128.5t73 -314.5q-26 -146 -114 -213q-75 -58 -157 -58q-89 0 -108 52q-64 -52 -149 -52q-97 0 -146 64q-49 65 -30 168q18 104 94 168t181 64
q122 0 174 -73l-48 -274q-5 -24 11 -38t46 -14q53 0 102 48q49 49 67 150q30 166 -60 276q-89 110 -269 110q-178 0 -311 -116q-132 -116 -164 -301q-33 -186 58 -301q92 -116 273 -116q91 0 178 31t149 87zM450 225q-13 -74 23 -120.5t107 -46.5q72 0 121 43l45 255
q-38 36 -110 36q-71 0 -121 -46q-52 -47 -65 -121z" />
    <glyph glyph-name="A" unicode="A" horiz-adv-x="749" 
d="M721 0h-87l-53 202h-343l-123 -202h-87l434 700h72zM565 270l-84 334l-203 -334h287z" />
    <glyph glyph-name="B" unicode="B" horiz-adv-x="545" 
d="M293 0h-217l123 700h191q84 0 127 -49.5t28 -130.5q-18 -106 -108 -151q52 -18 76 -64.5t13 -111.5q-17 -89 -80 -141q-64 -52 -153 -52zM451 198q11 58 -18 94t-86 36h-136l-46 -262h136q57 0 98.5 36t51.5 96zM374 634h-109l-42 -240h109q52 0 89.5 33t47.5 87
t-16.5 87t-78.5 33z" />
    <glyph glyph-name="C" unicode="C" horiz-adv-x="699" 
d="M444 61q125 0 219 80l40 -47q-116 -101 -274 -101q-157 0 -238 99q-80 100 -52 258q29 159 144 258t272 99q158 0 238 -101l-57 -48q-64 81 -190 81q-123 0 -215 -80q-91 -79 -114 -209q-22 -128 40 -209q63 -80 187 -80z" />
    <glyph glyph-name="D" unicode="D" horiz-adv-x="692" 
d="M290 0h-214l123 700h214q157 0 237 -96q81 -97 53 -254q-29 -159 -142 -254q-114 -96 -271 -96zM625 350q22 128 -40 206q-61 78 -184 78h-136l-100 -568h136q123 0 212 77q90 79 112 207z" />
    <glyph glyph-name="E" unicode="E" horiz-adv-x="498" 
d="M557 637h-294l-44 -253h261l-11 -63h-262l-45 -258h299l-11 -63h-374l123 700h369z" />
    <glyph glyph-name="F" unicode="F" horiz-adv-x="472" 
d="M542 637h-279l-44 -253h243l-11 -63h-244l-56 -321h-75l123 700h354z" />
    <glyph glyph-name="G" unicode="G" horiz-adv-x="735" 
d="M665 306h-181l11 63h256l-49 -276q-112 -100 -273 -100q-157 0 -238 99q-80 100 -52 258q29 159 144 258t272 99q158 0 238 -101l-57 -48q-64 81 -190 81q-123 0 -215 -80q-91 -79 -114 -209q-22 -128 40 -209q63 -80 187 -80q106 0 189 59z" />
    <glyph glyph-name="H" unicode="H" horiz-adv-x="690" 
d="M199 700h75l-55 -316h388l55 316h75l-123 -700h-75l56 321h-388l-56 -321h-75z" />
    <glyph glyph-name="I" unicode="I" horiz-adv-x="222" 
d="M149 0h-76l123 700h76z" />
    <glyph glyph-name="J" unicode="J" horiz-adv-x="453" 
d="M337 190l90 510h75l-90 -510q-15 -88 -79 -143q-65 -54 -152 -54q-88 0 -133 55l58 49q27 -36 84 -36q55 0 95.5 35.5t51.5 93.5z" />
    <glyph glyph-name="K" unicode="K" horiz-adv-x="596" 
d="M149 0h-76l123 700h76zM565 0h-97l-246 359l349 341h95l-349 -341z" />
    <glyph glyph-name="L" unicode="L" horiz-adv-x="465" 
d="M199 700h75l-112 -637h273l-10 -63h-349z" />
    <glyph glyph-name="M" unicode="M" horiz-adv-x="809" 
d="M733 0h-75l95 545l-304 -384h-34l-168 384l-96 -545h-75l123 700h57l195 -433l347 433h58z" />
    <glyph glyph-name="N" unicode="N" horiz-adv-x="713" 
d="M76 0l123 700h51l336 -558l99 558h75l-123 -700h-51l-337 558l-98 -558h-75z" />
    <glyph glyph-name="O" unicode="O" horiz-adv-x="805" 
d="M139 350q29 159 144 258t272 99t237 -99q80 -100 52 -258q-28 -159 -144 -258q-114 -99 -271 -99t-238 99q-80 100 -52 258zM766 350q23 129 -39 209t-184 80q-121 0 -213 -80q-90 -78 -113 -209q-22 -128 40 -209q62 -80 184 -80q121 0 212 80q90 78 113 209z" />
    <glyph glyph-name="P" unicode="P" horiz-adv-x="519" 
d="M154 0h-78l123 700h189q92 0 138 -54q47 -54 31 -142q-17 -90 -81 -142q-65 -53 -157 -53h-111zM480 504q10 59 -18.5 94.5t-85.5 35.5h-111l-46 -260h111q57 0 98.5 36t51.5 94z" />
    <glyph glyph-name="Q" unicode="Q" horiz-adv-x="805" 
d="M799 22l-57 -48l-75 92q-103 -73 -238 -73q-157 0 -238 99q-80 100 -52 258q29 159 144 258t272 99t237 -99q80 -100 52 -258q-25 -142 -121 -236zM217 350q-23 -129 39 -209t184 -80q109 0 185 55l-94 115l56 48l90 -109q69 74 89 180q23 129 -39 209t-185 80
q-121 0 -213 -80q-89 -79 -112 -209z" />
    <glyph glyph-name="R" unicode="R" horiz-adv-x="534" 
d="M504 0h-86l-114 309h-96l-54 -309h-78l123 700h196q92 0 138.5 -53.5t31.5 -142.5q-14 -75 -63 -125t-121 -65zM384 634h-119l-46 -260h119q56 0 97.5 36t51.5 94t-18.5 94t-84.5 36z" />
    <glyph glyph-name="S" unicode="S" horiz-adv-x="530" 
d="M564 625l-56 -48q-20 27 -58 44.5t-79 17.5q-61 0 -99 -36t-45 -82q-15 -79 98 -124q52 -20 93 -40q49 -23 75 -64.5t15 -99.5q-15 -83 -81 -141q-67 -59 -169 -59q-131 0 -202 92l55 47q24 -33 65 -52t87 -19q71 0 115 41q45 42 52 89q6 32 -8.5 56t-42 39t-61.5 28.5
t-67 29.5t-59 37t-38.5 56.5t-4.5 81.5q13 78 73 133q58 55 154 55q124 0 188 -82z" />
    <glyph glyph-name="T" unicode="T" horiz-adv-x="557" 
d="M629 637h-201l-112 -637h-75l112 637h-201l11 63h477z" />
    <glyph glyph-name="U" unicode="U" horiz-adv-x="673" 
d="M586 255l79 445h75l-78 -445q-21 -118 -106 -190q-86 -72 -201 -72q-117 0 -176 72q-58 72 -39 190l79 445h75l-78 -445q-16 -86 26 -141q42 -53 124 -53t144 53q61 53 76 141z" />
    <glyph glyph-name="V" unicode="V" horiz-adv-x="749" 
d="M755 700h89l-433 -700h-72l-188 700h89l152 -602z" />
    <glyph glyph-name="W" unicode="W" horiz-adv-x="1133" 
d="M1141 700h87l-386 -700h-76l-99 571l-300 -571h-76l-140 700h87l110 -584l302 584h79l95 -584z" />
    <glyph glyph-name="X" unicode="X" horiz-adv-x="721" 
d="M690 0h-97l-180 303l-286 -303h-96l336 354l-206 346h97l173 -294l277 294h97l-329 -346z" />
    <glyph glyph-name="Y" unicode="Y" horiz-adv-x="667" 
d="M371 0h-76l53 302l-197 398h88l160 -323l275 323h87l-338 -399z" />
    <glyph glyph-name="Z" unicode="Z" horiz-adv-x="625" 
d="M575 637h-406l11 63h515l-4 -27l-521 -610h416l-11 -63h-525l5 28z" />
    <glyph glyph-name="bracketleft" unicode="[" horiz-adv-x="297" 
d="M205 750h174l-11 -58h-101l-155 -884h100l-10 -58h-174z" />
    <glyph glyph-name="backslash" unicode="\" horiz-adv-x="549" 
d="M185 750h74l228 -800h-74z" />
    <glyph glyph-name="bracketright" unicode="]" horiz-adv-x="297" 
d="M272 692h-100l11 58h173l-177 -1000h-173l11 58h100z" />
    <glyph glyph-name="asciicircum" unicode="^" horiz-adv-x="453" 
d="M120 485l225 190l157 -190l-44 -38l-126 152l-180 -152z" />
    <glyph glyph-name="underscore" unicode="_" horiz-adv-x="450" 
d="M421 -158h-449l11 58h449z" />
    <glyph glyph-name="grave" unicode="`" horiz-adv-x="265" 
d="M162 637l46 38l102 -125l-44 -38z" />
    <glyph glyph-name="a" unicode="a" horiz-adv-x="539" 
d="M377 457q123 0 174 -73l-67 -384h-73l6 36q-61 -43 -139 -43q-97 0 -146 64q-48 65 -30 168q20 104 94 168q76 64 181 64zM429 101l44 256q-38 35 -109 35q-69 0 -122 -47q-50 -46 -64 -120q-13 -73 22 -121q36 -46 107 -46q72 0 122 43z" />
    <glyph glyph-name="b" unicode="b" horiz-adv-x="539" 
d="M259 -7q-124 0 -175 73l121 684h73l-59 -330q59 37 134 37q99 0 149 -65t31 -167q-18 -104 -94 -168q-74 -64 -180 -64zM330 392q-73 0 -124 -48l-44 -250q38 -36 110 -36q71 0 121 46q51 45 65 121q13 73 -23 120q-35 47 -105 47z" />
    <glyph glyph-name="c" unicode="c" horiz-adv-x="478" 
d="M307 58q73 0 126 47l37 -45q-74 -67 -178 -67t-156 64t-34 168q20 104 94 168t178 64q101 0 154 -68l-53 -45q-35 48 -109 48q-70 0 -123 -47q-51 -45 -65 -120q-13 -75 22.5 -121t106.5 -46z" />
    <glyph glyph-name="d" unicode="d" horiz-adv-x="541" 
d="M618 750l-132 -750h-73l6 38q-61 -45 -141 -45q-97 0 -146 64q-48 65 -30 168q20 103 93 168q74 64 177 64q68 0 115 -33l58 326h73zM307 58q73 0 124 45l43 246q-37 43 -108 43q-70 0 -123 -47q-51 -45 -65 -120q-13 -75 22.5 -121t106.5 -46z" />
    <glyph glyph-name="e" unicode="e" horiz-adv-x="508" 
d="M520 206h-343q-7 -67 29 -107.5t105 -40.5q75 0 128 47l36 -45q-74 -67 -180 -67q-105 0 -157 64q-53 66 -34 170q18 101 89 166q70 64 167 64q96 0 138 -66.5t22 -184.5zM350 393q-57 0 -101.5 -36.5t-61.5 -98.5h269q5 62 -23 98.5t-83 36.5z" />
    <glyph glyph-name="f" unicode="f" horiz-adv-x="324" 
d="M164 392h-63l11 58h62l28 156q12 68 60 109.5t116 41.5q32 0 53 -10l-12 -62q-16 10 -40 10q-39 0 -67 -25t-35 -64l-27 -156h128l-11 -58h-128l-113 -642h-76z" />
    <glyph glyph-name="g" unicode="g" horiz-adv-x="507" 
d="M13 -118q7 42 40 74.5t84 48.5q-53 25 -45 75q10 51 77 77q-72 37 -54 136q14 75 70 119q59 45 137 45q73 0 114 -40q40 40 84 40q14 0 24 -2l-10 -59q-9 3 -20 3q-25 0 -51 -23q13 -34 6 -81q-14 -72 -70 -117q-57 -45 -137 -45q-41 0 -68 -14.5t-31 -36.5t23 -36
t75 -14q96 0 147.5 -38t40.5 -100q-12 -67 -85 -109q-72 -42 -171 -42q-93 0 -142 38.5t-38 100.5zM88 -118q-7 -37 24 -59.5t90 -22.5q64 0 114 26q49 25 57 67q6 37 -27.5 59t-94.5 22q-67 0 -111.5 -25.5t-51.5 -66.5zM275 191q46 0 80.5 29t42.5 75t-16 75t-70 29
t-81 -29t-43 -75t16 -75t71 -29z" />
    <glyph glyph-name="h" unicode="h" horiz-adv-x="523" 
d="M73 0l132 750h73l-60 -337q65 44 141 44t113 -50.5t23 -133.5l-48 -273h-72l47 273q10 52 -16 85.5t-76 33.5q-74 0 -123 -45l-61 -347h-73z" />
    <glyph glyph-name="i" unicode="i" 
d="M146 0h-73l79 450h73zM164 585q3 20 20 34.5t37 14.5q21 0 32.5 -14t8.5 -35q-5 -21 -21.5 -35t-37.5 -14q-20 0 -31.5 14.5t-7.5 34.5z" />
    <glyph glyph-name="j" unicode="j" 
d="M164 585q3 20 20 34.5t37 14.5q21 0 32.5 -14t8.5 -35q-5 -21 -21.5 -35t-37.5 -14q-20 0 -31.5 14.5t-7.5 34.5zM-26 -250l9 49q53 0 64 53l105 598h73l-106 -600q-8 -48 -39 -76t-75 -28q-23 0 -31 4z" />
    <glyph glyph-name="k" unicode="k" horiz-adv-x="466" 
d="M186 231l-40 -231h-73l132 750h73l-89 -503l216 203h87l-226 -211l169 -239h-87z" />
    <glyph glyph-name="l" unicode="l" horiz-adv-x="247" 
d="M220 49l-8 -49q-9 -4 -37 -4q-43 0 -64 28t-13 76l115 650h73l-114 -648q-5 -26 7.5 -39.5t40.5 -13.5z" />
    <glyph glyph-name="m" unicode="m" horiz-adv-x="761" 
d="M688 0h-73l53 303q7 39 -11.5 64t-55.5 25q-75 0 -128 -44q0 -28 -3 -45l-53 -303h-73l53 303q7 39 -11.5 64t-55.5 25q-73 0 -123 -46l-61 -346h-73l79 450h73l-7 -37q65 44 141 44t103 -61q71 61 168 61q63 0 93 -42.5t18 -111.5z" />
    <glyph glyph-name="n" unicode="n" horiz-adv-x="521" 
d="M73 0l79 450h73l-7 -37q65 44 141 44t113 -50.5t23 -133.5l-48 -273h-72l47 273q10 52 -16 85.5t-76 33.5q-73 0 -123 -46l-61 -346h-73z" />
    <glyph glyph-name="o" unicode="o" horiz-adv-x="555" 
d="M102 225q20 105 95 168q76 64 179 64q104 0 156 -64q53 -65 35 -168q-20 -105 -95 -168q-74 -64 -178 -64q-105 0 -157 64q-53 65 -35 168zM492 225q13 73 -23 120q-35 47 -105 47q-69 0 -122 -47q-50 -46 -64 -120q-13 -74 22 -120.5t105 -46.5q71 0 121 46
q52 46 66 121z" />
    <glyph glyph-name="p" unicode="p" horiz-adv-x="541" 
d="M28 -250l124 700h73l-7 -38q64 45 142 45q97 0 145 -64q48 -65 30 -168q-19 -103 -93 -168q-73 -64 -175 -64q-72 0 -117 33l-49 -276h-73zM330 392q-74 0 -124 -46l-43 -245q34 -43 108 -43q71 0 123 46q51 45 65 121q13 75 -22.5 121t-106.5 46z" />
    <glyph glyph-name="q" unicode="q" horiz-adv-x="539" 
d="M377 457q123 0 174 -73l-112 -634h-73l49 279q-59 -36 -131 -36q-99 0 -150 64q-50 65 -32 168q20 104 94 168q76 64 181 64zM305 58q71 0 124 47l44 252q-38 35 -109 35q-69 0 -122 -47q-50 -46 -64 -120q-13 -74 22 -120.5t105 -46.5z" />
    <glyph glyph-name="r" unicode="r" horiz-adv-x="345" 
d="M348 456q4 0 28 -2l-11 -64q-15 3 -33 3q-72 0 -128 -62l-58 -331h-73l79 450h73l-10 -54q65 60 133 60z" />
    <glyph glyph-name="s" unicode="s" horiz-adv-x="384" 
d="M395 404l-53 -45q-28 36 -80 36q-32 0 -54 -19.5t-25 -45.5q-9 -44 61 -73q29 -11 45 -18.5t37.5 -22.5t29 -37t2.5 -51q-9 -54 -56 -95q-46 -40 -117 -40q-91 0 -137 60l53 45q32 -44 90 -44q39 0 63.5 21.5t30.5 51.5q4 25 -15 42t-48 28t-57.5 25t-45.5 41t-10 66
q10 55 52.5 91.5t106.5 36.5q85 0 127 -53z" />
    <glyph glyph-name="t" unicode="t" horiz-adv-x="319" 
d="M156 392h-58l11 58h58l17 100h75l-17 -100h121l-11 -58h-121l-44 -253q-7 -37 11 -60.5t54 -23.5q22 0 43 10l-11 -62q-24 -10 -55 -10q-65 0 -97 40t-20 106z" />
    <glyph glyph-name="u" unicode="u" horiz-adv-x="531" 
d="M480 450h72l-48 -265q-15 -86 -77 -139t-148 -53t-130 53t-29 139l47 265h76l-47 -265q-10 -57 16.5 -92t79.5 -35t92 35.5t49 91.5z" />
    <glyph glyph-name="v" unicode="v" horiz-adv-x="529" 
d="M501 450h81l-283 -450h-69l-125 450h81l94 -360z" />
    <glyph glyph-name="w" unicode="w" horiz-adv-x="792" 
d="M762 450h83l-253 -450h-76l-59 348l-181 -348h-76l-95 450h83l65 -362l185 362h74l57 -362z" />
    <glyph glyph-name="x" unicode="x" horiz-adv-x="513" 
d="M482 0h-85l-109 183l-173 -183h-84l218 229l-132 221h85l102 -173l165 173h85l-211 -221z" />
    <glyph glyph-name="y" unicode="y" horiz-adv-x="529" 
d="M501 450h81l-445 -700h-81l174 250l-125 450h81l94 -363z" />
    <glyph glyph-name="z" unicode="z" horiz-adv-x="470" 
d="M383 392h-260l10 58h366l-5 -27l-328 -365h264l-10 -58h-370l5 28z" />
    <glyph glyph-name="braceleft" unicode="{" horiz-adv-x="318" 
d="M241 -201l-9 -56q-66 0 -101 62q-34 60 -17 157l17 95q13 71 -3 117q-15 47 -49 47l10 56q34 0 65 46q32 47 44 117l17 98q18 96 73 157q56 62 123 62l-10 -56q-35 0 -66 -46q-32 -47 -44 -117l-17 -98q-12 -66 -43.5 -116.5t-74.5 -74.5q34 -24 48 -74.5t2 -117.5
l-16 -95q-13 -70 2.5 -116.5t48.5 -46.5z" />
    <glyph glyph-name="bar" unicode="|" 
d="M101 -250h-73l177 1000h73z" />
    <glyph glyph-name="braceright" unicode="}" horiz-adv-x="318" 
d="M-5 -257l9 56q35 0 66 46q32 47 44 117l17 95q12 66 43.5 117t74.5 75q-36 23 -49.5 73t-1.5 118l17 98q13 70 -2.5 116.5t-48.5 46.5l10 56q67 0 100 -62q34 -60 17 -157l-17 -98q-13 -70 2.5 -116.5t49.5 -46.5l-10 -56q-33 0 -65 -47q-31 -46 -45 -117l-16 -95
q-16 -94 -73 -157q-56 -62 -122 -62z" />
    <glyph glyph-name="asciitilde" unicode="~" horiz-adv-x="433" 
d="M129 249h-50q8 47 43.5 77t81.5 30q7 0 14 -1t13 -3t11.5 -3.5t11.5 -5.5t9.5 -6t9.5 -7t8.5 -7t8.5 -7.5t8 -7.5q28 -26 66.5 -11.5t44.5 55.5h49q-8 -48 -43.5 -78t-82.5 -30q-27 0 -46 10t-28.5 22.5t-25.5 22.5t-36 10q-25 0 -44 -16.5t-23 -43.5z" />
    <glyph glyph-name="exclamdown" unicode="&#xa1;" 
d="M132 408q4 21 21 35t37 14q21 0 32.5 -14t7.5 -35q-3 -20 -20 -34.5t-37 -14.5q-21 0 -32.5 14t-8.5 35zM28 -250l91 508h72l-90 -508h-73z" />
    <glyph glyph-name="cent" unicode="&#xa2;" horiz-adv-x="478" 
d="M285 -100h-44l16 95q-87 11 -130 73t-27 157q16 93 82 156q65 64 156 74l17 95h44l-16 -93q94 -4 143 -68l-53 -45q-35 45 -102 48l-58 -334q68 1 118 47l37 -45q-70 -63 -167 -67zM176 225q-12 -63 13.5 -107.5t79.5 -56.5l57 327q-57 -11 -98.5 -55.5t-51.5 -107.5z
" />
    <glyph glyph-name="sterling" unicode="&#xa3;" horiz-adv-x="512" 
d="M172 321h-76l11 58h75l24 131q17 89 80 142q64 55 151 55t132 -55l-57 -49q-28 36 -84 36t-96.5 -35.5t-50.5 -93.5l-23 -131h177l-10 -58h-178l-36 -204q25 -6 69 -34q46 -28 76 -28q26 0 45 16.5t23 42.5h59q-9 -54 -47.5 -87.5t-89.5 -33.5q-44 0 -97 33
q-52 34 -83 34q-26 0 -45.5 -16.5t-23.5 -43.5h-59q7 42 32.5 73t64.5 43z" />
    <glyph glyph-name="currency" unicode="&#xa4;" horiz-adv-x="529" 
d="M148 300q10 56 45 99l-68 84l49 41l69 -84q49 29 104 29t93 -29l99 84l34 -41l-99 -84q24 -42 12 -99q-9 -56 -47 -100l70 -83l-49 -41l-69 84q-47 -29 -104 -29q-58 0 -93 29l-99 -84l-34 41l97 83q-20 43 -10 100zM213 300q-8 -50 15.5 -81.5t69.5 -31.5t80 31.5
t42 81.5q10 50 -13.5 81.5t-69.5 31.5t-80 -31.5t-44 -81.5z" />
    <glyph glyph-name="yen" unicode="&#xa5;" horiz-adv-x="667" 
d="M334 221h-141l7 44h141l7 37l-197 398h88l160 -323l275 323h87l-338 -399l-7 -36h141l-7 -44h-141l-15 -84h141l-8 -44h-140l-16 -93h-76l16 93h-140l7 44h141z" />
    <glyph glyph-name="brokenbar" unicode="&#xa6;" 
d="M101 -250h-73l80 450h73zM205 750h73l-80 -450h-73z" />
    <glyph glyph-name="section" unicode="&#xa7;" horiz-adv-x="423" 
d="M238 439l168 -205l-57 -48l-170 206q-53 63 -39 146q13 75 72 122t141 47q96 0 142 -67l-55 -47q-32 48 -99 48q-48 0 -83 -29t-43 -74q-11 -61 23 -99zM264 11l-169 205l58 48l169 -206q53 -64 40 -146q-13 -75 -72 -122t-141 -47q-96 0 -142 67l55 47q29 -48 98 -48
q48 0 83 29t43 74q10 56 -22 99z" />
    <glyph glyph-name="dieresis" unicode="&#xa8;" horiz-adv-x="427" 
d="M269 573q-4 -20 -20 -33.5t-35 -13.5q-32 0 -38 29.5t18 49.5q26 23 53 10.5t22 -42.5zM363 573q3 20 19 33.5t35 13.5q20 0 31.5 -13.5t7.5 -33.5t-20 -33.5t-35 -13.5q-20 0 -31 14t-7 33z" />
    <glyph glyph-name="copyright" unicode="&#xa9;" horiz-adv-x="805" 
d="M139 350q29 159 144 258t272 99t237 -99q80 -100 52 -258q-28 -159 -144 -258q-114 -99 -271 -99t-238 99q-80 100 -52 258zM196 350q-25 -139 42 -226q68 -86 198 -86q131 0 229 86q98 88 122 226q25 140 -42 225q-66 87 -198 87q-131 0 -229 -87q-98 -86 -122 -225z
M369 350q-11 -61 19 -99.5t89 -38.5t103 38l25 -28q-59 -51 -137 -51q-79 0 -119.5 49.5t-26.5 129.5t72 129q59 50 137 50q79 0 119 -51l-34 -28q-30 38 -90 38t-103 -39q-43 -37 -54 -99z" />
    <glyph glyph-name="ordfeminine" unicode="&#xaa;" horiz-adv-x="307" 
d="M292 704q71 0 98 -43l-37 -209h-46l3 19q-32 -23 -75 -23q-52 0 -78.5 35.5t-16.5 92.5q11 57 53 92.5t99 35.5zM188 576q-7 -38 11 -63q20 -23 56 -23t62 20l23 135q-20 17 -56 17t-62.5 -24t-33.5 -62z" />
    <glyph glyph-name="guillemotleft" unicode="&#xab;" horiz-adv-x="470" 
d="M265 117l-45 -38l-140 171l200 171l31 -38l-155 -133zM434 117l-44 -38l-141 171l201 171l31 -38l-156 -133z" />
    <glyph glyph-name="logicalnot" unicode="&#xac;" horiz-adv-x="500" 
d="M428 271h-320l10 58h379l-31 -173h-59z" />
    <glyph glyph-name="uni00AD" unicode="&#xad;" horiz-adv-x="340" 
d="M320 236h-218l10 58h219z" />
    <glyph glyph-name="registered" unicode="&#xae;" horiz-adv-x="805" 
d="M139 350q29 159 144 258t272 99t237 -99q80 -100 52 -258q-28 -159 -144 -258q-114 -99 -271 -99t-238 99q-80 100 -52 258zM196 350q-25 -139 42 -226q68 -86 198 -86q131 0 229 86q98 88 122 226q25 140 -42 225q-66 87 -198 87q-131 0 -229 -87q-98 -86 -122 -225z
M583 174h-52l-53 151h-43l-27 -151h-47l62 350h102q47 0 71 -27.5t16 -72.5q-14 -77 -88 -95zM518 484h-55l-22 -120h55q26 0 45 16.5t24 43.5t-8 43.5t-39 16.5z" />
    <glyph glyph-name="overscore" unicode="&#xaf;" horiz-adv-x="376" 
d="M405 543h-244l8 47h244z" />
    <glyph glyph-name="degree" unicode="&#xb0;" horiz-adv-x="290" 
d="M359 603q-7 -46 -39.5 -74t-78.5 -28t-68 28q-22 27 -14 74q7 45 41 74q32 28 78 28q45 0 67 -28t14 -74zM199 602q-4 -28 9.5 -44.5t40.5 -16.5q26 0 46 16.5t25 44.5q4 28 -9.5 45t-40.5 17t-46.5 -17t-24.5 -45z" />
    <glyph glyph-name="plusminus" unicode="&#xb1;" horiz-adv-x="436" 
d="M237 273h-128l10 59h127l23 128h58l-22 -128h128l-10 -59h-128l-23 -127h-58zM384 55h-314l10 58h314z" />
    <glyph glyph-name="twosuperior" unicode="&#xb2;" horiz-adv-x="279" 
d="M94 350l7 38l176 150q24 20 28 54q6 32 -7.5 52t-41.5 20t-49.5 -20t-27.5 -52h-46q10 50 45 81t84 31t73 -31q25 -31 16 -81t-48 -83l-142 -121h154l-7 -38h-214z" />
    <glyph glyph-name="threesuperior" unicode="&#xb3;" horiz-adv-x="287" 
d="M242 521h-23l7 37h23q24 0 40.5 15t21.5 39q4 23 -8 37.5t-35 14.5t-40 -14.5t-22 -37.5h-46q8 41 40 66.5t75 25.5t66 -25.5t15 -66.5q-8 -50 -52 -72q50 -26 39 -87q-9 -48 -45 -77.5t-86 -29.5t-75.5 29.5t-17.5 77.5h46q-8 -29 9.5 -48t44 -18.5t51.5 17.5
q22 19 27 48.5t-10.5 50.5t-44.5 18z" />
    <glyph glyph-name="acute" unicode="&#xb4;" horiz-adv-x="265" 
d="M179 512l-32 38l148 125l30 -38z" />
    <glyph glyph-name="mu" unicode="&#xb5;" horiz-adv-x="531" 
d="M-17 -200l9 49q53 0 64 53l46 265l3 18l47 265h76l-47 -265q-10 -57 16.5 -92t79.5 -35t92 35.5t49 91.5l47 265h72l-48 -265q-15 -86 -77 -139t-148 -53q-70 0 -113 36l-23 -129q-8 -48 -39 -76t-75 -28q-23 0 -31 4z" />
    <glyph glyph-name="paragraph" unicode="&#xb6;" horiz-adv-x="574" 
d="M391 700h101l-123 -700h-71l56 318h-31q-90 0 -135 52t-29 139q15 86 78 139q64 52 154 52zM517 0h-71l123 700h71z" />
    <glyph glyph-name="middot" unicode="&#xb7;" 
d="M109 250q3 20 20 34.5t37 14.5q21 0 32.5 -14t8.5 -35q-5 -21 -21.5 -35t-37.5 -14q-20 0 -31.5 14.5t-7.5 34.5z" />
    <glyph glyph-name="cedilla" unicode="&#xb8;" horiz-adv-x="264" 
d="M105 0h35l-11 -59q29 -5 43 -25t9 -51q-7 -36 -33.5 -58t-63.5 -22t-56 25l30 25q17 -22 51 -11t37 42q3 22 -11 34.5t-46 12.5z" />
    <glyph glyph-name="onesuperior" unicode="&#xb9;" horiz-adv-x="182" 
d="M197 661l-56 -10l6 35l101 16l-62 -352h-44z" />
    <glyph glyph-name="ordmasculine" unicode="&#xba;" horiz-adv-x="316" 
d="M140 576q11 57 52.5 92.5t98.5 35.5t86.5 -35.5t19.5 -92.5t-52 -92.5t-99 -35.5t-86.5 35.5t-19.5 92.5zM188 576q-7 -39 11.5 -62.5t53.5 -23.5q36 0 63 23.5t34 62.5q7 38 -11.5 62t-54.5 24t-62.5 -24t-33.5 -62z" />
    <glyph glyph-name="guillemotright" unicode="&#xbb;" horiz-adv-x="470" 
d="M332 421l141 -171l-201 -171l-31 38l156 133l-110 133zM163 421l141 -171l-202 -171l-31 38l157 133l-111 133z" />
    <glyph glyph-name="onequarter" unicode="&#xbc;" horiz-adv-x="634" 
d="M197 661l-56 -10l6 35l101 16l-62 -352h-44zM153 0h-55l491 700h55zM568 0h-44l11 66h-158l4 20l202 264h45l-44 -247h31l-6 -37h-30zM576 283l-137 -180h105z" />
    <glyph glyph-name="onehalf" unicode="&#xbd;" horiz-adv-x="686" 
d="M197 661l-56 -10l6 35l101 16l-62 -352h-44zM153 0h-55l491 700h55zM440 0l5 38l177 150q20 17 29 54q5 32 -9 52t-42 20q-29 0 -50 -20t-26 -52h-45q8 50 43.5 81t85.5 31q48 0 72 -31q25 -31 16 -81t-48 -83l-142 -121h154l-6 -38h-214z" />
    <glyph glyph-name="threequarters" unicode="&#xbe;" horiz-adv-x="652" 
d="M594 0h-44l11 66h-158l3 20l203 264h44l-43 -247h30l-6 -37h-29zM602 283l-138 -180h105zM242 521h-23l7 37h23q24 0 40.5 15t21.5 39q4 23 -8 37.5t-35 14.5t-40 -14.5t-22 -37.5h-46q8 41 40 66.5t75 25.5t66 -25.5t15 -66.5q-8 -50 -52 -72q50 -26 39 -87
q-9 -48 -45 -77.5t-86 -29.5t-75.5 29.5t-17.5 77.5h46q-8 -29 9.5 -48t44 -18.5t51.5 17.5q22 19 27 48.5t-10.5 50.5t-44.5 18zM204 0h-56l491 700h56z" />
    <glyph glyph-name="questiondown" unicode="&#xbf;" horiz-adv-x="471" 
d="M374 -136l39 -48q-91 -73 -204 -73q-92 0 -136 53q-42 53 -29 127q12 75 76 119q2 2 19 13.5t21 14.5t18.5 14.5t20 18t16 19t15.5 23.5t10.5 25.5t8.5 30.5l11 57h73l-11 -57q-17 -97 -80 -147q-11 -9 -38 -28t-40 -30t-26.5 -31t-17.5 -41q-10 -48 17 -82t84 -34
q86 0 153 56zM371 408q-3 -20 -20 -34.5t-37 -14.5q-21 0 -32.5 14t-8.5 35q4 21 21 35t37 14q21 0 32.5 -14t7.5 -35z" />
    <glyph glyph-name="Agrave" unicode="&#xc0;" horiz-adv-x="749" 
d="M721 0h-87l-53 202h-343l-123 -202h-87l434 700h72zM565 270l-84 334l-203 -334h287zM424 862l45 38l103 -125l-44 -38z" />
    <glyph glyph-name="Aacute" unicode="&#xc1;" horiz-adv-x="749" 
d="M721 0h-87l-53 202h-343l-123 -202h-87l434 700h72zM565 270l-84 334l-203 -334h287zM481 737l-32 38l148 125l31 -38z" />
    <glyph glyph-name="Acircumflex" unicode="&#xc2;" horiz-adv-x="749" 
d="M721 0h-87l-53 202h-343l-123 -202h-87l434 700h72zM565 270l-84 334l-203 -334h287zM385 775l148 125l103 -125l-45 -38l-71 87l-103 -87z" />
    <glyph glyph-name="Atilde" unicode="&#xc3;" horiz-adv-x="749" 
d="M721 0h-87l-53 202h-343l-123 -202h-87l434 700h72zM565 270l-84 334l-203 -334h287zM413 764h-42q7 39 34.5 63t64.5 24q31 0 55 -24t44 -24q18 0 32 12.5t18 31.5h42q-7 -39 -34.5 -63t-65.5 -24q-27 0 -55 24t-43 24q-19 0 -32.5 -12t-17.5 -32z" />
    <glyph glyph-name="Adieresis" unicode="&#xc4;" horiz-adv-x="749" 
d="M721 0h-87l-53 202h-343l-123 -202h-87l434 700h72zM565 270l-84 334l-203 -334h287zM375 797q3 20 19 33.5t35 13.5t30.5 -13.5t8.5 -33.5q-4 -19 -20 -32.5t-36 -13.5q-19 0 -30 13t-7 33zM562 797q3 20 18.5 33.5t35.5 13.5t31.5 -13.5t8.5 -33.5q-4 -19 -20 -32.5
t-36 -13.5t-31 13.5t-7 32.5z" />
    <glyph glyph-name="Aring" unicode="&#xc5;" horiz-adv-x="749" 
d="M721 0h-87l-53 202h-343l-123 -202h-87l434 700h72zM565 270l-84 334l-203 -334h287zM535 910q40 0 59.5 -24.5t12.5 -65.5q-8 -40 -36.5 -64.5t-67.5 -24.5t-59 24.5t-13 64.5t36 65t68 25zM528 874q-23 0 -40.5 -15t-21.5 -39t8 -39t35 -15t41 15t22 39t-8 39t-36 15z
" />
    <glyph glyph-name="AE" unicode="&#xc6;" horiz-adv-x="772" 
d="M833 637h-271l-45 -253h239l-11 -63h-239l-45 -258h276l-11 -63h-351l35 202h-172l-123 -202h-87l434 700h382zM481 604l-203 -334h144z" />
    <glyph glyph-name="Ccedilla" unicode="&#xc7;" horiz-adv-x="699" 
d="M443 61q125 0 219 80l40 -47q-110 -95 -259 -101l-9 -52q30 -5 44 -25t9 -51q-7 -36 -34 -58t-63 -22q-37 0 -56 25l29 25q12 -14 33 -14t36 12q16 13 19.5 32.5t-10.5 34.5t-46 13l15 81q-148 4 -224 103q-75 98 -48 253q28 159 144 258q115 99 272 99q158 0 238 -101
l-57 -48q-65 81 -190 81q-123 0 -215 -80q-91 -79 -114 -209q-22 -128 40 -209q63 -80 187 -80z" />
    <glyph glyph-name="Egrave" unicode="&#xc8;" horiz-adv-x="498" 
d="M557 637h-294l-44 -253h261l-11 -63h-262l-45 -258h299l-11 -63h-374l123 700h369zM312 862l44 38l103 -125l-44 -38z" />
    <glyph glyph-name="Eacute" unicode="&#xc9;" horiz-adv-x="498" 
d="M557 637h-294l-44 -253h261l-11 -63h-262l-45 -258h299l-11 -63h-374l123 700h369zM368 737l-32 38l148 125l31 -38z" />
    <glyph glyph-name="Ecircumflex" unicode="&#xca;" horiz-adv-x="498" 
d="M557 637h-294l-44 -253h261l-11 -63h-262l-45 -258h299l-11 -63h-374l123 700h369zM272 775l148 125l103 -125l-44 -38l-72 87l-103 -87z" />
    <glyph glyph-name="Edieresis" unicode="&#xcb;" horiz-adv-x="498" 
d="M557 637h-294l-44 -253h261l-11 -63h-262l-45 -258h299l-11 -63h-374l123 700h369zM262 797q3 20 19 33.5t35 13.5t30.5 -13.5t8.5 -33.5q-4 -19 -19.5 -32.5t-35.5 -13.5t-31 13.5t-7 32.5zM449 797q3 20 18.5 33.5t35.5 13.5t31.5 -13.5t8.5 -33.5q-4 -19 -20 -32.5
t-36 -13.5t-31 13.5t-7 32.5z" />
    <glyph glyph-name="Igrave" unicode="&#xcc;" horiz-adv-x="222" 
d="M149 0h-76l123 700h76zM161 862l45 38l103 -125l-45 -38z" />
    <glyph glyph-name="Iacute" unicode="&#xcd;" horiz-adv-x="222" 
d="M149 0h-76l123 700h76zM217 737l-31 38l147 125l31 -38z" />
    <glyph glyph-name="Icircumflex" unicode="&#xce;" horiz-adv-x="222" 
d="M149 0h-76l123 700h76zM122 775l148 125l102 -125l-44 -38l-72 87l-102 -87z" />
    <glyph glyph-name="Idieresis" unicode="&#xcf;" horiz-adv-x="222" 
d="M149 0h-76l123 700h76zM126 797q3 19 19 33t36 14q19 0 30.5 -13.5t8.5 -33.5q-4 -19 -20 -32.5t-36 -13.5q-19 0 -30 13t-8 33zM283 797q4 20 19.5 33.5t35.5 13.5t31 -13.5t8 -33.5q-4 -20 -20 -33t-36 -13t-31 13.5t-7 32.5z" />
    <glyph glyph-name="Eth" unicode="&#xd0;" horiz-adv-x="708" 
d="M157 321h-56l11 58h56l56 321h204q158 0 238 -96q80 -97 52 -254q-29 -159 -142 -254q-112 -96 -271 -96h-204zM417 634h-127l-45 -255h161l-10 -58h-162l-44 -255h126q123 0 212 77t112 207q23 129 -39 206q-61 78 -184 78z" />
    <glyph glyph-name="Ntilde" unicode="&#xd1;" horiz-adv-x="713" 
d="M76 0l123 700h51l336 -558l99 558h75l-123 -700h-51l-337 558l-98 -558h-75zM395 764h-43q7 39 35 63t64 24q31 0 55 -24t44 -24q19 0 33 12.5t17 31.5h43q-7 -39 -34.5 -63t-65.5 -24q-32 0 -56 24t-43 24q-18 0 -31.5 -12t-17.5 -32z" />
    <glyph glyph-name="Ograve" unicode="&#xd2;" horiz-adv-x="805" 
d="M139 350q29 159 144 258t272 99t237 -99q80 -100 52 -258q-28 -159 -144 -258q-114 -99 -271 -99t-238 99q-80 100 -52 258zM766 350q23 129 -39 209t-184 80q-121 0 -213 -80q-90 -78 -113 -209q-22 -128 40 -209q62 -80 184 -80q121 0 212 80q90 78 113 209zM480 862
l45 38l103 -125l-44 -38z" />
    <glyph glyph-name="Oacute" unicode="&#xd3;" horiz-adv-x="805" 
d="M139 350q29 159 144 258t272 99t237 -99q80 -100 52 -258q-28 -159 -144 -258q-114 -99 -271 -99t-238 99q-80 100 -52 258zM766 350q23 129 -39 209t-184 80q-121 0 -213 -80q-90 -78 -113 -209q-22 -128 40 -209q62 -80 184 -80q121 0 212 80q90 78 113 209zM537 737
l-32 38l147 125l32 -38z" />
    <glyph glyph-name="Ocircumflex" unicode="&#xd4;" horiz-adv-x="805" 
d="M139 350q29 159 144 258t272 99t237 -99q80 -100 52 -258q-28 -159 -144 -258q-114 -99 -271 -99t-238 99q-80 100 -52 258zM766 350q23 129 -39 209t-184 80q-121 0 -213 -80q-90 -78 -113 -209q-22 -128 40 -209q62 -80 184 -80q121 0 212 80q90 78 113 209zM441 775
l148 125l103 -125l-45 -38l-71 87l-103 -87z" />
    <glyph glyph-name="Otilde" unicode="&#xd5;" horiz-adv-x="805" 
d="M139 350q29 159 144 258t272 99t237 -99q80 -100 52 -258q-28 -159 -144 -258q-114 -99 -271 -99t-238 99q-80 100 -52 258zM766 350q23 129 -39 209t-184 80q-121 0 -213 -80q-90 -78 -113 -209q-22 -128 40 -209q62 -80 184 -80q121 0 212 80q90 78 113 209zM469 764
h-42q7 39 34.5 63t64.5 24q32 0 54 -24q24 -24 44 -24q19 0 33 12.5t18 31.5h42q-7 -39 -34.5 -63t-65.5 -24q-27 0 -55 24t-43 24q-19 0 -32.5 -12t-17.5 -32z" />
    <glyph glyph-name="Odieresis" unicode="&#xd6;" horiz-adv-x="805" 
d="M139 350q29 159 144 258t272 99t237 -99q80 -100 52 -258q-28 -159 -144 -258q-114 -99 -271 -99t-238 99q-80 100 -52 258zM766 350q23 129 -39 209t-184 80q-121 0 -213 -80q-90 -78 -113 -209q-22 -128 40 -209q62 -80 184 -80q121 0 212 80q90 78 113 209zM431 797
q3 20 19 33.5t35 13.5t30.5 -13.5t8.5 -33.5q-4 -19 -20 -32.5t-36 -13.5q-19 0 -30 13t-7 33zM618 797q3 20 18.5 33.5t35.5 13.5t31.5 -13.5t8.5 -33.5q-4 -19 -20 -32.5t-36 -13.5t-31 13.5t-7 32.5z" />
    <glyph glyph-name="multiply" unicode="&#xd7;" horiz-adv-x="436" 
d="M261 249l-139 -118l-34 41l139 118l-98 119l50 41l97 -118l139 118l34 -41l-139 -119l97 -118l-48 -41z" />
    <glyph glyph-name="Oslash" unicode="&#xd8;" horiz-adv-x="805" 
d="M130 -7h-78l108 103q-76 97 -49 254q29 159 144 258t272 99q126 0 203 -65l68 65h78l-109 -104q76 -97 49 -253q-28 -159 -144 -258q-114 -99 -271 -99q-125 0 -204 64zM189 350q-21 -119 31 -197l452 434q-61 52 -157 52q-121 0 -213 -80q-90 -78 -113 -209zM738 350
q21 117 -30 196l-453 -433q59 -52 158 -52q121 0 212 80q90 78 113 209z" />
    <glyph glyph-name="Ugrave" unicode="&#xd9;" horiz-adv-x="673" 
d="M586 255l79 445h75l-78 -445q-21 -118 -106 -190q-86 -72 -201 -72q-117 0 -176 72q-58 72 -39 190l79 445h75l-78 -445q-16 -86 26 -141q42 -53 124 -53t144 53q61 53 76 141zM406 862l45 38l103 -125l-44 -38z" />
    <glyph glyph-name="Uacute" unicode="&#xda;" horiz-adv-x="673" 
d="M586 255l79 445h75l-78 -445q-21 -118 -106 -190q-86 -72 -201 -72q-117 0 -176 72q-58 72 -39 190l79 445h75l-78 -445q-16 -86 26 -141q42 -53 124 -53t144 53q61 53 76 141zM462 737l-31 38l147 125l32 -38z" />
    <glyph glyph-name="Ucircumflex" unicode="&#xdb;" horiz-adv-x="673" 
d="M586 255l79 445h75l-78 -445q-21 -118 -106 -190q-86 -72 -201 -72q-117 0 -176 72q-58 72 -39 190l79 445h75l-78 -445q-16 -86 26 -141q42 -53 124 -53t144 53q61 53 76 141zM367 775l148 125l103 -125l-45 -38l-71 87l-103 -87z" />
    <glyph glyph-name="Udieresis" unicode="&#xdc;" horiz-adv-x="673" 
d="M586 255l79 445h75l-78 -445q-21 -118 -106 -190q-86 -72 -201 -72q-117 0 -176 72q-58 72 -39 190l79 445h75l-78 -445q-16 -86 26 -141q42 -53 124 -53t144 53q61 53 76 141zM357 797q2 19 18 33t36 14q19 0 30.5 -13.5t8.5 -33.5q-4 -19 -20 -32.5t-36 -13.5
q-19 0 -30 13t-7 33zM544 797q5 30 36 43t49 -10q19 -22 0.5 -50.5t-48.5 -28.5q-19 0 -30 13t-7 33z" />
    <glyph glyph-name="Yacute" unicode="&#xdd;" horiz-adv-x="667" 
d="M371 0h-76l53 302l-197 398h88l160 -323l275 323h87l-338 -399zM439 737l-32 38l148 125l31 -38z" />
    <glyph glyph-name="Thorn" unicode="&#xde;" horiz-adv-x="519" 
d="M154 0h-78l123 700h78l-26 -146h111q93 0 139 -53t30 -143q-16 -88 -82 -142q-65 -53 -156 -53h-111zM453 358q11 59 -17 95t-85 36h-112l-46 -260h112q56 0 97 35.5t51 93.5z" />
    <glyph glyph-name="germandbls" unicode="&#xdf;" horiz-adv-x="600" 
d="M249 571l-145 -821h-76l146 821q14 83 77 134q64 52 152 52t133 -51.5t31 -134.5q-11 -64 -53 -110.5t-102 -61.5q-12 -72 55 -108q60 -32 78 -49q42 -41 30 -110q-12 -60 -58.5 -99.5t-115.5 -39.5q-93 0 -137 60l53 45q32 -44 90 -44q38 0 64 22.5t30 52.5
q10 54 -58 89q-27 14 -43 24t-36 30.5t-26.5 50t0.5 67.5l11 60q54 0 93.5 33t48.5 87q10 54 -18 88t-82 34t-93.5 -34t-48.5 -87z" />
    <glyph glyph-name="agrave" unicode="&#xe0;" horiz-adv-x="539" 
d="M377 457q123 0 174 -73l-67 -384h-73l6 36q-61 -43 -139 -43q-97 0 -146 64q-48 65 -30 168q20 104 94 168q76 64 181 64zM429 101l44 256q-38 35 -109 35q-69 0 -122 -47q-50 -46 -64 -120q-13 -73 22 -121q36 -46 107 -46q72 0 122 43zM306 637l46 38l102 -125l-44 -38
z" />
    <glyph glyph-name="aacute" unicode="&#xe1;" horiz-adv-x="539" 
d="M377 457q123 0 174 -73l-67 -384h-73l6 36q-61 -43 -139 -43q-97 0 -146 64q-48 65 -30 168q20 104 94 168q76 64 181 64zM429 101l44 256q-38 35 -109 35q-69 0 -122 -47q-50 -46 -64 -120q-13 -73 22 -121q36 -46 107 -46q72 0 122 43zM362 512l-31 38l147 125l31 -38z
" />
    <glyph glyph-name="acircumflex" unicode="&#xe2;" horiz-adv-x="539" 
d="M377 457q123 0 174 -73l-67 -384h-73l6 36q-61 -43 -139 -43q-97 0 -146 64q-48 65 -30 168q20 104 94 168q76 64 181 64zM429 101l44 256q-38 35 -109 35q-69 0 -122 -47q-50 -46 -64 -120q-13 -73 22 -121q36 -46 107 -46q72 0 122 43zM268 550l148 125l103 -125
l-45 -38l-72 87l-102 -87z" />
    <glyph glyph-name="atilde" unicode="&#xe3;" horiz-adv-x="539" 
d="M377 457q123 0 174 -73l-67 -384h-73l6 36q-61 -43 -139 -43q-97 0 -146 64q-48 65 -30 168q20 104 94 168q76 64 181 64zM429 101l44 256q-38 35 -109 35q-69 0 -122 -47q-50 -46 -64 -120q-13 -73 22 -121q36 -46 107 -46q72 0 122 43zM296 539h-42q7 39 34.5 63.5
t64.5 24.5q31 0 55 -25q24 -24 44 -24q19 0 32.5 12t17.5 32h42q-7 -39 -34.5 -63t-65.5 -24q-20 0 -34.5 7.5t-20.5 16.5t-17 16.5t-25 7.5q-19 0 -33 -12t-18 -32z" />
    <glyph glyph-name="adieresis" unicode="&#xe4;" horiz-adv-x="539" 
d="M377 457q123 0 174 -73l-67 -384h-73l6 36q-61 -43 -139 -43q-97 0 -146 64q-48 65 -30 168q20 104 94 168q76 64 181 64zM429 101l44 256q-38 35 -109 35q-69 0 -122 -47q-50 -46 -64 -120q-13 -73 22 -121q36 -46 107 -46q72 0 122 43zM443 573q4 20 20 33.5t35 13.5
q20 0 31 -13.5t8 -33.5q-4 -20 -20 -33.5t-36 -13.5t-31 14t-7 33zM256 573q3 19 18.5 32.5t35.5 13.5t31.5 -13.5t7.5 -32.5q-4 -20 -20 -33.5t-35 -13.5q-20 0 -31 14t-7 33z" />
    <glyph glyph-name="aring" unicode="&#xe5;" horiz-adv-x="539" 
d="M377 457q123 0 174 -73l-67 -384h-73l6 36q-61 -43 -139 -43q-97 0 -146 64q-48 65 -30 168q20 104 94 168q76 64 181 64zM429 101l44 256q-38 35 -109 35q-69 0 -122 -47q-50 -46 -64 -120q-13 -73 22 -121q36 -46 107 -46q72 0 122 43zM314 596q8 40 36.5 64.5
t67.5 24.5q40 0 59.5 -24.5t12.5 -64.5q-8 -41 -36 -65.5t-68 -24.5q-39 0 -59 25t-13 65zM350 595q-4 -24 7.5 -39t34.5 -15q24 0 41 15t22 39q4 24 -8 39.5t-35 15.5t-40.5 -15t-21.5 -40z" />
    <glyph glyph-name="ae" unicode="&#xe6;" horiz-adv-x="720" 
d="M351 259l10 55q6 34 -14.5 58.5t-62.5 24.5q-63 0 -104 -37l-33 40q66 57 154 57q78 0 111 -52q62 52 149 52q96 0 138.5 -67t22.5 -184h-308l-16 -94q33 -54 115 -54q75 0 128 47l36 -45q-74 -67 -180 -67q-113 0 -162 69q-69 -69 -152 -69q-61 0 -89 35t-19 88
q12 68 80 107q69 39 163 39q22 0 33 -3zM434 314l-10 -56h234q5 62 -23 98.5t-83 36.5q-69 0 -116 -50q0 -3 -2 -29zM323 101l20 108q-22 2 -30 2q-66 0 -111 -24t-52 -64q-7 -29 9.5 -49.5t55.5 -20.5q59 0 108 48z" />
    <glyph glyph-name="ccedilla" unicode="&#xe7;" horiz-adv-x="478" 
d="M306 58q73 0 126 47l37 -45q-70 -63 -166 -67l-9 -52q30 -5 44 -25.5t8 -50.5q-7 -36 -33.5 -58t-63.5 -22q-36 0 -55 25l29 25q20 -23 51.5 -11t36.5 42q3 22 -11 34.5t-45 12.5l14 81q-93 7 -139 70q-46 62 -29 161q20 104 94 168t178 64q101 0 154 -68l-53 -45
q-34 48 -109 48q-70 0 -123 -47q-51 -45 -65 -120q-13 -75 22.5 -121t106.5 -46z" />
    <glyph glyph-name="egrave" unicode="&#xe8;" horiz-adv-x="508" 
d="M520 206h-343q-7 -67 29 -107.5t105 -40.5q75 0 128 47l36 -45q-74 -67 -180 -67q-105 0 -157 64q-53 66 -34 170q18 101 89 166q70 64 167 64q96 0 138 -66.5t22 -184.5zM350 393q-57 0 -101.5 -36.5t-61.5 -98.5h269q5 62 -23 98.5t-83 36.5zM290 637l45 38l103 -125
l-44 -38z" />
    <glyph glyph-name="eacute" unicode="&#xe9;" horiz-adv-x="508" 
d="M520 206h-343q-7 -67 29 -107.5t105 -40.5q75 0 128 47l36 -45q-74 -67 -180 -67q-105 0 -157 64q-53 66 -34 170q18 101 89 166q70 64 167 64q96 0 138 -66.5t22 -184.5zM350 393q-57 0 -101.5 -36.5t-61.5 -98.5h269q5 62 -23 98.5t-83 36.5zM345 512l-32 38l148 125
l31 -38z" />
    <glyph glyph-name="ecircumflex" unicode="&#xea;" horiz-adv-x="508" 
d="M520 206h-343q-7 -67 29 -107.5t105 -40.5q75 0 128 47l36 -45q-74 -67 -180 -67q-105 0 -157 64q-53 66 -34 170q18 101 89 166q70 64 167 64q96 0 138 -66.5t22 -184.5zM350 393q-57 0 -101.5 -36.5t-61.5 -98.5h269q5 62 -23 98.5t-83 36.5zM251 550l147 125l103 -125
l-44 -38l-72 87l-103 -87z" />
    <glyph glyph-name="edieresis" unicode="&#xeb;" horiz-adv-x="508" 
d="M520 206h-343q-7 -67 29 -107.5t105 -40.5q75 0 128 47l36 -45q-74 -67 -180 -67q-105 0 -157 64q-53 66 -34 170q18 101 89 166q70 64 167 64q96 0 138 -66.5t22 -184.5zM350 393q-57 0 -101.5 -36.5t-61.5 -98.5h269q5 62 -23 98.5t-83 36.5zM333 573q-4 -20 -20 -33.5
t-35 -13.5q-31 0 -37 29.5t18 49.5q26 22 53 10t21 -42zM427 573q4 20 20 33.5t35 13.5q20 0 31 -13.5t8 -33.5q-4 -20 -20 -33.5t-35 -13.5q-20 0 -31.5 14t-7.5 33z" />
    <glyph glyph-name="igrave" unicode="&#xec;" 
d="M120 637l45 38l103 -125l-44 -38zM146 0h-73l79 450h73z" />
    <glyph glyph-name="iacute" unicode="&#xed;" 
d="M176 512l-31 38l147 125l31 -38zM146 0h-73l79 450h73z" />
    <glyph glyph-name="icircumflex" unicode="&#xee;" 
d="M146 0h-73l79 450h73zM81 550l148 125l102 -125l-44 -38l-72 87l-102 -87z" />
    <glyph glyph-name="idieresis" unicode="&#xef;" 
d="M146 0h-73l79 450h73zM88 573q3 19 18.5 32.5t35.5 13.5t31 -13.5t8 -32.5q-4 -20 -20 -33.5t-35 -13.5q-20 0 -31 14t-7 33zM239 573q4 20 20 33.5t35 13.5q20 0 31 -13.5t8 -33.5q-4 -20 -20 -33.5t-35 -13.5q-20 0 -31.5 14t-7.5 33z" />
    <glyph glyph-name="eth" unicode="&#xf0;" horiz-adv-x="555" 
d="M385 592l-105 -54l-20 50l96 49l-48 84l72 36l46 -83l102 53l21 -50l-94 -49q78 -161 103 -240q25 -75 11 -156q-20 -110 -94 -174q-76 -65 -179 -65q-106 0 -158 64q-53 66 -34 169q18 103 94 167t178 64q49 0 83 -21q-32 73 -74 156zM493 225q13 73 -23 120
q-35 47 -105 47q-69 0 -122 -47q-50 -46 -64 -120q-13 -74 22 -120.5t105 -46.5q71 0 121 46q52 46 66 121z" />
    <glyph glyph-name="ntilde" unicode="&#xf1;" horiz-adv-x="521" 
d="M73 0l79 450h73l-7 -37q65 44 141 44t113 -50.5t23 -133.5l-48 -273h-72l47 273q10 52 -16 85.5t-76 33.5q-73 0 -123 -46l-61 -346h-73zM255 539h-43q7 39 35 63.5t64 24.5q31 0 55 -25q24 -24 44 -24q19 0 32.5 12t17.5 32h42q-6 -39 -34 -63t-66 -24q-20 0 -34.5 7.5
t-20.5 16.5t-17 16.5t-25 7.5q-19 0 -33 -12t-17 -32z" />
    <glyph glyph-name="ograve" unicode="&#xf2;" horiz-adv-x="555" 
d="M102 225q20 105 95 168q76 64 179 64q104 0 156 -64q53 -65 35 -168q-20 -105 -95 -168q-74 -64 -178 -64q-105 0 -157 64q-53 65 -35 168zM492 225q13 73 -23 120q-35 47 -105 47q-69 0 -122 -47q-50 -46 -64 -120q-13 -74 22 -120.5t105 -46.5q71 0 121 46
q52 46 66 121zM305 637l46 38l103 -125l-45 -38z" />
    <glyph glyph-name="oacute" unicode="&#xf3;" horiz-adv-x="555" 
d="M102 225q20 105 95 168q76 64 179 64q104 0 156 -64q53 -65 35 -168q-20 -105 -95 -168q-74 -64 -178 -64q-105 0 -157 64q-53 65 -35 168zM492 225q13 73 -23 120q-35 47 -105 47q-69 0 -122 -47q-50 -46 -64 -120q-13 -74 22 -120.5t105 -46.5q71 0 121 46
q52 46 66 121zM362 512l-32 38l148 125l31 -38z" />
    <glyph glyph-name="ocircumflex" unicode="&#xf4;" horiz-adv-x="555" 
d="M102 225q20 105 95 168q76 64 179 64q104 0 156 -64q53 -65 35 -168q-20 -105 -95 -168q-74 -64 -178 -64q-105 0 -157 64q-53 65 -35 168zM492 225q13 73 -23 120q-35 47 -105 47q-69 0 -122 -47q-50 -46 -64 -120q-13 -74 22 -120.5t105 -46.5q71 0 121 46
q52 46 66 121zM267 550l147 125l103 -125l-44 -38l-72 87l-102 -87z" />
    <glyph glyph-name="otilde" unicode="&#xf5;" horiz-adv-x="555" 
d="M102 225q20 105 95 168q76 64 179 64q104 0 156 -64q53 -65 35 -168q-20 -105 -95 -168q-74 -64 -178 -64q-105 0 -157 64q-53 65 -35 168zM492 225q13 73 -23 120q-35 47 -105 47q-69 0 -122 -47q-50 -46 -64 -120q-13 -74 22 -120.5t105 -46.5q71 0 121 46
q52 46 66 121zM294 539h-42q7 39 34.5 63.5t64.5 24.5q31 0 55 -25q24 -24 44 -24q19 0 32.5 12t17.5 32h42q-7 -39 -34.5 -63t-65.5 -24q-20 0 -34.5 7.5t-20.5 16.5t-17 16.5t-25 7.5q-19 0 -33 -12t-18 -32z" />
    <glyph glyph-name="odieresis" unicode="&#xf6;" horiz-adv-x="555" 
d="M102 225q20 105 95 168q76 64 179 64q104 0 156 -64q53 -65 35 -168q-20 -105 -95 -168q-74 -64 -178 -64q-105 0 -157 64q-53 65 -35 168zM492 225q13 73 -23 120q-35 47 -105 47q-69 0 -122 -47q-50 -46 -64 -120q-13 -74 22 -120.5t105 -46.5q71 0 121 46
q52 46 66 121zM256 573q3 19 18.5 32.5t35.5 13.5t31 -13.5t8 -32.5q-4 -20 -20 -33.5t-35 -13.5q-20 0 -31 14t-7 33zM443 573q3 19 19 33t36 14q19 0 30.5 -13.5t8.5 -33.5q-4 -20 -20 -33.5t-36 -13.5t-31 14t-7 33z" />
    <glyph glyph-name="divide" unicode="&#xf7;" horiz-adv-x="500" 
d="M481 238h-379l11 58h378zM222 102q3 19 18.5 32t35.5 13q19 0 29.5 -13t7.5 -32q-4 -20 -19 -33t-34 -13q-20 0 -31 13.5t-7 32.5zM280 432q4 20 19.5 33t34.5 13t30 -13.5t7 -32.5q-3 -19 -18.5 -32t-34.5 -13t-30 13t-8 32z" />
    <glyph glyph-name="oslash" unicode="&#xf8;" horiz-adv-x="555" 
d="M127 -7h-75l65 67q-51 64 -33 165q20 105 95 168q76 64 179 64q69 0 116 -29l33 34h76l-68 -70q52 -64 34 -167q-20 -105 -95 -168q-74 -64 -178 -64q-72 0 -119 31zM478 225q12 67 -15 113l-257 -264q31 -21 80 -21q72 0 125 48q54 48 67 124zM155 225q-12 -65 14 -111
l255 263q-32 20 -77 20q-73 0 -125 -48q-53 -47 -67 -124z" />
    <glyph glyph-name="ugrave" unicode="&#xf9;" horiz-adv-x="531" 
d="M480 450h72l-48 -265q-15 -86 -77 -139t-148 -53t-130 53t-29 139l47 265h76l-47 -265q-10 -57 16.5 -92t79.5 -35t92 35.5t49 91.5zM290 637l45 38l103 -125l-44 -38z" />
    <glyph glyph-name="uacute" unicode="&#xfa;" horiz-adv-x="531" 
d="M480 450h72l-48 -265q-15 -86 -77 -139t-148 -53t-130 53t-29 139l47 265h76l-47 -265q-10 -57 16.5 -92t79.5 -35t92 35.5t49 91.5zM347 512l-32 38l148 125l30 -38z" />
    <glyph glyph-name="ucircumflex" unicode="&#xfb;" horiz-adv-x="531" 
d="M480 450h72l-48 -265q-15 -86 -77 -139t-148 -53t-130 53t-29 139l47 265h76l-47 -265q-10 -57 16.5 -92t79.5 -35t92 35.5t49 91.5zM251 550l148 125l103 -125l-44 -38l-73 87l-102 -87z" />
    <glyph glyph-name="udieresis" unicode="&#xfc;" horiz-adv-x="531" 
d="M480 450h72l-48 -265q-15 -86 -77 -139t-148 -53t-130 53t-29 139l47 265h76l-47 -265q-10 -57 16.5 -92t79.5 -35t92 35.5t49 91.5zM334 573q-4 -20 -20 -33.5t-35 -13.5q-32 0 -38 29.5t18 49.5q26 23 53 10.5t22 -42.5zM428 573q3 20 19 33.5t35 13.5q20 0 31.5 -13.5
t7.5 -33.5t-20 -33.5t-35 -13.5q-20 0 -31 14t-7 33z" />
    <glyph glyph-name="yacute" unicode="&#xfd;" horiz-adv-x="529" 
d="M501 450h81l-445 -700h-81l174 250l-125 450h81l94 -363zM331 512l-32 38l148 125l31 -38z" />
    <glyph glyph-name="thorn" unicode="&#xfe;" horiz-adv-x="541" 
d="M28 -250l177 1000h73l-60 -337q65 44 142 44q97 0 145 -64q48 -65 30 -168q-19 -103 -93 -168q-73 -64 -175 -64q-72 0 -117 33l-49 -276h-73zM330 392q-73 0 -123 -46l-44 -245q34 -43 108 -43q71 0 123 46q51 45 65 121q13 75 -22.5 121t-106.5 46z" />
    <glyph glyph-name="ydieresis" unicode="&#xff;" horiz-adv-x="529" 
d="M501 450h81l-445 -700h-81l174 250l-125 450h81l94 -363zM225 573q3 19 18.5 32.5t35.5 13.5t31 -13.5t8 -32.5q-4 -20 -20 -33.5t-35 -13.5q-20 0 -31 14t-7 33zM412 573q3 19 19 33t36 14t31 -14t7 -33q-3 -20 -19 -33.5t-36 -13.5t-31 14t-7 33z" />
    <glyph glyph-name="Amacron" unicode="&#x100;" horiz-adv-x="749" 
d="M721 0h-87l-53 202h-343l-123 -202h-87l434 700h72zM565 270l-84 334l-203 -334h287zM632 768h-244l8 46h244z" />
    <glyph glyph-name="amacron" unicode="&#x101;" horiz-adv-x="539" 
d="M377 457q123 0 174 -73l-67 -384h-73l6 36q-61 -43 -139 -43q-97 0 -146 64q-48 65 -30 168q20 104 94 168q76 64 181 64zM429 101l44 256q-38 35 -109 35q-69 0 -122 -47q-50 -46 -64 -120q-13 -73 22 -121q36 -46 107 -46q72 0 122 43zM514 543h-244l8 47h244z" />
    <glyph glyph-name="Abreve" unicode="&#x102;" horiz-adv-x="749" 
d="M721 0h-87l-53 202h-343l-123 -202h-87l434 700h72zM565 270l-84 334l-203 -334h287zM516 807q64 0 110 42l32 -38q-70 -59 -151 -59q-82 0 -130 59l45 38q31 -42 94 -42z" />
    <glyph glyph-name="abreve" unicode="&#x103;" horiz-adv-x="539" 
d="M377 457q123 0 174 -73l-67 -384h-73l6 36q-61 -43 -139 -43q-97 0 -146 64q-48 65 -30 168q20 104 94 168q76 64 181 64zM429 101l44 256q-38 35 -109 35q-69 0 -122 -47q-50 -46 -64 -120q-13 -73 22 -121q36 -46 107 -46q72 0 122 43zM399 582q62 0 110 42l31 -38
q-68 -59 -151 -59q-81 0 -130 60l45 38q34 -43 95 -43z" />
    <glyph glyph-name="Aogonek" unicode="&#x104;" horiz-adv-x="749" 
d="M656 -39q-5 -27 7.5 -42.5t36.5 -15.5q26 0 43 16l23 -27q-29 -26 -72 -26q-42 0 -63 26t-13 69q3 23 16 39l-53 202h-343l-123 -202h-87l434 700h72l187 -700h-48q-14 -16 -17 -39zM565 270l-84 334l-203 -334h287z" />
    <glyph glyph-name="aogonek" unicode="&#x105;" horiz-adv-x="539" 
d="M433 -39q-5 -27 7.5 -42.5t36.5 -15.5q26 0 43 16l23 -27q-29 -26 -72 -26q-42 0 -63 26t-13 69q3 23 16 39l6 36q-61 -43 -139 -43q-97 0 -146 64q-48 65 -30 168q20 104 94 168q76 64 181 64q123 0 174 -73l-67 -384h-34q-14 -16 -17 -39zM429 101l44 256
q-38 35 -109 35q-69 0 -122 -47q-50 -46 -64 -120q-13 -73 22 -121q36 -46 107 -46q72 0 122 43z" />
    <glyph glyph-name="Cacute" unicode="&#x106;" horiz-adv-x="699" 
d="M444 61q125 0 219 80l40 -47q-116 -101 -274 -101q-157 0 -238 99q-80 100 -52 258q29 159 144 258t272 99q158 0 238 -101l-57 -48q-64 81 -190 81q-123 0 -215 -80q-91 -79 -114 -209q-22 -128 40 -209q63 -80 187 -80zM516 742l-32 38l148 125l31 -38z" />
    <glyph glyph-name="cacute" unicode="&#x107;" horiz-adv-x="478" 
d="M307 58q73 0 126 47l37 -45q-74 -67 -178 -67t-156 64t-34 168q20 104 94 168t178 64q101 0 154 -68l-53 -45q-35 48 -109 48q-70 0 -123 -47q-51 -45 -65 -120q-13 -75 22.5 -121t106.5 -46zM351 512l-32 38l148 125l31 -38z" />
    <glyph glyph-name="Ccircumflex" unicode="&#x108;" horiz-adv-x="699" 
d="M444 61q125 0 219 80l40 -47q-116 -101 -274 -101q-157 0 -238 99q-80 100 -52 258q29 159 144 258t272 99q158 0 238 -101l-57 -48q-64 81 -190 81q-123 0 -215 -80q-91 -79 -114 -209q-22 -128 40 -209q63 -80 187 -80zM421 775l147 125l103 -125l-44 -38l-72 87
l-103 -87z" />
    <glyph glyph-name="ccircumflex" unicode="&#x109;" horiz-adv-x="478" 
d="M307 58q73 0 126 47l37 -45q-74 -67 -178 -67t-156 64t-34 168q20 104 94 168t178 64q101 0 154 -68l-53 -45q-35 48 -109 48q-70 0 -123 -47q-51 -45 -65 -120q-13 -75 22.5 -121t106.5 -46zM255 550l147 125l103 -125l-44 -38l-72 87l-102 -87z" />
    <glyph glyph-name="Cdotaccent" unicode="&#x10a;" horiz-adv-x="699" 
d="M444 61q125 0 219 80l40 -47q-116 -101 -274 -101q-157 0 -238 99q-80 100 -52 258q29 159 144 258t272 99q158 0 238 -101l-57 -48q-64 81 -190 81q-123 0 -215 -80q-91 -79 -114 -209q-22 -128 40 -209q63 -80 187 -80zM503 810q4 20 20.5 34.5t37.5 14.5
q20 0 32 -14.5t8 -34.5q-3 -21 -19.5 -35t-37.5 -14t-32.5 14t-8.5 35z" />
    <glyph glyph-name="cdotaccent" unicode="&#x10b;" horiz-adv-x="478" 
d="M307 58q73 0 126 47l37 -45q-74 -67 -178 -67t-156 64t-34 168q20 104 94 168t178 64q101 0 154 -68l-53 -45q-35 48 -109 48q-70 0 -123 -47q-51 -45 -65 -120q-13 -75 22.5 -121t106.5 -46zM393 634q21 0 33 -14.5t8 -34.5t-21 -34.5t-37 -14.5q-21 0 -32.5 14.5
t-7.5 34.5t20.5 34.5t36.5 14.5z" />
    <glyph glyph-name="Ccaron" unicode="&#x10c;" horiz-adv-x="699" 
d="M444 61q125 0 219 80l40 -47q-116 -101 -274 -101q-157 0 -238 99q-80 100 -52 258q29 159 144 258t272 99q158 0 238 -101l-57 -48q-64 81 -190 81q-123 0 -215 -80q-91 -79 -114 -209q-22 -128 40 -209q63 -80 187 -80zM685 862l-147 -125l-104 125l45 38l72 -87
l103 87z" />
    <glyph glyph-name="ccaron" unicode="&#x10d;" horiz-adv-x="478" 
d="M307 58q73 0 126 47l37 -45q-74 -67 -178 -67t-156 64t-34 168q20 104 94 168t178 64q101 0 154 -68l-53 -45q-35 48 -109 48q-70 0 -123 -47q-51 -45 -65 -120q-13 -75 22.5 -121t106.5 -46zM519 637l-146 -125l-104 125l45 38l72 -87l103 87z" />
    <glyph glyph-name="Dcaron" unicode="&#x10e;" horiz-adv-x="692" 
d="M290 0h-214l123 700h214q157 0 237 -96q81 -97 53 -254q-29 -159 -142 -254q-114 -96 -271 -96zM625 350q22 128 -40 206q-61 78 -184 78h-136l-100 -568h136q123 0 212 77q90 79 112 207zM612 862l-147 -125l-103 125l45 38l72 -87l102 87z" />
    <glyph glyph-name="dcaron" unicode="&#x10f;" horiz-adv-x="680" 
d="M618 750l-132 -750h-73l6 38q-61 -45 -141 -45q-97 0 -146 64q-48 65 -30 168q20 103 93 168q74 64 177 64q68 0 115 -33l58 326h73zM307 58q73 0 124 45l43 246q-37 43 -108 43q-70 0 -123 -47q-51 -45 -65 -120q-13 -75 22.5 -121t106.5 -46zM699 561l-22 26
q48 42 60 73q-17 3 -26.5 16.5t-6.5 31.5q4 21 20.5 35t37.5 14q46 0 39 -57q-12 -64 -102 -139z" />
    <glyph glyph-name="Dcroat" unicode="&#x110;" horiz-adv-x="708" 
d="M157 321h-56l11 58h56l56 321h204q158 0 238 -96q80 -97 52 -254q-29 -159 -142 -254q-112 -96 -271 -96h-204zM417 634h-127l-45 -255h161l-10 -58h-162l-44 -255h126q123 0 212 77t112 207q23 129 -39 206q-61 78 -184 78z" />
    <glyph glyph-name="dslash" unicode="&#x111;" horiz-adv-x="555" 
d="M587 579l-101 -579h-73l6 37q-65 -44 -141 -44q-97 0 -146 64q-48 65 -30 168q20 103 93 168q74 64 177 64q71 0 115 -35l28 157h-134l11 58h133l20 113h73l-20 -113h57l-10 -58h-58zM307 58q73 0 124 45l43 246q-37 43 -108 43q-70 0 -123 -47q-51 -45 -65 -120
q-13 -75 22.5 -121t106.5 -46z" />
    <glyph glyph-name="Emacron" unicode="&#x112;" horiz-adv-x="498" 
d="M557 637h-294l-44 -253h261l-11 -63h-262l-45 -258h299l-11 -63h-374l123 700h369zM519 768h-244l8 46h244z" />
    <glyph glyph-name="emacron" unicode="&#x113;" horiz-adv-x="508" 
d="M520 206h-343q-7 -67 29 -107.5t105 -40.5q75 0 128 47l36 -45q-74 -67 -180 -67q-105 0 -157 64q-53 66 -34 170q18 101 89 166q70 64 167 64q96 0 138 -66.5t22 -184.5zM350 393q-57 0 -101.5 -36.5t-61.5 -98.5h269q5 62 -23 98.5t-83 36.5zM496 543h-244l9 47h244z
" />
    <glyph glyph-name="Ebreve" unicode="&#x114;" horiz-adv-x="498" 
d="M557 637h-294l-44 -253h261l-11 -63h-262l-45 -258h299l-11 -63h-374l123 700h369zM403 807q63 0 110 42l32 -38q-70 -59 -151 -59q-82 0 -130 59l45 38q34 -42 94 -42z" />
    <glyph glyph-name="ebreve" unicode="&#x115;" horiz-adv-x="508" 
d="M520 206h-343q-7 -67 29 -107.5t105 -40.5q75 0 128 47l36 -45q-74 -67 -180 -67q-105 0 -157 64q-53 66 -34 170q18 101 89 166q70 64 167 64q96 0 138 -66.5t22 -184.5zM350 393q-57 0 -101.5 -36.5t-61.5 -98.5h269q5 62 -23 98.5t-83 36.5zM381 582q62 0 110 42
l31 -38q-68 -59 -151 -59q-81 0 -130 60l45 38q34 -43 95 -43z" />
    <glyph glyph-name="Edotaccent" unicode="&#x116;" horiz-adv-x="498" 
d="M557 637h-294l-44 -253h261l-11 -63h-262l-45 -258h299l-11 -63h-374l123 700h369zM355 810q4 20 20.5 34.5t37.5 14.5q20 0 32 -14.5t8 -34.5q-4 -21 -20.5 -35t-37.5 -14q-20 0 -32 14t-8 35z" />
    <glyph glyph-name="edotaccent" unicode="&#x117;" horiz-adv-x="508" 
d="M520 206h-343q-7 -67 29 -107.5t105 -40.5q75 0 128 47l36 -45q-74 -67 -180 -67q-105 0 -157 64q-53 66 -34 170q18 101 89 166q70 64 167 64q96 0 138 -66.5t22 -184.5zM350 393q-57 0 -101.5 -36.5t-61.5 -98.5h269q5 62 -23 98.5t-83 36.5zM334 585q3 20 20 34.5
t37 14.5q21 0 32.5 -14t8.5 -35q-4 -20 -21 -34.5t-37 -14.5q-21 0 -32.5 14.5t-7.5 34.5z" />
    <glyph glyph-name="Eogonek" unicode="&#x118;" horiz-adv-x="498" 
d="M332 -39q-5 -27 7.5 -42.5t36.5 -15.5q26 0 43 16l23 -27q-32 -26 -72 -26q-42 0 -63 26t-14 69q3 22 17 39h-234l123 700h369l-11 -63h-294l-44 -253h261l-11 -63h-262l-45 -258h299l-11 -63h-101q-14 -16 -17 -39z" />
    <glyph glyph-name="eogonek" unicode="&#x119;" horiz-adv-x="508" 
d="M341 -39q-6 -26 6.5 -42t37.5 -16q24 0 43 16l23 -27q-32 -26 -73 -26q-42 0 -62.5 26t-13.5 69q2 18 12 33q-5 -1 -19 -1q-105 0 -157 64q-53 66 -34 170q18 101 89 166q70 64 167 64q96 0 138 -66.5t22 -184.5h-343q-7 -67 29 -107.5t105 -40.5q75 0 128 47l36 -45
q-49 -45 -117 -60q-14 -16 -17 -39zM350 393q-57 0 -101.5 -36.5t-61.5 -98.5h269q5 62 -23 98.5t-83 36.5z" />
    <glyph glyph-name="Ecaron" unicode="&#x11a;" horiz-adv-x="498" 
d="M557 637h-294l-44 -253h261l-11 -63h-262l-45 -258h299l-11 -63h-374l123 700h369zM538 862l-147 -125l-103 125l45 38l72 -87l102 87z" />
    <glyph glyph-name="ecaron" unicode="&#x11b;" horiz-adv-x="508" 
d="M516 637l-147 -125l-104 125l46 38l71 -87l103 87zM520 206h-343q-7 -67 29 -107.5t105 -40.5q75 0 128 47l36 -45q-74 -67 -180 -67q-105 0 -157 64q-53 66 -34 170q18 101 89 166q70 64 167 64q96 0 138 -66.5t22 -184.5zM350 393q-57 0 -101.5 -36.5t-61.5 -98.5h269
q5 62 -23 98.5t-83 36.5z" />
    <glyph glyph-name="Gcircumflex" unicode="&#x11c;" horiz-adv-x="735" 
d="M665 306h-181l11 63h256l-49 -276q-112 -100 -273 -100q-157 0 -238 99q-80 100 -52 258q29 159 144 258t272 99q158 0 238 -101l-57 -48q-64 81 -190 81q-123 0 -215 -80q-91 -79 -114 -209q-22 -128 40 -209q63 -80 187 -80q106 0 189 59zM440 775l148 125l103 -125
l-45 -38l-71 87l-103 -87z" />
    <glyph glyph-name="gcircumflex" unicode="&#x11d;" horiz-adv-x="507" 
d="M13 -118q7 42 40 74.5t84 48.5q-53 25 -45 75q10 51 77 77q-72 37 -54 136q14 75 70 119q59 45 137 45q73 0 114 -40q40 40 84 40q14 0 24 -2l-10 -59q-9 3 -20 3q-25 0 -51 -23q13 -34 6 -81q-14 -72 -70 -117q-57 -45 -137 -45q-41 0 -68 -14.5t-31 -36.5t23 -36
t75 -14q96 0 147.5 -38t40.5 -100q-12 -67 -85 -109q-72 -42 -171 -42q-93 0 -142 38.5t-38 100.5zM88 -118q-7 -37 24 -59.5t90 -22.5q64 0 114 26q49 25 57 67q6 37 -27.5 59t-94.5 22q-67 0 -111.5 -25.5t-51.5 -66.5zM275 191q46 0 80.5 29t42.5 75t-16 75t-70 29
t-81 -29t-43 -75t16 -75t71 -29zM211 550l148 125l102 -125l-44 -38l-72 87l-102 -87z" />
    <glyph glyph-name="Gbreve" unicode="&#x11e;" horiz-adv-x="735" 
d="M665 306h-181l11 63h256l-49 -276q-112 -100 -273 -100q-157 0 -238 99q-80 100 -52 258q29 159 144 258t272 99q158 0 238 -101l-57 -48q-64 81 -190 81q-123 0 -215 -80q-91 -79 -114 -209q-22 -128 40 -209q63 -80 187 -80q106 0 189 59zM570 807q63 0 111 42l31 -38
q-70 -59 -151 -59q-80 0 -130 59l45 38q34 -42 94 -42z" />
    <glyph glyph-name="gbreve" unicode="&#x11f;" horiz-adv-x="507" 
d="M13 -118q7 42 40 74.5t84 48.5q-53 25 -45 75q10 51 77 77q-72 37 -54 136q14 75 70 119q59 45 137 45q73 0 114 -40q40 40 84 40q14 0 24 -2l-10 -59q-9 3 -20 3q-25 0 -51 -23q13 -34 6 -81q-14 -72 -70 -117q-57 -45 -137 -45q-41 0 -68 -14.5t-31 -36.5t23 -36
t75 -14q96 0 147.5 -38t40.5 -100q-12 -67 -85 -109q-72 -42 -171 -42q-93 0 -142 38.5t-38 100.5zM88 -118q-7 -37 24 -59.5t90 -22.5q64 0 114 26q49 25 57 67q6 37 -27.5 59t-94.5 22q-67 0 -111.5 -25.5t-51.5 -66.5zM275 191q46 0 80.5 29t42.5 75t-16 75t-70 29
t-81 -29t-43 -75t16 -75t71 -29zM453 624l31 -38q-68 -59 -151 -59t-129 60l44 38q34 -43 96 -43q61 0 109 42z" />
    <glyph glyph-name="Gdotaccent" unicode="&#x120;" horiz-adv-x="735" 
d="M665 306h-181l11 63h256l-49 -276q-112 -100 -273 -100q-157 0 -238 99q-80 100 -52 258q29 159 144 258t272 99q158 0 238 -101l-57 -48q-64 81 -190 81q-123 0 -215 -80q-91 -79 -114 -209q-22 -128 40 -209q63 -80 187 -80q106 0 189 59zM522 810q4 20 20.5 34.5
t37.5 14.5q20 0 32 -14.5t8 -34.5q-3 -21 -19.5 -35t-37.5 -14t-32.5 14t-8.5 35z" />
    <glyph glyph-name="gdotaccent" unicode="&#x121;" horiz-adv-x="507" 
d="M13 -118q7 42 40 74.5t84 48.5q-53 25 -45 75q10 51 77 77q-72 37 -54 136q14 75 70 119q59 45 137 45q73 0 114 -40q40 40 84 40q14 0 24 -2l-10 -59q-9 3 -20 3q-25 0 -51 -23q13 -34 6 -81q-14 -72 -70 -117q-57 -45 -137 -45q-41 0 -68 -14.5t-31 -36.5t23 -36
t75 -14q96 0 147.5 -38t40.5 -100q-12 -67 -85 -109q-72 -42 -171 -42q-93 0 -142 38.5t-38 100.5zM88 -118q-7 -37 24 -59.5t90 -22.5q64 0 114 26q49 25 57 67q6 37 -27.5 59t-94.5 22q-67 0 -111.5 -25.5t-51.5 -66.5zM275 191q46 0 80.5 29t42.5 75t-16 75t-70 29
t-81 -29t-43 -75t16 -75t71 -29zM293 585q3 20 20 34.5t37 14.5t32 -14.5t9 -34.5q-5 -21 -21.5 -35t-37.5 -14q-20 0 -31.5 14.5t-7.5 34.5z" />
    <glyph glyph-name="Gcommaaccent" unicode="&#x122;" horiz-adv-x="735" 
d="M665 306h-181l11 63h256l-49 -276q-112 -100 -273 -100q-157 0 -238 99q-80 100 -52 258q29 159 144 258t272 99q158 0 238 -101l-57 -48q-64 81 -190 81q-123 0 -215 -80q-91 -79 -114 -209q-22 -128 40 -209q63 -80 187 -80q106 0 189 59zM359 -217l-18 22q42 36 52 65
q-14 2 -22.5 13.5t-5.5 26.5q5 29 35 39q31 10 44 -13q7 -13 3 -33q-9 -54 -88 -120z" />
    <glyph glyph-name="gcommaaccent" unicode="&#x123;" horiz-adv-x="507" 
d="M13 -118q7 42 40 74.5t84 48.5q-53 25 -45 75q10 51 77 77q-72 37 -54 136q14 75 70 119q59 45 137 45q73 0 114 -40q40 40 84 40q14 0 24 -2l-10 -59q-9 3 -20 3q-25 0 -51 -23q13 -34 6 -81q-14 -72 -70 -117q-57 -45 -137 -45q-41 0 -68 -14.5t-31 -36.5t23 -36
t75 -14q96 0 147.5 -38t40.5 -100q-12 -67 -85 -109q-72 -42 -171 -42q-93 0 -142 38.5t-38 100.5zM88 -118q-7 -37 24 -59.5t90 -22.5q64 0 114 26q49 25 57 67q6 37 -27.5 59t-94.5 22q-67 0 -111.5 -25.5t-51.5 -66.5zM275 191q46 0 80.5 29t42.5 75t-16 75t-70 29
t-81 -29t-43 -75t16 -75t71 -29zM388 683l18 -22q-41 -38 -52 -65q15 -2 23 -13.5t5 -27.5q-3 -17 -17 -29.5t-32 -12.5t-27.5 13t-4.5 36q7 55 87 121z" />
    <glyph glyph-name="Hcircumflex" unicode="&#x124;" horiz-adv-x="690" 
d="M199 700h75l-55 -316h388l55 316h75l-123 -700h-75l56 321h-388l-56 -321h-75zM356 775l147 125l103 -125l-44 -38l-72 87l-102 -87z" />
    <glyph glyph-name="hcircumflex" unicode="&#x125;" horiz-adv-x="523" 
d="M73 0l132 750h73l-60 -337q65 44 141 44t113 -50.5t23 -133.5l-48 -273h-72l47 273q10 52 -16 85.5t-76 33.5q-74 0 -123 -45l-61 -347h-73zM286 785l148 125l103 -125l-45 -38l-72 87l-102 -87z" />
    <glyph glyph-name="Hbar" unicode="&#x126;" horiz-adv-x="700" 
d="M176 0h-75l89 510h-60l10 59h61l23 131h75l-23 -131h343l23 131h75l-23 -131h65l-10 -59h-65l-90 -510h-75l56 321h-343zM266 510l-23 -126h344l22 126h-343z" />
    <glyph glyph-name="hbar" unicode="&#x127;" horiz-adv-x="538" 
d="M192 592h-58l10 58h58l18 100h73l-18 -100h173l-10 -58h-174l-31 -180q65 45 140 45q77 0 114 -50.5t22 -133.5l-47 -273h-73l48 273q9 53 -16.5 86t-76.5 33q-72 0 -123 -45l-60 -347h-73z" />
    <glyph glyph-name="Itilde" unicode="&#x128;" horiz-adv-x="222" 
d="M149 0h-76l123 700h76zM151 764h-43q7 39 34.5 63t64.5 24q31 0 55 -24t44 -24q18 0 32 12.5t18 31.5h43q-7 -39 -35 -63t-66 -24q-28 0 -55 24t-43 24q-19 0 -32.5 -12t-16.5 -32z" />
    <glyph glyph-name="itilde" unicode="&#x129;" 
d="M109 539h-42q7 39 34.5 63.5t64.5 24.5q28 0 56 -24.5t43 -24.5q18 0 32 12.5t18 31.5h42q-7 -39 -34.5 -63t-65.5 -24q-20 0 -34.5 7.5t-20.5 16.5t-17 16.5t-25 7.5q-19 0 -33 -12t-18 -32zM146 0h-73l79 450h73z" />
    <glyph glyph-name="Imacron" unicode="&#x12a;" horiz-adv-x="222" 
d="M149 0h-76l123 700h76zM368 768h-244l9 46h244z" />
    <glyph glyph-name="imacron" unicode="&#x12b;" 
d="M146 0h-73l79 450h73zM327 543h-244l8 47h244z" />
    <glyph glyph-name="Ibreve" unicode="&#x12c;" horiz-adv-x="222" 
d="M149 0h-76l123 700h76zM253 807q62 0 110 42l31 -38q-70 -59 -151 -59q-80 0 -130 59l45 38q34 -42 95 -42z" />
    <glyph glyph-name="ibreve" unicode="&#x12d;" 
d="M146 0h-73l79 450h73zM212 582q62 0 110 42l31 -38q-68 -59 -151 -59q-80 0 -130 60l45 38q34 -43 95 -43z" />
    <glyph glyph-name="Iogonek" unicode="&#x12e;" horiz-adv-x="222" 
d="M103 -39q-5 -27 7.5 -42.5t36.5 -15.5q25 0 44 16l22 -27q-29 -26 -72 -26q-42 0 -63 26t-13 69q3 23 16 39h39q-13 -16 -17 -39zM157 0h-76l123 700h76z" />
    <glyph glyph-name="iogonek" unicode="&#x12f;" 
d="M154 0h-73l79 450h73zM172 585q3 20 20 34.5t37 14.5q21 0 32.5 -14t8.5 -35q-5 -21 -21.5 -35t-37.5 -14q-20 0 -31.5 14.5t-7.5 34.5zM103 -39q-5 -27 7.5 -42.5t36.5 -15.5q25 0 44 16l22 -27q-29 -26 -72 -26q-42 0 -63 26t-13 69q3 23 16 39h39q-13 -16 -17 -39z
" />
    <glyph glyph-name="Idot" unicode="&#x130;" horiz-adv-x="222" 
d="M149 0h-76l123 700h76zM204 810q4 20 20.5 34.5t37.5 14.5q20 0 32 -14.5t8 -34.5q-4 -21 -20.5 -35t-37.5 -14q-20 0 -32 14t-8 35z" />
    <glyph glyph-name="dotlessi" unicode="&#x131;" 
d="M146 0h-73l79 450h73z" />
    <glyph glyph-name="IJ" unicode="&#x132;" horiz-adv-x="503" 
d="M195 250h-75l79 450h75zM387 190l90 510h76l-90 -510q-16 -88 -80 -143q-65 -54 -151 -54q-88 0 -133 55l57 49q27 -36 85 -36q55 0 95.5 35.5t50.5 93.5z" />
    <glyph glyph-name="ij" unicode="&#x133;" horiz-adv-x="439" 
d="M146 0h-73l79 450h73zM164 585q3 20 20 34.5t37 14.5q21 0 32.5 -14t8.5 -35q-5 -21 -21.5 -35t-37.5 -14q-20 0 -31.5 14.5t-7.5 34.5zM441 634q20 0 32 -14.5t8 -34.5t-20.5 -34.5t-37.5 -14.5q-20 0 -32 14.5t-8 34.5t20.5 34.5t37.5 14.5zM192 -250l9 49q56 0 65 53
l106 598h73l-106 -600q-9 -48 -40 -76t-74 -28q-25 0 -33 4z" />
    <glyph glyph-name="Jcircumflex" unicode="&#x134;" horiz-adv-x="453" 
d="M337 190l90 510h75l-90 -510q-15 -88 -79 -143q-65 -54 -152 -54q-88 0 -133 55l58 49q27 -36 84 -36q55 0 95.5 35.5t51.5 93.5zM352 775l148 125l103 -125l-45 -38l-71 87l-103 -87z" />
    <glyph glyph-name="jcircumflex" unicode="&#x135;" 
d="M-26 -250l9 49q53 0 64 53l105 598h73l-106 -600q-8 -48 -39 -76t-75 -28q-23 0 -31 4zM81 550l148 125l102 -125l-44 -38l-72 87l-102 -87z" />
    <glyph glyph-name="Kcommaaccent" unicode="&#x136;" horiz-adv-x="596" 
d="M149 0h-76l123 700h76zM565 0h-97l-246 359l349 341h95l-349 -341zM236 -217l-18 22q42 36 52 65q-14 2 -22.5 13.5t-5.5 26.5q5 29 35 39q31 10 44 -13q7 -13 3 -33q-9 -54 -88 -120z" />
    <glyph glyph-name="kcommaaccent" unicode="&#x137;" horiz-adv-x="466" 
d="M186 231l-40 -231h-73l132 750h73l-89 -503l216 203h87l-226 -211l169 -239h-87zM172 -217l-19 22q42 36 53 65q-15 1 -23.5 13t-5.5 27q3 18 17 30t33 12q18 0 27.5 -12.5t4.5 -36.5q-11 -55 -87 -120z" />
    <glyph glyph-name="Lacute" unicode="&#x139;" horiz-adv-x="465" 
d="M199 700h75l-112 -637h273l-10 -63h-349zM319 737l-32 38l147 125l32 -38z" />
    <glyph glyph-name="lacute" unicode="&#x13a;" horiz-adv-x="247" 
d="M220 49l-8 -49q-9 -4 -37 -4q-43 0 -64 28t-13 76l115 650h73l-114 -648q-5 -26 7.5 -39.5t40.5 -13.5zM224 772l-32 38l148 125l31 -38z" />
    <glyph glyph-name="Lcommaaccent" unicode="&#x13b;" horiz-adv-x="465" 
d="M199 700h75l-112 -637h273l-10 -63h-349zM187 -217l-19 22q42 35 53 65q-15 1 -23 13t-6 27q4 18 18 30t32 12q40 0 33 -49q-10 -54 -88 -120z" />
    <glyph glyph-name="lcommaaccent" unicode="&#x13c;" horiz-adv-x="247" 
d="M212 49l-8 -49q-9 -4 -37 -4q-43 0 -64 28t-13 76l115 650h73l-114 -648q-5 -26 7.5 -39.5t40.5 -13.5zM72 -217l-18 22q42 37 52 65q-14 2 -22.5 13.5t-5.5 26.5q5 29 35 39q31 10 44 -13q7 -13 3 -33q-9 -54 -88 -120z" />
    <glyph glyph-name="Lcaron" unicode="&#x13d;" horiz-adv-x="465" 
d="M199 700h75l-112 -637h273l-10 -63h-349zM390 862l-147 -125l-103 125l45 38l72 -87l102 87z" />
    <glyph glyph-name="lcaron" unicode="&#x13e;" horiz-adv-x="371" 
d="M220 49l-8 -49q-9 -4 -37 -4q-43 0 -64 28t-13 76l115 650h73l-114 -648q-5 -26 7.5 -39.5t40.5 -13.5zM380 561l-22 26q48 42 60 73q-17 3 -26.5 16.5t-6.5 31.5q4 21 20.5 35t37.5 14q46 0 39 -57q-12 -64 -102 -139z" />
    <glyph glyph-name="Ldot" unicode="&#x13f;" horiz-adv-x="465" 
d="M199 700h75l-112 -637h273l-10 -63h-349zM358 325q3 20 20 34.5t37 14.5q21 0 32.5 -14t8.5 -35q-4 -20 -20.5 -34.5t-37.5 -14.5q-20 0 -32 14.5t-8 34.5z" />
    <glyph glyph-name="ldot" unicode="&#x140;" horiz-adv-x="377" 
d="M220 49l-8 -49q-9 -4 -37 -4q-43 0 -64 28t-13 76l115 650h73l-114 -648q-5 -26 7.5 -39.5t40.5 -13.5zM373 374q20 0 32 -14.5t8 -34.5t-20.5 -34.5t-37.5 -14.5q-20 0 -32 14.5t-8 34.5t20.5 34.5t37.5 14.5z" />
    <glyph glyph-name="Lslash" unicode="&#x141;" horiz-adv-x="494" 
d="M83 196l-32 38l110 94l66 372h76l-56 -314l106 90l31 -38l-150 -128l-44 -247h274l-11 -63h-349l44 252z" />
    <glyph glyph-name="lslash" unicode="&#x142;" horiz-adv-x="290" 
d="M238 49l-7 -49q-9 -4 -37 -4q-44 0 -65 28t-12 76l33 184l-64 -54l-32 38l109 92l69 390h73l-60 -333l73 61l31 -38l-117 -99l-42 -239q-5 -26 7.5 -39.5t40.5 -13.5z" />
    <glyph glyph-name="Nacute" unicode="&#x143;" horiz-adv-x="713" 
d="M76 0l123 700h51l336 -558l99 558h75l-123 -700h-51l-337 558l-98 -558h-75zM462 737l-32 38l148 125l31 -38z" />
    <glyph glyph-name="nacute" unicode="&#x144;" horiz-adv-x="521" 
d="M73 0l79 450h73l-7 -37q65 44 141 44t113 -50.5t23 -133.5l-48 -273h-72l47 273q10 52 -16 85.5t-76 33.5q-73 0 -123 -46l-61 -346h-73zM327 512l-32 38l148 125l30 -38z" />
    <glyph glyph-name="Ncommaaccent" unicode="&#x145;" horiz-adv-x="713" 
d="M76 0l123 700h51l336 -558l99 558h75l-123 -700h-51l-337 558l-98 -558h-75zM295 -217l-19 22q42 35 53 65q-15 1 -23 13t-5 27q5 29 35 39q31 10 44 -13q7 -13 3 -33q-9 -54 -88 -120z" />
    <glyph glyph-name="ncommaaccent" unicode="&#x146;" horiz-adv-x="521" 
d="M73 0l79 450h73l-7 -37q65 44 141 44t113 -50.5t23 -133.5l-48 -273h-72l47 273q10 52 -16 85.5t-76 33.5q-73 0 -123 -46l-61 -346h-73zM197 -217l-19 22q42 36 53 65q-15 1 -23.5 13t-5.5 27q3 18 17 30t33 12q18 0 27.5 -12.5t4.5 -36.5q-10 -55 -87 -120z" />
    <glyph glyph-name="Ncaron" unicode="&#x147;" horiz-adv-x="713" 
d="M76 0l123 700h51l336 -558l99 558h75l-123 -700h-51l-337 558l-98 -558h-75zM633 862l-147 -125l-104 125l45 38l72 -87l103 87z" />
    <glyph glyph-name="ncaron" unicode="&#x148;" horiz-adv-x="521" 
d="M73 0l79 450h73l-7 -37q65 44 141 44t113 -50.5t23 -133.5l-48 -273h-72l47 273q10 52 -16 85.5t-76 33.5q-73 0 -123 -46l-61 -346h-73zM497 637l-147 -125l-104 125l46 38l71 -87l103 87z" />
    <glyph glyph-name="Eng" unicode="&#x14a;" horiz-adv-x="713" 
d="M461 -250l9 49q54 0 65 53l31 175l-317 531l-98 -558h-75l123 700h51l336 -558l99 558h75l-150 -850q-9 -48 -41 -76t-75 -28q-25 0 -33 4z" />
    <glyph glyph-name="eng" unicode="&#x14b;" horiz-adv-x="521" 
d="M274 -250l9 49q54 0 65 53l74 421q10 52 -16 85.5t-76 33.5q-73 0 -123 -46l-61 -346h-73l79 450h73l-7 -37q65 44 141 44t113 -50.5t23 -133.5l-75 -423q-8 -48 -39 -76t-74 -28q-25 0 -33 4z" />
    <glyph glyph-name="Omacron" unicode="&#x14c;" horiz-adv-x="805" 
d="M139 350q29 159 144 258t272 99t237 -99q80 -100 52 -258q-28 -159 -144 -258q-114 -99 -271 -99t-238 99q-80 100 -52 258zM766 350q23 129 -39 209t-184 80q-121 0 -213 -80q-90 -78 -113 -209q-22 -128 40 -209q62 -80 184 -80q121 0 212 80q90 78 113 209zM688 768
h-244l8 46h244z" />
    <glyph glyph-name="omacron" unicode="&#x14d;" horiz-adv-x="555" 
d="M102 225q20 105 95 168q76 64 179 64q104 0 156 -64q53 -65 35 -168q-20 -105 -95 -168q-74 -64 -178 -64q-105 0 -157 64q-53 65 -35 168zM492 225q13 73 -23 120q-35 47 -105 47q-69 0 -122 -47q-50 -46 -64 -120q-13 -74 22 -120.5t105 -46.5q71 0 121 46
q52 46 66 121zM513 543h-244l8 47h244z" />
    <glyph glyph-name="Obreve" unicode="&#x14e;" horiz-adv-x="805" 
d="M139 350q29 159 144 258t272 99t237 -99q80 -100 52 -258q-28 -159 -144 -258q-114 -99 -271 -99t-238 99q-80 100 -52 258zM766 350q23 129 -39 209t-184 80q-121 0 -213 -80q-90 -78 -113 -209q-22 -128 40 -209q62 -80 184 -80q121 0 212 80q90 78 113 209zM572 807
q64 0 110 42l31 -38q-68 -59 -150 -59t-130 59l45 38q31 -42 94 -42z" />
    <glyph glyph-name="obreve" unicode="&#x14f;" horiz-adv-x="555" 
d="M102 225q20 105 95 168q76 64 179 64q104 0 156 -64q53 -65 35 -168q-20 -105 -95 -168q-74 -64 -178 -64q-105 0 -157 64q-53 65 -35 168zM492 225q13 73 -23 120q-35 47 -105 47q-69 0 -122 -47q-50 -46 -64 -120q-13 -74 22 -120.5t105 -46.5q71 0 121 46
q52 46 66 121zM507 624l32 -38q-68 -59 -151 -59q-80 0 -130 60l45 38q33 -43 95 -43t109 42z" />
    <glyph glyph-name="Ohungarumlaut" unicode="&#x150;" horiz-adv-x="805" 
d="M139 350q29 159 144 258t272 99t237 -99q80 -100 52 -258q-28 -159 -144 -258q-114 -99 -271 -99t-238 99q-80 100 -52 258zM766 350q23 129 -39 209t-184 80q-121 0 -213 -80q-90 -78 -113 -209q-22 -128 40 -209q62 -80 184 -80q121 0 212 80q90 78 113 209zM462 737
l-32 38l148 125l31 -38zM611 737l-31 38l147 125l31 -38z" />
    <glyph glyph-name="ohungarumlaut" unicode="&#x151;" horiz-adv-x="555" 
d="M102 225q20 105 95 168q76 64 179 64q104 0 156 -64q53 -65 35 -168q-20 -105 -95 -168q-74 -64 -178 -64q-105 0 -157 64q-53 65 -35 168zM492 225q13 73 -23 120q-35 47 -105 47q-69 0 -122 -47q-50 -46 -64 -120q-13 -74 22 -120.5t105 -46.5q71 0 121 46
q52 46 66 121zM288 512l-32 38l147 125l31 -38zM437 512l-32 38l148 125l30 -38z" />
    <glyph glyph-name="OE" unicode="&#x152;" horiz-adv-x="875" 
d="M964 637h-271l-44 -253h238l-11 -63h-238l-46 -258h276l-10 -63h-349q-42 -7 -80 -7q-157 0 -238 99q-80 100 -52 258q29 159 144 258t272 99q36 0 77 -7h344zM441 61q40 0 78 11l98 556q-33 11 -74 11q-121 0 -213 -80q-90 -78 -113 -209q-22 -128 40 -209
q62 -80 184 -80z" />
    <glyph glyph-name="oe" unicode="&#x153;" horiz-adv-x="841" 
d="M852 206h-343q-7 -67 29 -107.5t105 -40.5q76 0 129 47l36 -45q-76 -67 -181 -67t-155 65q-76 -65 -178 -65q-105 0 -157 64q-53 65 -35 168q20 105 95 168q76 64 179 64q100 0 152 -63q69 63 164 63q96 0 138 -66.5t22 -184.5zM305 58q79 0 135 60q-15 50 -3 109
q9 60 40 107q-34 58 -113 58q-69 0 -122 -47q-50 -46 -64 -120q-13 -74 22 -120.5t105 -46.5zM682 393q-57 0 -101.5 -36.5t-61.5 -98.5h269q5 63 -22.5 99t-83.5 36z" />
    <glyph glyph-name="Racute" unicode="&#x154;" horiz-adv-x="534" 
d="M504 0h-86l-114 309h-96l-54 -309h-78l123 700h196q92 0 138.5 -53.5t31.5 -142.5q-14 -75 -63 -125t-121 -65zM384 634h-119l-46 -260h119q56 0 97.5 36t51.5 94t-18.5 94t-84.5 36zM368 737l-32 38l148 125l31 -38z" />
    <glyph glyph-name="racute" unicode="&#x155;" horiz-adv-x="345" 
d="M348 456q4 0 28 -2l-11 -64q-15 3 -33 3q-72 0 -128 -62l-58 -331h-73l79 450h73l-10 -54q65 60 133 60zM254 512l-32 38l148 125l31 -38z" />
    <glyph glyph-name="Rcommaaccent" unicode="&#x156;" horiz-adv-x="534" 
d="M504 0h-86l-114 309h-96l-54 -309h-78l123 700h196q92 0 138.5 -53.5t31.5 -142.5q-14 -75 -63 -125t-121 -65zM384 634h-119l-46 -260h119q56 0 97.5 36t51.5 94t-18.5 94t-84.5 36zM206 -217l-19 22q42 36 53 65q-15 1 -23 13t-6 27q3 18 17.5 30t32.5 12q40 0 33 -49
q-10 -54 -88 -120z" />
    <glyph glyph-name="rcommaaccent" unicode="&#x157;" horiz-adv-x="345" 
d="M348 456q4 0 28 -2l-11 -64q-15 3 -33 3q-72 0 -128 -62l-58 -331h-73l79 450h73l-10 -54q65 60 133 60zM46 -217l-18 22q42 37 52 65q-14 2 -22.5 13.5t-5.5 26.5q5 29 35 39q31 10 44 -13q7 -13 3 -33q-9 -54 -88 -120z" />
    <glyph glyph-name="Rcaron" unicode="&#x158;" horiz-adv-x="534" 
d="M504 0h-86l-114 309h-96l-54 -309h-78l123 700h196q92 0 138.5 -53.5t31.5 -142.5q-14 -75 -63 -125t-121 -65zM384 634h-119l-46 -260h119q56 0 97.5 36t51.5 94t-18.5 94t-84.5 36zM538 862l-147 -125l-103 125l45 38l72 -87l102 87z" />
    <glyph glyph-name="rcaron" unicode="&#x159;" horiz-adv-x="345" 
d="M348 456q4 0 28 -2l-11 -64q-15 3 -33 3q-72 0 -128 -62l-58 -331h-73l79 450h73l-10 -54q65 60 133 60zM424 637l-146 -125l-104 125l45 38l72 -87l103 87z" />
    <glyph glyph-name="Sacute" unicode="&#x15a;" horiz-adv-x="530" 
d="M564 625l-56 -48q-20 27 -58 44.5t-79 17.5q-61 0 -99 -36t-45 -82q-15 -79 98 -124q52 -20 93 -40q49 -23 75 -64.5t15 -99.5q-15 -83 -81 -141q-67 -59 -169 -59q-131 0 -202 92l55 47q24 -33 65 -52t87 -19q71 0 115 41q45 42 52 89q6 32 -8.5 56t-42 39t-61.5 28.5
t-67 29.5t-59 37t-38.5 56.5t-4.5 81.5q13 78 73 133q58 55 154 55q124 0 188 -82zM358 737l-31 38l147 125l31 -38z" />
    <glyph glyph-name="sacute" unicode="&#x15b;" horiz-adv-x="384" 
d="M395 404l-53 -45q-28 36 -80 36q-32 0 -54 -19.5t-25 -45.5q-9 -44 61 -73q29 -11 45 -18.5t37.5 -22.5t29 -37t2.5 -51q-9 -54 -56 -95q-46 -40 -117 -40q-91 0 -137 60l53 45q32 -44 90 -44q39 0 63.5 21.5t30.5 51.5q4 25 -15 42t-48 28t-57.5 25t-45.5 41t-10 66
q10 55 52.5 91.5t106.5 36.5q85 0 127 -53zM251 512l-32 38l148 125l30 -38z" />
    <glyph glyph-name="Scircumflex" unicode="&#x15c;" horiz-adv-x="530" 
d="M564 625l-56 -48q-20 27 -58 44.5t-79 17.5q-61 0 -99 -36t-45 -82q-15 -79 98 -124q52 -20 93 -40q49 -23 75 -64.5t15 -99.5q-15 -83 -81 -141q-67 -59 -169 -59q-131 0 -202 92l55 47q24 -33 65 -52t87 -19q71 0 115 41q45 42 52 89q6 32 -8.5 56t-42 39t-61.5 28.5
t-67 29.5t-59 37t-38.5 56.5t-4.5 81.5q13 78 73 133q58 55 154 55q124 0 188 -82zM263 775l148 125l102 -125l-44 -38l-72 87l-102 -87z" />
    <glyph glyph-name="scircumflex" unicode="&#x15d;" horiz-adv-x="384" 
d="M395 404l-53 -45q-28 36 -80 36q-32 0 -54 -19.5t-25 -45.5q-9 -44 61 -73q29 -11 45 -18.5t37.5 -22.5t29 -37t2.5 -51q-9 -54 -56 -95q-46 -40 -117 -40q-91 0 -137 60l53 45q32 -44 90 -44q39 0 63.5 21.5t30.5 51.5q4 25 -15 42t-48 28t-57.5 25t-45.5 41t-10 66
q10 55 52.5 91.5t106.5 36.5q85 0 127 -53zM155 550l148 125l103 -125l-45 -38l-72 87l-102 -87z" />
    <glyph glyph-name="Scedilla" unicode="&#x15e;" horiz-adv-x="530" 
d="M564 625l-56 -48q-20 27 -58 44.5t-79 17.5q-61 0 -99 -36t-45 -82q-15 -79 98 -124q52 -20 93 -40q49 -23 75 -64.5t15 -99.5q-15 -78 -77 -137q-60 -57 -157 -62l-9 -53q30 -5 44 -25t9 -51q-7 -36 -33.5 -58t-63.5 -22t-56 25l30 25q11 -14 32 -14t36 12
q16 13 19.5 32.5t-10.5 34.5t-46 13l15 81q-121 6 -185 91l55 47q24 -33 65 -52t87 -19q71 0 115 41q45 42 52 89q6 32 -8.5 56t-42 39t-61.5 28.5t-67 29.5t-59 37t-38.5 56.5t-4.5 81.5q13 78 73 133q58 55 154 55q124 0 188 -82z" />
    <glyph glyph-name="scedilla" unicode="&#x15f;" horiz-adv-x="384" 
d="M395 404l-53 -45q-28 36 -80 36q-32 0 -54 -19.5t-25 -45.5q-9 -44 61 -73q29 -11 45 -18.5t37.5 -22.5t29 -37t2.5 -51q-9 -54 -51.5 -92t-105.5 -42l-10 -53q30 -5 44 -25t9 -51q-7 -36 -33.5 -58t-63.5 -22t-56 25l30 25q11 -14 32 -14q45 0 56 45q3 22 -11 34.5
t-46 12.5l15 81q-78 6 -119 59l53 45q32 -44 90 -44q39 0 63.5 21.5t30.5 51.5q4 25 -15 42t-48 28t-57.5 25t-45.5 41t-10 66q10 55 52.5 91.5t106.5 36.5q85 0 127 -53z" />
    <glyph glyph-name="Scaron" unicode="&#x160;" horiz-adv-x="530" 
d="M564 625l-56 -48q-20 27 -58 44.5t-79 17.5q-61 0 -99 -36t-45 -82q-15 -79 98 -124q52 -20 93 -40q49 -23 75 -64.5t15 -99.5q-15 -83 -81 -141q-67 -59 -169 -59q-131 0 -202 92l55 47q24 -33 65 -52t87 -19q71 0 115 41q45 42 52 89q6 32 -8.5 56t-42 39t-61.5 28.5
t-67 29.5t-59 37t-38.5 56.5t-4.5 81.5q13 78 73 133q58 55 154 55q124 0 188 -82zM529 862l-147 -125l-103 125l44 38l73 -87l102 87z" />
    <glyph glyph-name="scaron" unicode="&#x161;" horiz-adv-x="384" 
d="M395 404l-53 -45q-28 36 -80 36q-32 0 -54 -19.5t-25 -45.5q-9 -44 61 -73q29 -11 45 -18.5t37.5 -22.5t29 -37t2.5 -51q-9 -54 -56 -95q-46 -40 -117 -40q-91 0 -137 60l53 45q32 -44 90 -44q39 0 63.5 21.5t30.5 51.5q4 25 -15 42t-48 28t-57.5 25t-45.5 41t-10 66
q10 55 52.5 91.5t106.5 36.5q85 0 127 -53zM421 637l-147 -125l-104 125l46 38l71 -87l103 87z" />
    <glyph glyph-name="Tcommaaccent" unicode="&#x162;" horiz-adv-x="557" 
d="M629 637h-201l-112 -637h-75l112 637h-201l11 63h477zM218 -217l-19 22q42 36 53 65q-15 1 -23.5 13t-5.5 27q3 18 17 30t33 12q18 0 27.5 -12.5t4.5 -36.5q-11 -55 -87 -120z" />
    <glyph glyph-name="tcommaaccent" unicode="&#x163;" horiz-adv-x="319" 
d="M156 392h-58l11 58h58l17 100h75l-17 -100h121l-11 -58h-121l-44 -253q-7 -37 11 -60.5t54 -23.5q22 0 43 10l-11 -62q-24 -10 -55 -10q-65 0 -97 40t-20 106zM113 -217l-18 22q42 36 52 65q-14 2 -22.5 13.5t-5.5 26.5q5 29 35 39q31 10 44 -13q7 -13 3 -33
q-9 -54 -88 -120z" />
    <glyph glyph-name="Tcaron" unicode="&#x164;" horiz-adv-x="557" 
d="M629 637h-201l-112 -637h-75l112 637h-201l11 63h477zM555 862l-147 -125l-103 125l45 38l72 -87l102 87z" />
    <glyph glyph-name="tcaron" unicode="&#x165;" horiz-adv-x="358" 
d="M156 392h-58l11 58h58l17 100h75l-17 -100h121l-11 -58h-121l-44 -253q-7 -37 11 -60.5t54 -23.5q22 0 43 10l-11 -62q-24 -10 -55 -10q-65 0 -97 40t-20 106zM361 535l-21 26q47 41 59 73q-17 3 -26.5 16.5t-6.5 31.5q5 21 21.5 35t37.5 14q22 0 33 -14.5t5 -42.5
q-11 -63 -102 -139z" />
    <glyph glyph-name="Tbar" unicode="&#x166;" horiz-adv-x="557" 
d="M301 341h-146l11 58h146l41 238h-201l11 63h477l-11 -63h-201l-41 -238h145l-10 -58h-146l-60 -341h-75z" />
    <glyph glyph-name="tbar" unicode="&#x167;" horiz-adv-x="319" 
d="M131 244h-58l9 56h58l16 92h-58l11 58h58l17 100h75l-17 -100h121l-11 -58h-121l-16 -92h121l-9 -56h-121l-19 -105q-7 -37 11 -60.5t54 -23.5q22 0 43 10l-11 -62q-24 -10 -55 -10q-65 0 -97 40t-20 106z" />
    <glyph glyph-name="Utilde" unicode="&#x168;" horiz-adv-x="673" 
d="M586 255l79 445h75l-78 -445q-21 -118 -106 -190q-86 -72 -201 -72q-117 0 -176 72q-58 72 -39 190l79 445h75l-78 -445q-16 -86 26 -141q42 -53 124 -53t144 53q61 53 76 141zM395 764h-42q7 39 34.5 63t63.5 24q31 0 55 -24t44 -24q19 0 33 12.5t18 31.5h42
q-7 -39 -34.5 -63t-65.5 -24q-27 0 -55 24t-43 24q-19 0 -32.5 -12t-17.5 -32z" />
    <glyph glyph-name="utilde" unicode="&#x169;" horiz-adv-x="531" 
d="M480 450h72l-48 -265q-15 -86 -77 -139t-148 -53t-130 53t-29 139l47 265h76l-47 -265q-10 -57 16.5 -92t79.5 -35t92 35.5t49 91.5zM279 539h-42q6 39 34 63.5t65 24.5q31 0 55 -25q24 -24 44 -24q18 0 32 12.5t17 31.5h43q-7 -39 -34.5 -63t-65.5 -24q-33 0 -55 24
q-23 24 -43 24q-18 0 -32 -12t-18 -32z" />
    <glyph glyph-name="Umacron" unicode="&#x16a;" horiz-adv-x="673" 
d="M586 255l79 445h75l-78 -445q-21 -118 -106 -190q-86 -72 -201 -72q-117 0 -176 72q-58 72 -39 190l79 445h75l-78 -445q-16 -86 26 -141q42 -53 124 -53t144 53q61 53 76 141zM614 768h-244l8 46h244z" />
    <glyph glyph-name="umacron" unicode="&#x16b;" horiz-adv-x="531" 
d="M480 450h72l-48 -265q-15 -86 -77 -139t-148 -53t-130 53t-29 139l47 265h76l-47 -265q-10 -57 16.5 -92t79.5 -35t92 35.5t49 91.5zM497 543h-244l9 47h244z" />
    <glyph glyph-name="Ubreve" unicode="&#x16c;" horiz-adv-x="673" 
d="M586 255l79 445h75l-78 -445q-21 -118 -106 -190q-86 -72 -201 -72q-117 0 -176 72q-58 72 -39 190l79 445h75l-78 -445q-16 -86 26 -141q42 -53 124 -53t144 53q61 53 76 141zM608 849l31 -38q-68 -59 -150 -59t-130 59l45 38q31 -42 94 -42q62 0 110 42z" />
    <glyph glyph-name="ubreve" unicode="&#x16d;" horiz-adv-x="531" 
d="M480 450h72l-48 -265q-15 -86 -77 -139t-148 -53t-130 53t-29 139l47 265h76l-47 -265q-10 -57 16.5 -92t79.5 -35t92 35.5t49 91.5zM492 624l31 -38q-68 -59 -151 -59q-82 0 -129 60l44 38q34 -43 96 -43q61 0 109 42z" />
    <glyph glyph-name="Uring" unicode="&#x16e;" horiz-adv-x="673" 
d="M586 255l79 445h75l-78 -445q-21 -118 -106 -190q-86 -72 -201 -72q-117 0 -176 72q-58 72 -39 190l79 445h75l-78 -445q-16 -86 26 -141q42 -53 124 -53t144 53q61 53 76 141zM485 731q-39 0 -59 24.5t-13 64.5t36 65t68 25t58.5 -25t12.5 -65t-35 -64.5t-68 -24.5z
M448 820q-4 -24 8 -39t35 -15t40.5 15t21.5 39q10 38 -24 50q-33 12 -61 -11q-18 -15 -20 -39z" />
    <glyph glyph-name="uring" unicode="&#x16f;" horiz-adv-x="531" 
d="M480 450h72l-48 -265q-15 -86 -77 -139t-148 -53t-130 53t-29 139l47 265h76l-47 -265q-10 -57 16.5 -92t79.5 -35t92 35.5t49 91.5zM297 596q8 40 36.5 64.5t67.5 24.5q40 0 59.5 -24.5t12.5 -64.5q-8 -41 -36 -65.5t-68 -24.5q-39 0 -59 25t-13 65zM332 595
q-4 -24 8 -39t35 -15q24 0 41 15t22 39q4 25 -8.5 40t-35.5 15t-40.5 -15t-21.5 -40z" />
    <glyph glyph-name="Uhungarumlaut" unicode="&#x170;" horiz-adv-x="673" 
d="M586 255l79 445h75l-78 -445q-21 -118 -106 -190q-86 -72 -201 -72q-117 0 -176 72q-58 72 -39 190l79 445h75l-78 -445q-16 -86 26 -141q42 -53 124 -53t144 53q61 53 76 141zM388 737l-32 38l148 125l31 -38zM537 737l-32 38l148 125l31 -38z" />
    <glyph glyph-name="uhungarumlaut" unicode="&#x171;" horiz-adv-x="531" 
d="M480 450h72l-48 -265q-15 -86 -77 -139t-148 -53t-130 53t-29 139l47 265h76l-47 -265q-10 -57 16.5 -92t79.5 -35t92 35.5t49 91.5zM272 512l-32 38l148 125l31 -38zM421 512l-31 38l147 125l31 -38z" />
    <glyph glyph-name="Uogonek" unicode="&#x172;" horiz-adv-x="673" 
d="M405 -39q-5 -27 7.5 -42.5t37.5 -15.5q24 0 43 16l22 -27q-29 -26 -72 -26q-42 0 -62.5 26t-13.5 69q1 18 12 33q-3 0 -12 -0.5t-12 -0.5q-117 0 -176 72q-58 72 -39 190l79 445h75l-78 -445q-16 -86 26 -141q42 -53 124 -53t144 53q61 53 76 141l79 445h75l-78 -445
q-18 -100 -82.5 -168t-157.5 -87q-13 -16 -17 -39z" />
    <glyph glyph-name="uogonek" unicode="&#x173;" horiz-adv-x="531" 
d="M320 -39q-5 -27 7.5 -42.5t36.5 -15.5q26 0 43 16l23 -27q-32 -26 -73 -26q-42 0 -62.5 26t-13.5 69q1 18 12 33q-3 -1 -14 -1q-86 0 -130 53t-29 139l47 265h76l-47 -265q-10 -57 16.5 -92t79.5 -35t92 35.5t49 91.5l47 265h72l-48 -265q-13 -71 -57.5 -120t-109.5 -65
q-14 -16 -17 -39z" />
    <glyph glyph-name="Wcircumflex" unicode="&#x174;" horiz-adv-x="1133" 
d="M1141 700h87l-386 -700h-76l-99 571l-300 -571h-76l-140 700h87l110 -584l302 584h79l95 -584zM577 775l148 125l102 -125l-44 -38l-72 87l-102 -87z" />
    <glyph glyph-name="wcircumflex" unicode="&#x175;" horiz-adv-x="792" 
d="M762 450h83l-253 -450h-76l-59 348l-181 -348h-76l-95 450h83l65 -362l185 362h74l57 -362zM367 550l148 125l103 -125l-45 -38l-72 87l-102 -87z" />
    <glyph glyph-name="Ycircumflex" unicode="&#x176;" horiz-adv-x="667" 
d="M371 0h-76l53 302l-197 398h88l160 -323l275 323h87l-338 -399zM344 775l147 125l103 -125l-44 -38l-72 87l-102 -87z" />
    <glyph glyph-name="ycircumflex" unicode="&#x177;" horiz-adv-x="529" 
d="M501 450h81l-445 -700h-81l174 250l-125 450h81l94 -363zM236 550l147 125l103 -125l-44 -38l-72 87l-103 -87z" />
    <glyph glyph-name="Ydieresis" unicode="&#x178;" horiz-adv-x="667" 
d="M371 0h-76l53 302l-197 398h88l160 -323l275 323h87l-338 -399zM333 797q3 19 19 33t36 14q19 0 30 -13.5t8 -33.5q-4 -19 -19.5 -32.5t-35.5 -13.5t-31 13.5t-7 32.5zM520 797q4 20 19.5 33.5t35.5 13.5t31 -13.5t8 -33.5q-4 -20 -20 -33t-36 -13t-31 13.5t-7 32.5z" />
    <glyph glyph-name="Zacute" unicode="&#x179;" horiz-adv-x="625" 
d="M575 637h-406l11 63h515l-4 -27l-521 -610h416l-11 -63h-525l5 28zM418 737l-31 38l147 125l32 -38z" />
    <glyph glyph-name="zacute" unicode="&#x17a;" horiz-adv-x="470" 
d="M383 392h-260l10 58h366l-5 -27l-328 -365h264l-10 -58h-370l5 28zM301 512l-31 38l147 125l31 -38z" />
    <glyph glyph-name="Zdotaccent" unicode="&#x17b;" horiz-adv-x="625" 
d="M575 637h-406l11 63h515l-4 -27l-521 -610h416l-11 -63h-525l5 28zM405 810q5 21 21.5 35t36.5 14q21 0 32.5 -14.5t7.5 -34.5q-3 -21 -19.5 -35t-37.5 -14q-20 0 -32 14t-9 35z" />
    <glyph glyph-name="zdotaccent" unicode="&#x17c;" horiz-adv-x="470" 
d="M383 392h-260l10 58h366l-5 -27l-328 -365h264l-10 -58h-370l5 28zM289 585q3 20 20 34.5t37 14.5q21 0 32.5 -14t8.5 -35q-5 -21 -21.5 -35t-36.5 -14q-21 0 -32.5 14.5t-7.5 34.5z" />
    <glyph glyph-name="Zcaron" unicode="&#x17d;" horiz-adv-x="625" 
d="M575 637h-406l11 63h515l-4 -27l-521 -610h416l-11 -63h-525l5 28zM589 862l-147 -125l-103 125l45 38l72 -87l102 87z" />
    <glyph glyph-name="zcaron" unicode="&#x17e;" horiz-adv-x="470" 
d="M383 392h-260l10 58h366l-5 -27l-328 -365h264l-10 -58h-370l5 28zM472 637l-147 -125l-104 125l45 38l72 -87l103 87z" />
    <glyph glyph-name="longs" unicode="&#x17f;" horiz-adv-x="302" 
d="M104 -250h-76l152 856q12 68 60 109.5t116 41.5q32 0 53 -10l-12 -62q-16 10 -40 10q-39 0 -67 -25t-35 -64z" />
    <glyph glyph-name="uni018F" unicode="&#x18f;" horiz-adv-x="746" 
d="M784 350q-28 -159 -135 -258t-250 -99q-144 0 -216 99q-72 100 -44 258l6 29h565q11 118 -52 188q-62 72 -178 72q-129 0 -219 -81l-40 48q116 101 274 101q157 0 237 -99q81 -98 52 -258zM698 316h-484q-13 -114 41 -185q54 -70 156 -70q103 0 180 70q79 71 107 185z
" />
    <glyph glyph-name="florin" unicode="&#x192;" horiz-adv-x="324" 
d="M-4 -250l8 49q54 0 65 53l95 540h-63l11 58h62l28 156q12 68 60 109.5t116 41.5q32 0 53 -10l-12 -62q-16 10 -40 10q-39 0 -67 -25t-35 -64l-27 -156h128l-11 -58h-128l-96 -542q-8 -48 -39.5 -76t-76.5 -28q-24 0 -31 4z" />
    <glyph glyph-name="uni01DD" unicode="&#x1dd;" horiz-adv-x="508" 
d="M108 244h343q7 67 -29 107.5t-105 40.5q-75 0 -128 -47l-37 45q76 67 182 67q103 0 156 -65t34 -169q-18 -101 -89 -166q-70 -64 -166 -64t-138.5 67t-22.5 184zM278 57q57 0 101.5 36.5t62.5 98.5h-270q-5 -63 22.5 -99t83.5 -36z" />
    <glyph glyph-name="Aringacute" unicode="&#x1fa;" horiz-adv-x="749" 
d="M503 860l-13 16l147 125l31 -38l-121 -103q29 -7 42.5 -30t8.5 -57q-10 -61 -62 -82l185 -691h-87l-53 202h-343l-123 -202h-87l428 691q-44 22 -34 82q6 33 28 56.5t53 30.5zM565 270l-84 334l-203 -334h287zM458 772q-4 -24 8 -39t35 -15t40.5 15t21.5 39t-8 39.5
t-35 15.5t-40.5 -15t-21.5 -40z" />
    <glyph glyph-name="aringacute" unicode="&#x1fb;" horiz-adv-x="539" 
d="M377 457q123 0 174 -73l-67 -384h-73l6 36q-61 -43 -139 -43q-97 0 -146 64q-48 65 -30 168q20 104 94 168q76 64 181 64zM429 101l44 256q-38 35 -109 35q-69 0 -122 -47q-50 -46 -64 -120q-13 -73 22 -121q36 -46 107 -46q72 0 122 43zM384 657l-13 17l147 126l31 -38
l-121 -104q29 -6 43.5 -30t8.5 -58q-8 -41 -36 -65.5t-68 -24.5q-39 0 -59 25t-13 65q6 34 27.5 57t52.5 30zM339 570q-4 -24 8 -39t35 -15q24 0 41.5 15t21.5 39t-8.5 39t-35.5 15t-40 -15t-22 -39z" />
    <glyph glyph-name="AEacute" unicode="&#x1fc;" horiz-adv-x="772" 
d="M833 637h-271l-45 -253h239l-11 -63h-239l-45 -258h276l-11 -63h-351l35 202h-172l-123 -202h-87l434 700h382zM481 604l-203 -334h144zM517 737l-32 38l147 125l32 -38z" />
    <glyph glyph-name="aeacute" unicode="&#x1fd;" horiz-adv-x="720" 
d="M351 259l10 55q6 34 -14.5 58.5t-62.5 24.5q-63 0 -104 -37l-33 40q66 57 154 57q78 0 111 -52q62 52 149 52q96 0 138.5 -67t22.5 -184h-308l-16 -94q33 -54 115 -54q75 0 128 47l36 -45q-74 -67 -180 -67q-113 0 -162 69q-69 -69 -152 -69q-61 0 -89 35t-19 88
q12 68 80 107q69 39 163 39q22 0 33 -3zM434 314l-10 -56h234q5 62 -23 98.5t-83 36.5q-69 0 -116 -50q0 -3 -2 -29zM323 101l20 108q-22 2 -30 2q-66 0 -111 -24t-52 -64q-7 -29 9.5 -49.5t55.5 -20.5q59 0 108 48zM445 512l-32 38l148 125l31 -38z" />
    <glyph glyph-name="Oslashacute" unicode="&#x1fe;" horiz-adv-x="805" 
d="M130 -7h-78l108 103q-76 97 -49 254q29 159 144 258t272 99q126 0 203 -65l68 65h78l-109 -104q76 -97 49 -253q-28 -159 -144 -258q-114 -99 -271 -99q-125 0 -204 64zM189 350q-21 -119 31 -197l452 434q-61 52 -157 52q-121 0 -213 -80q-90 -78 -113 -209zM738 350
q21 117 -30 196l-453 -433q59 -52 158 -52q121 0 212 80q90 78 113 209zM509 737l-32 38l147 125l32 -38z" />
    <glyph glyph-name="oslashacute" unicode="&#x1ff;" horiz-adv-x="555" 
d="M127 -7h-75l65 67q-51 64 -33 165q20 105 95 168q76 64 179 64q69 0 116 -29l33 34h76l-68 -70q52 -64 34 -167q-20 -105 -95 -168q-74 -64 -178 -64q-72 0 -119 31zM478 225q12 67 -15 113l-257 -264q31 -21 80 -21q72 0 125 48q54 48 67 124zM155 225q-12 -65 14 -111
l255 263q-32 20 -77 20q-73 0 -125 -48q-53 -47 -67 -124zM344 512l-32 38l148 125l31 -38z" />
    <glyph glyph-name="Scommaaccent" unicode="&#x218;" horiz-adv-x="530" 
d="M564 625l-56 -48q-20 27 -58 44.5t-79 17.5q-61 0 -99 -36t-45 -82q-15 -79 98 -124q52 -20 93 -40q49 -23 75 -64.5t15 -99.5q-15 -83 -81 -141q-67 -59 -169 -59q-131 0 -202 92l55 47q24 -33 65 -52t87 -19q71 0 115 41q45 42 52 89q6 32 -8.5 56t-42 39t-61.5 28.5
t-67 29.5t-59 37t-38.5 56.5t-4.5 81.5q13 78 73 133q58 55 154 55q124 0 188 -82zM199 -217l-18 22q42 37 52 65q-14 2 -22.5 13.5t-5.5 26.5q5 29 35 39q31 10 44 -13q7 -13 3 -33q-9 -54 -88 -120z" />
    <glyph glyph-name="scommaaccent" unicode="&#x219;" horiz-adv-x="384" 
d="M395 404l-53 -45q-28 36 -80 36q-32 0 -54 -19.5t-25 -45.5q-9 -44 61 -73q29 -11 45 -18.5t37.5 -22.5t29 -37t2.5 -51q-9 -54 -56 -95q-46 -40 -117 -40q-91 0 -137 60l53 45q32 -44 90 -44q39 0 63.5 21.5t30.5 51.5q4 25 -15 42t-48 28t-57.5 25t-45.5 41t-10 66
q10 55 52.5 91.5t106.5 36.5q85 0 127 -53zM124 -217l-19 22q42 36 53 65q-15 1 -23 13t-6 27q3 18 17.5 30t32.5 12q40 0 33 -49q-10 -54 -88 -120z" />
    <glyph glyph-name="uni021A" unicode="&#x21a;" horiz-adv-x="557" 
d="M629 637h-201l-112 -637h-75l112 637h-201l11 63h477zM218 -217l-19 22q42 36 53 65q-15 1 -23.5 13t-5.5 27q3 18 17 30t33 12q18 0 27.5 -12.5t4.5 -36.5q-11 -55 -87 -120z" />
    <glyph glyph-name="uni021B" unicode="&#x21b;" horiz-adv-x="319" 
d="M156 392h-58l11 58h58l17 100h75l-17 -100h121l-11 -58h-121l-44 -253q-7 -37 11 -60.5t54 -23.5q22 0 43 10l-11 -62q-24 -10 -55 -10q-65 0 -97 40t-20 106zM113 -217l-18 22q42 36 52 65q-14 2 -22.5 13.5t-5.5 26.5q5 29 35 39q31 10 44 -13q7 -13 3 -33
q-9 -54 -88 -120z" />
    <glyph glyph-name="dotlessj" unicode="&#x237;" 
d="M-26 -250l9 49q53 0 64 53l105 598h73l-106 -600q-8 -48 -39 -76t-75 -28q-23 0 -31 4z" />
    <glyph glyph-name="circumflex" unicode="&#x2c6;" horiz-adv-x="352" 
d="M147 550l148 125l103 -125l-45 -38l-72 87l-102 -87z" />
    <glyph glyph-name="caron" unicode="&#x2c7;" horiz-adv-x="352" 
d="M413 637l-147 -125l-104 125l46 38l71 -87l103 87z" />
    <glyph glyph-name="breve" unicode="&#x2d8;" horiz-adv-x="354" 
d="M279 582q62 0 110 42l31 -38q-68 -59 -151 -59q-81 0 -130 60l45 38q34 -43 95 -43z" />
    <glyph glyph-name="dotaccent" unicode="&#x2d9;" 
d="M168 585q3 20 20 34.5t37 14.5q21 0 32.5 -14t8.5 -35q-5 -21 -21.5 -35t-37.5 -14q-20 0 -31.5 14.5t-7.5 34.5z" />
    <glyph glyph-name="ring" unicode="&#x2da;" horiz-adv-x="275" 
d="M337 596q-7 -41 -35 -65.5t-68 -24.5t-59 25q-20 26 -13 65q7 40 36 64q28 25 68 25q39 0 58.5 -24.5t12.5 -64.5zM197 595q-4 -24 8 -39t35 -15t40.5 15t22.5 39q4 24 -8.5 39.5t-35.5 15.5t-40.5 -15t-21.5 -40z" />
    <glyph glyph-name="ogonek" unicode="&#x2db;" horiz-adv-x="256" 
d="M87 -39q-5 -27 7.5 -42.5t36.5 -15.5q25 0 44 16l22 -27q-29 -26 -72 -26q-42 0 -63 26t-13 69q3 23 16 39h39q-13 -16 -17 -39z" />
    <glyph glyph-name="tilde" unicode="&#x2dc;" horiz-adv-x="337" 
d="M168 539h-43q7 39 35 63.5t64 24.5q28 0 56 -24.5t43 -24.5q19 0 32.5 12t17.5 32h43q-7 -39 -35 -63t-66 -24q-20 0 -34.5 7.5t-20.5 16.5t-17 16.5t-25 7.5q-19 0 -33 -12t-17 -32z" />
    <glyph glyph-name="hungarumlaut" unicode="&#x2dd;" horiz-adv-x="414" 
d="M179 512l-32 38l148 125l30 -38zM328 512l-32 38l148 125l31 -38z" />
    <glyph glyph-name="uni0400" unicode="&#x400;" horiz-adv-x="498" 
d="M557 637h-294l-44 -253h261l-11 -63h-262l-45 -258h299l-11 -63h-374l123 700h369zM312 862l45 38l103 -125l-45 -38z" />
    <glyph glyph-name="afii10023" unicode="&#x401;" horiz-adv-x="498" 
d="M557 637h-294l-44 -253h261l-11 -63h-262l-45 -258h299l-11 -63h-374l123 700h369zM262 797q3 20 19 33.5t35 13.5t30.5 -13.5t8.5 -33.5q-4 -19 -19.5 -32.5t-35.5 -13.5t-31 13.5t-7 32.5zM449 797q3 20 18.5 33.5t35.5 13.5t31.5 -13.5t8.5 -33.5q-4 -19 -20 -32.5
t-36 -13.5t-31 13.5t-7 32.5z" />
    <glyph glyph-name="afii10051" unicode="&#x402;" horiz-adv-x="694" 
d="M489 0l8 49q56 0 65 53l26 143q9 53 -16.5 86t-75.5 33q-74 0 -124 -45l-56 -319h-75l112 637h-201l11 63h477l-11 -63h-201l-45 -253q64 46 141 46q78 0 115.5 -50.5t23.5 -134.5l-26 -145q-9 -48 -40 -76t-76 -28q-25 0 -32 4z" />
    <glyph glyph-name="afii10052" unicode="&#x403;" horiz-adv-x="466" 
d="M354 737l-31 38l147 125l31 -38zM151 0h-75l123 700h349l-11 -63h-274z" />
    <glyph glyph-name="afii10053" unicode="&#x404;" horiz-adv-x="699" 
d="M546 639q-115 0 -203 -70q-87 -71 -117 -185h415l-11 -63h-415q-13 -116 50 -189q63 -71 179 -71q125 0 219 80l40 -47q-116 -101 -274 -101q-157 0 -238 99q-80 100 -52 258q29 159 144 258t272 99q158 0 238 -101l-57 -48q-64 81 -190 81z" />
    <glyph glyph-name="afii10054" unicode="&#x405;" horiz-adv-x="530" 
d="M564 625l-56 -48q-20 27 -58 44.5t-79 17.5q-61 0 -99 -36t-45 -82q-15 -79 98 -124q52 -20 93 -40q49 -23 75 -64.5t15 -99.5q-15 -83 -81 -141q-67 -59 -169 -59q-131 0 -202 92l55 47q24 -33 65 -52t87 -19q71 0 115 41q45 42 52 89q6 32 -8.5 56t-42 39t-61.5 28.5
t-67 29.5t-59 37t-38.5 56.5t-4.5 81.5q13 78 73 133q58 55 154 55q124 0 188 -82z" />
    <glyph glyph-name="afii10055" unicode="&#x406;" horiz-adv-x="222" 
d="M149 0h-76l123 700h76z" />
    <glyph glyph-name="afii10056" unicode="&#x407;" horiz-adv-x="222" 
d="M149 0h-76l123 700h76zM126 797q3 19 19 33t36 14q19 0 30.5 -13.5t8.5 -33.5q-4 -19 -20 -32.5t-36 -13.5q-19 0 -30 13t-8 33zM283 797q4 20 19.5 33.5t35.5 13.5t31 -13.5t8 -33.5q-4 -20 -20 -33t-36 -13t-31 13.5t-7 32.5z" />
    <glyph glyph-name="afii10057" unicode="&#x408;" horiz-adv-x="453" 
d="M337 190l90 510h75l-90 -510q-15 -88 -79 -143q-65 -54 -152 -54q-88 0 -133 55l58 49q27 -36 84 -36q55 0 95.5 35.5t51.5 93.5z" />
    <glyph glyph-name="afii10058" unicode="&#x409;" horiz-adv-x="942" 
d="M688 0h-199l112 637h-256l-82 -464q-14 -80 -63 -128.5t-115 -48.5q-36 0 -47 4l8 49q55 0 92 31.5t47 88.5l94 531h410l-54 -309h122q91 0 137.5 -53t31.5 -142q-17 -90 -82 -143t-156 -53zM848 196q10 58 -18.5 94t-85.5 36h-121l-45 -260h121q56 0 97 35.5t52 94.5z
" />
    <glyph glyph-name="afii10059" unicode="&#x40a;" horiz-adv-x="937" 
d="M199 700h75l-54 -309h332l55 309h77l-54 -309h121q92 0 138.5 -53t31.5 -142q-17 -90 -82 -143t-156 -53h-199l56 326h-332l-57 -326h-75zM843 196q10 58 -18.5 94t-85.5 36h-121l-46 -260h122q56 0 97 35.5t52 94.5z" />
    <glyph glyph-name="afii10060" unicode="&#x40b;" horiz-adv-x="694" 
d="M629 637h-201l-45 -253q64 46 141 46q78 0 115.5 -50.5t23.5 -134.5l-43 -245h-75l43 245q9 53 -16.5 86t-75.5 33q-74 0 -124 -45l-56 -319h-75l112 637h-201l11 63h477z" />
    <glyph glyph-name="afii10061" unicode="&#x40c;" horiz-adv-x="596" 
d="M149 0h-76l123 700h76zM565 0h-97l-246 359l349 341h95l-349 -341zM403 737l-31 38l147 125l31 -38z" />
    <glyph glyph-name="uni040D" unicode="&#x40d;" horiz-adv-x="706" 
d="M403 862l44 38l103 -125l-44 -38zM175 142l526 558h52l-123 -700h-76l98 558l-525 -558h-51l123 700h75z" />
    <glyph glyph-name="afii10062" unicode="&#x40e;" horiz-adv-x="609" 
d="M446 807q64 0 110 42l31 -38q-68 -59 -150 -59t-130 59l45 38q31 -42 94 -42zM625 700h81l-475 -700h-81l157 220l-158 480h81l129 -393z" />
    <glyph glyph-name="afii10145" unicode="&#x40f;" horiz-adv-x="696" 
d="M286 -150l27 150h-237l123 700h75l-112 -637h393l112 637h76l-123 -700h-237l-27 -150h-70z" />
    <glyph glyph-name="afii10017" unicode="&#x410;" horiz-adv-x="749" 
d="M721 0h-87l-53 202h-343l-123 -202h-87l434 700h72zM565 270l-84 334l-203 -334h287z" />
    <glyph glyph-name="afii10018" unicode="&#x411;" horiz-adv-x="537" 
d="M283 0h-207l123 700h356l-11 -63h-279l-43 -246h130q91 0 137.5 -53t31.5 -142q-17 -90 -82 -143t-156 -53zM443 196q10 58 -18.5 94t-85.5 36h-129l-45 -260h129q56 0 97 35.5t52 94.5z" />
    <glyph glyph-name="afii10019" unicode="&#x412;" horiz-adv-x="545" 
d="M293 0h-217l123 700h191q84 0 127 -49.5t28 -130.5q-18 -106 -108 -151q52 -18 76 -64.5t13 -111.5q-17 -89 -80 -141q-64 -52 -153 -52zM451 198q11 58 -18 94t-86 36h-136l-46 -262h136q57 0 98.5 36t51.5 96zM374 634h-109l-42 -240h109q52 0 89.5 33t47.5 87
t-16.5 87t-78.5 33z" />
    <glyph glyph-name="afii10020" unicode="&#x413;" horiz-adv-x="466" 
d="M151 0h-75l123 700h349l-11 -63h-274z" />
    <glyph glyph-name="afii10021" unicode="&#x414;" horiz-adv-x="680" 
d="M547 -150l27 150h-468l-27 -150h-70l37 211q55 0 92 39.5t50 115.5l86 484h421l-113 -637h73l-38 -213h-70zM340 637l-74 -422q-16 -102 -83 -152h322l101 574h-266z" />
    <glyph glyph-name="afii10022" unicode="&#x415;" horiz-adv-x="498" 
d="M557 637h-294l-44 -253h261l-11 -63h-262l-45 -258h299l-11 -63h-374l123 700h369z" />
    <glyph glyph-name="afii10024" unicode="&#x416;" horiz-adv-x="904" 
d="M489 0h-75l123 700h75zM873 0h-89l-221 359l329 341h87l-329 -341zM258 700l209 -341l-347 -359h-90l349 359l-208 341h87z" />
    <glyph glyph-name="afii10025" unicode="&#x417;" horiz-adv-x="545" 
d="M347 328h-105l12 66h78q55 0 93.5 33.5t48.5 90.5t-17.5 90t-84.5 33q-88 0 -176 -75l-38 47q110 94 231 94q91 0 133.5 -50.5t27.5 -133.5q-20 -111 -113 -154q52 -18 76 -65t13 -112q-17 -92 -86 -145q-70 -54 -172 -54q-134 0 -212 101l57 47q63 -82 161 -82
q71 0 118.5 37.5t58.5 100.5q11 59 -18 95t-86 36z" />
    <glyph glyph-name="afii10026" unicode="&#x418;" horiz-adv-x="706" 
d="M175 142l526 558h52l-123 -700h-76l98 558l-525 -558h-51l123 700h75z" />
    <glyph glyph-name="afii10027" unicode="&#x419;" horiz-adv-x="706" 
d="M494 807q64 0 110 42l32 -38q-70 -59 -151 -59q-82 0 -130 59l45 38q34 -42 94 -42zM175 142l526 558h52l-123 -700h-76l98 558l-525 -558h-51l123 700h75z" />
    <glyph glyph-name="afii10028" unicode="&#x41a;" horiz-adv-x="596" 
d="M149 0h-76l123 700h76zM565 0h-97l-246 359l349 341h95l-349 -341z" />
    <glyph glyph-name="afii10029" unicode="&#x41b;" horiz-adv-x="658" 
d="M38 0l8 49q55 0 92 31.5t47 88.5l94 531h426l-123 -700h-78l112 637h-271l-82 -464q-14 -80 -63 -128.5t-115 -48.5q-36 0 -47 4z" />
    <glyph glyph-name="afii10030" unicode="&#x41c;" horiz-adv-x="809" 
d="M733 0h-75l95 545l-304 -384h-34l-168 384l-96 -545h-75l123 700h57l195 -433l347 433h58z" />
    <glyph glyph-name="afii10031" unicode="&#x41d;" horiz-adv-x="690" 
d="M199 700h75l-55 -316h388l55 316h75l-123 -700h-75l56 321h-388l-56 -321h-75z" />
    <glyph glyph-name="afii10032" unicode="&#x41e;" horiz-adv-x="805" 
d="M139 350q29 159 144 258t272 99t237 -99q80 -100 52 -258q-28 -159 -144 -258q-114 -99 -271 -99t-238 99q-80 100 -52 258zM766 350q23 129 -39 209t-184 80q-121 0 -213 -80q-90 -78 -113 -209q-22 -128 40 -209q62 -80 184 -80q121 0 212 80q90 78 113 209z" />
    <glyph glyph-name="afii10033" unicode="&#x41f;" horiz-adv-x="661" 
d="M76 0l123 700h509l-123 -700h-75l111 637h-358l-112 -637h-75z" />
    <glyph glyph-name="afii10034" unicode="&#x420;" horiz-adv-x="519" 
d="M154 0h-78l123 700h189q92 0 138 -54q47 -54 31 -142q-17 -90 -81 -142q-65 -53 -157 -53h-111zM480 504q10 59 -18.5 94.5t-85.5 35.5h-111l-46 -260h111q57 0 98.5 36t51.5 94z" />
    <glyph glyph-name="afii10035" unicode="&#x421;" horiz-adv-x="699" 
d="M444 61q125 0 219 80l40 -47q-116 -101 -274 -101q-157 0 -238 99q-80 100 -52 258q29 159 144 258t272 99q158 0 238 -101l-57 -48q-64 81 -190 81q-123 0 -215 -80q-91 -79 -114 -209q-22 -128 40 -209q63 -80 187 -80z" />
    <glyph glyph-name="afii10036" unicode="&#x422;" horiz-adv-x="557" 
d="M629 637h-201l-112 -637h-75l112 637h-201l11 63h477z" />
    <glyph glyph-name="afii10037" unicode="&#x423;" horiz-adv-x="609" 
d="M625 700h81l-475 -700h-81l157 220l-158 480h81l129 -393z" />
    <glyph glyph-name="afii10038" unicode="&#x424;" horiz-adv-x="769" 
d="M444 0h-75l11 68q-132 0 -201 78q-68 80 -46 204q22 126 119 204q96 78 228 78l12 68h75l-12 -68q134 0 201 -79q68 -78 45 -203t-118 -204q-95 -78 -228 -78zM543 564l-76 -428q98 0 169 59q72 59 88 155q17 96 -33 155t-148 59zM392 136l76 428q-98 0 -170 -60
q-70 -58 -87 -154q-17 -95 33 -155q51 -59 148 -59z" />
    <glyph glyph-name="afii10039" unicode="&#x425;" horiz-adv-x="721" 
d="M690 0h-97l-180 303l-286 -303h-96l336 354l-206 346h97l173 -294l277 294h97l-329 -346z" />
    <glyph glyph-name="afii10040" unicode="&#x426;" horiz-adv-x="725" 
d="M592 -150l27 150h-543l123 700h75l-112 -637h393l112 637h76l-113 -637h70l-37 -213h-71z" />
    <glyph glyph-name="afii10041" unicode="&#x427;" horiz-adv-x="578" 
d="M643 700l-123 -700h-73l55 315q-63 -19 -153 -19q-99 0 -141.5 55t-24.5 158l34 191h73l-34 -189q-27 -154 119 -154q81 0 138 19l57 324h73z" />
    <glyph glyph-name="afii10042" unicode="&#x428;" horiz-adv-x="1014" 
d="M1061 700l-123 -700h-862l123 700h75l-112 -637h318l112 637h76l-113 -637h318l113 637h75z" />
    <glyph glyph-name="afii10043" unicode="&#x429;" horiz-adv-x="1044" 
d="M911 -150l27 150h-862l123 700h75l-112 -637h318l112 637h76l-113 -637h318l113 637h75l-112 -637h70l-38 -213h-70z" />
    <glyph glyph-name="afii10044" unicode="&#x42a;" horiz-adv-x="649" 
d="M307 637h-155l11 63h233l-54 -309h121q92 0 138.5 -53t31.5 -142q-17 -90 -82 -143t-156 -53h-199zM555 196q10 58 -18.5 94t-85.5 36h-121l-46 -260h122q56 0 97 35.5t52 94.5z" />
    <glyph glyph-name="afii10045" unicode="&#x42b;" horiz-adv-x="731" 
d="M275 0h-199l123 700h78l-55 -309h122q91 0 137.5 -53t31.5 -142q-17 -90 -82 -143t-156 -53zM435 196q10 58 -18.5 94t-84.5 36h-122l-45 -260h121q57 0 97.5 35.5t51.5 94.5zM655 0h-75l123 700h75z" />
    <glyph glyph-name="afii10046" unicode="&#x42c;" horiz-adv-x="529" 
d="M275 0h-199l123 700h78l-55 -309h122q91 0 137.5 -53t31.5 -142q-17 -90 -82 -143t-156 -53zM435 196q10 58 -18.5 94t-84.5 36h-122l-45 -260h121q57 0 97.5 35.5t51.5 94.5z" />
    <glyph glyph-name="afii10047" unicode="&#x42d;" horiz-adv-x="699" 
d="M187 558l-40 48q116 101 274 101q157 0 237 -99q80 -100 52 -258q-28 -159 -144 -258q-114 -99 -271 -99q-159 0 -239 101l57 47q65 -80 191 -80q115 0 204 71q88 72 117 189h-352l11 63h352q10 115 -52 185q-63 70 -178 70q-128 0 -219 -81z" />
    <glyph glyph-name="afii10048" unicode="&#x42e;" horiz-adv-x="1029" 
d="M199 700h75l-55 -316h185q36 146 139 234q104 89 239 89q144 0 214 -99q72 -100 44 -258q-28 -159 -135 -258t-249 -99q-137 0 -209 90q-70 90 -54 238h-186l-56 -321h-75zM667 61q108 0 191 80q81 78 104 209q23 130 -31 209q-53 80 -162 80q-108 0 -191 -80
q-81 -78 -104 -209q-22 -128 31 -209q54 -80 162 -80z" />
    <glyph glyph-name="afii10049" unicode="&#x42f;" horiz-adv-x="544" 
d="M377 700h214l-123 -700h-77l54 309h-107l-216 -309h-86l227 313q-72 12 -105 63t-19 128q15 90 81 142q66 54 157 54zM319 374h137l46 260h-137q-56 0 -97 -36t-51 -94t18 -94t84 -36z" />
    <glyph glyph-name="afii10065" unicode="&#x430;" horiz-adv-x="539" 
d="M377 457q123 0 174 -73l-67 -384h-73l6 36q-61 -43 -139 -43q-97 0 -146 64q-48 65 -30 168q20 104 94 168q76 64 181 64zM429 101l44 256q-38 35 -109 35q-69 0 -122 -47q-50 -46 -64 -120q-13 -73 22 -121q36 -46 107 -46q72 0 122 43z" />
    <glyph glyph-name="afii10066" unicode="&#x431;" horiz-adv-x="565" 
d="M570 755l33 -41q-39 -36 -83 -60q-34 -19 -87 -38t-71 -27q-37 -17 -69 -41q-68 -53 -97 -190h5q71 99 181 99q92 0 145 -65q52 -64 34 -169q-18 -103 -94 -167q-77 -63 -187 -63q-49 0 -84.5 13.5t-62.5 49t-31 96t10 153.5q16 96 50 168q34 70 73 104q39 35 87 60
q52 27 90 37q108 31 158 81zM180 224q-13 -75 18 -120.5t100 -45.5q71 0 123 46t66 122q13 73 -23 120q-36 46 -106 46q-69 0 -116.5 -45t-61.5 -123z" />
    <glyph glyph-name="afii10067" unicode="&#x432;" horiz-adv-x="442" 
d="M255 0h-182l79 450h166q59 0 87 -31t19 -83q-11 -66 -71 -98q36 -13 52 -43t8 -71q-10 -57 -52.5 -90.5t-105.5 -33.5zM280 208h-98l-27 -152h98q34 0 58.5 21t30.5 55t-11.5 55t-50.5 21zM215 394l-23 -135h82q29 0 51 19t27 49q5 29 -10.5 48t-44.5 19h-82z" />
    <glyph glyph-name="afii10068" unicode="&#x433;" horiz-adv-x="368" 
d="M395 392h-181l-68 -392h-73l79 450h254z" />
    <glyph glyph-name="afii10069" unicode="&#x434;" horiz-adv-x="534" 
d="M445 58h60l-32 -178h-68l22 120h-322l-22 -120h-68l31 178q38 0 68.5 28.5t37.5 71.5l52 292h310zM266 392l-40 -228q-12 -66 -61 -106h207l59 334h-165z" />
    <glyph glyph-name="afii10070" unicode="&#x435;" horiz-adv-x="508" 
d="M520 206h-343q-7 -67 29 -107.5t105 -40.5q75 0 128 47l36 -45q-74 -67 -180 -67q-105 0 -157 64q-53 66 -34 170q18 101 89 166q70 64 167 64q96 0 138 -66.5t22 -184.5zM350 393q-57 0 -101.5 -36.5t-61.5 -98.5h269q5 62 -23 98.5t-83 36.5z" />
    <glyph glyph-name="afii10072" unicode="&#x436;" horiz-adv-x="664" 
d="M633 0h-84l-140 235l-41 -235h-72l41 235l-223 -235h-83l226 237l-131 213h84l128 -212l37 212h72l-37 -211l202 211h84l-206 -213z" />
    <glyph glyph-name="afii10073" unicode="&#x437;" horiz-adv-x="408" 
d="M270 457q66 0 100 -32.5t24 -86.5q-14 -72 -75 -102q75 -26 60 -116q-10 -58 -59 -92.5t-125 -34.5q-95 0 -150 67l49 41q38 -48 104 -48q45 0 74.5 21.5t35.5 57.5q6 34 -11 54t-52 20h-69l9 51h52q31 0 54.5 20t29.5 50q5 29 -13 49.5t-55 20.5q-57 0 -107 -44l-34 42
q73 62 158 62z" />
    <glyph glyph-name="afii10074" unicode="&#x438;" horiz-adv-x="533" 
d="M152 450h73l-58 -333l313 333h59l-79 -450h-73l58 333l-313 -333h-59z" />
    <glyph glyph-name="afii10075" unicode="&#x439;" horiz-adv-x="533" 
d="M478 624l31 -38q-68 -59 -151 -59q-82 0 -129 60l44 38q34 -43 96 -43q61 0 109 42zM152 450h73l-58 -333l313 333h59l-79 -450h-73l58 333l-313 -333h-59z" />
    <glyph glyph-name="afii10076" unicode="&#x43a;" horiz-adv-x="465" 
d="M186 231l-40 -231h-73l79 450h73l-37 -208l222 208h87l-228 -213l166 -237h-87z" />
    <glyph glyph-name="afii10077" unicode="&#x43b;" horiz-adv-x="500" 
d="M38 0l8 49q39 0 65 22t33 63l56 316h305l-79 -450h-72l68 392h-160l-46 -261q-11 -63 -48.5 -99t-91.5 -36q-30 0 -38 4z" />
    <glyph glyph-name="afii10078" unicode="&#x43c;" horiz-adv-x="599" 
d="M141 0h-68l79 450h70l109 -271l204 271h70l-79 -450h-68l58 335l-180 -245h-42l-94 245z" />
    <glyph glyph-name="afii10079" unicode="&#x43d;" horiz-adv-x="528" 
d="M152 450h73l-34 -193h235l35 193h72l-79 -450h-72l34 198h-236l-34 -198h-73z" />
    <glyph glyph-name="afii10080" unicode="&#x43e;" horiz-adv-x="555" 
d="M102 225q20 105 95 168q76 64 179 64q104 0 156 -64q53 -65 35 -168q-20 -105 -95 -168q-74 -64 -178 -64q-105 0 -157 64q-53 65 -35 168zM492 225q13 73 -23 120q-35 47 -105 47q-69 0 -122 -47q-50 -46 -64 -120q-13 -74 22 -120.5t105 -46.5q71 0 121 46
q52 46 66 121z" />
    <glyph glyph-name="afii10081" unicode="&#x43f;" horiz-adv-x="515" 
d="M442 0h-73l68 392h-223l-68 -392h-73l79 450h369z" />
    <glyph glyph-name="afii10082" unicode="&#x440;" horiz-adv-x="541" 
d="M28 -250l124 700h73l-7 -38q64 45 142 45q97 0 145 -64q48 -65 30 -168q-19 -103 -93 -168q-73 -64 -175 -64q-72 0 -117 33l-49 -276h-73zM330 392q-74 0 -124 -46l-43 -245q34 -43 108 -43q71 0 123 46q51 45 65 121q13 75 -22.5 121t-106.5 46z" />
    <glyph glyph-name="afii10083" unicode="&#x441;" horiz-adv-x="478" 
d="M307 58q73 0 126 47l37 -45q-74 -67 -178 -67t-156 64t-34 168q20 104 94 168t178 64q101 0 154 -68l-53 -45q-35 48 -109 48q-70 0 -123 -47q-51 -45 -65 -120q-13 -75 22.5 -121t106.5 -46z" />
    <glyph glyph-name="afii10084" unicode="&#x442;" horiz-adv-x="434" 
d="M463 392h-141l-68 -392h-73l68 392h-140l10 58h354z" />
    <glyph glyph-name="afii10085" unicode="&#x443;" horiz-adv-x="529" 
d="M501 450h81l-445 -700h-81l174 250l-125 450h81l94 -363z" />
    <glyph glyph-name="afii10086" unicode="&#x444;" horiz-adv-x="678" 
d="M418 -5q-7 0 -25 2l-44 -247h-73l44 247q-24 -2 -25 -2q-104 0 -158 63q-53 65 -35 167q19 103 94 166q76 64 180 64q2 0 24 -2l53 297h73l-53 -297q22 2 26 2q104 0 156 -64q53 -63 35 -166q-18 -102 -93 -167q-75 -63 -179 -63zM487 392q-7 0 -25 -2l-59 -330
q22 -2 25 -2q70 0 122 46q51 45 65 121q13 73 -23 120q-35 47 -105 47zM305 58q3 0 25 2l59 330q-22 2 -25 2q-69 0 -122 -47q-50 -46 -64 -120q-13 -74 22 -120.5t105 -46.5z" />
    <glyph glyph-name="afii10087" unicode="&#x445;" horiz-adv-x="513" 
d="M482 0h-85l-109 183l-173 -183h-84l218 229l-132 221h85l102 -173l165 173h85l-211 -221z" />
    <glyph glyph-name="afii10088" unicode="&#x446;" horiz-adv-x="535" 
d="M429 0h-356l79 450h73l-69 -392h223l69 392h73l-69 -392h54l-31 -178h-68z" />
    <glyph glyph-name="afii10089" unicode="&#x447;" horiz-adv-x="475" 
d="M494 450l-79 -450h-73l33 188q-51 -17 -107 -17q-74 0 -107 41.5t-20 113.5l22 124h73l-22 -121q-7 -44 13.5 -71t67.5 -27q54 0 91 20l35 199h73z" />
    <glyph glyph-name="afii10090" unicode="&#x448;" horiz-adv-x="710" 
d="M401 58h173l69 392h73l-79 -450h-564l79 450h73l-69 -392h172l70 392h72z" />
    <glyph glyph-name="afii10091" unicode="&#x449;" horiz-adv-x="730" 
d="M623 0h-550l79 450h73l-69 -392h172l70 392h72l-69 -392h173l69 392h73l-70 -392h55l-32 -178h-68z" />
    <glyph glyph-name="afii10092" unicode="&#x44a;" horiz-adv-x="512" 
d="M323 0h-162l68 392h-120l10 58h193l-33 -190h90q66 0 98.5 -36t21.5 -94q-10 -58 -55 -94t-111 -36zM356 204h-87l-26 -148h87q32 0 56.5 20.5t29.5 53.5q6 32 -11 53t-49 21z" />
    <glyph glyph-name="afii10093" unicode="&#x44b;" horiz-adv-x="599" 
d="M236 0h-163l79 450h73l-33 -190h89q66 0 98.5 -36t22.5 -94t-55 -94t-111 -36zM269 204h-88l-26 -148h88q32 0 56.5 20.5t29.5 53.5q6 32 -11 53t-49 21zM526 0h-73l79 450h73z" />
    <glyph glyph-name="afii10094" unicode="&#x44c;" horiz-adv-x="425" 
d="M236 0h-163l79 450h73l-33 -190h89q66 0 98.5 -36t22.5 -94t-55 -94t-111 -36zM269 204h-88l-26 -148h88q32 0 56.5 20.5t29.5 53.5q6 32 -11 53t-49 21z" />
    <glyph glyph-name="afii10095" unicode="&#x44d;" horiz-adv-x="478" 
d="M390 201h-202l10 53h201q3 62 -33 100t-99 38q-75 0 -125 -47l-38 45q74 67 179 67q103 0 155 -64t34 -168q-20 -104 -94 -168q-73 -64 -177 -64q-103 0 -155 67l53 46q35 -48 109 -48q64 0 114 39t68 104z" />
    <glyph glyph-name="afii10096" unicode="&#x44e;" horiz-adv-x="747" 
d="M152 450h73l-34 -193h113q25 89 95 145q70 55 161 55q100 0 149 -64q50 -65 32 -168q-20 -105 -92 -168q-71 -64 -171 -64q-93 0 -143 56t-42 149h-113l-34 -198h-73zM372 225q-13 -74 19.5 -120.5t97.5 -46.5q67 0 114 46q49 46 63 121q13 74 -20 120.5t-98 46.5
q-64 0 -114 -47q-49 -47 -62 -120z" />
    <glyph glyph-name="afii10097" unicode="&#x44f;" horiz-adv-x="463" 
d="M291 450h177l-79 -450h-73l33 185h-82l-135 -185h-77l145 190q-47 11 -67.5 45t-11.5 82q10 60 55.5 96.5t114.5 36.5zM256 241h102l27 153h-102q-34 0 -58.5 -21t-30.5 -55t11 -55.5t51 -21.5z" />
    <glyph glyph-name="uni0450" unicode="&#x450;" horiz-adv-x="508" 
d="M520 206h-343q-7 -67 29 -107.5t105 -40.5q75 0 128 47l36 -45q-74 -67 -180 -67q-105 0 -157 64q-53 66 -34 170q18 101 89 166q70 64 167 64q96 0 138 -66.5t22 -184.5zM350 393q-57 0 -101.5 -36.5t-61.5 -98.5h269q5 62 -23 98.5t-83 36.5zM290 637l45 38l103 -125
l-44 -38z" />
    <glyph glyph-name="afii10071" unicode="&#x451;" horiz-adv-x="508" 
d="M520 206h-343q-7 -67 29 -107.5t105 -40.5q75 0 128 47l36 -45q-74 -67 -180 -67q-105 0 -157 64q-53 66 -34 170q18 101 89 166q70 64 167 64q96 0 138 -66.5t22 -184.5zM350 393q-57 0 -101.5 -36.5t-61.5 -98.5h269q5 62 -23 98.5t-83 36.5zM236 552q4 20 20.5 33.5
t35.5 13.5t30 -13.5t7 -33.5q-3 -19 -18.5 -32.5t-35.5 -13.5t-31 13.5t-8 32.5zM423 552q4 20 20 33.5t36 13.5t31 -13.5t7 -33.5q-3 -19 -19 -32.5t-36 -13.5t-31 13.5t-8 32.5z" />
    <glyph glyph-name="afii10099" unicode="&#x452;" horiz-adv-x="538" 
d="M288 -250l9 49q56 0 65 53l75 421q9 53 -16.5 86t-76.5 33q-72 0 -123 -45l-60 -347h-73l104 592h-58l10 58h58l18 100h73l-18 -100h173l-10 -58h-174l-31 -180q65 45 140 45q77 0 114 -50.5t22 -133.5l-74 -423q-9 -48 -40 -76t-74 -28q-25 0 -33 4z" />
    <glyph glyph-name="afii10100" unicode="&#x453;" horiz-adv-x="368" 
d="M265 512l-31 38l147 125l31 -38zM395 392h-181l-68 -392h-73l79 450h254z" />
    <glyph glyph-name="afii10101" unicode="&#x454;" horiz-adv-x="478" 
d="M366 392q-63 0 -112 -37.5t-69 -100.5h232l-9 -53h-233q-5 -65 31.5 -104t100.5 -39q73 0 126 47l37 -45q-74 -67 -178 -67t-156 64t-34 168q20 104 94 168t178 64q101 0 154 -68l-53 -45q-35 48 -109 48z" />
    <glyph glyph-name="afii10102" unicode="&#x455;" horiz-adv-x="384" 
d="M395 404l-53 -45q-28 36 -80 36q-32 0 -54 -19.5t-25 -45.5q-9 -44 61 -73q29 -11 45 -18.5t37.5 -22.5t29 -37t2.5 -51q-9 -54 -56 -95q-46 -40 -117 -40q-91 0 -137 60l53 45q32 -44 90 -44q39 0 63.5 21.5t30.5 51.5q4 25 -15 42t-48 28t-57.5 25t-45.5 41t-10 66
q10 55 52.5 91.5t106.5 36.5q85 0 127 -53z" />
    <glyph glyph-name="afii10103" unicode="&#x456;" 
d="M146 0h-73l79 450h73zM164 585q3 20 20 34.5t37 14.5q21 0 32.5 -14t8.5 -35q-5 -21 -21.5 -35t-37.5 -14q-20 0 -31.5 14.5t-7.5 34.5z" />
    <glyph glyph-name="afii10104" unicode="&#x457;" 
d="M146 0h-73l79 450h73zM85 560q4 19 19.5 32.5t35.5 13.5t31 -13.5t7 -32.5q-3 -20 -19 -33.5t-35 -13.5t-30.5 13.5t-8.5 33.5zM237 560q4 20 20 33.5t35 13.5q20 0 31 -13.5t7 -33.5q-3 -20 -19 -33.5t-36 -13.5t-31 14t-7 33z" />
    <glyph glyph-name="afii10105" unicode="&#x458;" 
d="M164 585q3 20 20 34.5t37 14.5q21 0 32.5 -14t8.5 -35q-5 -21 -21.5 -35t-37.5 -14q-20 0 -31.5 14.5t-7.5 34.5zM-26 -250l9 49q53 0 64 53l105 598h73l-106 -600q-8 -48 -39 -76t-75 -28q-23 0 -31 4z" />
    <glyph glyph-name="afii10106" unicode="&#x459;" horiz-adv-x="700" 
d="M516 0h-162l68 392h-160l-46 -261q-11 -63 -48.5 -99t-91.5 -36q-30 0 -38 4l8 49q39 0 65 22t33 63l56 316h305l-33 -190h90q66 0 98.5 -36t21.5 -94q-10 -58 -55 -94t-111 -36zM549 204h-87l-26 -148h87q32 0 56.5 20.5t29.5 53.5q6 32 -11 53t-49 21z" />
    <glyph glyph-name="afii10107" unicode="&#x45a;" horiz-adv-x="728" 
d="M152 450h73l-34 -193h230l34 193h73l-34 -193h96q65 0 96 -35.5t21 -93.5q-11 -59 -54 -93.5t-108 -34.5h-169l35 198h-231l-34 -198h-73zM577 198h-94l-25 -142h94q31 0 54 19.5t28 51.5q6 33 -10 52t-47 19z" />
    <glyph glyph-name="afii10108" unicode="&#x45b;" horiz-adv-x="538" 
d="M192 592h-58l10 58h58l18 100h73l-18 -100h173l-10 -58h-174l-31 -180q65 45 140 45q77 0 114 -50.5t22 -133.5l-47 -273h-73l48 273q9 53 -16.5 86t-76.5 33q-72 0 -123 -45l-60 -347h-73z" />
    <glyph glyph-name="afii10109" unicode="&#x45c;" horiz-adv-x="465" 
d="M186 231l-40 -231h-73l79 450h73l-37 -208l222 208h87l-228 -213l166 -237h-87zM299 512l-32 38l148 125l31 -38z" />
    <glyph glyph-name="uni045D" unicode="&#x45d;" horiz-adv-x="533" 
d="M276 637l45 38l103 -125l-44 -38zM152 450h73l-58 -333l313 333h59l-79 -450h-73l58 333l-313 -333h-59z" />
    <glyph glyph-name="afii10110" unicode="&#x45e;" horiz-adv-x="529" 
d="M501 450h81l-445 -700h-81l174 250l-125 450h81l94 -363zM476 624l31 -38q-65 -59 -150 -59q-81 0 -130 60l45 38q33 -43 95 -43q63 0 109 42z" />
    <glyph glyph-name="afii10193" unicode="&#x45f;" horiz-adv-x="515" 
d="M270 -120h-68l22 120h-151l79 450h73l-69 -392h223l69 392h73l-79 -450h-150z" />
    <glyph glyph-name="afii10050" unicode="&#x490;" horiz-adv-x="464" 
d="M522 637h-259l-112 -637h-75l123 700h276l22 125h58z" />
    <glyph glyph-name="afii10098" unicode="&#x491;" horiz-adv-x="365" 
d="M385 392h-171l-68 -392h-73l79 450h186l17 100h58z" />
    <glyph glyph-name="uni04D8" unicode="&#x4d8;" horiz-adv-x="746" 
d="M784 350q-28 -159 -135 -258t-250 -99q-144 0 -216 99q-72 100 -44 258l6 29h565q11 118 -52 188q-62 72 -178 72q-129 0 -219 -81l-40 48q116 101 274 101q157 0 237 -99q81 -98 52 -258zM698 316h-484q-13 -114 41 -185q54 -70 156 -70q103 0 180 70q79 71 107 185z
" />
    <glyph glyph-name="afii10846" unicode="&#x4d9;" horiz-adv-x="508" 
d="M108 244h343q7 67 -29 107.5t-105 40.5q-75 0 -128 -47l-37 45q76 67 182 67q103 0 156 -65t34 -169q-18 -101 -89 -166q-70 -64 -166 -64t-138.5 67t-22.5 184zM278 57q57 0 101.5 36.5t62.5 98.5h-270q-5 -63 22.5 -99t83.5 -36z" />
    <glyph glyph-name="Wgrave" unicode="&#x1e80;" horiz-adv-x="1133" 
d="M1141 700h87l-386 -700h-76l-99 571l-300 -571h-76l-140 700h87l110 -584l302 584h79l95 -584zM616 862l45 38l103 -125l-44 -38z" />
    <glyph glyph-name="wgrave" unicode="&#x1e81;" horiz-adv-x="792" 
d="M762 450h83l-253 -450h-76l-59 348l-181 -348h-76l-95 450h83l65 -362l185 362h74l57 -362zM406 637l45 38l103 -125l-44 -38z" />
    <glyph glyph-name="Wacute" unicode="&#x1e82;" horiz-adv-x="1133" 
d="M1141 700h87l-386 -700h-76l-99 571l-300 -571h-76l-140 700h87l110 -584l302 584h79l95 -584zM672 737l-31 38l147 125l31 -38z" />
    <glyph glyph-name="wacute" unicode="&#x1e83;" horiz-adv-x="792" 
d="M762 450h83l-253 -450h-76l-59 348l-181 -348h-76l-95 450h83l65 -362l185 362h74l57 -362zM463 512l-32 38l148 125l30 -38z" />
    <glyph glyph-name="Wdieresis" unicode="&#x1e84;" horiz-adv-x="1133" 
d="M1141 700h87l-386 -700h-76l-99 571l-300 -571h-76l-140 700h87l110 -584l302 584h79l95 -584zM566 797q3 19 19 33t36 14q19 0 30 -13.5t9 -33.5q-4 -19 -20 -32.5t-36 -13.5t-31 13.5t-7 32.5zM754 797q5 30 36 43t49 -10q19 -22 0.5 -50.5t-48.5 -28.5q-19 0 -30 13
t-7 33z" />
    <glyph glyph-name="wdieresis" unicode="&#x1e85;" horiz-adv-x="792" 
d="M762 450h83l-253 -450h-76l-59 348l-181 -348h-76l-95 450h83l65 -362l185 362h74l57 -362zM449 573q-4 -20 -20 -33.5t-35 -13.5q-31 0 -37 29.5t18 49.5q26 22 53 10t21 -42zM543 573q4 20 20 33.5t35 13.5q20 0 31 -13.5t8 -33.5q-4 -20 -20 -33.5t-35 -13.5
q-20 0 -31.5 14t-7.5 33z" />
    <glyph glyph-name="Ygrave" unicode="&#x1ef2;" horiz-adv-x="667" 
d="M371 0h-76l53 302l-197 398h88l160 -323l275 323h87l-338 -399zM383 862l45 38l103 -125l-45 -38z" />
    <glyph glyph-name="ygrave" unicode="&#x1ef3;" horiz-adv-x="529" 
d="M501 450h81l-445 -700h-81l174 250l-125 450h81l94 -363zM274 637l46 38l103 -125l-45 -38z" />
    <glyph glyph-name="figuredash" unicode="&#x2012;" horiz-adv-x="500" 
d="M495 321h-379l11 58h379z" />
    <glyph glyph-name="endash" unicode="&#x2013;" horiz-adv-x="500" 
d="M480 236h-378l10 58h379z" />
    <glyph glyph-name="emdash" unicode="&#x2014;" horiz-adv-x="700" 
d="M680 236h-578l10 58h579z" />
    <glyph glyph-name="quoteleft" unicode="&#x2018;" 
d="M269 707l22 -26q-48 -39 -60 -73q17 -2 26.5 -15.5t6.5 -32.5q-4 -20 -21 -34.5t-38 -14.5t-32.5 15t-5.5 42q12 62 102 139z" />
    <glyph glyph-name="quoteright" unicode="&#x2019;" 
d="M171 511l-21 26q44 39 59 73q-17 3 -26.5 16.5t-6.5 31.5q4 21 21 35t38 14q22 0 33 -14.5t5 -42.5q-11 -63 -102 -139z" />
    <glyph glyph-name="quotesinglbase" unicode="&#x201a;" 
d="M63 -105l-22 26q47 41 60 73q-17 2 -26.5 15.5t-6.5 32.5q4 33 38.5 45t52.5 -12q11 -15 6 -41q-12 -62 -102 -139z" />
    <glyph glyph-name="quotedblleft" unicode="&#x201c;" horiz-adv-x="353" 
d="M406 731l21 -26q-49 -41 -59 -73q17 -2 26.5 -15.5t6.5 -32.5q-4 -20 -21 -34.5t-38 -14.5t-32.5 15t-5.5 42q11 63 102 139zM272 731l21 -26q-45 -38 -59 -73q17 -2 26.5 -15.5t6.5 -32.5q-4 -20 -20.5 -34.5t-37.5 -14.5q-22 0 -33 14.5t-6 42.5q10 61 102 139z" />
    <glyph glyph-name="quotedblright" unicode="&#x201d;" horiz-adv-x="353" 
d="M175 535l-21 26q47 41 59 73q-17 3 -26.5 16.5t-6.5 31.5q5 21 21.5 35t37.5 14q22 0 33 -14.5t5 -42.5q-11 -63 -102 -139zM309 535l-22 26q47 41 60 73q-17 3 -26.5 16.5t-6.5 31.5q4 21 21 35t38 14t32 -14.5t6 -42.5q-11 -63 -102 -139z" />
    <glyph glyph-name="quotedblbase" unicode="&#x201e;" horiz-adv-x="353" 
d="M63 -105l-22 26q47 41 60 73q-17 2 -26.5 15.5t-6.5 32.5q4 33 38.5 45t52.5 -12q11 -15 6 -41q-12 -62 -102 -139zM196 -105l-21 26q49 41 59 73q-17 2 -26.5 16t-6.5 32q4 20 20.5 34.5t37.5 14.5t32.5 -15t6.5 -42q-12 -62 -102 -139z" />
    <glyph glyph-name="dagger" unicode="&#x2020;" horiz-adv-x="500" 
d="M282 392h-153l11 58h153l53 300h72l-53 -300h153l-11 -58h-152l-114 -642h-72z" />
    <glyph glyph-name="daggerdbl" unicode="&#x2021;" horiz-adv-x="500" 
d="M225 66h-153l10 58h153l47 268h-153l11 58h153l53 300h72l-53 -300h153l-11 -58h-152l-47 -268h153l-11 -58h-152l-57 -316h-72z" />
    <glyph glyph-name="bullet" unicode="&#x2022;" horiz-adv-x="259" 
d="M123 224q-17 21 -12 51t29 50q25 21 55 21t47 -21q17 -20 12 -50t-30 -51q-24 -20 -54 -20t-47 20z" />
    <glyph glyph-name="ellipsis" unicode="&#x2026;" horiz-adv-x="659" 
d="M72 42q3 20 20 34.5t37 14.5t32 -14.5t9 -34.5q-4 -21 -20.5 -35t-37.5 -14q-20 0 -32 14t-8 35zM291 42q4 20 20.5 34.5t37.5 14.5q20 0 32 -14.5t8 -34.5q-3 -21 -19.5 -35t-37.5 -14t-32.5 14t-8.5 35zM511 42q3 20 20 34.5t37 14.5q21 0 32.5 -14t8.5 -35
q-4 -21 -20.5 -35t-36.5 -14q-21 0 -33 14t-8 35z" />
    <glyph glyph-name="perthousand" unicode="&#x2030;" horiz-adv-x="1247" 
d="M294 0h-74l491 700h74zM147 538q14 76 69 122q56 47 131 47q76 0 114 -46.5t25 -122.5q-14 -76 -69 -123q-55 -46 -130 -46q-76 0 -114.5 46.5t-25.5 122.5zM420 538q9 50 -14 81.5t-69 31.5t-80.5 -31.5t-43.5 -81.5t14.5 -81.5t69.5 -31.5t80.5 31.5t42.5 81.5z
M716 331q76 0 114.5 -46.5t25.5 -122.5q-14 -76 -69 -123q-53 -46 -130 -46q-76 0 -115 46q-38 48 -25 123q13 76 68 122q56 47 131 47zM626 243q-34 -31 -43 -81t14 -82q22 -31 69 -31q46 0 80 31q35 32 44 82q9 49 -14 81t-69 32t-81 -32zM1108 331q76 0 114 -46.5
t25 -122.5q-14 -77 -68 -123q-55 -46 -130 -46q-76 0 -114.5 46.5t-25.5 122.5t68 122q56 47 131 47zM1018 243q-34 -31 -43 -81t14 -82q22 -31 69 -31q46 0 80 31q35 32 44 82t-15 81q-23 32 -69 32q-45 0 -80 -32z" />
    <glyph glyph-name="guilsinglleft" unicode="&#x2039;" horiz-adv-x="300" 
d="M265 117l-45 -38l-140 171l200 171l31 -38l-155 -133z" />
    <glyph glyph-name="guilsinglright" unicode="&#x203a;" horiz-adv-x="300" 
d="M163 421l141 -171l-202 -171l-31 38l157 133l-111 133z" />
    <glyph glyph-name="fraction" unicode="&#x2044;" horiz-adv-x="530" 
d="M109 0h-56l491 700h56z" />
    <glyph glyph-name="Euro" unicode="&#x20ac;" horiz-adv-x="747" 
d="M169 396h-59l7 44h67q48 122 153 194q104 73 238 73q158 0 238 -101l-57 -48q-64 81 -190 81q-100 0 -181 -54q-81 -55 -121 -145h268l-7 -44h-277q-7 -25 -11 -46q-5 -24 -6 -46h277l-7 -44h-269q8 -92 70 -145.5t162 -53.5q126 0 218 80l41 -47q-118 -101 -274 -101
q-133 0 -213 72q-80 73 -84 195h-66l8 44h59q1 22 6 46q1 12 10 46z" />
    <glyph glyph-name="uni20B4" unicode="&#x20b4;" horiz-adv-x="427" 
d="M287 390h-162l7 44h207l17 14q27 23 40.5 42.5t18.5 48.5q8 45 -17.5 73.5t-73.5 28.5q-68 0 -116 -48l-38 47q70 67 166 67q82 0 124 -46q42 -47 29 -120q-11 -58 -59 -107h43l-7 -44h-84l-92 -78h161l-7 -44h-205l-19 -16q-27 -23 -40.5 -42.5t-18.5 -48.5
q-8 -45 17.5 -73.5t72.5 -28.5q68 0 116 48l39 -47q-70 -67 -166 -67q-82 0 -125 46q-42 47 -29 120q10 56 60 109h-43l7 44h85z" />
    <glyph glyph-name="afii61352" unicode="&#x2116;" horiz-adv-x="995" 
d="M76 0l123 700h51l336 -558l99 558h75l-123 -700h-51l-337 558l-98 -558h-75zM829 483q-29 37 -19 93q11 58 52 92q42 36 99 36t86 -36q30 -35 20 -92q-11 -58 -52 -93q-43 -35 -99 -35q-57 0 -87 35zM858 576q-7 -39 11 -62.5t54 -23.5t62.5 23.5t33.5 62.5
q7 38 -11.5 62t-54.5 24q-35 0 -61.5 -24t-33.5 -62z" />
    <glyph glyph-name="trademark" unicode="&#x2122;" horiz-adv-x="684" 
d="M381 662h-97l-56 -312h-46l56 312h-98l7 38h240zM706 350h-46l45 257l-143 -180h-18l-80 180l-46 -257h-45l62 350h34l95 -207l169 207h35z" />
    <glyph glyph-name="arrowleft" unicode="&#x2190;" horiz-adv-x="996" 
d="M454 45l-48 -49l-354 354l354 354l47 -48l-272 -272h738v-68h-738z" />
    <glyph glyph-name="arrowup" unicode="&#x2191;" horiz-adv-x="811" 
d="M440 -162h-68v737l-272 -273l-48 48l354 354l353 -354l-48 -47l-271 272v-737z" />
    <glyph glyph-name="arrowright" unicode="&#x2192;" horiz-adv-x="996" 
d="M814 316h-737v68h737l-272 272l48 48l354 -354l-354 -354l-48 49z" />
    <glyph glyph-name="arrowdown" unicode="&#x2193;" horiz-adv-x="811" 
d="M759 187l-353 -354l-354 354l48 48l272 -272v737h68v-737l271 272z" />
    <glyph glyph-name="uni2196" unicode="&#x2196;" horiz-adv-x="766" 
d="M145 132h-68v500h500v-68h-384l521 -521l-48 -48l-521 522v-385z" />
    <glyph glyph-name="uni2197" unicode="&#x2197;" horiz-adv-x="766" 
d="M574 564h-385v68h500v-500h-68v385l-521 -522l-48 48z" />
    <glyph glyph-name="uni2198" unicode="&#x2198;" horiz-adv-x="766" 
d="M689 0h-500v68h385l-522 521l48 48l521 -521v384h68v-500z" />
    <glyph glyph-name="uni2199" unicode="&#x2199;" horiz-adv-x="766" 
d="M577 0h-500v500h68v-384l521 521l48 -48l-521 -521h384v-68z" />
    <glyph glyph-name="minus" unicode="&#x2212;" horiz-adv-x="436" 
d="M423 273h-314l10 59h314z" />
    <glyph glyph-name="commaaccent" unicode="&#xf6c3;" 
d="M46 -217l-18 22q42 37 52 65q-14 2 -22.5 13.5t-5.5 26.5q5 29 35 39q31 10 44 -13q7 -13 3 -33q-9 -54 -88 -120z" />
    <glyph glyph-name="NULL" horiz-adv-x="0" 
 />
    <glyph glyph-name="CR" horiz-adv-x="333" 
 />
    <glyph glyph-name="gdotaccent.alt" horiz-adv-x="539" 
d="M387 -33l11 63q-59 -37 -132 -37q-99 0 -150 64q-50 65 -32 168q20 104 94 168q76 64 181 64q123 0 174 -73l-73 -417q-18 -101 -90 -163q-70 -61 -172 -61q-106 0 -159 68l53 45q38 -48 113 -48q71 0 120 43t62 116zM287 58q71 0 124 47l44 252q-41 35 -109 35
q-69 0 -122 -47q-50 -46 -64 -120q-13 -74 22 -120.5t105 -46.5zM330 585q3 20 19.5 34.5t37.5 14.5q20 0 32 -14.5t9 -34.5q-5 -21 -21.5 -35t-37.5 -14q-20 0 -31.5 14.5t-7.5 34.5z" />
    <glyph glyph-name="afii10021.alt" horiz-adv-x="816" 
d="M683 -150l27 150h-604l-27 -150h-70l37 213h57l392 637h72l167 -637h57l-38 -213h-70zM648 63l-134 542l-324 -542h458z" />
    <glyph glyph-name="afii10029.alt" horiz-adv-x="749" 
d="M117 0h-89l434 700h72l187 -700h-89l-152 602z" />
    <glyph glyph-name="afii10058.alt" horiz-adv-x="1001" 
d="M117 0h-89l434 700h72l82 -309h200q91 0 137.5 -53t31.5 -142q-17 -90 -82 -143t-156 -53h-115l-152 602zM804 326h-171l70 -260h55q57 0 97.5 35.5t51.5 94.5q10 58 -18.5 94t-84.5 36z" />
    <glyph glyph-name="afii10069.alt" horiz-adv-x="592" 
d="M516 58h49l-31 -178h-68l22 120h-383l-22 -120h-68l31 178h49l246 392h69zM436 58l-75 309l-186 -309h261z" />
    <glyph glyph-name="afii10077.alt" horiz-adv-x="529" 
d="M107 0h-81l283 450h69l125 -450h-81l-94 363z" />
    <glyph glyph-name="afii10106.alt" horiz-adv-x="707" 
d="M107 0h-81l283 450h69l52 -190h139q66 0 98.5 -36t21.5 -94q-10 -58 -55 -94t-111 -36h-101l-94 363zM556 204h-111l42 -148h43q33 0 57 20.5t30 53.5q5 32 -12 53t-49 21z" />
    <glyph glyph-name="gcommaaccent.alt" horiz-adv-x="539" 
d="M387 -33l11 63q-59 -37 -132 -37q-99 0 -150 64q-50 65 -32 168q20 104 94 168q76 64 181 64q123 0 174 -73l-73 -417q-18 -101 -90 -163q-70 -61 -172 -61q-106 0 -159 68l53 45q38 -48 113 -48q71 0 120 43t62 116zM287 58q71 0 124 47l44 252q-41 35 -109 35
q-69 0 -122 -47q-50 -46 -64 -120q-13 -74 22 -120.5t105 -46.5zM420 683l17 -22q-43 -39 -51 -65q14 -2 22 -13.5t5 -27.5q-3 -17 -17 -29.5t-32 -12.5t-27.5 13t-4.5 36q10 57 88 121z" />
    <glyph glyph-name="gcircumflex.alt" horiz-adv-x="539" 
d="M387 -33l11 63q-59 -37 -132 -37q-99 0 -150 64q-50 65 -32 168q20 104 94 168q76 64 181 64q123 0 174 -73l-73 -417q-18 -101 -90 -163q-70 -61 -172 -61q-106 0 -159 68l53 45q38 -48 113 -48q71 0 120 43t62 116zM287 58q71 0 124 47l44 252q-41 35 -109 35
q-69 0 -122 -47q-50 -46 -64 -120q-13 -74 22 -120.5t105 -46.5zM248 550l147 125l103 -125l-44 -38l-72 87l-103 -87z" />
    <glyph glyph-name="gbreve.alt" horiz-adv-x="539" 
d="M387 -33l11 63q-59 -37 -132 -37q-99 0 -150 64q-50 65 -32 168q20 104 94 168q76 64 181 64q123 0 174 -73l-73 -417q-18 -101 -90 -163q-70 -61 -172 -61q-106 0 -159 68l53 45q38 -48 113 -48q71 0 120 43t62 116zM287 58q71 0 124 47l44 252q-41 35 -109 35
q-69 0 -122 -47q-50 -46 -64 -120q-13 -74 22 -120.5t105 -46.5zM378 582q62 0 110 42l31 -38q-68 -59 -151 -59q-80 0 -130 60l45 38q34 -43 95 -43z" />
    <glyph glyph-name="g.alt" horiz-adv-x="539" 
d="M387 -33l11 63q-59 -37 -132 -37q-99 0 -150 64q-50 65 -32 168q20 104 94 168q76 64 181 64q123 0 174 -73l-73 -417q-18 -101 -90 -163q-70 -61 -172 -61q-106 0 -159 68l53 45q38 -48 113 -48q71 0 120 43t62 116zM287 58q71 0 124 47l44 252q-41 35 -109 35
q-69 0 -122 -47q-50 -46 -64 -120q-13 -74 22 -120.5t105 -46.5z" />
    <glyph glyph-name="zero.fitted" horiz-adv-x="530" 
d="M126 350q28 157 109 258q81 99 182 99q102 0 147 -99q46 -99 18 -258q-28 -157 -109 -258q-79 -99 -181 -99t-148 99t-18 258zM202 350q-23 -132 5 -211q29 -81 96 -81q69 0 124 81q56 80 79 211q23 132 -5 211q-29 81 -96 81q-68 0 -125 -81q-56 -81 -78 -211z" />
    <glyph glyph-name="germandbls.case" horiz-adv-x="590" 
d="M240 521l-91 -521h-76l92 521q13 82 76 134q62 52 148 52q87 0 130 -51t30 -133q-11 -61 -52.5 -105t-100.5 -58q-10 -61 57 -96q63 -29 82 -48q38 -36 27 -96q-8 -52 -54 -89q-47 -38 -117 -38q-91 0 -137 60l53 45q32 -44 90 -44q39 0 63 20t30 47q4 24 -8.5 41.5
t-34 27.5t-46.5 24t-45.5 29.5t-30.5 44.5t-3 69l11 58q54 0 93 30.5t48 80.5q9 51 -18 83.5t-79 32.5t-90 -34t-47 -87z" />
    <glyph glyph-name="at.case" horiz-adv-x="794" 
d="M679 130l29 -35q-114 -102 -282 -102q-159 0 -240 99q-80 100 -52 258q28 159 144 258t273 99q158 0 237 -94q80 -95 55 -234q-20 -110 -84 -158q-58 -43 -117 -43q-65 0 -81 37q-47 -37 -109 -37q-72 0 -108.5 47.5t-22.5 124.5t70 124q55 48 134 48q92 0 129 -55
l-36 -202q-3 -17 9.5 -26.5t34.5 -9.5q43 0 76.5 36.5t44.5 107.5q22 122 -43 203q-65 80 -198 80q-132 0 -229 -85q-96 -84 -120 -221q-24 -138 42 -222q67 -84 201 -84q145 0 243 86zM474 229q48 0 86 29l33 188q-26 25 -78 25t-88.5 -33t-46.5 -88t15.5 -88t78.5 -33z
" />
    <glyph glyph-name="parenleft.case" horiz-adv-x="298" 
d="M412 757l-10 -56q-45 0 -96 -100q-50 -101 -77 -252q-27 -156 -12 -254q15 -97 61 -97l-9 -55q-79 0 -114 114q-33 113 -1 293q32 179 105 293t153 114z" />
    <glyph glyph-name="parenright.case" horiz-adv-x="298" 
d="M174 701l10 56q80 0 113 -114q33 -113 1 -293q-32 -179 -105 -293t-153 -114l10 56q46 0 96 99q50 101 77 252q27 157 12 254t-61 97z" />
    <glyph glyph-name="bracketleft.case" horiz-adv-x="297" 
d="M205 750h174l-11 -58h-101l-120 -684h100l-9 -58h-174z" />
    <glyph glyph-name="bracketright.case" horiz-adv-x="297" 
d="M272 692h-100l11 58h173l-141 -800h-173l10 58h100z" />
    <glyph glyph-name="braceleft.case" horiz-adv-x="318" 
d="M277 -1l-10 -56q-67 0 -103 49q-36 48 -23 124l13 75q10 56 -7 93t-51 37l10 56q34 0 64 37t40 93l14 77q13 76 66 124q53 49 121 49l-10 -56q-34 0 -64 -36t-40 -91l-13 -76q-10 -53 -39.5 -92t-71.5 -57q36 -18 52 -57t7 -92l-14 -74q-10 -55 7.5 -91t51.5 -36z" />
    <glyph glyph-name="braceright.case" horiz-adv-x="318" 
d="M30 -57l10 56q34 0 64 36t39 91l13 74q9 51 38.5 90.5t72.5 58.5q-36 18 -52 57.5t-6 91.5l13 76q10 54 -7.5 90.5t-50.5 36.5l10 56q68 0 102 -49q36 -48 23 -124l-13 -77q-10 -56 7 -93t50 -37l-10 -56q-33 0 -63 -37t-40 -93l-13 -75q-13 -76 -67 -124
q-52 -49 -120 -49z" />
    <glyph glyph-name="exclamdown.case" 
d="M176 658q4 21 21 35t37 14q21 0 32.5 -14t7.5 -35q-3 -20 -20 -34.5t-37 -14.5q-21 0 -32.5 14t-8.5 35zM73 0l90 508h72l-89 -508h-73z" />
    <glyph glyph-name="questiondown.case" horiz-adv-x="471" 
d="M418 114l39 -48q-91 -73 -204 -73q-93 0 -136 52q-42 53 -29 128q12 75 76 119q2 2 19 13.5t21 14.5t18.5 14.5t20 18t16 19t15.5 23.5t10.5 25.5t8.5 30.5l11 57h73l-11 -57q-17 -97 -80 -147q-11 -9 -37.5 -28t-40 -30.5t-27 -31t-17.5 -40.5q-10 -48 17 -82t84 -34
q86 0 153 56zM415 658q-3 -20 -20 -34.5t-37 -14.5q-21 0 -32.5 14t-8.5 35q4 21 21 35t37 14q21 0 32.5 -14t7.5 -35z" />
    <glyph glyph-name="guillemotleft.case" horiz-adv-x="470" 
d="M282 217l-45 -38l-140 171l200 171l32 -38l-156 -133zM451 217l-44 -38l-141 171l201 171l32 -38l-157 -133z" />
    <glyph glyph-name="guillemotright.case" horiz-adv-x="470" 
d="M349 521l141 -171l-201 -171l-31 38l156 133l-109 133zM180 521l141 -171l-201 -171l-32 38l157 133l-110 133z" />
    <glyph glyph-name="one.fitted" horiz-adv-x="530" 
d="M416 0h-304l10 58h115l102 577l-127 -21l11 59l201 31l-114 -646h116z" />
    <glyph glyph-name="guilsinglright.case" horiz-adv-x="300" 
d="M180 521l141 -171l-201 -171l-32 38l157 133l-110 133z" />
    <glyph glyph-name="hyphen.case" horiz-adv-x="340" 
d="M335 321h-219l11 58h219z" />
    <glyph glyph-name="endash.case" horiz-adv-x="500" 
d="M495 321h-379l11 58h379z" />
    <glyph glyph-name="emdash.case" horiz-adv-x="700" 
d="M695 321h-579l11 58h579z" />
    <glyph glyph-name="bar.case" 
d="M137 -50h-73l141 800h73z" />
    <glyph glyph-name="brokenbar.case" 
d="M137 -50h-73l61 350h73zM205 750h73l-62 -350h-73z" />
    <glyph glyph-name="asciitilde.case" horiz-adv-x="433" 
d="M138 299h-50q8 47 43.5 77t81.5 30q50 0 74 -32q26 -32 63 -32q25 0 44 16.5t24 43.5h49q-8 -48 -43.5 -78t-82.5 -30q-27 0 -46 10t-28.5 22.5t-25.5 22.5t-36 10q-25 0 -44 -16.5t-23 -43.5z" />
    <glyph glyph-name="dagger.case" horiz-adv-x="500" 
d="M298 479h-153l10 58h153l38 213h72l-38 -213h153l-10 -58h-152l-94 -529h-72z" />
    <glyph glyph-name="daggerdbl.case" horiz-adv-x="500" 
d="M245 179h-153l10 58h153l43 242h-153l10 58h153l38 213h72l-38 -213h153l-10 -58h-152l-43 -242h153l-11 -58h-152l-41 -229h-72z" />
    <glyph glyph-name="bullet.case" horiz-adv-x="259" 
d="M124 350q6 30 30 50.5t54 20.5t47 -20.5t12 -50.5t-29.5 -50.5t-54.5 -20.5t-47 20.5t-12 50.5z" />
    <glyph glyph-name="A.smcp" horiz-adv-x="586" 
d="M559 0h-81l-39 131h-248l-83 -131h-81l321 504h66zM426 194l-61 219l-137 -219h198z" />
    <glyph glyph-name="Aacute.smcp" horiz-adv-x="586" 
d="M559 0h-81l-39 131h-248l-83 -131h-81l321 504h66zM426 194l-61 219l-137 -219h198zM368 527l-28 35l115 95l29 -34z" />
    <glyph glyph-name="Abreve.smcp" horiz-adv-x="586" 
d="M559 0h-81l-39 131h-248l-83 -131h-81l321 504h66zM426 194l-61 219l-137 -219h198zM476 615l29 -34q-53 -45 -118 -45q-63 0 -101 45l40 34q24 -29 70 -29q45 0 80 29z" />
    <glyph glyph-name="Acircumflex.smcp" horiz-adv-x="586" 
d="M559 0h-81l-39 131h-248l-83 -131h-81l321 504h66zM426 194l-61 219l-137 -219h198zM293 562l115 95l82 -95l-41 -35l-53 62l-75 -62z" />
    <glyph glyph-name="Agrave.smcp" horiz-adv-x="586" 
d="M559 0h-81l-39 131h-248l-83 -131h-81l321 504h66zM426 194l-61 219l-137 -219h198zM320 623l41 34l82 -95l-41 -35z" />
    <glyph glyph-name="Adieresis.smcp" horiz-adv-x="586" 
d="M559 0h-81l-39 131h-248l-83 -131h-81l321 504h66zM426 194l-61 219l-137 -219h198zM283 575q2 16 15.5 28t30.5 12t26.5 -11.5t7.5 -28.5q-3 -30 -35 -37q-31 -8 -43 12q-6 11 -2 25zM506 575q-4 -30 -35 -38q-31 -7 -44 14q-6 10 -3 24q3 17 17 28.5t31 11.5
t26.5 -11.5t7.5 -28.5z" />
    <glyph glyph-name="Amacron.smcp" horiz-adv-x="586" 
d="M559 0h-81l-39 131h-248l-83 -131h-81l321 504h66zM426 194l-61 219l-137 -219h198zM484 549h-189l7 42h189z" />
    <glyph glyph-name="Aogonek.smcp" horiz-adv-x="586" 
d="M499 -26q-3 -18 6 -28.5t27 -10.5q20 0 30 10l20 -23q-23 -20 -56 -20q-32 0 -49 19.5t-11 51.5q3 17 12 27l-39 131h-248l-83 -131h-81l321 504h66l145 -504h-48q-8 -11 -12 -26zM426 194l-61 219l-137 -219h198z" />
    <glyph glyph-name="Aring.smcp" horiz-adv-x="586" 
d="M559 0h-81l-39 131h-248l-83 -131h-81l321 504h66zM426 194l-61 219l-137 -219h198zM408 654q31 0 45.5 -18t9.5 -48t-26.5 -48t-52.5 -18q-29 0 -44.5 18t-10.5 48t27 48t52 18zM359 587q-2 -16 6.5 -25.5t24.5 -9.5q17 0 29 9.5t14 25.5q3 16 -5.5 26t-25.5 10
q-16 0 -28 -10t-15 -26z" />
    <glyph glyph-name="Atilde.smcp" horiz-adv-x="586" 
d="M559 0h-81l-39 131h-248l-83 -131h-81l321 504h66zM426 194l-61 219l-137 -219h198zM319 546h-38q4 30 26.5 49t52.5 19q23 0 42 -17q19 -16 33 -16q13 0 23 8.5t12 21.5h39q-6 -31 -28.5 -49.5t-52.5 -18.5q-25 0 -42 16q-19 17 -32 17q-30 0 -35 -30z" />
    <glyph glyph-name="AE.smcp" horiz-adv-x="602" 
d="M635 446h-194l-29 -164h171l-10 -58h-171l-29 -166h198l-10 -58h-268l22 131h-124l-83 -131h-81l321 504h297zM365 415l-137 -221h99z" />
    <glyph glyph-name="AEacute.smcp" horiz-adv-x="602" 
d="M635 446h-194l-29 -164h171l-10 -58h-171l-29 -166h198l-10 -58h-268l22 131h-124l-83 -131h-81l321 504h297zM365 415l-137 -221h99zM395 527l-28 35l116 95l28 -34z" />
    <glyph glyph-name="B.smcp" horiz-adv-x="432" 
d="M230 0h-169l88 504h151q65 0 98 -36t23 -96q-12 -70 -75 -106q37 -14 53.5 -47t8.5 -78q-10 -63 -59.5 -102t-118.5 -39zM339 146q7 37 -13 60.5t-58 23.5h-94l-30 -169h94q39 0 66.5 23t34.5 62zM286 443h-74l-27 -152h74q35 0 60 21t31 55t-11.5 55t-52.5 21z" />
    <glyph glyph-name="C.smcp" horiz-adv-x="543" 
d="M344 57q92 0 154 53l38 -44q-86 -72 -206 -72q-118 0 -180 71q-61 71 -41 187q19 115 106 186q87 72 206 72t180 -72l-53 -45q-44 54 -135 54q-87 0 -151 -54q-63 -53 -80 -141q-16 -87 29 -141q47 -54 133 -54z" />
    <glyph glyph-name="Cacute.smcp" horiz-adv-x="543" 
d="M344 57q92 0 154 53l38 -44q-86 -72 -206 -72q-118 0 -180 71q-61 71 -41 187q19 115 106 186q87 72 206 72t180 -72l-53 -45q-44 54 -135 54q-87 0 -151 -54q-63 -53 -80 -141q-16 -87 29 -141q47 -54 133 -54zM391 530l-29 34l116 96l28 -35z" />
    <glyph glyph-name="Ccaron.smcp" horiz-adv-x="543" 
d="M344 57q92 0 154 53l38 -44q-86 -72 -206 -72q-118 0 -180 71q-61 71 -41 187q19 115 106 186q87 72 206 72t180 -72l-53 -45q-44 54 -135 54q-87 0 -151 -54q-63 -53 -80 -141q-16 -87 29 -141q47 -54 133 -54zM522 623l-116 -96l-81 96l40 34l54 -61l75 61z" />
    <glyph glyph-name="Ccedilla.smcp" horiz-adv-x="543" 
d="M344 57q92 0 154 53l38 -44q-80 -68 -192 -72l-7 -34q47 -11 40 -57q-4 -27 -25 -44t-50 -17q-31 0 -44 19l25 21q13 -10 25 -10q14 0 25.5 9t13.5 23q2 16 -8.5 24t-34.5 8l11 58q-112 4 -169 75t-37 183q19 115 106 186q87 72 206 72t180 -72l-53 -45q-44 54 -135 54
q-87 0 -151 -54q-63 -53 -80 -141q-16 -87 29 -141q47 -54 133 -54z" />
    <glyph glyph-name="Ccircumflex.smcp" horiz-adv-x="543" 
d="M344 57q92 0 154 53l38 -44q-86 -72 -206 -72q-118 0 -180 71q-61 71 -41 187q19 115 106 186q87 72 206 72t180 -72l-53 -45q-44 54 -135 54q-87 0 -151 -54q-63 -53 -80 -141q-16 -87 29 -141q47 -54 133 -54zM316 562l115 95l83 -95l-42 -35l-53 62l-75 -62z" />
    <glyph glyph-name="Cdotaccent.smcp" horiz-adv-x="543" 
d="M344 57q92 0 154 53l38 -44q-86 -72 -206 -72q-118 0 -180 71q-61 71 -41 187q19 115 106 186q87 72 206 72t180 -72l-53 -45q-44 54 -135 54q-87 0 -151 -54q-63 -53 -80 -141q-16 -87 29 -141q47 -54 133 -54zM376 584q3 18 17.5 30.5t32.5 12.5t28.5 -12.5t7.5 -30.5
q-3 -17 -18 -29.5t-33 -12.5t-28 12.5t-7 29.5z" />
    <glyph glyph-name="D.smcp" horiz-adv-x="541" 
d="M230 0h-169l88 504h169q118 0 180 -69t42 -183q-19 -113 -106 -183q-86 -69 -204 -69zM467 252q15 87 -29 139t-131 52h-95l-68 -382h96q88 0 149 52q62 53 78 139z" />
    <glyph glyph-name="Dcaron.smcp" horiz-adv-x="541" 
d="M230 0h-169l88 504h169q118 0 180 -69t42 -183q-19 -113 -106 -183q-86 -69 -204 -69zM467 252q15 87 -29 139t-131 52h-95l-68 -382h96q88 0 149 52q62 53 78 139zM471 623l-116 -96l-81 96l40 34l54 -61l74 61z" />
    <glyph glyph-name="Dcroat.smcp" horiz-adv-x="549" 
d="M118 225h-38l9 54h38l40 225h159q120 0 181 -69q61 -68 41 -183q-20 -114 -105 -183t-205 -69h-159zM475 252q15 87 -29 139t-131 52h-86l-29 -164h114l-10 -54h-113l-29 -164h86q88 0 149 52q62 53 78 139z" />
    <glyph glyph-name="Eth.smcp" horiz-adv-x="549" 
d="M118 225h-38l9 54h38l40 225h159q120 0 181 -69q61 -68 41 -183q-20 -114 -105 -183t-205 -69h-159zM475 252q15 87 -29 139t-131 52h-86l-29 -164h114l-10 -54h-113l-29 -164h86q88 0 149 52q62 53 78 139z" />
    <glyph glyph-name="Thorn.smcp" horiz-adv-x="412" 
d="M134 0h-73l88 504h73l-18 -101h75q72 0 108.5 -39.5t24.5 -105.5q-11 -66 -61.5 -105t-122.5 -39h-75zM340 258q7 38 -13 61.5t-58 23.5h-75l-30 -168h75q38 0 66 23t35 60z" />
    <glyph glyph-name="E.smcp" horiz-adv-x="388" 
d="M420 446h-210l-29 -164h186l-10 -58h-187l-29 -166h214l-10 -58h-284l88 504h281z" />
    <glyph glyph-name="Eacute.smcp" horiz-adv-x="388" 
d="M420 446h-210l-29 -164h186l-10 -58h-187l-29 -166h214l-10 -58h-284l88 504h281zM277 527l-28 35l115 95l29 -34z" />
    <glyph glyph-name="Ebreve.smcp" horiz-adv-x="388" 
d="M420 446h-210l-29 -164h186l-10 -58h-187l-29 -166h214l-10 -58h-284l88 504h281zM305 586q45 0 80 29l28 -34q-53 -45 -117 -45t-102 45l40 34q26 -29 71 -29z" />
    <glyph glyph-name="Ecaron.smcp" horiz-adv-x="388" 
d="M420 446h-210l-29 -164h186l-10 -58h-187l-29 -166h214l-10 -58h-284l88 504h281zM410 623l-116 -96l-82 96l41 34l53 -61l75 61z" />
    <glyph glyph-name="Ecircumflex.smcp" horiz-adv-x="388" 
d="M420 446h-210l-29 -164h186l-10 -58h-187l-29 -166h214l-10 -58h-284l88 504h281zM202 562l115 95l82 -95l-41 -35l-53 62l-75 -62z" />
    <glyph glyph-name="Edieresis.smcp" horiz-adv-x="388" 
d="M420 446h-210l-29 -164h186l-10 -58h-187l-29 -166h214l-10 -58h-284l88 504h281zM238 615q17 0 26.5 -11.5t7.5 -28.5q-6 -26 -32 -36.5t-43 7.5q-15 19 0 44t41 25zM380 615q17 0 27 -11.5t7 -28.5t-17 -28.5t-31 -11.5t-26.5 11.5t-6.5 28.5t17 28.5t30 11.5z" />
    <glyph glyph-name="Edotaccent.smcp" horiz-adv-x="388" 
d="M420 446h-210l-29 -164h186l-10 -58h-187l-29 -166h214l-10 -58h-284l88 504h281zM262 584q3 18 17.5 30.5t32.5 12.5t28.5 -12.5t6.5 -30.5q-3 -17 -17.5 -29.5t-32.5 -12.5t-28 12.5t-7 29.5z" />
    <glyph glyph-name="Egrave.smcp" horiz-adv-x="388" 
d="M420 446h-210l-29 -164h186l-10 -58h-187l-29 -166h214l-10 -58h-284l88 504h281zM230 623l40 34l82 -95l-41 -35z" />
    <glyph glyph-name="Emacron.smcp" horiz-adv-x="388" 
d="M420 446h-210l-29 -164h186l-10 -58h-187l-29 -166h214l-10 -58h-284l88 504h281zM392 549h-189l8 42h189z" />
    <glyph glyph-name="Eogonek.smcp" horiz-adv-x="388" 
d="M258 -26q-9 -27 16.5 -36.5t46.5 7.5l20 -23q-26 -20 -56 -20q-33 0 -50 19.5t-11 51.5q3 17 12 27h-175l88 504h281l-10 -58h-210l-29 -164h186l-10 -58h-187l-29 -166h214l-10 -58h-75q-10 -12 -12 -26z" />
    <glyph glyph-name="F.smcp" horiz-adv-x="370" 
d="M409 446h-199l-29 -164h175l-10 -58h-176l-39 -224h-70l88 504h270z" />
    <glyph glyph-name="G.smcp" horiz-adv-x="566" 
d="M491 213h-123l10 58h194l-36 -205q-86 -72 -206 -72q-118 0 -180 71q-61 71 -41 187q19 115 106 186q87 72 206 72t180 -72l-53 -45q-44 54 -135 54q-87 0 -151 -54q-63 -53 -80 -141q-16 -87 29 -141q47 -54 133 -54q72 0 125 34z" />
    <glyph glyph-name="Gbreve.smcp" horiz-adv-x="566" 
d="M491 213h-123l10 58h194l-36 -205q-86 -72 -206 -72q-118 0 -180 71q-61 71 -41 187q19 115 106 186q87 72 206 72t180 -72l-53 -45q-44 54 -135 54q-87 0 -151 -54q-63 -53 -80 -141q-16 -87 29 -141q47 -54 133 -54q72 0 125 34zM433 586q45 0 80 29l29 -34
q-52 -45 -118 -45q-64 0 -101 45l40 34q26 -29 70 -29z" />
    <glyph glyph-name="Gcircumflex.smcp" horiz-adv-x="566" 
d="M491 213h-123l10 58h194l-36 -205q-86 -72 -206 -72q-118 0 -180 71q-61 71 -41 187q19 115 106 186q87 72 206 72t180 -72l-53 -45q-44 54 -135 54q-87 0 -151 -54q-63 -53 -80 -141q-16 -87 29 -141q47 -54 133 -54q72 0 125 34zM331 562l115 95l82 -95l-41 -35l-53 62
l-76 -62z" />
    <glyph glyph-name="Gcommaaccent.smcp" horiz-adv-x="566" 
d="M491 213h-123l10 58h194l-36 -205q-86 -72 -206 -72q-118 0 -180 71q-61 71 -41 187q19 115 106 186q87 72 206 72t180 -72l-53 -45q-44 54 -135 54q-87 0 -151 -54q-63 -53 -80 -141q-16 -87 29 -141q47 -54 133 -54q72 0 125 34zM274 -168l-15 19q33 30 40 48
q-12 1 -18.5 11t-4.5 22q2 15 14.5 25.5t27.5 10.5q34 0 28 -40q-8 -42 -72 -96z" />
    <glyph glyph-name="Gdotaccent.smcp" horiz-adv-x="566" 
d="M491 213h-123l10 58h194l-36 -205q-86 -72 -206 -72q-118 0 -180 71q-61 71 -41 187q19 115 106 186q87 72 206 72t180 -72l-53 -45q-44 54 -135 54q-87 0 -151 -54q-63 -53 -80 -141q-16 -87 29 -141q47 -54 133 -54q72 0 125 34zM390 584q3 18 17.5 30.5t32.5 12.5
t28.5 -12.5t7.5 -30.5q-3 -17 -18 -29.5t-33 -12.5t-28 12.5t-7 29.5z" />
    <glyph glyph-name="H.smcp" horiz-adv-x="535" 
d="M149 504h70l-38 -222h272l39 222h70l-88 -504h-70l39 224h-273l-39 -224h-70z" />
    <glyph glyph-name="Hbar.smcp" horiz-adv-x="545" 
d="M151 0h-70l63 364h-43l10 54h43l15 86h70l-15 -86h238l15 86h70l-14 -86h47l-9 -54h-48l-64 -364h-70l39 224h-238zM215 364l-14 -82h237l15 82h-238z" />
    <glyph glyph-name="Hcircumflex.smcp" horiz-adv-x="535" 
d="M149 504h70l-38 -222h272l39 222h70l-88 -504h-70l39 224h-273l-39 -224h-70zM268 562l115 95l82 -95l-41 -35l-53 62l-75 -62z" />
    <glyph glyph-name="I.smcp" horiz-adv-x="189" 
d="M130 0h-71l88 504h71z" />
    <glyph glyph-name="Iacute.smcp" horiz-adv-x="189" 
d="M130 0h-71l88 504h71zM170 527l-28 35l115 95l29 -34z" />
    <glyph glyph-name="Ibreve.smcp" horiz-adv-x="190" 
d="M130 0h-70l88 504h70zM198 586q45 0 80 29l29 -34q-53 -45 -118 -45q-63 0 -101 45l40 34q26 -29 70 -29z" />
    <glyph glyph-name="Icircumflex.smcp" horiz-adv-x="190" 
d="M130 0h-71l88 504h71zM95 562l115 95l82 -95l-41 -35l-53 62l-75 -62z" />
    <glyph glyph-name="Idieresis.smcp" horiz-adv-x="190" 
d="M130 0h-70l88 504h70zM175 575q-3 -30 -35 -38q-30 -7 -43 14q-6 10 -3 24q3 17 17 28.5t31 11.5t26.5 -12t6.5 -28zM263 615q17 0 27 -11.5t8 -28.5q-6 -26 -32.5 -36.5t-43.5 7.5q-15 19 0 44t41 25z" />
    <glyph glyph-name="Idotaccent.smcp" horiz-adv-x="190" 
d="M130 0h-70l88 504h70zM154 584q4 18 18 30.5t32 12.5q19 0 29 -12.5t7 -30.5q-3 -17 -17.5 -29.5t-33.5 -12.5q-18 0 -28 12.5t-7 29.5z" />
    <glyph glyph-name="Igrave.smcp" horiz-adv-x="189" 
d="M130 0h-71l88 504h71zM123 623l40 34l82 -95l-41 -35z" />
    <glyph glyph-name="Imacron.smcp" horiz-adv-x="190" 
d="M130 0h-70l88 504h70zM286 549h-189l7 42h189z" />
    <glyph glyph-name="Iogonek.smcp" horiz-adv-x="190" 
d="M136 0h-71l88 504h71zM87 -26q-4 -18 5 -28.5t27 -10.5q20 0 30 10l21 -23q-26 -20 -56 -20q-32 0 -49 19.5t-11 51.5q2 18 11 27h34q-8 -11 -12 -26z" />
    <glyph glyph-name="Itilde.smcp" horiz-adv-x="189" 
d="M130 0h-71l88 504h71zM121 546h-38q5 30 27 49t52 19q23 0 42 -17q19 -16 33 -16q13 0 23 8.5t12 21.5h38q-5 -31 -27.5 -49.5t-52.5 -18.5q-25 0 -42 16q-19 17 -32 17t-23 -8.5t-12 -21.5z" />
    <glyph glyph-name="IJ.smcp" horiz-adv-x="394" 
d="M162 180h-70l57 324h70zM289 140l63 364h71l-64 -364q-12 -66 -61 -106t-116 -40t-103 41l53 45q18 -23 58 -23q37 0 64.5 23t34.5 60z" />
    <glyph glyph-name="J.smcp" horiz-adv-x="359" 
d="M253 140l64 364h70l-63 -364q-12 -65 -62 -106q-49 -40 -116 -40t-102 41l53 45q18 -23 57 -23q38 0 65 23t34 60z" />
    <glyph glyph-name="Jcircumflex.smcp" horiz-adv-x="358" 
d="M253 140l64 364h70l-63 -364q-12 -65 -62 -106q-49 -40 -116 -40t-102 41l53 45q18 -23 57 -23q38 0 65 23t34 60zM264 562l115 95l82 -95l-41 -35l-53 62l-76 -62z" />
    <glyph glyph-name="K.smcp" horiz-adv-x="474" 
d="M130 0h-71l88 504h71zM446 0h-91l-177 259l250 245h89l-251 -245z" />
    <glyph glyph-name="Kcommaaccent.smcp" horiz-adv-x="474" 
d="M130 0h-71l88 504h71zM446 0h-91l-177 259l250 245h89l-251 -245zM189 -168l-16 19q32 26 40 48q-12 1 -18.5 11t-4.5 22q3 15 15 25.5t27 10.5q35 0 28 -40q-6 -42 -71 -96z" />
    <glyph glyph-name="L.smcp" horiz-adv-x="368" 
d="M149 504h70l-78 -446h199l-10 -58h-269z" />
    <glyph glyph-name="Lacute.smcp" horiz-adv-x="368" 
d="M149 504h70l-78 -446h199l-10 -58h-269zM244 527l-28 35l115 95l29 -34z" />
    <glyph glyph-name="Lcaron.smcp" horiz-adv-x="368" 
d="M149 504h70l-78 -446h199l-10 -58h-269zM305 623l-117 -96l-81 96l40 34l54 -61l75 61z" />
    <glyph glyph-name="Lcommaaccent.smcp" horiz-adv-x="368" 
d="M149 504h70l-78 -446h199l-10 -58h-269zM146 -168l-15 19q30 27 39 48q-12 1 -18.5 11t-4.5 22q4 21 23.5 31t35.5 1t12 -36q-8 -42 -72 -96z" />
    <glyph glyph-name="Ldot.smcp" horiz-adv-x="368" 
d="M149 504h70l-78 -446h199l-10 -58h-269zM357 234q-4 -18 -18.5 -30.5t-32.5 -12.5t-28 12.5t-7 30.5t17 30.5t32 12.5t29 -12.5t8 -30.5z" />
    <glyph glyph-name="Lslash.smcp" horiz-adv-x="396" 
d="M72 128l-29 35l87 71l47 270h71l-38 -215l74 60l28 -34l-114 -95l-29 -162h199l-10 -58h-269l29 166z" />
    <glyph glyph-name="M.smcp" horiz-adv-x="622" 
d="M561 0h-70l63 360l-210 -250h-28l-121 250l-64 -360h-70l88 504h53l145 -293l249 293h53z" />
    <glyph glyph-name="N.smcp" horiz-adv-x="553" 
d="M61 0l88 504h46l250 -370l64 370h71l-88 -504h-46l-250 370l-65 -370h-70z" />
    <glyph glyph-name="Nacute.smcp" horiz-adv-x="553" 
d="M61 0l88 504h46l250 -370l64 370h71l-88 -504h-46l-250 370l-65 -370h-70zM351 527l-28 35l116 95l28 -34z" />
    <glyph glyph-name="Ncaron.smcp" horiz-adv-x="553" 
d="M61 0l88 504h46l250 -370l64 370h71l-88 -504h-46l-250 370l-65 -370h-70zM484 623l-116 -96l-81 96l40 34l54 -61l75 61z" />
    <glyph glyph-name="Ncommaaccent.smcp" horiz-adv-x="553" 
d="M61 0l88 504h46l250 -370l64 370h71l-88 -504h-46l-250 370l-65 -370h-70zM228 -168l-16 19q32 28 41 48q-12 1 -19 11t-5 22q3 15 15 25.5t28 10.5q34 0 28 -40q-8 -42 -72 -96z" />
    <glyph glyph-name="Ntilde.smcp" horiz-adv-x="553" 
d="M61 0l88 504h46l250 -370l64 370h71l-88 -504h-46l-250 370l-65 -370h-70zM302 546h-38q5 30 27 49t52 19q23 0 42 -17q19 -16 33 -16q13 0 23 8.5t12 21.5h38q-5 -31 -27.5 -49.5t-52.5 -18.5q-25 0 -42 16q-19 17 -32 17t-23 -8.5t-12 -21.5z" />
    <glyph glyph-name="Eng.smcp" horiz-adv-x="553" 
d="M351 -180l8 45q38 0 44 36l23 127l-230 342l-65 -370h-70l88 504h46l250 -370l64 370h71l-107 -605q-6 -37 -32 -59.5t-63 -22.5q-20 0 -27 3z" />
    <glyph glyph-name="O.smcp" horiz-adv-x="623" 
d="M421 510q117 0 179 -72q61 -70 41 -186q-19 -114 -107 -187q-86 -71 -204 -71t-180 71q-61 71 -41 187q19 115 106 186q87 72 206 72zM568 252q16 87 -29 141q-43 54 -130 54q-86 0 -149 -54q-62 -54 -78 -141q-16 -86 28 -141q43 -54 130 -54q86 0 149 54q64 54 79 141z
" />
    <glyph glyph-name="Oacute.smcp" horiz-adv-x="623" 
d="M421 510q117 0 179 -72q61 -70 41 -186q-19 -114 -107 -187q-86 -71 -204 -71t-180 71q-61 71 -41 187q19 115 106 186q87 72 206 72zM568 252q16 87 -29 141q-43 54 -130 54q-86 0 -149 -54q-62 -54 -78 -141q-16 -86 28 -141q43 -54 130 -54q86 0 149 54q64 54 79 141z
M406 527l-28 35l116 95l28 -34z" />
    <glyph glyph-name="Obreve.smcp" horiz-adv-x="623" 
d="M421 510q117 0 179 -72q61 -70 41 -186q-19 -114 -107 -187q-86 -71 -204 -71t-180 71q-61 71 -41 187q19 115 106 186q87 72 206 72zM568 252q16 87 -29 141q-43 54 -130 54q-86 0 -149 -54q-62 -54 -78 -141q-16 -86 28 -141q43 -54 130 -54q86 0 149 54q64 54 79 141z
M434 586q45 0 80 29l29 -34q-53 -45 -118 -45q-63 0 -101 45l40 34q26 -29 70 -29z" />
    <glyph glyph-name="Ocircumflex.smcp" horiz-adv-x="623" 
d="M421 510q117 0 179 -72q61 -70 41 -186q-19 -114 -107 -187q-86 -71 -204 -71t-180 71q-61 71 -41 187q19 115 106 186q87 72 206 72zM568 252q16 87 -29 141q-43 54 -130 54q-86 0 -149 -54q-62 -54 -78 -141q-16 -86 28 -141q43 -54 130 -54q86 0 149 54q64 54 79 141z
M331 562l115 95l83 -95l-41 -35l-54 62l-75 -62z" />
    <glyph glyph-name="Odieresis.smcp" horiz-adv-x="623" 
d="M421 510q117 0 179 -72q61 -70 41 -186q-19 -114 -107 -187q-86 -71 -204 -71t-180 71q-61 71 -41 187q19 115 106 186q87 72 206 72zM568 252q16 87 -29 141q-43 54 -130 54q-86 0 -149 -54q-62 -54 -78 -141q-16 -86 28 -141q43 -54 130 -54q86 0 149 54q64 54 79 141z
M321 575q2 16 16 28t31 12t26.5 -12t6.5 -28q-3 -30 -34 -37q-31 -8 -44 12q-6 10 -2 25zM463 575q2 16 16 28t31 12t27 -11.5t7 -28.5q-3 -30 -36 -38q-30 -6 -43 13q-6 10 -2 25z" />
    <glyph glyph-name="Ograve.smcp" horiz-adv-x="623" 
d="M421 510q117 0 179 -72q61 -70 41 -186q-19 -114 -107 -187q-86 -71 -204 -71t-180 71q-61 71 -41 187q19 115 106 186q87 72 206 72zM568 252q16 87 -29 141q-43 54 -130 54q-86 0 -149 -54q-62 -54 -78 -141q-16 -86 28 -141q43 -54 130 -54q86 0 149 54q64 54 79 141z
M359 623l40 34l83 -95l-41 -35z" />
    <glyph glyph-name="Ohungarumlaut.smcp" horiz-adv-x="623" 
d="M421 510q117 0 179 -72q61 -70 41 -186q-19 -114 -107 -187q-86 -71 -204 -71t-180 71q-61 71 -41 187q19 115 106 186q87 72 206 72zM568 252q16 87 -29 141q-43 54 -130 54q-86 0 -149 -54q-62 -54 -78 -141q-16 -86 28 -141q43 -54 130 -54q86 0 149 54q64 54 79 141z
M348 527l-28 35l115 95l29 -34zM465 527l-28 35l115 95l29 -34z" />
    <glyph glyph-name="Omacron.smcp" horiz-adv-x="623" 
d="M421 510q117 0 179 -72q61 -70 41 -186q-19 -114 -107 -187q-86 -71 -204 -71t-180 71q-61 71 -41 187q19 115 106 186q87 72 206 72zM568 252q16 87 -29 141q-43 54 -130 54q-86 0 -149 -54q-62 -54 -78 -141q-16 -86 28 -141q43 -54 130 -54q86 0 149 54q64 54 79 141z
M522 549h-189l7 42h189z" />
    <glyph glyph-name="Oslash.smcp" horiz-adv-x="622" 
d="M115 -6h-72l82 77q-56 71 -36 181q19 115 106 186q87 72 206 72q87 0 148 -43l46 43h72l-83 -77q57 -70 37 -181q-19 -114 -107 -187q-86 -71 -204 -71q-91 0 -149 43zM162 252q-15 -77 19 -129l314 293q-41 31 -106 31q-86 0 -149 -54t-78 -141zM548 252q13 75 -20 128
l-313 -293q43 -30 105 -30q86 0 149 54q62 53 79 141z" />
    <glyph glyph-name="Oslashacute.smcp" horiz-adv-x="622" 
d="M115 -6h-72l82 77q-56 71 -36 181q19 115 106 186q87 72 206 72q87 0 148 -43l46 43h72l-83 -77q57 -70 37 -181q-19 -114 -107 -187q-86 -71 -204 -71q-91 0 -149 43zM162 252q-15 -77 19 -129l314 293q-41 31 -106 31q-86 0 -149 -54t-78 -141zM548 252q13 75 -20 128
l-313 -293q43 -30 105 -30q86 0 149 54q62 53 79 141zM386 527l-28 35l115 95l29 -34z" />
    <glyph glyph-name="Otilde.smcp" horiz-adv-x="623" 
d="M421 510q117 0 179 -72q61 -70 41 -186q-19 -114 -107 -187q-86 -71 -204 -71t-180 71q-61 71 -41 187q19 115 106 186q87 72 206 72zM568 252q16 87 -29 141q-43 54 -130 54q-86 0 -149 -54q-62 -54 -78 -141q-16 -86 28 -141q43 -54 130 -54q86 0 149 54q64 54 79 141z
M357 546h-38q5 30 27 49t52 19q23 0 42 -17q19 -16 33 -16q29 0 36 30h37q-5 -30 -27 -49t-52 -19q-26 0 -43 16q-19 17 -32 17t-23 -8.5t-12 -21.5z" />
    <glyph glyph-name="OE.smcp" horiz-adv-x="681" 
d="M735 446h-194l-29 -164h171l-10 -58h-171l-30 -166h198l-9 -58h-266q-43 -6 -65 -6q-118 0 -180 71q-61 71 -41 187q19 115 106 186q87 72 206 72q23 0 61 -6h263zM340 57q33 0 64 10l65 370q-29 10 -60 10q-86 0 -149 -54q-62 -54 -78 -141q-16 -86 28 -141
q43 -54 130 -54z" />
    <glyph glyph-name="P.smcp" horiz-adv-x="412" 
d="M134 0h-73l88 504h148q72 0 108.5 -39.5t24.5 -105.5q-11 -66 -61.5 -105.5t-122.5 -39.5h-75zM286 443h-74l-30 -168h74q39 0 67 23t35 61t-13 61t-59 23z" />
    <glyph glyph-name="Q.smcp" horiz-adv-x="623" 
d="M610 28l-53 -45l-52 61q-79 -50 -175 -50q-118 0 -180 71q-61 71 -41 187q19 115 106 186q87 72 206 72q117 0 179 -72q61 -70 41 -186q-16 -93 -84 -164zM340 57q74 0 126 32l-67 77l52 45l62 -71q44 47 55 112q16 87 -29 141q-43 54 -130 54q-86 0 -149 -54
q-62 -54 -78 -141q-16 -86 28 -141q43 -54 130 -54z" />
    <glyph glyph-name="R.smcp" horiz-adv-x="425" 
d="M397 0h-81l-80 214h-65l-37 -214h-73l88 504h154q72 0 108.5 -39.5t25.5 -105.5q-10 -51 -44.5 -87.5t-85.5 -50.5zM364 359q6 38 -13.5 61t-57.5 23h-81l-30 -168h81q38 0 66 23.5t35 60.5z" />
    <glyph glyph-name="Racute.smcp" horiz-adv-x="425" 
d="M397 0h-81l-80 214h-65l-37 -214h-73l88 504h154q72 0 108.5 -39.5t25.5 -105.5q-10 -51 -44.5 -87.5t-85.5 -50.5zM364 359q6 38 -13.5 61t-57.5 23h-81l-30 -168h81q38 0 66 23.5t35 60.5zM282 527l-27 35l115 95l29 -34z" />
    <glyph glyph-name="Rcaron.smcp" horiz-adv-x="425" 
d="M397 0h-81l-80 214h-65l-37 -214h-73l88 504h154q72 0 108.5 -39.5t25.5 -105.5q-10 -51 -44.5 -87.5t-85.5 -50.5zM364 359q6 38 -13.5 61t-57.5 23h-81l-30 -168h81q38 0 66 23.5t35 60.5zM416 623l-117 -96l-81 96l41 34l53 -61l75 61z" />
    <glyph glyph-name="Rcommaaccent.smcp" horiz-adv-x="425" 
d="M397 0h-81l-80 214h-65l-37 -214h-73l88 504h154q72 0 108.5 -39.5t25.5 -105.5q-10 -51 -44.5 -87.5t-85.5 -50.5zM364 359q6 38 -13.5 61t-57.5 23h-81l-30 -168h81q38 0 66 23.5t35 60.5zM164 -168l-16 19q30 24 41 48q-12 1 -19 11t-5 22q5 26 33 34t37 -14
q4 -10 1 -24q-8 -44 -72 -96z" />
    <glyph glyph-name="S.smcp" horiz-adv-x="424" 
d="M439 447l-52 -44q-38 44 -99 44q-30 1 -53.5 -13.5t-34.5 -34.5t-10 -42t17 -35q14 -13 43 -25t55.5 -23t51 -26.5t36.5 -42.5t6 -63q-10 -61 -62 -105q-49 -43 -129 -43q-101 0 -158 70l51 44q43 -51 111 -51q45 0 76.5 25t37.5 58q5 28 -18 47t-57 31.5t-68 28
t-54 46.5t-12 77q10 61 57.5 100.5t117.5 39.5q93 0 147 -63z" />
    <glyph glyph-name="Sacute.smcp" horiz-adv-x="424" 
d="M439 447l-52 -44q-38 44 -99 44q-30 1 -53.5 -13.5t-34.5 -34.5t-10 -42t17 -35q14 -13 43 -25t55.5 -23t51 -26.5t36.5 -42.5t6 -63q-10 -61 -62 -105q-49 -43 -129 -43q-101 0 -158 70l51 44q43 -51 111 -51q45 0 76.5 25t37.5 58q5 28 -18 47t-57 31.5t-68 28
t-54 46.5t-12 77q10 61 57.5 100.5t117.5 39.5q93 0 147 -63zM278 527l-27 35l115 95l28 -34z" />
    <glyph glyph-name="Scaron.smcp" horiz-adv-x="424" 
d="M439 447l-52 -44q-38 44 -99 44q-30 1 -53.5 -13.5t-34.5 -34.5t-10 -42t17 -35q14 -13 43 -25t55.5 -23t51 -26.5t36.5 -42.5t6 -63q-10 -61 -62 -105q-49 -43 -129 -43q-101 0 -158 70l51 44q43 -51 111 -51q45 0 76.5 25t37.5 58q5 28 -18 47t-57 31.5t-68 28
t-54 46.5t-12 77q10 61 57.5 100.5t117.5 39.5q93 0 147 -63zM412 623l-117 -96l-81 96l40 34l54 -61l75 61z" />
    <glyph glyph-name="Scedilla.smcp" horiz-adv-x="424" 
d="M439 447l-52 -44q-38 44 -99 44q-30 1 -53.5 -13.5t-34.5 -34.5t-10 -42t17 -35q14 -13 43 -25t55.5 -23t51 -26.5t36.5 -42.5t6 -63q-12 -62 -59 -102.5t-117 -44.5l-7 -35q48 -12 39 -57q-5 -27 -25.5 -44t-49.5 -17q-27 0 -43 19l25 21q11 -10 24 -10q32 0 40 32
q2 16 -8.5 24t-34.5 8l11 59q-92 5 -144 69l51 44q43 -51 111 -51q45 0 76.5 25t37.5 58q5 28 -18 47t-57 31.5t-68 28t-54 46.5t-12 77q10 61 57.5 100.5t117.5 39.5q93 0 147 -63z" />
    <glyph glyph-name="Scircumflex.smcp" horiz-adv-x="424" 
d="M439 447l-52 -44q-38 44 -99 44q-30 1 -53.5 -13.5t-34.5 -34.5t-10 -42t17 -35q14 -13 43 -25t55.5 -23t51 -26.5t36.5 -42.5t6 -63q-10 -61 -62 -105q-49 -43 -129 -43q-101 0 -158 70l51 44q43 -51 111 -51q45 0 76.5 25t37.5 58q5 28 -18 47t-57 31.5t-68 28
t-54 46.5t-12 77q10 61 57.5 100.5t117.5 39.5q93 0 147 -63zM204 562l115 95l83 -95l-42 -35l-54 62l-75 -62z" />
    <glyph glyph-name="Scommaaccent.smcp" horiz-adv-x="424" 
d="M439 447l-52 -44q-38 44 -99 44q-30 1 -53.5 -13.5t-34.5 -34.5t-10 -42t17 -35q14 -13 43 -25t55.5 -23t51 -26.5t36.5 -42.5t6 -63q-10 -61 -62 -105q-49 -43 -129 -43q-101 0 -158 70l51 44q43 -51 111 -51q45 0 76.5 25t37.5 58q5 28 -18 47t-57 31.5t-68 28
t-54 46.5t-12 77q10 61 57.5 100.5t117.5 39.5q93 0 147 -63zM162 -168l-16 19q31 25 40 48q-12 1 -18.5 11t-4.5 22q6 27 33.5 34.5t35.5 -15.5q4 -9 1 -23q-8 -44 -71 -96z" />
    <glyph glyph-name="T.smcp" horiz-adv-x="438" 
d="M478 446h-146l-78 -446h-70l78 446h-146l10 58h362z" />
    <glyph glyph-name="Tbar.smcp" horiz-adv-x="438" 
d="M225 240h-105l9 53h106l27 153h-146l10 58h362l-10 -58h-146l-27 -153h106l-10 -53h-105l-42 -240h-70z" />
    <glyph glyph-name="Tcaron.smcp" horiz-adv-x="438" 
d="M478 446h-146l-78 -446h-70l78 446h-146l10 58h362zM427 623l-116 -96l-82 96l41 34l54 -61l74 61z" />
    <glyph glyph-name="Tcommaaccent.smcp" horiz-adv-x="438" 
d="M478 446h-146l-78 -446h-70l78 446h-146l10 58h362zM170 -168l-15 19q32 26 40 48q-12 1 -18.5 11t-4.5 22q3 15 15 25.5t28 10.5q14 0 22 -10t5 -30q-8 -44 -72 -96z" />
    <glyph glyph-name="uni021A.smcp" horiz-adv-x="438" 
d="M478 446h-146l-78 -446h-70l78 446h-146l10 58h362zM170 -168l-15 19q32 26 40 48q-12 1 -18.5 11t-4.5 22q3 15 15 25.5t28 10.5q14 0 22 -10t5 -30q-8 -44 -72 -96z" />
    <glyph glyph-name="two.fitted" horiz-adv-x="530" 
d="M55 0l11 65l359 303q49 41 62 118q12 69 -19.5 112t-93.5 43q-61 0 -107 -43t-59 -112h-75q18 99 88 160t165 61q97 0 145 -61t31 -160q-18 -102 -97 -167l-303 -256h326l-11 -63h-422z" />
    <glyph glyph-name="three.fitted" horiz-adv-x="530" 
d="M341 349h-46l10 62h46q50 0 88 32q38 34 47 84q9 51 -18 83q-26 32 -76 32t-87.5 -32t-45.5 -83h-75q14 82 74 130q62 50 146 50q85 0 128 -50t29 -130q-18 -101 -111 -145q51 -22 73 -69t11 -110q-16 -92 -88 -152q-70 -58 -168 -58q-99 0 -148 58q-50 59 -34 152h75
q-11 -65 21 -105q33 -40 97 -40q65 0 111 40q49 41 59 105q11 65 -21.5 105.5t-96.5 40.5z" />
    <glyph glyph-name="four.fitted" horiz-adv-x="530" 
d="M423 0h-73l23 136h-316l6 36l405 528h75l-89 -501h63l-11 -63h-60zM456 589l-298 -390h228z" />
    <glyph glyph-name="five.fitted" horiz-adv-x="530" 
d="M531 214q-16 -98 -87 -160q-70 -61 -166 -61t-146 57q-49 58 -32 150h72q-11 -62 21.5 -101.5t95.5 -39.5q62 0 108 43t59 112q13 75 -22.5 122t-105.5 47q-75 0 -125 -43l-49 21l104 339h307l-11 -63h-243l-67 -211q41 23 100 23q101 0 154 -65t33 -170z" />
    <glyph glyph-name="six.fitted" horiz-adv-x="530" 
d="M436 707l56 -36q-129 -144 -216 -261q38 20 84 20q98 0 148 -60q51 -60 34 -158q-16 -97 -89 -159q-72 -60 -171 -60t-150 61q-50 62 -31 164q17 92 77 175q62 87 241 295q4 4 9 10t8 9zM175 212q-12 -68 21 -111t98 -43t113 43t60 111q12 69 -21 112t-98 43t-113 -43
t-60 -112z" />
    <glyph glyph-name="seven.fitted" horiz-adv-x="530" 
d="M495 637h-330l11 63h424l-5 -27l-372 -673h-78z" />
    <glyph glyph-name="eight.fitted" horiz-adv-x="530" 
d="M185 527q14 81 75 130q62 50 146 50q85 0 128.5 -50t29.5 -130q-18 -101 -111 -145q51 -22 73.5 -69t11.5 -110q-16 -92 -88 -152q-70 -58 -169 -58t-150 58q-50 58 -34 152q11 63 50 110t97 69q-79 43 -59 145zM230 307q-48 -42 -58 -104q-11 -65 22 -105t98 -40
q66 0 112 40q49 41 59 105t-22 104q-33 41 -98 41q-64 0 -113 -41zM394 642q-50 0 -87.5 -32t-46.5 -83t17.5 -83t76.5 -32t88 32t47 83t-17.5 83t-77.5 32z" />
    <glyph glyph-name="nine.fitted" horiz-adv-x="530" 
d="M279 23l-26 -30l-57 36q125 137 217 261q-38 -20 -84 -20q-98 0 -149 60q-50 61 -32 158q17 98 89 158q71 61 171 61t149 -61q50 -62 31 -164q-15 -87 -74 -172q-56 -79 -235 -287zM514 488q12 68 -21 111t-98 43t-112 -43q-48 -43 -60 -111q-12 -69 21 -112t98 -43
t112.5 43t59.5 112z" />
    <glyph glyph-name="guilsinglleft.case" horiz-adv-x="300" 
d="M282 217l-45 -38l-140 171l200 171l32 -38l-156 -133z" />
    <glyph glyph-name="Uring.smcp" horiz-adv-x="519" 
d="M434 185l57 319h70l-56 -319q-15 -85 -80 -138t-153 -53t-134 52q-45 53 -30 139l56 319h70l-56 -319q-10 -57 19.5 -92.5t85.5 -35.5q57 0 99 35.5t52 92.5zM389 654q31 0 46 -18t10 -48t-27 -48t-52 -18t-45.5 18t-10.5 48t27 48t52 18zM341 587q-2 -16 6 -25.5
t24 -9.5q17 0 29 9.5t14 25.5q3 16 -5.5 26t-24.5 10q-36 0 -43 -36z" />
    <glyph glyph-name="Utilde.smcp" horiz-adv-x="519" 
d="M434 185l57 319h70l-56 -319q-15 -85 -80 -138t-153 -53t-134 52q-45 53 -30 139l56 319h70l-56 -319q-10 -57 19.5 -92.5t85.5 -35.5q57 0 99 35.5t52 92.5zM300 546h-37q4 30 26 49t52 19q23 0 42 -17q19 -16 33 -16q28 0 36 30h38q-6 -31 -28.5 -49.5t-52.5 -18.5
q-25 0 -42 16q-19 17 -32 17t-23 -8.5t-12 -21.5z" />
    <glyph glyph-name="V.smcp" horiz-adv-x="586" 
d="M564 504h83l-321 -504h-66l-145 504h83l111 -411z" />
    <glyph glyph-name="W.smcp" horiz-adv-x="859" 
d="M839 504h82l-282 -504h-71l-72 382l-204 -382h-72l-105 504h82l77 -394l207 394h73l69 -394z" />
    <glyph glyph-name="Wacute.smcp" horiz-adv-x="859" 
d="M839 504h82l-282 -504h-71l-72 382l-204 -382h-72l-105 504h82l77 -394l207 394h73l69 -394zM504 527l-28 35l116 95l29 -34z" />
    <glyph glyph-name="Wcircumflex.smcp" horiz-adv-x="859" 
d="M839 504h82l-282 -504h-71l-72 382l-204 -382h-72l-105 504h82l77 -394l207 394h73l69 -394zM429 562l116 95l82 -95l-41 -35l-54 62l-74 -62z" />
    <glyph glyph-name="Wdieresis.smcp" horiz-adv-x="859" 
d="M839 504h82l-282 -504h-71l-72 382l-204 -382h-72l-105 504h82l77 -394l207 394h73l69 -394zM419 575q2 16 16 28t31 12q16 0 26 -11.5t8 -28.5q-4 -30 -36 -38q-30 -6 -42 13q-7 10 -3 25zM608 615q17 0 27 -11.5t7 -28.5t-17 -28.5t-31 -11.5t-26.5 11.5t-6.5 28.5
t17 28.5t30 11.5z" />
    <glyph glyph-name="Wgrave.smcp" horiz-adv-x="859" 
d="M839 504h82l-282 -504h-71l-72 382l-204 -382h-72l-105 504h82l77 -394l207 394h73l69 -394zM457 623l40 34l83 -95l-41 -35z" />
    <glyph glyph-name="X.smcp" horiz-adv-x="566" 
d="M538 0h-91l-128 208l-200 -208h-91l247 255l-153 249h91l123 -200l192 200h92l-241 -249z" />
    <glyph glyph-name="Y.smcp" horiz-adv-x="524" 
d="M297 0h-71l37 212l-148 292h81l115 -223l192 223h82l-252 -293z" />
    <glyph glyph-name="Yacute.smcp" horiz-adv-x="524" 
d="M297 0h-71l37 212l-148 292h81l115 -223l192 223h82l-252 -293zM337 527l-28 35l115 95l29 -34z" />
    <glyph glyph-name="Ycircumflex.smcp" horiz-adv-x="524" 
d="M297 0h-71l37 212l-148 292h81l115 -223l192 223h82l-252 -293zM262 562l115 95l82 -95l-41 -35l-53 62l-75 -62z" />
    <glyph glyph-name="Ydieresis.smcp" horiz-adv-x="524" 
d="M297 0h-71l37 212l-148 292h81l115 -223l192 223h82l-252 -293zM298 615q17 0 26.5 -11.5t7.5 -28.5q-6 -26 -32 -36.5t-43 7.5q-15 19 0 44t41 25zM393 575q2 16 16 28t31 12t27 -11.5t7 -28.5q-3 -30 -36 -38q-30 -6 -43 13q-6 10 -2 25z" />
    <glyph glyph-name="Ygrave.smcp" horiz-adv-x="524" 
d="M297 0h-71l37 212l-148 292h81l115 -223l192 223h82l-252 -293zM289 623l41 34l82 -95l-41 -35z" />
    <glyph glyph-name="Z.smcp" horiz-adv-x="489" 
d="M417 446h-289l10 58h393l-4 -22l-369 -424h296l-10 -58h-399l4 22z" />
    <glyph glyph-name="Zacute.smcp" horiz-adv-x="489" 
d="M417 446h-289l10 58h393l-4 -22l-369 -424h296l-10 -58h-399l4 22zM319 527l-27 35l115 95l29 -34z" />
    <glyph glyph-name="Zcaron.smcp" horiz-adv-x="489" 
d="M417 446h-289l10 58h393l-4 -22l-369 -424h296l-10 -58h-399l4 22zM453 623l-116 -96l-82 96l41 34l53 -61l75 61z" />
    <glyph glyph-name="Zdotaccent.smcp" horiz-adv-x="489" 
d="M417 446h-289l10 58h393l-4 -22l-369 -424h296l-10 -58h-399l4 22zM304 584q4 18 18 30.5t32 12.5t28.5 -12.5t7.5 -30.5q-3 -17 -17.5 -29.5t-32.5 -12.5t-28.5 12.5t-7.5 29.5z" />
    <glyph glyph-name="uni018F.smcp" horiz-adv-x="576" 
d="M306 -6q-107 0 -163 71q-54 71 -34 187l5 27h410q5 76 -40 122t-125 46q-89 0 -154 -54l-37 45q88 72 205 72q119 0 180 -72q61 -70 41 -186q-19 -114 -100 -187q-80 -71 -188 -71zM317 57q68 0 122 44.5t74 118.5h-334q-5 -74 32 -118.5t106 -44.5z" />
    <glyph glyph-name="afii10017.smcp" horiz-adv-x="586" 
d="M559 0h-81l-39 131h-248l-83 -131h-81l321 504h66zM426 194l-61 219l-137 -219h198z" />
    <glyph glyph-name="afii10018.smcp" horiz-adv-x="424" 
d="M220 0h-159l88 504h276l-10 -58h-203l-28 -156h87q71 0 107.5 -39.5t25.5 -105.5q-12 -66 -62 -105.5t-122 -39.5zM260 229h-86l-30 -168h86q39 0 66.5 23t34.5 61t-12.5 61t-58.5 23z" />
    <glyph glyph-name="afii10019.smcp" horiz-adv-x="432" 
d="M230 0h-169l88 504h151q65 0 98 -36t23 -96q-12 -70 -75 -106q37 -14 53.5 -47t8.5 -78q-10 -63 -59.5 -102t-118.5 -39zM339 146q7 37 -13 60.5t-58 23.5h-94l-30 -169h94q39 0 66.5 23t34.5 62zM286 443h-74l-27 -152h74q35 0 60 21t31 55t-11.5 55t-52.5 21z" />
    <glyph glyph-name="afii10020.smcp" horiz-adv-x="368" 
d="M131 0h-70l88 504h269l-10 -58h-198z" />
    <glyph glyph-name="afii10021.smcp" horiz-adv-x="532" 
d="M413 -108l20 108h-334l-20 -108h-65l28 164q40 0 67.5 29t37.5 82l59 337h326l-78 -446h55l-30 -166h-66zM269 446l-49 -279q-13 -71 -60 -109h221l69 388h-181z" />
    <glyph glyph-name="afii10022.smcp" horiz-adv-x="388" 
d="M420 446h-210l-29 -164h186l-10 -58h-187l-29 -166h214l-10 -58h-284l88 504h281z" />
    <glyph glyph-name="afii10023.smcp" horiz-adv-x="388" 
d="M420 446h-210l-29 -164h186l-10 -58h-187l-29 -166h214l-10 -58h-284l88 504h281zM238 615q17 0 26.5 -11.5t7.5 -28.5q-6 -26 -32 -36.5t-43 7.5q-15 19 0 44t41 25zM380 615q17 0 27 -11.5t7 -28.5t-17 -28.5t-31 -11.5t-26.5 11.5t-6.5 28.5t17 28.5t30 11.5z" />
    <glyph glyph-name="afii10024.smcp" horiz-adv-x="710" 
d="M390 0h-70l88 504h70zM682 0h-84l-160 259l237 245h81l-236 -245zM211 504l152 -245l-251 -259h-84l253 259l-151 245h81z" />
    <glyph glyph-name="afii10025.smcp" horiz-adv-x="432" 
d="M268 230h-78l11 61h57q38 0 64 20.5t33 57.5q6 37 -13 58.5t-60 21.5q-62 0 -124 -51l-35 43q83 69 175 69q71 0 105 -37t24 -98q-14 -75 -81 -109q37 -15 53.5 -48t8.5 -78q-12 -67 -65 -106.5t-131 -39.5q-101 0 -163 72l52 44q46 -55 116 -55q50 0 82.5 24.5
t39.5 66.5q7 37 -13 60.5t-58 23.5z" />
    <glyph glyph-name="afii10026.smcp" horiz-adv-x="546" 
d="M155 134l371 370h47l-88 -504h-71l65 370l-372 -370h-46l88 504h70z" />
    <glyph glyph-name="afii10027.smcp" horiz-adv-x="546" 
d="M376 586q45 0 80 29l28 -34q-52 -45 -117 -45t-102 45l40 34q27 -29 71 -29zM155 134l371 370h47l-88 -504h-71l65 370l-372 -370h-46l88 504h70z" />
    <glyph glyph-name="afii10028.smcp" horiz-adv-x="474" 
d="M130 0h-71l88 504h71zM446 0h-91l-177 259l250 245h89l-251 -245z" />
    <glyph glyph-name="afii10029.smcp" horiz-adv-x="513" 
d="M36 0l7 45q40 0 67.5 23t34.5 62l66 374h329l-88 -504h-74l79 446h-183l-56 -313q-11 -62 -50 -99t-93 -37q-27 0 -39 3z" />
    <glyph glyph-name="afii10030.smcp" horiz-adv-x="622" 
d="M561 0h-70l63 360l-210 -250h-28l-121 250l-64 -360h-70l88 504h53l145 -293l249 293h53z" />
    <glyph glyph-name="afii10031.smcp" horiz-adv-x="535" 
d="M149 504h70l-38 -222h272l39 222h70l-88 -504h-70l39 224h-273l-39 -224h-70z" />
    <glyph glyph-name="afii10032.smcp" horiz-adv-x="623" 
d="M421 510q117 0 179 -72q61 -70 41 -186q-19 -114 -107 -187q-86 -71 -204 -71t-180 71q-61 71 -41 187q19 115 106 186q87 72 206 72zM568 252q16 87 -29 141q-43 54 -130 54q-86 0 -149 -54q-62 -54 -78 -141q-16 -86 28 -141q43 -54 130 -54q86 0 149 54q64 54 79 141z
" />
    <glyph glyph-name="afii10033.smcp" horiz-adv-x="511" 
d="M61 0l88 504h389l-88 -504h-70l78 446h-248l-79 -446h-70z" />
    <glyph glyph-name="afii10034.smcp" horiz-adv-x="412" 
d="M134 0h-73l88 504h148q72 0 108.5 -39.5t24.5 -105.5q-11 -66 -61.5 -105.5t-122.5 -39.5h-75zM286 443h-74l-30 -168h74q39 0 67 23t35 61t-13 61t-59 23z" />
    <glyph glyph-name="afii10035.smcp" horiz-adv-x="543" 
d="M344 57q92 0 154 53l38 -44q-86 -72 -206 -72q-118 0 -180 71q-61 71 -41 187q19 115 106 186q87 72 206 72t180 -72l-53 -45q-44 54 -135 54q-87 0 -151 -54q-63 -53 -80 -141q-16 -87 29 -141q47 -54 133 -54z" />
    <glyph glyph-name="afii10036.smcp" horiz-adv-x="438" 
d="M478 446h-146l-78 -446h-70l78 446h-146l10 58h362z" />
    <glyph glyph-name="afii10037.smcp" horiz-adv-x="477" 
d="M465 504h75l-349 -504h-76l117 158l-119 346h75l93 -263z" />
    <glyph glyph-name="afii10038.smcp" horiz-adv-x="608" 
d="M355 0h-70l8 48q-99 0 -152 56q-52 57 -36 148q17 92 88 147q72 57 172 57l8 48h70l-8 -48q100 0 151 -57q52 -55 36 -147q-16 -91 -88 -148q-71 -56 -171 -56zM424 393l-50 -282q68 0 116.5 39t59.5 102t-24 102t-102 39zM304 111l49 282q-67 0 -115.5 -39t-59.5 -102
t24 -102t102 -39z" />
    <glyph glyph-name="afii10039.smcp" horiz-adv-x="566" 
d="M538 0h-91l-128 208l-200 -208h-91l247 255l-153 249h91l123 -200l192 200h92l-241 -249z" />
    <glyph glyph-name="afii10040.smcp" horiz-adv-x="563" 
d="M444 -108l20 108h-403l88 504h70l-78 -446h275l79 446h70l-78 -446h52l-29 -166h-66z" />
    <glyph glyph-name="afii10041.smcp" horiz-adv-x="453" 
d="M493 504l-88 -504h-68l38 220q-51 -13 -111 -13q-75 0 -107.5 40.5t-19.5 116.5l25 140h68l-24 -138q-18 -103 82 -103q57 0 97 13l40 228h68z" />
    <glyph glyph-name="afii10042.smcp" horiz-adv-x="771" 
d="M798 504l-88 -504h-649l88 504h70l-78 -446h219l78 446h71l-79 -446h220l78 446h70z" />
    <glyph glyph-name="afii10043.smcp" horiz-adv-x="796" 
d="M677 -108l20 108h-636l88 504h70l-78 -446h219l78 446h71l-79 -446h220l78 446h70l-78 -446h53l-30 -166h-66z" />
    <glyph glyph-name="afii10044.smcp" horiz-adv-x="512" 
d="M231 446h-115l10 58h188l-38 -214h82q71 0 108 -39.5t26 -105.5q-12 -66 -62 -105.5t-122 -39.5h-155zM419 145q7 38 -12.5 61t-58.5 23h-82l-30 -168h82q39 0 67 23t34 61z" />
    <glyph glyph-name="afii10045.smcp" horiz-adv-x="576" 
d="M217 0h-156l88 504h73l-38 -214h83q71 0 107.5 -39.5t25.5 -105.5t-61.5 -105.5t-121.5 -39.5zM257 229h-83l-30 -168h83q38 0 65.5 23t34.5 61t-12.5 61t-57.5 23zM515 0h-70l88 504h70z" />
    <glyph glyph-name="afii10046.smcp" horiz-adv-x="420" 
d="M217 0h-156l88 504h73l-38 -214h83q71 0 107.5 -39.5t25.5 -105.5t-61.5 -105.5t-121.5 -39.5zM257 229h-83l-30 -168h83q38 0 65.5 23t34.5 61t-12.5 61t-57.5 23z" />
    <glyph glyph-name="afii10047.smcp" horiz-adv-x="543" 
d="M152 393l-38 45q88 72 206 72t180 -72q61 -70 41 -186q-19 -114 -107 -187q-86 -71 -205 -71t-180 72l52 44q47 -53 136 -53q79 0 141 45q61 46 83 122h-252l10 58h252q5 74 -40.5 119.5t-124.5 45.5q-90 0 -154 -54z" />
    <glyph glyph-name="afii10048.smcp" horiz-adv-x="792" 
d="M149 504h70l-38 -222h128q27 103 104 165q78 63 179 63q108 0 164 -72q55 -69 35 -186q-19 -114 -101 -187q-80 -71 -189 -71q-101 0 -157 63t-45 167h-129l-39 -224h-70zM511 57q77 0 134 54q58 53 73 141q16 87 -22.5 141t-115.5 54q-76 0 -133 -54q-55 -54 -72 -141
q-16 -86 22 -141q37 -54 114 -54z" />
    <glyph glyph-name="afii10049.smcp" horiz-adv-x="430" 
d="M292 504h165l-88 -504h-73l38 214h-72l-150 -214h-80l163 219q-50 11 -73.5 48.5t-13.5 91.5q12 66 62 105.5t122 39.5zM181 359q-7 -37 13 -60.5t58 -23.5h92l30 168h-92q-39 0 -67 -23t-34 -61z" />
    <glyph glyph-name="afii10050.smcp" horiz-adv-x="366" 
d="M396 446h-186l-79 -446h-70l88 504h203l16 90h54z" />
    <glyph glyph-name="afii10051.smcp" horiz-adv-x="537" 
d="M370 0l7 45q37 0 45 36l16 94q6 33 -11 54t-51 21q-51 0 -83 -28l-39 -222h-70l78 446h-146l10 58h362l-10 -58h-146l-29 -166q46 31 102 31q58 0 86.5 -37.5t17.5 -98.5l-17 -96q-7 -38 -32 -60t-63 -22q-21 0 -27 3z" />
    <glyph glyph-name="afii10052.smcp" horiz-adv-x="368" 
d="M269 527l-27 35l115 95l28 -34zM131 0h-70l88 504h269l-10 -58h-198z" />
    <glyph glyph-name="afii10053.smcp" horiz-adv-x="543" 
d="M413 447q-80 0 -140.5 -45t-82.5 -120h296l-10 -58h-296q-5 -76 39 -121.5t125 -45.5q92 0 154 53l38 -44q-86 -72 -206 -72q-118 0 -180 71q-61 71 -41 187q19 115 106 186q87 72 206 72t180 -72l-53 -45q-44 54 -135 54z" />
    <glyph glyph-name="afii10054.smcp" horiz-adv-x="424" 
d="M439 447l-52 -44q-38 44 -99 44q-30 1 -53.5 -13.5t-34.5 -34.5t-10 -42t17 -35q14 -13 43 -25t55.5 -23t51 -26.5t36.5 -42.5t6 -63q-10 -61 -62 -105q-49 -43 -129 -43q-101 0 -158 70l51 44q43 -51 111 -51q45 0 76.5 25t37.5 58q5 28 -18 47t-57 31.5t-68 28
t-54 46.5t-12 77q10 61 57.5 100.5t117.5 39.5q93 0 147 -63z" />
    <glyph glyph-name="afii10055.smcp" horiz-adv-x="189" 
d="M130 0h-71l88 504h71z" />
    <glyph glyph-name="afii10056.smcp" horiz-adv-x="190" 
d="M130 0h-70l88 504h70zM175 575q-3 -30 -35 -38q-30 -7 -43 14q-6 10 -3 24q3 17 17 28.5t31 11.5t26.5 -12t6.5 -28zM263 615q17 0 27 -11.5t8 -28.5q-6 -26 -32.5 -36.5t-43.5 7.5q-15 19 0 44t41 25z" />
    <glyph glyph-name="afii10057.smcp" horiz-adv-x="359" 
d="M253 140l64 364h70l-63 -364q-12 -65 -62 -106q-49 -40 -116 -40t-102 41l53 45q18 -23 57 -23q38 0 65 23t34 60z" />
    <glyph glyph-name="afii10058.smcp" horiz-adv-x="728" 
d="M524 0h-155l78 446h-173l-56 -313q-11 -62 -50 -99t-93 -37q-27 0 -39 3l7 45q40 0 67.5 23t34.5 62l66 374h318l-38 -214h83q72 0 108.5 -39.5t24.5 -105.5q-11 -66 -61 -105.5t-122 -39.5zM634 145q7 37 -12.5 60.5t-57.5 23.5h-83l-30 -168h83q39 0 66.5 23t33.5 61z
" />
    <glyph glyph-name="afii10059.smcp" horiz-adv-x="725" 
d="M149 504h70l-37 -214h234l38 214h73l-38 -214h83q71 0 107.5 -39.5t25.5 -105.5q-12 -66 -62 -105.5t-121 -39.5h-156l40 229h-235l-40 -229h-70zM632 145q7 38 -12.5 61t-57.5 23h-83l-30 -168h83q39 0 66.5 23t33.5 61z" />
    <glyph glyph-name="afii10060.smcp" horiz-adv-x="537" 
d="M478 446h-146l-29 -166q46 31 102 31q58 0 86.5 -37.5t17.5 -98.5l-30 -175h-71l30 175q6 33 -11 54t-51 21q-51 0 -83 -28l-39 -222h-70l78 446h-146l10 58h362z" />
    <glyph glyph-name="afii10061.smcp" horiz-adv-x="474" 
d="M130 0h-71l88 504h71zM446 0h-91l-177 259l250 245h89l-251 -245zM311 527l-27 35l115 95l29 -34z" />
    <glyph glyph-name="afii10062.smcp" horiz-adv-x="477" 
d="M341 586q46 0 81 29l28 -34q-52 -45 -117 -45t-102 45l41 34q24 -29 69 -29zM465 504h75l-349 -504h-76l117 158l-119 346h75l93 -263z" />
    <glyph glyph-name="afii10145.smcp" horiz-adv-x="538" 
d="M217 -108l20 108h-176l88 504h70l-78 -446h275l79 446h70l-88 -504h-175l-20 -108h-65z" />
    <glyph glyph-name="uni040D.smcp" horiz-adv-x="546" 
d="M301 623l40 34l82 -95l-41 -35zM155 134l371 370h47l-88 -504h-71l65 370l-372 -370h-46l88 504h70z" />
    <glyph glyph-name="uni0400.smcp" horiz-adv-x="388" 
d="M420 446h-210l-29 -164h186l-10 -58h-187l-29 -166h214l-10 -58h-284l88 504h281zM230 623l40 34l83 -95l-42 -35z" />
    <glyph glyph-name="uni04D8.smcp" horiz-adv-x="576" 
d="M306 -6q-107 0 -163 71q-54 71 -34 187l5 27h410q5 76 -40 122t-125 46q-89 0 -154 -54l-37 45q88 72 205 72q119 0 180 -72q61 -70 41 -186q-19 -114 -100 -187q-80 -71 -188 -71zM317 57q68 0 122 44.5t74 118.5h-334q-5 -74 32 -118.5t106 -44.5z" />
    <glyph glyph-name="afii10056_afii10056.smcp" horiz-adv-x="379" 
d="M130 0h-70l88 504h70zM175 575q-3 -30 -35 -38q-30 -7 -43 14q-6 10 -3 24q3 17 17 28.5t31 11.5t26.5 -12t6.5 -28zM320 0h-71l88 504h71zM406 575q2 30 35 38q30 7 43 -14q6 -10 3 -24q-3 -30 -36 -38q-30 -6 -43 13q-6 10 -2 25zM250 575q2 30 35 38q30 7 43 -14
q6 -10 3 -24q-3 -30 -36 -38q-30 -6 -43 13q-6 10 -2 25z" />
    <glyph glyph-name="afii10021.alt.smcp" horiz-adv-x="625" 
d="M507 -108l20 108h-428l-20 -108h-65l29 166h41l283 446h67l127 -446h41l-30 -166h-65zM480 58l-95 356l-220 -356h315z" />
    <glyph glyph-name="afii10029.alt.smcp" horiz-adv-x="586" 
d="M110 0h-83l321 504h66l145 -504h-83l-111 411z" />
    <glyph glyph-name="afii10058.alt.smcp" horiz-adv-x="777" 
d="M110 0h-83l321 504h66l62 -214h147q71 0 108 -39.5t26 -105.5q-12 -66 -62 -105.5t-122 -39.5h-97l-111 411zM613 229h-120l50 -168h40q39 0 66.5 23t34.5 61q7 37 -13 60.5t-58 23.5z" />
    <glyph glyph-name="Aringacute.smcp" horiz-adv-x="586" 
d="M381 618l-12 15l116 96l28 -34l-92 -76q45 -10 37 -63q-8 -43 -42 -59l143 -497h-81l-39 131h-248l-83 -131h-81l317 498q-28 18 -21 58q4 23 19.5 40t38.5 22zM426 194l-61 219l-137 -219h198zM354 555q-3 -16 5.5 -25.5t24.5 -9.5q29 -3 41 26q10 28 -9 41q-8 5 -20 4
q-34 0 -42 -36z" />
    <glyph glyph-name="germandbls.smcp" horiz-adv-x="464" 
d="M194 369l-64 -369h-71l65 369q10 63 58.5 102t115.5 39t102 -38.5t24 -100.5q-7 -41 -36 -72.5t-72 -44.5q-4 -23 9 -38t33.5 -24t41 -19t32.5 -31t6 -52q-7 -40 -44 -68t-89 -28q-71 0 -107 46l49 42q24 -31 63 -31q24 0 40.5 12t19.5 28q3 17 -10.5 29t-34 21
t-40.5 20.5t-31.5 34.5t-5.5 55l10 52q38 0 64.5 19.5t31.5 51.5q6 33 -12.5 54.5t-53.5 21.5t-61.5 -23t-32.5 -58z" />
    <glyph glyph-name="at.smcp" horiz-adv-x="614" 
d="M510 98l28 -32q-86 -72 -210 -72q-120 0 -182 71q-61 71 -41 187q19 115 106 186q87 72 206 72q118 0 180 -68q61 -67 43 -169q-14 -76 -58 -110q-44 -35 -94 -35q-47 0 -63 28q-35 -28 -82 -28q-53 0 -79.5 34t-16.5 90t52 90t101 34q73 0 100 -43l-23 -131
q-2 -14 6 -21t24 -7q27 0 48.5 23.5t29.5 68.5q16 86 -32 142q-47 56 -143 56q-95 0 -165 -59t-86 -153q-17 -96 32 -154t145 -58q104 0 174 58zM300 252q-7 -36 11 -57t54 -21q33 0 59 18l21 123q-18 15 -54 15q-35 0 -60 -21.5t-31 -56.5z" />
    <glyph glyph-name="parenleft.smcp" horiz-adv-x="241" 
d="M317 546l-9 -51q-32 0 -67 -69q-35 -71 -53 -175q-18 -108 -8.5 -175t42.5 -67l-9 -51q-63 0 -91 82q-27 81 -4 212q22 127 79 212q57 82 120 82z" />
    <glyph glyph-name="parenright.smcp" horiz-adv-x="241" 
d="M130 495l9 51q62 0 91 -83q28 -80 5 -211q-22 -128 -80 -212q-55 -82 -120 -82l10 51q31 0 66 68q35 69 54 175q18 107 7 176q-10 67 -42 67z" />
    <glyph glyph-name="bracketleft.smcp" horiz-adv-x="243" 
d="M154 540h141l-9 -53h-73l-83 -470h72l-9 -53h-141z" />
    <glyph glyph-name="bracketright.smcp" horiz-adv-x="243" 
d="M202 487h-73l9 53h141l-102 -576h-141l9 53h73z" />
    <glyph glyph-name="braceleft.smcp" horiz-adv-x="255" 
d="M219 9l-9 -51q-54 0 -83.5 36t-19.5 92l9 51q7 38 -5 63t-34 25l9 51q22 0 42.5 25.5t27.5 63.5l9 53q11 57 52 92q43 36 96 36l-9 -51q-22 0 -42 -25t-27 -61l-9 -53q-15 -78 -83 -105q59 -29 45 -106l-8 -51q-7 -36 5 -60.5t34 -24.5z" />
    <glyph glyph-name="braceright.smcp" horiz-adv-x="255" 
d="M30 -42l9 51q22 0 42.5 24.5t27.5 60.5l8 51q13 76 82 106q-27 13 -39 41t-5 64l9 53q7 36 -5 61t-34 25l8 51q54 0 83.5 -36t19.5 -92l-9 -53q-7 -38 5 -63.5t34 -25.5l-9 -51q-22 0 -42.5 -25t-27.5 -63l-9 -51q-10 -56 -52 -92t-96 -36z" />
    <glyph glyph-name="exclamdown.smcp" horiz-adv-x="187" 
d="M132 467q4 18 18.5 30.5t32.5 12.5t28 -12.5t7 -30.5t-17.5 -30t-32.5 -12t-28.5 12.5t-7.5 29.5zM59 0l63 361h68l-63 -361h-68z" />
    <glyph glyph-name="questiondown.smcp" horiz-adv-x="376" 
d="M322 92l36 -44q-74 -54 -156 -54q-70 0 -104.5 37t-24.5 95q5 29 20.5 50t35 34.5l39 27t35 34t20.5 47.5l7 42h68l-7 -42q-8 -40 -30 -72.5t-48 -47.5q-63 -37 -69 -72q-6 -30 12.5 -51.5t57.5 -21.5q58 0 108 38zM326 467q-3 -17 -17.5 -29.5t-32.5 -12.5t-28.5 12.5
t-7.5 29.5q3 18 18 30.5t33 12.5t28 -12.5t7 -30.5z" />
    <glyph glyph-name="bar.smcp" horiz-adv-x="187" 
d="M120 -36h-68l102 576h68z" />
    <glyph glyph-name="brokenbar.smcp" horiz-adv-x="187" 
d="M120 -36h-68l45 252h68zM154 540h68l-45 -252h-68z" />
    <glyph glyph-name="dagger.smcp" horiz-adv-x="395" 
d="M222 337h-113l10 53h112l27 150h68l-27 -150h113l-9 -53h-113l-66 -373h-68z" />
    <glyph glyph-name="daggerdbl.smcp" horiz-adv-x="395" 
d="M184 121h-113l10 53h112l29 163h-113l10 53h112l27 150h68l-27 -150h113l-9 -53h-113l-29 -163h113l-9 -53h-113l-28 -157h-68z" />
    <glyph glyph-name="zero.smcp" horiz-adv-x="443" 
d="M331 510q78 0 114 -72q36 -70 16 -186q-19 -113 -82 -187q-62 -71 -139 -71q-79 0 -115 71t-16 187q19 116 81 186q62 72 141 72zM180 252q-16 -88 3.5 -143t66.5 -55t86 55t55 143q16 87 -4 142.5t-67 55.5t-86 -55q-39 -56 -54 -143z" />
    <glyph glyph-name="one.smcp" horiz-adv-x="265" 
d="M194 444l-85 -14l9 54l155 23l-89 -507h-68z" />
    <glyph glyph-name="two.smcp" horiz-adv-x="409" 
d="M44 0l9 58l264 215q33 30 40 76q8 44 -13 72t-63 28q-41 0 -72 -28t-39 -72h-70q13 72 66 116.5t126 44.5t110.5 -44.5t24.5 -116.5q-14 -75 -71 -121l-209 -170h229l-10 -58h-322z" />
    <glyph glyph-name="three.smcp" horiz-adv-x="421" 
d="M264 243h-34l10 58h34q34 0 59.5 21t31.5 53q5 33 -13 54t-52 21t-59.5 -21t-30.5 -54h-70q10 60 57.5 97.5t113.5 37.5t100.5 -37.5t23.5 -97.5q-13 -67 -78 -102q74 -36 58 -124q-12 -69 -66 -112t-129 -43t-114 43t-27 112h70q-7 -42 16 -68.5t66 -26.5t75 26.5
t39 68.5q8 41 -15 67.5t-66 26.5z" />
    <glyph glyph-name="four.smcp" horiz-adv-x="436" 
d="M343 0h-68l16 93h-238l6 32l301 379h69l-62 -353h45l-10 -58h-43zM348 401l-199 -250h155z" />
    <glyph glyph-name="five.smcp" horiz-adv-x="409" 
d="M405 155q-13 -72 -66 -116.5t-126 -44.5t-111 42.5t-26 111.5h68q-7 -41 15.5 -67t64.5 -26t73 28t38 72q8 50 -16 80t-72 30q-50 0 -85 -28l-46 17l75 250h236l-10 -58h-176l-42 -131q30 11 63 11q78 0 117.5 -47t25.5 -124z" />
    <glyph glyph-name="six.smcp" horiz-adv-x="417" 
d="M329 510l53 -34q-90 -90 -156 -175q20 10 51 10q75 0 113 -43t25 -115q-12 -72 -66 -115q-55 -44 -129 -44q-76 0 -113.5 44t-24.5 121q14 75 68 150t179 201zM151 153q-8 -44 14.5 -71.5t65.5 -27.5t74.5 27.5t39.5 71.5t-14.5 72t-65.5 28t-75 -28t-39 -72z" />
    <glyph glyph-name="seven.smcp" horiz-adv-x="417" 
d="M361 446h-237l9 58h327l-4 -22l-268 -482h-73z" />
    <glyph glyph-name="eight.smcp" horiz-adv-x="422" 
d="M141 375q11 60 58 97.5t113 37.5q67 0 101.5 -37.5t23.5 -97.5q-13 -67 -78 -102q74 -36 58 -124q-12 -69 -66 -112t-130 -43q-74 0 -113.5 43t-27.5 112q17 90 102 124q-54 35 -41 102zM151 149q-7 -42 15.5 -68.5t65.5 -26.5q44 0 75.5 26.5t38.5 68.5q8 41 -14.5 67.5
t-65.5 26.5t-75 -26.5t-40 -67.5zM212 375q-6 -32 12 -52.5t52 -20.5t59.5 20.5t31.5 52.5q5 33 -13 54t-52 21t-59.5 -21t-30.5 -54z" />
    <glyph glyph-name="nine.smcp" horiz-adv-x="417" 
d="M202 -6l-53 34q90 90 156 175q-20 -10 -51 -10q-75 0 -113 43t-25 115q12 72 66 115q55 44 129 44q76 0 113.5 -44t24.5 -121q-13 -73 -69 -150q-57 -78 -178 -201zM340 279q33 30 40 72q8 44 -15 71q-22 28 -65 28q-44 0 -75 -28q-31 -27 -39 -71q-8 -45 14 -72
q22 -28 65 -28q44 0 75 28z" />
    <glyph glyph-name="dollar.smcp" horiz-adv-x="424" 
d="M217 -72h-39l11 67q-90 6 -139 69l51 44q37 -46 99 -51l30 169q-54 22 -85 47q-40 34 -28 97q10 58 54 96.5t109 42.5l12 67h39l-12 -68q77 -9 120 -61l-52 -44q-28 34 -79 42l-28 -161q40 -15 72 -35q29 -18 40 -42t7 -65q-10 -59 -56 -100t-114 -47zM326 140
q4 24 -10.5 40t-48.5 31l-27 -151q35 8 58 30.5t28 49.5zM190 371q-7 -42 53 -71l26 145q-32 -6 -53.5 -27t-25.5 -47z" />
    <glyph glyph-name="Euro.smcp" horiz-adv-x="577" 
d="M130 281h-44l8 39h49q36 87 115 138.5t178 51.5q118 0 180 -72l-52 -45q-46 54 -136 54q-69 0 -124.5 -34t-84.5 -93h188l-7 -39h-196q-3 -9 -7 -29q-3 -15 -3 -29h196l-6 -39h-189q9 -59 52.5 -93t111.5 -34q90 0 155 53l37 -44q-89 -72 -206 -72q-99 0 -160 51.5
t-66 138.5h-49l7 39h43q1 9 4 29z" />
    <glyph glyph-name="sterling.smcp" horiz-adv-x="407" 
d="M134 225h-57l10 54h56l15 85q10 64 60 105t117 41q66 0 102 -41l-53 -45q-18 23 -57 23q-38 0 -65 -23t-34 -60l-15 -85h129l-10 -54h-129l-23 -133q17 -6 45 -23q31 -18 51 -18q19 0 32 11.5t16 28.5h55q-7 -44 -38 -70.5t-73 -26.5q-32 0 -72 23t-59 23
q-18 0 -31 -10.5t-16 -29.5h-55q10 68 75 91z" />
    <glyph glyph-name="yen.smcp" horiz-adv-x="524" 
d="M253 153h-101l7 39h100l4 20l-148 292h81l115 -223l192 223h82l-252 -293l-4 -19h102l-7 -39h-101l-9 -52h101l-7 -39h-101l-10 -62h-71l11 62h-101l7 39h101z" />
    <glyph glyph-name="uni20B4.smcp" horiz-adv-x="343" 
d="M212 278h-114l6 39h156l10 8q35 29 39 58q5 29 -12.5 47.5t-50.5 18.5q-45 0 -79 -31l-36 43q55 49 126 49q64 0 98 -34.5t24 -89.5q-8 -40 -34 -69h24l-7 -39h-60l-62 -50h114l-7 -39h-154l-12 -10q-34 -27 -40 -58q-4 -29 13.5 -47.5t49.5 -18.5q46 0 80 31l35 -43
q-53 -49 -126 -49q-64 0 -97.5 34.5t-23.5 89.5q8 40 36 71h-26l7 39h62z" />
    <glyph glyph-name="numbersign.smcp" horiz-adv-x="480" 
d="M327 0h-68l39 119h-118l-40 -119h-68l39 119h-53l10 54h62l52 158h-61l10 54h69l41 119h68l-41 -119h119l40 119h68l-40 -119h54l-10 -54h-61l-53 -158h62l-10 -54h-70zM369 331h-118l-53 -158h119z" />
    <glyph glyph-name="zero.fitted.smcp" horiz-adv-x="417" 
d="M115 65q-34 72 -15 187t80 186q62 72 138 72q78 0 112 -72q34 -70 15 -186q-19 -115 -81 -187q-60 -71 -137 -71t-112 71zM170 252q-15 -88 3.5 -143t64.5 -55t83 55q38 56 54 143q15 88 -3.5 143t-64.5 55t-83.5 -55t-53.5 -143z" />
    <glyph glyph-name="one.fitted.smcp" horiz-adv-x="417" 
d="M326 0h-238l10 53h84l69 391l-94 -14l9 54l164 23l-80 -454h86z" />
    <glyph glyph-name="two.fitted.smcp" horiz-adv-x="418" 
d="M47 0l10 58l265 215q32 28 41 76q8 44 -13.5 72t-63.5 28t-73 -28t-39 -72h-70q13 72 66 116.5t126 44.5q74 0 111 -45q38 -45 25 -116q-14 -72 -74 -121l-210 -170h233l-10 -58h-324z" />
    <glyph glyph-name="three.fitted.smcp" horiz-adv-x="418" 
d="M263 243h-34l9 58h34q34 0 60 21t32 53q5 33 -13 54t-52 21t-59.5 -21t-30.5 -54h-70q10 59 57 97q49 38 113 38q67 0 101.5 -37.5t23.5 -97.5q-14 -67 -78 -102q74 -36 58 -124q-12 -69 -66 -112t-130 -43q-74 0 -113 43t-27 112h70q-7 -42 15.5 -68.5t65.5 -26.5
q44 0 75.5 26.5t38.5 68.5q8 41 -14.5 67.5t-65.5 26.5z" />
    <glyph glyph-name="four.fitted.smcp" horiz-adv-x="417" 
d="M333 0h-68l16 93h-235l6 32l298 379h68l-61 -353h45l-11 -58h-42zM338 401l-196 -250h152z" />
    <glyph glyph-name="five.fitted.smcp" horiz-adv-x="418" 
d="M410 155q-13 -72 -66 -116.5t-126 -44.5q-74 0 -112 42.5t-26 111.5h68q-7 -41 15.5 -67t64.5 -26t73.5 28t38.5 72q9 49 -16 79.5t-73 30.5q-50 0 -85 -28l-46 17l75 250h237l-10 -58h-177l-42 -131q30 11 63 11q79 0 118.5 -47t25.5 -124z" />
    <glyph glyph-name="six.fitted.smcp" horiz-adv-x="418" 
d="M330 510l52 -34q-91 -91 -156 -175q20 10 51 10q75 0 114 -44t26 -114q-14 -73 -68 -115q-55 -44 -129 -44q-75 0 -113.5 45t-25.5 120q14 74 69 149q54 75 180 202zM347 153q7 44 -15.5 72t-65.5 28t-75 -28t-40 -72t14.5 -71.5t65.5 -27.5t75.5 27.5t40.5 71.5z" />
    <glyph glyph-name="seven.fitted.smcp" horiz-adv-x="417" 
d="M361 446h-237l10 58h325l-3 -22l-269 -482h-72z" />
    <glyph glyph-name="eight.fitted.smcp" horiz-adv-x="418" 
d="M139 375q10 60 58 97q49 38 113 38q66 0 100.5 -37.5t24.5 -97.5q-13 -67 -78 -102q74 -36 58 -124q-12 -69 -66 -112t-129 -43q-76 0 -115 43t-27 112q16 88 101 124q-53 35 -40 102zM148 149q-7 -42 16 -68.5t66 -26.5t75 26.5t40 68.5q8 41 -15 67.5t-66 26.5
t-75.5 -26.5t-40.5 -67.5zM209 375q-6 -32 12.5 -52.5t52.5 -20.5t59 20.5t31 52.5q5 33 -12.5 54t-51.5 21t-60 -21t-31 -54z" />
    <glyph glyph-name="nine.fitted.smcp" horiz-adv-x="417" 
d="M202 -6l-53 34q90 90 156 175q-20 -10 -51 -10q-75 0 -113 43t-25 115q12 72 66 115q55 44 130 44t113 -45t25 -120q-14 -73 -69 -150q-58 -79 -179 -201zM340 279q33 30 40 72q8 44 -15 71q-22 28 -65 28q-44 0 -75 -28q-31 -27 -39 -71q-8 -45 14 -72q22 -28 65 -28
q44 0 75 28z" />
    <glyph glyph-name="exclam.smcp" horiz-adv-x="187" 
d="M61 37q2 17 17 29.5t33 12.5t28 -12.5t7 -29.5q-3 -18 -17.5 -30.5t-32.5 -12.5t-28.5 12.5t-6.5 30.5zM156 143h-68l63 361h68z" />
    <glyph glyph-name="ampersand.smcp" horiz-adv-x="468" 
d="M364 243h-51l9 58h173l-10 -58h-51l-17 -94q-12 -69 -66 -112t-130 -43q-74 0 -113.5 43t-27.5 112q16 88 103 124q-55 35 -42 102q11 60 58 97.5t113 37.5q67 0 101.5 -37.5t23.5 -97.5h-70q5 33 -13 54t-52 21t-59.5 -21t-30.5 -54q-6 -32 11.5 -53t51.5 -21h21
l-10 -58h-20q-43 0 -75 -26.5t-40 -67.5q-7 -42 15.5 -68.5t65.5 -26.5q44 0 75.5 26.5t38.5 68.5z" />
    <glyph glyph-name="slash.smcp" horiz-adv-x="436" 
d="M106 -36h-69l382 576h68z" />
    <glyph glyph-name="backslash.smcp" horiz-adv-x="436" 
d="M139 540h69l177 -576h-68z" />
    <glyph glyph-name="question.smcp" horiz-adv-x="376" 
d="M151 412l-36 44q73 54 157 54q70 0 104 -37t24 -95q-6 -33 -27 -59t-48 -40q-27 -13 -48 -38t-27 -56l-7 -42h-68l7 42q8 40 30 72.5t48 47.5q63 37 69 72q6 29 -12.5 51t-56.5 22q-56 0 -109 -38zM147 37q3 17 17.5 29.5t32.5 12.5t28 -12.5t8 -29.5q-4 -18 -18 -30.5
t-32 -12.5t-29 12.5t-7 30.5z" />
    <glyph glyph-name="percent.smcp" horiz-adv-x="676" 
d="M243 0h-68l366 504h69zM224 258q-58 0 -88.5 35t-20.5 91t52.5 91t101.5 35t89.5 -35t20.5 -91t-53 -91t-102 -35zM176 384q-6 -34 10 -54.5t48 -20.5t55 20.5t29 54.5q6 33 -10 54t-48 21q-31 0 -54.5 -21t-29.5 -54zM405 120q11 57 53.5 91.5t101.5 34.5q58 0 88.5 -35
t20.5 -91q-11 -56 -53.5 -91t-100.5 -35q-59 0 -89.5 35t-20.5 91zM467 120q-6 -33 10 -54t47 -21t55 21t30 54q5 34 -11 54.5t-48 20.5q-31 0 -54.5 -21t-28.5 -54z" />
    <glyph glyph-name="perthousand.smcp" horiz-adv-x="974" 
d="M243 0h-68l366 504h69zM224 258q-58 0 -88.5 35t-20.5 91t52.5 91t101.5 35t89.5 -35t20.5 -91t-53 -91t-102 -35zM176 384q-6 -34 10 -54.5t48 -20.5t55 20.5t29 54.5q6 33 -10 54t-48 21q-31 0 -54.5 -21t-29.5 -54zM405 120q11 57 53.5 91.5t101.5 34.5q58 0 88.5 -35
t20.5 -91q-11 -56 -53.5 -91t-100.5 -35q-59 0 -89.5 35t-20.5 91zM467 120q-6 -33 10 -54t47 -21t55 21t30 54q5 34 -11 54.5t-48 20.5q-31 0 -54.5 -21t-28.5 -54zM724 29q-31 35 -20 91q11 57 52 91q43 35 101 35q59 0 89 -35q32 -35 21 -91q-11 -58 -53 -91
q-43 -35 -101 -35q-59 0 -89 35zM764 120q-6 -33 10 -54t48 -21q31 0 54.5 21t29.5 54q6 34 -10 54.5t-48 20.5t-55 -20.5t-29 -54.5z" />
    <glyph glyph-name="section.smcp" horiz-adv-x="340" 
d="M195 319l127 -146l-54 -44l-127 146q-43 49 -32 108q10 56 56 91.5t110 35.5q73 0 109 -49l-51 -43q-22 31 -69 31q-32 0 -56 -19t-29 -48q-7 -37 16 -63zM201 5l-126 146l53 45l127 -147q44 -50 32 -108q-10 -56 -56 -91.5t-110 -35.5q-74 0 -108 49l50 43
q22 -31 69 -31q32 0 56 19t29 48q7 37 -16 63z" />
    <glyph glyph-name="paragraph.smcp" horiz-adv-x="468" 
d="M300 504h85l-88 -504h-66l39 224h-19q-69 0 -104.5 38t-24.5 102q10 63 59.5 101.5t118.5 38.5zM420 0h-66l88 504h66z" />
    <glyph glyph-name="quoteright_afii10056.smcp" horiz-adv-x="274" 
d="M214 0h-70l88 504h70zM347 615q17 0 27 -11.5t8 -28.5q-6 -26 -32.5 -36.5t-43.5 7.5q-15 19 0 44t41 25zM112 491l-21 26q46 37 60 73q-17 2 -27 15.5t-7 32.5q5 21 21.5 35t37.5 14t32.5 -15t5.5 -42q-11 -63 -102 -139z" />
    <glyph glyph-name="zero.sub" horiz-adv-x="302" 
d="M79 -4q-23 50 -9 129q13 78 55 129q41 50 93 50t76 -50q24 -49 10 -129q-13 -79 -56 -129q-41 -50 -93 -50t-76 50zM115 125q-11 -62 2 -100.5t45 -38.5t58.5 38.5t37.5 100.5t-2 100.5t-45 38.5t-59 -38.5t-37 -100.5z" />
    <glyph glyph-name="one.sub" horiz-adv-x="182" 
d="M127 261l-57 -10l6 35l102 16l-62 -352h-44z" />
    <glyph glyph-name="two.sub" horiz-adv-x="279" 
d="M24 -50l6 38l177 150q22 18 28 54q5 32 -8.5 52t-41.5 20q-29 0 -50 -20t-26 -52h-46q9 50 44.5 81t84.5 31q48 0 72.5 -31t16.5 -81q-9 -52 -49 -83l-141 -121h153l-6 -38h-214z" />
    <glyph glyph-name="three.sub" horiz-adv-x="287" 
d="M173 121h-23l7 37h23q23 0 40 15t22 39q4 23 -8 37.5t-35 14.5t-40 -14.5t-22 -37.5h-46q8 41 39.5 66.5t74.5 25.5q44 0 67 -25.5t15 -66.5q-9 -50 -52 -72q48 -24 38 -87q-8 -48 -44.5 -77.5t-86.5 -29.5t-75.5 29.5t-16.5 77.5h45q-12 -44 30 -61.5t76 12.5
q22 19 27 48.5t-10.5 50.5t-44.5 18z" />
    <glyph glyph-name="four.sub" horiz-adv-x="297" 
d="M222 -50h-44l11 66h-158l4 20l202 264h44l-43 -247h31l-7 -37h-29zM230 233l-137 -180h105z" />
    <glyph glyph-name="five.sub" horiz-adv-x="279" 
d="M266 58q-9 -50 -44.5 -81t-83.5 -31q-49 0 -74 29.5t-16 76.5h44q-5 -29 9.5 -47.5t43.5 -18.5q28 0 49 20t26 52q6 34 -10 56t-48 22q-35 0 -58 -20l-30 12l51 172h157l-7 -38h-118l-29 -95q20 9 43 9q52 0 78 -32.5t17 -85.5z" />
    <glyph glyph-name="six.sub" horiz-adv-x="286" 
d="M219 304l33 -22q-70 -78 -105 -124q13 7 35 7q50 0 75 -30q26 -30 17 -79t-45 -79q-35 -31 -86 -31t-76 30.5t-15 83.5q7 46 43 98q28 40 124 146zM97 56q-6 -31 9 -50.5t44 -19.5t50.5 19t27.5 51q5 32 -9.5 52t-43.5 20t-51 -20t-27 -52z" />
    <glyph glyph-name="seven.sub" horiz-adv-x="284" 
d="M238 262h-159l7 38h216l-2 -14l-182 -336h-47z" />
    <glyph glyph-name="eight.sub" horiz-adv-x="288" 
d="M91 212q7 41 39 66.5t75 25.5q44 0 66.5 -26t15.5 -66q-9 -49 -53 -72q50 -26 39 -87q-9 -48 -45 -77.5t-86 -29.5t-75.5 29.5t-17.5 77.5q11 63 69 87q-38 24 -27 72zM149 -14q30 0 51.5 18.5t26.5 48.5t-10 48.5t-44 18.5t-51 -18.5t-27 -48.5t10 -48.5t44 -18.5z
M137 212q-4 -24 7.5 -38.5t34.5 -14.5q24 0 41.5 14.5t21.5 38.5q9 37 -25 48t-61 -12q-17 -14 -19 -36z" />
    <glyph glyph-name="nine.sub" horiz-adv-x="286" 
d="M129 -54l-34 22q65 70 106 124q-13 -7 -35 -7q-50 0 -75 30t-16 79q8 49 44 79.5t86 30.5q51 0 76 -30.5t15 -83.5q-7 -46 -43 -98q-28 -40 -124 -146zM251 194q5 32 -9.5 51t-43.5 19t-51 -19.5t-27 -50.5q-6 -32 9 -52t44 -20t50.5 20t27.5 52z" />
    <glyph glyph-name="comma.sub" horiz-adv-x="131" 
d="M31 -106l-12 14q23 22 31 39q-21 5 -18 27q2 12 12 20t22 8q27 0 21 -32q-6 -33 -56 -76z" />
    <glyph glyph-name="period.sub" horiz-adv-x="131" 
d="M33 -26q2 12 12 20t21 8q12 0 18.5 -8t4.5 -20q-1 -12 -11 -20t-22 -8q-11 0 -17.5 8t-5.5 20z" />
    <glyph glyph-name="parenleft.sub" horiz-adv-x="167" 
d="M208 329l-6 -33q-21 0 -45 -49q-24 -48 -36 -122q-14 -77 -7.5 -124t28.5 -47l-6 -33q-41 0 -59 58t-2 146q17 89 54 146q37 58 79 58z" />
    <glyph glyph-name="parenright.sub" horiz-adv-x="167" 
d="M84 296l6 33q42 0 60 -57.5t2 -146.5q-16 -90 -54 -147q-37 -57 -80 -57l6 33q22 0 45.5 48.5t36.5 122.5q13 77 6.5 124t-28.5 47z" />
    <glyph glyph-name="hyphen.sub" horiz-adv-x="189" 
d="M171 107h-115l6 36h115z" />
    <glyph glyph-name="zero.sup" horiz-adv-x="302" 
d="M374 525q-13 -79 -55 -130q-40 -49 -93 -49q-52 0 -76 49.5t-10 129.5q13 78 55 129q42 50 94 50t75.5 -50t9.5 -129zM185 525q-11 -63 2 -101t45 -38t59 38.5t37 100.5q11 62 -1.5 100.5t-44.5 38.5t-59 -38.5t-38 -100.5z" />
    <glyph glyph-name="one.sup" horiz-adv-x="182" 
d="M197 661l-56 -10l6 35l101 16l-62 -352h-44z" />
    <glyph glyph-name="two.sup" horiz-adv-x="279" 
d="M94 350l7 38l176 150q24 20 28 54q6 32 -7.5 52t-41.5 20t-49.5 -20t-27.5 -52h-46q10 50 45 81t84 31t73 -31q25 -31 16 -81t-48 -83l-142 -121h154l-7 -38h-214z" />
    <glyph glyph-name="three.sup" horiz-adv-x="287" 
d="M242 521h-23l7 37h23q24 0 40.5 15t21.5 39q4 23 -8 37.5t-35 14.5t-40 -14.5t-22 -37.5h-46q8 41 40 66.5t75 25.5t66 -25.5t15 -66.5q-8 -50 -52 -72q50 -26 39 -87q-9 -48 -45 -77.5t-86 -29.5t-75.5 29.5t-17.5 77.5h46q-8 -29 9.5 -48t44 -18.5t51.5 17.5
q22 19 27 48.5t-10.5 50.5t-44.5 18z" />
    <glyph glyph-name="four.sup" horiz-adv-x="297" 
d="M292 350h-44l12 66h-158l3 20l203 264h44l-43 -247h30l-6 -37h-29zM300 633l-137 -180h105z" />
    <glyph glyph-name="five.sup" horiz-adv-x="279" 
d="M336 458q-9 -50 -44.5 -81t-84.5 -31t-73.5 29.5t-16.5 76.5h44q-5 -29 9.5 -47.5t43.5 -18.5q28 0 49 20t27 52q6 34 -10 56t-48 22q-35 0 -58 -20l-30 12l51 172h157l-7 -38h-118l-29 -95q18 9 43 9q52 0 78 -32.5t17 -85.5z" />
    <glyph glyph-name="six.sup" horiz-adv-x="286" 
d="M288 704l34 -22q-58 -61 -105 -124q13 7 35 7q48 0 74 -30t17 -79q-9 -48 -45 -80q-36 -30 -86 -30q-51 0 -75.5 30.5t-15.5 83.5q9 47 44 98q31 45 123 146zM166 456q-5 -31 9.5 -50.5t43.5 -19.5t51 19.5t27 50.5q6 32 -8.5 52t-43.5 20t-51 -20t-28 -52z" />
    <glyph glyph-name="seven.sup" horiz-adv-x="284" 
d="M309 662h-159l7 38h216l-2 -14l-183 -336h-47z" />
    <glyph glyph-name="eight.sup" horiz-adv-x="288" 
d="M162 612q8 41 39.5 66.5t74.5 25.5q44 0 67 -25.5t15 -66.5q-8 -49 -53 -72q51 -26 39 -87q-8 -48 -44.5 -77.5t-86.5 -29.5t-75.5 29.5t-16.5 77.5q11 62 68 87q-36 22 -27 72zM220 386q30 0 52 18.5t27 48.5t-10 48.5t-45 18.5q-29 0 -51 -18.5t-27 -48.5t10 -48.5
t44 -18.5zM208 612q-4 -24 8 -38.5t35 -14.5q24 0 41 14.5t21 38.5q4 23 -8 37.5t-35 14.5t-40.5 -14.5t-21.5 -37.5z" />
    </font>
</defs>
</svg>
